<svg xmlns="http://www.w3.org/2000/svg" xmlns:xlink="http://www.w3.org/1999/xlink" width="820" height="585" viewBox="0 0 820 585">
  <defs>
    <clipPath id="clip-path">
      <rect id="Rectángulo_377787" data-name="Rectángulo 377787" width="820" height="585" transform="translate(390 1140)" fill="none"/>
    </clipPath>
    <clipPath id="clip-path-2">
      <rect id="Rectángulo_377777" data-name="Rectángulo 377777" width="820" height="586.022" fill="#345359"/>
    </clipPath>
    <clipPath id="clip-path-3">
      <path id="Trazado_609472" data-name="Trazado 609472" d="M394.6,0a9.935,9.935,0,0,0-9.906,9.906V129.858A120.756,120.756,0,1,0,591.981,214.08q0-4.511-.33-8.941h18.906a9.934,9.934,0,0,0,9.906-9.905V9.906A9.934,9.934,0,0,0,610.556,0Z" transform="translate(-350.463)" fill="none"/>
    </clipPath>
    <clipPath id="clip-path-4">
      <rect id="Rectángulo_377783" data-name="Rectángulo 377783" width="60.269" height="69.31" fill="#345359"/>
    </clipPath>
    <clipPath id="clip-path-5">
      <rect id="Rectángulo_377784" data-name="Rectángulo 377784" width="64.565" height="64.547" fill="#345359"/>
    </clipPath>
    <clipPath id="clip-path-6">
      <rect id="Rectángulo_377785" data-name="Rectángulo 377785" width="61.234" height="61.229" fill="#345359"/>
    </clipPath>
    <clipPath id="clip-path-7">
      <rect id="Rectángulo_377786" data-name="Rectángulo 377786" width="64.344" height="64.278" fill="#345359"/>
    </clipPath>
  </defs>
  <g id="Enmascarar_grupo_154322" data-name="Enmascarar grupo 154322" transform="translate(-390 -1140)" clip-path="url(#clip-path)">
    <g id="Grupo_1072304" data-name="Grupo 1072304" transform="translate(0 2)">
      <g id="Grupo_1072295" data-name="Grupo 1072295" transform="translate(390 1097)">
        <g id="Grupo_1072292" data-name="Grupo 1072292">
          <g id="Grupo_1072291" data-name="Grupo 1072291" clip-path="url(#clip-path-2)">
            <path id="Trazado_609382" data-name="Trazado 609382" d="M465.652,373.293c-79.386,0-143.971-64.585-143.971-143.971S386.266,85.35,465.652,85.35s143.972,64.585,143.972,143.972S545.039,373.293,465.652,373.293m0-283.417c-76.892,0-139.447,62.555-139.447,139.446S388.76,368.769,465.652,368.769,605.1,306.213,605.1,229.322,542.543,89.875,465.652,89.875" transform="translate(-56.134 -14.894)" fill="#345359"/>
            <path id="Trazado_609383" data-name="Trazado 609383" d="M86.915,329.8a86.927,86.927,0,0,1-22.074-171l.777,2.964a83.924,83.924,0,1,0,21.3-2.728,85.086,85.086,0,0,0-10.868.7l-.393-3.038a88.052,88.052,0,0,1,11.261-.723,86.914,86.914,0,1,1,0,173.828" transform="translate(0 -27.217)" fill="#345359"/>
            <path id="Trazado_609384" data-name="Trazado 609384" d="M88.462,158.059l-13.634,9.227,2.259-6.838L72.268,155.1Z" transform="translate(-12.611 -27.065)" fill="#345359"/>
            <path id="Trazado_609385" data-name="Trazado 609385" d="M114.086,155.466A11.157,11.157,0,1,1,102.93,144.31a11.157,11.157,0,0,1,11.157,11.156" transform="translate(-16.015 -25.182)" fill="#345359"/>
            <path id="Trazado_609386" data-name="Trazado 609386" d="M115.858,363.216a6.965,6.965,0,1,1-6.966-6.965,6.965,6.965,0,0,1,6.966,6.965" transform="translate(-17.787 -62.167)" fill="#e0e0e0"/>
            <rect id="Rectángulo_377773" data-name="Rectángulo 377773" width="95.127" height="3.065" transform="translate(172.297 214.133)" fill="#345359"/>
            <path id="Trazado_609387" data-name="Trazado 609387" d="M215.014,259.569a7.981,7.981,0,1,1-7.981-7.981,7.982,7.982,0,0,1,7.981,7.981" transform="translate(-34.735 -43.903)" fill="#345359"/>
            <path id="Trazado_609388" data-name="Trazado 609388" d="M328.745,259.961a6.126,6.126,0,1,1-6.127-6.125,6.126,6.126,0,0,1,6.127,6.125" transform="translate(-55.229 -44.295)" fill="#345359"/>
            <path id="Trazado_609389" data-name="Trazado 609389" d="M198.375,520.593a335.546,335.546,0,0,1-85.213-134.5l2.9-.974A332.458,332.458,0,0,0,200.5,518.385Z" transform="translate(-19.747 -67.204)" fill="#345359"/>
            <path id="Trazado_609390" data-name="Trazado 609390" d="M110.612,372.968l10.8,12.86-7.176-1.572-4.918,5.452Z" transform="translate(-19.076 -65.084)" fill="#e0e0e0"/>
            <path id="Trazado_609391" data-name="Trazado 609391" d="M293.864,673.156A86.983,86.983,0,0,1,210.148,562.8l2.95.826a83.823,83.823,0,1,0,3.5-10.023l-2.822-1.194a86.924,86.924,0,1,1,80.085,120.746" transform="translate(-36.113 -87.134)" fill="#345359"/>
            <path id="Trazado_609392" data-name="Trazado 609392" d="M214.67,564.352l1.115,16.424-4.773-5.391-7.046,1.474Z" transform="translate(-35.592 -98.481)" fill="#345359"/>
            <path id="Trazado_609393" data-name="Trazado 609393" d="M231.033,548.821a11.156,11.156,0,1,1-11.157-11.157,11.158,11.158,0,0,1,11.157,11.157" transform="translate(-36.422 -93.824)" fill="#345359"/>
            <path id="Trazado_609394" data-name="Trazado 609394" d="M410.894,648.662a6.965,6.965,0,1,1-6.965-6.966,6.966,6.966,0,0,1,6.965,6.966" transform="translate(-69.271 -111.977)" fill="#345359"/>
            <rect id="Rectángulo_377774" data-name="Rectángulo 377774" width="96.605" height="3.062" transform="translate(289.634 419.513) rotate(-59.799)" fill="#345359"/>
            <path id="Trazado_609395" data-name="Trazado 609395" d="M415.8,406.879a6.126,6.126,0,1,1-6.127-6.127,6.126,6.126,0,0,1,6.127,6.127" transform="translate(-70.42 -69.932)" fill="#e0e0e0"/>
            <path id="Trazado_609396" data-name="Trazado 609396" d="M357.465,507.911a7.981,7.981,0,1,1-7.981-7.982,7.979,7.979,0,0,1,7.981,7.982" transform="translate(-59.593 -87.239)" fill="#345359"/>
            <path id="Trazado_609397" data-name="Trazado 609397" d="M787.442,510.994l-2.2-2.129a332.582,332.582,0,0,0,77.8-130.323l2.92.924a335.641,335.641,0,0,1-78.521,131.528" transform="translate(-137.026 -66.056)" fill="#345359"/>
            <path id="Trazado_609398" data-name="Trazado 609398" d="M777.124,543.857l6.283-15.57,1.984,7.071,7.122,1.782Z" transform="translate(-135.61 -92.187)" fill="#345359"/>
            <path id="Trazado_609399" data-name="Trazado 609399" d="M869.681,329.8a86.816,86.816,0,1,1,19.75-2.254l-.694-2.984a83.925,83.925,0,1,0-19.056,2.175,85.539,85.539,0,0,0,8.573-.432l.311,3.047a88.112,88.112,0,0,1-8.884.447" transform="translate(-136.594 -27.217)" fill="#345359"/>
            <path id="Trazado_609400" data-name="Trazado 609400" d="M898.626,362.283l13.881-8.852-2.444,6.773,4.672,5.477Z" transform="translate(-156.812 -61.675)" fill="#e0e0e0"/>
            <path id="Trazado_609401" data-name="Trazado 609401" d="M893.739,364.391a11.157,11.157,0,1,1-11.158-11.157,11.158,11.158,0,0,1,11.158,11.157" transform="translate(-152.065 -61.64)" fill="#e0e0e0"/>
            <path id="Trazado_609402" data-name="Trazado 609402" d="M892.288,156.352a6.965,6.965,0,1,1-6.966-6.965,6.966,6.966,0,0,1,6.966,6.965" transform="translate(-153.275 -26.068)" fill="#345359"/>
            <rect id="Rectángulo_377775" data-name="Rectángulo 377775" width="94.555" height="3.065" transform="translate(553.148 214.133)" fill="#345359"/>
            <path id="Trazado_609403" data-name="Trazado 609403" d="M790.913,259.569a7.98,7.98,0,1,1-7.98-7.981,7.982,7.982,0,0,1,7.98,7.981" transform="translate(-135.231 -43.903)" fill="#345359"/>
            <path id="Trazado_609404" data-name="Trazado 609404" d="M674.947,259.961a6.126,6.126,0,1,1-6.128-6.125,6.127,6.127,0,0,1,6.128,6.125" transform="translate(-115.642 -44.295)" fill="#345359"/>
            <path id="Trazado_609405" data-name="Trazado 609405" d="M485.082,660.51a337.356,337.356,0,0,1-56.448-4.749l.514-3.018a336.262,336.262,0,0,0,115.951-.722l.551,3.012a337.085,337.085,0,0,1-60.569,5.477" transform="translate(-74.798 -113.779)" fill="#345359"/>
            <path id="Trazado_609406" data-name="Trazado 609406" d="M415.815,651.519,432.232,648l-4.747,5.6L430,660.5Z" transform="translate(-72.561 -113.077)" fill="#345359"/>
            <path id="Trazado_609407" data-name="Trazado 609407" d="M659.479,673.156a86.957,86.957,0,0,1-65.346-29.607l2.3-2.02a83.66,83.66,0,1,0-6.488-8.407l-2.538,1.714a86.92,86.92,0,1,1,72.068,38.32" transform="translate(-99.914 -87.134)" fill="#345359"/>
            <path id="Trazado_609408" data-name="Trazado 609408" d="M592.085,662.443l14.327,8.111-7.129,1.016-2.651,6.693Z" transform="translate(-103.32 -115.598)" fill="#345359"/>
            <path id="Trazado_609409" data-name="Trazado 609409" d="M592.026,649.632a11.157,11.157,0,1,1-11.157-11.16,11.157,11.157,0,0,1,11.157,11.16" transform="translate(-99.416 -111.415)" fill="#345359"/>
            <path id="Trazado_609410" data-name="Trazado 609410" d="M774.169,553.615a6.966,6.966,0,1,1-6.965-6.965,6.965,6.965,0,0,1,6.965,6.965" transform="translate(-132.663 -95.392)" fill="#345359"/>
            <rect id="Rectángulo_377776" data-name="Rectángulo 377776" width="3.063" height="95.647" transform="matrix(0.866, -0.5, 0.5, 0.866, 479.667, 337.57)" fill="#345359"/>
            <path id="Trazado_609411" data-name="Trazado 609411" d="M588.06,406.879a6.126,6.126,0,1,1-6.128-6.127,6.125,6.125,0,0,1,6.128,6.127" transform="translate(-100.48 -69.932)" fill="#e0e0e0"/>
            <path id="Trazado_609412" data-name="Trazado 609412" d="M647.941,506.056a7.982,7.982,0,1,1-7.983-7.982,7.981,7.981,0,0,1,7.983,7.982" transform="translate(-110.281 -86.915)" fill="#345359"/>
            <path id="Trazado_609413" data-name="Trazado 609413" d="M590.881,235.438A119.758,119.758,0,1,1,471.124,115.682,119.755,119.755,0,0,1,590.881,235.438" transform="translate(-61.314 -20.187)" fill="#345359"/>
            <path id="Trazado_609414" data-name="Trazado 609414" d="M938.308,246.815a61.067,61.067,0,1,1-61.068-61.066,61.068,61.068,0,0,1,61.068,61.066" transform="translate(-142.424 -32.414)" fill="#e6d09d"/>
            <path id="Trazado_609415" data-name="Trazado 609415" d="M927.315,249.762a47.128,47.128,0,1,1-47.128-47.128,47.128,47.128,0,0,1,47.128,47.128" transform="translate(-145.371 -35.36)" fill="#fff"/>
            <path id="Trazado_609416" data-name="Trazado 609416" d="M726.029,590.965A61.067,61.067,0,1,1,664.961,529.9a61.068,61.068,0,0,1,61.068,61.067" transform="translate(-105.381 -92.468)" fill="#76becc"/>
            <path id="Trazado_609417" data-name="Trazado 609417" d="M715.036,593.912a47.128,47.128,0,1,1-47.129-47.128,47.129,47.129,0,0,1,47.129,47.128" transform="translate(-108.327 -95.415)" fill="#fff"/>
            <path id="Trazado_609418" data-name="Trazado 609418" d="M359.364,593.378A61.067,61.067,0,1,1,298.3,532.311a61.068,61.068,0,0,1,61.068,61.067" transform="translate(-41.397 -92.889)" fill="#ffe7af"/>
            <path id="Trazado_609419" data-name="Trazado 609419" d="M348.371,596.325A47.128,47.128,0,1,1,301.243,549.2a47.129,47.129,0,0,1,47.128,47.128" transform="translate(-44.344 -95.836)" fill="#fff"/>
            <path id="Trazado_609420" data-name="Trazado 609420" d="M151.909,247.619a61.067,61.067,0,1,1-61.068-61.067,61.068,61.068,0,0,1,61.068,61.067" transform="translate(-5.196 -32.554)" fill="#94eeff"/>
            <path id="Trazado_609421" data-name="Trazado 609421" d="M140.916,250.566a47.128,47.128,0,1,1-47.128-47.128,47.129,47.129,0,0,1,47.128,47.128" transform="translate(-8.142 -35.5)" fill="#fff"/>
          </g>
        </g>
        <g id="Grupo_1072294" data-name="Grupo 1072294" transform="translate(289.306)">
          <g id="Grupo_1072293" data-name="Grupo 1072293" clip-path="url(#clip-path-3)">
            <path id="Trazado_609422" data-name="Trazado 609422" d="M421.485,194.763s-21.589,72.113-18.028,79.013,50.7,47.853,54.059,47.185,7.56-9.86,6.129-17.171c0,0-29.452-32.462-32.356-36.691s11.34-34.769,10.672-41.311-20.476-31.025-20.476-31.025" transform="translate(-359.641 -33.987)" fill="#fcd3b3"/>
            <path id="Trazado_609423" data-name="Trazado 609423" d="M530.925,609.737s-5.152,19.364-2.465,22.7,35.406,3.784,43.418,1.336-1.336-11.356-11.351-11.242c0,0-10.414-5.681-12.686-7.535s-1.336-6.151-4.006-6.374-12.909,1.113-12.909,1.113" transform="translate(-381.388 -106.202)" fill="#f4406f"/>
            <path id="Trazado_609424" data-name="Trazado 609424" d="M545.091,623.588s1.948-5.809,7.651-5.679" transform="translate(-384.426 -107.826)" fill="none" stroke="#eaf3ff" stroke-linecap="round" stroke-linejoin="round" stroke-width="1"/>
            <path id="Trazado_609425" data-name="Trazado 609425" d="M554.36,627.271s1.767-4.956,6.183-4.927" transform="translate(-386.044 -108.6)" fill="none" stroke="#eaf3ff" stroke-linecap="round" stroke-linejoin="round" stroke-width="1"/>
            <path id="Trazado_609426" data-name="Trazado 609426" d="M539.516,624.222a2.874,2.874,0,1,1-2.874-2.874,2.874,2.874,0,0,1,2.874,2.874" transform="translate(-382.45 -108.427)" fill="#eaf3ff"/>
            <path id="Trazado_609427" data-name="Trazado 609427" d="M527.691,632.01a5.988,5.988,0,0,0,.771,3.376c2.687,3.338,35.4,3.784,43.417,1.336,7.907-2.416-1.091-11.114-10.953-11.236-3.531,3.307-1.957,8.565-1.957,8.565-15.806,1.506-26.2-.551-31.279-2.041" transform="translate(-381.39 -109.149)" fill="#eaf3ff"/>
            <path id="Trazado_609428" data-name="Trazado 609428" d="M439.621,614.651s-5.267,11.586-6.583,13.693c0,0-6.846.263-7.372,10.8,0,0,10.532,5.53,29.492,0l-1.317-24.489Z" transform="translate(-363.586 -107.258)" fill="#f4406f"/>
            <path id="Trazado_609429" data-name="Trazado 609429" d="M452.65,628.645s-5.33-5.424-15.7-2.186" transform="translate(-365.555 -109.138)" fill="none" stroke="#eaf3ff" stroke-linecap="round" stroke-linejoin="round" stroke-width="1"/>
            <path id="Trazado_609430" data-name="Trazado 609430" d="M453.284,620.315a17,17,0,0,0-12.7-1.461" transform="translate(-366.189 -107.886)" fill="none" stroke="#eaf3ff" stroke-linecap="round" stroke-linejoin="round" stroke-width="1"/>
            <path id="Trazado_609431" data-name="Trazado 609431" d="M425.664,642.033s10.533,5.53,29.493,0L454.831,636c-.7,1.46-1.561,2.671-2.571,2.929,0,0,0-7.952-19.223-7.689,0,0-6.847.263-7.373,10.8" transform="translate(-363.586 -110.151)" fill="#eaf3ff"/>
            <path id="Trazado_609432" data-name="Trazado 609432" d="M454.787,314.474l61.874.395s12.208,135.211,13.1,150.791,6.489,86.965,4.708,92.752-21.812,4.9-23.147,3.115S498.6,484.356,497.709,475.9s-8.647-64.383-8.647-64.383-8.9,47.63-11.129,58.759-16.025,91.7-16.025,91.7c-6.233,6.232-24.038,3.115-25.818,0s3.789-93.921,3.646-104.609c-.328-24.483,15.05-142.89,15.05-142.89" transform="translate(-365.344 -54.876)" fill="#4a8aec"/>
            <path id="Trazado_609433" data-name="Trazado 609433" d="M465.772,314.952s-.087.57-.242,1.63" transform="translate(-370.542 -54.96)" fill="none" stroke="#9ed3f5" stroke-linecap="round" stroke-linejoin="round" stroke-width="1"/>
            <path id="Trazado_609434" data-name="Trazado 609434" d="M460.519,320.863c-1.192,8.342-3.644,26.294-5.519,45.25-1.621,16.39-7.363,86.581-8.254,95.483-.791,7.907-6.065,83.163-7.235,99.9" transform="translate(-366.002 -55.991)" fill="none" stroke="#9ed3f5" stroke-linecap="round" stroke-linejoin="round" stroke-width="1" stroke-dasharray="3.982 3.982"/>
            <path id="Trazado_609435" data-name="Trazado 609435" d="M439.347,614.359c-.074,1.067-.115,1.644-.115,1.644" transform="translate(-365.953 -107.207)" fill="none" stroke="#9ed3f5" stroke-linecap="round" stroke-linejoin="round" stroke-width="1"/>
            <path id="Trazado_609436" data-name="Trazado 609436" d="M502.658,405.621l.234,1.631" transform="translate(-377.021 -70.782)" fill="none" stroke="#9ed3f5" stroke-linecap="round" stroke-linejoin="round" stroke-width="1"/>
            <path id="Trazado_609437" data-name="Trazado 609437" d="M503.516,411.6c2.358,16.461,9.857,69.055,10.951,79.911,1.137,11.278,7.748,69.645,9.4,84.217" transform="translate(-377.171 -71.825)" fill="none" stroke="#9ed3f5" stroke-linecap="round" stroke-linejoin="round" stroke-width="1" stroke-dasharray="4.048 4.048"/>
            <path id="Trazado_609438" data-name="Trazado 609438" d="M528.4,612.438c.12,1.061.186,1.637.186,1.637" transform="translate(-381.513 -106.872)" fill="none" stroke="#9ed3f5" stroke-linecap="round" stroke-linejoin="round" stroke-width="1"/>
            <path id="Trazado_609439" data-name="Trazado 609439" d="M472.967,319.327s3.116,20.921,0,23.593-12.118,3.561-12.118,3.561" transform="translate(-369.726 -55.723)" fill="none" stroke="#9ed3f5" stroke-linecap="round" stroke-linejoin="round" stroke-width="1"/>
            <path id="Trazado_609440" data-name="Trazado 609440" d="M525.679,319.327l2.432,20.921,7.12,6.232" transform="translate(-381.039 -55.723)" fill="none" stroke="#9ed3f5" stroke-linecap="round" stroke-linejoin="round" stroke-width="1"/>
            <path id="Trazado_609441" data-name="Trazado 609441" d="M500.334,412.362s4.451-55.643,4.006-93.034" transform="translate(-376.616 -55.723)" fill="none" stroke="#9ed3f5" stroke-linecap="round" stroke-linejoin="round" stroke-width="1"/>
            <path id="Trazado_609442" data-name="Trazado 609442" d="M511.793,314.952s1.781,21.862,0,26.314-7.014,4.452-7.014,4.452" transform="translate(-377.392 -54.96)" fill="none" stroke="#9ed3f5" stroke-linecap="round" stroke-linejoin="round" stroke-width="1"/>
            <path id="Trazado_609443" data-name="Trazado 609443" d="M457.588,296.321s-24.493-4.732-24.911.922,7.472,18.343,10.919,16.727S457.588,296.321,457.588,296.321Z" transform="translate(-364.807 -51.385)" fill="none" stroke="#e3a214" stroke-linecap="round" stroke-linejoin="round" stroke-width="2"/>
            <path id="Trazado_609444" data-name="Trazado 609444" d="M460.752,293.592s-16.173-18.993-20.032-14.838-5.62,18.993-1.919,19.883S460.752,293.592,460.752,293.592Z" transform="translate(-365.523 -48.539)" fill="none" stroke="#fcbf31" stroke-linecap="round" stroke-linejoin="round" stroke-width="2"/>
            <path id="Trazado_609445" data-name="Trazado 609445" d="M602.3,105.33c.784-1.929-6.682-2.118-8.166-4.789s-4.155-14.462-6.38-18.8,3.413-4.491,7.419,2.929c0,0,.74,2.077.74-5.342s2.226-16.768,4.006-17.509.89,16.915,1.929,18.7,1.929-20.18,5.342-20.922.89,16.916,1.483,18.4,3.413-14.245,5.49-14.838-.891,15.659-.891,18.587,4.3-10.277,6.084-9.535-3.71,25.038-3.858,32.753-1.187,57.906-5.49,63.544-66.178,29.528-73.3,26.708-10.765-32.346,1.739-35.908,43.813-4.748,47.078-6.529,11.283-33.939,16.773-47.441" transform="translate(-381.827 -10.394)" fill="#fcd3b3"/>
            <path id="Trazado_609446" data-name="Trazado 609446" d="M459.488,175.578s-30.651,4.8-36.882,9.922-27.154,42.289-25.818,44.069,11.351,8.235,20.921,11.129,18.028,2.671,19.364,1.559,1.781-11.351,1.781-11.351,6.751,25.744,8.235,33.163-3.561,29.379-2.078,32.347,11.574,9.793,31.16,9.2S509.8,297.9,511.09,294.931s-1.979-37.393-1.682-49.262,1.268-27.3,1.268-27.3,17.428,5.045,19.5,4.155,9.5-11.573,10.684-23.147-1.187-23.444-3.561-25.225-40.528,1.077-53.2,1.429-24.611,0-24.611,0" transform="translate(-358.536 -30.288)" fill="#f4406f"/>
            <path id="Trazado_609447" data-name="Trazado 609447" d="M426.755,189.311s8.991,3.689,17.338,44.341" transform="translate(-363.776 -33.035)" fill="none" stroke="#ad2556" stroke-linecap="round" stroke-linejoin="round" stroke-width="1"/>
            <path id="Trazado_609448" data-name="Trazado 609448" d="M522.831,175.023s-3.186,10.064,9.79,43.6" transform="translate(-380.481 -30.542)" fill="none" stroke="#ad2556" stroke-linecap="round" stroke-linejoin="round" stroke-width="1"/>
            <path id="Trazado_609449" data-name="Trazado 609449" d="M399.023,234.947s14.241,11.986,39.366,15.374" transform="translate(-358.937 -40.999)" fill="none" stroke="#f3809f" stroke-linecap="round" stroke-linejoin="round" stroke-width="1"/>
            <path id="Trazado_609450" data-name="Trazado 609450" d="M552.625,222.089s12.774-17.643,7.432-48.519" transform="translate(-385.741 -30.288)" fill="none" stroke="#f3809f" stroke-linecap="round" stroke-linejoin="round" stroke-width="1"/>
            <path id="Trazado_609451" data-name="Trazado 609451" d="M467.857,176.668s4.917,10.7,17.2,10.3S498.7,175.911,498.7,175.911" transform="translate(-370.949 -30.697)" fill="none" stroke="#f3809f" stroke-linecap="round" stroke-linejoin="round" stroke-width="1"/>
            <path id="Trazado_609452" data-name="Trazado 609452" d="M475.346,141.117s2.623,16.334-2.59,28.8c0,0,11.924,11.129,24.611,0,0,0-2.67-7.939-.89-22.443Z" transform="translate(-371.803 -24.625)" fill="#fcd3b3"/>
            <path id="Trazado_609453" data-name="Trazado 609453" d="M475.894,141.117a71.4,71.4,0,0,1,.587,12.785c3.25,4.67,8.176,10.132,13.468,10.132a10.884,10.884,0,0,0,6.619-2.485,73.506,73.506,0,0,1,.457-14.077Z" transform="translate(-372.351 -24.625)" fill="#eda6a6"/>
            <path id="Trazado_609454" data-name="Trazado 609454" d="M532.248,100.514A22.465,22.465,0,0,0,544.7,102.3c6.677-1.109.532,11.54-10.528,14.175a19.279,19.279,0,0,1-1.924-15.964" transform="translate(-382.032 -17.54)" fill="#214489"/>
            <path id="Trazado_609455" data-name="Trazado 609455" d="M506.759,85.785c22.034,7.567,18.919,27.6,12.686,41.4-5.273,11.677-16.191,23.815-29.1,20.254s-24.649-16.5-17.194-40.953c5.565-18.251,19.058-25.7,33.608-20.7" transform="translate(-371.466 -14.705)" fill="#fcd3b3"/>
            <path id="Trazado_609456" data-name="Trazado 609456" d="M474.821,100.106s7.079.111,15.7-10.572a52.84,52.84,0,0,0,28.767,9.237c17.138.334,20.588-10.83,13.243-12.388,0,0,7.567-12.539.445-15.656s-15.246,5.565-27.822,2.448S483.81,68.947,482.7,77.293c0,0-5.249-3.338-8.921,1.336s-.938,27.08-.938,27.08Z" transform="translate(-371.647 -12.222)" fill="#2e53ab"/>
            <path id="Trazado_609457" data-name="Trazado 609457" d="M469.095,119.682l3.7-15.23s-.355-10.306-6.331-9.459c-7.363,1.042-10.046,23.784,2.628,24.69" transform="translate(-369.624 -16.568)" fill="#eda6a6"/>
            <path id="Trazado_609458" data-name="Trazado 609458" d="M466.646,94.993c-2.418.342-4.325,3.03-5.356,6.51,4.467-1.984,8.96,1.03,11.575,3.41l.112-.461s-.356-10.3-6.332-9.459" transform="translate(-369.803 -16.568)" fill="#fcd3b3"/>
            <path id="Trazado_609459" data-name="Trazado 609459" d="M522.9,142.576l7.543-13.74s7.216-7.365,11.055-2.709c4.731,5.736-8.633,24.333-18.6,16.45" transform="translate(-380.554 -21.74)" fill="#eda6a6"/>
            <path id="Trazado_609460" data-name="Trazado 609460" d="M543.048,126.126c-3.84-4.656-11.055,2.71-11.055,2.71l-.23.419c3.539.007,8.87.833,10.826,5.329,1.6-3.277,2.019-6.567.459-8.458" transform="translate(-382.1 -21.74)" fill="#fcd3b3"/>
            <path id="Trazado_609461" data-name="Trazado 609461" d="M511.566,111.18s-7.271,8.9-8.012,12.316c0,0,5.193,1.632,5.342,3.116s-7.122,4.9-7.122,4.9" transform="translate(-376.867 -19.401)" fill="none" stroke="#c67d7d" stroke-linecap="round" stroke-linejoin="round" stroke-width="1"/>
            <path id="Trazado_609462" data-name="Trazado 609462" d="M495.856,114.128c-.329,1.343-1.394,2.236-2.379,2s-1.516-1.526-1.188-2.869,1.394-2.236,2.379-2,1.516,1.526,1.188,2.869" transform="translate(-375.195 -19.408)" fill="#172e56"/>
            <path id="Trazado_609463" data-name="Trazado 609463" d="M519.339,123.474c-.329,1.343-1.394,2.236-2.379,2s-1.517-1.526-1.188-2.869,1.394-2.236,2.379-2,1.517,1.526,1.188,2.869" transform="translate(-379.293 -21.039)" fill="#172e56"/>
            <path id="Trazado_609464" data-name="Trazado 609464" d="M492.829,104.079a8.3,8.3,0,0,1,4.378-2.632,4.5,4.5,0,0,1,2.916-.173c.484.171,2.08,1.118,1.964,1.792-.215,1.251-3.775.624-4.6.5-1.057-.206-4.173,1.067-4.662.514" transform="translate(-375.306 -17.64)" fill="#2e53ab"/>
            <path id="Trazado_609465" data-name="Trazado 609465" d="M521.1,110.166a2.837,2.837,0,0,1,2.135-.076,3.635,3.635,0,0,1,2.03,2.377,7.5,7.5,0,0,1,.6,2.821c0,.2-.344,2.254-.48,1.932a11.03,11.03,0,0,1-.748-1.891,6.875,6.875,0,0,0-1.191-1.74c-.447-.391-1.144-.74-1.424-1.29-.149-.2-1.677-1.336-.922-2.131-.025.025-.064.038,0,0" transform="translate(-380.203 -19.181)" fill="#2e53ab"/>
            <path id="Trazado_609466" data-name="Trazado 609466" d="M487.662,134.368s2.56,9.348,13.466,8.458" transform="translate(-374.404 -23.448)" fill="none" stroke="#c67d7d" stroke-linecap="round" stroke-linejoin="round" stroke-width="1"/>
            <path id="Trazado_609467" data-name="Trazado 609467" d="M489.57,124.375c-1.108,3.14-4.973,4.638-8.633,3.347s-5.729-4.883-4.621-8.023,4.973-4.638,8.633-3.347,5.729,4.883,4.621,8.023" transform="translate(-372.372 -20.223)" fill="#eda6a6"/>
            <path id="Trazado_609468" data-name="Trazado 609468" d="M525.395,137.736c-1.109,3.14-4.974,4.638-8.633,3.347s-5.729-4.883-4.622-8.023,4.973-4.638,8.633-3.347,5.73,4.883,4.622,8.023" transform="translate(-378.624 -22.554)" fill="#eda6a6"/>
            <path id="Trazado_609469" data-name="Trazado 609469" d="M459.363,177.027s9.892,23,11.623,24.48,21.677,0,23.13-2.077,3.534-24.6,3.534-24.6a7.375,7.375,0,0,1,7.118,0s2.837,29.649,3.941,32.32,10.414,13.38,11.843,15,2.237,54.045,2.426,68.192,15.133,75.576,14.635,79.434-26.766,11.871-51.32,11.871-44.735-10.386-44.735-12.463,17.212-74.784,17.806-82.8-14.062-51.7-13.551-54.4,8.21-19.763,9.1-23.189-5.916-27.87-6.668-29.447,7.855-4.837,11.119-2.316" transform="translate(-366.359 -30.345)" fill="#fcbf31"/>
            <path id="Trazado_609470" data-name="Trazado 609470" d="M511.383,245.373a14.757,14.757,0,1,1-14.769-14.745,14.758,14.758,0,0,1,14.769,14.745" transform="translate(-373.394 -40.245)" fill="#eaf3ff"/>
            <path id="Trazado_609471" data-name="Trazado 609471" d="M515.765,266.381a46.822,46.822,0,0,1-31.788,20.087s11.625,2.94,27.773,0" transform="translate(-373.761 -46.484)" fill="none" stroke="#e3a214" stroke-linecap="round" stroke-linejoin="round" stroke-width="1"/>
          </g>
        </g>
      </g>
      <g id="Rectángulo_377778" data-name="Rectángulo 377778" transform="translate(685 1381)" fill="#fff8e7" stroke="#345359" stroke-width="3">
        <rect width="230" height="60" rx="17" stroke="none"/>
        <rect x="1.5" y="1.5" width="227" height="57" rx="15.5" fill="none"/>
      </g>
      <g id="Rectángulo_377779" data-name="Rectángulo 377779" transform="translate(407 1381)" fill="#fff8e7" stroke="#345359" stroke-width="3">
        <rect width="140" height="45" rx="14" stroke="none"/>
        <rect x="1.5" y="1.5" width="137" height="42" rx="12.5" fill="none"/>
      </g>
      <g id="Rectángulo_377782" data-name="Rectángulo 377782" transform="translate(1055 1381)" fill="#fff8e7" stroke="#345359" stroke-width="3">
        <rect width="140" height="45" rx="14" stroke="none"/>
        <rect x="1.5" y="1.5" width="137" height="42" rx="12.5" fill="none"/>
      </g>
      <g id="Rectángulo_377780" data-name="Rectángulo 377780" transform="translate(578 1661)" fill="#fff8e7" stroke="#345359" stroke-width="3">
        <rect width="140" height="45" rx="14" stroke="none"/>
        <rect x="1.5" y="1.5" width="137" height="42" rx="12.5" fill="none"/>
      </g>
      <g id="Rectángulo_377781" data-name="Rectángulo 377781" transform="translate(880 1661)" fill="#fff8e7" stroke="#345359" stroke-width="3">
        <rect width="140" height="45" rx="14" stroke="none"/>
        <rect x="1.5" y="1.5" width="137" height="42" rx="12.5" fill="none"/>
      </g>
      <path id="Trazado_610512" data-name="Trazado 610512" d="M7.567-3.4a1.268,1.268,0,0,0-.479-1.055,5.954,5.954,0,0,0-1.683-.782,16.147,16.147,0,0,1-1.969-.782Q.949-7.242.949-9.378a3.011,3.011,0,0,1,.62-1.876A4.008,4.008,0,0,1,3.322-12.52a6.823,6.823,0,0,1,2.549-.453,5.969,5.969,0,0,1,2.474.492,3.917,3.917,0,0,1,1.7,1.4A3.661,3.661,0,0,1,10.652-9H7.576A1.547,1.547,0,0,0,7.1-10.213a1.867,1.867,0,0,0-1.3-.431,2.106,2.106,0,0,0-1.305.365,1.119,1.119,0,0,0-.479.927,1.127,1.127,0,0,0,.527.892A6.65,6.65,0,0,0,6.4-7.633a11.36,11.36,0,0,1,2.18.918,3.663,3.663,0,0,1,2.074,3.3A3.125,3.125,0,0,1,9.387-.782,5.629,5.629,0,0,1,5.915.176,6.888,6.888,0,0,1,3.1-.382,4.247,4.247,0,0,1,1.2-1.912,3.985,3.985,0,0,1,.563-4.148H3.656a1.963,1.963,0,0,0,.532,1.516,2.513,2.513,0,0,0,1.727.488,1.985,1.985,0,0,0,1.208-.33A1.088,1.088,0,0,0,7.567-3.4ZM16.7.176a4.889,4.889,0,0,1-3.542-1.305,4.507,4.507,0,0,1-1.354-3.4v-.246a5.84,5.84,0,0,1,.541-2.575,3.955,3.955,0,0,1,1.578-1.727,4.763,4.763,0,0,1,2.461-.611,4.117,4.117,0,0,1,3.164,1.244,4.887,4.887,0,0,1,1.16,3.467v1.151H14.818a2.135,2.135,0,0,0,.694,1.257,2.066,2.066,0,0,0,1.389.457,2.662,2.662,0,0,0,2.2-.984l1.354,1.6A3.784,3.784,0,0,1,18.883-.277,5.3,5.3,0,0,1,16.7.176ZM16.365-7.4q-1.3,0-1.547,1.723h2.988v-.229a1.467,1.467,0,0,0-.36-1.1A1.434,1.434,0,0,0,16.365-7.4Zm11.285.571-.976-.07a1.752,1.752,0,0,0-1.793.879V0H21.92V-9.51H24.7l.1,1.222a2.294,2.294,0,0,1,2.083-1.4,2.888,2.888,0,0,1,.826.105Zm13.623,1.4H36.422v3.059h5.73V0H33.337V-12.8H42.17v2.382H36.422v2.7h4.852Zm4.8-4.078.1,1.116a3.27,3.27,0,0,1,2.716-1.292,2.407,2.407,0,0,1,2.435,1.433,3.165,3.165,0,0,1,2.795-1.433q2.892,0,2.971,3.5V0H54.114V-6a1.813,1.813,0,0,0-.246-1.063,1.048,1.048,0,0,0-.9-.334,1.4,1.4,0,0,0-1.31.782l.009.123V0H48.7V-5.985a1.906,1.906,0,0,0-.237-1.081,1.045,1.045,0,0,0-.905-.334,1.42,1.42,0,0,0-1.3.782V0H43.295V-9.51ZM67.605-4.685a5.735,5.735,0,0,1-1,3.538A3.2,3.2,0,0,1,63.914.176a2.742,2.742,0,0,1-2.153-.958V3.656H58.8V-9.51h2.769l.088.879A2.742,2.742,0,0,1,63.9-9.686a3.224,3.224,0,0,1,2.733,1.3,5.805,5.805,0,0,1,.976,3.564Zm-2.962-.185q0-2.531-1.477-2.531a1.394,1.394,0,0,0-1.406.756V-2.9a1.439,1.439,0,0,0,1.424.791q1.415,0,1.459-2.443Zm10.02-1.96-.976-.07a1.752,1.752,0,0,0-1.793.879V0H68.933V-9.51H71.71l.1,1.222a2.294,2.294,0,0,1,2.083-1.4,2.888,2.888,0,0,1,.826.105Zm5.5,7a4.889,4.889,0,0,1-3.542-1.305,4.507,4.507,0,0,1-1.354-3.4v-.246a5.84,5.84,0,0,1,.541-2.575,3.955,3.955,0,0,1,1.578-1.727,4.763,4.763,0,0,1,2.461-.611,4.117,4.117,0,0,1,3.164,1.244,4.887,4.887,0,0,1,1.16,3.467v1.151H78.284a2.135,2.135,0,0,0,.694,1.257,2.066,2.066,0,0,0,1.389.457,2.662,2.662,0,0,0,2.2-.984l1.354,1.6A3.784,3.784,0,0,1,82.349-.277,5.3,5.3,0,0,1,80.165.176ZM79.831-7.4q-1.3,0-1.547,1.723h2.988v-.229a1.467,1.467,0,0,0-.36-1.1A1.434,1.434,0,0,0,79.831-7.4ZM88.084-9.51l.1,1.116A3.225,3.225,0,0,1,90.9-9.686a2.713,2.713,0,0,1,2.219.888,4.226,4.226,0,0,1,.76,2.672V0H90.905V-6a1.6,1.6,0,0,0-.29-1.059A1.342,1.342,0,0,0,89.561-7.4a1.413,1.413,0,0,0-1.292.686V0H85.307V-9.51Zm7.058,4.685a5.809,5.809,0,0,1,.976-3.56,3.211,3.211,0,0,1,2.725-1.3,2.731,2.731,0,0,1,2.145,1V-13.5h2.971V0h-2.663l-.149-1.02a2.8,2.8,0,0,1-2.32,1.2,3.205,3.205,0,0,1-2.689-1.3A5.993,5.993,0,0,1,95.142-4.825Zm2.962.185q0,2.531,1.477,2.531a1.458,1.458,0,0,0,1.406-.826V-6.557A1.419,1.419,0,0,0,99.6-7.4q-1.371,0-1.485,2.215ZM110.241.176A4.889,4.889,0,0,1,106.7-1.129a4.507,4.507,0,0,1-1.354-3.4v-.246a5.84,5.84,0,0,1,.541-2.575,3.955,3.955,0,0,1,1.578-1.727,4.763,4.763,0,0,1,2.461-.611,4.117,4.117,0,0,1,3.164,1.244,4.887,4.887,0,0,1,1.16,3.467v1.151H108.36a2.135,2.135,0,0,0,.694,1.257,2.066,2.066,0,0,0,1.389.457,2.662,2.662,0,0,0,2.2-.984l1.354,1.6a3.784,3.784,0,0,1-1.569,1.217A5.3,5.3,0,0,1,110.241.176ZM109.907-7.4q-1.3,0-1.547,1.723h2.988v-.229a1.467,1.467,0,0,0-.36-1.1A1.434,1.434,0,0,0,109.907-7.4Zm5.159,2.575a5.809,5.809,0,0,1,.976-3.56,3.211,3.211,0,0,1,2.725-1.3,2.731,2.731,0,0,1,2.145,1V-13.5h2.971V0h-2.663l-.149-1.02a2.8,2.8,0,0,1-2.32,1.2,3.205,3.205,0,0,1-2.689-1.3A5.993,5.993,0,0,1,115.066-4.825Zm2.962.185q0,2.531,1.477,2.531a1.458,1.458,0,0,0,1.406-.826V-6.557a1.419,1.419,0,0,0-1.389-.844q-1.371,0-1.485,2.215Zm7.163-.2a5.613,5.613,0,0,1,.554-2.536,3.96,3.96,0,0,1,1.591-1.709,4.791,4.791,0,0,1,2.435-.6,4.373,4.373,0,0,1,3.366,1.323,5.076,5.076,0,0,1,1.23,3.6v.105a4.925,4.925,0,0,1-1.235,3.529A4.384,4.384,0,0,1,129.788.176a4.434,4.434,0,0,1-3.261-1.217,4.761,4.761,0,0,1-1.327-3.3Zm2.962.185a3.538,3.538,0,0,0,.413,1.934,1.376,1.376,0,0,0,1.222.615q1.582,0,1.617-2.435v-.3q0-2.558-1.635-2.558-1.485,0-1.608,2.206Zm13.271-2.171-.976-.07a1.752,1.752,0,0,0-1.793.879V0h-2.962V-9.51h2.777l.1,1.222a2.294,2.294,0,0,1,2.083-1.4,2.888,2.888,0,0,1,.826.105Z" transform="translate(729 1417)" fill="#12263f"/>
      <path id="Trazado_610511" data-name="Trazado 610511" d="M2.93,0H1.43V-11.375h1.5ZM6.813-8.453l.047,1.063A3.08,3.08,0,0,1,9.391-8.609q2.68,0,2.7,3.023V0H10.648V-5.594a1.946,1.946,0,0,0-.418-1.352,1.675,1.675,0,0,0-1.277-.437,2.086,2.086,0,0,0-1.234.375,2.546,2.546,0,0,0-.828.984V0H5.445V-8.453Zm8.828,0,.047,1.063a3.08,3.08,0,0,1,2.531-1.219q2.68,0,2.7,3.023V0H19.477V-5.594a1.946,1.946,0,0,0-.418-1.352,1.675,1.675,0,0,0-1.277-.437,2.086,2.086,0,0,0-1.234.375,2.546,2.546,0,0,0-.828.984V0H14.273V-8.453ZM22.719-4.3a4.993,4.993,0,0,1,.488-2.234A3.643,3.643,0,0,1,24.566-8.07a3.7,3.7,0,0,1,1.988-.539,3.565,3.565,0,0,1,2.793,1.2,4.6,4.6,0,0,1,1.066,3.18v.1a5.036,5.036,0,0,1-.473,2.215A3.589,3.589,0,0,1,28.59-.391a3.743,3.743,0,0,1-2.02.547,3.556,3.556,0,0,1-2.785-1.2A4.575,4.575,0,0,1,22.719-4.2Zm1.453.172a3.616,3.616,0,0,0,.652,2.258,2.088,2.088,0,0,0,1.746.852,2.075,2.075,0,0,0,1.75-.863A3.955,3.955,0,0,0,28.969-4.3a3.61,3.61,0,0,0-.66-2.254,2.1,2.1,0,0,0-1.754-.863,2.075,2.075,0,0,0-1.727.852A3.925,3.925,0,0,0,24.172-4.133ZM34.9-1.961l2.094-6.492h1.477L35.438,0h-1.1L31.273-8.453H32.75ZM44.961,0a3.036,3.036,0,0,1-.2-.891A3.225,3.225,0,0,1,42.352.156,2.984,2.984,0,0,1,40.3-.551a2.287,2.287,0,0,1-.8-1.793,2.39,2.39,0,0,1,1-2.051,4.733,4.733,0,0,1,2.824-.73h1.406v-.664A1.623,1.623,0,0,0,44.281-7a1.821,1.821,0,0,0-1.336-.449,2.107,2.107,0,0,0-1.3.391,1.151,1.151,0,0,0-.523.945H39.672a2,2,0,0,1,.449-1.223,3.066,3.066,0,0,1,1.219-.934,4.1,4.1,0,0,1,1.691-.344,3.342,3.342,0,0,1,2.289.73,2.635,2.635,0,0,1,.859,2.012v3.891a4.757,4.757,0,0,0,.3,1.852V0Zm-2.4-1.1a2.54,2.54,0,0,0,1.289-.352,2.127,2.127,0,0,0,.883-.914V-4.1H43.6q-2.656,0-2.656,1.555A1.316,1.316,0,0,0,41.4-1.484,1.742,1.742,0,0,0,42.563-1.1Zm5.531-3.2a4.952,4.952,0,0,1,.922-3.129A2.915,2.915,0,0,1,51.43-8.609a2.932,2.932,0,0,1,2.352,1.016V-12h1.445V0H53.9l-.07-.906A2.943,2.943,0,0,1,51.414.156a2.887,2.887,0,0,1-2.395-1.2,5.008,5.008,0,0,1-.926-3.141Zm1.445.164a3.749,3.749,0,0,0,.594,2.25,1.92,1.92,0,0,0,1.641.813A2.108,2.108,0,0,0,53.781-2.3V-6.187a2.125,2.125,0,0,0-1.992-1.2,1.929,1.929,0,0,0-1.656.82A4.128,4.128,0,0,0,49.539-4.133ZM57.086-4.3a4.993,4.993,0,0,1,.488-2.234A3.643,3.643,0,0,1,58.934-8.07a3.7,3.7,0,0,1,1.988-.539,3.565,3.565,0,0,1,2.793,1.2,4.6,4.6,0,0,1,1.066,3.18v.1a5.036,5.036,0,0,1-.473,2.215A3.589,3.589,0,0,1,62.957-.391a3.743,3.743,0,0,1-2.02.547,3.556,3.556,0,0,1-2.785-1.2A4.575,4.575,0,0,1,57.086-4.2Zm1.453.172a3.616,3.616,0,0,0,.652,2.258,2.088,2.088,0,0,0,1.746.852,2.075,2.075,0,0,0,1.75-.863A3.955,3.955,0,0,0,63.336-4.3a3.61,3.61,0,0,0-.66-2.254,2.1,2.1,0,0,0-1.754-.863A2.075,2.075,0,0,0,59.2-6.57,3.925,3.925,0,0,0,58.539-4.133ZM70.68-7.156a4.331,4.331,0,0,0-.711-.055A1.9,1.9,0,0,0,68.039-6V0H66.594V-8.453H68l.023.977a2.251,2.251,0,0,1,2.016-1.133,1.477,1.477,0,0,1,.641.109Z" transform="translate(442 1410)" fill="#12263f"/>
      <path id="Trazado_610513" data-name="Trazado 610513" d="M9.688-3.609A4.185,4.185,0,0,1,8.355-.824a4.365,4.365,0,0,1-2.98.98,4.008,4.008,0,0,1-3.23-1.445A5.815,5.815,0,0,1,.93-5.156V-6.25A6.481,6.481,0,0,1,1.5-9.039,4.231,4.231,0,0,1,3.1-10.887a4.47,4.47,0,0,1,2.406-.645A4.11,4.11,0,0,1,8.414-10.52a4.235,4.235,0,0,1,1.273,2.8H8.18a3.268,3.268,0,0,0-.848-1.975A2.565,2.565,0,0,0,5.508-10.3,2.684,2.684,0,0,0,3.254-9.241a4.882,4.882,0,0,0-.816,3.026v1.1a5.018,5.018,0,0,0,.773,2.948A2.5,2.5,0,0,0,5.375-1.07a2.887,2.887,0,0,0,1.918-.566A3.143,3.143,0,0,0,8.18-3.609Zm5.906-3.547a4.331,4.331,0,0,0-.711-.055A1.9,1.9,0,0,0,12.953-6V0H11.508V-8.453h1.406l.023.977a2.251,2.251,0,0,1,2.016-1.133,1.477,1.477,0,0,1,.641.109ZM20.281.156a3.693,3.693,0,0,1-2.8-1.129,4.19,4.19,0,0,1-1.078-3.02v-.266a5.073,5.073,0,0,1,.48-2.246A3.748,3.748,0,0,1,18.23-8.051,3.378,3.378,0,0,1,20.1-8.609a3.166,3.166,0,0,1,2.563,1.086,4.7,4.7,0,0,1,.914,3.109v.6H17.852a3,3,0,0,0,.73,2.02,2.3,2.3,0,0,0,1.777.77,2.517,2.517,0,0,0,1.3-.312,3.259,3.259,0,0,0,.93-.828l.883.688A3.55,3.55,0,0,1,20.281.156ZM20.1-7.422a1.928,1.928,0,0,0-1.469.637A3.1,3.1,0,0,0,17.9-5h4.234v-.109a2.753,2.753,0,0,0-.594-1.707A1.815,1.815,0,0,0,20.1-7.422ZM30.469,0a3.036,3.036,0,0,1-.2-.891A3.225,3.225,0,0,1,27.859.156a2.984,2.984,0,0,1-2.051-.707,2.287,2.287,0,0,1-.8-1.793,2.39,2.39,0,0,1,1-2.051,4.733,4.733,0,0,1,2.824-.73h1.406v-.664A1.623,1.623,0,0,0,29.789-7a1.821,1.821,0,0,0-1.336-.449,2.108,2.108,0,0,0-1.3.391,1.151,1.151,0,0,0-.523.945H25.18a2,2,0,0,1,.449-1.223,3.066,3.066,0,0,1,1.219-.934,4.1,4.1,0,0,1,1.691-.344,3.342,3.342,0,0,1,2.289.73,2.635,2.635,0,0,1,.859,2.012v3.891a4.757,4.757,0,0,0,.3,1.852V0Zm-2.4-1.1a2.54,2.54,0,0,0,1.289-.352,2.127,2.127,0,0,0,.883-.914V-4.1H29.109q-2.656,0-2.656,1.555a1.316,1.316,0,0,0,.453,1.063A1.742,1.742,0,0,0,28.07-1.1Zm7.844-9.4v2.047h1.578v1.117H35.914v5.249a1.173,1.173,0,0,0,.211.763.888.888,0,0,0,.719.254,3.5,3.5,0,0,0,.688-.094V0a4.215,4.215,0,0,1-1.109.155A1.8,1.8,0,0,1,34.961-.43a2.517,2.517,0,0,1-.492-1.664V-7.336H32.93V-8.453h1.539V-10.5ZM40.75,0H39.3V-8.453H40.75ZM39.188-10.7a.863.863,0,0,1,.215-.594.807.807,0,0,1,.637-.242.819.819,0,0,1,.641.242.854.854,0,0,1,.219.594.826.826,0,0,1-.219.586.834.834,0,0,1-.641.234.821.821,0,0,1-.637-.234A.834.834,0,0,1,39.188-10.7Zm6.664,8.734,2.094-6.492h1.477L46.391,0h-1.1L42.227-8.453H43.7ZM50.313-4.3A4.993,4.993,0,0,1,50.8-6.539,3.643,3.643,0,0,1,52.16-8.07a3.7,3.7,0,0,1,1.988-.539,3.565,3.565,0,0,1,2.793,1.2,4.6,4.6,0,0,1,1.066,3.18v.1a5.036,5.036,0,0,1-.473,2.215A3.589,3.589,0,0,1,56.184-.391a3.743,3.743,0,0,1-2.02.547,3.556,3.556,0,0,1-2.785-1.2A4.575,4.575,0,0,1,50.313-4.2Zm1.453.172a3.616,3.616,0,0,0,.652,2.258,2.088,2.088,0,0,0,1.746.852,2.075,2.075,0,0,0,1.75-.863A3.955,3.955,0,0,0,56.563-4.3a3.61,3.61,0,0,0-.66-2.254,2.1,2.1,0,0,0-1.754-.863,2.075,2.075,0,0,0-1.727.852A3.925,3.925,0,0,0,51.766-4.133Z" transform="translate(1096 1410)" fill="#12263f"/>
      <path id="Trazado_610515" data-name="Trazado 610515" d="M7.75-5.258H2.82v4.031H8.547V0H1.32V-11.375H8.469v1.227H2.82v3.664H7.75Zm7.359,3.016a1.064,1.064,0,0,0-.441-.91,4.249,4.249,0,0,0-1.539-.559,7.277,7.277,0,0,1-1.742-.562,2.479,2.479,0,0,1-.953-.781,1.869,1.869,0,0,1-.309-1.078A2.193,2.193,0,0,1,11-7.891a3.432,3.432,0,0,1,2.246-.719,3.532,3.532,0,0,1,2.332.742,2.357,2.357,0,0,1,.895,1.9H15.023a1.3,1.3,0,0,0-.5-1.023,1.888,1.888,0,0,0-1.27-.43,1.976,1.976,0,0,0-1.234.344,1.082,1.082,0,0,0-.445.9.877.877,0,0,0,.414.789,5.1,5.1,0,0,0,1.5.508,7.8,7.8,0,0,1,1.754.578,2.558,2.558,0,0,1,1,.809,1.988,1.988,0,0,1,.324,1.152,2.163,2.163,0,0,1-.906,1.816A3.8,3.8,0,0,1,13.3.156,4.257,4.257,0,0,1,11.5-.2a2.922,2.922,0,0,1-1.223-1A2.42,2.42,0,0,1,9.836-2.6h1.445a1.5,1.5,0,0,0,.582,1.152,2.258,2.258,0,0,0,1.434.426,2.331,2.331,0,0,0,1.316-.332A1.02,1.02,0,0,0,15.109-2.242ZM20.4-10.5v2.047h1.578v1.117H20.4v5.249a1.173,1.173,0,0,0,.211.763.888.888,0,0,0,.719.254,3.5,3.5,0,0,0,.688-.094V0a4.215,4.215,0,0,1-1.109.155A1.8,1.8,0,0,1,19.445-.43a2.517,2.517,0,0,1-.492-1.664V-7.336H17.414V-8.453h1.539V-10.5ZM27.75-7.156a4.331,4.331,0,0,0-.711-.055A1.9,1.9,0,0,0,25.109-6V0H23.664V-8.453H25.07l.023.977a2.251,2.251,0,0,1,2.016-1.133,1.477,1.477,0,0,1,.641.109ZM33.984,0a3.036,3.036,0,0,1-.2-.891A3.225,3.225,0,0,1,31.375.156a2.984,2.984,0,0,1-2.051-.707,2.287,2.287,0,0,1-.8-1.793,2.39,2.39,0,0,1,1-2.051,4.733,4.733,0,0,1,2.824-.73h1.406v-.664A1.623,1.623,0,0,0,33.3-7a1.821,1.821,0,0,0-1.336-.449,2.108,2.108,0,0,0-1.3.391,1.151,1.151,0,0,0-.523.945H28.7a2,2,0,0,1,.449-1.223,3.066,3.066,0,0,1,1.219-.934,4.1,4.1,0,0,1,1.691-.344,3.342,3.342,0,0,1,2.289.73A2.635,2.635,0,0,1,35.2-5.867v3.891a4.757,4.757,0,0,0,.3,1.852V0Zm-2.4-1.1a2.54,2.54,0,0,0,1.289-.352,2.127,2.127,0,0,0,.883-.914V-4.1H32.625q-2.656,0-2.656,1.555a1.316,1.316,0,0,0,.453,1.063A1.742,1.742,0,0,0,31.586-1.1Zm7.844-9.4v2.047h1.578v1.117H39.43v5.249a1.173,1.173,0,0,0,.211.763.888.888,0,0,0,.719.254,3.5,3.5,0,0,0,.688-.094V0a4.215,4.215,0,0,1-1.109.155A1.8,1.8,0,0,1,38.477-.43a2.517,2.517,0,0,1-.492-1.664V-7.336H36.445V-8.453h1.539V-10.5ZM46.2.156a3.693,3.693,0,0,1-2.8-1.129,4.19,4.19,0,0,1-1.078-3.02v-.266a5.073,5.073,0,0,1,.48-2.246,3.748,3.748,0,0,1,1.344-1.547,3.378,3.378,0,0,1,1.871-.559,3.166,3.166,0,0,1,2.563,1.086A4.7,4.7,0,0,1,49.5-4.414v.6H43.773a3,3,0,0,0,.73,2.02,2.3,2.3,0,0,0,1.777.77,2.517,2.517,0,0,0,1.3-.312,3.259,3.259,0,0,0,.93-.828l.883.688A3.55,3.55,0,0,1,46.2.156Zm-.18-7.578a1.928,1.928,0,0,0-1.469.637A3.1,3.1,0,0,0,43.82-5h4.234v-.109a2.753,2.753,0,0,0-.594-1.707A1.815,1.815,0,0,0,46.023-7.422Zm.7-4.578h1.75L46.383-9.7l-1.164,0Zm4.1,7.7a4.968,4.968,0,0,1,.914-3.145,2.923,2.923,0,0,1,2.422-1.168,2.908,2.908,0,0,1,2.414,1.094l.07-.937h1.32V-.2A3.439,3.439,0,0,1,57,2.383a3.589,3.589,0,0,1-2.613.945,4.348,4.348,0,0,1-1.789-.391,3.08,3.08,0,0,1-1.336-1.07L52.008,1a2.826,2.826,0,0,0,2.273,1.148,2.214,2.214,0,0,0,1.645-.594,2.269,2.269,0,0,0,.59-1.672V-.844a2.971,2.971,0,0,1-2.367,1,2.887,2.887,0,0,1-2.4-1.2A5.224,5.224,0,0,1,50.828-4.3Zm1.453.164a3.79,3.79,0,0,0,.586,2.246,1.9,1.9,0,0,0,1.641.816,2.117,2.117,0,0,0,2.008-1.242V-6.172a2.142,2.142,0,0,0-1.992-1.211,1.921,1.921,0,0,0-1.648.82A4.128,4.128,0,0,0,52.281-4.133ZM61.719,0H60.273V-8.453h1.445ZM60.156-10.7a.863.863,0,0,1,.215-.594.807.807,0,0,1,.637-.242.819.819,0,0,1,.641.242.854.854,0,0,1,.219.594.826.826,0,0,1-.219.586.834.834,0,0,1-.641.234.821.821,0,0,1-.637-.234A.834.834,0,0,1,60.156-10.7Zm7.266,9.672a2.082,2.082,0,0,0,1.352-.469,1.649,1.649,0,0,0,.641-1.172h1.367a2.621,2.621,0,0,1-.5,1.383,3.293,3.293,0,0,1-1.23,1.047,3.55,3.55,0,0,1-1.629.391A3.482,3.482,0,0,1,64.676-1a4.59,4.59,0,0,1-1.02-3.152v-.242a5.089,5.089,0,0,1,.453-2.2,3.451,3.451,0,0,1,1.3-1.492,3.7,3.7,0,0,1,2-.531,3.39,3.39,0,0,1,2.363.852,3.043,3.043,0,0,1,1,2.211H69.414a1.992,1.992,0,0,0-.621-1.348,1.932,1.932,0,0,0-1.379-.527,2.023,2.023,0,0,0-1.707.793A3.724,3.724,0,0,0,65.1-4.336v.273a3.65,3.65,0,0,0,.6,2.25A2.033,2.033,0,0,0,67.422-1.023Zm4.6-3.281a4.993,4.993,0,0,1,.488-2.234A3.643,3.643,0,0,1,73.871-8.07a3.7,3.7,0,0,1,1.988-.539,3.565,3.565,0,0,1,2.793,1.2,4.6,4.6,0,0,1,1.066,3.18v.1a5.036,5.036,0,0,1-.473,2.215A3.589,3.589,0,0,1,77.895-.391a3.743,3.743,0,0,1-2.02.547,3.556,3.556,0,0,1-2.785-1.2A4.575,4.575,0,0,1,72.023-4.2Zm1.453.172a3.616,3.616,0,0,0,.652,2.258,2.088,2.088,0,0,0,1.746.852,2.075,2.075,0,0,0,1.75-.863A3.955,3.955,0,0,0,78.273-4.3a3.61,3.61,0,0,0-.66-2.254,2.1,2.1,0,0,0-1.754-.863,2.075,2.075,0,0,0-1.727.852A3.925,3.925,0,0,0,73.477-4.133Z" transform="translate(608 1690)" fill="#12263f"/>
      <path id="Trazado_610514" data-name="Trazado 610514" d="M9.719-1.492A3.465,3.465,0,0,1,8.105-.254,6.517,6.517,0,0,1,5.7.156,4.674,4.674,0,0,1,3.227-.5,4.346,4.346,0,0,1,1.559-2.352,6.408,6.408,0,0,1,.953-5.141v-.992a5.982,5.982,0,0,1,1.2-3.984,4.179,4.179,0,0,1,3.371-1.414,4.316,4.316,0,0,1,2.867.91A3.965,3.965,0,0,1,9.719-8.039h-1.5A2.48,2.48,0,0,0,5.531-10.3a2.655,2.655,0,0,0-2.285,1.06,5.173,5.173,0,0,0-.785,3.069v.93A4.848,4.848,0,0,0,3.336-2.2,2.836,2.836,0,0,0,5.7-1.07,5.228,5.228,0,0,0,7.18-1.257a2.283,2.283,0,0,0,1.047-.631V-4.437H5.594V-5.664H9.719ZM15.5.156A3.693,3.693,0,0,1,12.7-.973a4.19,4.19,0,0,1-1.078-3.02v-.266a5.073,5.073,0,0,1,.48-2.246,3.748,3.748,0,0,1,1.344-1.547,3.378,3.378,0,0,1,1.871-.559,3.166,3.166,0,0,1,2.563,1.086A4.7,4.7,0,0,1,18.8-4.414v.6H13.07a3,3,0,0,0,.73,2.02,2.3,2.3,0,0,0,1.777.77,2.517,2.517,0,0,0,1.3-.312,3.259,3.259,0,0,0,.93-.828l.883.688A3.55,3.55,0,0,1,15.5.156Zm-.18-7.578a1.928,1.928,0,0,0-1.469.637A3.1,3.1,0,0,0,13.117-5h4.234v-.109a2.753,2.753,0,0,0-.594-1.707A1.815,1.815,0,0,0,15.32-7.422Zm10.07,5.18a1.064,1.064,0,0,0-.441-.91,4.249,4.249,0,0,0-1.539-.559,7.277,7.277,0,0,1-1.742-.562,2.479,2.479,0,0,1-.953-.781,1.869,1.869,0,0,1-.309-1.078,2.193,2.193,0,0,1,.879-1.758,3.432,3.432,0,0,1,2.246-.719,3.532,3.532,0,0,1,2.332.742,2.357,2.357,0,0,1,.895,1.9H25.3a1.3,1.3,0,0,0-.5-1.023,1.888,1.888,0,0,0-1.27-.43,1.976,1.976,0,0,0-1.234.344,1.082,1.082,0,0,0-.445.9.877.877,0,0,0,.414.789,5.1,5.1,0,0,0,1.5.508,7.8,7.8,0,0,1,1.754.578,2.558,2.558,0,0,1,1,.809,1.988,1.988,0,0,1,.324,1.152A2.163,2.163,0,0,1,25.93-.527a3.8,3.8,0,0,1-2.352.684,4.257,4.257,0,0,1-1.8-.359,2.922,2.922,0,0,1-1.223-1A2.42,2.42,0,0,1,20.117-2.6h1.445a1.5,1.5,0,0,0,.582,1.152,2.258,2.258,0,0,0,1.434.426,2.331,2.331,0,0,0,1.316-.332A1.02,1.02,0,0,0,25.391-2.242ZM30.68-10.5v2.047h1.578v1.117H30.68v5.249a1.173,1.173,0,0,0,.211.763.888.888,0,0,0,.719.254,3.5,3.5,0,0,0,.688-.094V0a4.215,4.215,0,0,1-1.109.155A1.8,1.8,0,0,1,29.727-.43a2.517,2.517,0,0,1-.492-1.664V-7.336H27.7V-8.453h1.539V-10.5Zm2.727,6.2a4.993,4.993,0,0,1,.488-2.234A3.643,3.643,0,0,1,35.254-8.07a3.7,3.7,0,0,1,1.988-.539,3.565,3.565,0,0,1,2.793,1.2A4.6,4.6,0,0,1,41.1-4.234v.1a5.036,5.036,0,0,1-.473,2.215A3.589,3.589,0,0,1,39.277-.391a3.743,3.743,0,0,1-2.02.547,3.556,3.556,0,0,1-2.785-1.2A4.575,4.575,0,0,1,33.406-4.2Zm1.453.172a3.616,3.616,0,0,0,.652,2.258,2.088,2.088,0,0,0,1.746.852,2.075,2.075,0,0,0,1.75-.863A3.955,3.955,0,0,0,39.656-4.3,3.61,3.61,0,0,0,39-6.559a2.1,2.1,0,0,0-1.754-.863,2.075,2.075,0,0,0-1.727.852A3.925,3.925,0,0,0,34.859-4.133ZM47-7.156a4.331,4.331,0,0,0-.711-.055A1.9,1.9,0,0,0,44.359-6V0H42.914V-8.453H44.32l.023.977a2.251,2.251,0,0,1,2.016-1.133A1.477,1.477,0,0,1,47-8.5Z" transform="translate(927 1690)" fill="#12263f"/>
      <g id="Grupo_1072297" data-name="Grupo 1072297" transform="translate(443 1281)">
        <g id="Grupo_1072296" data-name="Grupo 1072296" clip-path="url(#clip-path-4)">
          <path id="Trazado_609473" data-name="Trazado 609473" d="M66.715,51.451q3.844,0,7.687,0c.134,0,.225-.005.294-.159a14.339,14.339,0,0,1,5.2-6.15A23.3,23.3,0,0,0,89.578,31a23.883,23.883,0,0,0,.518-7.308,22.477,22.477,0,0,0-.87-4.64A23.525,23.525,0,0,0,80.9,7,22.592,22.592,0,0,0,74.451,3.53a23.926,23.926,0,0,0-3.685-.939,25.392,25.392,0,0,0-5.116-.3c-.417.011-.416.011-.453-.407-.047-.53-.088-1.061-.15-1.589-.028-.237.1-.235.269-.249a23.739,23.739,0,0,1,4.239.136A23.365,23.365,0,0,1,73.578.97,24.4,24.4,0,0,1,77.99,2.646,25.406,25.406,0,0,1,85.734,8.5a26.058,26.058,0,0,1,4.9,8,29.514,29.514,0,0,1,1.278,4.375c.154.72.261,1.454.359,2.185a29.144,29.144,0,0,1,.092,2.919,21.222,21.222,0,0,1-.524,4.99A24.677,24.677,0,0,1,90.2,36.082a25.852,25.852,0,0,1-6.28,8.682,42.759,42.759,0,0,1-3.548,2.75,11.616,11.616,0,0,0-3.239,3.73c-.111.2.013.2.136.2.343,0,.686,0,1.028,0,.523,0,1.047.008,1.57,0,.153,0,.235.033.234.207q0,.893.011,1.787c0,.187-.086.224-.25.223-1.137-.008-2.274,0-3.41-.017-.232,0-.316.048-.365.291a13.52,13.52,0,0,0-.347,1.719c-.015.216.047.24.224.237.55-.007,1.1,0,1.651-.007.19,0,.272.033.268.249-.012.586,0,1.173.008,1.76,0,.187-.061.254-.251.249-.586-.015-1.173-.007-1.759-.025-.185-.006-.227.054-.225.228.007.966,0,1.931,0,2.9a1.255,1.255,0,0,1-1.36,1.364c-.235,0-.469.006-.7,0-.147-.005-.2.044-.214.2a7.357,7.357,0,0,1-.436,2.137A6.606,6.606,0,0,1,70,68.386a6.329,6.329,0,0,1-3.211.924,6.766,6.766,0,0,1-6.618-5.337,5.916,5.916,0,0,1-.168-1.149c0-.16-.062-.224-.227-.218-.261.01-.523,0-.785,0a1.194,1.194,0,0,1-1.214-1.073,9.441,9.441,0,0,1-.033-1.271c-.007-.632-.01-1.264,0-1.9,0-.19-.045-.239-.243-.233-.586.018-1.173,0-1.759.011-.178,0-.236-.053-.233-.232.009-.6.011-1.191,0-1.787,0-.187.043-.247.237-.243.586.013,1.173,0,1.759.008.17,0,.221-.036.18-.213q-.212-.908-.4-1.821c-.038-.182-.128-.213-.3-.212-1.145.012-2.291.007-3.437.015-.174,0-.237-.05-.234-.232.01-.577.007-1.155,0-1.732,0-.19.041-.266.256-.262.812.016,1.624.01,2.436.007.085,0,.2.039.249-.054s-.054-.16-.1-.234a11.215,11.215,0,0,0-2.592-3.2c-.539-.45-1.106-.87-1.68-1.276a25.642,25.642,0,0,1-7.241-7.795,24.605,24.605,0,0,1-2.934-7.261,24.094,24.094,0,0,1-.661-4.514c-.023-.658-.037-1.316-.048-1.975,0-.176.046-.234.225-.226.6.027,1.208.049,1.812.056.222,0,.218.131.216.283-.008.858,0,1.714.067,2.57A23.208,23.208,0,0,0,53.14,44.885a15.752,15.752,0,0,1,4.189,4.026A11.406,11.406,0,0,1,58.5,50.979a.683.683,0,0,0,.748.479c2.49-.023,4.98-.011,7.47-.011v0M66.674,62.6H62.8c-.6,0-.6,0-.531.6a4.446,4.446,0,0,0,6.083,3.565,4.217,4.217,0,0,0,2.758-3.906c-.019-.212-.066-.265-.273-.264-1.389.009-2.778,0-4.168,0m.031-8.956v.007q-3.462,0-6.924,0c-.215,0-.275.045-.231.277a7.177,7.177,0,0,1,.3,1.643c-.011.248.091.321.336.32q6.532-.01,13.064,0c.209,0,.28-.061.3-.266a9.085,9.085,0,0,1,.271-1.759c.058-.2-.013-.222-.187-.221q-3.462.007-6.924,0m.017,4.486v0c-2.164,0-4.328,0-6.493,0-.187,0-.246.035-.241.236.016.6.008,1.208,0,1.813,0,.154.02.22.2.22q6.519-.007,13.039,0c.149,0,.184-.047.183-.185q-.008-.961,0-1.921c0-.128-.034-.169-.17-.169q-3.26.007-6.519,0" transform="translate(-32.1 0)" fill="#345359"/>
          <path id="Trazado_609474" data-name="Trazado 609474" d="M81.716,45.947q0,7.647,0,15.294a4.69,4.69,0,0,1-1.666,3.778,4.4,4.4,0,0,1-6.608-1.19c-.139-.25-.248-.3-.533-.216a4.417,4.417,0,0,1-5.6-3.457,4.686,4.686,0,0,1,.082-1.954c.07-.275.009-.4-.266-.531a5.449,5.449,0,0,1-3.11-3.755,4.974,4.974,0,0,1,.463-3.686c.086-.166-.024-.158-.1-.194a4.405,4.405,0,0,1-.392-7.986c.166-.087.391-.149.473-.29.1-.167-.123-.33-.194-.5a5.489,5.489,0,0,1,2.082-6.621,4.15,4.15,0,0,1,.9-.49c.185-.067.216-.154.169-.342a4.479,4.479,0,0,1,3.562-5.682,3.417,3.417,0,0,1,2.009.194c.229.086.319.011.421-.174a4.3,4.3,0,0,1,3.226-2.259,4.426,4.426,0,0,1,4.388,2.08,4.9,4.9,0,0,1,.7,2.631q.011,7.5,0,15v.352Zm-2.257.019h-.007c0-1.453-.007-2.905,0-4.358.02-3.717-.048-7.434.039-11.151a2.869,2.869,0,0,0-.053-.618,2.3,2.3,0,0,0-1.93-1.8,2.41,2.41,0,0,0-2.238,1.19.744.744,0,0,0,.068.9,4.064,4.064,0,0,1,.75,2.222c.009.158-.049.21-.2.208-.541-.009-1.082-.006-1.623-.02-.371-.01-.37-.019-.4-.4a1.077,1.077,0,0,0-.036-.213,2.276,2.276,0,0,0-3.638-1.122,2.31,2.31,0,0,0-.737,1.885,2.217,2.217,0,0,0,1.985,2.1c.168.023.21.066.208.223-.007.577-.008,1.155,0,1.732,0,.182-.058.23-.234.221a4.3,4.3,0,0,1-2.387-.906.472.472,0,0,0-.446-.1A3.355,3.355,0,0,0,66.4,40.726a3.121,3.121,0,0,0,2.762,1.835,3.212,3.212,0,0,0,3.1-1.535,2.6,2.6,0,0,0,.491-1.548c-.012-.219.07-.246.236-.246.577,0,1.155.01,1.732,0,.205,0,.234.079.226.258a5.575,5.575,0,0,1-5.537,5.3,5.071,5.071,0,0,1-3.026-.934.616.616,0,0,0-.415-.167,2.277,2.277,0,0,0-2.116,1.758,2.305,2.305,0,0,0,2.1,2.781.423.423,0,0,0,.3-.106,5.543,5.543,0,0,1,8.7,4.272c.012.207-.048.267-.253.261-.478-.014-.956,0-1.434-.005-.159,0-.347.046-.469-.063-.1-.09,0-.259-.033-.39-.007-.026-.008-.053-.013-.08a3.377,3.377,0,0,0-3.821-2.8,3.343,3.343,0,0,0-2.859,3.714,3.273,3.273,0,0,0,2.085,2.746.9.9,0,0,0,1.135-.15.986.986,0,0,1,.23-.14,4.712,4.712,0,0,1,1.9-.57c.194-.024.233.013.231.191-.007.568-.017,1.137.005,1.705.01.245-.059.328-.3.35a2.223,2.223,0,0,0-1.587,3.419,2.228,2.228,0,0,0,4.1-1.016c.011-.2.13-.185.255-.185q.825,0,1.651,0c.33,0,.321.006.3.336a4.164,4.164,0,0,1-.85,2.215.465.465,0,0,0-.055.5,2.151,2.151,0,0,0,2.367,1.347,2.065,2.065,0,0,0,1.9-1.767,9.237,9.237,0,0,0,.026-1.243q0-7.4,0-14.806" transform="translate(-48.226 -20.228)" fill="#345359"/>
          <path id="Trazado_609475" data-name="Trazado 609475" d="M164.473,45.953c0-5.035.007-10.071-.005-15.106a4.947,4.947,0,0,1,.986-3.24,4.374,4.374,0,0,1,7.359.614.257.257,0,0,0,.387.134c2.274-.935,5.031.757,5.612,3.048a4.514,4.514,0,0,1-.023,2.458c-.059.194-.027.251.154.331a5.348,5.348,0,0,1,3.173,3.638,5.09,5.09,0,0,1-.346,3.763c-.12.23.034.29.18.36a4.471,4.471,0,0,1,1.76,1.441A4.4,4.4,0,0,1,181.946,50c-.217.1-.262.172-.15.4a5.254,5.254,0,0,1,.294,3.849,5.312,5.312,0,0,1-2.192,3,3.96,3.96,0,0,1-.825.457c-.34.13-.342.157-.255.522a4.427,4.427,0,0,1-2.19,5.064,4.314,4.314,0,0,1-3.529.289c-.127-.041-.185-.042-.25.088a4.417,4.417,0,0,1-8.072-.535,5.131,5.131,0,0,1-.3-1.936q-.008-7.621,0-15.241m2.205,0q0,7.838,0,15.675a2.207,2.207,0,0,0,2.465,2.192,2.214,2.214,0,0,0,1.9-1.452.375.375,0,0,0-.05-.359,4.48,4.48,0,0,1-.887-2.343c-.024-.22.039-.265.239-.261.478.011.956,0,1.434,0s.476,0,.56.463A2.2,2.2,0,0,0,174.6,61.62a2.062,2.062,0,0,0,1.921-1.184,2.121,2.121,0,0,0-.03-2.146,2.03,2.03,0,0,0-1.69-1.107c-.134-.008-.268-.013-.266-.22.006-.623,0-1.245-.007-1.868,0-.121.04-.183.178-.166a4.734,4.734,0,0,1,2.425.9.5.5,0,0,0,.479.1,4.332,4.332,0,0,0,.537-.179,3.369,3.369,0,0,0-2.382-6.289,3.241,3.241,0,0,0-2.321,2.947c-.01.2-.078.271-.271.27-.559,0-1.119-.013-1.678.012-.263.012-.291-.088-.272-.309a5.426,5.426,0,0,1,2.95-4.584,5.168,5.168,0,0,1,5.558.236,1.064,1.064,0,0,0,1.038.109,2.809,2.809,0,0,0,.6-.3,2.144,2.144,0,0,0,.97-1.968,2.033,2.033,0,0,0-1.192-1.886,1.367,1.367,0,0,0-1.45-.055,5.19,5.19,0,0,1-5.563.2,5.392,5.392,0,0,1-2.915-4.609c-.015-.2.034-.267.245-.261.568.015,1.137.01,1.7,0,.178,0,.27.04.263.237a2.785,2.785,0,0,0,.487,1.577,3.379,3.379,0,0,0,4.382,1.173,3.383,3.383,0,0,0-.77-6.277.419.419,0,0,0-.389.125,4.416,4.416,0,0,1-2.362.9c-.194.013-.251-.05-.247-.24q.017-.839,0-1.678c0-.191.046-.272.256-.279a1.722,1.722,0,0,0,.491-.137,2.24,2.24,0,0,0-.515-4.341,2.177,2.177,0,0,0-2.456,2.022c-.008.185-.058.24-.254.233-.586-.019-1.172-.018-1.758,0-.192,0-.231-.054-.212-.23a4.5,4.5,0,0,1,.886-2.4.338.338,0,0,0,.067-.328,2.226,2.226,0,0,0-2.415-1.539,2.277,2.277,0,0,0-1.952,2.335q0,7.77,0,15.54" transform="translate(-128.753 -20.258)" fill="#345359"/>
          <path id="Trazado_609476" data-name="Trazado 609476" d="M13.341,58.362a1.037,1.037,0,0,1-.962,1.077,5.067,5.067,0,0,0-2.348.632,4.21,4.21,0,0,0-2.2,3.477,3.614,3.614,0,0,1-.138.714,1.058,1.058,0,0,1-1.021.782,1.113,1.113,0,0,1-1.035-.767,2.679,2.679,0,0,1-.176-.843,3.936,3.936,0,0,0-1.575-2.958,4.383,4.383,0,0,0-2.575-.994,1.365,1.365,0,0,1-1.029-.388,1.075,1.075,0,0,1,.554-1.772c.245-.053.5-.058.75-.093A4.4,4.4,0,0,0,5.3,54.259,6.257,6.257,0,0,0,5.5,53.034a4.178,4.178,0,0,1,.131-.578,1.07,1.07,0,0,1,1.044-.75,1.049,1.049,0,0,1,1,.728A5.019,5.019,0,0,1,7.852,53.5a4.32,4.32,0,0,0,2.867,3.5,4.484,4.484,0,0,0,1.532.275,1.14,1.14,0,0,1,1.09,1.095m-4.822.028c0-.045-.015-.084-.144-.185a7.359,7.359,0,0,1-1.548-1.577c-.124-.177-.193-.183-.323,0a6.647,6.647,0,0,1-1.538,1.549c-.214.151-.174.246,0,.381A7.771,7.771,0,0,1,6.5,60.107a.754.754,0,0,0,.052.062c.083.091.15.106.235-.011a8.022,8.022,0,0,1,1.628-1.651c.041-.032.1-.055.1-.118" transform="translate(0 -40.478)" fill="#345359"/>
          <path id="Trazado_609477" data-name="Trazado 609477" d="M30.973,6.9a1.044,1.044,0,0,1,.954-1.085,6.244,6.244,0,0,0,1.64-.3,4.436,4.436,0,0,0,2.69-2.741,5.237,5.237,0,0,0,.25-1.458A1.056,1.056,0,0,1,37.277.288a1.109,1.109,0,0,1,1.242.43,1.456,1.456,0,0,1,.2.828,4.476,4.476,0,0,0,1.6,3.2,4.4,4.4,0,0,0,2.509,1.031c.171.014.342.025.512.05a1.111,1.111,0,0,1,.938,1.066,1.042,1.042,0,0,1-.9,1.051,10.2,10.2,0,0,0-1.512.28A4.366,4.366,0,0,0,38.945,11.1a7.912,7.912,0,0,0-.259,1.594,1.139,1.139,0,0,1-1.034.911,1.208,1.208,0,0,1-1.093-.823,2.638,2.638,0,0,1-.053-.455,4.443,4.443,0,0,0-1.815-3.446,4.625,4.625,0,0,0-2.538-.894c-.766-.055-1.177-.424-1.181-1.093m8.513,0c-.012-.078-.084-.109-.139-.151A7.131,7.131,0,0,1,37.813,5.2c-.142-.2-.242-.185-.382,0a6.941,6.941,0,0,1-1.375,1.4c-.395.29-.389.3,0,.606.057.045.111.092.17.134a7.535,7.535,0,0,1,1.224,1.287c.106.122.212.18.325.018a7.145,7.145,0,0,1,1.61-1.621c.042-.031.094-.058.1-.125" transform="translate(-24.247 -0.187)" fill="#345359"/>
        </g>
      </g>
      <g id="Grupo_1072299" data-name="Grupo 1072299" transform="translate(613 1561)">
        <g id="Grupo_1072298" data-name="Grupo 1072298" clip-path="url(#clip-path-5)">
          <path id="Trazado_609478" data-name="Trazado 609478" d="M23.946,98.281q-10.661,0-21.323,0A2.543,2.543,0,0,1,.38,97.059a2.559,2.559,0,0,1-.357-1.423c-.013-1.05-.06-2.1.03-3.15a2.452,2.452,0,0,1,2.175-2.228c.922-.1,1.849-.029,2.773-.049.261-.006.522-.012.782,0,.183.01.221-.058.219-.231-.014-1.034-.014-2.068-.021-3.1a2.107,2.107,0,0,1,1.174-1.993,1.858,1.858,0,0,1,.9-.216c.614-.006,1.228-.014,1.842,0,.231,0,.313-.02.268-.3a14.568,14.568,0,0,1,.059-4.94,16.131,16.131,0,0,1,4.1-8.2c.971-1.06,2.031-2.037,2.971-3.126a18.074,18.074,0,0,0,1.927-2.488,4.171,4.171,0,0,0,.59-1.647,3.686,3.686,0,0,0-.224-1.507c-.044-.149-.124-.1-.2-.034A4.065,4.065,0,0,1,17,63.335a10.017,10.017,0,0,1-2.158-.134,24.668,24.668,0,0,0-2.459-.222c-.289,0-.31.027-.233.311.066.242.154.479.231.718.052.159.114.316.151.479a.892.892,0,0,1-.452,1.094c-.485.3-1.017.517-1.526.775-1.049.531-2.116,1.024-3.156,1.57a1.034,1.034,0,0,1-1.532-.493Q4.325,64.56,2.778,61.689c-.151-.281-.3-.561-.455-.842a.9.9,0,0,1,.16-1.214c.378-.382.785-.736,1.176-1.106q3.6-3.409,7.194-6.82,1.986-1.883,3.97-3.768c.277-.263.276-.264.035-.565-.741-.925-1.486-1.847-2.221-2.777-.607-.766-.477-1.339.41-1.763a5.416,5.416,0,0,1,4.165-.237,11.056,11.056,0,0,1,3.316,1.824,1.259,1.259,0,0,0,.892.32,12.947,12.947,0,0,1,4.279.535,14.789,14.789,0,0,1,5.344,2.788,22.3,22.3,0,0,1,5.8,7.409,33.388,33.388,0,0,1,2.73,7.449,29.743,29.743,0,0,1,.945,5.908,27.935,27.935,0,0,1-.092,4.81,13.05,13.05,0,0,1-.562,2.553.974.974,0,0,1-.865.7,4.463,4.463,0,0,0-3.68,2.633,3.409,3.409,0,0,0,.087,3.224,5.92,5.92,0,0,0,1.584,1.809.524.524,0,0,0,.351.109c.791,0,1.582.027,2.371-.01a2.132,2.132,0,0,1,2.206,2q.049,1.639,0,3.278c-.007.231.051.282.272.279.967-.011,1.934-.01,2.9,0a3.017,3.017,0,0,1,1.327.251,2.382,2.382,0,0,1,1.444,2.09,30.1,30.1,0,0,1,0,3.479,2.451,2.451,0,0,1-2.013,2.2,3.962,3.962,0,0,1-.677.059q-10.611,0-21.221,0m-.708-13.613H33.432c.218,0,.437,0,.656,0,.178,0,.19-.062.086-.188-.048-.058-.088-.123-.132-.185a5.531,5.531,0,0,1-1.049-3.306,5.79,5.79,0,0,1,1.662-3.947,6.627,6.627,0,0,1,3.281-1.969.319.319,0,0,0,.265-.28,16.481,16.481,0,0,0,.343-3.908,31.3,31.3,0,0,0-.267-4.221,35.815,35.815,0,0,0-.9-4.359,30.824,30.824,0,0,0-2-5.369,21.455,21.455,0,0,0-5.012-6.881,12.583,12.583,0,0,0-9.319-3.294,1.579,1.579,0,0,1-1.166-.367A11.4,11.4,0,0,0,17.848,45a4.858,4.858,0,0,0-2.591-.7c-.087.006-.213-.041-.252.051s.075.158.129.227q.958,1.2,1.923,2.4a1.059,1.059,0,0,1-.1,1.676q-2.609,2.454-5.2,4.93C9.38,55.85,6.981,58.1,4.584,60.349a.327.327,0,0,0-.063.474C5.352,62.34,6.174,63.862,7,65.381c.232.427.232.424.657.215.821-.4,1.642-.809,2.469-1.2.181-.086.241-.174.17-.365-.082-.22-.119-.458-.217-.67a1.259,1.259,0,0,1,.255-1.463,2.517,2.517,0,0,1,.483-.439,3.329,3.329,0,0,1,2.293-.482c1.053.1,2.1.27,3.157.332a2.23,2.23,0,0,0,2.469-1.336.907.907,0,0,1,.57-.538.981.981,0,0,1,1.227.528c.334.64.677,1.277.965,1.938a5.029,5.029,0,0,1,.476,1.686,4.563,4.563,0,0,1-.749,2.622,21.386,21.386,0,0,1-3.013,3.808c-.823.876-1.682,1.72-2.494,2.606a13.757,13.757,0,0,0-3.526,7.04,13.045,13.045,0,0,0-.028,4.712c.043.228.116.3.35.3q5.362-.012,10.724,0m.718,11.594H45.274c.447,0,.6-.14.6-.581.007-.992,0-1.984.006-2.976a.427.427,0,0,0-.379-.457,1.5,1.5,0,0,0-.326-.019H2.669c-.52,0-.645.114-.648.631,0,.916,0,1.832.005,2.749a2.176,2.176,0,0,0,.034.3.4.4,0,0,0,.4.349,2.763,2.763,0,0,0,.328.006H23.956m0-6.054q7.82,0,15.64,0c.361,0,.328.063.325-.341-.007-.966-.026-1.933-.015-2.9,0-.241-.058-.295-.289-.295q-5.549.005-11.1,0-10.115,0-20.231,0c-.249,0-.327.052-.323.316.017.966,0,1.933,0,2.9,0,.328,0,.328.322.328H23.956" transform="translate(0 -33.736)" fill="#345359"/>
          <path id="Trazado_609479" data-name="Trazado 609479" d="M214.111,62.571q-.8.993-1.61,1.988c-.17.209-.337.419-.516.62a.993.993,0,0,1-1.3.16.918.918,0,0,1-.216-1.371c.847-1.076,1.717-2.135,2.577-3.2.411-.51.844-1.006,1.226-1.537a1.025,1.025,0,0,1,1.764,0c1.038,1.312,2.1,2.6,3.151,3.9.206.255.417.506.619.764a.992.992,0,0,1-.112,1.381.978.978,0,0,1-1.395-.124c-.624-.749-1.231-1.512-1.845-2.269-.088-.109-.181-.214-.313-.369V63.8q0,4.7,0,9.407c0,.627.007.625.639.624l8.074,0c.067,0,.135,0,.2,0,.805.021,1.154.382,1.154,1.193q0,5.888,0,11.777a1.1,1.1,0,0,1-.482.994.956.956,0,0,1-1.442-.476,1.812,1.812,0,0,1-.1-.618q0-5.271,0-10.542c0-.35.068-.332-.341-.332q-4.175,0-8.351,0a1.651,1.651,0,0,1-.827-.176.849.849,0,0,1-.473-.7c-.02-.217-.036-.436-.036-.653q0-5.787.006-11.575a.143.143,0,0,0-.061-.152" transform="translate(-167.716 -46.847)" fill="#345359"/>
          <path id="Trazado_609480" data-name="Trazado 609480" d="M272.772,227.031a3.893,3.893,0,0,1-3.84,3.966,3.887,3.887,0,0,1-.3-7.762,3.87,3.87,0,0,1,4.144,3.8m-3.86-1.775a1.884,1.884,0,0,0-1.91,1.867,2.024,2.024,0,0,0,1.935,1.89,1.97,1.97,0,0,0,1.875-1.913,1.84,1.84,0,0,0-1.9-1.845" transform="translate(-211.411 -178.065)" fill="#345359"/>
          <path id="Trazado_609481" data-name="Trazado 609481" d="M223.032,3.892a3.877,3.877,0,1,1-7.741-.331,3.877,3.877,0,0,1,7.741.331m-5.747-.059A1.856,1.856,0,0,0,219.146,5.8a1.878,1.878,0,0,0,1.9-1.776,1.875,1.875,0,0,0-1.792-2.026,1.848,1.848,0,0,0-1.972,1.838" transform="translate(-171.725 0)" fill="#345359"/>
          <path id="Trazado_609482" data-name="Trazado 609482" d="M152.292,23.574a1.034,1.034,0,0,1-.744-.381c-.389-.371-.766-.755-1.148-1.134-.179-.177-.362-.351-.533-.536-.109-.118-.191-.128-.31-.008-.526.531-1.055,1.06-1.593,1.579a1.31,1.31,0,0,1-.8.477,1,1,0,0,1-.981-1.364,1.479,1.479,0,0,1,.315-.451c.562-.555,1.117-1.117,1.687-1.664.143-.137.047-.2-.035-.282q-.8-.806-1.6-1.61a1.786,1.786,0,0,1-.3-.371.962.962,0,0,1,.158-1.218.935.935,0,0,1,1.265-.048,3.225,3.225,0,0,1,.341.3c.525.521,1.051,1.04,1.567,1.57.128.132.187.069.28-.026.56-.569,1.119-1.139,1.69-1.7a.985.985,0,0,1,1.047-.325.966.966,0,0,1,.47,1.591c-.494.492-.976,1-1.464,1.495-.106.108-.209.219-.321.321-.135.123-.133.222,0,.353.5.486.991.981,1.484,1.475.119.119.234.242.34.371a.875.875,0,0,1,.129.991.985.985,0,0,1-.946.593" transform="translate(-116.543 -13.031)" fill="#345359"/>
          <path id="Trazado_609483" data-name="Trazado 609483" d="M290.669,67.985c-.013.475-.126.8-.5.962a.975.975,0,0,1-1.147-.159c-.6-.58-1.184-1.169-1.77-1.76-.127-.128-.2-.163-.354-.007-.589.611-1.194,1.206-1.8,1.8a.976.976,0,0,1-1.169.105.988.988,0,0,1-.438-1.091,1.125,1.125,0,0,1,.315-.478c.576-.577,1.148-1.158,1.733-1.725.142-.138.122-.206-.01-.334-.595-.582-1.185-1.169-1.762-1.768a.911.911,0,0,1-.089-1.294.948.948,0,0,1,1.437-.118c.587.566,1.157,1.149,1.734,1.724.228.227.232.232.471,0,.562-.555,1.117-1.117,1.68-1.671a.983.983,0,0,1,1.379-.056,1.024,1.024,0,0,1,.015,1.412c-.587.613-1.192,1.208-1.8,1.8-.113.111-.114.164,0,.274.577.563,1.146,1.136,1.716,1.706a.955.955,0,0,1,.355.68" transform="translate(-226.107 -49.33)" fill="#345359"/>
          <path id="Trazado_609484" data-name="Trazado 609484" d="M125.07,95.872a22.1,22.1,0,0,0-.3-3.336,24.051,24.051,0,0,0-3.377-9.9A15.824,15.824,0,0,0,116.62,77.6a14.273,14.273,0,0,0-1.548-.841.956.956,0,0,1-.421-1.385.92.92,0,0,1,1.032-.444,6.053,6.053,0,0,1,1.558.756,16.809,16.809,0,0,1,4.821,4.456,23.812,23.812,0,0,1,3.751,7.7,32.1,32.1,0,0,1,.985,4.777,34.588,34.588,0,0,1,.266,4.678.989.989,0,0,1-.674.964,1,1,0,0,1-1.129-.338,1.138,1.138,0,0,1-.188-.718c-.01-.445,0-.891,0-1.337" transform="translate(-91.341 -59.751)" fill="#345359"/>
        </g>
      </g>
      <g id="Grupo_1072301" data-name="Grupo 1072301" transform="translate(919.883 1562.659)">
        <g id="Grupo_1072300" data-name="Grupo 1072300" clip-path="url(#clip-path-6)">
          <path id="Trazado_609485" data-name="Trazado 609485" d="M1.924,30.643c0,1.052-.012,2.1,0,3.156.016,1.114.455,1.558,1.58,1.571,1.594.018,3.189.026,4.782,0A1.207,1.207,0,0,1,9.649,36.4a19.794,19.794,0,0,0,2.078,5.008,1.167,1.167,0,0,1-.232,1.614Q9.788,44.7,8.114,46.407c-.85.867-.85,1.42,0,2.283,1.388,1.407,2.791,2.8,4.187,4.2.18.18.37.354.534.548a.91.91,0,0,1-.041,1.365.87.87,0,0,1-1.293-.029C9.738,53.018,7.936,51.3,6.263,49.464a2.992,2.992,0,0,1,.25-4.163c.873-.929,1.773-1.835,2.706-2.7a.936.936,0,0,0,.252-1.374,13.75,13.75,0,0,1-1.345-3.256.8.8,0,0,0-.945-.683c-1.243.032-2.487.021-3.73.007A3.216,3.216,0,0,1,.008,33.813q-.015-3.2,0-6.409a3.214,3.214,0,0,1,3.461-3.461c1.243-.013,2.487-.015,3.73,0,.465.007.754-.08.9-.605a16.72,16.72,0,0,1,1.459-3.519.7.7,0,0,0-.154-.991c-.922-.881-1.816-1.79-2.708-2.7A3.176,3.176,0,0,1,6.7,11.245Q8.95,8.96,11.235,6.714a3.192,3.192,0,0,1,4.954.045c.885.873,1.773,1.744,2.633,2.641a.7.7,0,0,0,.99.168,16.45,16.45,0,0,1,3.519-1.46c.521-.147.621-.424.613-.895-.021-1.243-.017-2.487,0-3.73A3.217,3.217,0,0,1,27.39.01q3.252-.018,6.5,0a3.2,3.2,0,0,1,3.395,3.334q.039,1.912,0,3.826a.8.8,0,0,0,.673.952A14.813,14.813,0,0,1,41.3,9.512.846.846,0,0,0,42.522,9.3c.851-.906,1.739-1.777,2.63-2.645A3.157,3.157,0,0,1,49.9,6.62q2.4,2.336,4.732,4.735a3.144,3.144,0,0,1-.005,4.682c-.883.92-1.78,1.827-2.714,2.7a.847.847,0,0,0-.176,1.23,15.569,15.569,0,0,1,1.381,3.345A.753.753,0,0,0,54,23.95c1.275-.027,2.551-.022,3.826-.005a3.205,3.205,0,0,1,3.4,3.423q.02,3.252,0,6.5a3.209,3.209,0,0,1-3.408,3.419c-1.275.017-2.551.022-3.826-.006a.755.755,0,0,0-.872.649,16.657,16.657,0,0,1-1.424,3.431.75.75,0,0,0,.161,1.071c.926.876,1.821,1.785,2.711,2.7a3.171,3.171,0,0,1,0,4.82c-1.493,1.527-3.02,3.021-4.525,4.536-.493.5-1.04.873-1.638.259s-.194-1.15.3-1.637q2.206-2.189,4.393-4.4c.887-.9.882-1.444-.014-2.353-1.1-1.112-2.2-2.223-3.316-3.311a1.211,1.211,0,0,1-.232-1.693A19.792,19.792,0,0,0,51.6,36.349a1.162,1.162,0,0,1,1.3-.98c1.594.022,3.188.018,4.782,0,1.176-.011,1.613-.451,1.619-1.629q.017-3.156,0-6.313c-.008-1.11-.458-1.551-1.587-1.563-1.562-.017-3.125-.028-4.686,0a1.252,1.252,0,0,1-1.452-1.045A19.531,19.531,0,0,0,49.5,19.817a1.165,1.165,0,0,1,.241-1.612q1.708-1.672,3.381-3.381c.847-.865.845-1.418-.01-2.284Q50.9,10.294,48.651,8.077c-.812-.8-1.393-.794-2.217.011q-1.709,1.671-3.38,3.382a1.212,1.212,0,0,1-1.694.234A19.714,19.714,0,0,0,36.35,9.631a1.159,1.159,0,0,1-.981-1.3c.022-1.594.018-3.188,0-4.782-.012-1.177-.453-1.614-1.629-1.62q-3.156-.017-6.313,0c-1.111.008-1.555.456-1.568,1.583-.018,1.594-.027,3.189,0,4.782a1.208,1.208,0,0,1-1.04,1.359,19.806,19.806,0,0,0-5.008,2.077,1.168,1.168,0,0,1-1.613-.238q-1.672-1.708-3.38-3.382c-.86-.845-1.423-.843-2.285.009Q10.3,10.339,8.078,12.583c-.806.817-.8,1.39.005,2.214q1.672,1.708,3.383,3.379A1.212,1.212,0,0,1,11.7,19.87a19.713,19.713,0,0,0-2.072,5.01,1.163,1.163,0,0,1-1.3.987c-1.594-.022-3.188-.017-4.782,0-1.183.011-1.612.446-1.625,1.622-.012,1.052,0,2.1,0,3.156" transform="translate(0 0)" fill="#345359"/>
          <path id="Trazado_609486" data-name="Trazado 609486" d="M88.332,219.25c.183-.951.344-1.858.536-2.758a1.362,1.362,0,0,0-.2-1c-.541-.973-1.084-1.946-1.6-2.935s-.119-1.635.977-1.645q3.2-.027,6.406,0c1.038.01,1.426.665.972,1.593a7.238,7.238,0,0,1-.788,1.415c-1.36,1.671-1.06,3.457-.382,5.488.565-1.474,1.073-2.793,1.574-4.114.44-1.159.886-2.317,1.3-3.485a1.187,1.187,0,0,1,1.483-.851A10.294,10.294,0,0,1,107.5,221.3c.013,3.028.007,6.056,0,9.083,0,1.124-.279,1.4-1.418,1.4q-14.869,0-29.737,0c-1.118,0-1.381-.278-1.383-1.433,0-3.06-.015-6.119,0-9.179a10.3,10.3,0,0,1,8.92-10.215,1.2,1.2,0,0,1,1.461.891c.822,2.238,1.674,4.465,2.524,6.692.087.228.092.511.46.711m1.738,10.615c-.052-.219-.064-.311-.1-.4-1.994-5.259-4-10.512-5.969-15.78-.24-.643-.548-.73-1.137-.53-3.154,1.07-5.256,3.168-5.789,6.472-.519,3.213-.1,6.484-.2,9.729-.014.455.218.511.587.51,4.171-.007,8.342,0,12.6,0m2.289,0c4.284,0,8.454-.009,12.624.011.547,0,.613-.236.61-.687-.017-2.8.037-5.607-.029-8.409a8.316,8.316,0,0,0-5.944-7.613c-.486-.137-.871-.256-1.12.411-2.01,5.384-4.051,10.756-6.141,16.286m-1.228-2.774c.741-1.907,2.171-3.589,1.46-5.785-.233-.72-.265-1.5-.452-2.239-.5-1.976-.874-3.925.618-5.679.02-.023.024-.059.042-.085.2-.291.169-.471-.231-.471H89.435a10.277,10.277,0,0,0,.692,1.313,3.909,3.909,0,0,1,.513,3.437c-.372,1.64-.631,3.306-.954,4.957a1.422,1.422,0,0,0,.027.833c.481,1.236.947,2.478,1.419,3.718" transform="translate(-60.619 -170.556)" fill="#345359"/>
          <path id="Trazado_609487" data-name="Trazado 609487" d="M75.032,91.418a16.254,16.254,0,1,1,29.74,9.115c-.106.159-.218.314-.328.471-.38.538-.879.8-1.465.4s-.487-.973-.105-1.5a14.994,14.994,0,0,0,2.069-4.064A14.345,14.345,0,1,0,77.189,88.8a13.937,13.937,0,0,0,2.01,10.34c.171.269.355.529.537.789.353.5.451,1.034-.08,1.44a.955.955,0,0,1-1.477-.314,16.123,16.123,0,0,1-2.616-5.477,16.313,16.313,0,0,1-.531-4.156" transform="translate(-60.678 -60.817)" fill="#345359"/>
          <path id="Trazado_609488" data-name="Trazado 609488" d="M131.642,123.51a8.8,8.8,0,1,1-8.815-8.9,8.848,8.848,0,0,1,8.815,8.9m-15.679-.16a6.88,6.88,0,1,0,6.911-6.809,6.931,6.931,0,0,0-6.911,6.809" transform="translate(-92.227 -92.686)" fill="#345359"/>
        </g>
      </g>
      <g id="Grupo_1072303" data-name="Grupo 1072303" transform="translate(1093.328 1281.729)">
        <g id="Grupo_1072302" data-name="Grupo 1072302" clip-path="url(#clip-path-7)">
          <path id="Trazado_609489" data-name="Trazado 609489" d="M64.682,6.233C66.575,4.315,68.35,2.5,70.139.708c.94-.944,1.388-.941,2.319-.014q3.04,3.028,6.068,6.068c1.077,1.083.864,1.882-.587,2.266A4.343,4.343,0,0,0,74.6,13.54a4.293,4.293,0,0,0,8.48.573c.365-1.377,1.186-1.6,2.211-.586q3.121,3.1,6.219,6.22c.773.778.778,1.308-.005,2.093-1.84,1.841-3.7,3.663-5.645,5.584a6.542,6.542,0,0,1,4.648,5.03,6.284,6.284,0,0,1-3.91,7.18,1.123,1.123,0,0,0-.857,1.3c.05,1.644.032,3.29.012,4.935a3.236,3.236,0,0,1-3.659,3.394,7.885,7.885,0,0,1-4.667-1.951,2.894,2.894,0,0,0,.482,2.075,10.256,10.256,0,0,1-.176,10.793,4.574,4.574,0,0,0-.565,2.672c.042.765-.191,1.415-1.068,1.42s-1.062-.64-1.092-1.407a6.252,6.252,0,0,1,.79-3.6,8.309,8.309,0,0,0,.179-8.936,8.659,8.659,0,0,1-.962-4.349q.013-6.33,0-12.661a3.213,3.213,0,0,0-5.7-2.166,3.613,3.613,0,0,0-.731,2.406q.016,6.92,0,13.841a5.134,5.134,0,0,1-.032.963,1.057,1.057,0,0,1-2.088,0,4.366,4.366,0,0,1-.03-.856c0-2.933-.115-5.872.044-8.8.088-1.609-.784-2.372-1.851-3.214a6.458,6.458,0,0,1-6.015,4.614c-.512.029-.653.316-.789.708-.843,2.425-1.711,4.842-2.535,7.274a3.13,3.13,0,0,0,.147,2.3c1.339,3.114,2.635,6.246,3.99,9.354A7.406,7.406,0,0,1,60,63.095c-.03.71-.357,1.2-1.095,1.183a1.018,1.018,0,0,1-1.044-1.222,6.851,6.851,0,0,0-.781-3.291c-1.228-2.812-2.4-5.649-3.6-8.471a5.493,5.493,0,0,1-.125-4.169c.8-2.25,1.561-4.518,2.369-6.766.176-.489.135-.716-.361-1a6.151,6.151,0,0,1-3.331-6.329,6.214,6.214,0,0,1,4.261-5.418c.09-.035.172-.089.458-.24-1.72-1.68-3.385-3.286-5.028-4.915-1.679-1.664-1.673-1.677.036-3.376,1.618-1.609,3.246-3.208,4.895-4.837-3.834-2.17-5.273-4.642-4.567-7.7a6.517,6.517,0,0,1,5.8-5.076c2.958-.255,5.452,1.446,6.8,4.77m12.61,26.715a4.5,4.5,0,0,0,.415-.346c.428-.456.875-.912,1.569-.639.772.3.66,1,.656,1.646a4.281,4.281,0,1,0,4.091-4.168c-.632.015-1.237.064-1.555-.632-.329-.72.171-1.133.6-1.564,1.943-1.951,3.893-3.9,5.828-5.855.262-.265.769-.479.227-1.01C87.674,18.96,86.265,17.5,84.793,16c-.193.27-.318.437-.435.609a6.36,6.36,0,0,1-7.67,2.633,6.171,6.171,0,0,1-4.2-5.358,6.014,6.014,0,0,1,2.8-5.983c.746-.495.685-.729.1-1.272C74.213,5.538,73.07,4.4,71.977,3.222c-.524-.565-.824-.515-1.337.014-1.942,2-3.933,3.956-5.908,5.926-.388.387-.793.753-1.409.484-.642-.281-.72-.816-.668-1.431a3.971,3.971,0,0,0-.2-1.688,4.279,4.279,0,0,0-5.056-2.766,4.208,4.208,0,0,0-3.231,4.657,4.272,4.272,0,0,0,4.258,3.749c.635,0,1.351-.173,1.692.582.358.791-.218,1.256-.7,1.739-1.9,1.893-3.781,3.806-5.7,5.676-.484.471-.535.745-.019,1.246,2.027,1.966,4.006,3.982,6.005,5.978.508.507.765,1.052.249,1.7-.368.458-.885.351-1.389.341a4.287,4.287,0,1,0,4.1,4.038c-.016-.605-.025-1.189.6-1.476.668-.31,1.16.064,1.581.556s.868,1.008,1.442,1.674c.667-4.366,2.232-6.218,5.157-6.4,2.909-.184,4.82,1.473,5.864,5.134m.671,2.57a1.315,1.315,0,0,0-.8,1.22c.028,1.751-.036,3.5.028,5.254a5.342,5.342,0,0,0,4.764,5.1c1.183.14,1.637-.258,1.647-1.484.012-1.5-.049-3.005.024-4.5.038-.768-.216-1.065-.948-1.177a5.289,5.289,0,0,1-2.051-.879,7.191,7.191,0,0,1-2.665-3.535" transform="translate(-39.632 0)" fill="#345359"/>
          <path id="Trazado_609490" data-name="Trazado 609490" d="M4.369,94.541c.926,0,1.852.009,2.778,0,.773-.009,1.391.234,1.38,1.1-.01.8-.591,1.056-1.324,1.053q-2.938-.009-5.876,0C.594,96.7.012,96.446,0,95.644c-.012-.87.6-1.114,1.377-1.106,1,.011,1.994,0,2.992,0" transform="translate(0 -74.244)" fill="#345359"/>
          <path id="Trazado_609491" data-name="Trazado 609491" d="M264.193,96.695c-1,0-1.994,0-2.992,0-.7,0-1.2-.316-1.217-1.052s.466-1.087,1.173-1.09q3.1-.015,6.2,0c.709,0,1.184.366,1.164,1.1s-.527,1.041-1.227,1.043c-1.033,0-2.066,0-3.1,0" transform="translate(-204.176 -74.248)" fill="#345359"/>
          <path id="Trazado_609492" data-name="Trazado 609492" d="M260.879,157.4a4.816,4.816,0,0,1-.542-.235q-2.6-1.486-5.186-2.984c-.642-.371-.974-.9-.563-1.592a1.042,1.042,0,0,1,1.582-.3q2.641,1.515,5.277,3.04a1.067,1.067,0,0,1,.631,1.319,1.051,1.051,0,0,1-1.2.748" transform="translate(-199.795 -119.422)" fill="#345359"/>
          <path id="Trazado_609493" data-name="Trazado 609493" d="M10.615,22.226c.145.067.377.154.59.276,1.666.953,3.326,1.915,4.992,2.867.666.381,1.092.9.649,1.648-.407.688-1.035.618-1.672.247-1.72-1-3.45-1.985-5.172-2.984a1.076,1.076,0,0,1,.613-2.054" transform="translate(-7.315 -17.45)" fill="#345359"/>
          <path id="Trazado_609494" data-name="Trazado 609494" d="M262.2,23.22a1.178,1.178,0,0,1-.588.963c-1.813,1.053-3.624,2.109-5.45,3.141a1.071,1.071,0,1,1-1.053-1.859c1.808-1.063,3.615-2.128,5.454-3.134a1.071,1.071,0,0,1,1.636.889" transform="translate(-199.846 -17.417)" fill="#345359"/>
          <path id="Trazado_609495" data-name="Trazado 609495" d="M15.814,152.142a1.008,1.008,0,0,1,1.034.646.936.936,0,0,1-.336,1.236c-1.925,1.148-3.863,2.275-5.826,3.358a.942.942,0,0,1-1.3-.422.9.9,0,0,1,.226-1.331c1.948-1.177,3.933-2.293,5.908-3.426a.916.916,0,0,1,.289-.061" transform="translate(-7.226 -119.482)" fill="#345359"/>
        </g>
      </g>
    </g>
  </g>
</svg>
