<svg xmlns="http://www.w3.org/2000/svg" xmlns:xlink="http://www.w3.org/1999/xlink" width="400" height="735" viewBox="0 0 400 735">
  <defs>
    <clipPath id="clip-path">
      <rect id="Rectángulo_377845" data-name="Rectángulo 377845" width="400" height="735" transform="translate(495 1454)" fill="none"/>
    </clipPath>
    <clipPath id="clip-path-2">
      <path id="Trazado_609760" data-name="Trazado 609760" d="M394.6,0a9.935,9.935,0,0,0-9.906,9.906V129.858A120.756,120.756,0,1,0,591.981,214.08q0-4.511-.33-8.941h18.906a9.934,9.934,0,0,0,9.906-9.905V9.906A9.934,9.934,0,0,0,610.556,0Z" transform="translate(-350.463)" fill="none"/>
    </clipPath>
    <clipPath id="clip-path-3">
      <rect id="Rectángulo_377838" data-name="Rectángulo 377838" width="60.269" height="69.31" fill="#345359"/>
    </clipPath>
    <clipPath id="clip-path-4">
      <rect id="Rectángulo_377840" data-name="Rectángulo 377840" width="64.565" height="64.547" fill="#345359"/>
    </clipPath>
    <clipPath id="clip-path-5">
      <rect id="Rectángulo_377842" data-name="Rectángulo 377842" width="64.344" height="64.278" fill="#345359"/>
    </clipPath>
    <clipPath id="clip-path-6">
      <rect id="Rectángulo_377844" data-name="Rectángulo 377844" width="61.234" height="61.229" fill="#345359"/>
    </clipPath>
  </defs>
  <g id="Grupo_1072663" data-name="Grupo 1072663" transform="translate(6219 11252)">
    <rect id="Rectángulo_377835" data-name="Rectángulo 377835" width="400" height="735" transform="translate(-6219 -11252)" fill="#fff"/>
    <g id="Enmascarar_grupo_154325" data-name="Enmascarar grupo 154325" transform="translate(-6714 -12706)" clip-path="url(#clip-path)">
      <g id="Grupo_1072384" data-name="Grupo 1072384">
        <g id="Grupo_1072376" data-name="Grupo 1072376" transform="translate(-84.964 -8.647)">
          <path id="Trazado_609706" data-name="Trazado 609706" d="M465.652,373.293c-79.386,0-143.971-64.585-143.971-143.971S386.266,85.35,465.652,85.35s143.972,64.585,143.972,143.972S545.039,373.293,465.652,373.293m0-283.417c-76.892,0-139.447,62.555-139.447,139.446S388.76,368.769,465.652,368.769,605.1,306.213,605.1,229.322,542.543,89.875,465.652,89.875" transform="translate(313.866 1403.106)" fill="#345359"/>
          <path id="Trazado_609707" data-name="Trazado 609707" d="M328.745,259.961a6.126,6.126,0,1,1-6.127-6.125,6.126,6.126,0,0,1,6.127,6.125" transform="translate(314.771 1373.705)" fill="#345359"/>
          <path id="Trazado_609708" data-name="Trazado 609708" d="M674.947,259.961a6.126,6.126,0,1,1-6.128-6.125,6.127,6.127,0,0,1,6.128,6.125" transform="translate(254.358 1373.705)" fill="#345359"/>
          <path id="Trazado_609709" data-name="Trazado 609709" d="M590.881,235.438A119.758,119.758,0,1,1,471.124,115.682,119.755,119.755,0,0,1,590.881,235.438" transform="translate(308.686 1397.813)" fill="#345359"/>
          <g id="Grupo_1072375" data-name="Grupo 1072375" transform="translate(659.306 1432.399)">
            <g id="Grupo_1072374" data-name="Grupo 1072374" clip-path="url(#clip-path-2)">
              <path id="Trazado_609710" data-name="Trazado 609710" d="M421.485,194.763s-21.589,72.113-18.028,79.013,50.7,47.853,54.059,47.185,7.56-9.86,6.129-17.171c0,0-29.452-32.462-32.356-36.691s11.34-34.769,10.672-41.311-20.476-31.025-20.476-31.025" transform="translate(-359.641 -33.987)" fill="#fcd3b3"/>
              <path id="Trazado_609711" data-name="Trazado 609711" d="M530.925,609.737s-5.152,19.364-2.465,22.7,35.406,3.784,43.418,1.336-1.336-11.356-11.351-11.242c0,0-10.414-5.681-12.686-7.535s-1.336-6.151-4.006-6.374-12.909,1.113-12.909,1.113" transform="translate(-381.388 -106.202)" fill="#f4406f"/>
              <path id="Trazado_609712" data-name="Trazado 609712" d="M545.091,623.588s1.948-5.809,7.651-5.679" transform="translate(-384.426 -107.826)" fill="none" stroke="#eaf3ff" stroke-linecap="round" stroke-linejoin="round" stroke-width="1"/>
              <path id="Trazado_609713" data-name="Trazado 609713" d="M554.36,627.271s1.767-4.956,6.183-4.927" transform="translate(-386.044 -108.6)" fill="none" stroke="#eaf3ff" stroke-linecap="round" stroke-linejoin="round" stroke-width="1"/>
              <path id="Trazado_609714" data-name="Trazado 609714" d="M539.516,624.222a2.874,2.874,0,1,1-2.874-2.874,2.874,2.874,0,0,1,2.874,2.874" transform="translate(-382.45 -108.427)" fill="#eaf3ff"/>
              <path id="Trazado_609715" data-name="Trazado 609715" d="M527.691,632.01a5.988,5.988,0,0,0,.771,3.376c2.687,3.338,35.4,3.784,43.417,1.336,7.907-2.416-1.091-11.114-10.953-11.236-3.531,3.307-1.957,8.565-1.957,8.565-15.806,1.506-26.2-.551-31.279-2.041" transform="translate(-381.39 -109.149)" fill="#eaf3ff"/>
              <path id="Trazado_609716" data-name="Trazado 609716" d="M439.621,614.651s-5.267,11.586-6.583,13.693c0,0-6.846.263-7.372,10.8,0,0,10.532,5.53,29.492,0l-1.317-24.489Z" transform="translate(-363.586 -107.258)" fill="#f4406f"/>
              <path id="Trazado_609717" data-name="Trazado 609717" d="M452.65,628.645s-5.33-5.424-15.7-2.186" transform="translate(-365.555 -109.138)" fill="none" stroke="#eaf3ff" stroke-linecap="round" stroke-linejoin="round" stroke-width="1"/>
              <path id="Trazado_609718" data-name="Trazado 609718" d="M453.284,620.315a17,17,0,0,0-12.7-1.461" transform="translate(-366.189 -107.886)" fill="none" stroke="#eaf3ff" stroke-linecap="round" stroke-linejoin="round" stroke-width="1"/>
              <path id="Trazado_609719" data-name="Trazado 609719" d="M425.664,642.033s10.533,5.53,29.493,0L454.831,636c-.7,1.46-1.561,2.671-2.571,2.929,0,0,0-7.952-19.223-7.689,0,0-6.847.263-7.373,10.8" transform="translate(-363.586 -110.151)" fill="#eaf3ff"/>
              <path id="Trazado_609720" data-name="Trazado 609720" d="M454.787,314.474l61.874.395s12.208,135.211,13.1,150.791,6.489,86.965,4.708,92.752-21.812,4.9-23.147,3.115S498.6,484.356,497.709,475.9s-8.647-64.383-8.647-64.383-8.9,47.63-11.129,58.759-16.025,91.7-16.025,91.7c-6.233,6.232-24.038,3.115-25.818,0s3.789-93.921,3.646-104.609c-.328-24.483,15.05-142.89,15.05-142.89" transform="translate(-365.344 -54.876)" fill="#4a8aec"/>
              <path id="Trazado_609721" data-name="Trazado 609721" d="M465.772,314.952s-.087.57-.242,1.63" transform="translate(-370.542 -54.96)" fill="none" stroke="#9ed3f5" stroke-linecap="round" stroke-linejoin="round" stroke-width="1"/>
              <path id="Trazado_609722" data-name="Trazado 609722" d="M460.519,320.863c-1.192,8.342-3.644,26.294-5.519,45.25-1.621,16.39-7.363,86.581-8.254,95.483-.791,7.907-6.065,83.163-7.235,99.9" transform="translate(-366.002 -55.991)" fill="none" stroke="#9ed3f5" stroke-linecap="round" stroke-linejoin="round" stroke-width="1" stroke-dasharray="3.982 3.982"/>
              <path id="Trazado_609723" data-name="Trazado 609723" d="M439.347,614.359c-.074,1.067-.115,1.644-.115,1.644" transform="translate(-365.953 -107.207)" fill="none" stroke="#9ed3f5" stroke-linecap="round" stroke-linejoin="round" stroke-width="1"/>
              <path id="Trazado_609724" data-name="Trazado 609724" d="M502.658,405.621l.234,1.631" transform="translate(-377.021 -70.782)" fill="none" stroke="#9ed3f5" stroke-linecap="round" stroke-linejoin="round" stroke-width="1"/>
              <path id="Trazado_609725" data-name="Trazado 609725" d="M503.516,411.6c2.358,16.461,9.857,69.055,10.951,79.911,1.137,11.278,7.748,69.645,9.4,84.217" transform="translate(-377.171 -71.825)" fill="none" stroke="#9ed3f5" stroke-linecap="round" stroke-linejoin="round" stroke-width="1" stroke-dasharray="4.048 4.048"/>
              <path id="Trazado_609726" data-name="Trazado 609726" d="M528.4,612.438c.12,1.061.186,1.637.186,1.637" transform="translate(-381.513 -106.872)" fill="none" stroke="#9ed3f5" stroke-linecap="round" stroke-linejoin="round" stroke-width="1"/>
              <path id="Trazado_609727" data-name="Trazado 609727" d="M472.967,319.327s3.116,20.921,0,23.593-12.118,3.561-12.118,3.561" transform="translate(-369.726 -55.723)" fill="none" stroke="#9ed3f5" stroke-linecap="round" stroke-linejoin="round" stroke-width="1"/>
              <path id="Trazado_609728" data-name="Trazado 609728" d="M525.679,319.327l2.432,20.921,7.12,6.232" transform="translate(-381.039 -55.723)" fill="none" stroke="#9ed3f5" stroke-linecap="round" stroke-linejoin="round" stroke-width="1"/>
              <path id="Trazado_609729" data-name="Trazado 609729" d="M500.334,412.362s4.451-55.643,4.006-93.034" transform="translate(-376.616 -55.723)" fill="none" stroke="#9ed3f5" stroke-linecap="round" stroke-linejoin="round" stroke-width="1"/>
              <path id="Trazado_609730" data-name="Trazado 609730" d="M511.793,314.952s1.781,21.862,0,26.314-7.014,4.452-7.014,4.452" transform="translate(-377.392 -54.96)" fill="none" stroke="#9ed3f5" stroke-linecap="round" stroke-linejoin="round" stroke-width="1"/>
              <path id="Trazado_609731" data-name="Trazado 609731" d="M457.588,296.321s-24.493-4.732-24.911.922,7.472,18.343,10.919,16.727S457.588,296.321,457.588,296.321Z" transform="translate(-364.807 -51.385)" fill="none" stroke="#e3a214" stroke-linecap="round" stroke-linejoin="round" stroke-width="2"/>
              <path id="Trazado_609732" data-name="Trazado 609732" d="M460.752,293.592s-16.173-18.993-20.032-14.838-5.62,18.993-1.919,19.883S460.752,293.592,460.752,293.592Z" transform="translate(-365.523 -48.539)" fill="none" stroke="#fcbf31" stroke-linecap="round" stroke-linejoin="round" stroke-width="2"/>
              <path id="Trazado_609733" data-name="Trazado 609733" d="M602.3,105.33c.784-1.929-6.682-2.118-8.166-4.789s-4.155-14.462-6.38-18.8,3.413-4.491,7.419,2.929c0,0,.74,2.077.74-5.342s2.226-16.768,4.006-17.509.89,16.915,1.929,18.7,1.929-20.18,5.342-20.922.89,16.916,1.483,18.4,3.413-14.245,5.49-14.838-.891,15.659-.891,18.587,4.3-10.277,6.084-9.535-3.71,25.038-3.858,32.753-1.187,57.906-5.49,63.544-66.178,29.528-73.3,26.708-10.765-32.346,1.739-35.908,43.813-4.748,47.078-6.529,11.283-33.939,16.773-47.441" transform="translate(-381.827 -10.394)" fill="#fcd3b3"/>
              <path id="Trazado_609734" data-name="Trazado 609734" d="M459.488,175.578s-30.651,4.8-36.882,9.922-27.154,42.289-25.818,44.069,11.351,8.235,20.921,11.129,18.028,2.671,19.364,1.559,1.781-11.351,1.781-11.351,6.751,25.744,8.235,33.163-3.561,29.379-2.078,32.347,11.574,9.793,31.16,9.2S509.8,297.9,511.09,294.931s-1.979-37.393-1.682-49.262,1.268-27.3,1.268-27.3,17.428,5.045,19.5,4.155,9.5-11.573,10.684-23.147-1.187-23.444-3.561-25.225-40.528,1.077-53.2,1.429-24.611,0-24.611,0" transform="translate(-358.536 -30.288)" fill="#f4406f"/>
              <path id="Trazado_609735" data-name="Trazado 609735" d="M426.755,189.311s8.991,3.689,17.338,44.341" transform="translate(-363.776 -33.035)" fill="none" stroke="#ad2556" stroke-linecap="round" stroke-linejoin="round" stroke-width="1"/>
              <path id="Trazado_609736" data-name="Trazado 609736" d="M522.831,175.023s-3.186,10.064,9.79,43.6" transform="translate(-380.481 -30.542)" fill="none" stroke="#ad2556" stroke-linecap="round" stroke-linejoin="round" stroke-width="1"/>
              <path id="Trazado_609737" data-name="Trazado 609737" d="M399.023,234.947s14.241,11.986,39.366,15.374" transform="translate(-358.937 -40.999)" fill="none" stroke="#f3809f" stroke-linecap="round" stroke-linejoin="round" stroke-width="1"/>
              <path id="Trazado_609738" data-name="Trazado 609738" d="M552.625,222.089s12.774-17.643,7.432-48.519" transform="translate(-385.741 -30.288)" fill="none" stroke="#f3809f" stroke-linecap="round" stroke-linejoin="round" stroke-width="1"/>
              <path id="Trazado_609739" data-name="Trazado 609739" d="M467.857,176.668s4.917,10.7,17.2,10.3S498.7,175.911,498.7,175.911" transform="translate(-370.949 -30.697)" fill="none" stroke="#f3809f" stroke-linecap="round" stroke-linejoin="round" stroke-width="1"/>
              <path id="Trazado_609740" data-name="Trazado 609740" d="M475.346,141.117s2.623,16.334-2.59,28.8c0,0,11.924,11.129,24.611,0,0,0-2.67-7.939-.89-22.443Z" transform="translate(-371.803 -24.625)" fill="#fcd3b3"/>
              <path id="Trazado_609741" data-name="Trazado 609741" d="M475.894,141.117a71.4,71.4,0,0,1,.587,12.785c3.25,4.67,8.176,10.132,13.468,10.132a10.884,10.884,0,0,0,6.619-2.485,73.506,73.506,0,0,1,.457-14.077Z" transform="translate(-372.351 -24.625)" fill="#eda6a6"/>
              <path id="Trazado_609742" data-name="Trazado 609742" d="M532.248,100.514A22.465,22.465,0,0,0,544.7,102.3c6.677-1.109.532,11.54-10.528,14.175a19.279,19.279,0,0,1-1.924-15.964" transform="translate(-382.032 -17.54)" fill="#214489"/>
              <path id="Trazado_609743" data-name="Trazado 609743" d="M506.759,85.785c22.034,7.567,18.919,27.6,12.686,41.4-5.273,11.677-16.191,23.815-29.1,20.254s-24.649-16.5-17.194-40.953c5.565-18.251,19.058-25.7,33.608-20.7" transform="translate(-371.466 -14.705)" fill="#fcd3b3"/>
              <path id="Trazado_609744" data-name="Trazado 609744" d="M474.821,100.106s7.079.111,15.7-10.572a52.84,52.84,0,0,0,28.767,9.237c17.138.334,20.588-10.83,13.243-12.388,0,0,7.567-12.539.445-15.656s-15.246,5.565-27.822,2.448S483.81,68.947,482.7,77.293c0,0-5.249-3.338-8.921,1.336s-.938,27.08-.938,27.08Z" transform="translate(-371.647 -12.222)" fill="#2e53ab"/>
              <path id="Trazado_609745" data-name="Trazado 609745" d="M469.095,119.682l3.7-15.23s-.355-10.306-6.331-9.459c-7.363,1.042-10.046,23.784,2.628,24.69" transform="translate(-369.624 -16.568)" fill="#eda6a6"/>
              <path id="Trazado_609746" data-name="Trazado 609746" d="M466.646,94.993c-2.418.342-4.325,3.03-5.356,6.51,4.467-1.984,8.96,1.03,11.575,3.41l.112-.461s-.356-10.3-6.332-9.459" transform="translate(-369.803 -16.568)" fill="#fcd3b3"/>
              <path id="Trazado_609747" data-name="Trazado 609747" d="M522.9,142.576l7.543-13.74s7.216-7.365,11.055-2.709c4.731,5.736-8.633,24.333-18.6,16.45" transform="translate(-380.554 -21.74)" fill="#eda6a6"/>
              <path id="Trazado_609748" data-name="Trazado 609748" d="M543.048,126.126c-3.84-4.656-11.055,2.71-11.055,2.71l-.23.419c3.539.007,8.87.833,10.826,5.329,1.6-3.277,2.019-6.567.459-8.458" transform="translate(-382.1 -21.74)" fill="#fcd3b3"/>
              <path id="Trazado_609749" data-name="Trazado 609749" d="M511.566,111.18s-7.271,8.9-8.012,12.316c0,0,5.193,1.632,5.342,3.116s-7.122,4.9-7.122,4.9" transform="translate(-376.867 -19.401)" fill="none" stroke="#c67d7d" stroke-linecap="round" stroke-linejoin="round" stroke-width="1"/>
              <path id="Trazado_609750" data-name="Trazado 609750" d="M495.856,114.128c-.329,1.343-1.394,2.236-2.379,2s-1.516-1.526-1.188-2.869,1.394-2.236,2.379-2,1.516,1.526,1.188,2.869" transform="translate(-375.195 -19.408)" fill="#172e56"/>
              <path id="Trazado_609751" data-name="Trazado 609751" d="M519.339,123.474c-.329,1.343-1.394,2.236-2.379,2s-1.517-1.526-1.188-2.869,1.394-2.236,2.379-2,1.517,1.526,1.188,2.869" transform="translate(-379.293 -21.039)" fill="#172e56"/>
              <path id="Trazado_609752" data-name="Trazado 609752" d="M492.829,104.079a8.3,8.3,0,0,1,4.378-2.632,4.5,4.5,0,0,1,2.916-.173c.484.171,2.08,1.118,1.964,1.792-.215,1.251-3.775.624-4.6.5-1.057-.206-4.173,1.067-4.662.514" transform="translate(-375.306 -17.64)" fill="#2e53ab"/>
              <path id="Trazado_609753" data-name="Trazado 609753" d="M521.1,110.166a2.837,2.837,0,0,1,2.135-.076,3.635,3.635,0,0,1,2.03,2.377,7.5,7.5,0,0,1,.6,2.821c0,.2-.344,2.254-.48,1.932a11.03,11.03,0,0,1-.748-1.891,6.875,6.875,0,0,0-1.191-1.74c-.447-.391-1.144-.74-1.424-1.29-.149-.2-1.677-1.336-.922-2.131-.025.025-.064.038,0,0" transform="translate(-380.203 -19.181)" fill="#2e53ab"/>
              <path id="Trazado_609754" data-name="Trazado 609754" d="M487.662,134.368s2.56,9.348,13.466,8.458" transform="translate(-374.404 -23.448)" fill="none" stroke="#c67d7d" stroke-linecap="round" stroke-linejoin="round" stroke-width="1"/>
              <path id="Trazado_609755" data-name="Trazado 609755" d="M489.57,124.375c-1.108,3.14-4.973,4.638-8.633,3.347s-5.729-4.883-4.621-8.023,4.973-4.638,8.633-3.347,5.729,4.883,4.621,8.023" transform="translate(-372.372 -20.223)" fill="#eda6a6"/>
              <path id="Trazado_609756" data-name="Trazado 609756" d="M525.395,137.736c-1.109,3.14-4.974,4.638-8.633,3.347s-5.729-4.883-4.622-8.023,4.973-4.638,8.633-3.347,5.73,4.883,4.622,8.023" transform="translate(-378.624 -22.554)" fill="#eda6a6"/>
              <path id="Trazado_609757" data-name="Trazado 609757" d="M459.363,177.027s9.892,23,11.623,24.48,21.677,0,23.13-2.077,3.534-24.6,3.534-24.6a7.375,7.375,0,0,1,7.118,0s2.837,29.649,3.941,32.32,10.414,13.38,11.843,15,2.237,54.045,2.426,68.192,15.133,75.576,14.635,79.434-26.766,11.871-51.32,11.871-44.735-10.386-44.735-12.463,17.212-74.784,17.806-82.8-14.062-51.7-13.551-54.4,8.21-19.763,9.1-23.189-5.916-27.87-6.668-29.447,7.855-4.837,11.119-2.316" transform="translate(-366.359 -30.345)" fill="#fcbf31"/>
              <path id="Trazado_609758" data-name="Trazado 609758" d="M511.383,245.373a14.757,14.757,0,1,1-14.769-14.745,14.758,14.758,0,0,1,14.769,14.745" transform="translate(-373.394 -40.245)" fill="#eaf3ff"/>
              <path id="Trazado_609759" data-name="Trazado 609759" d="M515.765,266.381a46.822,46.822,0,0,1-31.788,20.087s11.625,2.94,27.773,0" transform="translate(-373.761 -46.484)" fill="none" stroke="#e3a214" stroke-linecap="round" stroke-linejoin="round" stroke-width="1"/>
            </g>
          </g>
          <g id="Rectángulo_377836" data-name="Rectángulo 377836" transform="translate(665 1716.399)" fill="#fff8e7" stroke="#345359" stroke-width="3">
            <rect width="230" height="60" rx="17" stroke="none"/>
            <rect x="1.5" y="1.5" width="227" height="57" rx="15.5" fill="none"/>
          </g>
          <text id="Ser_Emprendedor" data-name="Ser Emprendedor" transform="translate(709 1752.399)" fill="#12263f" font-size="18" font-family="Roboto-Black, Roboto" font-weight="800"><tspan x="0" y="0">Ser Emprendedor</tspan></text>
        </g>
        <path id="Trazado_609761" data-name="Trazado 609761" d="M86.915,329.8a86.927,86.927,0,0,1-22.074-171l.777,2.964a83.924,83.924,0,1,0,21.3-2.728,85.086,85.086,0,0,0-10.868.7l-.393-3.038a88.052,88.052,0,0,1,11.261-.723,86.914,86.914,0,1,1,0,173.828" transform="matrix(-0.921, -0.391, 0.391, -0.921, 594.069, 2111.201)" fill="#345359"/>
        <path id="Trazado_609762" data-name="Trazado 609762" d="M151.909,247.619a61.067,61.067,0,1,1-61.068-61.067,61.068,61.068,0,0,1,61.068,61.067" transform="translate(516.855 1605.446)" fill="#94eeff"/>
        <path id="Trazado_609763" data-name="Trazado 609763" d="M140.916,250.566a47.128,47.128,0,1,1-47.128-47.128,47.129,47.129,0,0,1,47.128,47.128" transform="translate(513.908 1602.5)" fill="#fff"/>
        <g id="Rectángulo_377837" data-name="Rectángulo 377837" transform="translate(537.945 1922)" fill="#fff8e7" stroke="#345359" stroke-width="3">
          <rect width="140" height="45" rx="14" stroke="none"/>
          <rect x="1.5" y="1.5" width="137" height="42" rx="12.5" fill="none"/>
        </g>
        <text id="Innovador" transform="translate(572.945 1951)" fill="#12263f" font-size="16" font-family="Roboto-Regular, Roboto"><tspan x="0" y="0">Innovador</tspan></text>
        <g id="Grupo_1072378" data-name="Grupo 1072378" transform="translate(573.945 1822)">
          <g id="Grupo_1072377" data-name="Grupo 1072377" clip-path="url(#clip-path-3)">
            <path id="Trazado_609764" data-name="Trazado 609764" d="M66.715,51.451q3.844,0,7.687,0c.134,0,.225-.005.294-.159a14.339,14.339,0,0,1,5.2-6.15A23.3,23.3,0,0,0,89.578,31a23.883,23.883,0,0,0,.518-7.308,22.477,22.477,0,0,0-.87-4.64A23.525,23.525,0,0,0,80.9,7,22.592,22.592,0,0,0,74.451,3.53a23.926,23.926,0,0,0-3.685-.939,25.392,25.392,0,0,0-5.116-.3c-.417.011-.416.011-.453-.407-.047-.53-.088-1.061-.15-1.589-.028-.237.1-.235.269-.249a23.739,23.739,0,0,1,4.239.136A23.365,23.365,0,0,1,73.578.97,24.4,24.4,0,0,1,77.99,2.646,25.406,25.406,0,0,1,85.734,8.5a26.058,26.058,0,0,1,4.9,8,29.514,29.514,0,0,1,1.278,4.375c.154.72.261,1.454.359,2.185a29.144,29.144,0,0,1,.092,2.919,21.222,21.222,0,0,1-.524,4.99A24.677,24.677,0,0,1,90.2,36.082a25.852,25.852,0,0,1-6.28,8.682,42.759,42.759,0,0,1-3.548,2.75,11.616,11.616,0,0,0-3.239,3.73c-.111.2.013.2.136.2.343,0,.686,0,1.028,0,.523,0,1.047.008,1.57,0,.153,0,.235.033.234.207q0,.893.011,1.787c0,.187-.086.224-.25.223-1.137-.008-2.274,0-3.41-.017-.232,0-.316.048-.365.291a13.52,13.52,0,0,0-.347,1.719c-.015.216.047.24.224.237.55-.007,1.1,0,1.651-.007.19,0,.272.033.268.249-.012.586,0,1.173.008,1.76,0,.187-.061.254-.251.249-.586-.015-1.173-.007-1.759-.025-.185-.006-.227.054-.225.228.007.966,0,1.931,0,2.9a1.255,1.255,0,0,1-1.36,1.364c-.235,0-.469.006-.7,0-.147-.005-.2.044-.214.2a7.357,7.357,0,0,1-.436,2.137A6.606,6.606,0,0,1,70,68.386a6.329,6.329,0,0,1-3.211.924,6.766,6.766,0,0,1-6.618-5.337,5.916,5.916,0,0,1-.168-1.149c0-.16-.062-.224-.227-.218-.261.01-.523,0-.785,0a1.194,1.194,0,0,1-1.214-1.073,9.441,9.441,0,0,1-.033-1.271c-.007-.632-.01-1.264,0-1.9,0-.19-.045-.239-.243-.233-.586.018-1.173,0-1.759.011-.178,0-.236-.053-.233-.232.009-.6.011-1.191,0-1.787,0-.187.043-.247.237-.243.586.013,1.173,0,1.759.008.17,0,.221-.036.18-.213q-.212-.908-.4-1.821c-.038-.182-.128-.213-.3-.212-1.145.012-2.291.007-3.437.015-.174,0-.237-.05-.234-.232.01-.577.007-1.155,0-1.732,0-.19.041-.266.256-.262.812.016,1.624.01,2.436.007.085,0,.2.039.249-.054s-.054-.16-.1-.234a11.215,11.215,0,0,0-2.592-3.2c-.539-.45-1.106-.87-1.68-1.276a25.642,25.642,0,0,1-7.241-7.795,24.605,24.605,0,0,1-2.934-7.261,24.094,24.094,0,0,1-.661-4.514c-.023-.658-.037-1.316-.048-1.975,0-.176.046-.234.225-.226.6.027,1.208.049,1.812.056.222,0,.218.131.216.283-.008.858,0,1.714.067,2.57A23.208,23.208,0,0,0,53.14,44.885a15.752,15.752,0,0,1,4.189,4.026A11.406,11.406,0,0,1,58.5,50.979a.683.683,0,0,0,.748.479c2.49-.023,4.98-.011,7.47-.011v0M66.674,62.6H62.8c-.6,0-.6,0-.531.6a4.446,4.446,0,0,0,6.083,3.565,4.217,4.217,0,0,0,2.758-3.906c-.019-.212-.066-.265-.273-.264-1.389.009-2.778,0-4.168,0m.031-8.956v.007q-3.462,0-6.924,0c-.215,0-.275.045-.231.277a7.177,7.177,0,0,1,.3,1.643c-.011.248.091.321.336.32q6.532-.01,13.064,0c.209,0,.28-.061.3-.266a9.085,9.085,0,0,1,.271-1.759c.058-.2-.013-.222-.187-.221q-3.462.007-6.924,0m.017,4.486v0c-2.164,0-4.328,0-6.493,0-.187,0-.246.035-.241.236.016.6.008,1.208,0,1.813,0,.154.02.22.2.22q6.519-.007,13.039,0c.149,0,.184-.047.183-.185q-.008-.961,0-1.921c0-.128-.034-.169-.17-.169q-3.26.007-6.519,0" transform="translate(-32.1 0)" fill="#345359"/>
            <path id="Trazado_609765" data-name="Trazado 609765" d="M81.716,45.947q0,7.647,0,15.294a4.69,4.69,0,0,1-1.666,3.778,4.4,4.4,0,0,1-6.608-1.19c-.139-.25-.248-.3-.533-.216a4.417,4.417,0,0,1-5.6-3.457,4.686,4.686,0,0,1,.082-1.954c.07-.275.009-.4-.266-.531a5.449,5.449,0,0,1-3.11-3.755,4.974,4.974,0,0,1,.463-3.686c.086-.166-.024-.158-.1-.194a4.405,4.405,0,0,1-.392-7.986c.166-.087.391-.149.473-.29.1-.167-.123-.33-.194-.5a5.489,5.489,0,0,1,2.082-6.621,4.15,4.15,0,0,1,.9-.49c.185-.067.216-.154.169-.342a4.479,4.479,0,0,1,3.562-5.682,3.417,3.417,0,0,1,2.009.194c.229.086.319.011.421-.174a4.3,4.3,0,0,1,3.226-2.259,4.426,4.426,0,0,1,4.388,2.08,4.9,4.9,0,0,1,.7,2.631q.011,7.5,0,15v.352Zm-2.257.019h-.007c0-1.453-.007-2.905,0-4.358.02-3.717-.048-7.434.039-11.151a2.869,2.869,0,0,0-.053-.618,2.3,2.3,0,0,0-1.93-1.8,2.41,2.41,0,0,0-2.238,1.19.744.744,0,0,0,.068.9,4.064,4.064,0,0,1,.75,2.222c.009.158-.049.21-.2.208-.541-.009-1.082-.006-1.623-.02-.371-.01-.37-.019-.4-.4a1.077,1.077,0,0,0-.036-.213,2.276,2.276,0,0,0-3.638-1.122,2.31,2.31,0,0,0-.737,1.885,2.217,2.217,0,0,0,1.985,2.1c.168.023.21.066.208.223-.007.577-.008,1.155,0,1.732,0,.182-.058.23-.234.221a4.3,4.3,0,0,1-2.387-.906.472.472,0,0,0-.446-.1A3.355,3.355,0,0,0,66.4,40.726a3.121,3.121,0,0,0,2.762,1.835,3.212,3.212,0,0,0,3.1-1.535,2.6,2.6,0,0,0,.491-1.548c-.012-.219.07-.246.236-.246.577,0,1.155.01,1.732,0,.205,0,.234.079.226.258a5.575,5.575,0,0,1-5.537,5.3,5.071,5.071,0,0,1-3.026-.934.616.616,0,0,0-.415-.167,2.277,2.277,0,0,0-2.116,1.758,2.305,2.305,0,0,0,2.1,2.781.423.423,0,0,0,.3-.106,5.543,5.543,0,0,1,8.7,4.272c.012.207-.048.267-.253.261-.478-.014-.956,0-1.434-.005-.159,0-.347.046-.469-.063-.1-.09,0-.259-.033-.39-.007-.026-.008-.053-.013-.08a3.377,3.377,0,0,0-3.821-2.8,3.343,3.343,0,0,0-2.859,3.714,3.273,3.273,0,0,0,2.085,2.746.9.9,0,0,0,1.135-.15.986.986,0,0,1,.23-.14,4.712,4.712,0,0,1,1.9-.57c.194-.024.233.013.231.191-.007.568-.017,1.137.005,1.705.01.245-.059.328-.3.35a2.223,2.223,0,0,0-1.587,3.419,2.228,2.228,0,0,0,4.1-1.016c.011-.2.13-.185.255-.185q.825,0,1.651,0c.33,0,.321.006.3.336a4.164,4.164,0,0,1-.85,2.215.465.465,0,0,0-.055.5,2.151,2.151,0,0,0,2.367,1.347,2.065,2.065,0,0,0,1.9-1.767,9.237,9.237,0,0,0,.026-1.243q0-7.4,0-14.806" transform="translate(-48.226 -20.228)" fill="#345359"/>
            <path id="Trazado_609766" data-name="Trazado 609766" d="M164.473,45.953c0-5.035.007-10.071-.005-15.106a4.947,4.947,0,0,1,.986-3.24,4.374,4.374,0,0,1,7.359.614.257.257,0,0,0,.387.134c2.274-.935,5.031.757,5.612,3.048a4.514,4.514,0,0,1-.023,2.458c-.059.194-.027.251.154.331a5.348,5.348,0,0,1,3.173,3.638,5.09,5.09,0,0,1-.346,3.763c-.12.23.034.29.18.36a4.471,4.471,0,0,1,1.76,1.441A4.4,4.4,0,0,1,181.946,50c-.217.1-.262.172-.15.4a5.254,5.254,0,0,1,.294,3.849,5.312,5.312,0,0,1-2.192,3,3.96,3.96,0,0,1-.825.457c-.34.13-.342.157-.255.522a4.427,4.427,0,0,1-2.19,5.064,4.314,4.314,0,0,1-3.529.289c-.127-.041-.185-.042-.25.088a4.417,4.417,0,0,1-8.072-.535,5.131,5.131,0,0,1-.3-1.936q-.008-7.621,0-15.241m2.205,0q0,7.838,0,15.675a2.207,2.207,0,0,0,2.465,2.192,2.214,2.214,0,0,0,1.9-1.452.375.375,0,0,0-.05-.359,4.48,4.48,0,0,1-.887-2.343c-.024-.22.039-.265.239-.261.478.011.956,0,1.434,0s.476,0,.56.463A2.2,2.2,0,0,0,174.6,61.62a2.062,2.062,0,0,0,1.921-1.184,2.121,2.121,0,0,0-.03-2.146,2.03,2.03,0,0,0-1.69-1.107c-.134-.008-.268-.013-.266-.22.006-.623,0-1.245-.007-1.868,0-.121.04-.183.178-.166a4.734,4.734,0,0,1,2.425.9.5.5,0,0,0,.479.1,4.332,4.332,0,0,0,.537-.179,3.369,3.369,0,0,0-2.382-6.289,3.241,3.241,0,0,0-2.321,2.947c-.01.2-.078.271-.271.27-.559,0-1.119-.013-1.678.012-.263.012-.291-.088-.272-.309a5.426,5.426,0,0,1,2.95-4.584,5.168,5.168,0,0,1,5.558.236,1.064,1.064,0,0,0,1.038.109,2.809,2.809,0,0,0,.6-.3,2.144,2.144,0,0,0,.97-1.968,2.033,2.033,0,0,0-1.192-1.886,1.367,1.367,0,0,0-1.45-.055,5.19,5.19,0,0,1-5.563.2,5.392,5.392,0,0,1-2.915-4.609c-.015-.2.034-.267.245-.261.568.015,1.137.01,1.7,0,.178,0,.27.04.263.237a2.785,2.785,0,0,0,.487,1.577,3.379,3.379,0,0,0,4.382,1.173,3.383,3.383,0,0,0-.77-6.277.419.419,0,0,0-.389.125,4.416,4.416,0,0,1-2.362.9c-.194.013-.251-.05-.247-.24q.017-.839,0-1.678c0-.191.046-.272.256-.279a1.722,1.722,0,0,0,.491-.137,2.24,2.24,0,0,0-.515-4.341,2.177,2.177,0,0,0-2.456,2.022c-.008.185-.058.24-.254.233-.586-.019-1.172-.018-1.758,0-.192,0-.231-.054-.212-.23a4.5,4.5,0,0,1,.886-2.4.338.338,0,0,0,.067-.328,2.226,2.226,0,0,0-2.415-1.539,2.277,2.277,0,0,0-1.952,2.335q0,7.77,0,15.54" transform="translate(-128.753 -20.258)" fill="#345359"/>
            <path id="Trazado_609767" data-name="Trazado 609767" d="M13.341,58.362a1.037,1.037,0,0,1-.962,1.077,5.067,5.067,0,0,0-2.348.632,4.21,4.21,0,0,0-2.2,3.477,3.614,3.614,0,0,1-.138.714,1.058,1.058,0,0,1-1.021.782,1.113,1.113,0,0,1-1.035-.767,2.679,2.679,0,0,1-.176-.843,3.936,3.936,0,0,0-1.575-2.958,4.383,4.383,0,0,0-2.575-.994,1.365,1.365,0,0,1-1.029-.388,1.075,1.075,0,0,1,.554-1.772c.245-.053.5-.058.75-.093A4.4,4.4,0,0,0,5.3,54.259,6.257,6.257,0,0,0,5.5,53.034a4.178,4.178,0,0,1,.131-.578,1.07,1.07,0,0,1,1.044-.75,1.049,1.049,0,0,1,1,.728A5.019,5.019,0,0,1,7.852,53.5a4.32,4.32,0,0,0,2.867,3.5,4.484,4.484,0,0,0,1.532.275,1.14,1.14,0,0,1,1.09,1.095m-4.822.028c0-.045-.015-.084-.144-.185a7.359,7.359,0,0,1-1.548-1.577c-.124-.177-.193-.183-.323,0a6.647,6.647,0,0,1-1.538,1.549c-.214.151-.174.246,0,.381A7.771,7.771,0,0,1,6.5,60.107a.754.754,0,0,0,.052.062c.083.091.15.106.235-.011a8.022,8.022,0,0,1,1.628-1.651c.041-.032.1-.055.1-.118" transform="translate(0 -40.478)" fill="#345359"/>
            <path id="Trazado_609768" data-name="Trazado 609768" d="M30.973,6.9a1.044,1.044,0,0,1,.954-1.085,6.244,6.244,0,0,0,1.64-.3,4.436,4.436,0,0,0,2.69-2.741,5.237,5.237,0,0,0,.25-1.458A1.056,1.056,0,0,1,37.277.288a1.109,1.109,0,0,1,1.242.43,1.456,1.456,0,0,1,.2.828,4.476,4.476,0,0,0,1.6,3.2,4.4,4.4,0,0,0,2.509,1.031c.171.014.342.025.512.05a1.111,1.111,0,0,1,.938,1.066,1.042,1.042,0,0,1-.9,1.051,10.2,10.2,0,0,0-1.512.28A4.366,4.366,0,0,0,38.945,11.1a7.912,7.912,0,0,0-.259,1.594,1.139,1.139,0,0,1-1.034.911,1.208,1.208,0,0,1-1.093-.823,2.638,2.638,0,0,1-.053-.455,4.443,4.443,0,0,0-1.815-3.446,4.625,4.625,0,0,0-2.538-.894c-.766-.055-1.177-.424-1.181-1.093m8.513,0c-.012-.078-.084-.109-.139-.151A7.131,7.131,0,0,1,37.813,5.2c-.142-.2-.242-.185-.382,0a6.941,6.941,0,0,1-1.375,1.4c-.395.29-.389.3,0,.606.057.045.111.092.17.134a7.535,7.535,0,0,1,1.224,1.287c.106.122.212.18.325.018a7.145,7.145,0,0,1,1.61-1.621c.042-.031.094-.058.1-.125" transform="translate(-24.247 -0.187)" fill="#345359"/>
          </g>
        </g>
        <path id="Trazado_609769" data-name="Trazado 609769" d="M293.864,673.156A86.983,86.983,0,0,1,210.148,562.8l2.95.826a83.823,83.823,0,1,0,3.5-10.023l-2.822-1.194a86.924,86.924,0,1,1,80.085,120.746" transform="translate(176.726 2543.619) rotate(-112)" fill="#345359"/>
        <path id="Trazado_609770" data-name="Trazado 609770" d="M359.364,593.378A61.067,61.067,0,1,1,298.3,532.311a61.068,61.068,0,0,1,61.068,61.067" transform="translate(311.05 1459.547)" fill="#ffe7af"/>
        <path id="Trazado_609771" data-name="Trazado 609771" d="M348.371,596.325A47.128,47.128,0,1,1,301.243,549.2a47.129,47.129,0,0,1,47.128,47.128" transform="translate(307.103 1456.601)" fill="#fff"/>
        <g id="Rectángulo_377839" data-name="Rectángulo 377839" transform="translate(537.945 2120)" fill="#fff8e7" stroke="#345359" stroke-width="3">
          <rect width="140" height="45" rx="14" stroke="none"/>
          <rect x="1.5" y="1.5" width="137" height="42" rx="12.5" fill="none"/>
        </g>
        <text id="Estratégico" transform="translate(567.945 2149)" fill="#12263f" font-size="16" font-family="Roboto-Regular, Roboto"><tspan x="0" y="0">Estratégico</tspan></text>
        <g id="Grupo_1072380" data-name="Grupo 1072380" transform="translate(575.945 2020)">
          <g id="Grupo_1072379" data-name="Grupo 1072379" clip-path="url(#clip-path-4)">
            <path id="Trazado_609772" data-name="Trazado 609772" d="M23.946,98.281q-10.661,0-21.323,0A2.543,2.543,0,0,1,.38,97.059a2.559,2.559,0,0,1-.357-1.423c-.013-1.05-.06-2.1.03-3.15a2.452,2.452,0,0,1,2.175-2.228c.922-.1,1.849-.029,2.773-.049.261-.006.522-.012.782,0,.183.01.221-.058.219-.231-.014-1.034-.014-2.068-.021-3.1a2.107,2.107,0,0,1,1.174-1.993,1.858,1.858,0,0,1,.9-.216c.614-.006,1.228-.014,1.842,0,.231,0,.313-.02.268-.3a14.568,14.568,0,0,1,.059-4.94,16.131,16.131,0,0,1,4.1-8.2c.971-1.06,2.031-2.037,2.971-3.126a18.074,18.074,0,0,0,1.927-2.488,4.171,4.171,0,0,0,.59-1.647,3.686,3.686,0,0,0-.224-1.507c-.044-.149-.124-.1-.2-.034A4.065,4.065,0,0,1,17,63.335a10.017,10.017,0,0,1-2.158-.134,24.668,24.668,0,0,0-2.459-.222c-.289,0-.31.027-.233.311.066.242.154.479.231.718.052.159.114.316.151.479a.892.892,0,0,1-.452,1.094c-.485.3-1.017.517-1.526.775-1.049.531-2.116,1.024-3.156,1.57a1.034,1.034,0,0,1-1.532-.493Q4.325,64.56,2.778,61.689c-.151-.281-.3-.561-.455-.842a.9.9,0,0,1,.16-1.214c.378-.382.785-.736,1.176-1.106q3.6-3.409,7.194-6.82,1.986-1.883,3.97-3.768c.277-.263.276-.264.035-.565-.741-.925-1.486-1.847-2.221-2.777-.607-.766-.477-1.339.41-1.763a5.416,5.416,0,0,1,4.165-.237,11.056,11.056,0,0,1,3.316,1.824,1.259,1.259,0,0,0,.892.32,12.947,12.947,0,0,1,4.279.535,14.789,14.789,0,0,1,5.344,2.788,22.3,22.3,0,0,1,5.8,7.409,33.388,33.388,0,0,1,2.73,7.449,29.743,29.743,0,0,1,.945,5.908,27.935,27.935,0,0,1-.092,4.81,13.05,13.05,0,0,1-.562,2.553.974.974,0,0,1-.865.7,4.463,4.463,0,0,0-3.68,2.633,3.409,3.409,0,0,0,.087,3.224,5.92,5.92,0,0,0,1.584,1.809.524.524,0,0,0,.351.109c.791,0,1.582.027,2.371-.01a2.132,2.132,0,0,1,2.206,2q.049,1.639,0,3.278c-.007.231.051.282.272.279.967-.011,1.934-.01,2.9,0a3.017,3.017,0,0,1,1.327.251,2.382,2.382,0,0,1,1.444,2.09,30.1,30.1,0,0,1,0,3.479,2.451,2.451,0,0,1-2.013,2.2,3.962,3.962,0,0,1-.677.059q-10.611,0-21.221,0m-.708-13.613H33.432c.218,0,.437,0,.656,0,.178,0,.19-.062.086-.188-.048-.058-.088-.123-.132-.185a5.531,5.531,0,0,1-1.049-3.306,5.79,5.79,0,0,1,1.662-3.947,6.627,6.627,0,0,1,3.281-1.969.319.319,0,0,0,.265-.28,16.481,16.481,0,0,0,.343-3.908,31.3,31.3,0,0,0-.267-4.221,35.815,35.815,0,0,0-.9-4.359,30.824,30.824,0,0,0-2-5.369,21.455,21.455,0,0,0-5.012-6.881,12.583,12.583,0,0,0-9.319-3.294,1.579,1.579,0,0,1-1.166-.367A11.4,11.4,0,0,0,17.848,45a4.858,4.858,0,0,0-2.591-.7c-.087.006-.213-.041-.252.051s.075.158.129.227q.958,1.2,1.923,2.4a1.059,1.059,0,0,1-.1,1.676q-2.609,2.454-5.2,4.93C9.38,55.85,6.981,58.1,4.584,60.349a.327.327,0,0,0-.063.474C5.352,62.34,6.174,63.862,7,65.381c.232.427.232.424.657.215.821-.4,1.642-.809,2.469-1.2.181-.086.241-.174.17-.365-.082-.22-.119-.458-.217-.67a1.259,1.259,0,0,1,.255-1.463,2.517,2.517,0,0,1,.483-.439,3.329,3.329,0,0,1,2.293-.482c1.053.1,2.1.27,3.157.332a2.23,2.23,0,0,0,2.469-1.336.907.907,0,0,1,.57-.538.981.981,0,0,1,1.227.528c.334.64.677,1.277.965,1.938a5.029,5.029,0,0,1,.476,1.686,4.563,4.563,0,0,1-.749,2.622,21.386,21.386,0,0,1-3.013,3.808c-.823.876-1.682,1.72-2.494,2.606a13.757,13.757,0,0,0-3.526,7.04,13.045,13.045,0,0,0-.028,4.712c.043.228.116.3.35.3q5.362-.012,10.724,0m.718,11.594H45.274c.447,0,.6-.14.6-.581.007-.992,0-1.984.006-2.976a.427.427,0,0,0-.379-.457,1.5,1.5,0,0,0-.326-.019H2.669c-.52,0-.645.114-.648.631,0,.916,0,1.832.005,2.749a2.176,2.176,0,0,0,.034.3.4.4,0,0,0,.4.349,2.763,2.763,0,0,0,.328.006H23.956m0-6.054q7.82,0,15.64,0c.361,0,.328.063.325-.341-.007-.966-.026-1.933-.015-2.9,0-.241-.058-.295-.289-.295q-5.549.005-11.1,0-10.115,0-20.231,0c-.249,0-.327.052-.323.316.017.966,0,1.933,0,2.9,0,.328,0,.328.322.328H23.956" transform="translate(0 -33.736)" fill="#345359"/>
            <path id="Trazado_609773" data-name="Trazado 609773" d="M214.111,62.571q-.8.993-1.61,1.988c-.17.209-.337.419-.516.62a.993.993,0,0,1-1.3.16.918.918,0,0,1-.216-1.371c.847-1.076,1.717-2.135,2.577-3.2.411-.51.844-1.006,1.226-1.537a1.025,1.025,0,0,1,1.764,0c1.038,1.312,2.1,2.6,3.151,3.9.206.255.417.506.619.764a.992.992,0,0,1-.112,1.381.978.978,0,0,1-1.395-.124c-.624-.749-1.231-1.512-1.845-2.269-.088-.109-.181-.214-.313-.369V63.8q0,4.7,0,9.407c0,.627.007.625.639.624l8.074,0c.067,0,.135,0,.2,0,.805.021,1.154.382,1.154,1.193q0,5.888,0,11.777a1.1,1.1,0,0,1-.482.994.956.956,0,0,1-1.442-.476,1.812,1.812,0,0,1-.1-.618q0-5.271,0-10.542c0-.35.068-.332-.341-.332q-4.175,0-8.351,0a1.651,1.651,0,0,1-.827-.176.849.849,0,0,1-.473-.7c-.02-.217-.036-.436-.036-.653q0-5.787.006-11.575a.143.143,0,0,0-.061-.152" transform="translate(-167.716 -46.847)" fill="#345359"/>
            <path id="Trazado_609774" data-name="Trazado 609774" d="M272.772,227.031a3.893,3.893,0,0,1-3.84,3.966,3.887,3.887,0,0,1-.3-7.762,3.87,3.87,0,0,1,4.144,3.8m-3.86-1.775a1.884,1.884,0,0,0-1.91,1.867,2.024,2.024,0,0,0,1.935,1.89,1.97,1.97,0,0,0,1.875-1.913,1.84,1.84,0,0,0-1.9-1.845" transform="translate(-211.411 -178.065)" fill="#345359"/>
            <path id="Trazado_609775" data-name="Trazado 609775" d="M223.032,3.892a3.877,3.877,0,1,1-7.741-.331,3.877,3.877,0,0,1,7.741.331m-5.747-.059A1.856,1.856,0,0,0,219.146,5.8a1.878,1.878,0,0,0,1.9-1.776,1.875,1.875,0,0,0-1.792-2.026,1.848,1.848,0,0,0-1.972,1.838" transform="translate(-171.725 0)" fill="#345359"/>
            <path id="Trazado_609776" data-name="Trazado 609776" d="M152.292,23.574a1.034,1.034,0,0,1-.744-.381c-.389-.371-.766-.755-1.148-1.134-.179-.177-.362-.351-.533-.536-.109-.118-.191-.128-.31-.008-.526.531-1.055,1.06-1.593,1.579a1.31,1.31,0,0,1-.8.477,1,1,0,0,1-.981-1.364,1.479,1.479,0,0,1,.315-.451c.562-.555,1.117-1.117,1.687-1.664.143-.137.047-.2-.035-.282q-.8-.806-1.6-1.61a1.786,1.786,0,0,1-.3-.371.962.962,0,0,1,.158-1.218.935.935,0,0,1,1.265-.048,3.225,3.225,0,0,1,.341.3c.525.521,1.051,1.04,1.567,1.57.128.132.187.069.28-.026.56-.569,1.119-1.139,1.69-1.7a.985.985,0,0,1,1.047-.325.966.966,0,0,1,.47,1.591c-.494.492-.976,1-1.464,1.495-.106.108-.209.219-.321.321-.135.123-.133.222,0,.353.5.486.991.981,1.484,1.475.119.119.234.242.34.371a.875.875,0,0,1,.129.991.985.985,0,0,1-.946.593" transform="translate(-116.543 -13.031)" fill="#345359"/>
            <path id="Trazado_609777" data-name="Trazado 609777" d="M290.669,67.985c-.013.475-.126.8-.5.962a.975.975,0,0,1-1.147-.159c-.6-.58-1.184-1.169-1.77-1.76-.127-.128-.2-.163-.354-.007-.589.611-1.194,1.206-1.8,1.8a.976.976,0,0,1-1.169.105.988.988,0,0,1-.438-1.091,1.125,1.125,0,0,1,.315-.478c.576-.577,1.148-1.158,1.733-1.725.142-.138.122-.206-.01-.334-.595-.582-1.185-1.169-1.762-1.768a.911.911,0,0,1-.089-1.294.948.948,0,0,1,1.437-.118c.587.566,1.157,1.149,1.734,1.724.228.227.232.232.471,0,.562-.555,1.117-1.117,1.68-1.671a.983.983,0,0,1,1.379-.056,1.024,1.024,0,0,1,.015,1.412c-.587.613-1.192,1.208-1.8,1.8-.113.111-.114.164,0,.274.577.563,1.146,1.136,1.716,1.706a.955.955,0,0,1,.355.68" transform="translate(-226.107 -49.33)" fill="#345359"/>
            <path id="Trazado_609778" data-name="Trazado 609778" d="M125.07,95.872a22.1,22.1,0,0,0-.3-3.336,24.051,24.051,0,0,0-3.377-9.9A15.824,15.824,0,0,0,116.62,77.6a14.273,14.273,0,0,0-1.548-.841.956.956,0,0,1-.421-1.385.92.92,0,0,1,1.032-.444,6.053,6.053,0,0,1,1.558.756,16.809,16.809,0,0,1,4.821,4.456,23.812,23.812,0,0,1,3.751,7.7,32.1,32.1,0,0,1,.985,4.777,34.588,34.588,0,0,1,.266,4.678.989.989,0,0,1-.674.964,1,1,0,0,1-1.129-.338,1.138,1.138,0,0,1-.188-.718c-.01-.445,0-.891,0-1.337" transform="translate(-91.341 -59.751)" fill="#345359"/>
          </g>
        </g>
        <path id="Trazado_609779" data-name="Trazado 609779" d="M869.681,329.8a86.816,86.816,0,1,1,19.75-2.254l-.694-2.984a83.925,83.925,0,1,0-19.056,2.175,85.539,85.539,0,0,0,8.573-.432l.311,3.047a88.112,88.112,0,0,1-8.884.447" transform="translate(-87.975 1610.783)" fill="#345359"/>
        <path id="Trazado_609780" data-name="Trazado 609780" d="M938.308,246.815a61.067,61.067,0,1,1-61.068-61.066,61.068,61.068,0,0,1,61.068,61.066" transform="translate(-93.804 1605.586)" fill="#e6d09d"/>
        <path id="Trazado_609781" data-name="Trazado 609781" d="M927.315,249.762a47.128,47.128,0,1,1-47.128-47.128,47.128,47.128,0,0,1,47.128,47.128" transform="translate(-96.751 1602.639)" fill="#fff"/>
        <g id="Rectángulo_377841" data-name="Rectángulo 377841" transform="translate(710.341 1921.631)" fill="#fff8e7" stroke="#345359" stroke-width="3">
          <rect width="140" height="45" rx="14" stroke="none"/>
          <rect x="1.5" y="1.5" width="137" height="42" rx="12.5" fill="none"/>
        </g>
        <text id="Creativo" transform="translate(750.841 1950)" fill="#12263f" font-size="16" font-family="Roboto-Regular, Roboto"><tspan x="0" y="0">Creativo</tspan></text>
        <g id="Grupo_1072381" data-name="Grupo 1072381" transform="translate(750.997 1822)" clip-path="url(#clip-path-5)">
          <path id="Trazado_609782" data-name="Trazado 609782" d="M64.682,6.233C66.575,4.315,68.35,2.5,70.139.708c.94-.944,1.388-.941,2.319-.014q3.04,3.028,6.068,6.068c1.077,1.083.864,1.882-.587,2.266A4.343,4.343,0,0,0,74.6,13.54a4.293,4.293,0,0,0,8.48.573c.365-1.377,1.186-1.6,2.211-.586q3.121,3.1,6.219,6.22c.773.778.778,1.308-.005,2.093-1.84,1.841-3.7,3.663-5.645,5.584a6.542,6.542,0,0,1,4.648,5.03,6.284,6.284,0,0,1-3.91,7.18,1.123,1.123,0,0,0-.857,1.3c.05,1.644.032,3.29.012,4.935a3.236,3.236,0,0,1-3.659,3.394,7.885,7.885,0,0,1-4.667-1.951,2.894,2.894,0,0,0,.482,2.075,10.256,10.256,0,0,1-.176,10.793,4.574,4.574,0,0,0-.565,2.672c.042.765-.191,1.415-1.068,1.42s-1.062-.64-1.092-1.407a6.252,6.252,0,0,1,.79-3.6,8.309,8.309,0,0,0,.179-8.936,8.659,8.659,0,0,1-.962-4.349q.013-6.33,0-12.661a3.213,3.213,0,0,0-5.7-2.166,3.613,3.613,0,0,0-.731,2.406q.016,6.92,0,13.841a5.134,5.134,0,0,1-.032.963,1.057,1.057,0,0,1-2.088,0,4.366,4.366,0,0,1-.03-.856c0-2.933-.115-5.872.044-8.8.088-1.609-.784-2.372-1.851-3.214a6.458,6.458,0,0,1-6.015,4.614c-.512.029-.653.316-.789.708-.843,2.425-1.711,4.842-2.535,7.274a3.13,3.13,0,0,0,.147,2.3c1.339,3.114,2.635,6.246,3.99,9.354A7.406,7.406,0,0,1,60,63.095c-.03.71-.357,1.2-1.095,1.183a1.018,1.018,0,0,1-1.044-1.222,6.851,6.851,0,0,0-.781-3.291c-1.228-2.812-2.4-5.649-3.6-8.471a5.493,5.493,0,0,1-.125-4.169c.8-2.25,1.561-4.518,2.369-6.766.176-.489.135-.716-.361-1a6.151,6.151,0,0,1-3.331-6.329,6.214,6.214,0,0,1,4.261-5.418c.09-.035.172-.089.458-.24-1.72-1.68-3.385-3.286-5.028-4.915-1.679-1.664-1.673-1.677.036-3.376,1.618-1.609,3.246-3.208,4.895-4.837-3.834-2.17-5.273-4.642-4.567-7.7a6.517,6.517,0,0,1,5.8-5.076c2.958-.255,5.452,1.446,6.8,4.77m12.61,26.715a4.5,4.5,0,0,0,.415-.346c.428-.456.875-.912,1.569-.639.772.3.66,1,.656,1.646a4.281,4.281,0,1,0,4.091-4.168c-.632.015-1.237.064-1.555-.632-.329-.72.171-1.133.6-1.564,1.943-1.951,3.893-3.9,5.828-5.855.262-.265.769-.479.227-1.01C87.674,18.96,86.265,17.5,84.793,16c-.193.27-.318.437-.435.609a6.36,6.36,0,0,1-7.67,2.633,6.171,6.171,0,0,1-4.2-5.358,6.014,6.014,0,0,1,2.8-5.983c.746-.495.685-.729.1-1.272C74.213,5.538,73.07,4.4,71.977,3.222c-.524-.565-.824-.515-1.337.014-1.942,2-3.933,3.956-5.908,5.926-.388.387-.793.753-1.409.484-.642-.281-.72-.816-.668-1.431a3.971,3.971,0,0,0-.2-1.688,4.279,4.279,0,0,0-5.056-2.766,4.208,4.208,0,0,0-3.231,4.657,4.272,4.272,0,0,0,4.258,3.749c.635,0,1.351-.173,1.692.582.358.791-.218,1.256-.7,1.739-1.9,1.893-3.781,3.806-5.7,5.676-.484.471-.535.745-.019,1.246,2.027,1.966,4.006,3.982,6.005,5.978.508.507.765,1.052.249,1.7-.368.458-.885.351-1.389.341a4.287,4.287,0,1,0,4.1,4.038c-.016-.605-.025-1.189.6-1.476.668-.31,1.16.064,1.581.556s.868,1.008,1.442,1.674c.667-4.366,2.232-6.218,5.157-6.4,2.909-.184,4.82,1.473,5.864,5.134m.671,2.57a1.315,1.315,0,0,0-.8,1.22c.028,1.751-.036,3.5.028,5.254a5.342,5.342,0,0,0,4.764,5.1c1.183.14,1.637-.258,1.647-1.484.012-1.5-.049-3.005.024-4.5.038-.768-.216-1.065-.948-1.177a5.289,5.289,0,0,1-2.051-.879,7.191,7.191,0,0,1-2.665-3.535" transform="translate(-39.632 0)" fill="#345359"/>
          <path id="Trazado_609783" data-name="Trazado 609783" d="M4.369,94.541c.926,0,1.852.009,2.778,0,.773-.009,1.391.234,1.38,1.1-.01.8-.591,1.056-1.324,1.053q-2.938-.009-5.876,0C.594,96.7.012,96.446,0,95.644c-.012-.87.6-1.114,1.377-1.106,1,.011,1.994,0,2.992,0" transform="translate(0 -74.244)" fill="#345359"/>
          <path id="Trazado_609784" data-name="Trazado 609784" d="M264.193,96.695c-1,0-1.994,0-2.992,0-.7,0-1.2-.316-1.217-1.052s.466-1.087,1.173-1.09q3.1-.015,6.2,0c.709,0,1.184.366,1.164,1.1s-.527,1.041-1.227,1.043c-1.033,0-2.066,0-3.1,0" transform="translate(-204.176 -74.248)" fill="#345359"/>
          <path id="Trazado_609785" data-name="Trazado 609785" d="M260.879,157.4a4.816,4.816,0,0,1-.542-.235q-2.6-1.486-5.186-2.984c-.642-.371-.974-.9-.563-1.592a1.042,1.042,0,0,1,1.582-.3q2.641,1.515,5.277,3.04a1.067,1.067,0,0,1,.631,1.319,1.051,1.051,0,0,1-1.2.748" transform="translate(-199.795 -119.422)" fill="#345359"/>
          <path id="Trazado_609786" data-name="Trazado 609786" d="M10.615,22.226c.145.067.377.154.59.276,1.666.953,3.326,1.915,4.992,2.867.666.381,1.092.9.649,1.648-.407.688-1.035.618-1.672.247-1.72-1-3.45-1.985-5.172-2.984a1.076,1.076,0,0,1,.613-2.054" transform="translate(-7.315 -17.45)" fill="#345359"/>
          <path id="Trazado_609787" data-name="Trazado 609787" d="M262.2,23.22a1.178,1.178,0,0,1-.588.963c-1.813,1.053-3.624,2.109-5.45,3.141a1.071,1.071,0,1,1-1.053-1.859c1.808-1.063,3.615-2.128,5.454-3.134a1.071,1.071,0,0,1,1.636.889" transform="translate(-199.846 -17.417)" fill="#345359"/>
          <path id="Trazado_609788" data-name="Trazado 609788" d="M15.814,152.142a1.008,1.008,0,0,1,1.034.646.936.936,0,0,1-.336,1.236c-1.925,1.148-3.863,2.275-5.826,3.358a.942.942,0,0,1-1.3-.422.9.9,0,0,1,.226-1.331c1.948-1.177,3.933-2.293,5.908-3.426a.916.916,0,0,1,.289-.061" transform="translate(-7.226 -119.482)" fill="#345359"/>
        </g>
        <path id="Trazado_609789" data-name="Trazado 609789" d="M659.479,673.156a86.957,86.957,0,0,1-65.346-29.607l2.3-2.02a83.66,83.66,0,1,0-6.488-8.407l-2.538,1.714a86.92,86.92,0,1,1,72.068,38.32" transform="translate(-101.02 2057.889) rotate(-42)" fill="#345359"/>
        <path id="Trazado_609790" data-name="Trazado 609790" d="M726.029,590.965A61.067,61.067,0,1,1,664.961,529.9a61.068,61.068,0,0,1,61.068,61.067" transform="translate(116.395 1460.697)" fill="#76becc"/>
        <path id="Trazado_609791" data-name="Trazado 609791" d="M715.036,593.912a47.128,47.128,0,1,1-47.129-47.128,47.129,47.129,0,0,1,47.129,47.128" transform="translate(113.448 1457.75)" fill="#fff"/>
        <g id="Rectángulo_377843" data-name="Rectángulo 377843" transform="translate(710.341 2119.688)" fill="#fff8e7" stroke="#345359" stroke-width="3">
          <rect width="140" height="45" rx="14" stroke="none"/>
          <rect x="1.5" y="1.5" width="137" height="42" rx="12.5" fill="none"/>
        </g>
        <text id="Gestor" transform="translate(757.341 2148.688)" fill="#12263f" font-size="16" font-family="Roboto-Regular, Roboto"><tspan x="0" y="0">Gestor</tspan></text>
        <g id="Grupo_1072383" data-name="Grupo 1072383" transform="translate(750.224 2021.347)">
          <g id="Grupo_1072382" data-name="Grupo 1072382" clip-path="url(#clip-path-6)">
            <path id="Trazado_609792" data-name="Trazado 609792" d="M1.924,30.643c0,1.052-.012,2.1,0,3.156.016,1.114.455,1.558,1.58,1.571,1.594.018,3.189.026,4.782,0A1.207,1.207,0,0,1,9.649,36.4a19.794,19.794,0,0,0,2.078,5.008,1.167,1.167,0,0,1-.232,1.614Q9.788,44.7,8.114,46.407c-.85.867-.85,1.42,0,2.283,1.388,1.407,2.791,2.8,4.187,4.2.18.18.37.354.534.548a.91.91,0,0,1-.041,1.365.87.87,0,0,1-1.293-.029C9.738,53.018,7.936,51.3,6.263,49.464a2.992,2.992,0,0,1,.25-4.163c.873-.929,1.773-1.835,2.706-2.7a.936.936,0,0,0,.252-1.374,13.75,13.75,0,0,1-1.345-3.256.8.8,0,0,0-.945-.683c-1.243.032-2.487.021-3.73.007A3.216,3.216,0,0,1,.008,33.813q-.015-3.2,0-6.409a3.214,3.214,0,0,1,3.461-3.461c1.243-.013,2.487-.015,3.73,0,.465.007.754-.08.9-.605a16.72,16.72,0,0,1,1.459-3.519.7.7,0,0,0-.154-.991c-.922-.881-1.816-1.79-2.708-2.7A3.176,3.176,0,0,1,6.7,11.245Q8.95,8.96,11.235,6.714a3.192,3.192,0,0,1,4.954.045c.885.873,1.773,1.744,2.633,2.641a.7.7,0,0,0,.99.168,16.45,16.45,0,0,1,3.519-1.46c.521-.147.621-.424.613-.895-.021-1.243-.017-2.487,0-3.73A3.217,3.217,0,0,1,27.39.01q3.252-.018,6.5,0a3.2,3.2,0,0,1,3.395,3.334q.039,1.912,0,3.826a.8.8,0,0,0,.673.952A14.813,14.813,0,0,1,41.3,9.512.846.846,0,0,0,42.522,9.3c.851-.906,1.739-1.777,2.63-2.645A3.157,3.157,0,0,1,49.9,6.62q2.4,2.336,4.732,4.735a3.144,3.144,0,0,1-.005,4.682c-.883.92-1.78,1.827-2.714,2.7a.847.847,0,0,0-.176,1.23,15.569,15.569,0,0,1,1.381,3.345A.753.753,0,0,0,54,23.95c1.275-.027,2.551-.022,3.826-.005a3.205,3.205,0,0,1,3.4,3.423q.02,3.252,0,6.5a3.209,3.209,0,0,1-3.408,3.419c-1.275.017-2.551.022-3.826-.006a.755.755,0,0,0-.872.649,16.657,16.657,0,0,1-1.424,3.431.75.75,0,0,0,.161,1.071c.926.876,1.821,1.785,2.711,2.7a3.171,3.171,0,0,1,0,4.82c-1.493,1.527-3.02,3.021-4.525,4.536-.493.5-1.04.873-1.638.259s-.194-1.15.3-1.637q2.206-2.189,4.393-4.4c.887-.9.882-1.444-.014-2.353-1.1-1.112-2.2-2.223-3.316-3.311a1.211,1.211,0,0,1-.232-1.693A19.792,19.792,0,0,0,51.6,36.349a1.162,1.162,0,0,1,1.3-.98c1.594.022,3.188.018,4.782,0,1.176-.011,1.613-.451,1.619-1.629q.017-3.156,0-6.313c-.008-1.11-.458-1.551-1.587-1.563-1.562-.017-3.125-.028-4.686,0a1.252,1.252,0,0,1-1.452-1.045A19.531,19.531,0,0,0,49.5,19.817a1.165,1.165,0,0,1,.241-1.612q1.708-1.672,3.381-3.381c.847-.865.845-1.418-.01-2.284Q50.9,10.294,48.651,8.077c-.812-.8-1.393-.794-2.217.011q-1.709,1.671-3.38,3.382a1.212,1.212,0,0,1-1.694.234A19.714,19.714,0,0,0,36.35,9.631a1.159,1.159,0,0,1-.981-1.3c.022-1.594.018-3.188,0-4.782-.012-1.177-.453-1.614-1.629-1.62q-3.156-.017-6.313,0c-1.111.008-1.555.456-1.568,1.583-.018,1.594-.027,3.189,0,4.782a1.208,1.208,0,0,1-1.04,1.359,19.806,19.806,0,0,0-5.008,2.077,1.168,1.168,0,0,1-1.613-.238q-1.672-1.708-3.38-3.382c-.86-.845-1.423-.843-2.285.009Q10.3,10.339,8.078,12.583c-.806.817-.8,1.39.005,2.214q1.672,1.708,3.383,3.379A1.212,1.212,0,0,1,11.7,19.87a19.713,19.713,0,0,0-2.072,5.01,1.163,1.163,0,0,1-1.3.987c-1.594-.022-3.188-.017-4.782,0-1.183.011-1.612.446-1.625,1.622-.012,1.052,0,2.1,0,3.156" transform="translate(0 0)" fill="#345359"/>
            <path id="Trazado_609793" data-name="Trazado 609793" d="M88.332,219.25c.183-.951.344-1.858.536-2.758a1.362,1.362,0,0,0-.2-1c-.541-.973-1.084-1.946-1.6-2.935s-.119-1.635.977-1.645q3.2-.027,6.406,0c1.038.01,1.426.665.972,1.593a7.238,7.238,0,0,1-.788,1.415c-1.36,1.671-1.06,3.457-.382,5.488.565-1.474,1.073-2.793,1.574-4.114.44-1.159.886-2.317,1.3-3.485a1.187,1.187,0,0,1,1.483-.851A10.294,10.294,0,0,1,107.5,221.3c.013,3.028.007,6.056,0,9.083,0,1.124-.279,1.4-1.418,1.4q-14.869,0-29.737,0c-1.118,0-1.381-.278-1.383-1.433,0-3.06-.015-6.119,0-9.179a10.3,10.3,0,0,1,8.92-10.215,1.2,1.2,0,0,1,1.461.891c.822,2.238,1.674,4.465,2.524,6.692.087.228.092.511.46.711m1.738,10.615c-.052-.219-.064-.311-.1-.4-1.994-5.259-4-10.512-5.969-15.78-.24-.643-.548-.73-1.137-.53-3.154,1.07-5.256,3.168-5.789,6.472-.519,3.213-.1,6.484-.2,9.729-.014.455.218.511.587.51,4.171-.007,8.342,0,12.6,0m2.289,0c4.284,0,8.454-.009,12.624.011.547,0,.613-.236.61-.687-.017-2.8.037-5.607-.029-8.409a8.316,8.316,0,0,0-5.944-7.613c-.486-.137-.871-.256-1.12.411-2.01,5.384-4.051,10.756-6.141,16.286m-1.228-2.774c.741-1.907,2.171-3.589,1.46-5.785-.233-.72-.265-1.5-.452-2.239-.5-1.976-.874-3.925.618-5.679.02-.023.024-.059.042-.085.2-.291.169-.471-.231-.471H89.435a10.277,10.277,0,0,0,.692,1.313,3.909,3.909,0,0,1,.513,3.437c-.372,1.64-.631,3.306-.954,4.957a1.422,1.422,0,0,0,.027.833c.481,1.236.947,2.478,1.419,3.718" transform="translate(-60.619 -170.556)" fill="#345359"/>
            <path id="Trazado_609794" data-name="Trazado 609794" d="M75.032,91.418a16.254,16.254,0,1,1,29.74,9.115c-.106.159-.218.314-.328.471-.38.538-.879.8-1.465.4s-.487-.973-.105-1.5a14.994,14.994,0,0,0,2.069-4.064A14.345,14.345,0,1,0,77.189,88.8a13.937,13.937,0,0,0,2.01,10.34c.171.269.355.529.537.789.353.5.451,1.034-.08,1.44a.955.955,0,0,1-1.477-.314,16.123,16.123,0,0,1-2.616-5.477,16.313,16.313,0,0,1-.531-4.156" transform="translate(-60.678 -60.817)" fill="#345359"/>
            <path id="Trazado_609795" data-name="Trazado 609795" d="M131.642,123.51a8.8,8.8,0,1,1-8.815-8.9,8.848,8.848,0,0,1,8.815,8.9m-15.679-.16a6.88,6.88,0,1,0,6.911-6.809,6.931,6.931,0,0,0-6.911,6.809" transform="translate(-92.227 -92.686)" fill="#345359"/>
          </g>
        </g>
      </g>
    </g>
  </g>
</svg>
