<svg xmlns="http://www.w3.org/2000/svg" xmlns:xlink="http://www.w3.org/1999/xlink" width="400" height="724" viewBox="0 0 400 724">
  <defs>
    <clipPath id="clip-path">
      <rect id="Rectángulo_377873" data-name="Rectángulo 377873" width="234.665" height="262.581" fill="none"/>
    </clipPath>
    <clipPath id="clip-path-3">
      <rect id="Rectángulo_377850" data-name="Rectángulo 377850" width="81.519" height="89.946" fill="none"/>
    </clipPath>
    <clipPath id="clip-path-4">
      <rect id="Rectángulo_377851" data-name="Rectángulo 377851" width="74.56" height="86.107" fill="none"/>
    </clipPath>
    <clipPath id="clip-path-5">
      <rect id="Rectángulo_377853" data-name="Rectángulo 377853" width="65.808" height="56.582" fill="none"/>
    </clipPath>
    <clipPath id="clip-path-6">
      <rect id="Rectángulo_377854" data-name="Rectángulo 377854" width="45.464" height="47.081" fill="none"/>
    </clipPath>
    <clipPath id="clip-path-7">
      <rect id="Rectángulo_377855" data-name="Rectángulo 377855" width="85.463" height="75.821" fill="none"/>
    </clipPath>
    <clipPath id="clip-path-8">
      <rect id="Rectángulo_377858" data-name="Rectángulo 377858" width="129.875" height="53.234" fill="none"/>
    </clipPath>
    <clipPath id="clip-path-9">
      <rect id="Rectángulo_377860" data-name="Rectángulo 377860" width="64.936" height="53.237" fill="none"/>
    </clipPath>
    <clipPath id="clip-path-10">
      <rect id="Rectángulo_377870" data-name="Rectángulo 377870" width="64.936" height="6.67" fill="none"/>
    </clipPath>
    <clipPath id="clip-path-11">
      <rect id="Rectángulo_377871" data-name="Rectángulo 377871" width="78.773" height="14.563" fill="none"/>
    </clipPath>
    <clipPath id="clip-path-12">
      <rect id="Rectángulo_377874" data-name="Rectángulo 377874" width="57.286" height="84.051" fill="#615842"/>
    </clipPath>
  </defs>
  <g id="Grupo_1072664" data-name="Grupo 1072664" transform="translate(6473 8537)">
    <rect id="Rectángulo_377882" data-name="Rectángulo 377882" width="400" height="724" transform="translate(-6473 -8537)" fill="#fff"/>
    <g id="Grupo_1072428" data-name="Grupo 1072428" transform="translate(-6705.5 -11800.076)">
      <g id="Grupo_1072425" data-name="Grupo 1072425" transform="translate(315.168 3263.151)">
        <g id="Grupo_1072419" data-name="Grupo 1072419" clip-path="url(#clip-path)">
          <path id="Trazado_609874" data-name="Trazado 609874" d="M82.03,207.292l3.719-.687.831-3.921.831,3.921,3.719.689-3.7.9-.847,3.7-.847-3.7Z" transform="translate(-34.686 -85.703)" fill="#d4d4d4"/>
          <path id="Trazado_609875" data-name="Trazado 609875" d="M345.9,369.342l3.719-.687.831-3.921.831,3.921,3.719.689-3.7.9-.847,3.7-.847-3.7Z" transform="translate(-146.263 -154.225)" fill="#d4d4d4"/>
          <path id="Trazado_609876" data-name="Trazado 609876" d="M360.048,64.72l2.079-.384.464-2.191.465,2.191,2.079.386-2.07.506-.474,2.07-.473-2.07Z" transform="translate(-152.244 -26.278)" fill="#d4d4d4"/>
          <path id="Trazado_609877" data-name="Trazado 609877" d="M37.072,338.616l2.079-.384.465-2.191.465,2.191,2.078.386-2.07.506-.473,2.07-.474-2.07Z" transform="translate(-15.676 -142.092)" fill="#d4d4d4"/>
          <path id="Trazado_609878" data-name="Trazado 609878" d="M132.9,321.233l2.079-.384.465-2.191.464,2.191,2.079.386-2.07.506-.473,2.07-.474-2.07Z" transform="translate(-56.195 -134.742)" fill="#d4d4d4"/>
          <path id="Trazado_609879" data-name="Trazado 609879" d="M379.1,249.515l2.079-.384.465-2.191.464,2.191,2.079.386-2.07.506-.473,2.07-.474-2.07Z" transform="translate(-160.299 -104.417)" fill="#d4d4d4"/>
          <path id="Trazado_609880" data-name="Trazado 609880" d="M18.675,83.186l2.079-.384.465-2.191.464,2.191,2.079.386-2.07.506-.473,2.07-.474-2.07Z" transform="translate(-7.896 -34.086)" fill="#d4d4d4"/>
          <g id="Grupo_1072418" data-name="Grupo 1072418">
            <g id="Grupo_1072417" data-name="Grupo 1072417" clip-path="url(#clip-path)">
              <path id="Trazado_609881" data-name="Trazado 609881" d="M155.519,345.128a.6.6,0,0,0,0-1.205.6.6,0,0,0,0,1.205" transform="translate(-65.514 -145.425)" fill="#d4d4d4"/>
              <path id="Trazado_609882" data-name="Trazado 609882" d="M33.657,162.051a.6.6,0,0,0,0-1.205.6.6,0,0,0,0,1.205" transform="translate(-13.986 -68.013)" fill="#d4d4d4"/>
              <path id="Trazado_609883" data-name="Trazado 609883" d="M366.267,362.308a.426.426,0,0,0,0-.852.426.426,0,0,0,0,.852" transform="translate(-154.7 -152.839)" fill="#d4d4d4"/>
              <path id="Trazado_609884" data-name="Trazado 609884" d="M359.746,93.584a.426.426,0,0,0,0-.852.426.426,0,0,0,0,.852" transform="translate(-151.942 -39.211)" fill="#d4d4d4"/>
              <path id="Trazado_609885" data-name="Trazado 609885" d="M361.37,224.269a.426.426,0,0,0,0-.852.426.426,0,0,0,0,.852" transform="translate(-152.629 -94.47)" fill="#d4d4d4"/>
              <path id="Trazado_609886" data-name="Trazado 609886" d="M156.651,36.729a.426.426,0,0,0,0-.852.426.426,0,0,0,0,.852" transform="translate(-66.065 -15.17)" fill="#d4d4d4"/>
              <path id="Trazado_609887" data-name="Trazado 609887" d="M282.213,237.926a.426.426,0,0,0,0-.852.426.426,0,0,0,0,.852" transform="translate(-119.158 -100.245)" fill="#d4d4d4"/>
              <path id="Trazado_609888" data-name="Trazado 609888" d="M85.215,178.78a.426.426,0,0,0,0-.852.426.426,0,0,0,0,.852" transform="translate(-35.859 -75.236)" fill="#d4d4d4"/>
              <path id="Trazado_609889" data-name="Trazado 609889" d="M378.028,297.709a.426.426,0,0,0,0-.852.426.426,0,0,0,0,.852" transform="translate(-159.672 -125.524)" fill="#d4d4d4"/>
              <path id="Trazado_609890" data-name="Trazado 609890" d="M46.3,89.651a.426.426,0,0,0,0-.852.426.426,0,0,0,0,.852" transform="translate(-19.402 -37.548)" fill="#d4d4d4"/>
              <path id="Trazado_609891" data-name="Trazado 609891" d="M365.57,295.9a1.156,1.156,0,0,0,0-2.311,1.156,1.156,0,0,0,0,2.311" transform="translate(-154.107 -124.143)" fill="#d4d4d4"/>
              <path id="Trazado_609892" data-name="Trazado 609892" d="M329.033,204.527a1.156,1.156,0,0,0,0-2.311,1.156,1.156,0,0,0,0,2.311" transform="translate(-138.658 -85.506)" fill="#d4d4d4"/>
              <path id="Trazado_609893" data-name="Trazado 609893" d="M109.188,130.741a1.156,1.156,0,0,0,0-2.31,1.156,1.156,0,0,0,0,2.31" transform="translate(-45.698 -54.306)" fill="#d4d4d4"/>
              <path id="Trazado_609894" data-name="Trazado 609894" d="M66.52,293.9a1.156,1.156,0,0,0,0-2.31,1.156,1.156,0,0,0,0,2.31" transform="translate(-27.656 -123.297)" fill="#d4d4d4"/>
              <path id="Trazado_609895" data-name="Trazado 609895" d="M93.931,55.245l3.719-.687.831-3.921.831,3.921,3.719.689-3.7.9-.847,3.7-.847-3.7Z" transform="translate(-39.718 -21.411)" fill="#ffbe00"/>
              <path id="Trazado_609896" data-name="Trazado 609896" d="M270.648,186.265l3.719-.687.831-3.921.831,3.921,3.719.69-3.7.9-.847,3.7-.847-3.7Z" transform="translate(-114.442 -76.812)" fill="#ffbe00"/>
              <path id="Trazado_609897" data-name="Trazado 609897" d="M126.965,164.466l2.079-.384.464-2.191.465,2.191,2.079.386-2.07.506-.474,2.07-.473-2.07Z" transform="translate(-53.686 -68.454)" fill="#ffbe00"/>
              <path id="Trazado_609898" data-name="Trazado 609898" d="M132,39.191l2.079-.384.465-2.191.465,2.191,2.078.386-2.07.506-.473,2.07-.474-2.07Z" transform="translate(-55.816 -15.483)" fill="#ffbe00"/>
              <path id="Trazado_609899" data-name="Trazado 609899" d="M303.842,66.438l2.079-.384.465-2.191.465,2.191,2.078.386-2.07.506-.473,2.07-.474-2.07Z" transform="translate(-128.478 -27.004)" fill="#ffbe00"/>
              <path id="Trazado_609900" data-name="Trazado 609900" d="M206.331,2.576l2.079-.384L208.874,0l.465,2.191,2.079.386-2.07.506-.474,2.07-.473-2.07Z" transform="translate(-87.245 0)" fill="#ffbe00"/>
              <path id="Trazado_609901" data-name="Trazado 609901" d="M116.386,174.167a.6.6,0,0,0,0-1.205.6.6,0,0,0,0,1.205" transform="translate(-48.967 -73.136)" fill="#ffbe00"/>
              <path id="Trazado_609902" data-name="Trazado 609902" d="M291.011,179.231a.426.426,0,0,0,0-.852.426.426,0,0,0,0,.852" transform="translate(-122.878 -75.426)" fill="#ffbe00"/>
              <path id="Trazado_609903" data-name="Trazado 609903" d="M120.018,113.894a.426.426,0,0,0,0-.852.426.426,0,0,0,0,.852" transform="translate(-50.575 -47.799)" fill="#ffbe00"/>
              <path id="Trazado_609904" data-name="Trazado 609904" d="M286.114,41.192a.426.426,0,0,0,0-.852.426.426,0,0,0,0,.852" transform="translate(-120.807 -17.057)" fill="#ffbe00"/>
              <path id="Trazado_609905" data-name="Trazado 609905" d="M112.6,64.715a.426.426,0,0,0,0-.852.426.426,0,0,0,0,.852" transform="translate(-47.436 -27.004)" fill="#ffbe00"/>
              <path id="Trazado_609906" data-name="Trazado 609906" d="M302.771,114.632a.426.426,0,0,0,0-.852.426.426,0,0,0,0,.852" transform="translate(-127.85 -48.111)" fill="#ffbe00"/>
              <path id="Trazado_609907" data-name="Trazado 609907" d="M233.953,9.041a.427.427,0,0,0,0-.852.427.427,0,0,0,0,.852" transform="translate(-98.751 -3.463)" fill="#ffbe00"/>
              <path id="Trazado_609908" data-name="Trazado 609908" d="M290.313,112.825a1.156,1.156,0,0,0,0-2.311,1.156,1.156,0,0,0,0,2.311" transform="translate(-122.285 -46.73)" fill="#ffbe00"/>
              <path id="Trazado_609909" data-name="Trazado 609909" d="M257.644,40.649a1.156,1.156,0,0,0,0-2.311,1.156,1.156,0,0,0,0,2.311" transform="translate(-108.471 -16.211)" fill="#ffbe00"/>
              <path id="Trazado_609910" data-name="Trazado 609910" d="M138.42,141.326a1.156,1.156,0,0,0,0-2.31,1.156,1.156,0,0,0,0,2.31" transform="translate(-58.058 -58.782)" fill="#ffbe00"/>
              <path id="Trazado_609911" data-name="Trazado 609911" d="M202.188,12.136A44.342,44.342,0,0,1,202,2.078a44.374,44.374,0,0,1,.185,10.058" transform="translate(-85.33 -0.879)" fill="#142328"/>
              <path id="Trazado_609912" data-name="Trazado 609912" d="M158.882,24.293a44.364,44.364,0,0,1-5.189-8.618,44.393,44.393,0,0,1,5.189,8.618" transform="translate(-64.988 -6.628)" fill="#142328"/>
              <path id="Trazado_609913" data-name="Trazado 609913" d="M127.329,56.546a44.338,44.338,0,0,1-8.8-4.868,44.354,44.354,0,0,1,8.8,4.868" transform="translate(-50.118 -21.852)" fill="#142328"/>
              <path id="Trazado_609914" data-name="Trazado 609914" d="M116.131,99.974a44.342,44.342,0,0,1-10.058.185,44.374,44.374,0,0,1,10.058-.185" transform="translate(-44.852 -42.188)" fill="#142328"/>
              <path id="Trazado_609915" data-name="Trazado 609915" d="M128.288,139.908a44.364,44.364,0,0,1-8.618,5.189,44.409,44.409,0,0,1,8.618-5.189" transform="translate(-50.602 -59.159)" fill="#142328"/>
              <path id="Trazado_609916" data-name="Trazado 609916" d="M272.809,138.483a44.332,44.332,0,0,1,8.8,4.869,44.317,44.317,0,0,1-8.8-4.869" transform="translate(-115.355 -58.557)" fill="#142328"/>
              <path id="Trazado_609917" data-name="Trazado 609917" d="M283.088,98.193a44.375,44.375,0,0,1,10.057-.185,44.34,44.34,0,0,1-10.057.185" transform="translate(-119.702 -41.357)" fill="#142328"/>
              <path id="Trazado_609918" data-name="Trazado 609918" d="M271.986,54.887A44.365,44.365,0,0,1,280.6,49.7a44.336,44.336,0,0,1-8.618,5.189" transform="translate(-115.007 -21.014)" fill="#142328"/>
              <path id="Trazado_609919" data-name="Trazado 609919" d="M242.478,23.334a44.36,44.36,0,0,1,4.868-8.8,44.343,44.343,0,0,1-4.868,8.8" transform="translate(-102.53 -6.144)" fill="#142328"/>
              <g id="Grupo_1072392" data-name="Grupo 1072392" transform="translate(76.573 16.818)" opacity="0.5">
                <g id="Grupo_1072391" data-name="Grupo 1072391">
                  <g id="Grupo_1072390" data-name="Grupo 1072390" clip-path="url(#clip-path-3)">
                    <path id="Trazado_609920" data-name="Trazado 609920" d="M214.086,72.625c-2.015,25.249-23.052,32.861-23.052,32.861-1.547,3.838-3.562,13.6-3.562,13.6h-28.08s-2.015-9.762-3.563-13.6c0,0-21.036-7.612-23.052-32.861-1.4-17.544,11.092-43.479,40.5-43.485h.3c29.41.006,41.9,25.941,40.5,43.485" transform="translate(-132.672 -29.14)" fill="#ffbe00"/>
                  </g>
                </g>
              </g>
              <g id="Grupo_1072395" data-name="Grupo 1072395" transform="translate(80.052 20.658)" opacity="0.7">
                <g id="Grupo_1072394" data-name="Grupo 1072394">
                  <g id="Grupo_1072393" data-name="Grupo 1072393" clip-path="url(#clip-path-4)">
                    <path id="Trazado_609921" data-name="Trazado 609921" d="M213.165,75.564c-1.843,23.094-21.084,30.056-21.084,30.056-1.415,3.51-3.259,16.278-3.259,16.278H163.139s-1.843-12.768-3.259-16.278c0,0-19.24-6.962-21.084-30.056-1.281-16.046,10.145-39.767,37.044-39.772h.279c26.9.006,38.325,23.726,37.044,39.772" transform="translate(-138.701 -35.792)" fill="#ffbe00"/>
                  </g>
                </g>
              </g>
              <line id="Línea_890" data-name="Línea 890" x1="8.255" y1="44.211" transform="translate(102.252 64.94)" fill="none" stroke="#fff" stroke-miterlimit="10" stroke-width="3"/>
              <line id="Línea_891" data-name="Línea 891" y1="44.214" x2="8.24" transform="translate(124.172 64.935)" fill="none" stroke="#fff" stroke-miterlimit="10" stroke-width="3"/>
              <path id="Trazado_609922" data-name="Trazado 609922" d="M178.389,112.327s1.635,8.657,5.555,8.656,7.594-12.905,2.448-12.9-.162,16.907,6.372,16.906,10.289-16.908,5.715-16.907-3.128,13.477,3.161,13.475c3.375,0,5.784-8.681,5.784-8.681" transform="translate(-75.431 -45.7)" fill="none" stroke="#fff" stroke-miterlimit="10" stroke-width="1"/>
              <rect id="Rectángulo_377852" data-name="Rectángulo 377852" width="35.177" height="19.36" transform="translate(99.744 106.799)" fill="#2b4852"/>
              <path id="Trazado_609923" data-name="Trazado 609923" d="M206.93,218.584c-2.069,3.668-6.035,6.95-13.6,6.95s-11.532-3.281-13.6-6.95Z" transform="translate(-75.997 -92.427)" fill="#2b4852"/>
              <path id="Trazado_609924" data-name="Trazado 609924" d="M206.93,218.584a13.048,13.048,0,0,1-2.279,2.977L180.433,219.7a12.743,12.743,0,0,1-.7-1.119Z" transform="translate(-75.997 -92.427)" fill="#21363d"/>
              <path id="Trazado_609925" data-name="Trazado 609925" d="M208.271,190.2l-37.234,3.442v-1.689l37.234-3.442Z" transform="translate(-72.322 -79.712)" fill="#21363d"/>
              <path id="Trazado_609926" data-name="Trazado 609926" d="M208.271,199.058,171.037,202.5v-1.689l37.234-3.442Z" transform="translate(-72.322 -83.456)" fill="#21363d"/>
              <path id="Trazado_609927" data-name="Trazado 609927" d="M208.271,207.913l-37.234,3.442v-1.689l37.234-3.442Z" transform="translate(-72.322 -87.201)" fill="#21363d"/>
              <g id="Grupo_1072398" data-name="Grupo 1072398" transform="translate(84.971 27.045)" opacity="0.5">
                <g id="Grupo_1072397" data-name="Grupo 1072397">
                  <g id="Grupo_1072396" data-name="Grupo 1072396" clip-path="url(#clip-path-5)">
                    <path id="Trazado_609928" data-name="Trazado 609928" d="M147.792,74.218c1.289.216,2.959-6.439,10.116-14.143,3.18-3.423,15.24-7.7,14.371-11.654s-11.629.111-17.042,6.382c-8.71,10.092-8.633,19.216-7.446,19.415" transform="translate(-147.224 -46.859)" fill="#fff"/>
                    <path id="Trazado_609929" data-name="Trazado 609929" d="M256.855,93.963a1.845,1.845,0,0,0,0-3.687,1.845,1.845,0,0,0,0,3.687" transform="translate(-192.828 -65.218)" fill="#fff"/>
                    <path id="Trazado_609930" data-name="Trazado 609930" d="M237.9,126.233c1.3.988,7.592-4.819,10.43-11.75,2.355-5.752,2.762-13.027,1.177-13.448s-2.611,9.558-4.516,13.232c-2.4,4.639-8.478,10.91-7.092,11.966" transform="translate(-185.48 -69.761)" fill="#fff"/>
                  </g>
                </g>
              </g>
              <path id="Trazado_609931" data-name="Trazado 609931" d="M230.466,454.3c-65.11.353-138.148.356-203.258,0,65.11-.356,138.149-.353,203.258,0" transform="translate(-11.505 -191.985)" fill="#142328"/>
              <path id="Trazado_609932" data-name="Trazado 609932" d="M154.484,295.826s-32.039-10.557-34.471-13.635-10.691-28.366-10.98-31.022,4.615-4.232,9.933,1.273c5.845,6.05,10.1,19.87,12.505,20.565.908.262,15.935,2.668,17.39,3.283s5.623,19.536,5.623,19.536" transform="translate(-46.098 -105.18)" fill="#e66057"/>
              <g id="Grupo_1072401" data-name="Grupo 1072401" transform="translate(62.922 143.565)" opacity="0.1">
                <g id="Grupo_1072400" data-name="Grupo 1072400">
                  <g id="Grupo_1072399" data-name="Grupo 1072399" clip-path="url(#clip-path-6)">
                    <path id="Trazado_609933" data-name="Trazado 609933" d="M154.484,295.826s-32.039-10.557-34.471-13.635-10.691-28.366-10.98-31.022,4.615-4.232,9.933,1.273c5.845,6.05,10.1,19.87,12.505,20.565.908.262,15.935,2.668,17.39,3.283s5.623,19.536,5.623,19.536" transform="translate(-109.02 -248.745)"/>
                  </g>
                </g>
              </g>
              <path id="Trazado_609934" data-name="Trazado 609934" d="M157.14,302.172s-43.362-29.445-45.473-32.752-8.474-30.436-8.5-33.107,6.609-2.961,11.347,3.05c5.208,6.607,9.363,19.485,11.689,20.418.878.352,13.367,5.907,14.753,6.666s16.179,35.726,16.179,35.726" transform="translate(-43.625 -99.156)" fill="#e66057"/>
              <path id="Trazado_609935" data-name="Trazado 609935" d="M137.359,249.577c-5.077-5.972-16.749-37.38-17.337-41.259s15.208-33.908,21.762-41.133c3.009-3.317,9.408,3.615,8.485,15.13-1,12.531-8.859,24.6-7.653,26.766.848,1.521,11.478,26,12.437,27.252.578.757,13.8,32.931,9.206,37.025,0,0-25.195-21.776-26.9-23.781" transform="translate(-50.744 -70.342)" fill="#e66057"/>
              <path id="Trazado_609936" data-name="Trazado 609936" d="M218.071,223.249c9.017-.275,9.82-12.7,8.549-21.678-2.361-16.688,8.527-24.7,13.724-22.566,6.694,2.748-1.693,22.57,7.973,34.829,20.18,25.594,16.024,48.206,16.024,48.206-6.676-1.98-32.871-31.944-46.27-38.791" transform="translate(-92.21 -75.548)" fill="#e66057"/>
              <path id="Trazado_609937" data-name="Trazado 609937" d="M151.07,272.639c-5.387-8.551-5.341-24.877-12.538-35.945-3.647-5.609-17.935-32.272-21.869-39.935-2.72-5.3-8.422-15.4-5.875-16.642,4.115-2.014,12.9-.556,18.017,4.831,6.382,6.723,14.569,21.763,19.488,25.157,38.534,26.589,54.736,15.678,61.575,17.754l8.839,34.428-2,75.82H133.244Z" transform="translate(-46.576 -75.795)" fill="#e66057"/>
              <g id="Grupo_1072404" data-name="Grupo 1072404" transform="translate(86.668 186.492)" opacity="0.1">
                <g id="Grupo_1072403" data-name="Grupo 1072403">
                  <g id="Grupo_1072402" data-name="Grupo 1072402" clip-path="url(#clip-path-7)">
                    <path id="Trazado_609938" data-name="Trazado 609938" d="M166.91,336.332c-1.094,18.76,40.772,20.074,68.717-13.211l-2,75.821H150.164Z" transform="translate(-150.164 -323.121)"/>
                  </g>
                </g>
              </g>
              <path id="Trazado_609939" data-name="Trazado 609939" d="M118.843,204.61c4.119,6.72,8.033,13.583,11.918,20.428,3.107,4.663,7.048,8.708,10.894,12.792q4.684,4.871,9.539,9.587c-1.715-1.465-3.387-2.981-5.051-4.506-5.753-5.414-11.62-10.847-16.163-17.371-3.989-6.837-7.812-13.741-11.137-20.93" transform="translate(-50.252 -86.518)" fill="#142328"/>
              <path id="Trazado_609940" data-name="Trazado 609940" d="M120.32,240.384c3.717,8.086,6.747,16.493,9.725,24.873a3.065,3.065,0,0,0,.25.583c1.778,3.1,4.406,5.734,6.75,8.429,1.21,1.366,2.463,2.692,3.7,4.041a86.119,86.119,0,0,1-9.667-9.745,11.883,11.883,0,0,1-1.9-3c-2.862-7.756-6.155-17.293-8.851-25.185" transform="translate(-50.876 -101.645)" fill="#142328"/>
              <path id="Trazado_609941" data-name="Trazado 609941" d="M141.483,188.132a26.676,26.676,0,0,1,6.244,6.595c1.735,2.488,6.374,9.169,7.543,11.974-3.645-4.8-9.842-14-13.788-18.569" transform="translate(-59.825 -79.55)" fill="#142328"/>
              <path id="Trazado_609942" data-name="Trazado 609942" d="M153.207,405.107l80.757,1.4L232.8,433.609H145.065Z" transform="translate(-61.34 -171.297)" fill="#e7e7e7"/>
              <path id="Trazado_609943" data-name="Trazado 609943" d="M142.913,421.243l90.7,1.7.377,17.488H139.238Z" transform="translate(-58.876 -178.12)" fill="#ffbe00"/>
              <rect id="Rectángulo_377856" data-name="Rectángulo 377856" width="129.875" height="53.234" transform="translate(56.692 209.078)" fill="#ffbe00"/>
              <g id="Grupo_1072407" data-name="Grupo 1072407" transform="translate(56.692 209.078)" opacity="0.1">
                <g id="Grupo_1072406" data-name="Grupo 1072406">
                  <g id="Grupo_1072405" data-name="Grupo 1072405" clip-path="url(#clip-path-8)">
                    <rect id="Rectángulo_377857" data-name="Rectángulo 377857" width="129.875" height="53.234" transform="translate(0 0)"/>
                  </g>
                </g>
              </g>
              <g id="Grupo_1072410" data-name="Grupo 1072410" transform="translate(121.628 209.078)" opacity="0.2">
                <g id="Grupo_1072409" data-name="Grupo 1072409">
                  <g id="Grupo_1072408" data-name="Grupo 1072408" clip-path="url(#clip-path-9)">
                    <rect id="Rectángulo_377859" data-name="Rectángulo 377859" width="64.936" height="53.236" transform="translate(0 0)"/>
                  </g>
                </g>
              </g>
              <path id="Trazado_609944" data-name="Trazado 609944" d="M275.09,414.512q-7.639-5.678-15.141-11.393l-14.921-11.45-14.73-11.5q-7.329-5.759-14.507-11.558,7.642,5.678,15.143,11.392l14.919,11.451,14.729,11.5q7.329,5.76,14.508,11.558" transform="translate(-91.246 -155.864)" fill="#ffbe00"/>
              <path id="Trazado_609945" data-name="Trazado 609945" d="M275.09,368.61q-7.186,5.8-14.508,11.558l-14.729,11.5-14.919,11.45q-7.5,5.716-15.143,11.393,7.182-5.8,14.507-11.559l14.73-11.5L259.949,380q7.5-5.717,15.141-11.393" transform="translate(-91.246 -155.864)" fill="#ffbe00"/>
              <rect id="Rectángulo_377861" data-name="Rectángulo 377861" width="0.373" height="5.262" transform="translate(67.594 253.576)" fill="#fff"/>
              <rect id="Rectángulo_377862" data-name="Rectángulo 377862" width="0.373" height="5.262" transform="translate(66.699 253.576)" fill="#fff"/>
              <rect id="Rectángulo_377863" data-name="Rectángulo 377863" width="0.373" height="5.262" transform="translate(65.804 253.576)" fill="#fff"/>
              <rect id="Rectángulo_377864" data-name="Rectángulo 377864" width="0.373" height="5.262" transform="translate(64.908 253.576)" fill="#fff"/>
              <rect id="Rectángulo_377865" data-name="Rectángulo 377865" width="0.373" height="5.262" transform="translate(64.013 253.576)" fill="#fff"/>
              <rect id="Rectángulo_377866" data-name="Rectángulo 377866" width="0.373" height="5.262" transform="translate(63.117 253.576)" fill="#fff"/>
              <rect id="Rectángulo_377867" data-name="Rectángulo 377867" width="0.373" height="5.262" transform="translate(62.222 253.576)" fill="#fff"/>
              <rect id="Rectángulo_377868" data-name="Rectángulo 377868" width="0.373" height="5.262" transform="translate(61.327 253.576)" fill="#fff"/>
              <rect id="Rectángulo_377869" data-name="Rectángulo 377869" width="0.373" height="5.262" transform="translate(60.431 253.576)" fill="#fff"/>
              <path id="Trazado_609946" data-name="Trazado 609946" d="M123.055,444.216l-1.436.4h3.37l-1.436-.4v-1.934c1.028-.134,1.436-1.149,1.436-2.922h-3.37c0,1.768.408,2.787,1.436,2.922Z" transform="translate(-51.426 -185.779)" fill="#fff"/>
              <path id="Trazado_609947" data-name="Trazado 609947" d="M128.819,442.04h.88v2.576h2.253V442.04h.884l-2.01-2.684Z" transform="translate(-54.47 -185.779)" fill="#fff"/>
              <g id="Grupo_1072413" data-name="Grupo 1072413" transform="translate(56.692 255.645)" opacity="0.1">
                <g id="Grupo_1072412" data-name="Grupo 1072412">
                  <g id="Grupo_1072411" data-name="Grupo 1072411" clip-path="url(#clip-path-10)">
                    <path id="Trazado_609948" data-name="Trazado 609948" d="M98.227,449.609v-2.03l64.936-4.64v6.667Z" transform="translate(-98.227 -442.939)"/>
                  </g>
                </g>
              </g>
              <path id="Trazado_609949" data-name="Trazado 609949" d="M139.188,376.818H74.252L88.09,362.255h64.936Z" transform="translate(-31.397 -153.177)" fill="#ffbe00"/>
              <path id="Trazado_609950" data-name="Trazado 609950" d="M224.574,376.818H289.51l-13.837-14.563H210.737Z" transform="translate(-89.109 -153.177)" fill="#ffbe00"/>
              <g id="Grupo_1072416" data-name="Grupo 1072416" transform="translate(121.628 209.078)" opacity="0.1">
                <g id="Grupo_1072415" data-name="Grupo 1072415">
                  <g id="Grupo_1072414" data-name="Grupo 1072414" clip-path="url(#clip-path-11)">
                    <path id="Trazado_609951" data-name="Trazado 609951" d="M224.574,376.818H289.51l-13.837-14.563H210.737Z" transform="translate(-210.737 -362.255)"/>
                  </g>
                </g>
              </g>
            </g>
          </g>
        </g>
      </g>
      <rect id="Rectángulo_377876" data-name="Rectángulo 377876" width="295" height="74" rx="20" transform="translate(285 3673)" fill="#fff8e7"/>
      <rect id="Rectángulo_377878" data-name="Rectángulo 377878" width="295" height="74" rx="20" transform="translate(285 3750)" fill="#fff8e7"/>
      <rect id="Rectángulo_377879" data-name="Rectángulo 377879" width="295" height="74" rx="20" transform="translate(285 3827)" fill="#fff8e7"/>
      <rect id="Rectángulo_377880" data-name="Rectángulo 377880" width="295" height="74" rx="20" transform="translate(285 3904)" fill="#fff8e7"/>
      <path id="Trazado_610523" data-name="Trazado 610523" d="M-83.2-4.731V0H-84.8V-12.086h4.458a4.478,4.478,0,0,1,3.109,1.013,3.433,3.433,0,0,1,1.125,2.681,3.388,3.388,0,0,1-1.1,2.71,4.678,4.678,0,0,1-3.15.95Zm0-1.3h2.864a2.863,2.863,0,0,0,1.959-.6A2.2,2.2,0,0,0-77.7-8.38a2.277,2.277,0,0,0-.681-1.73,2.682,2.682,0,0,0-1.868-.674H-83.2ZM-72.644,0H-74.18V-12.75h1.536Zm8,0a3.226,3.226,0,0,1-.216-.946A3.426,3.426,0,0,1-67.415.166a3.17,3.17,0,0,1-2.179-.751,2.43,2.43,0,0,1-.851-1.905,2.539,2.539,0,0,1,1.067-2.179,5.029,5.029,0,0,1,3-.776h1.494v-.706a1.725,1.725,0,0,0-.481-1.282,1.935,1.935,0,0,0-1.419-.477,2.239,2.239,0,0,0-1.378.415,1.223,1.223,0,0,0-.556,1h-1.544a2.119,2.119,0,0,1,.477-1.3,3.258,3.258,0,0,1,1.295-.992,4.356,4.356,0,0,1,1.8-.365,3.551,3.551,0,0,1,2.432.776,2.8,2.8,0,0,1,.913,2.137V-2.1a5.054,5.054,0,0,0,.315,1.967V0Zm-2.548-1.17a2.7,2.7,0,0,0,1.37-.374,2.259,2.259,0,0,0,.938-.971V-4.358h-1.2q-2.822,0-2.822,1.652a1.4,1.4,0,0,0,.481,1.129A1.85,1.85,0,0,0-67.191-1.17Zm7.7-7.811.05,1.129a3.273,3.273,0,0,1,2.689-1.295q2.847,0,2.872,3.212V0h-1.536V-5.943a2.068,2.068,0,0,0-.444-1.436,1.78,1.78,0,0,0-1.357-.465,2.216,2.216,0,0,0-1.312.4A2.706,2.706,0,0,0-59.4-6.4V0H-60.94V-8.981ZM-47.833.166a3.924,3.924,0,0,1-2.972-1.2A4.452,4.452,0,0,1-51.95-4.242v-.282a5.39,5.39,0,0,1,.51-2.386,3.982,3.982,0,0,1,1.428-1.644,3.59,3.59,0,0,1,1.988-.594A3.364,3.364,0,0,1-45.3-7.994a5,5,0,0,1,.971,3.3v.639h-6.084a3.193,3.193,0,0,0,.776,2.146,2.44,2.44,0,0,0,1.888.818,2.675,2.675,0,0,0,1.378-.332,3.462,3.462,0,0,0,.988-.88l.938.73A3.772,3.772,0,0,1-47.833.166Zm-.191-8.052a2.048,2.048,0,0,0-1.561.677,3.288,3.288,0,0,0-.78,1.9h4.5v-.116A2.925,2.925,0,0,0-46.5-7.242,1.928,1.928,0,0,0-48.024-7.886ZM-37.009,0a3.226,3.226,0,0,1-.216-.946A3.426,3.426,0,0,1-39.781.166,3.17,3.17,0,0,1-41.96-.585a2.43,2.43,0,0,1-.851-1.905,2.539,2.539,0,0,1,1.067-2.179,5.029,5.029,0,0,1,3-.776h1.494v-.706a1.725,1.725,0,0,0-.481-1.282,1.935,1.935,0,0,0-1.419-.477,2.239,2.239,0,0,0-1.378.415,1.223,1.223,0,0,0-.556,1h-1.544a2.119,2.119,0,0,1,.477-1.3,3.258,3.258,0,0,1,1.295-.992,4.356,4.356,0,0,1,1.8-.365,3.551,3.551,0,0,1,2.432.776,2.8,2.8,0,0,1,.913,2.137V-2.1A5.054,5.054,0,0,0-35.4-.133V0Zm-2.548-1.17a2.7,2.7,0,0,0,1.37-.374,2.259,2.259,0,0,0,.938-.971V-4.358h-1.2q-2.822,0-2.822,1.652a1.4,1.4,0,0,0,.481,1.129A1.85,1.85,0,0,0-39.557-1.17Zm9.853.083a2.212,2.212,0,0,0,1.436-.5,1.752,1.752,0,0,0,.681-1.245h1.453a2.785,2.785,0,0,1-.531,1.469A3.5,3.5,0,0,1-27.974-.249,3.772,3.772,0,0,1-29.7.166a3.7,3.7,0,0,1-2.918-1.224,4.877,4.877,0,0,1-1.083-3.349v-.257A5.407,5.407,0,0,1-33.224-7a3.667,3.667,0,0,1,1.382-1.585,3.926,3.926,0,0,1,2.129-.564,3.6,3.6,0,0,1,2.511.9,3.234,3.234,0,0,1,1.067,2.349h-1.453a2.116,2.116,0,0,0-.66-1.432,2.053,2.053,0,0,0-1.465-.56,2.149,2.149,0,0,0-1.814.843,3.957,3.957,0,0,0-.643,2.436v.291a3.878,3.878,0,0,0,.639,2.391A2.16,2.16,0,0,0-29.7-1.087ZM-22.74,0h-1.536V-8.981h1.536ZM-24.4-11.364a.917.917,0,0,1,.228-.631.857.857,0,0,1,.677-.257.87.87,0,0,1,.681.257.907.907,0,0,1,.232.631.877.877,0,0,1-.232.623.886.886,0,0,1-.681.249.872.872,0,0,1-.677-.249A.886.886,0,0,1-24.4-11.364Zm3.71,6.79a5.3,5.3,0,0,1,.519-2.374,3.87,3.87,0,0,1,1.444-1.627,3.932,3.932,0,0,1,2.113-.573,3.788,3.788,0,0,1,2.968,1.27A4.886,4.886,0,0,1-12.513-4.5v.108a5.351,5.351,0,0,1-.5,2.353A3.813,3.813,0,0,1-14.452-.415,3.977,3.977,0,0,1-16.6.166,3.778,3.778,0,0,1-19.557-1.1,4.861,4.861,0,0,1-20.69-4.466Zm1.544.183a3.842,3.842,0,0,0,.693,2.4,2.218,2.218,0,0,0,1.855.9A2.2,2.2,0,0,0-14.738-2a4.2,4.2,0,0,0,.689-2.569,3.836,3.836,0,0,0-.7-2.395,2.23,2.23,0,0,0-1.864-.917,2.205,2.205,0,0,0-1.834.9A4.17,4.17,0,0,0-19.146-4.391Zm3.229-8.359h1.859l-2.225,2.44-1.237,0Zm6.782,3.769.05,1.129A3.273,3.273,0,0,1-6.4-9.147q2.847,0,2.872,3.212V0H-5.059V-5.943A2.068,2.068,0,0,0-5.5-7.379a1.78,1.78,0,0,0-1.357-.465,2.216,2.216,0,0,0-1.312.4A2.706,2.706,0,0,0-9.052-6.4V0h-1.536V-8.981ZM6.728.166a3.924,3.924,0,0,1-2.972-1.2A4.452,4.452,0,0,1,2.611-4.242v-.282a5.39,5.39,0,0,1,.51-2.386A3.982,3.982,0,0,1,4.549-8.554a3.59,3.59,0,0,1,1.988-.594A3.364,3.364,0,0,1,9.26-7.994a5,5,0,0,1,.971,3.3v.639H4.146a3.193,3.193,0,0,0,.776,2.146,2.44,2.44,0,0,0,1.888.818,2.675,2.675,0,0,0,1.378-.332,3.462,3.462,0,0,0,.988-.88l.938.73A3.772,3.772,0,0,1,6.728.166ZM6.537-7.886a2.048,2.048,0,0,0-1.561.677,3.288,3.288,0,0,0-.78,1.9H8.7v-.116a2.925,2.925,0,0,0-.631-1.814A1.928,1.928,0,0,0,6.537-7.886Zm10.7,5.5a1.131,1.131,0,0,0-.469-.967,4.514,4.514,0,0,0-1.635-.594,7.731,7.731,0,0,1-1.851-.6,2.633,2.633,0,0,1-1.013-.83,1.986,1.986,0,0,1-.328-1.146,2.33,2.33,0,0,1,.934-1.868,3.647,3.647,0,0,1,2.386-.764,3.753,3.753,0,0,1,2.478.789,2.5,2.5,0,0,1,.95,2.017H17.145a1.386,1.386,0,0,0-.535-1.087,2.006,2.006,0,0,0-1.349-.457,2.1,2.1,0,0,0-1.312.365,1.15,1.15,0,0,0-.473.955.932.932,0,0,0,.44.838,5.413,5.413,0,0,0,1.59.54,8.283,8.283,0,0,1,1.864.614,2.718,2.718,0,0,1,1.058.859,2.112,2.112,0,0,1,.344,1.224,2.3,2.3,0,0,1-.963,1.93,4.039,4.039,0,0,1-2.5.726A4.523,4.523,0,0,1,13.4-.216a3.105,3.105,0,0,1-1.3-1.067,2.571,2.571,0,0,1-.469-1.482h1.536a1.59,1.59,0,0,0,.618,1.224,2.4,2.4,0,0,0,1.523.452,2.476,2.476,0,0,0,1.4-.353A1.084,1.084,0,0,0,17.237-2.382Zm5.62-8.774v2.175h1.677v1.187H22.856v5.577a1.247,1.247,0,0,0,.224.81.943.943,0,0,0,.764.27,3.718,3.718,0,0,0,.73-.1V0A4.478,4.478,0,0,1,23.4.166a1.912,1.912,0,0,1-1.552-.623,2.675,2.675,0,0,1-.523-1.768v-5.57H19.685V-8.981h1.635v-2.175ZM30.667-7.6a4.6,4.6,0,0,0-.755-.058,2.024,2.024,0,0,0-2.05,1.287V0H26.326V-8.981H27.82l.025,1.038a2.391,2.391,0,0,1,2.142-1.2,1.569,1.569,0,0,1,.681.116ZM37.291,0a3.226,3.226,0,0,1-.216-.946A3.426,3.426,0,0,1,34.519.166,3.17,3.17,0,0,1,32.34-.585a2.43,2.43,0,0,1-.851-1.905,2.539,2.539,0,0,1,1.067-2.179,5.029,5.029,0,0,1,3-.776h1.494v-.706a1.725,1.725,0,0,0-.481-1.282,1.935,1.935,0,0,0-1.419-.477,2.239,2.239,0,0,0-1.378.415,1.223,1.223,0,0,0-.556,1H31.672a2.119,2.119,0,0,1,.477-1.3,3.258,3.258,0,0,1,1.295-.992,4.356,4.356,0,0,1,1.8-.365,3.551,3.551,0,0,1,2.432.776,2.8,2.8,0,0,1,.913,2.137V-2.1A5.054,5.054,0,0,0,38.9-.133V0ZM34.743-1.17a2.7,2.7,0,0,0,1.37-.374,2.259,2.259,0,0,0,.938-.971V-4.358h-1.2q-2.822,0-2.822,1.652a1.4,1.4,0,0,0,.481,1.129A1.85,1.85,0,0,0,34.743-1.17Zm8.334-9.986v2.175h1.677v1.187H43.077v5.577a1.247,1.247,0,0,0,.224.81.943.943,0,0,0,.764.27,3.718,3.718,0,0,0,.73-.1V0a4.478,4.478,0,0,1-1.179.165,1.912,1.912,0,0,1-1.552-.623,2.675,2.675,0,0,1-.523-1.768v-5.57H39.906V-8.981h1.635v-2.175ZM50.274.166a3.924,3.924,0,0,1-2.972-1.2,4.452,4.452,0,0,1-1.146-3.208v-.282a5.39,5.39,0,0,1,.51-2.386,3.982,3.982,0,0,1,1.428-1.644,3.59,3.59,0,0,1,1.988-.594,3.364,3.364,0,0,1,2.723,1.154,5,5,0,0,1,.971,3.3v.639H47.692a3.193,3.193,0,0,0,.776,2.146,2.44,2.44,0,0,0,1.888.818,2.675,2.675,0,0,0,1.378-.332,3.462,3.462,0,0,0,.988-.88l.938.73A3.772,3.772,0,0,1,50.274.166Zm-.191-8.052a2.048,2.048,0,0,0-1.561.677,3.288,3.288,0,0,0-.78,1.9h4.5v-.116a2.925,2.925,0,0,0-.631-1.814A1.928,1.928,0,0,0,50.083-7.886Zm.747-4.864h1.859l-2.225,2.44-1.237,0Zm4.358,8.185a5.279,5.279,0,0,1,.971-3.341,3.106,3.106,0,0,1,2.573-1.241A3.09,3.09,0,0,1,61.3-7.985l.075-1h1.4V-.216a3.654,3.654,0,0,1-1.033,2.748,3.814,3.814,0,0,1-2.777,1,4.619,4.619,0,0,1-1.9-.415,3.272,3.272,0,0,1-1.419-1.137l.8-.921a3,3,0,0,0,2.416,1.22A2.353,2.353,0,0,0,60.6,1.652a2.411,2.411,0,0,0,.627-1.776V-.9A3.156,3.156,0,0,1,58.716.166,3.068,3.068,0,0,1,56.163-1.1,5.55,5.55,0,0,1,55.188-4.565Zm1.544.174A4.027,4.027,0,0,0,57.354-2a2.023,2.023,0,0,0,1.743.867,2.249,2.249,0,0,0,2.133-1.32v-4.1a2.276,2.276,0,0,0-2.117-1.287,2.041,2.041,0,0,0-1.751.872A4.386,4.386,0,0,0,56.732-4.391ZM66.759,0H65.223V-8.981h1.536ZM65.1-11.364a.917.917,0,0,1,.228-.631A.857.857,0,0,1,66-12.252a.87.87,0,0,1,.681.257.907.907,0,0,1,.232.631.877.877,0,0,1-.232.623.886.886,0,0,1-.681.249.872.872,0,0,1-.677-.249A.886.886,0,0,1,65.1-11.364Zm7.72,10.276a2.212,2.212,0,0,0,1.436-.5,1.752,1.752,0,0,0,.681-1.245h1.453a2.785,2.785,0,0,1-.531,1.469A3.5,3.5,0,0,1,74.549-.249a3.772,3.772,0,0,1-1.731.415A3.7,3.7,0,0,1,69.9-1.058a4.877,4.877,0,0,1-1.083-3.349v-.257A5.407,5.407,0,0,1,69.3-7a3.667,3.667,0,0,1,1.382-1.585,3.926,3.926,0,0,1,2.129-.564,3.6,3.6,0,0,1,2.511.9,3.234,3.234,0,0,1,1.067,2.349H74.935a2.116,2.116,0,0,0-.66-1.432,2.053,2.053,0,0,0-1.465-.56A2.149,2.149,0,0,0,71-7.043a3.957,3.957,0,0,0-.643,2.436v.291a3.878,3.878,0,0,0,.639,2.391A2.16,2.16,0,0,0,72.819-1.087ZM83.659,0a3.226,3.226,0,0,1-.216-.946A3.426,3.426,0,0,1,80.887.166a3.17,3.17,0,0,1-2.179-.751,2.43,2.43,0,0,1-.851-1.905,2.539,2.539,0,0,1,1.067-2.179,5.029,5.029,0,0,1,3-.776h1.494v-.706a1.725,1.725,0,0,0-.481-1.282,1.935,1.935,0,0,0-1.419-.477A2.239,2.239,0,0,0,80.14-7.5a1.223,1.223,0,0,0-.556,1H78.04a2.119,2.119,0,0,1,.477-1.3,3.258,3.258,0,0,1,1.295-.992,4.356,4.356,0,0,1,1.8-.365,3.551,3.551,0,0,1,2.432.776,2.8,2.8,0,0,1,.913,2.137V-2.1A5.054,5.054,0,0,0,85.27-.133V0ZM81.111-1.17a2.7,2.7,0,0,0,1.37-.374,2.259,2.259,0,0,0,.938-.971V-4.358h-1.2q-2.822,0-2.822,1.652a1.4,1.4,0,0,0,.481,1.129A1.85,1.85,0,0,0,81.111-1.17Z" transform="translate(433 3717)" fill="#12263f"/>
      <path id="Trazado_610524" data-name="Trazado 610524" d="M-98.472,0h-1.594V-12.086h1.594Zm4.125-8.981.05,1.129a3.273,3.273,0,0,1,2.689-1.295q2.847,0,2.872,3.212V0h-1.536V-5.943a2.068,2.068,0,0,0-.444-1.436,1.78,1.78,0,0,0-1.357-.465,2.216,2.216,0,0,0-1.312.4,2.706,2.706,0,0,0-.88,1.046V0H-95.8V-8.981Zm10.891,6.9,2.225-6.9h1.569L-82.883,0h-1.17l-3.254-8.981h1.569Zm8.89,2.25a3.924,3.924,0,0,1-2.972-1.2,4.452,4.452,0,0,1-1.146-3.208v-.282a5.39,5.39,0,0,1,.51-2.386,3.982,3.982,0,0,1,1.428-1.644,3.59,3.59,0,0,1,1.988-.594,3.364,3.364,0,0,1,2.723,1.154,5,5,0,0,1,.971,3.3v.639h-6.084a3.193,3.193,0,0,0,.776,2.146,2.44,2.44,0,0,0,1.888.818A2.675,2.675,0,0,0-73.1-1.419a3.462,3.462,0,0,0,.988-.88l.938.73A3.772,3.772,0,0,1-74.566.166Zm-.191-8.052a2.048,2.048,0,0,0-1.561.677,3.288,3.288,0,0,0-.78,1.9h4.5v-.116a2.925,2.925,0,0,0-.631-1.814A1.928,1.928,0,0,0-74.757-7.886Zm10.7,5.5a1.131,1.131,0,0,0-.469-.967,4.514,4.514,0,0,0-1.635-.594,7.731,7.731,0,0,1-1.851-.6,2.633,2.633,0,0,1-1.013-.83,1.986,1.986,0,0,1-.328-1.146,2.33,2.33,0,0,1,.934-1.868,3.647,3.647,0,0,1,2.386-.764,3.753,3.753,0,0,1,2.478.789,2.5,2.5,0,0,1,.95,2.017h-1.544a1.386,1.386,0,0,0-.535-1.087,2.006,2.006,0,0,0-1.349-.457,2.1,2.1,0,0,0-1.312.365,1.15,1.15,0,0,0-.473.955.932.932,0,0,0,.44.838,5.413,5.413,0,0,0,1.59.54,8.283,8.283,0,0,1,1.864.614,2.718,2.718,0,0,1,1.058.859,2.112,2.112,0,0,1,.344,1.224,2.3,2.3,0,0,1-.963,1.93,4.039,4.039,0,0,1-2.5.726,4.523,4.523,0,0,1-1.909-.382,3.105,3.105,0,0,1-1.3-1.067,2.571,2.571,0,0,1-.469-1.482h1.536a1.59,1.59,0,0,0,.618,1.224,2.4,2.4,0,0,0,1.523.452,2.476,2.476,0,0,0,1.4-.353A1.084,1.084,0,0,0-64.057-2.382Zm5.62-8.774v2.175h1.677v1.187h-1.677v5.577a1.247,1.247,0,0,0,.224.81.943.943,0,0,0,.764.27,3.718,3.718,0,0,0,.73-.1V0A4.478,4.478,0,0,1-57.9.166,1.912,1.912,0,0,1-59.45-.457a2.675,2.675,0,0,1-.523-1.768v-5.57h-1.635V-8.981h1.635v-2.175ZM-53.3,0h-1.536V-8.981H-53.3Zm-1.66-11.364a.917.917,0,0,1,.228-.631.857.857,0,0,1,.677-.257.87.87,0,0,1,.681.257.907.907,0,0,1,.232.631.877.877,0,0,1-.232.623.886.886,0,0,1-.681.249.872.872,0,0,1-.677-.249A.886.886,0,0,1-54.959-11.364Zm3.752,6.8a5.279,5.279,0,0,1,.971-3.341,3.106,3.106,0,0,1,2.573-1.241A3.09,3.09,0,0,1-45.1-7.985l.075-1h1.4V-.216a3.654,3.654,0,0,1-1.033,2.748,3.814,3.814,0,0,1-2.777,1,4.619,4.619,0,0,1-1.9-.415,3.272,3.272,0,0,1-1.419-1.137l.8-.921a3,3,0,0,0,2.416,1.22,2.353,2.353,0,0,0,1.747-.631,2.411,2.411,0,0,0,.627-1.776V-.9A3.156,3.156,0,0,1-47.68.166,3.068,3.068,0,0,1-50.232-1.1,5.55,5.55,0,0,1-51.208-4.565Zm1.544.174A4.027,4.027,0,0,0-49.041-2a2.023,2.023,0,0,0,1.743.867,2.249,2.249,0,0,0,2.133-1.32v-4.1a2.276,2.276,0,0,0-2.117-1.287,2.041,2.041,0,0,0-1.751.872A4.386,4.386,0,0,0-49.664-4.391ZM-35.76,0a3.226,3.226,0,0,1-.216-.946A3.426,3.426,0,0,1-38.532.166a3.17,3.17,0,0,1-2.179-.751,2.43,2.43,0,0,1-.851-1.905A2.539,2.539,0,0,1-40.5-4.669a5.029,5.029,0,0,1,3-.776H-36v-.706a1.725,1.725,0,0,0-.481-1.282A1.935,1.935,0,0,0-37.9-7.911a2.239,2.239,0,0,0-1.378.415,1.223,1.223,0,0,0-.556,1h-1.544a2.119,2.119,0,0,1,.477-1.3,3.258,3.258,0,0,1,1.295-.992,4.356,4.356,0,0,1,1.8-.365,3.551,3.551,0,0,1,2.432.776,2.8,2.8,0,0,1,.913,2.137V-2.1a5.054,5.054,0,0,0,.315,1.967V0Zm-2.548-1.17a2.7,2.7,0,0,0,1.37-.374A2.259,2.259,0,0,0-36-2.515V-4.358h-1.2q-2.822,0-2.822,1.652a1.4,1.4,0,0,0,.481,1.129A1.85,1.85,0,0,0-38.308-1.17Zm9.853.083a2.212,2.212,0,0,0,1.436-.5,1.752,1.752,0,0,0,.681-1.245h1.453a2.785,2.785,0,0,1-.531,1.469A3.5,3.5,0,0,1-26.724-.249a3.772,3.772,0,0,1-1.731.415,3.7,3.7,0,0,1-2.918-1.224,4.877,4.877,0,0,1-1.083-3.349v-.257A5.407,5.407,0,0,1-31.975-7a3.667,3.667,0,0,1,1.382-1.585,3.926,3.926,0,0,1,2.129-.564,3.6,3.6,0,0,1,2.511.9,3.234,3.234,0,0,1,1.067,2.349h-1.453A2.116,2.116,0,0,0-27-7.325a2.053,2.053,0,0,0-1.465-.56,2.149,2.149,0,0,0-1.814.843,3.957,3.957,0,0,0-.643,2.436v.291a3.878,3.878,0,0,0,.639,2.391A2.16,2.16,0,0,0-28.455-1.087ZM-21.491,0h-1.536V-8.981h1.536Zm-1.66-11.364a.917.917,0,0,1,.228-.631.857.857,0,0,1,.677-.257.87.87,0,0,1,.681.257.907.907,0,0,1,.232.631.877.877,0,0,1-.232.623.886.886,0,0,1-.681.249.872.872,0,0,1-.677-.249A.886.886,0,0,1-23.151-11.364Zm3.71,6.79a5.3,5.3,0,0,1,.519-2.374,3.87,3.87,0,0,1,1.444-1.627,3.932,3.932,0,0,1,2.113-.573A3.788,3.788,0,0,1-12.4-7.877,4.886,4.886,0,0,1-11.264-4.5v.108a5.351,5.351,0,0,1-.5,2.353A3.813,3.813,0,0,1-13.2-.415a3.977,3.977,0,0,1-2.146.581A3.778,3.778,0,0,1-18.307-1.1,4.861,4.861,0,0,1-19.44-4.466Zm1.544.183a3.842,3.842,0,0,0,.693,2.4,2.218,2.218,0,0,0,1.855.9A2.2,2.2,0,0,0-13.489-2,4.2,4.2,0,0,0-12.8-4.574a3.836,3.836,0,0,0-.7-2.395,2.23,2.23,0,0,0-1.864-.917,2.205,2.205,0,0,0-1.834.9A4.17,4.17,0,0,0-17.9-4.391Zm3.229-8.359h1.859l-2.225,2.44-1.237,0Zm6.782,3.769.05,1.129A3.273,3.273,0,0,1-5.146-9.147q2.847,0,2.872,3.212V0H-3.81V-5.943a2.068,2.068,0,0,0-.444-1.436,1.78,1.78,0,0,0-1.357-.465,2.216,2.216,0,0,0-1.312.4A2.706,2.706,0,0,0-7.8-6.4V0H-9.338V-8.981ZM3.876-4.565A5.261,5.261,0,0,1,4.856-7.89,3.1,3.1,0,0,1,7.421-9.147a3.115,3.115,0,0,1,2.5,1.079V-12.75h1.536V0H10.044L9.969-.963A3.127,3.127,0,0,1,7.4.166,3.068,3.068,0,0,1,4.86-1.112a5.321,5.321,0,0,1-.984-3.337Zm1.536.174A3.984,3.984,0,0,0,6.043-2a2.039,2.039,0,0,0,1.743.863A2.24,2.24,0,0,0,9.919-2.449V-6.574A2.257,2.257,0,0,0,7.8-7.844a2.049,2.049,0,0,0-1.76.872A4.386,4.386,0,0,0,5.412-4.391ZM17.564.166a3.924,3.924,0,0,1-2.972-1.2,4.452,4.452,0,0,1-1.146-3.208v-.282a5.39,5.39,0,0,1,.51-2.386,3.982,3.982,0,0,1,1.428-1.644,3.59,3.59,0,0,1,1.988-.594A3.364,3.364,0,0,1,20.1-7.994a5,5,0,0,1,.971,3.3v.639H14.983a3.193,3.193,0,0,0,.776,2.146,2.44,2.44,0,0,0,1.888.818,2.675,2.675,0,0,0,1.378-.332,3.462,3.462,0,0,0,.988-.88l.938.73A3.772,3.772,0,0,1,17.564.166Zm-.191-8.052a2.048,2.048,0,0,0-1.561.677,3.288,3.288,0,0,0-.78,1.9h4.5v-.116A2.925,2.925,0,0,0,18.9-7.242,1.928,1.928,0,0,0,17.374-7.886ZM28.5-8.981l.042,1A3.317,3.317,0,0,1,31.2-9.147,2.568,2.568,0,0,1,33.768-7.7a3.4,3.4,0,0,1,1.166-1.046,3.445,3.445,0,0,1,1.7-.4q2.955,0,3,3.129V0H38.1V-5.927a2.062,2.062,0,0,0-.44-1.44,1.937,1.937,0,0,0-1.478-.477,2.036,2.036,0,0,0-1.419.51,2.071,2.071,0,0,0-.656,1.374V0H32.564V-5.885a1.713,1.713,0,0,0-1.917-1.959A2.055,2.055,0,0,0,28.58-6.558V0H27.044V-8.981ZM45.679.166a3.924,3.924,0,0,1-2.972-1.2,4.452,4.452,0,0,1-1.146-3.208v-.282a5.39,5.39,0,0,1,.51-2.386A3.982,3.982,0,0,1,43.5-8.554a3.59,3.59,0,0,1,1.988-.594,3.364,3.364,0,0,1,2.723,1.154,5,5,0,0,1,.971,3.3v.639H43.1a3.193,3.193,0,0,0,.776,2.146,2.44,2.44,0,0,0,1.888.818,2.675,2.675,0,0,0,1.378-.332,3.462,3.462,0,0,0,.988-.88l.938.73A3.772,3.772,0,0,1,45.679.166Zm-.191-8.052a2.048,2.048,0,0,0-1.561.677,3.288,3.288,0,0,0-.78,1.9h4.5v-.116a2.925,2.925,0,0,0-.631-1.814A1.928,1.928,0,0,0,45.488-7.886ZM55.3-7.6a4.6,4.6,0,0,0-.755-.058,2.024,2.024,0,0,0-2.05,1.287V0H50.958V-8.981h1.494l.025,1.038a2.391,2.391,0,0,1,2.142-1.2,1.569,1.569,0,0,1,.681.116Zm4.856,6.516a2.212,2.212,0,0,0,1.436-.5,1.752,1.752,0,0,0,.681-1.245h1.453a2.785,2.785,0,0,1-.531,1.469A3.5,3.5,0,0,1,61.886-.249a3.772,3.772,0,0,1-1.731.415,3.7,3.7,0,0,1-2.918-1.224,4.877,4.877,0,0,1-1.083-3.349v-.257A5.407,5.407,0,0,1,56.636-7a3.667,3.667,0,0,1,1.382-1.585,3.926,3.926,0,0,1,2.129-.564,3.6,3.6,0,0,1,2.511.9,3.234,3.234,0,0,1,1.067,2.349H62.272a2.116,2.116,0,0,0-.66-1.432,2.053,2.053,0,0,0-1.465-.56,2.149,2.149,0,0,0-1.814.843,3.957,3.957,0,0,0-.643,2.436v.291a3.878,3.878,0,0,0,.639,2.391A2.16,2.16,0,0,0,60.156-1.087ZM71,0a3.226,3.226,0,0,1-.216-.946A3.426,3.426,0,0,1,68.224.166a3.17,3.17,0,0,1-2.179-.751,2.43,2.43,0,0,1-.851-1.905,2.539,2.539,0,0,1,1.067-2.179,5.029,5.029,0,0,1,3-.776h1.494v-.706a1.725,1.725,0,0,0-.481-1.282,1.935,1.935,0,0,0-1.419-.477,2.239,2.239,0,0,0-1.378.415,1.223,1.223,0,0,0-.556,1H65.377a2.119,2.119,0,0,1,.477-1.3,3.258,3.258,0,0,1,1.295-.992,4.356,4.356,0,0,1,1.8-.365,3.551,3.551,0,0,1,2.432.776,2.8,2.8,0,0,1,.913,2.137V-2.1a5.054,5.054,0,0,0,.315,1.967V0ZM68.448-1.17a2.7,2.7,0,0,0,1.37-.374,2.259,2.259,0,0,0,.938-.971V-4.358h-1.2q-2.822,0-2.822,1.652a1.4,1.4,0,0,0,.481,1.129A1.85,1.85,0,0,0,68.448-1.17Zm5.877-3.4A5.261,5.261,0,0,1,75.3-7.89,3.1,3.1,0,0,1,77.87-9.147a3.115,3.115,0,0,1,2.5,1.079V-12.75H81.9V0H80.493l-.075-.963A3.127,3.127,0,0,1,77.853.166a3.068,3.068,0,0,1-2.544-1.278,5.321,5.321,0,0,1-.984-3.337Zm1.536.174A3.984,3.984,0,0,0,76.492-2a2.039,2.039,0,0,0,1.743.863,2.24,2.24,0,0,0,2.133-1.312V-6.574a2.257,2.257,0,0,0-2.117-1.27,2.049,2.049,0,0,0-1.76.872A4.386,4.386,0,0,0,75.861-4.391Zm8.019-.183A5.3,5.3,0,0,1,84.4-6.948a3.87,3.87,0,0,1,1.444-1.627,3.932,3.932,0,0,1,2.113-.573,3.788,3.788,0,0,1,2.968,1.27A4.886,4.886,0,0,1,92.056-4.5v.108a5.351,5.351,0,0,1-.5,2.353A3.813,3.813,0,0,1,90.117-.415a3.977,3.977,0,0,1-2.146.581A3.778,3.778,0,0,1,85.012-1.1a4.861,4.861,0,0,1-1.133-3.362Zm1.544.183a3.842,3.842,0,0,0,.693,2.4,2.218,2.218,0,0,0,1.855.9A2.2,2.2,0,0,0,89.831-2a4.2,4.2,0,0,0,.689-2.569,3.836,3.836,0,0,0-.7-2.395,2.23,2.23,0,0,0-1.864-.917,2.205,2.205,0,0,0-1.834.9A4.17,4.17,0,0,0,85.423-4.391ZM99.211-2.382a1.131,1.131,0,0,0-.469-.967,4.514,4.514,0,0,0-1.635-.594,7.731,7.731,0,0,1-1.851-.6,2.633,2.633,0,0,1-1.013-.83,1.986,1.986,0,0,1-.328-1.146,2.33,2.33,0,0,1,.934-1.868,3.647,3.647,0,0,1,2.386-.764,3.753,3.753,0,0,1,2.478.789,2.5,2.5,0,0,1,.95,2.017H99.12a1.386,1.386,0,0,0-.535-1.087,2.006,2.006,0,0,0-1.349-.457,2.1,2.1,0,0,0-1.312.365,1.15,1.15,0,0,0-.473.955.932.932,0,0,0,.44.838,5.413,5.413,0,0,0,1.59.54,8.283,8.283,0,0,1,1.864.614,2.718,2.718,0,0,1,1.058.859,2.112,2.112,0,0,1,.344,1.224,2.3,2.3,0,0,1-.963,1.93,4.039,4.039,0,0,1-2.5.726,4.523,4.523,0,0,1-1.909-.382,3.105,3.105,0,0,1-1.3-1.067,2.571,2.571,0,0,1-.469-1.482h1.536a1.59,1.59,0,0,0,.618,1.224,2.4,2.4,0,0,0,1.523.452,2.476,2.476,0,0,0,1.4-.353A1.084,1.084,0,0,0,99.211-2.382Z" transform="translate(433 3794)" fill="#12263f"/>
      <path id="Trazado_610525" data-name="Trazado 610525" d="M-99.008,0V-12.086H-95.6a5.492,5.492,0,0,1,2.789.7A4.716,4.716,0,0,1-90.935-9.4a6.457,6.457,0,0,1,.668,2.955v.772a6.48,6.48,0,0,1-.66,3A4.642,4.642,0,0,1-92.811-.706,5.842,5.842,0,0,1-95.662,0Zm1.594-10.783V-1.3h1.677A3.648,3.648,0,0,0-92.869-2.45a4.737,4.737,0,0,0,1.025-3.265v-.706a4.812,4.812,0,0,0-.967-3.2,3.441,3.441,0,0,0-2.743-1.159ZM-86.432,0h-1.536V-8.981h1.536Zm-1.66-11.364a.917.917,0,0,1,.228-.631.857.857,0,0,1,.677-.257.87.87,0,0,1,.681.257.907.907,0,0,1,.232.631.877.877,0,0,1-.232.623.886.886,0,0,1-.681.249.872.872,0,0,1-.677-.249A.886.886,0,0,1-88.092-11.364ZM-78.43,0a3.226,3.226,0,0,1-.216-.946A3.426,3.426,0,0,1-81.2.166a3.17,3.17,0,0,1-2.179-.751,2.43,2.43,0,0,1-.851-1.905,2.539,2.539,0,0,1,1.067-2.179,5.029,5.029,0,0,1,3-.776h1.494v-.706a1.725,1.725,0,0,0-.481-1.282,1.935,1.935,0,0,0-1.419-.477,2.239,2.239,0,0,0-1.378.415,1.223,1.223,0,0,0-.556,1H-84.05a2.119,2.119,0,0,1,.477-1.3,3.258,3.258,0,0,1,1.295-.992,4.356,4.356,0,0,1,1.8-.365,3.551,3.551,0,0,1,2.432.776,2.8,2.8,0,0,1,.913,2.137V-2.1A5.054,5.054,0,0,0-76.82-.133V0Zm-2.548-1.17a2.7,2.7,0,0,0,1.37-.374,2.259,2.259,0,0,0,.938-.971V-4.358h-1.2q-2.822,0-2.822,1.652a1.4,1.4,0,0,0,.481,1.129A1.85,1.85,0,0,0-80.978-1.17Zm5.885-3.4a5.279,5.279,0,0,1,.971-3.341,3.106,3.106,0,0,1,2.573-1.241,3.09,3.09,0,0,1,2.565,1.162l.075-1h1.4V-.216A3.654,3.654,0,0,1-68.54,2.532a3.814,3.814,0,0,1-2.777,1,4.619,4.619,0,0,1-1.9-.415,3.272,3.272,0,0,1-1.419-1.137l.8-.921a3,3,0,0,0,2.416,1.22,2.353,2.353,0,0,0,1.747-.631A2.411,2.411,0,0,0-69.05-.125V-.9A3.156,3.156,0,0,1-71.565.166,3.068,3.068,0,0,1-74.118-1.1,5.55,5.55,0,0,1-75.093-4.565Zm1.544.174A4.027,4.027,0,0,0-72.927-2a2.023,2.023,0,0,0,1.743.867,2.249,2.249,0,0,0,2.133-1.32v-4.1a2.276,2.276,0,0,0-2.117-1.287,2.041,2.041,0,0,0-1.751.872A4.386,4.386,0,0,0-73.549-4.391Zm9.812-4.59.05,1.129A3.273,3.273,0,0,1-61-9.147q2.847,0,2.872,3.212V0h-1.536V-5.943a2.068,2.068,0,0,0-.444-1.436,1.78,1.78,0,0,0-1.357-.465,2.216,2.216,0,0,0-1.312.4,2.706,2.706,0,0,0-.88,1.046V0H-65.19V-8.981Zm7.521,4.408A5.3,5.3,0,0,1-55.7-6.948a3.87,3.87,0,0,1,1.444-1.627,3.932,3.932,0,0,1,2.113-.573,3.788,3.788,0,0,1,2.968,1.27A4.886,4.886,0,0,1-48.041-4.5v.108a5.351,5.351,0,0,1-.5,2.353A3.813,3.813,0,0,1-49.979-.415a3.977,3.977,0,0,1-2.146.581A3.778,3.778,0,0,1-55.084-1.1a4.861,4.861,0,0,1-1.133-3.362Zm1.544.183a3.842,3.842,0,0,0,.693,2.4,2.218,2.218,0,0,0,1.855.9A2.2,2.2,0,0,0-50.265-2a4.2,4.2,0,0,0,.689-2.569,3.836,3.836,0,0,0-.7-2.395,2.23,2.23,0,0,0-1.864-.917,2.205,2.205,0,0,0-1.834.9A4.17,4.17,0,0,0-54.673-4.391Zm3.229-8.359h1.859l-2.225,2.44-1.237,0ZM-40.885-2.382a1.13,1.13,0,0,0-.469-.967,4.514,4.514,0,0,0-1.635-.594,7.731,7.731,0,0,1-1.851-.6,2.633,2.633,0,0,1-1.013-.83,1.986,1.986,0,0,1-.328-1.146,2.33,2.33,0,0,1,.934-1.868,3.647,3.647,0,0,1,2.386-.764,3.753,3.753,0,0,1,2.478.789,2.5,2.5,0,0,1,.95,2.017h-1.544a1.386,1.386,0,0,0-.535-1.087,2.006,2.006,0,0,0-1.349-.457,2.1,2.1,0,0,0-1.312.365,1.15,1.15,0,0,0-.473.955.932.932,0,0,0,.44.838,5.413,5.413,0,0,0,1.59.54,8.283,8.283,0,0,1,1.864.614,2.718,2.718,0,0,1,1.058.859A2.112,2.112,0,0,1-39.35-2.49a2.3,2.3,0,0,1-.963,1.93,4.039,4.039,0,0,1-2.5.726A4.523,4.523,0,0,1-44.72-.216a3.105,3.105,0,0,1-1.3-1.067,2.571,2.571,0,0,1-.469-1.482h1.536a1.59,1.59,0,0,0,.618,1.224,2.4,2.4,0,0,0,1.523.452,2.476,2.476,0,0,0,1.4-.353A1.084,1.084,0,0,0-40.885-2.382Zm5.62-8.774v2.175h1.677v1.187h-1.677v5.577a1.247,1.247,0,0,0,.224.81.943.943,0,0,0,.764.27,3.718,3.718,0,0,0,.73-.1V0a4.478,4.478,0,0,1-1.179.165,1.912,1.912,0,0,1-1.552-.623A2.675,2.675,0,0,1-36.8-2.225v-5.57h-1.635V-8.981H-36.8v-2.175ZM-30.128,0h-1.536V-8.981h1.536Zm-1.66-11.364a.917.917,0,0,1,.228-.631.857.857,0,0,1,.677-.257.87.87,0,0,1,.681.257.907.907,0,0,1,.232.631.877.877,0,0,1-.232.623.886.886,0,0,1-.681.249.872.872,0,0,1-.677-.249A.886.886,0,0,1-31.788-11.364Zm7.72,10.276a2.212,2.212,0,0,0,1.436-.5,1.752,1.752,0,0,0,.681-1.245H-20.5a2.785,2.785,0,0,1-.531,1.469A3.5,3.5,0,0,1-22.337-.249a3.772,3.772,0,0,1-1.731.415,3.7,3.7,0,0,1-2.918-1.224,4.877,4.877,0,0,1-1.083-3.349v-.257A5.407,5.407,0,0,1-27.588-7a3.667,3.667,0,0,1,1.382-1.585,3.926,3.926,0,0,1,2.129-.564,3.6,3.6,0,0,1,2.511.9A3.234,3.234,0,0,1-20.5-5.894h-1.453a2.116,2.116,0,0,0-.66-1.432,2.053,2.053,0,0,0-1.465-.56,2.149,2.149,0,0,0-1.814.843,3.957,3.957,0,0,0-.643,2.436v.291a3.878,3.878,0,0,0,.639,2.391A2.16,2.16,0,0,0-24.068-1.087Zm4.889-3.486a5.3,5.3,0,0,1,.519-2.374,3.87,3.87,0,0,1,1.444-1.627A3.932,3.932,0,0,1-15.1-9.147a3.788,3.788,0,0,1,2.968,1.27A4.886,4.886,0,0,1-11-4.5v.108a5.351,5.351,0,0,1-.5,2.353A3.813,3.813,0,0,1-12.941-.415a3.977,3.977,0,0,1-2.146.581A3.778,3.778,0,0,1-18.046-1.1a4.861,4.861,0,0,1-1.133-3.362Zm1.544.183a3.842,3.842,0,0,0,.693,2.4,2.218,2.218,0,0,0,1.855.9A2.2,2.2,0,0,0-13.227-2a4.2,4.2,0,0,0,.689-2.569,3.836,3.836,0,0,0-.7-2.395A2.23,2.23,0,0,0-15.1-7.886a2.205,2.205,0,0,0-1.834.9A4.17,4.17,0,0,0-17.635-4.391Zm12.393-.174A5.261,5.261,0,0,1-4.262-7.89,3.1,3.1,0,0,1-1.7-9.147,3.115,3.115,0,0,1,.8-8.068V-12.75H2.337V0H.926L.851-.963A3.127,3.127,0,0,1-1.714.166,3.068,3.068,0,0,1-4.258-1.112a5.321,5.321,0,0,1-.984-3.337Zm1.536.174A3.984,3.984,0,0,0-3.075-2a2.039,2.039,0,0,0,1.743.863A2.24,2.24,0,0,0,.8-2.449V-6.574a2.257,2.257,0,0,0-2.117-1.27,2.049,2.049,0,0,0-1.76.872A4.386,4.386,0,0,0-3.706-4.391ZM8.446.166a3.924,3.924,0,0,1-2.972-1.2A4.452,4.452,0,0,1,4.329-4.242v-.282a5.39,5.39,0,0,1,.51-2.386A3.982,3.982,0,0,1,6.267-8.554a3.59,3.59,0,0,1,1.988-.594,3.364,3.364,0,0,1,2.723,1.154,5,5,0,0,1,.971,3.3v.639H5.865a3.193,3.193,0,0,0,.776,2.146,2.44,2.44,0,0,0,1.888.818,2.675,2.675,0,0,0,1.378-.332,3.462,3.462,0,0,0,.988-.88l.938.73A3.772,3.772,0,0,1,8.446.166ZM8.255-7.886a2.048,2.048,0,0,0-1.561.677,3.288,3.288,0,0,0-.78,1.9h4.5v-.116a2.925,2.925,0,0,0-.631-1.814A1.928,1.928,0,0,0,8.255-7.886ZM19.6,0H18.067V-12.75H19.6Zm8,0a3.226,3.226,0,0,1-.216-.946A3.426,3.426,0,0,1,24.832.166a3.17,3.17,0,0,1-2.179-.751A2.43,2.43,0,0,1,21.8-2.49a2.539,2.539,0,0,1,1.067-2.179,5.029,5.029,0,0,1,3-.776h1.494v-.706a1.725,1.725,0,0,0-.481-1.282,1.935,1.935,0,0,0-1.419-.477,2.239,2.239,0,0,0-1.378.415,1.223,1.223,0,0,0-.556,1H21.985a2.119,2.119,0,0,1,.477-1.3,3.258,3.258,0,0,1,1.295-.992,4.356,4.356,0,0,1,1.8-.365,3.551,3.551,0,0,1,2.432.776A2.8,2.8,0,0,1,28.9-6.234V-2.1a5.054,5.054,0,0,0,.315,1.967V0ZM25.056-1.17a2.7,2.7,0,0,0,1.37-.374,2.259,2.259,0,0,0,.938-.971V-4.358h-1.2q-2.822,0-2.822,1.652a1.4,1.4,0,0,0,.481,1.129A1.85,1.85,0,0,0,25.056-1.17ZM39.242.166a3.924,3.924,0,0,1-2.972-1.2,4.452,4.452,0,0,1-1.146-3.208v-.282a5.39,5.39,0,0,1,.51-2.386,3.982,3.982,0,0,1,1.428-1.644,3.59,3.59,0,0,1,1.988-.594,3.364,3.364,0,0,1,2.723,1.154,5,5,0,0,1,.971,3.3v.639H36.66a3.193,3.193,0,0,0,.776,2.146,2.44,2.44,0,0,0,1.888.818A2.675,2.675,0,0,0,40.7-1.419a3.462,3.462,0,0,0,.988-.88l.938.73A3.772,3.772,0,0,1,39.242.166Zm-.191-8.052a2.048,2.048,0,0,0-1.561.677,3.288,3.288,0,0,0-.78,1.9h4.5v-.116a2.925,2.925,0,0,0-.631-1.814A1.928,1.928,0,0,0,39.051-7.886Zm6.915-1.1.042,1a3.317,3.317,0,0,1,2.665-1.162A2.568,2.568,0,0,1,51.237-7.7,3.4,3.4,0,0,1,52.4-8.749a3.445,3.445,0,0,1,1.7-.4q2.955,0,3,3.129V0H55.57V-5.927a2.062,2.062,0,0,0-.44-1.44,1.937,1.937,0,0,0-1.478-.477,2.036,2.036,0,0,0-1.419.51,2.071,2.071,0,0,0-.656,1.374V0H50.033V-5.885a1.713,1.713,0,0,0-1.917-1.959,2.055,2.055,0,0,0-2.067,1.287V0H44.513V-8.981Zm21.042,4.59a5.378,5.378,0,0,1-.938,3.3A3.006,3.006,0,0,1,63.53.166,3.294,3.294,0,0,1,60.957-.872V3.453H59.421V-8.981h1.4l.075,1a3.163,3.163,0,0,1,2.606-1.162,3.063,3.063,0,0,1,2.561,1.22,5.437,5.437,0,0,1,.942,3.4Zm-1.536-.174a3.968,3.968,0,0,0-.647-2.4,2.086,2.086,0,0,0-1.776-.88,2.257,2.257,0,0,0-2.092,1.237v4.292a2.262,2.262,0,0,0,2.108,1.229,2.076,2.076,0,0,0,1.756-.876A4.332,4.332,0,0,0,65.472-4.565ZM73.3-7.6a4.6,4.6,0,0,0-.755-.058,2.024,2.024,0,0,0-2.05,1.287V0H68.959V-8.981h1.494l.025,1.038a2.391,2.391,0,0,1,2.142-1.2,1.569,1.569,0,0,1,.681.116Zm4.98,7.77a3.924,3.924,0,0,1-2.972-1.2,4.452,4.452,0,0,1-1.146-3.208v-.282a5.39,5.39,0,0,1,.51-2.386A3.982,3.982,0,0,1,76.1-8.554a3.59,3.59,0,0,1,1.988-.594,3.364,3.364,0,0,1,2.723,1.154,5,5,0,0,1,.971,3.3v.639H75.7a3.193,3.193,0,0,0,.776,2.146,2.44,2.44,0,0,0,1.888.818,2.675,2.675,0,0,0,1.378-.332,3.462,3.462,0,0,0,.988-.88l.938.73A3.772,3.772,0,0,1,78.281.166ZM78.09-7.886a2.048,2.048,0,0,0-1.561.677,3.288,3.288,0,0,0-.78,1.9h4.5v-.116a2.925,2.925,0,0,0-.631-1.814A1.928,1.928,0,0,0,78.09-7.886Zm10.7,5.5a1.131,1.131,0,0,0-.469-.967,4.514,4.514,0,0,0-1.635-.594,7.731,7.731,0,0,1-1.851-.6,2.633,2.633,0,0,1-1.013-.83,1.986,1.986,0,0,1-.328-1.146,2.33,2.33,0,0,1,.934-1.868,3.647,3.647,0,0,1,2.386-.764,3.753,3.753,0,0,1,2.478.789,2.5,2.5,0,0,1,.95,2.017H88.7a1.386,1.386,0,0,0-.535-1.087,2.006,2.006,0,0,0-1.349-.457,2.1,2.1,0,0,0-1.312.365,1.15,1.15,0,0,0-.473.955.932.932,0,0,0,.44.838,5.413,5.413,0,0,0,1.59.54,8.283,8.283,0,0,1,1.864.614,2.718,2.718,0,0,1,1.058.859,2.112,2.112,0,0,1,.344,1.224,2.3,2.3,0,0,1-.963,1.93,4.039,4.039,0,0,1-2.5.726,4.523,4.523,0,0,1-1.909-.382,3.105,3.105,0,0,1-1.3-1.067,2.571,2.571,0,0,1-.469-1.482h1.536A1.59,1.59,0,0,0,85.34-1.54a2.4,2.4,0,0,0,1.523.452,2.476,2.476,0,0,0,1.4-.353A1.084,1.084,0,0,0,88.789-2.382ZM97.87,0a3.226,3.226,0,0,1-.216-.946A3.426,3.426,0,0,1,95.1.166a3.17,3.17,0,0,1-2.179-.751,2.43,2.43,0,0,1-.851-1.905,2.539,2.539,0,0,1,1.067-2.179,5.029,5.029,0,0,1,3-.776H97.63v-.706a1.725,1.725,0,0,0-.481-1.282,1.935,1.935,0,0,0-1.419-.477,2.239,2.239,0,0,0-1.378.415,1.223,1.223,0,0,0-.556,1H92.251a2.119,2.119,0,0,1,.477-1.3,3.258,3.258,0,0,1,1.295-.992,4.356,4.356,0,0,1,1.8-.365,3.551,3.551,0,0,1,2.432.776,2.8,2.8,0,0,1,.913,2.137V-2.1a5.054,5.054,0,0,0,.315,1.967V0ZM95.322-1.17a2.7,2.7,0,0,0,1.37-.374,2.259,2.259,0,0,0,.938-.971V-4.358h-1.2q-2.822,0-2.822,1.652a1.4,1.4,0,0,0,.481,1.129A1.85,1.85,0,0,0,95.322-1.17Z" transform="translate(433 3871)" fill="#12263f"/>
      <path id="Trazado_610526" data-name="Trazado 610526" d="M-56.342-3.163h-5.063L-62.542,0h-1.644l4.615-12.086h1.395L-53.552,0h-1.635Zm-4.582-1.3h4.109l-2.059-5.653Zm10.21-4.516.05,1.129a3.273,3.273,0,0,1,2.689-1.295q2.847,0,2.872,3.212V0h-1.536V-5.943a2.068,2.068,0,0,0-.444-1.436,1.78,1.78,0,0,0-1.357-.465,2.216,2.216,0,0,0-1.312.4,2.706,2.706,0,0,0-.88,1.046V0h-1.536V-8.981ZM-37.241,0a3.226,3.226,0,0,1-.216-.946A3.426,3.426,0,0,1-40.014.166a3.17,3.17,0,0,1-2.179-.751,2.43,2.43,0,0,1-.851-1.905,2.539,2.539,0,0,1,1.067-2.179,5.029,5.029,0,0,1,3-.776h1.494v-.706a1.725,1.725,0,0,0-.481-1.282,1.935,1.935,0,0,0-1.419-.477,2.239,2.239,0,0,0-1.378.415,1.223,1.223,0,0,0-.556,1h-1.544a2.119,2.119,0,0,1,.477-1.3,3.258,3.258,0,0,1,1.295-.992,4.356,4.356,0,0,1,1.8-.365,3.551,3.551,0,0,1,2.432.776,2.8,2.8,0,0,1,.913,2.137V-2.1a5.054,5.054,0,0,0,.315,1.967V0ZM-39.79-1.17a2.7,2.7,0,0,0,1.37-.374,2.259,2.259,0,0,0,.938-.971V-4.358h-1.2q-2.822,0-2.822,1.652a1.4,1.4,0,0,0,.481,1.129A1.85,1.85,0,0,0-39.79-1.17Zm1.419-11.58h1.859l-2.225,2.44-1.237,0ZM-31.871,0h-1.536V-12.75h1.536Zm4.125,0h-1.536V-8.981h1.536Zm-1.66-11.364a.917.917,0,0,1,.228-.631.857.857,0,0,1,.677-.257.87.87,0,0,1,.681.257.907.907,0,0,1,.232.631.877.877,0,0,1-.232.623.886.886,0,0,1-.681.249.872.872,0,0,1-.677-.249A.886.886,0,0,1-29.406-11.364Zm9.347,8.981a1.131,1.131,0,0,0-.469-.967,4.514,4.514,0,0,0-1.635-.594,7.731,7.731,0,0,1-1.851-.6,2.633,2.633,0,0,1-1.013-.83,1.986,1.986,0,0,1-.328-1.146,2.33,2.33,0,0,1,.934-1.868,3.647,3.647,0,0,1,2.386-.764,3.753,3.753,0,0,1,2.478.789,2.5,2.5,0,0,1,.95,2.017H-20.15a1.386,1.386,0,0,0-.535-1.087,2.006,2.006,0,0,0-1.349-.457,2.1,2.1,0,0,0-1.312.365,1.15,1.15,0,0,0-.473.955.932.932,0,0,0,.44.838,5.413,5.413,0,0,0,1.59.54,8.283,8.283,0,0,1,1.864.614,2.718,2.718,0,0,1,1.058.859,2.112,2.112,0,0,1,.344,1.224,2.3,2.3,0,0,1-.963,1.93,4.039,4.039,0,0,1-2.5.726,4.523,4.523,0,0,1-1.909-.382,3.105,3.105,0,0,1-1.3-1.067,2.571,2.571,0,0,1-.469-1.482h1.536a1.59,1.59,0,0,0,.618,1.224,2.4,2.4,0,0,0,1.523.452,2.476,2.476,0,0,0,1.4-.353A1.084,1.084,0,0,0-20.059-2.382ZM-14.854,0H-16.39V-8.981h1.536Zm-1.66-11.364a.917.917,0,0,1,.228-.631.857.857,0,0,1,.677-.257.87.87,0,0,1,.681.257.907.907,0,0,1,.232.631.877.877,0,0,1-.232.623.886.886,0,0,1-.681.249.872.872,0,0,1-.677-.249A.886.886,0,0,1-16.514-11.364Zm9.347,8.981a1.131,1.131,0,0,0-.469-.967,4.514,4.514,0,0,0-1.635-.594,7.731,7.731,0,0,1-1.851-.6,2.633,2.633,0,0,1-1.013-.83,1.986,1.986,0,0,1-.328-1.146,2.33,2.33,0,0,1,.934-1.868,3.647,3.647,0,0,1,2.386-.764,3.753,3.753,0,0,1,2.478.789,2.5,2.5,0,0,1,.95,2.017H-7.259a1.386,1.386,0,0,0-.535-1.087,2.006,2.006,0,0,0-1.349-.457,2.1,2.1,0,0,0-1.312.365,1.15,1.15,0,0,0-.473.955.932.932,0,0,0,.44.838,5.413,5.413,0,0,0,1.59.54,8.283,8.283,0,0,1,1.864.614,2.718,2.718,0,0,1,1.058.859A2.112,2.112,0,0,1-5.632-2.49,2.3,2.3,0,0,1-6.595-.56a4.039,4.039,0,0,1-2.5.726A4.523,4.523,0,0,1-11-.216a3.105,3.105,0,0,1-1.3-1.067,2.571,2.571,0,0,1-.469-1.482h1.536a1.59,1.59,0,0,0,.618,1.224,2.4,2.4,0,0,0,1.523.452,2.476,2.476,0,0,0,1.4-.353A1.084,1.084,0,0,0-7.168-2.382Zm12.974,0a1.131,1.131,0,0,0-.469-.967A4.514,4.514,0,0,0,3.7-3.943a7.731,7.731,0,0,1-1.851-.6,2.633,2.633,0,0,1-1.013-.83A1.986,1.986,0,0,1,.51-6.516a2.33,2.33,0,0,1,.934-1.868,3.647,3.647,0,0,1,2.386-.764,3.753,3.753,0,0,1,2.478.789,2.5,2.5,0,0,1,.95,2.017H5.715A1.386,1.386,0,0,0,5.18-7.429a2.006,2.006,0,0,0-1.349-.457,2.1,2.1,0,0,0-1.312.365,1.15,1.15,0,0,0-.473.955.932.932,0,0,0,.44.838,5.413,5.413,0,0,0,1.59.54,8.283,8.283,0,0,1,1.864.614A2.718,2.718,0,0,1,7-3.715,2.112,2.112,0,0,1,7.342-2.49,2.3,2.3,0,0,1,6.379-.56a4.039,4.039,0,0,1-2.5.726A4.523,4.523,0,0,1,1.971-.216a3.105,3.105,0,0,1-1.3-1.067A2.571,2.571,0,0,1,.2-2.764H1.739A1.59,1.59,0,0,0,2.357-1.54a2.4,2.4,0,0,0,1.523.452,2.476,2.476,0,0,0,1.4-.353A1.084,1.084,0,0,0,5.806-2.382ZM13.07.166a3.924,3.924,0,0,1-2.972-1.2A4.452,4.452,0,0,1,8.952-4.242v-.282a5.39,5.39,0,0,1,.51-2.386,3.982,3.982,0,0,1,1.428-1.644,3.59,3.59,0,0,1,1.988-.594A3.364,3.364,0,0,1,15.6-7.994a5,5,0,0,1,.971,3.3v.639H10.488a3.193,3.193,0,0,0,.776,2.146,2.44,2.44,0,0,0,1.888.818,2.675,2.675,0,0,0,1.378-.332,3.462,3.462,0,0,0,.988-.88l.938.73A3.772,3.772,0,0,1,13.07.166Zm-.191-8.052a2.048,2.048,0,0,0-1.561.677,3.288,3.288,0,0,0-.78,1.9h4.5v-.116a2.925,2.925,0,0,0-.631-1.814A1.928,1.928,0,0,0,12.879-7.886Zm9.073,6.8a2.212,2.212,0,0,0,1.436-.5,1.752,1.752,0,0,0,.681-1.245h1.453a2.785,2.785,0,0,1-.531,1.469A3.5,3.5,0,0,1,23.682-.249a3.772,3.772,0,0,1-1.731.415,3.7,3.7,0,0,1-2.918-1.224A4.877,4.877,0,0,1,17.95-4.408v-.257A5.407,5.407,0,0,1,18.432-7a3.667,3.667,0,0,1,1.382-1.585,3.926,3.926,0,0,1,2.129-.564,3.6,3.6,0,0,1,2.511.9,3.234,3.234,0,0,1,1.067,2.349H24.068a2.116,2.116,0,0,0-.66-1.432,2.053,2.053,0,0,0-1.465-.56,2.149,2.149,0,0,0-1.814.843,3.957,3.957,0,0,0-.643,2.436v.291a3.878,3.878,0,0,0,.639,2.391A2.16,2.16,0,0,0,21.951-1.087Zm7.379-10.069v2.175h1.677v1.187H29.331v5.577a1.247,1.247,0,0,0,.224.81.943.943,0,0,0,.764.27,3.718,3.718,0,0,0,.73-.1V0A4.478,4.478,0,0,1,29.87.166a1.912,1.912,0,0,1-1.552-.623A2.675,2.675,0,0,1,27.8-2.225v-5.57H26.16V-8.981H27.8v-2.175Zm2.9,6.583a5.3,5.3,0,0,1,.519-2.374,3.87,3.87,0,0,1,1.444-1.627A3.932,3.932,0,0,1,36.3-9.147a3.788,3.788,0,0,1,2.968,1.27A4.886,4.886,0,0,1,40.4-4.5v.108a5.351,5.351,0,0,1-.5,2.353A3.813,3.813,0,0,1,38.466-.415,3.977,3.977,0,0,1,36.32.166,3.778,3.778,0,0,1,33.361-1.1a4.861,4.861,0,0,1-1.133-3.362Zm1.544.183a3.842,3.842,0,0,0,.693,2.4,2.218,2.218,0,0,0,1.855.9A2.2,2.2,0,0,0,38.179-2a4.2,4.2,0,0,0,.689-2.569,3.836,3.836,0,0,0-.7-2.395A2.23,2.23,0,0,0,36.3-7.886a2.205,2.205,0,0,0-1.834.9A4.17,4.17,0,0,0,33.772-4.391ZM46.671-7.6a4.6,4.6,0,0,0-.755-.058,2.024,2.024,0,0,0-2.05,1.287V0H42.33V-8.981h1.494l.025,1.038a2.391,2.391,0,0,1,2.142-1.2,1.569,1.569,0,0,1,.681.116ZM49.751,0H48.215V-8.981h1.536Zm-1.66-11.364a.917.917,0,0,1,.228-.631A.857.857,0,0,1,49-12.252a.87.87,0,0,1,.681.257.907.907,0,0,1,.232.631.877.877,0,0,1-.232.623.886.886,0,0,1-.681.249.872.872,0,0,1-.677-.249A.886.886,0,0,1,48.091-11.364ZM57.753,0a3.226,3.226,0,0,1-.216-.946A3.426,3.426,0,0,1,54.98.166,3.17,3.17,0,0,1,52.8-.585,2.43,2.43,0,0,1,51.95-2.49a2.539,2.539,0,0,1,1.067-2.179,5.029,5.029,0,0,1,3-.776h1.494v-.706a1.725,1.725,0,0,0-.481-1.282,1.935,1.935,0,0,0-1.419-.477,2.239,2.239,0,0,0-1.378.415,1.223,1.223,0,0,0-.556,1H52.133a2.119,2.119,0,0,1,.477-1.3,3.258,3.258,0,0,1,1.295-.992,4.356,4.356,0,0,1,1.8-.365,3.551,3.551,0,0,1,2.432.776,2.8,2.8,0,0,1,.913,2.137V-2.1a5.054,5.054,0,0,0,.315,1.967V0ZM55.2-1.17a2.7,2.7,0,0,0,1.37-.374,2.259,2.259,0,0,0,.938-.971V-4.358h-1.2q-2.822,0-2.822,1.652a1.4,1.4,0,0,0,.481,1.129A1.85,1.85,0,0,0,55.2-1.17ZM63.123,0H61.588V-12.75h1.536Z" transform="translate(433 3948)" fill="#12263f"/>
      <rect id="Rectángulo_377877" data-name="Rectángulo 377877" width="295" height="161" rx="36" transform="translate(285 3509)" fill="#e7effb"/>
      <path id="Trazado_610522" data-name="Trazado 610522" d="M4.254,0H1.178V-12.8H4.254ZM5.889-4.825a5.809,5.809,0,0,1,.976-3.56,3.211,3.211,0,0,1,2.725-1.3,2.731,2.731,0,0,1,2.145,1V-13.5H14.7V0H12.041l-.149-1.02a2.8,2.8,0,0,1-2.32,1.2,3.205,3.205,0,0,1-2.689-1.3A5.993,5.993,0,0,1,5.889-4.825Zm2.962.185q0,2.531,1.477,2.531a1.458,1.458,0,0,0,1.406-.826V-6.557A1.419,1.419,0,0,0,10.345-7.4q-1.371,0-1.485,2.215ZM20.988.176a4.889,4.889,0,0,1-3.542-1.305,4.507,4.507,0,0,1-1.354-3.4v-.246a5.84,5.84,0,0,1,.541-2.575,3.955,3.955,0,0,1,1.578-1.727,4.763,4.763,0,0,1,2.461-.611,4.117,4.117,0,0,1,3.164,1.244A4.887,4.887,0,0,1,25-4.975v1.151H19.107A2.135,2.135,0,0,0,19.8-2.566a2.066,2.066,0,0,0,1.389.457,2.662,2.662,0,0,0,2.2-.984l1.354,1.6A3.784,3.784,0,0,1,23.172-.277,5.3,5.3,0,0,1,20.988.176ZM20.654-7.4q-1.3,0-1.547,1.723H22.1v-.229a1.467,1.467,0,0,0-.36-1.1A1.434,1.434,0,0,0,20.654-7.4ZM31.544,0a3.344,3.344,0,0,1-.281-.853A2.754,2.754,0,0,1,28.978.176a3.374,3.374,0,0,1-2.285-.813,2.588,2.588,0,0,1-.94-2.043,2.66,2.66,0,0,1,1.143-2.338,5.821,5.821,0,0,1,3.322-.791h.914v-.5q0-1.316-1.134-1.316a.927.927,0,0,0-1.055,1.042H25.98a2.655,2.655,0,0,1,1.173-2.239,4.931,4.931,0,0,1,2.993-.86,4.323,4.323,0,0,1,2.874.888A3.086,3.086,0,0,1,34.1-6.363v4.21a4.311,4.311,0,0,0,.4,2V0ZM29.689-1.934a1.652,1.652,0,0,0,.918-.237,1.487,1.487,0,0,0,.523-.536V-4.228H30.27q-1.547,0-1.547,1.389A.848.848,0,0,0,29-2.184.986.986,0,0,0,29.689-1.934Zm11.03-.738a.684.684,0,0,0-.4-.606,6.016,6.016,0,0,0-1.5-.475A6.853,6.853,0,0,1,36.993-4.4a3.062,3.062,0,0,1-1.1-.971,2.319,2.319,0,0,1-.378-1.31A2.628,2.628,0,0,1,36.6-8.837a4.453,4.453,0,0,1,2.83-.848,4.934,4.934,0,0,1,3.023.853,2.666,2.666,0,0,1,1.143,2.241H40.623q0-1.143-1.2-1.143a1.194,1.194,0,0,0-.782.259.8.8,0,0,0-.316.646.737.737,0,0,0,.387.642,3.654,3.654,0,0,0,1.235.4,10.671,10.671,0,0,1,1.49.378A2.706,2.706,0,0,1,43.576-2.76,2.491,2.491,0,0,1,42.42-.642a5.068,5.068,0,0,1-2.993.817,5.172,5.172,0,0,1-2.18-.439,3.645,3.645,0,0,1-1.494-1.2,2.707,2.707,0,0,1-.536-1.591h2.769a1.145,1.145,0,0,0,.439.962,1.808,1.808,0,0,0,1.081.3,1.422,1.422,0,0,0,.91-.246A.787.787,0,0,0,40.72-2.672Zm8.35-2.153a5.809,5.809,0,0,1,.976-3.56,3.211,3.211,0,0,1,2.725-1.3,2.731,2.731,0,0,1,2.145,1V-13.5h2.971V0H55.222l-.149-1.02a2.8,2.8,0,0,1-2.32,1.2,3.205,3.205,0,0,1-2.689-1.3A5.993,5.993,0,0,1,49.069-4.825Zm2.962.185q0,2.531,1.477,2.531a1.458,1.458,0,0,0,1.406-.826V-6.557A1.419,1.419,0,0,0,53.525-7.4q-1.371,0-1.485,2.215ZM64.169.176a4.889,4.889,0,0,1-3.542-1.305,4.507,4.507,0,0,1-1.354-3.4v-.246a5.84,5.84,0,0,1,.541-2.575,3.955,3.955,0,0,1,1.578-1.727,4.763,4.763,0,0,1,2.461-.611,4.117,4.117,0,0,1,3.164,1.244,4.887,4.887,0,0,1,1.16,3.467v1.151H62.288a2.135,2.135,0,0,0,.694,1.257,2.066,2.066,0,0,0,1.389.457,2.662,2.662,0,0,0,2.2-.984l1.354,1.6A3.784,3.784,0,0,1,66.353-.277,5.3,5.3,0,0,1,64.169.176ZM63.835-7.4q-1.3,0-1.547,1.723h2.988v-.229a1.467,1.467,0,0,0-.36-1.1A1.434,1.434,0,0,0,63.835-7.4ZM76.57-9.51l.1,1.116a3.225,3.225,0,0,1,2.716-1.292A2.713,2.713,0,0,1,81.6-8.8a4.226,4.226,0,0,1,.76,2.672V0H79.392V-6a1.6,1.6,0,0,0-.29-1.059A1.342,1.342,0,0,0,78.047-7.4a1.413,1.413,0,0,0-1.292.686V0H73.793V-9.51ZM88.6.176a4.889,4.889,0,0,1-3.542-1.305,4.507,4.507,0,0,1-1.354-3.4v-.246a5.84,5.84,0,0,1,.541-2.575,3.955,3.955,0,0,1,1.578-1.727,4.763,4.763,0,0,1,2.461-.611A4.117,4.117,0,0,1,91.45-8.442a4.887,4.887,0,0,1,1.16,3.467v1.151H86.722a2.135,2.135,0,0,0,.694,1.257,2.066,2.066,0,0,0,1.389.457A2.662,2.662,0,0,0,91-3.094l1.354,1.6A3.784,3.784,0,0,1,90.787-.277,5.3,5.3,0,0,1,88.6.176ZM88.269-7.4q-1.3,0-1.547,1.723H89.71v-.229a1.467,1.467,0,0,0-.36-1.1A1.434,1.434,0,0,0,88.269-7.4Zm5.186,2.575a6.421,6.421,0,0,1,.475-2.549,3.821,3.821,0,0,1,1.362-1.709,3.591,3.591,0,0,1,2.065-.6,2.855,2.855,0,0,1,2.32,1l.105-.826h2.689V-.36a4.009,4.009,0,0,1-.584,2.184A3.75,3.75,0,0,1,100.2,3.248a6.219,6.219,0,0,1-2.566.5,5.365,5.365,0,0,1-2.026-.4A3.657,3.657,0,0,1,94.1,2.32L95.344.58a2.716,2.716,0,0,0,2.18.976A1.764,1.764,0,0,0,99.492-.466v-.3a2.781,2.781,0,0,1-2.153.94,3.437,3.437,0,0,1-2.812-1.332A5.517,5.517,0,0,1,93.454-4.72Zm2.971.185a3.383,3.383,0,0,0,.439,1.85,1.386,1.386,0,0,0,1.23.681,1.573,1.573,0,0,0,1.4-.642v-4a1.534,1.534,0,0,0-1.38-.65,1.4,1.4,0,0,0-1.239.708A3.858,3.858,0,0,0,96.425-4.641Zm7.356-.2a5.613,5.613,0,0,1,.554-2.536,3.96,3.96,0,0,1,1.591-1.709,4.791,4.791,0,0,1,2.435-.6,4.373,4.373,0,0,1,3.366,1.323,5.076,5.076,0,0,1,1.23,3.6v.105a4.925,4.925,0,0,1-1.235,3.529A4.384,4.384,0,0,1,108.378.176a4.434,4.434,0,0,1-3.261-1.217,4.761,4.761,0,0,1-1.327-3.3Zm2.962.185a3.538,3.538,0,0,0,.413,1.934,1.376,1.376,0,0,0,1.222.615q1.582,0,1.617-2.435v-.3Q110-7.4,108.36-7.4q-1.485,0-1.608,2.206Zm11.54,2.549a1.317,1.317,0,0,0,.967-.338,1.241,1.241,0,0,0,.334-.945h2.777a3.288,3.288,0,0,1-1.121,2.566,4.168,4.168,0,0,1-2.887,1,4.22,4.22,0,0,1-3.27-1.3,5.125,5.125,0,0,1-1.2-3.6v-.123A5.792,5.792,0,0,1,114.42-7.4a3.872,3.872,0,0,1,1.534-1.7,4.573,4.573,0,0,1,2.373-.593,4.116,4.116,0,0,1,2.944,1.028,3.647,3.647,0,0,1,1.09,2.786h-2.777A1.626,1.626,0,0,0,119.224-7a1.244,1.244,0,0,0-.967-.4q-1.151,0-1.345,1.468a10.357,10.357,0,0,0-.062,1.283,4.068,4.068,0,0,0,.343,1.986A1.187,1.187,0,0,0,118.283-2.109ZM126.738,0h-2.971V-9.51h2.971Zm-3.146-11.962A1.322,1.322,0,0,1,124.049-13a1.724,1.724,0,0,1,1.187-.4,1.724,1.724,0,0,1,1.187.4,1.322,1.322,0,0,1,.457,1.037,1.322,1.322,0,0,1-.457,1.037,1.724,1.724,0,0,1-1.187.4,1.724,1.724,0,0,1-1.187-.4A1.322,1.322,0,0,1,123.592-11.962Zm4.6,7.119a5.613,5.613,0,0,1,.554-2.536,3.96,3.96,0,0,1,1.591-1.709,4.791,4.791,0,0,1,2.435-.6,4.373,4.373,0,0,1,3.366,1.323,5.076,5.076,0,0,1,1.23,3.6v.105a4.925,4.925,0,0,1-1.235,3.529A4.384,4.384,0,0,1,132.785.176a4.434,4.434,0,0,1-3.261-1.217,4.761,4.761,0,0,1-1.327-3.3Zm2.962.185a3.538,3.538,0,0,0,.413,1.934,1.376,1.376,0,0,0,1.222.615q1.582,0,1.617-2.435v-.3q0-2.558-1.635-2.558-1.485,0-1.608,2.206Z" transform="translate(370 3638.618)" fill="#12263f"/>
      <g id="Grupo_1072426" data-name="Grupo 1072426" transform="translate(404.357 3525.732)">
        <g id="Grupo_1072421" data-name="Grupo 1072421" clip-path="url(#clip-path-12)">
          <path id="Trazado_609952" data-name="Trazado 609952" d="M17.119,96.772q-6.564,0-13.127,0c-.615,0-.62-.005-.766.606-.184.768-.184,1.563-.319,2.338a34.347,34.347,0,0,0-.337,5.757,30.818,30.818,0,0,0,.593,6.192A21.961,21.961,0,0,0,6.5,119.9c.328.478.679.939,1.013,1.413a.952.952,0,0,1-.025,1.216,1.25,1.25,0,0,1-1.225.6,1.158,1.158,0,0,1-.7-.457,17.77,17.77,0,0,1-1.815-2.609,26.282,26.282,0,0,1-2.867-7.4,41.244,41.244,0,0,1-.7-4.73A23.643,23.643,0,0,1,.086,103a45.366,45.366,0,0,1,.662-5.6c.154-.692.236-1.4.43-2.086a1.341,1.341,0,0,1,1.379-1.076c.24-.006.481-.01.722,0,.19.007.247-.028.172-.238-.379-1.07-.739-2.147-1.109-3.221-.16-.465-.323-.928-.5-1.388a2.717,2.717,0,0,1-.066-1.614c.528-2.255.942-4.534,1.443-6.795.36-1.621.628-3.261,1.043-4.87a1.136,1.136,0,0,1,1.816-.736,29.386,29.386,0,0,1,2.331,1.916c2.335,1.948,4.655,3.915,6.982,5.873a2.375,2.375,0,0,1,.727,1.105c.806,2.4,1.628,4.8,2.443,7.195.285.837.572,1.674.842,2.516a.324.324,0,0,0,.377.257c1.532-.008,3.063-.01,4.594,0,.251,0,.311-.062.31-.306q-.013-3.448,0-6.9a1.312,1.312,0,0,1,.9-1.433,1.254,1.254,0,0,1,1.532,1.06c-.023.951.014,1.9.016,2.856,0,1.489,0,2.977-.01,4.466,0,.212.062.258.259.253.5-.012,1.007-.022,1.509.007.3.017.362-.083.361-.365-.01-2.3,0-4.6-.008-6.9a1.257,1.257,0,0,1,.6-1.223,1.226,1.226,0,0,1,1.664.381,1.877,1.877,0,0,1,.271,1.031c0,2.244,0,4.488-.008,6.732,0,.274.067.341.343.336,1.016-.018,2.034-.05,3.05.016.207.013.27-.108.337-.244q.824-1.658,1.642-3.319,2.543-5.2,5.081-10.4.742-1.516,1.486-3.031A4.153,4.153,0,0,1,47.378,74.8a3.523,3.523,0,0,1,1.745.384c1.877.91,3.762,1.805,5.618,2.757a3.994,3.994,0,0,1,1.818,5.424c-1.583,3.288-3.2,6.558-4.807,9.836-.139.284-.273.572-.422.852-.08.15-.066.237.117.22.777-.07,1.342.768,1.333,1.525a20.574,20.574,0,0,0,.263,3.662,26.985,26.985,0,0,0,3.566,9.517,4.374,4.374,0,0,1,.675,2.191,3.808,3.808,0,0,1-3.3,3.726c-.246.019-.3.114-.325.334a22.861,22.861,0,0,1-.481,3.075A18.653,18.653,0,0,1,34.9,132.482c-.886-.005-1.772.009-2.657-.015-.276-.007-.208.152-.208.289q0,2.4,0,4.794c0,1.21-.4,1.6-1.619,1.6H11.874c-.109,0-.219,0-.328-.006a1.263,1.263,0,0,1-1.3-1.385q-.01-5.665,0-11.329a1.07,1.07,0,0,1,.677-1.131,15.158,15.158,0,0,0,4.414-2.724,19.2,19.2,0,0,0,4.926-6.075c.079-.152.177-.259-.1-.339a6.633,6.633,0,0,1-3.734-2.731,6.837,6.837,0,0,1,3.254-10.265,6.548,6.548,0,0,1,6.392.942,5.152,5.152,0,0,1,.739.6c.2.205.335.188.532-.008a11.835,11.835,0,0,0,2.074-2.776,12.011,12.011,0,0,0,1.369-4.483c.07-.666.078-.665-.608-.665H17.119Zm4.031,39.935v0c2.724,0,5.448,0,8.172.006.237,0,.267-.085.264-.285-.011-.668-.01-1.335-.006-2,.005-1.029,0-2.058.03-3.086a1.207,1.207,0,0,1,1.348-1.311c.164,0,.328,0,.492,0,1.313,0,2.626.013,3.938-.011a15.653,15.653,0,0,0,5.019-.85A16.124,16.124,0,0,0,50.813,117.72a14.9,14.9,0,0,0,.391-3.774,1.312,1.312,0,0,1,1.263-1.427c.38-.038.765-.01,1.147-.034a1.236,1.236,0,0,0,1.166-.929,1.56,1.56,0,0,0-.247-1.339,29.465,29.465,0,0,1-4.228-13.1c-.027-.3-.116-.345-.387-.345q-8.155.012-16.311,0c-.223,0-.28.067-.283.271a5.453,5.453,0,0,1-.063.752,15.439,15.439,0,0,1-3.125,7.4,11.822,11.822,0,0,1-2.451,2.358,1.152,1.152,0,0,1-1.672-.172c-.159-.166-.3-.353-.453-.519a4.585,4.585,0,0,0-4.222-1.629,4.386,4.386,0,0,0-3.225,6.262,4.1,4.1,0,0,0,3.95,2.493,1.242,1.242,0,0,1,1.223,1.727c-.063.186-.142.367-.221.547a22,22,0,0,1-4.3,6.467,22.369,22.369,0,0,1-5.854,4.388.379.379,0,0,0-.237.4c.061,2.966.049,5.932.014,8.9,0,.235.064.295.295.294,2.724-.008,5.448-.005,8.172-.005M43.407,94.224c.077,0,.153,0,.23,0,1.563.021,3.126-.047,4.689.038.173.009.254-.095.32-.23a10.724,10.724,0,0,1,.606-1.2c.176-.268.1-.357-.136-.473q-1.605-.78-3.2-1.578a1.114,1.114,0,0,1-.619-1.416,1.153,1.153,0,0,1,1.489-.821,3.911,3.911,0,0,1,.8.365c.907.478,1.865.856,2.742,1.391.144.088.166-.013.209-.1.573-1.179,1.143-2.359,1.722-3.535.093-.19.041-.259-.141-.339-.459-.2-.907-.431-1.357-.655a4,4,0,0,1-.825-.466,1.094,1.094,0,0,1-.194-1.528,1.057,1.057,0,0,1,1.365-.5,15.883,15.883,0,0,1,2.117,1.033c.175.1.209.013.264-.091.337-.637.645-1.288.944-1.945a1.515,1.515,0,0,0-.061-1.349,1.693,1.693,0,0,0-.86-.816c-1.737-.847-3.47-1.7-5.216-2.532a1.661,1.661,0,0,0-2.437.88q-1.9,3.886-3.8,7.773-1.947,3.972-3.906,7.937c-.086.175-.031.207.137.2,1.705-.095,3.411-.024,5.117-.048M7.786,87.648c.379.022.86.046,1.34.081a.461.461,0,0,0,.381-.137c1.086-1.016,2.172-2.031,3.27-3.033.2-.182.2-.276-.008-.449Q10.506,82.216,8.26,80.3c-.084-.071-.159-.114-.262-.063-.658.327-1.389.45-2.062.736a.454.454,0,0,0-.3.377c-.178.911-.36,1.821-.573,2.723-.232.977-.341,1.98-.642,2.943-.06.192-.122.426.228.435,1.016.026,2.02.229,3.141.2m6.994,6.584c0,.007,0,.015,0,.022.655,0,1.311,0,1.965,0,.166,0,.205-.02.143-.2q-1.265-3.682-2.51-7.371c-.068-.2-.114-.256-.294-.083-.741.711-1.5,1.406-2.241,2.114-.76.725-.746.725-.4,1.717.408,1.185.8,2.376,1.186,3.569a.28.28,0,0,0,.322.233c.611-.009,1.223,0,1.835,0m-6.671,0v.006c.59,0,1.179-.006,1.769,0,.2,0,.255-.044.182-.242-.105-.286-.185-.581-.28-.871q-.433-1.32-.87-2.64c-.05-.151-.111-.265-.31-.277q-1.813-.116-3.625-.258c-.267-.021-.355.025-.252.312.443,1.231.822,2.483,1.281,3.709.077.205.162.267.368.262.579-.012,1.158,0,1.737,0" transform="translate(0 -55.1)" fill="#615842"/>
          <path id="Trazado_609953" data-name="Trazado 609953" d="M79.623,10.376c1.433,0,2.866-.009,4.3.007.309,0,.373-.068.294-.369a14.1,14.1,0,0,0-3.058-5.661A18.461,18.461,0,0,0,78.9,2.161,1.124,1.124,0,0,1,78.5.9,1.2,1.2,0,0,1,79.564.009a1.272,1.272,0,0,1,1.01.383,21.123,21.123,0,0,1,3.537,3.818,15.836,15.836,0,0,1,2.629,5.919,13.09,13.09,0,0,1,.317,2.865c-.022,1.674.031,3.349-.049,5.022-.011.234.111.327.283.424a3.643,3.643,0,0,1,1.9,2.646,4.731,4.731,0,0,1,.071.816q-.013,3.645-.041,7.289a1.24,1.24,0,0,1-1.846,1.188A1.976,1.976,0,0,1,86.8,29.8c-.666-.868-1.331-1.736-1.986-2.612-.134-.18-.211-.212-.4-.049A7.366,7.366,0,0,1,79.66,29a7.259,7.259,0,0,1-4.946-1.781c-.246-.206-.341-.186-.531.074-.678.926-1.385,1.832-2.1,2.734a1.273,1.273,0,0,1-1.441.511,1.3,1.3,0,0,1-.853-1.333c0-2.331-.009-4.662,0-6.994a3.981,3.981,0,0,1,2.181-3.791c.172-.09.179-.221.179-.38,0-1.5.02-3-.005-4.5a14.94,14.94,0,0,1,1.227-6.122,14.5,14.5,0,0,1,1.25-2.338,1.145,1.145,0,0,1,1.537-.447,1.172,1.172,0,0,1,.56,1.613,2.891,2.891,0,0,1-.208.372,14.281,14.281,0,0,0-1.506,3.406c-.107.34-.071.38.283.38h4.331v-.029M79.6,12.858c-1.575,0-3.15,0-4.724,0-.2,0-.288.042-.287.27,0,1.575-.007,3.151-.019,4.726,0,.165.033.271.207.313a3.25,3.25,0,0,1,.83.383,3.412,3.412,0,0,1,1.337,4.692c-.32.521-.618,1.057-.964,1.562-.088.129-.11.212.02.33a4.788,4.788,0,0,0,2.842,1.358,5.066,5.066,0,0,0,4.193-1.349c.154-.148.172-.239.039-.431a11.921,11.921,0,0,1-1.242-2.229,2.09,2.09,0,0,1-.142-1.221,3.915,3.915,0,0,1,2.677-3.123c.161-.057.225-.11.224-.287-.011-1.554-.018-3.107-.009-4.661,0-.284-.095-.339-.357-.337-1.542.012-3.084.006-4.626.007m7.175,12.821c.058-.371.083-3.747.053-4.081a1.314,1.314,0,0,0-.734-1.057,1.367,1.367,0,0,0-1.66.366.987.987,0,0,0-.067,1.317A32.367,32.367,0,0,0,86.427,25.3c.1.127.155.292.344.381m-14.479,0,.085.037c.251-.35.505-.7.752-1.05a25.007,25.007,0,0,0,1.779-2.743.7.7,0,0,0,0-.683,1.429,1.429,0,0,0-1.514-.78,1.326,1.326,0,0,0-1.069,1.33c-.015,1.146-.024,2.293-.036,3.439,0,.151,0,.3,0,.452" transform="translate(-51.411 0)" fill="#615842"/>
          <path id="Trazado_609954" data-name="Trazado 609954" d="M182.4,40.706c0,.109,0,.219,0,.328a1.137,1.137,0,0,1-1.513,1.205,1.043,1.043,0,0,1-.919-1,5.792,5.792,0,0,1-.038-1.08c0-.195-.051-.276-.258-.266-.305.015-.612.006-.918,0a1.214,1.214,0,0,1-1.276-1.106,1.194,1.194,0,0,1,1.107-1.423,6.826,6.826,0,0,1,1.113,0c.211.011.269-.056.249-.259a4.57,4.57,0,0,1,.022-1.145,1.181,1.181,0,0,1,1.3-1.029,1.128,1.128,0,0,1,1.128,1.194,7.865,7.865,0,0,1-.013.853c-.03.3.058.417.373.387a4.239,4.239,0,0,1,.949.023,1.278,1.278,0,0,1,1.152,1.282,1.33,1.33,0,0,1-1.273,1.225,8.521,8.521,0,0,1-.852,0c-.25-.017-.371.05-.336.324a3.973,3.973,0,0,1,0,.492Z" transform="translate(-130.743 -25.729)" fill="#615842"/>
          <path id="Trazado_609955" data-name="Trazado 609955" d="M29.425,28.026c-.788-.006-.789-.006-.784.785a2.93,2.93,0,0,1-.062.717,1.093,1.093,0,0,1-1.282.9,1.129,1.129,0,0,1-1.148-1.11c-.018-.349-.013-.7,0-1.05.006-.181-.043-.253-.237-.244-.305.014-.612,0-.918,0a1.239,1.239,0,0,1-1.265-1.2A1.219,1.219,0,0,1,24.9,25.54a9.844,9.844,0,0,1,1.017-.005c.186.007.237-.04.234-.235a4.867,4.867,0,0,1,.051-1.275,1.271,1.271,0,0,1,1.171-.933,1.174,1.174,0,0,1,1.2.914,4.252,4.252,0,0,1,.062,1.241c-.009.232.057.3.292.3a5.78,5.78,0,0,1,1.178.032,1.227,1.227,0,0,1,.961,1.454,1.11,1.11,0,0,1-1.148.994c-.164,0-.328,0-.492,0" transform="translate(-17.478 -17.011)" fill="#615842"/>
          <path id="Trazado_609956" data-name="Trazado 609956" d="M147.685,5.811c0-.775,0-.773-.783-.775a1.78,1.78,0,0,1-1.048-.175,1.278,1.278,0,0,1-.583-1.351,1.175,1.175,0,0,1,1.129-.969c.337-.028.677-.025,1.016-.026.19,0,.266-.061.254-.27-.02-.327-.008-.656,0-.984A1.131,1.131,0,0,1,148.827.093a1.15,1.15,0,0,1,1.3,1.018,4.293,4.293,0,0,1,.008,1.113c-.024.248.062.33.311.314a8,8,0,0,1,.95,0,1.178,1.178,0,0,1,1.168,1.3,1.177,1.177,0,0,1-1.246,1.2c-.306,0-.613.009-.918,0-.2-.008-.269.047-.259.259a8.5,8.5,0,0,1-.018,1.049,1.139,1.139,0,0,1-1.239,1.083,1.119,1.119,0,0,1-1.2-1.153c-.006-.153,0-.306,0-.459" transform="translate(-106.993 -0.066)" fill="#615842"/>
          <path id="Trazado_609957" data-name="Trazado 609957" d="M145.725,172.48a4.6,4.6,0,0,1,4.521,3.826,1.741,1.741,0,0,1-.12,1.3,1.219,1.219,0,0,1-1.313.526,1.164,1.164,0,0,1-.926-.865,1.875,1.875,0,0,1-.064-.487A2,2,0,0,0,146,174.963a1.956,1.956,0,0,0-2.207,1.825,3.509,3.509,0,0,1-.081.517,1.184,1.184,0,0,1-1.44.83,1.142,1.142,0,0,1-.965-1.18,4.553,4.553,0,0,1,3.787-4.4,3.066,3.066,0,0,1,.634-.074" transform="translate(-104.095 -127.061)" fill="#615842"/>
          <path id="Trazado_609958" data-name="Trazado 609958" d="M80.5,203.235a1.23,1.23,0,0,1-1.2,1.22,1.311,1.311,0,0,1-1.15-1.262,1.242,1.242,0,0,1,1.243-1.218,1.182,1.182,0,0,1,1.109,1.261" transform="translate(-57.571 -148.788)" fill="#615842"/>
        </g>
      </g>
    </g>
  </g>
</svg>
