<svg xmlns="http://www.w3.org/2000/svg" xmlns:xlink="http://www.w3.org/1999/xlink" width="1030" height="622" viewBox="0 0 1030 622">
  <defs>
    <clipPath id="clip-path">
      <path id="Trazado_610516" data-name="Trazado 610516" d="M0,0H1030V622H0Z" transform="translate(265 2993)" fill="none"/>
    </clipPath>
    <clipPath id="clip-path-2">
      <rect id="Rectángulo_377796" data-name="Rectángulo 377796" width="605.232" height="606.637" rx="172" fill="none"/>
    </clipPath>
    <clipPath id="clip-path-3">
      <rect id="Rectángulo_377822" data-name="Rectángulo 377822" width="542.142" height="606.637" fill="none"/>
    </clipPath>
    <clipPath id="clip-path-5">
      <rect id="Rectángulo_377799" data-name="Rectángulo 377799" width="188.333" height="207.801" fill="none"/>
    </clipPath>
    <clipPath id="clip-path-6">
      <rect id="Rectángulo_377800" data-name="Rectángulo 377800" width="172.255" height="198.931" fill="none"/>
    </clipPath>
    <clipPath id="clip-path-7">
      <rect id="Rectángulo_377802" data-name="Rectángulo 377802" width="152.035" height="130.72" fill="none"/>
    </clipPath>
    <clipPath id="clip-path-8">
      <rect id="Rectángulo_377803" data-name="Rectángulo 377803" width="105.034" height="108.771" fill="none"/>
    </clipPath>
    <clipPath id="clip-path-9">
      <rect id="Rectángulo_377804" data-name="Rectángulo 377804" width="197.444" height="175.168" fill="none"/>
    </clipPath>
    <clipPath id="clip-path-10">
      <rect id="Rectángulo_377807" data-name="Rectángulo 377807" width="300.049" height="122.986" fill="none"/>
    </clipPath>
    <clipPath id="clip-path-11">
      <rect id="Rectángulo_377809" data-name="Rectángulo 377809" width="150.021" height="122.992" fill="none"/>
    </clipPath>
    <clipPath id="clip-path-12">
      <rect id="Rectángulo_377819" data-name="Rectángulo 377819" width="150.021" height="15.409" fill="none"/>
    </clipPath>
    <clipPath id="clip-path-13">
      <rect id="Rectángulo_377820" data-name="Rectángulo 377820" width="181.989" height="33.646" fill="none"/>
    </clipPath>
    <clipPath id="clip-path-14">
      <rect id="Rectángulo_377823" data-name="Rectángulo 377823" width="69.007" height="101.248" fill="#615842"/>
    </clipPath>
  </defs>
  <g id="Enmascarar_grupo_154342" data-name="Enmascarar grupo 154342" transform="translate(-265 -2993)" clip-path="url(#clip-path)">
    <g id="Grupo_1072363" data-name="Grupo 1072363">
      <g id="Grupo_1072324" data-name="Grupo 1072324" transform="translate(624.768 3000.699)">
        <g id="Grupo_1072323" data-name="Grupo 1072323" clip-path="url(#clip-path-2)">
          <path id="Trazado_609499" data-name="Trazado 609499" d="M246.732,272.037H25.306A25.38,25.38,0,0,1,0,246.732V25.306A25.38,25.38,0,0,1,25.306,0H246.732a25.38,25.38,0,0,1,25.306,25.306V246.732a25.38,25.38,0,0,1-25.306,25.306" fill="#fff8e7"/>
          <path id="Trazado_609500" data-name="Trazado 609500" d="M441.166,272.037H219.74a25.38,25.38,0,0,1-25.306-25.306V25.306A25.38,25.38,0,0,1,219.74,0H441.166a25.381,25.381,0,0,1,25.306,25.306V246.732a25.381,25.381,0,0,1-25.306,25.306" transform="translate(138.761 0)" fill="#fff8e7"/>
          <path id="Trazado_609501" data-name="Trazado 609501" d="M246.732,467.291H25.306A25.38,25.38,0,0,1,0,441.986V220.56a25.38,25.38,0,0,1,25.306-25.306H246.732a25.38,25.38,0,0,1,25.306,25.306V441.986a25.38,25.38,0,0,1-25.306,25.306" transform="translate(0 139.346)" fill="#fff8e7"/>
          <path id="Trazado_609502" data-name="Trazado 609502" d="M441.166,467.291H219.74a25.38,25.38,0,0,1-25.306-25.306V220.56a25.38,25.38,0,0,1,25.306-25.306H441.166a25.381,25.381,0,0,1,25.306,25.306V441.986a25.381,25.381,0,0,1-25.306,25.306" transform="translate(138.761 139.346)" fill="#fff8e7"/>
          <path id="Trazado_609503" data-name="Trazado 609503" d="M341.561,352.722l.123-.01-2.319-56.174c-3.16-40.028,26.9-82.235,35.339-93.222a66.253,66.253,0,0,0-68.113-108l-.072-.108-15.985,5.736a195.806,195.806,0,0,1-123.087,11.266l-2.466-.578-.276.411A66.26,66.26,0,0,0,90.121,219.259c.545.538,1.107,1.047,1.667,1.563l-.069.1,31.235,29.463a154.4,154.4,0,0,1,45.751,83.589l4.677,24.706a84.149,84.149,0,1,0,168.177-5.958" transform="translate(50.216 66.029)" fill="#94eeff"/>
          <path id="Trazado_609504" data-name="Trazado 609504" d="M241.525,369.618c31.682-24.745,83.522-22.92,97.268-21.942a66.253,66.253,0,0,0,52.495-116.389l.05-.122L377.736,221a195.815,195.815,0,0,1-77.293-96.455l-.877-2.373-.5,0A66.26,66.26,0,0,0,168.5,119.1c-.147.751-.262,1.5-.382,2.252H168l-7.348,42.305a154.376,154.376,0,0,1-44.485,84.269L98.134,265.452a84.149,84.149,0,1,0,97.739,136.99l.077.1Z" transform="translate(54.062 36.799)" fill="#e7effb"/>
          <path id="Trazado_609505" data-name="Trazado 609505" d="M213.029,128.44a2.148,2.148,0,1,1-2.164-2.132,2.149,2.149,0,0,1,2.164,2.132" transform="translate(148.965 90.141)" fill="#fff"/>
          <path id="Trazado_609506" data-name="Trazado 609506" d="M213.08,135.249a2.148,2.148,0,1,1-2.164-2.132,2.149,2.149,0,0,1,2.164,2.132" transform="translate(149.002 95.001)" fill="#fff"/>
          <path id="Trazado_609507" data-name="Trazado 609507" d="M213.131,142.057a2.148,2.148,0,1,1-2.164-2.132,2.15,2.15,0,0,1,2.164,2.132" transform="translate(149.038 99.859)" fill="#fff"/>
          <path id="Trazado_609508" data-name="Trazado 609508" d="M213.181,148.866a2.148,2.148,0,1,1-2.164-2.132,2.149,2.149,0,0,1,2.164,2.132" transform="translate(149.074 104.719)" fill="#fff"/>
          <path id="Trazado_609509" data-name="Trazado 609509" d="M221.062,128.38a2.148,2.148,0,1,1-2.164-2.132,2.149,2.149,0,0,1,2.164,2.132" transform="translate(154.698 90.099)" fill="#fff"/>
          <path id="Trazado_609510" data-name="Trazado 609510" d="M221.113,135.189a2.148,2.148,0,1,1-2.164-2.132,2.149,2.149,0,0,1,2.164,2.132" transform="translate(154.735 94.958)" fill="#fff"/>
          <path id="Trazado_609511" data-name="Trazado 609511" d="M221.163,142A2.148,2.148,0,1,1,219,139.865,2.149,2.149,0,0,1,221.163,142" transform="translate(154.77 99.817)" fill="#fff"/>
          <path id="Trazado_609512" data-name="Trazado 609512" d="M221.214,148.806a2.148,2.148,0,1,1-2.164-2.132,2.149,2.149,0,0,1,2.164,2.132" transform="translate(154.807 104.676)" fill="#fff"/>
          <path id="Trazado_609513" data-name="Trazado 609513" d="M229.1,128.32a2.148,2.148,0,1,1-2.164-2.132,2.149,2.149,0,0,1,2.164,2.132" transform="translate(160.431 90.056)" fill="#fff"/>
          <path id="Trazado_609514" data-name="Trazado 609514" d="M229.146,135.129A2.148,2.148,0,1,1,226.982,133a2.149,2.149,0,0,1,2.164,2.132" transform="translate(160.467 94.915)" fill="#fff"/>
          <path id="Trazado_609515" data-name="Trazado 609515" d="M229.2,141.937a2.148,2.148,0,1,1-2.164-2.132,2.149,2.149,0,0,1,2.164,2.132" transform="translate(160.504 99.774)" fill="#fff"/>
          <path id="Trazado_609516" data-name="Trazado 609516" d="M229.247,148.746a2.148,2.148,0,1,1-2.164-2.132,2.149,2.149,0,0,1,2.164,2.132" transform="translate(160.539 104.633)" fill="#fff"/>
          <path id="Trazado_609517" data-name="Trazado 609517" d="M237.128,128.26a2.148,2.148,0,1,1-2.164-2.132,2.149,2.149,0,0,1,2.164,2.132" transform="translate(166.164 90.013)" fill="#fff"/>
          <path id="Trazado_609518" data-name="Trazado 609518" d="M237.179,135.069a2.148,2.148,0,1,1-2.164-2.132,2.149,2.149,0,0,1,2.164,2.132" transform="translate(166.2 94.872)" fill="#fff"/>
          <path id="Trazado_609519" data-name="Trazado 609519" d="M237.23,141.877a2.148,2.148,0,1,1-2.164-2.132,2.149,2.149,0,0,1,2.164,2.132" transform="translate(166.237 99.731)" fill="#fff"/>
          <path id="Trazado_609520" data-name="Trazado 609520" d="M237.282,148.686a2.149,2.149,0,1,1-2.164-2.132,2.151,2.151,0,0,1,2.164,2.132" transform="translate(166.272 104.59)" fill="#fff"/>
          <path id="Trazado_609521" data-name="Trazado 609521" d="M245.161,128.2A2.148,2.148,0,1,1,243,126.068a2.149,2.149,0,0,1,2.164,2.132" transform="translate(171.897 89.97)" fill="#fff"/>
          <path id="Trazado_609522" data-name="Trazado 609522" d="M245.212,135.007a2.148,2.148,0,1,1-2.164-2.13,2.147,2.147,0,0,1,2.164,2.13" transform="translate(171.933 94.83)" fill="#fff"/>
          <path id="Trazado_609523" data-name="Trazado 609523" d="M245.263,141.817a2.148,2.148,0,1,1-2.164-2.132,2.149,2.149,0,0,1,2.164,2.132" transform="translate(171.97 99.688)" fill="#fff"/>
          <path id="Trazado_609524" data-name="Trazado 609524" d="M245.314,148.626a2.148,2.148,0,1,1-2.164-2.132,2.149,2.149,0,0,1,2.164,2.132" transform="translate(172.006 104.548)" fill="#fff"/>
          <path id="Trazado_609525" data-name="Trazado 609525" d="M253.194,128.14a2.148,2.148,0,1,1-2.164-2.132,2.149,2.149,0,0,1,2.164,2.132" transform="translate(177.63 89.927)" fill="#fff"/>
          <path id="Trazado_609526" data-name="Trazado 609526" d="M253.245,134.949a2.148,2.148,0,1,1-2.164-2.132,2.149,2.149,0,0,1,2.164,2.132" transform="translate(177.666 94.787)" fill="#fff"/>
          <path id="Trazado_609527" data-name="Trazado 609527" d="M253.3,141.757a2.148,2.148,0,1,1-2.164-2.132,2.149,2.149,0,0,1,2.164,2.132" transform="translate(177.702 99.645)" fill="#fff"/>
          <path id="Trazado_609528" data-name="Trazado 609528" d="M253.347,148.566a2.148,2.148,0,1,1-2.164-2.132,2.149,2.149,0,0,1,2.164,2.132" transform="translate(177.739 104.505)" fill="#fff"/>
          <path id="Trazado_609529" data-name="Trazado 609529" d="M161.1,239.5a2.148,2.148,0,1,1-2.164-2.132A2.149,2.149,0,0,1,161.1,239.5" transform="translate(111.905 169.401)" fill="#fff"/>
          <path id="Trazado_609530" data-name="Trazado 609530" d="M161.15,246.308a2.148,2.148,0,1,1-2.164-2.132,2.149,2.149,0,0,1,2.164,2.132" transform="translate(111.941 174.26)" fill="#fff"/>
          <path id="Trazado_609531" data-name="Trazado 609531" d="M161.2,253.117a2.148,2.148,0,1,1-2.164-2.132,2.149,2.149,0,0,1,2.164,2.132" transform="translate(111.977 179.119)" fill="#fff"/>
          <path id="Trazado_609532" data-name="Trazado 609532" d="M161.251,259.925a2.148,2.148,0,1,1-2.164-2.132,2.149,2.149,0,0,1,2.164,2.132" transform="translate(112.013 183.978)" fill="#fff"/>
          <path id="Trazado_609533" data-name="Trazado 609533" d="M169.132,239.44a2.148,2.148,0,1,1-2.164-2.132,2.149,2.149,0,0,1,2.164,2.132" transform="translate(117.638 169.358)" fill="#fff"/>
          <path id="Trazado_609534" data-name="Trazado 609534" d="M169.183,246.248a2.148,2.148,0,1,1-2.164-2.132,2.149,2.149,0,0,1,2.164,2.132" transform="translate(117.674 174.217)" fill="#fff"/>
          <path id="Trazado_609535" data-name="Trazado 609535" d="M169.234,253.057a2.148,2.148,0,1,1-2.164-2.132,2.15,2.15,0,0,1,2.164,2.132" transform="translate(117.71 179.076)" fill="#fff"/>
          <path id="Trazado_609536" data-name="Trazado 609536" d="M169.284,259.865a2.148,2.148,0,1,1-2.164-2.132,2.149,2.149,0,0,1,2.164,2.132" transform="translate(117.746 183.935)" fill="#fff"/>
          <path id="Trazado_609537" data-name="Trazado 609537" d="M177.165,239.38A2.148,2.148,0,1,1,175,237.248a2.149,2.149,0,0,1,2.164,2.132" transform="translate(123.37 169.315)" fill="#fff"/>
          <path id="Trazado_609538" data-name="Trazado 609538" d="M177.216,246.188a2.148,2.148,0,1,1-2.164-2.132,2.149,2.149,0,0,1,2.164,2.132" transform="translate(123.407 174.174)" fill="#fff"/>
          <path id="Trazado_609539" data-name="Trazado 609539" d="M177.267,253a2.148,2.148,0,1,1-2.164-2.13,2.148,2.148,0,0,1,2.164,2.13" transform="translate(123.443 179.033)" fill="#fff"/>
          <path id="Trazado_609540" data-name="Trazado 609540" d="M177.319,259.8a2.149,2.149,0,1,1-2.164-2.132,2.15,2.15,0,0,1,2.164,2.132" transform="translate(123.479 183.892)" fill="#fff"/>
          <path id="Trazado_609541" data-name="Trazado 609541" d="M185.2,239.32a2.148,2.148,0,1,1-2.164-2.132,2.149,2.149,0,0,1,2.164,2.132" transform="translate(129.103 169.273)" fill="#fff"/>
          <path id="Trazado_609542" data-name="Trazado 609542" d="M185.249,246.128A2.148,2.148,0,1,1,183.085,244a2.149,2.149,0,0,1,2.164,2.132" transform="translate(129.14 174.131)" fill="#fff"/>
          <path id="Trazado_609543" data-name="Trazado 609543" d="M185.3,252.937a2.148,2.148,0,1,1-2.164-2.132,2.149,2.149,0,0,1,2.164,2.132" transform="translate(129.176 178.991)" fill="#fff"/>
          <path id="Trazado_609544" data-name="Trazado 609544" d="M185.35,259.745a2.148,2.148,0,1,1-2.164-2.132,2.149,2.149,0,0,1,2.164,2.132" transform="translate(129.212 183.849)" fill="#fff"/>
          <path id="Trazado_609545" data-name="Trazado 609545" d="M193.231,239.259a2.148,2.148,0,1,1-2.164-2.132,2.149,2.149,0,0,1,2.164,2.132" transform="translate(134.836 169.229)" fill="#fff"/>
          <path id="Trazado_609546" data-name="Trazado 609546" d="M193.282,246.068a2.148,2.148,0,1,1-2.164-2.132,2.149,2.149,0,0,1,2.164,2.132" transform="translate(134.873 174.088)" fill="#fff"/>
          <path id="Trazado_609547" data-name="Trazado 609547" d="M193.333,252.876a2.148,2.148,0,1,1-2.164-2.132,2.149,2.149,0,0,1,2.164,2.132" transform="translate(134.909 178.947)" fill="#fff"/>
          <path id="Trazado_609548" data-name="Trazado 609548" d="M193.384,259.685a2.148,2.148,0,1,1-2.164-2.132,2.149,2.149,0,0,1,2.164,2.132" transform="translate(134.945 183.806)" fill="#fff"/>
          <path id="Trazado_609549" data-name="Trazado 609549" d="M201.264,239.2a2.148,2.148,0,1,1-2.164-2.132,2.149,2.149,0,0,1,2.164,2.132" transform="translate(140.569 169.186)" fill="#fff"/>
          <path id="Trazado_609550" data-name="Trazado 609550" d="M201.315,246.008a2.148,2.148,0,1,1-2.164-2.132,2.149,2.149,0,0,1,2.164,2.132" transform="translate(140.605 174.046)" fill="#fff"/>
          <path id="Trazado_609551" data-name="Trazado 609551" d="M201.366,252.816a2.148,2.148,0,1,1-2.164-2.132,2.149,2.149,0,0,1,2.164,2.132" transform="translate(140.642 178.904)" fill="#fff"/>
          <path id="Trazado_609552" data-name="Trazado 609552" d="M201.417,259.625a2.148,2.148,0,1,1-2.164-2.132,2.149,2.149,0,0,1,2.164,2.132" transform="translate(140.678 183.764)" fill="#fff"/>
          <path id="Trazado_609553" data-name="Trazado 609553" d="M123.055,116.568a2.148,2.148,0,1,1,2.132-2.164,2.149,2.149,0,0,1-2.132,2.164" transform="translate(86.276 80.124)" fill="#fff"/>
          <path id="Trazado_609554" data-name="Trazado 609554" d="M116.247,116.619a2.148,2.148,0,1,1,2.132-2.164,2.149,2.149,0,0,1-2.132,2.164" transform="translate(81.417 80.161)" fill="#fff"/>
          <path id="Trazado_609555" data-name="Trazado 609555" d="M109.438,116.668a2.147,2.147,0,1,1,2.132-2.163,2.147,2.147,0,0,1-2.132,2.163" transform="translate(76.558 80.197)" fill="#fff"/>
          <path id="Trazado_609556" data-name="Trazado 609556" d="M102.63,116.72a2.148,2.148,0,1,1,2.132-2.164,2.149,2.149,0,0,1-2.132,2.164" transform="translate(71.699 80.233)" fill="#fff"/>
          <path id="Trazado_609557" data-name="Trazado 609557" d="M123.117,124.6a2.148,2.148,0,1,1,2.13-2.164,2.149,2.149,0,0,1-2.13,2.164" transform="translate(86.318 85.857)" fill="#fff"/>
          <path id="Trazado_609558" data-name="Trazado 609558" d="M116.307,124.652a2.148,2.148,0,1,1,2.132-2.164,2.149,2.149,0,0,1-2.132,2.164" transform="translate(81.46 85.894)" fill="#fff"/>
          <path id="Trazado_609559" data-name="Trazado 609559" d="M109.5,124.7a2.148,2.148,0,1,1,2.13-2.164,2.149,2.149,0,0,1-2.13,2.164" transform="translate(76.601 85.93)" fill="#fff"/>
          <path id="Trazado_609560" data-name="Trazado 609560" d="M102.69,124.752a2.147,2.147,0,1,1,2.132-2.163,2.147,2.147,0,0,1-2.132,2.163" transform="translate(71.742 85.967)" fill="#fff"/>
          <path id="Trazado_609561" data-name="Trazado 609561" d="M123.175,132.634a2.148,2.148,0,1,1,2.132-2.164,2.149,2.149,0,0,1-2.132,2.164" transform="translate(86.361 91.59)" fill="#fff"/>
          <path id="Trazado_609562" data-name="Trazado 609562" d="M116.367,132.685a2.148,2.148,0,1,1,2.132-2.164,2.149,2.149,0,0,1-2.132,2.164" transform="translate(81.503 91.627)" fill="#fff"/>
          <path id="Trazado_609563" data-name="Trazado 609563" d="M109.559,132.736a2.148,2.148,0,1,1,2.132-2.164,2.149,2.149,0,0,1-2.132,2.164" transform="translate(76.644 91.663)" fill="#fff"/>
          <path id="Trazado_609564" data-name="Trazado 609564" d="M102.75,132.785a2.147,2.147,0,1,1,2.132-2.163,2.146,2.146,0,0,1-2.132,2.163" transform="translate(71.785 91.699)" fill="#fff"/>
          <path id="Trazado_609565" data-name="Trazado 609565" d="M123.236,140.667a2.148,2.148,0,1,1,2.132-2.164,2.149,2.149,0,0,1-2.132,2.164" transform="translate(86.405 97.323)" fill="#fff"/>
          <path id="Trazado_609566" data-name="Trazado 609566" d="M116.427,140.718a2.148,2.148,0,1,1,2.132-2.164,2.149,2.149,0,0,1-2.132,2.164" transform="translate(81.545 97.359)" fill="#fff"/>
          <path id="Trazado_609567" data-name="Trazado 609567" d="M109.619,140.769a2.148,2.148,0,1,1,2.132-2.164,2.149,2.149,0,0,1-2.132,2.164" transform="translate(76.687 97.396)" fill="#fff"/>
          <path id="Trazado_609568" data-name="Trazado 609568" d="M102.81,140.82a2.148,2.148,0,1,1,2.132-2.164,2.149,2.149,0,0,1-2.132,2.164" transform="translate(71.827 97.432)" fill="#fff"/>
          <path id="Trazado_609569" data-name="Trazado 609569" d="M123.3,148.7a2.148,2.148,0,1,1,2.132-2.164A2.149,2.149,0,0,1,123.3,148.7" transform="translate(86.448 103.056)" fill="#fff"/>
          <path id="Trazado_609570" data-name="Trazado 609570" d="M116.487,148.751a2.148,2.148,0,1,1,2.132-2.164,2.149,2.149,0,0,1-2.132,2.164" transform="translate(81.588 103.092)" fill="#fff"/>
          <path id="Trazado_609571" data-name="Trazado 609571" d="M109.679,148.8a2.148,2.148,0,1,1,2.132-2.164,2.149,2.149,0,0,1-2.132,2.164" transform="translate(76.73 103.129)" fill="#fff"/>
          <path id="Trazado_609572" data-name="Trazado 609572" d="M102.87,148.853A2.148,2.148,0,1,1,105,146.689a2.149,2.149,0,0,1-2.132,2.164" transform="translate(71.87 103.165)" fill="#fff"/>
          <path id="Trazado_609573" data-name="Trazado 609573" d="M123.356,156.733a2.148,2.148,0,1,1,2.132-2.164,2.149,2.149,0,0,1-2.132,2.164" transform="translate(86.49 108.789)" fill="#fff"/>
          <path id="Trazado_609574" data-name="Trazado 609574" d="M116.547,156.784a2.148,2.148,0,1,1,2.132-2.164,2.149,2.149,0,0,1-2.132,2.164" transform="translate(81.631 108.825)" fill="#fff"/>
          <path id="Trazado_609575" data-name="Trazado 609575" d="M109.739,156.835a2.148,2.148,0,1,1,2.132-2.164,2.149,2.149,0,0,1-2.132,2.164" transform="translate(76.772 108.862)" fill="#fff"/>
          <path id="Trazado_609576" data-name="Trazado 609576" d="M102.93,156.886a2.148,2.148,0,1,1,2.132-2.164,2.149,2.149,0,0,1-2.132,2.164" transform="translate(71.913 108.898)" fill="#fff"/>
        </g>
      </g>
      <path id="Trazado_610518" data-name="Trazado 610518" d="M4.254,0H1.178V-12.8H4.254ZM5.889-4.825a5.809,5.809,0,0,1,.976-3.56,3.211,3.211,0,0,1,2.725-1.3,2.731,2.731,0,0,1,2.145,1V-13.5H14.7V0H12.041l-.149-1.02a2.8,2.8,0,0,1-2.32,1.2,3.205,3.205,0,0,1-2.689-1.3A5.993,5.993,0,0,1,5.889-4.825Zm2.962.185q0,2.531,1.477,2.531a1.458,1.458,0,0,0,1.406-.826V-6.557A1.419,1.419,0,0,0,10.345-7.4q-1.371,0-1.485,2.215ZM20.988.176a4.889,4.889,0,0,1-3.542-1.305,4.507,4.507,0,0,1-1.354-3.4v-.246a5.84,5.84,0,0,1,.541-2.575,3.955,3.955,0,0,1,1.578-1.727,4.763,4.763,0,0,1,2.461-.611,4.117,4.117,0,0,1,3.164,1.244A4.887,4.887,0,0,1,25-4.975v1.151H19.107A2.135,2.135,0,0,0,19.8-2.566a2.066,2.066,0,0,0,1.389.457,2.662,2.662,0,0,0,2.2-.984l1.354,1.6A3.784,3.784,0,0,1,23.172-.277,5.3,5.3,0,0,1,20.988.176ZM20.654-7.4q-1.3,0-1.547,1.723H22.1v-.229a1.467,1.467,0,0,0-.36-1.1A1.434,1.434,0,0,0,20.654-7.4ZM31.544,0a3.344,3.344,0,0,1-.281-.853A2.754,2.754,0,0,1,28.978.176a3.374,3.374,0,0,1-2.285-.813,2.588,2.588,0,0,1-.94-2.043,2.66,2.66,0,0,1,1.143-2.338,5.821,5.821,0,0,1,3.322-.791h.914v-.5q0-1.316-1.134-1.316a.927.927,0,0,0-1.055,1.042H25.98a2.655,2.655,0,0,1,1.173-2.239,4.931,4.931,0,0,1,2.993-.86,4.323,4.323,0,0,1,2.874.888A3.086,3.086,0,0,1,34.1-6.363v4.21a4.311,4.311,0,0,0,.4,2V0ZM29.689-1.934a1.652,1.652,0,0,0,.918-.237,1.487,1.487,0,0,0,.523-.536V-4.228H30.27q-1.547,0-1.547,1.389A.848.848,0,0,0,29-2.184.986.986,0,0,0,29.689-1.934Zm11.03-.738a.684.684,0,0,0-.4-.606,6.016,6.016,0,0,0-1.5-.475A6.853,6.853,0,0,1,36.993-4.4a3.062,3.062,0,0,1-1.1-.971,2.319,2.319,0,0,1-.378-1.31A2.628,2.628,0,0,1,36.6-8.837a4.453,4.453,0,0,1,2.83-.848,4.934,4.934,0,0,1,3.023.853,2.666,2.666,0,0,1,1.143,2.241H40.623q0-1.143-1.2-1.143a1.194,1.194,0,0,0-.782.259.8.8,0,0,0-.316.646.737.737,0,0,0,.387.642,3.654,3.654,0,0,0,1.235.4,10.671,10.671,0,0,1,1.49.378A2.706,2.706,0,0,1,43.576-2.76,2.491,2.491,0,0,1,42.42-.642a5.068,5.068,0,0,1-2.993.817,5.172,5.172,0,0,1-2.18-.439,3.645,3.645,0,0,1-1.494-1.2,2.707,2.707,0,0,1-.536-1.591h2.769a1.145,1.145,0,0,0,.439.962,1.808,1.808,0,0,0,1.081.3,1.422,1.422,0,0,0,.91-.246A.787.787,0,0,0,40.72-2.672Zm8.35-2.153a5.809,5.809,0,0,1,.976-3.56,3.211,3.211,0,0,1,2.725-1.3,2.731,2.731,0,0,1,2.145,1V-13.5h2.971V0H55.222l-.149-1.02a2.8,2.8,0,0,1-2.32,1.2,3.205,3.205,0,0,1-2.689-1.3A5.993,5.993,0,0,1,49.069-4.825Zm2.962.185q0,2.531,1.477,2.531a1.458,1.458,0,0,0,1.406-.826V-6.557A1.419,1.419,0,0,0,53.525-7.4q-1.371,0-1.485,2.215ZM64.169.176a4.889,4.889,0,0,1-3.542-1.305,4.507,4.507,0,0,1-1.354-3.4v-.246a5.84,5.84,0,0,1,.541-2.575,3.955,3.955,0,0,1,1.578-1.727,4.763,4.763,0,0,1,2.461-.611,4.117,4.117,0,0,1,3.164,1.244,4.887,4.887,0,0,1,1.16,3.467v1.151H62.288a2.135,2.135,0,0,0,.694,1.257,2.066,2.066,0,0,0,1.389.457,2.662,2.662,0,0,0,2.2-.984l1.354,1.6A3.784,3.784,0,0,1,66.353-.277,5.3,5.3,0,0,1,64.169.176ZM63.835-7.4q-1.3,0-1.547,1.723h2.988v-.229a1.467,1.467,0,0,0-.36-1.1A1.434,1.434,0,0,0,63.835-7.4ZM76.57-9.51l.1,1.116a3.225,3.225,0,0,1,2.716-1.292A2.713,2.713,0,0,1,81.6-8.8a4.226,4.226,0,0,1,.76,2.672V0H79.392V-6a1.6,1.6,0,0,0-.29-1.059A1.342,1.342,0,0,0,78.047-7.4a1.413,1.413,0,0,0-1.292.686V0H73.793V-9.51ZM88.6.176a4.889,4.889,0,0,1-3.542-1.305,4.507,4.507,0,0,1-1.354-3.4v-.246a5.84,5.84,0,0,1,.541-2.575,3.955,3.955,0,0,1,1.578-1.727,4.763,4.763,0,0,1,2.461-.611A4.117,4.117,0,0,1,91.45-8.442a4.887,4.887,0,0,1,1.16,3.467v1.151H86.722a2.135,2.135,0,0,0,.694,1.257,2.066,2.066,0,0,0,1.389.457A2.662,2.662,0,0,0,91-3.094l1.354,1.6A3.784,3.784,0,0,1,90.787-.277,5.3,5.3,0,0,1,88.6.176ZM88.269-7.4q-1.3,0-1.547,1.723H89.71v-.229a1.467,1.467,0,0,0-.36-1.1A1.434,1.434,0,0,0,88.269-7.4Zm5.186,2.575a6.421,6.421,0,0,1,.475-2.549,3.821,3.821,0,0,1,1.362-1.709,3.591,3.591,0,0,1,2.065-.6,2.855,2.855,0,0,1,2.32,1l.105-.826h2.689V-.36a4.009,4.009,0,0,1-.584,2.184A3.75,3.75,0,0,1,100.2,3.248a6.219,6.219,0,0,1-2.566.5,5.365,5.365,0,0,1-2.026-.4A3.657,3.657,0,0,1,94.1,2.32L95.344.58a2.716,2.716,0,0,0,2.18.976A1.764,1.764,0,0,0,99.492-.466v-.3a2.781,2.781,0,0,1-2.153.94,3.437,3.437,0,0,1-2.812-1.332A5.517,5.517,0,0,1,93.454-4.72Zm2.971.185a3.383,3.383,0,0,0,.439,1.85,1.386,1.386,0,0,0,1.23.681,1.573,1.573,0,0,0,1.4-.642v-4a1.534,1.534,0,0,0-1.38-.65,1.4,1.4,0,0,0-1.239.708A3.858,3.858,0,0,0,96.425-4.641Zm7.356-.2a5.613,5.613,0,0,1,.554-2.536,3.96,3.96,0,0,1,1.591-1.709,4.791,4.791,0,0,1,2.435-.6,4.373,4.373,0,0,1,3.366,1.323,5.076,5.076,0,0,1,1.23,3.6v.105a4.925,4.925,0,0,1-1.235,3.529A4.384,4.384,0,0,1,108.378.176a4.434,4.434,0,0,1-3.261-1.217,4.761,4.761,0,0,1-1.327-3.3Zm2.962.185a3.538,3.538,0,0,0,.413,1.934,1.376,1.376,0,0,0,1.222.615q1.582,0,1.617-2.435v-.3Q110-7.4,108.36-7.4q-1.485,0-1.608,2.206Zm11.54,2.549a1.317,1.317,0,0,0,.967-.338,1.241,1.241,0,0,0,.334-.945h2.777a3.288,3.288,0,0,1-1.121,2.566,4.168,4.168,0,0,1-2.887,1,4.22,4.22,0,0,1-3.27-1.3,5.125,5.125,0,0,1-1.2-3.6v-.123A5.792,5.792,0,0,1,114.42-7.4a3.872,3.872,0,0,1,1.534-1.7,4.573,4.573,0,0,1,2.373-.593,4.116,4.116,0,0,1,2.944,1.028,3.647,3.647,0,0,1,1.09,2.786h-2.777A1.626,1.626,0,0,0,119.224-7a1.244,1.244,0,0,0-.967-.4q-1.151,0-1.345,1.468a10.357,10.357,0,0,0-.062,1.283,4.068,4.068,0,0,0,.343,1.986A1.187,1.187,0,0,0,118.283-2.109ZM126.738,0h-2.971V-9.51h2.971Zm-3.146-11.962A1.322,1.322,0,0,1,124.049-13a1.724,1.724,0,0,1,1.187-.4,1.724,1.724,0,0,1,1.187.4,1.322,1.322,0,0,1,.457,1.037,1.322,1.322,0,0,1-.457,1.037,1.724,1.724,0,0,1-1.187.4,1.724,1.724,0,0,1-1.187-.4A1.322,1.322,0,0,1,123.592-11.962Zm4.6,7.119a5.613,5.613,0,0,1,.554-2.536,3.96,3.96,0,0,1,1.591-1.709,4.791,4.791,0,0,1,2.435-.6,4.373,4.373,0,0,1,3.366,1.323,5.076,5.076,0,0,1,1.23,3.6v.105a4.925,4.925,0,0,1-1.235,3.529A4.384,4.384,0,0,1,132.785.176a4.434,4.434,0,0,1-3.261-1.217,4.761,4.761,0,0,1-1.327-3.3Zm2.962.185a3.538,3.538,0,0,0,.413,1.934,1.376,1.376,0,0,0,1.222.615q1.582,0,1.617-2.435v-.3q0-2.558-1.635-2.558-1.485,0-1.608,2.206Z" transform="translate(841.768 3338)" fill="#12263f"/>
      <path id="Trazado_610521" data-name="Trazado 610521" d="M-38.918-4.731V0h-1.594V-12.086h4.458a4.478,4.478,0,0,1,3.109,1.013,3.433,3.433,0,0,1,1.125,2.681,3.388,3.388,0,0,1-1.1,2.71,4.678,4.678,0,0,1-3.15.95Zm0-1.3h2.864a2.863,2.863,0,0,0,1.959-.6,2.2,2.2,0,0,0,.681-1.742,2.277,2.277,0,0,0-.681-1.73,2.682,2.682,0,0,0-1.868-.674h-2.955ZM-28.36,0H-29.9V-12.75h1.536Zm8,0a3.226,3.226,0,0,1-.216-.946A3.426,3.426,0,0,1-23.13.166a3.17,3.17,0,0,1-2.179-.751A2.43,2.43,0,0,1-26.16-2.49a2.539,2.539,0,0,1,1.067-2.179,5.029,5.029,0,0,1,3-.776H-20.6v-.706a1.725,1.725,0,0,0-.481-1.282A1.935,1.935,0,0,0-22.5-7.911a2.239,2.239,0,0,0-1.378.415,1.223,1.223,0,0,0-.556,1h-1.544a2.119,2.119,0,0,1,.477-1.3,3.258,3.258,0,0,1,1.295-.992,4.356,4.356,0,0,1,1.8-.365,3.551,3.551,0,0,1,2.432.776,2.8,2.8,0,0,1,.913,2.137V-2.1a5.054,5.054,0,0,0,.315,1.967V0Zm-2.548-1.17a2.7,2.7,0,0,0,1.37-.374,2.259,2.259,0,0,0,.938-.971V-4.358h-1.2q-2.822,0-2.822,1.652a1.4,1.4,0,0,0,.481,1.129A1.85,1.85,0,0,0-22.906-1.17Zm7.7-7.811.05,1.129a3.273,3.273,0,0,1,2.689-1.295q2.847,0,2.872,3.212V0h-1.536V-5.943a2.068,2.068,0,0,0-.444-1.436,1.78,1.78,0,0,0-1.357-.465,2.216,2.216,0,0,0-1.312.4A2.706,2.706,0,0,0-15.12-6.4V0h-1.536V-8.981ZM-3.549.166a3.924,3.924,0,0,1-2.972-1.2A4.452,4.452,0,0,1-7.666-4.242v-.282a5.39,5.39,0,0,1,.51-2.386A3.982,3.982,0,0,1-5.728-8.554,3.59,3.59,0,0,1-3.74-9.147,3.364,3.364,0,0,1-1.017-7.994a5,5,0,0,1,.971,3.3v.639H-6.13a3.193,3.193,0,0,0,.776,2.146,2.44,2.44,0,0,0,1.888.818,2.675,2.675,0,0,0,1.378-.332A3.462,3.462,0,0,0-1.1-2.3l.938.73A3.772,3.772,0,0,1-3.549.166ZM-3.74-7.886A2.048,2.048,0,0,0-5.3-7.209a3.288,3.288,0,0,0-.78,1.9h4.5v-.116a2.925,2.925,0,0,0-.631-1.814A1.928,1.928,0,0,0-3.74-7.886ZM7.276,0A3.226,3.226,0,0,1,7.06-.946,3.426,3.426,0,0,1,4.5.166,3.17,3.17,0,0,1,2.324-.585,2.43,2.43,0,0,1,1.473-2.49,2.539,2.539,0,0,1,2.54-4.669a5.029,5.029,0,0,1,3-.776H7.035v-.706a1.725,1.725,0,0,0-.481-1.282,1.935,1.935,0,0,0-1.419-.477A2.239,2.239,0,0,0,3.756-7.5a1.223,1.223,0,0,0-.556,1H1.656a2.119,2.119,0,0,1,.477-1.3,3.258,3.258,0,0,1,1.295-.992,4.356,4.356,0,0,1,1.8-.365,3.551,3.551,0,0,1,2.432.776,2.8,2.8,0,0,1,.913,2.137V-2.1A5.054,5.054,0,0,0,8.886-.133V0ZM4.727-1.17A2.7,2.7,0,0,0,6.1-1.544a2.259,2.259,0,0,0,.938-.971V-4.358h-1.2q-2.822,0-2.822,1.652A1.4,1.4,0,0,0,3.49-1.577,1.85,1.85,0,0,0,4.727-1.17Zm9.853.083a2.212,2.212,0,0,0,1.436-.5A1.752,1.752,0,0,0,16.7-2.831H18.15a2.785,2.785,0,0,1-.531,1.469A3.5,3.5,0,0,1,16.311-.249,3.772,3.772,0,0,1,14.58.166a3.7,3.7,0,0,1-2.918-1.224,4.877,4.877,0,0,1-1.083-3.349v-.257A5.407,5.407,0,0,1,11.061-7a3.667,3.667,0,0,1,1.382-1.585,3.926,3.926,0,0,1,2.129-.564,3.6,3.6,0,0,1,2.511.9A3.234,3.234,0,0,1,18.15-5.894H16.7a2.116,2.116,0,0,0-.66-1.432,2.053,2.053,0,0,0-1.465-.56,2.149,2.149,0,0,0-1.814.843,3.957,3.957,0,0,0-.643,2.436v.291a3.878,3.878,0,0,0,.639,2.391A2.16,2.16,0,0,0,14.58-1.087ZM21.545,0H20.009V-8.981h1.536Zm-1.66-11.364a.917.917,0,0,1,.228-.631.857.857,0,0,1,.677-.257.87.87,0,0,1,.681.257.907.907,0,0,1,.232.631.877.877,0,0,1-.232.623.886.886,0,0,1-.681.249.872.872,0,0,1-.677-.249A.886.886,0,0,1,19.885-11.364Zm3.71,6.79a5.3,5.3,0,0,1,.519-2.374,3.87,3.87,0,0,1,1.444-1.627,3.932,3.932,0,0,1,2.113-.573,3.788,3.788,0,0,1,2.968,1.27A4.886,4.886,0,0,1,31.771-4.5v.108a5.351,5.351,0,0,1-.5,2.353A3.813,3.813,0,0,1,29.833-.415a3.977,3.977,0,0,1-2.146.581A3.778,3.778,0,0,1,24.728-1.1a4.861,4.861,0,0,1-1.133-3.362Zm1.544.183a3.842,3.842,0,0,0,.693,2.4,2.218,2.218,0,0,0,1.855.9A2.2,2.2,0,0,0,29.547-2a4.2,4.2,0,0,0,.689-2.569,3.836,3.836,0,0,0-.7-2.395,2.23,2.23,0,0,0-1.864-.917,2.205,2.205,0,0,0-1.834.9A4.17,4.17,0,0,0,25.139-4.391Zm3.229-8.359h1.859L28-10.31l-1.237,0ZM35.15-8.981l.05,1.129a3.273,3.273,0,0,1,2.689-1.295q2.847,0,2.872,3.212V0H39.225V-5.943a2.068,2.068,0,0,0-.444-1.436,1.78,1.78,0,0,0-1.357-.465,2.216,2.216,0,0,0-1.312.4,2.706,2.706,0,0,0-.88,1.046V0H33.7V-8.981ZM-37.291,24.166a3.924,3.924,0,0,1-2.972-1.2,4.452,4.452,0,0,1-1.146-3.208v-.282a5.39,5.39,0,0,1,.51-2.386,3.982,3.982,0,0,1,1.428-1.644,3.59,3.59,0,0,1,1.988-.594,3.364,3.364,0,0,1,2.723,1.154,5,5,0,0,1,.971,3.3v.639h-6.084a3.193,3.193,0,0,0,.776,2.146,2.44,2.44,0,0,0,1.888.818,2.675,2.675,0,0,0,1.378-.332,3.462,3.462,0,0,0,.988-.88l.938.73A3.772,3.772,0,0,1-37.291,24.166Zm-.191-8.052a2.048,2.048,0,0,0-1.561.677,3.288,3.288,0,0,0-.78,1.9h4.5v-.116a2.925,2.925,0,0,0-.631-1.814A1.928,1.928,0,0,0-37.482,16.114Zm10.7,5.5a1.131,1.131,0,0,0-.469-.967,4.514,4.514,0,0,0-1.635-.594,7.731,7.731,0,0,1-1.851-.6,2.633,2.633,0,0,1-1.013-.83,1.986,1.986,0,0,1-.328-1.146,2.33,2.33,0,0,1,.934-1.868,3.647,3.647,0,0,1,2.386-.764,3.753,3.753,0,0,1,2.478.789,2.5,2.5,0,0,1,.95,2.017h-1.544a1.386,1.386,0,0,0-.535-1.087,2.006,2.006,0,0,0-1.349-.457,2.1,2.1,0,0,0-1.312.365,1.15,1.15,0,0,0-.473.955.932.932,0,0,0,.44.838,5.413,5.413,0,0,0,1.59.54,8.283,8.283,0,0,1,1.864.614,2.718,2.718,0,0,1,1.058.859,2.112,2.112,0,0,1,.344,1.224,2.3,2.3,0,0,1-.963,1.93,4.039,4.039,0,0,1-2.5.726,4.523,4.523,0,0,1-1.909-.382,3.105,3.105,0,0,1-1.3-1.067,2.571,2.571,0,0,1-.469-1.482h1.536a1.59,1.59,0,0,0,.618,1.224,2.4,2.4,0,0,0,1.523.452,2.476,2.476,0,0,0,1.4-.353A1.084,1.084,0,0,0-26.782,21.618Zm5.62-8.774v2.175h1.677v1.187h-1.677v5.577a1.247,1.247,0,0,0,.224.81.943.943,0,0,0,.764.27,3.718,3.718,0,0,0,.73-.1V24a4.478,4.478,0,0,1-1.179.165,1.912,1.912,0,0,1-1.552-.623,2.675,2.675,0,0,1-.523-1.768v-5.57h-1.635V15.019H-22.7V12.844Zm7.811,3.553a4.6,4.6,0,0,0-.755-.058,2.024,2.024,0,0,0-2.05,1.287V24h-1.536V15.019H-16.2l.025,1.038a2.391,2.391,0,0,1,2.142-1.2,1.569,1.569,0,0,1,.681.116ZM-6.728,24a3.226,3.226,0,0,1-.216-.946A3.426,3.426,0,0,1-9.5,24.166a3.17,3.17,0,0,1-2.179-.751,2.43,2.43,0,0,1-.851-1.905,2.539,2.539,0,0,1,1.067-2.179,5.029,5.029,0,0,1,3-.776h1.494v-.706a1.725,1.725,0,0,0-.481-1.282,1.935,1.935,0,0,0-1.419-.477,2.239,2.239,0,0,0-1.378.415,1.223,1.223,0,0,0-.556,1h-1.544a2.119,2.119,0,0,1,.477-1.3,3.258,3.258,0,0,1,1.295-.992,4.356,4.356,0,0,1,1.8-.365,3.551,3.551,0,0,1,2.432.776,2.8,2.8,0,0,1,.913,2.137V21.9a5.054,5.054,0,0,0,.315,1.967V24Zm-2.548-1.17a2.7,2.7,0,0,0,1.37-.374,2.259,2.259,0,0,0,.938-.971V19.642h-1.2q-2.822,0-2.822,1.652a1.4,1.4,0,0,0,.481,1.129A1.85,1.85,0,0,0-9.276,22.83Zm8.334-9.986v2.175H.735v1.187H-.942v5.577a1.247,1.247,0,0,0,.224.81.943.943,0,0,0,.764.27,3.718,3.718,0,0,0,.73-.1V24A4.478,4.478,0,0,1-.4,24.166a1.912,1.912,0,0,1-1.552-.623,2.675,2.675,0,0,1-.523-1.768v-5.57H-4.113V15.019h1.635V12.844Zm7.2,11.322a3.924,3.924,0,0,1-2.972-1.2,4.452,4.452,0,0,1-1.146-3.208v-.282a5.39,5.39,0,0,1,.51-2.386,3.982,3.982,0,0,1,1.428-1.644,3.59,3.59,0,0,1,1.988-.594,3.364,3.364,0,0,1,2.723,1.154,5,5,0,0,1,.971,3.3v.639H3.673a3.193,3.193,0,0,0,.776,2.146,2.44,2.44,0,0,0,1.888.818,2.675,2.675,0,0,0,1.378-.332A3.462,3.462,0,0,0,8.7,21.7l.938.73A3.772,3.772,0,0,1,6.255,24.166Zm-.191-8.052a2.048,2.048,0,0,0-1.561.677,3.288,3.288,0,0,0-.78,1.9h4.5v-.116a2.925,2.925,0,0,0-.631-1.814A1.928,1.928,0,0,0,6.064,16.114Zm.747-4.864H8.67L6.446,13.69l-1.237,0Zm4.358,8.185a5.279,5.279,0,0,1,.971-3.341,3.106,3.106,0,0,1,2.573-1.241,3.09,3.09,0,0,1,2.565,1.162l.075-1h1.4v8.766a3.654,3.654,0,0,1-1.033,2.748,3.814,3.814,0,0,1-2.777,1,4.619,4.619,0,0,1-1.9-.415,3.272,3.272,0,0,1-1.419-1.137l.8-.921a3,3,0,0,0,2.416,1.22,2.353,2.353,0,0,0,1.747-.631,2.411,2.411,0,0,0,.627-1.776V23.1A3.156,3.156,0,0,1,14.7,24.166a3.068,3.068,0,0,1-2.552-1.27A5.55,5.55,0,0,1,11.169,19.435Zm1.544.174A4.027,4.027,0,0,0,13.335,22a2.023,2.023,0,0,0,1.743.867,2.249,2.249,0,0,0,2.133-1.32v-4.1a2.276,2.276,0,0,0-2.117-1.287,2.041,2.041,0,0,0-1.751.872A4.386,4.386,0,0,0,12.713,19.609ZM22.74,24H21.2V15.019H22.74ZM21.08,12.636a.917.917,0,0,1,.228-.631.857.857,0,0,1,.677-.257.87.87,0,0,1,.681.257.907.907,0,0,1,.232.631.877.877,0,0,1-.232.623.886.886,0,0,1-.681.249.872.872,0,0,1-.677-.249A.886.886,0,0,1,21.08,12.636ZM28.8,22.913a2.212,2.212,0,0,0,1.436-.5,1.752,1.752,0,0,0,.681-1.245h1.453a2.785,2.785,0,0,1-.531,1.469,3.5,3.5,0,0,1-1.307,1.112,3.772,3.772,0,0,1-1.731.415,3.7,3.7,0,0,1-2.918-1.224A4.877,4.877,0,0,1,24.8,19.592v-.257A5.407,5.407,0,0,1,25.28,17a3.667,3.667,0,0,1,1.382-1.585,3.926,3.926,0,0,1,2.129-.564,3.6,3.6,0,0,1,2.511.9,3.234,3.234,0,0,1,1.067,2.349H30.916a2.116,2.116,0,0,0-.66-1.432,2.053,2.053,0,0,0-1.465-.56,2.149,2.149,0,0,0-1.814.843,3.957,3.957,0,0,0-.643,2.436v.291a3.878,3.878,0,0,0,.639,2.391A2.16,2.16,0,0,0,28.8,22.913ZM39.64,24a3.226,3.226,0,0,1-.216-.946,3.426,3.426,0,0,1-2.557,1.112,3.17,3.17,0,0,1-2.179-.751,2.43,2.43,0,0,1-.851-1.905A2.539,2.539,0,0,1,34.9,19.331a5.029,5.029,0,0,1,3-.776H39.4v-.706a1.725,1.725,0,0,0-.481-1.282,1.935,1.935,0,0,0-1.419-.477,2.239,2.239,0,0,0-1.378.415,1.223,1.223,0,0,0-.556,1H34.021a2.119,2.119,0,0,1,.477-1.3,3.258,3.258,0,0,1,1.295-.992,4.356,4.356,0,0,1,1.8-.365,3.551,3.551,0,0,1,2.432.776,2.8,2.8,0,0,1,.913,2.137V21.9a5.054,5.054,0,0,0,.315,1.967V24Zm-2.548-1.17a2.7,2.7,0,0,0,1.37-.374,2.259,2.259,0,0,0,.938-.971V19.642H38.2q-2.822,0-2.822,1.652a1.4,1.4,0,0,0,.481,1.129A1.85,1.85,0,0,0,37.092,22.83Z" transform="translate(760 3126)" fill="#12263f"/>
      <path id="Trazado_610517" data-name="Trazado 610517" d="M-21.736-3.163H-26.8L-27.936,0H-29.58l4.615-12.086h1.395L-18.947,0h-1.635Zm-4.582-1.3h4.109l-2.059-5.653Zm10.21-4.516.05,1.129a3.273,3.273,0,0,1,2.689-1.295q2.847,0,2.872,3.212V0h-1.536V-5.943a2.068,2.068,0,0,0-.444-1.436,1.78,1.78,0,0,0-1.357-.465,2.216,2.216,0,0,0-1.312.4,2.706,2.706,0,0,0-.88,1.046V0H-17.56V-8.981ZM-2.635,0a3.226,3.226,0,0,1-.216-.946A3.426,3.426,0,0,1-5.408.166,3.17,3.17,0,0,1-7.587-.585,2.43,2.43,0,0,1-8.438-2.49,2.539,2.539,0,0,1-7.371-4.669a5.029,5.029,0,0,1,3-.776h1.494v-.706a1.725,1.725,0,0,0-.481-1.282,1.935,1.935,0,0,0-1.419-.477A2.239,2.239,0,0,0-6.155-7.5a1.223,1.223,0,0,0-.556,1H-8.255a2.119,2.119,0,0,1,.477-1.3,3.258,3.258,0,0,1,1.295-.992,4.356,4.356,0,0,1,1.8-.365,3.551,3.551,0,0,1,2.432.776,2.8,2.8,0,0,1,.913,2.137V-2.1A5.054,5.054,0,0,0-1.025-.133V0ZM-5.184-1.17a2.7,2.7,0,0,0,1.37-.374,2.259,2.259,0,0,0,.938-.971V-4.358h-1.2Q-6.9-4.358-6.9-2.706a1.4,1.4,0,0,0,.481,1.129A1.85,1.85,0,0,0-5.184-1.17Zm1.419-11.58h1.859L-4.13-10.31l-1.237,0ZM2.735,0H1.2V-12.75H2.735ZM6.861,0H5.325V-8.981H6.861ZM5.2-11.364a.917.917,0,0,1,.228-.631.857.857,0,0,1,.677-.257.87.87,0,0,1,.681.257.907.907,0,0,1,.232.631.877.877,0,0,1-.232.623.886.886,0,0,1-.681.249.872.872,0,0,1-.677-.249A.886.886,0,0,1,5.2-11.364Zm9.347,8.981a1.131,1.131,0,0,0-.469-.967,4.514,4.514,0,0,0-1.635-.594,7.731,7.731,0,0,1-1.851-.6,2.633,2.633,0,0,1-1.013-.83,1.986,1.986,0,0,1-.328-1.146,2.33,2.33,0,0,1,.934-1.868,3.647,3.647,0,0,1,2.386-.764,3.753,3.753,0,0,1,2.478.789A2.5,2.5,0,0,1,16-6.342H14.456a1.386,1.386,0,0,0-.535-1.087,2.006,2.006,0,0,0-1.349-.457,2.1,2.1,0,0,0-1.312.365,1.15,1.15,0,0,0-.473.955.932.932,0,0,0,.44.838,5.413,5.413,0,0,0,1.59.54,8.283,8.283,0,0,1,1.864.614,2.718,2.718,0,0,1,1.058.859,2.112,2.112,0,0,1,.344,1.224A2.3,2.3,0,0,1,15.12-.56a4.039,4.039,0,0,1-2.5.726,4.523,4.523,0,0,1-1.909-.382,3.105,3.105,0,0,1-1.3-1.067,2.571,2.571,0,0,1-.469-1.482H10.48A1.59,1.59,0,0,0,11.1-1.54a2.4,2.4,0,0,0,1.523.452,2.476,2.476,0,0,0,1.4-.353A1.084,1.084,0,0,0,14.547-2.382ZM19.752,0H18.216V-8.981h1.536Zm-1.66-11.364a.917.917,0,0,1,.228-.631A.857.857,0,0,1,19-12.252a.87.87,0,0,1,.681.257.907.907,0,0,1,.232.631.877.877,0,0,1-.232.623.886.886,0,0,1-.681.249.872.872,0,0,1-.677-.249A.886.886,0,0,1,18.092-11.364Zm9.347,8.981a1.131,1.131,0,0,0-.469-.967,4.514,4.514,0,0,0-1.635-.594,7.731,7.731,0,0,1-1.851-.6,2.633,2.633,0,0,1-1.013-.83,1.986,1.986,0,0,1-.328-1.146,2.33,2.33,0,0,1,.934-1.868,3.647,3.647,0,0,1,2.386-.764,3.753,3.753,0,0,1,2.478.789,2.5,2.5,0,0,1,.95,2.017H27.347a1.386,1.386,0,0,0-.535-1.087,2.006,2.006,0,0,0-1.349-.457,2.1,2.1,0,0,0-1.312.365,1.15,1.15,0,0,0-.473.955.932.932,0,0,0,.44.838,5.413,5.413,0,0,0,1.59.54,8.283,8.283,0,0,1,1.864.614,2.718,2.718,0,0,1,1.058.859,2.112,2.112,0,0,1,.344,1.224,2.3,2.3,0,0,1-.963,1.93,4.039,4.039,0,0,1-2.5.726A4.523,4.523,0,0,1,23.6-.216a3.105,3.105,0,0,1-1.3-1.067,2.571,2.571,0,0,1-.469-1.482h1.536a1.59,1.59,0,0,0,.618,1.224,2.4,2.4,0,0,0,1.523.452,2.476,2.476,0,0,0,1.4-.353A1.084,1.084,0,0,0,27.438-2.382Zm-53.548,24a1.131,1.131,0,0,0-.469-.967,4.514,4.514,0,0,0-1.635-.594,7.731,7.731,0,0,1-1.851-.6,2.633,2.633,0,0,1-1.013-.83,1.986,1.986,0,0,1-.328-1.146,2.33,2.33,0,0,1,.934-1.868,3.647,3.647,0,0,1,2.386-.764,3.753,3.753,0,0,1,2.478.789,2.5,2.5,0,0,1,.95,2.017H-26.2a1.386,1.386,0,0,0-.535-1.087,2.006,2.006,0,0,0-1.349-.457,2.1,2.1,0,0,0-1.312.365,1.15,1.15,0,0,0-.473.955.932.932,0,0,0,.44.838,5.413,5.413,0,0,0,1.59.54,8.283,8.283,0,0,1,1.864.614,2.718,2.718,0,0,1,1.058.859,2.112,2.112,0,0,1,.344,1.224,2.3,2.3,0,0,1-.963,1.93,4.039,4.039,0,0,1-2.5.726,4.523,4.523,0,0,1-1.909-.382,3.105,3.105,0,0,1-1.3-1.067,2.571,2.571,0,0,1-.469-1.482h1.536a1.59,1.59,0,0,0,.618,1.224,2.4,2.4,0,0,0,1.523.452,2.476,2.476,0,0,0,1.4-.353A1.084,1.084,0,0,0-26.11,21.618Zm7.263,2.548a3.924,3.924,0,0,1-2.972-1.2,4.452,4.452,0,0,1-1.146-3.208v-.282a5.39,5.39,0,0,1,.51-2.386,3.982,3.982,0,0,1,1.428-1.644,3.59,3.59,0,0,1,1.988-.594,3.364,3.364,0,0,1,2.723,1.154,5,5,0,0,1,.971,3.3v.639h-6.084a3.193,3.193,0,0,0,.776,2.146,2.44,2.44,0,0,0,1.888.818,2.675,2.675,0,0,0,1.378-.332,3.462,3.462,0,0,0,.988-.88l.938.73A3.772,3.772,0,0,1-18.847,24.166Zm-.191-8.052a2.048,2.048,0,0,0-1.561.677,3.288,3.288,0,0,0-.78,1.9h4.5v-.116a2.925,2.925,0,0,0-.631-1.814A1.928,1.928,0,0,0-19.038,16.114Zm9.073,6.8a2.212,2.212,0,0,0,1.436-.5,1.752,1.752,0,0,0,.681-1.245H-6.4a2.785,2.785,0,0,1-.531,1.469,3.5,3.5,0,0,1-1.307,1.112,3.772,3.772,0,0,1-1.731.415,3.7,3.7,0,0,1-2.918-1.224,4.877,4.877,0,0,1-1.083-3.349v-.257A5.407,5.407,0,0,1-13.485,17,3.667,3.667,0,0,1-12.1,15.417a3.926,3.926,0,0,1,2.129-.564,3.6,3.6,0,0,1,2.511.9A3.234,3.234,0,0,1-6.4,18.106H-7.848a2.116,2.116,0,0,0-.66-1.432,2.053,2.053,0,0,0-1.465-.56,2.149,2.149,0,0,0-1.814.843,3.957,3.957,0,0,0-.643,2.436v.291a3.878,3.878,0,0,0,.639,2.391A2.16,2.16,0,0,0-9.965,22.913Zm7.379-10.069v2.175H-.909v1.187H-2.586v5.577a1.247,1.247,0,0,0,.224.81.943.943,0,0,0,.764.27,3.718,3.718,0,0,0,.73-.1V24a4.478,4.478,0,0,1-1.179.165A1.912,1.912,0,0,1-3.6,23.543a2.675,2.675,0,0,1-.523-1.768v-5.57H-5.757V15.019h1.635V12.844Zm2.9,6.583A5.3,5.3,0,0,1,.83,17.052a3.87,3.87,0,0,1,1.444-1.627,3.932,3.932,0,0,1,2.113-.573,3.788,3.788,0,0,1,2.968,1.27A4.886,4.886,0,0,1,8.488,19.5v.108a5.351,5.351,0,0,1-.5,2.353,3.813,3.813,0,0,1-1.436,1.623,3.977,3.977,0,0,1-2.146.581A3.778,3.778,0,0,1,1.444,22.9,4.861,4.861,0,0,1,.311,19.534Zm1.544.183a3.842,3.842,0,0,0,.693,2.4,2.218,2.218,0,0,0,1.855.9A2.2,2.2,0,0,0,6.263,22a4.2,4.2,0,0,0,.689-2.569,3.836,3.836,0,0,0-.7-2.395,2.23,2.23,0,0,0-1.864-.917,2.205,2.205,0,0,0-1.834.9A4.17,4.17,0,0,0,1.855,19.609Zm12.9-3.212A4.6,4.6,0,0,0,14,16.338a2.024,2.024,0,0,0-2.05,1.287V24H10.413V15.019h1.494l.025,1.038a2.391,2.391,0,0,1,2.142-1.2,1.569,1.569,0,0,1,.681.116Zm3.08,7.6H16.3V15.019h1.536Zm-1.66-11.364a.917.917,0,0,1,.228-.631.857.857,0,0,1,.677-.257.87.87,0,0,1,.681.257.907.907,0,0,1,.232.631.877.877,0,0,1-.232.623.886.886,0,0,1-.681.249.872.872,0,0,1-.677-.249A.886.886,0,0,1,16.174,12.636ZM25.836,24a3.226,3.226,0,0,1-.216-.946,3.426,3.426,0,0,1-2.557,1.112,3.17,3.17,0,0,1-2.179-.751,2.43,2.43,0,0,1-.851-1.905A2.539,2.539,0,0,1,21.1,19.331a5.029,5.029,0,0,1,3-.776H25.6v-.706a1.725,1.725,0,0,0-.481-1.282,1.935,1.935,0,0,0-1.419-.477,2.239,2.239,0,0,0-1.378.415,1.223,1.223,0,0,0-.556,1H20.217a2.119,2.119,0,0,1,.477-1.3,3.258,3.258,0,0,1,1.295-.992,4.356,4.356,0,0,1,1.8-.365,3.551,3.551,0,0,1,2.432.776,2.8,2.8,0,0,1,.913,2.137V21.9a5.054,5.054,0,0,0,.315,1.967V24Zm-2.548-1.17a2.7,2.7,0,0,0,1.37-.374,2.259,2.259,0,0,0,.938-.971V19.642h-1.2q-2.822,0-2.822,1.652a1.4,1.4,0,0,0,.481,1.129A1.85,1.85,0,0,0,23.288,22.83ZM31.207,24H29.671V11.25h1.536Z" transform="translate(760 3478)" fill="#12263f"/>
      <path id="Trazado_610520" data-name="Trazado 610520" d="M-58.521,0h-1.594V-12.086h1.594ZM-54.4-8.981l.05,1.129a3.273,3.273,0,0,1,2.689-1.295q2.847,0,2.872,3.212V0h-1.536V-5.943a2.068,2.068,0,0,0-.444-1.436,1.78,1.78,0,0,0-1.357-.465,2.216,2.216,0,0,0-1.312.4,2.706,2.706,0,0,0-.88,1.046V0h-1.536V-8.981Zm10.891,6.9,2.225-6.9h1.569L-42.932,0H-44.1l-3.254-8.981h1.569Zm8.89,2.25a3.924,3.924,0,0,1-2.972-1.2,4.452,4.452,0,0,1-1.146-3.208v-.282a5.39,5.39,0,0,1,.51-2.386,3.982,3.982,0,0,1,1.428-1.644,3.59,3.59,0,0,1,1.988-.594,3.364,3.364,0,0,1,2.723,1.154,5,5,0,0,1,.971,3.3v.639H-37.2a3.193,3.193,0,0,0,.776,2.146,2.44,2.44,0,0,0,1.888.818,2.675,2.675,0,0,0,1.378-.332,3.462,3.462,0,0,0,.988-.88l.938.73A3.772,3.772,0,0,1-34.614.166Zm-.191-8.052a2.048,2.048,0,0,0-1.561.677,3.288,3.288,0,0,0-.78,1.9h4.5v-.116a2.925,2.925,0,0,0-.631-1.814A1.928,1.928,0,0,0-34.805-7.886Zm10.7,5.5a1.131,1.131,0,0,0-.469-.967,4.514,4.514,0,0,0-1.635-.594,7.731,7.731,0,0,1-1.851-.6,2.633,2.633,0,0,1-1.013-.83A1.986,1.986,0,0,1-29.4-6.516a2.33,2.33,0,0,1,.934-1.868,3.647,3.647,0,0,1,2.386-.764,3.753,3.753,0,0,1,2.478.789,2.5,2.5,0,0,1,.95,2.017H-24.2a1.386,1.386,0,0,0-.535-1.087,2.006,2.006,0,0,0-1.349-.457,2.1,2.1,0,0,0-1.312.365,1.15,1.15,0,0,0-.473.955.932.932,0,0,0,.44.838,5.413,5.413,0,0,0,1.59.54,8.283,8.283,0,0,1,1.864.614,2.718,2.718,0,0,1,1.058.859A2.112,2.112,0,0,1-22.57-2.49a2.3,2.3,0,0,1-.963,1.93,4.039,4.039,0,0,1-2.5.726A4.523,4.523,0,0,1-27.94-.216a3.105,3.105,0,0,1-1.3-1.067,2.571,2.571,0,0,1-.469-1.482h1.536a1.59,1.59,0,0,0,.618,1.224,2.4,2.4,0,0,0,1.523.452,2.476,2.476,0,0,0,1.4-.353A1.084,1.084,0,0,0-24.105-2.382Zm5.62-8.774v2.175h1.677v1.187h-1.677v5.577a1.247,1.247,0,0,0,.224.81.943.943,0,0,0,.764.27,3.718,3.718,0,0,0,.73-.1V0a4.478,4.478,0,0,1-1.179.165A1.912,1.912,0,0,1-19.5-.457a2.675,2.675,0,0,1-.523-1.768v-5.57h-1.635V-8.981h1.635v-2.175ZM-13.348,0h-1.536V-8.981h1.536Zm-1.66-11.364a.917.917,0,0,1,.228-.631.857.857,0,0,1,.677-.257.87.87,0,0,1,.681.257.907.907,0,0,1,.232.631.877.877,0,0,1-.232.623.886.886,0,0,1-.681.249.872.872,0,0,1-.677-.249A.886.886,0,0,1-15.008-11.364Zm3.752,6.8a5.279,5.279,0,0,1,.971-3.341A3.106,3.106,0,0,1-7.711-9.147,3.09,3.09,0,0,1-5.146-7.985l.075-1h1.4V-.216A3.654,3.654,0,0,1-4.7,2.532a3.814,3.814,0,0,1-2.777,1,4.619,4.619,0,0,1-1.9-.415A3.272,3.272,0,0,1-10.8,1.984l.8-.921a3,3,0,0,0,2.416,1.22A2.353,2.353,0,0,0-5.84,1.652,2.411,2.411,0,0,0-5.213-.125V-.9A3.156,3.156,0,0,1-7.728.166,3.068,3.068,0,0,1-10.281-1.1,5.55,5.55,0,0,1-11.256-4.565Zm1.544.174A4.027,4.027,0,0,0-9.089-2a2.023,2.023,0,0,0,1.743.867,2.249,2.249,0,0,0,2.133-1.32v-4.1A2.276,2.276,0,0,0-7.33-7.844a2.041,2.041,0,0,0-1.751.872A4.386,4.386,0,0,0-9.712-4.391ZM4.192,0a3.226,3.226,0,0,1-.216-.946A3.426,3.426,0,0,1,1.419.166,3.17,3.17,0,0,1-.76-.585,2.43,2.43,0,0,1-1.61-2.49,2.539,2.539,0,0,1-.544-4.669a5.029,5.029,0,0,1,3-.776H3.951v-.706A1.725,1.725,0,0,0,3.47-7.433,1.935,1.935,0,0,0,2.05-7.911,2.239,2.239,0,0,0,.672-7.5a1.223,1.223,0,0,0-.556,1H-1.428A2.119,2.119,0,0,1-.95-7.79,3.258,3.258,0,0,1,.344-8.782a4.356,4.356,0,0,1,1.8-.365,3.551,3.551,0,0,1,2.432.776,2.8,2.8,0,0,1,.913,2.137V-2.1A5.054,5.054,0,0,0,5.8-.133V0ZM1.644-1.17a2.7,2.7,0,0,0,1.37-.374,2.259,2.259,0,0,0,.938-.971V-4.358h-1.2q-2.822,0-2.822,1.652A1.4,1.4,0,0,0,.407-1.577,1.85,1.85,0,0,0,1.644-1.17Zm9.853.083a2.212,2.212,0,0,0,1.436-.5,1.752,1.752,0,0,0,.681-1.245h1.453a2.785,2.785,0,0,1-.531,1.469A3.5,3.5,0,0,1,13.227-.249,3.772,3.772,0,0,1,11.5.166,3.7,3.7,0,0,1,8.579-1.058,4.877,4.877,0,0,1,7.5-4.408v-.257A5.407,5.407,0,0,1,7.977-7,3.667,3.667,0,0,1,9.359-8.583a3.926,3.926,0,0,1,2.129-.564,3.6,3.6,0,0,1,2.511.9,3.234,3.234,0,0,1,1.067,2.349H13.613a2.116,2.116,0,0,0-.66-1.432,2.053,2.053,0,0,0-1.465-.56,2.149,2.149,0,0,0-1.814.843,3.957,3.957,0,0,0-.643,2.436v.291A3.878,3.878,0,0,0,9.67-1.926,2.16,2.16,0,0,0,11.5-1.087ZM18.461,0H16.925V-8.981h1.536ZM16.8-11.364a.917.917,0,0,1,.228-.631.857.857,0,0,1,.677-.257.87.87,0,0,1,.681.257.907.907,0,0,1,.232.631.877.877,0,0,1-.232.623.886.886,0,0,1-.681.249.872.872,0,0,1-.677-.249A.886.886,0,0,1,16.8-11.364Zm3.71,6.79a5.3,5.3,0,0,1,.519-2.374,3.87,3.87,0,0,1,1.444-1.627,3.932,3.932,0,0,1,2.113-.573,3.788,3.788,0,0,1,2.968,1.27A4.886,4.886,0,0,1,28.688-4.5v.108a5.351,5.351,0,0,1-.5,2.353A3.813,3.813,0,0,1,26.749-.415,3.977,3.977,0,0,1,24.6.166,3.778,3.778,0,0,1,21.644-1.1a4.861,4.861,0,0,1-1.133-3.362Zm1.544.183a3.842,3.842,0,0,0,.693,2.4,2.218,2.218,0,0,0,1.855.9A2.2,2.2,0,0,0,26.463-2a4.2,4.2,0,0,0,.689-2.569,3.836,3.836,0,0,0-.7-2.395,2.23,2.23,0,0,0-1.864-.917,2.205,2.205,0,0,0-1.834.9A4.17,4.17,0,0,0,22.055-4.391Zm3.229-8.359h1.859l-2.225,2.44-1.237,0Zm6.782,3.769.05,1.129a3.273,3.273,0,0,1,2.689-1.295q2.847,0,2.872,3.212V0H36.142V-5.943A2.068,2.068,0,0,0,35.7-7.379a1.78,1.78,0,0,0-1.357-.465,2.216,2.216,0,0,0-1.312.4,2.706,2.706,0,0,0-.88,1.046V0H30.613V-8.981ZM43.828-4.565a5.261,5.261,0,0,1,.979-3.324,3.1,3.1,0,0,1,2.565-1.258,3.115,3.115,0,0,1,2.5,1.079V-12.75h1.536V0H50l-.075-.963A3.127,3.127,0,0,1,47.356.166a3.068,3.068,0,0,1-2.544-1.278,5.321,5.321,0,0,1-.984-3.337Zm1.536.174A3.984,3.984,0,0,0,45.995-2a2.039,2.039,0,0,0,1.743.863,2.24,2.24,0,0,0,2.133-1.312V-6.574a2.257,2.257,0,0,0-2.117-1.27,2.049,2.049,0,0,0-1.76.872A4.386,4.386,0,0,0,45.364-4.391ZM57.516.166a3.924,3.924,0,0,1-2.972-1.2A4.452,4.452,0,0,1,53.4-4.242v-.282a5.39,5.39,0,0,1,.51-2.386,3.982,3.982,0,0,1,1.428-1.644,3.59,3.59,0,0,1,1.988-.594,3.364,3.364,0,0,1,2.723,1.154,5,5,0,0,1,.971,3.3v.639H54.935a3.193,3.193,0,0,0,.776,2.146,2.44,2.44,0,0,0,1.888.818,2.675,2.675,0,0,0,1.378-.332,3.462,3.462,0,0,0,.988-.88l.938.73A3.772,3.772,0,0,1,57.516.166Zm-.191-8.052a2.048,2.048,0,0,0-1.561.677,3.288,3.288,0,0,0-.78,1.9h4.5v-.116a2.925,2.925,0,0,0-.631-1.814A1.928,1.928,0,0,0,57.325-7.886Zm-92.566,22.9.042,1a3.317,3.317,0,0,1,2.665-1.162A2.568,2.568,0,0,1-29.97,16.3,3.4,3.4,0,0,1-28.8,15.251a3.445,3.445,0,0,1,1.7-.4q2.955,0,3,3.129V24h-1.536V18.073a2.062,2.062,0,0,0-.44-1.44,1.937,1.937,0,0,0-1.478-.477,2.036,2.036,0,0,0-1.419.51,2.071,2.071,0,0,0-.656,1.374V24h-1.544V18.115a1.713,1.713,0,0,0-1.917-1.959,2.055,2.055,0,0,0-2.067,1.287V24h-1.536V15.019Zm17.183,9.147a3.924,3.924,0,0,1-2.972-1.2,4.452,4.452,0,0,1-1.146-3.208v-.282a5.39,5.39,0,0,1,.51-2.386,3.982,3.982,0,0,1,1.428-1.644,3.59,3.59,0,0,1,1.988-.594,3.364,3.364,0,0,1,2.723,1.154,5,5,0,0,1,.971,3.3v.639H-20.64a3.193,3.193,0,0,0,.776,2.146,2.44,2.44,0,0,0,1.888.818,2.675,2.675,0,0,0,1.378-.332,3.462,3.462,0,0,0,.988-.88l.938.73A3.772,3.772,0,0,1-18.058,24.166Zm-.191-8.052a2.048,2.048,0,0,0-1.561.677,3.288,3.288,0,0,0-.78,1.9h4.5v-.116a2.925,2.925,0,0,0-.631-1.814A1.928,1.928,0,0,0-18.249,16.114Zm9.812.282a4.6,4.6,0,0,0-.755-.058,2.024,2.024,0,0,0-2.05,1.287V24h-1.536V15.019h1.494l.025,1.038a2.391,2.391,0,0,1,2.142-1.2,1.569,1.569,0,0,1,.681.116Zm4.856,6.516a2.212,2.212,0,0,0,1.436-.5,1.752,1.752,0,0,0,.681-1.245H-.012a2.785,2.785,0,0,1-.531,1.469,3.5,3.5,0,0,1-1.307,1.112,3.772,3.772,0,0,1-1.731.415A3.7,3.7,0,0,1-6.5,22.942a4.877,4.877,0,0,1-1.083-3.349v-.257A5.407,5.407,0,0,1-7.1,17a3.667,3.667,0,0,1,1.382-1.585,3.926,3.926,0,0,1,2.129-.564,3.6,3.6,0,0,1,2.511.9A3.234,3.234,0,0,1-.012,18.106H-1.465a2.116,2.116,0,0,0-.66-1.432,2.053,2.053,0,0,0-1.465-.56,2.149,2.149,0,0,0-1.814.843,3.957,3.957,0,0,0-.643,2.436v.291a3.878,3.878,0,0,0,.639,2.391A2.16,2.16,0,0,0-3.582,22.913ZM7.259,24a3.226,3.226,0,0,1-.216-.946,3.426,3.426,0,0,1-2.557,1.112,3.17,3.17,0,0,1-2.179-.751,2.43,2.43,0,0,1-.851-1.905,2.539,2.539,0,0,1,1.067-2.179,5.029,5.029,0,0,1,3-.776H7.018v-.706a1.725,1.725,0,0,0-.481-1.282,1.935,1.935,0,0,0-1.419-.477A2.239,2.239,0,0,0,3.74,16.5a1.223,1.223,0,0,0-.556,1H1.639a2.119,2.119,0,0,1,.477-1.3,3.258,3.258,0,0,1,1.295-.992,4.356,4.356,0,0,1,1.8-.365,3.551,3.551,0,0,1,2.432.776,2.8,2.8,0,0,1,.913,2.137V21.9a5.054,5.054,0,0,0,.315,1.967V24ZM4.711,22.83a2.7,2.7,0,0,0,1.37-.374,2.259,2.259,0,0,0,.938-.971V19.642h-1.2q-2.822,0-2.822,1.652a1.4,1.4,0,0,0,.481,1.129A1.85,1.85,0,0,0,4.711,22.83Zm5.877-3.4a5.261,5.261,0,0,1,.979-3.324,3.1,3.1,0,0,1,2.565-1.258,3.115,3.115,0,0,1,2.5,1.079V11.25h1.536V24H16.755l-.075-.963a3.127,3.127,0,0,1-2.565,1.129,3.068,3.068,0,0,1-2.544-1.278,5.321,5.321,0,0,1-.984-3.337Zm1.536.174A3.984,3.984,0,0,0,12.754,22a2.039,2.039,0,0,0,1.743.863,2.24,2.24,0,0,0,2.133-1.312V17.426a2.257,2.257,0,0,0-2.117-1.27,2.049,2.049,0,0,0-1.76.872A4.386,4.386,0,0,0,12.123,19.609Zm8.019-.183a5.3,5.3,0,0,1,.519-2.374A3.87,3.87,0,0,1,22.1,15.425a3.932,3.932,0,0,1,2.113-.573,3.788,3.788,0,0,1,2.968,1.27A4.886,4.886,0,0,1,28.318,19.5v.108a5.351,5.351,0,0,1-.5,2.353,3.813,3.813,0,0,1-1.436,1.623,3.977,3.977,0,0,1-2.146.581,3.778,3.778,0,0,1-2.959-1.27,4.861,4.861,0,0,1-1.133-3.362Zm1.544.183a3.842,3.842,0,0,0,.693,2.4A2.349,2.349,0,0,0,26.094,22a4.2,4.2,0,0,0,.689-2.569,3.836,3.836,0,0,0-.7-2.395,2.23,2.23,0,0,0-1.864-.917,2.205,2.205,0,0,0-1.834.9A4.17,4.17,0,0,0,21.686,19.609Zm13.788,2.009A1.13,1.13,0,0,0,35,20.651a4.514,4.514,0,0,0-1.635-.594,7.731,7.731,0,0,1-1.851-.6,2.633,2.633,0,0,1-1.013-.83,1.986,1.986,0,0,1-.328-1.146,2.33,2.33,0,0,1,.934-1.868,3.647,3.647,0,0,1,2.386-.764,3.753,3.753,0,0,1,2.478.789,2.5,2.5,0,0,1,.95,2.017H35.382a1.386,1.386,0,0,0-.535-1.087,2.006,2.006,0,0,0-1.349-.457,2.1,2.1,0,0,0-1.312.365,1.15,1.15,0,0,0-.473.955.932.932,0,0,0,.44.838,5.413,5.413,0,0,0,1.59.54,8.283,8.283,0,0,1,1.864.614,2.718,2.718,0,0,1,1.058.859,2.112,2.112,0,0,1,.344,1.224,2.3,2.3,0,0,1-.963,1.93,4.039,4.039,0,0,1-2.5.726,4.523,4.523,0,0,1-1.909-.382,3.105,3.105,0,0,1-1.3-1.067,2.571,2.571,0,0,1-.469-1.482h1.536a1.59,1.59,0,0,0,.618,1.224,2.4,2.4,0,0,0,1.523.452,2.476,2.476,0,0,0,1.4-.353A1.084,1.084,0,0,0,35.473,21.618Z" transform="translate(1094 3126)" fill="#12263f"/>
      <path id="Trazado_610519" data-name="Trazado 610519" d="M-43.683,0V-12.086h3.412a5.492,5.492,0,0,1,2.789.7A4.716,4.716,0,0,1-35.61-9.4a6.457,6.457,0,0,1,.668,2.955v.772a6.48,6.48,0,0,1-.66,3A4.642,4.642,0,0,1-37.486-.706,5.842,5.842,0,0,1-40.338,0Zm1.594-10.783V-1.3h1.677A3.648,3.648,0,0,0-37.544-2.45a4.737,4.737,0,0,0,1.025-3.265v-.706a4.812,4.812,0,0,0-.967-3.2,3.441,3.441,0,0,0-2.743-1.159ZM-31.107,0h-1.536V-8.981h1.536Zm-1.66-11.364a.917.917,0,0,1,.228-.631.857.857,0,0,1,.677-.257.87.87,0,0,1,.681.257.907.907,0,0,1,.232.631.877.877,0,0,1-.232.623.886.886,0,0,1-.681.249.872.872,0,0,1-.677-.249A.886.886,0,0,1-32.767-11.364ZM-23.105,0a3.226,3.226,0,0,1-.216-.946A3.426,3.426,0,0,1-25.878.166a3.17,3.17,0,0,1-2.179-.751,2.43,2.43,0,0,1-.851-1.905,2.539,2.539,0,0,1,1.067-2.179,5.029,5.029,0,0,1,3-.776h1.494v-.706a1.725,1.725,0,0,0-.481-1.282,1.935,1.935,0,0,0-1.419-.477,2.239,2.239,0,0,0-1.378.415,1.223,1.223,0,0,0-.556,1h-1.544a2.119,2.119,0,0,1,.477-1.3,3.258,3.258,0,0,1,1.295-.992,4.356,4.356,0,0,1,1.8-.365,3.551,3.551,0,0,1,2.432.776,2.8,2.8,0,0,1,.913,2.137V-2.1a5.054,5.054,0,0,0,.315,1.967V0Zm-2.548-1.17a2.7,2.7,0,0,0,1.37-.374,2.259,2.259,0,0,0,.938-.971V-4.358h-1.2q-2.822,0-2.822,1.652a1.4,1.4,0,0,0,.481,1.129A1.85,1.85,0,0,0-25.654-1.17Zm5.885-3.4A5.279,5.279,0,0,1-18.8-7.906a3.106,3.106,0,0,1,2.573-1.241,3.09,3.09,0,0,1,2.565,1.162l.075-1h1.4V-.216a3.654,3.654,0,0,1-1.033,2.748,3.814,3.814,0,0,1-2.777,1,4.619,4.619,0,0,1-1.9-.415,3.272,3.272,0,0,1-1.419-1.137l.8-.921A3,3,0,0,0-16.1,2.283a2.353,2.353,0,0,0,1.747-.631,2.411,2.411,0,0,0,.627-1.776V-.9A3.156,3.156,0,0,1-16.24.166,3.068,3.068,0,0,1-18.793-1.1,5.55,5.55,0,0,1-19.768-4.565Zm1.544.174A4.027,4.027,0,0,0-17.6-2a2.023,2.023,0,0,0,1.743.867,2.249,2.249,0,0,0,2.133-1.32v-4.1a2.276,2.276,0,0,0-2.117-1.287,2.041,2.041,0,0,0-1.751.872A4.386,4.386,0,0,0-18.224-4.391Zm9.812-4.59.05,1.129A3.273,3.273,0,0,1-5.674-9.147q2.847,0,2.872,3.212V0H-4.337V-5.943a2.068,2.068,0,0,0-.444-1.436,1.78,1.78,0,0,0-1.357-.465,2.216,2.216,0,0,0-1.312.4A2.706,2.706,0,0,0-8.33-6.4V0H-9.865V-8.981ZM-.892-4.574A5.3,5.3,0,0,1-.374-6.948,3.87,3.87,0,0,1,1.071-8.575a3.932,3.932,0,0,1,2.113-.573,3.788,3.788,0,0,1,2.968,1.27A4.886,4.886,0,0,1,7.284-4.5v.108a5.351,5.351,0,0,1-.5,2.353A3.813,3.813,0,0,1,5.346-.415,3.977,3.977,0,0,1,3.2.166,3.778,3.778,0,0,1,.241-1.1,4.861,4.861,0,0,1-.892-4.466Zm1.544.183a3.842,3.842,0,0,0,.693,2.4,2.218,2.218,0,0,0,1.855.9A2.2,2.2,0,0,0,5.059-2a4.2,4.2,0,0,0,.689-2.569,3.836,3.836,0,0,0-.7-2.395,2.23,2.23,0,0,0-1.864-.917,2.205,2.205,0,0,0-1.834.9A4.17,4.17,0,0,0,.652-4.391ZM3.881-12.75H5.74L3.515-10.31l-1.237,0ZM14.439-2.382a1.131,1.131,0,0,0-.469-.967,4.514,4.514,0,0,0-1.635-.594,7.731,7.731,0,0,1-1.851-.6,2.633,2.633,0,0,1-1.013-.83,1.986,1.986,0,0,1-.328-1.146,2.33,2.33,0,0,1,.934-1.868,3.647,3.647,0,0,1,2.386-.764,3.753,3.753,0,0,1,2.478.789,2.5,2.5,0,0,1,.95,2.017H14.348a1.386,1.386,0,0,0-.535-1.087,2.006,2.006,0,0,0-1.349-.457,2.1,2.1,0,0,0-1.312.365,1.15,1.15,0,0,0-.473.955.932.932,0,0,0,.44.838,5.413,5.413,0,0,0,1.59.54,8.283,8.283,0,0,1,1.864.614,2.718,2.718,0,0,1,1.058.859,2.112,2.112,0,0,1,.344,1.224,2.3,2.3,0,0,1-.963,1.93,4.039,4.039,0,0,1-2.5.726A4.523,4.523,0,0,1,10.6-.216a3.105,3.105,0,0,1-1.3-1.067,2.571,2.571,0,0,1-.469-1.482h1.536A1.59,1.59,0,0,0,10.99-1.54a2.4,2.4,0,0,0,1.523.452,2.476,2.476,0,0,0,1.4-.353A1.084,1.084,0,0,0,14.439-2.382Zm5.62-8.774v2.175h1.677v1.187H20.059v5.577a1.247,1.247,0,0,0,.224.81.943.943,0,0,0,.764.27,3.718,3.718,0,0,0,.73-.1V0A4.478,4.478,0,0,1,20.6.166a1.912,1.912,0,0,1-1.552-.623,2.675,2.675,0,0,1-.523-1.768v-5.57H16.888V-8.981h1.635v-2.175ZM25.2,0H23.661V-8.981H25.2Zm-1.66-11.364a.917.917,0,0,1,.228-.631.857.857,0,0,1,.677-.257.87.87,0,0,1,.681.257.907.907,0,0,1,.232.631.877.877,0,0,1-.232.623.886.886,0,0,1-.681.249.872.872,0,0,1-.677-.249A.886.886,0,0,1,23.537-11.364Zm7.72,10.276a2.212,2.212,0,0,0,1.436-.5,1.752,1.752,0,0,0,.681-1.245h1.453a2.785,2.785,0,0,1-.531,1.469A3.5,3.5,0,0,1,32.987-.249a3.772,3.772,0,0,1-1.731.415,3.7,3.7,0,0,1-2.918-1.224,4.877,4.877,0,0,1-1.083-3.349v-.257A5.407,5.407,0,0,1,27.737-7a3.667,3.667,0,0,1,1.382-1.585,3.926,3.926,0,0,1,2.129-.564,3.6,3.6,0,0,1,2.511.9,3.234,3.234,0,0,1,1.067,2.349H33.373a2.116,2.116,0,0,0-.66-1.432,2.053,2.053,0,0,0-1.465-.56,2.149,2.149,0,0,0-1.814.843,3.957,3.957,0,0,0-.643,2.436v.291a3.878,3.878,0,0,0,.639,2.391A2.16,2.16,0,0,0,31.257-1.087Zm4.889-3.486a5.3,5.3,0,0,1,.519-2.374,3.87,3.87,0,0,1,1.444-1.627,3.932,3.932,0,0,1,2.113-.573,3.788,3.788,0,0,1,2.968,1.27A4.886,4.886,0,0,1,44.322-4.5v.108a5.351,5.351,0,0,1-.5,2.353A3.813,3.813,0,0,1,42.384-.415a3.977,3.977,0,0,1-2.146.581A3.778,3.778,0,0,1,37.279-1.1a4.861,4.861,0,0,1-1.133-3.362Zm1.544.183a3.842,3.842,0,0,0,.693,2.4,2.218,2.218,0,0,0,1.855.9A2.2,2.2,0,0,0,42.1-2a4.2,4.2,0,0,0,.689-2.569,3.836,3.836,0,0,0-.7-2.395,2.23,2.23,0,0,0-1.864-.917,2.205,2.205,0,0,0-1.834.9A4.17,4.17,0,0,0,37.69-4.391ZM-52.432,19.435a5.261,5.261,0,0,1,.979-3.324,3.1,3.1,0,0,1,2.565-1.258,3.115,3.115,0,0,1,2.5,1.079V11.25h1.536V24h-1.411l-.075-.963A3.127,3.127,0,0,1-48.9,24.166a3.068,3.068,0,0,1-2.544-1.278,5.321,5.321,0,0,1-.984-3.337Zm1.536.174A3.984,3.984,0,0,0-50.265,22a2.039,2.039,0,0,0,1.743.863,2.24,2.24,0,0,0,2.133-1.312V17.426a2.257,2.257,0,0,0-2.117-1.27,2.049,2.049,0,0,0-1.76.872A4.386,4.386,0,0,0-50.9,19.609Zm12.152,4.557a3.924,3.924,0,0,1-2.972-1.2,4.452,4.452,0,0,1-1.146-3.208v-.282a5.39,5.39,0,0,1,.51-2.386,3.982,3.982,0,0,1,1.428-1.644,3.59,3.59,0,0,1,1.988-.594,3.364,3.364,0,0,1,2.723,1.154,5,5,0,0,1,.971,3.3v.639h-6.084a3.193,3.193,0,0,0,.776,2.146,2.44,2.44,0,0,0,1.888.818,2.675,2.675,0,0,0,1.378-.332,3.462,3.462,0,0,0,.988-.88l.938.73A3.772,3.772,0,0,1-38.744,24.166Zm-.191-8.052a2.048,2.048,0,0,0-1.561.677,3.288,3.288,0,0,0-.78,1.9h4.5v-.116a2.925,2.925,0,0,0-.631-1.814A1.928,1.928,0,0,0-38.935,16.114ZM-27.588,24h-1.536V11.25h1.536Zm8,0a3.226,3.226,0,0,1-.216-.946,3.426,3.426,0,0,1-2.557,1.112,3.17,3.17,0,0,1-2.179-.751,2.43,2.43,0,0,1-.851-1.905,2.539,2.539,0,0,1,1.067-2.179,5.029,5.029,0,0,1,3-.776h1.494v-.706a1.725,1.725,0,0,0-.481-1.282,1.935,1.935,0,0,0-1.419-.477,2.239,2.239,0,0,0-1.378.415,1.223,1.223,0,0,0-.556,1h-1.544a2.119,2.119,0,0,1,.477-1.3,3.258,3.258,0,0,1,1.295-.992,4.356,4.356,0,0,1,1.8-.365,3.551,3.551,0,0,1,2.432.776,2.8,2.8,0,0,1,.913,2.137V21.9a5.054,5.054,0,0,0,.315,1.967V24Zm-2.548-1.17a2.7,2.7,0,0,0,1.37-.374,2.259,2.259,0,0,0,.938-.971V19.642h-1.2q-2.822,0-2.822,1.652a1.4,1.4,0,0,0,.481,1.129A1.85,1.85,0,0,0-22.134,22.83Zm14.186,1.336a3.924,3.924,0,0,1-2.972-1.2,4.452,4.452,0,0,1-1.146-3.208v-.282a5.39,5.39,0,0,1,.51-2.386,3.982,3.982,0,0,1,1.428-1.644,3.59,3.59,0,0,1,1.988-.594,3.364,3.364,0,0,1,2.723,1.154,5,5,0,0,1,.971,3.3v.639H-10.53a3.193,3.193,0,0,0,.776,2.146,2.44,2.44,0,0,0,1.888.818,2.675,2.675,0,0,0,1.378-.332A3.462,3.462,0,0,0-5.5,21.7l.938.73A3.772,3.772,0,0,1-7.948,24.166Zm-.191-8.052a2.048,2.048,0,0,0-1.561.677,3.288,3.288,0,0,0-.78,1.9h4.5v-.116a2.925,2.925,0,0,0-.631-1.814A1.928,1.928,0,0,0-8.139,16.114Zm6.915-1.1.042,1a3.317,3.317,0,0,1,2.665-1.162A2.568,2.568,0,0,1,4.047,16.3a3.4,3.4,0,0,1,1.166-1.046,3.445,3.445,0,0,1,1.7-.4q2.955,0,3,3.129V24H8.38V18.073a2.062,2.062,0,0,0-.44-1.44,1.937,1.937,0,0,0-1.478-.477,2.036,2.036,0,0,0-1.419.51,2.071,2.071,0,0,0-.656,1.374V24H2.843V18.115A1.713,1.713,0,0,0,.926,16.156a2.055,2.055,0,0,0-2.067,1.287V24H-2.677V15.019Zm21.042,4.59a5.378,5.378,0,0,1-.938,3.3,3.006,3.006,0,0,1-2.54,1.253,3.294,3.294,0,0,1-2.573-1.038v4.325H12.231V15.019h1.4l.075,1a3.163,3.163,0,0,1,2.606-1.162,3.063,3.063,0,0,1,2.561,1.22,5.437,5.437,0,0,1,.942,3.4Zm-1.536-.174a3.968,3.968,0,0,0-.647-2.4,2.086,2.086,0,0,0-1.776-.88,2.257,2.257,0,0,0-2.092,1.237v4.292a2.262,2.262,0,0,0,2.108,1.229,2.076,2.076,0,0,0,1.756-.876A4.332,4.332,0,0,0,18.282,19.435ZM26.11,16.4a4.6,4.6,0,0,0-.755-.058,2.024,2.024,0,0,0-2.05,1.287V24H21.769V15.019h1.494l.025,1.038a2.391,2.391,0,0,1,2.142-1.2,1.569,1.569,0,0,1,.681.116Zm4.98,7.77a3.924,3.924,0,0,1-2.972-1.2,4.452,4.452,0,0,1-1.146-3.208v-.282a5.39,5.39,0,0,1,.51-2.386,3.982,3.982,0,0,1,1.428-1.644,3.59,3.59,0,0,1,1.988-.594,3.364,3.364,0,0,1,2.723,1.154,5,5,0,0,1,.971,3.3v.639H28.509a3.193,3.193,0,0,0,.776,2.146,2.44,2.44,0,0,0,1.888.818,2.675,2.675,0,0,0,1.378-.332,3.462,3.462,0,0,0,.988-.88l.938.73A3.772,3.772,0,0,1,31.091,24.166ZM30.9,16.114a2.048,2.048,0,0,0-1.561.677,3.288,3.288,0,0,0-.78,1.9h4.5v-.116a2.925,2.925,0,0,0-.631-1.814A1.928,1.928,0,0,0,30.9,16.114Zm10.7,5.5a1.13,1.13,0,0,0-.469-.967,4.514,4.514,0,0,0-1.635-.594,7.731,7.731,0,0,1-1.851-.6,2.633,2.633,0,0,1-1.013-.83,1.986,1.986,0,0,1-.328-1.146,2.33,2.33,0,0,1,.934-1.868,3.647,3.647,0,0,1,2.386-.764,3.753,3.753,0,0,1,2.478.789,2.5,2.5,0,0,1,.95,2.017H41.508a1.386,1.386,0,0,0-.535-1.087,2.006,2.006,0,0,0-1.349-.457,2.1,2.1,0,0,0-1.312.365,1.15,1.15,0,0,0-.473.955.932.932,0,0,0,.44.838,5.413,5.413,0,0,0,1.59.54,8.283,8.283,0,0,1,1.864.614,2.718,2.718,0,0,1,1.058.859,2.112,2.112,0,0,1,.344,1.224,2.3,2.3,0,0,1-.963,1.93,4.039,4.039,0,0,1-2.5.726,4.523,4.523,0,0,1-1.909-.382,3.105,3.105,0,0,1-1.3-1.067A2.571,2.571,0,0,1,36,21.236h1.536a1.59,1.59,0,0,0,.618,1.224,2.4,2.4,0,0,0,1.523.452,2.476,2.476,0,0,0,1.4-.353A1.084,1.084,0,0,0,41.6,21.618ZM50.68,24a3.226,3.226,0,0,1-.216-.946,3.426,3.426,0,0,1-2.557,1.112,3.17,3.17,0,0,1-2.179-.751,2.43,2.43,0,0,1-.851-1.905,2.539,2.539,0,0,1,1.067-2.179,5.029,5.029,0,0,1,3-.776H50.44v-.706a1.725,1.725,0,0,0-.481-1.282,1.935,1.935,0,0,0-1.419-.477,2.239,2.239,0,0,0-1.378.415,1.223,1.223,0,0,0-.556,1H45.061a2.119,2.119,0,0,1,.477-1.3,3.258,3.258,0,0,1,1.295-.992,4.356,4.356,0,0,1,1.8-.365,3.551,3.551,0,0,1,2.432.776,2.8,2.8,0,0,1,.913,2.137V21.9a5.054,5.054,0,0,0,.315,1.967V24Zm-2.548-1.17a2.7,2.7,0,0,0,1.37-.374,2.259,2.259,0,0,0,.938-.971V19.642h-1.2q-2.822,0-2.822,1.652a1.4,1.4,0,0,0,.481,1.129A1.85,1.85,0,0,0,48.132,22.83Z" transform="translate(1094 3478)" fill="#12263f"/>
      <g id="Grupo_1072360" data-name="Grupo 1072360" transform="translate(255.323 3000.699)">
        <g id="Grupo_1072359" data-name="Grupo 1072359" transform="translate(-30.555)" clip-path="url(#clip-path-3)">
          <path id="Trazado_609578" data-name="Trazado 609578" d="M82.03,213.33l8.592-1.588,1.92-9.058,1.92,9.058,8.592,1.592L94.5,215.425l-1.956,8.555-1.957-8.555Z" transform="translate(27.349 67.574)" fill="#d4d4d4"/>
          <path id="Trazado_609579" data-name="Trazado 609579" d="M345.9,375.38l8.592-1.588,1.92-9.058,1.92,9.058,8.592,1.592-8.555,2.091-1.957,8.555-1.957-8.555Z" transform="translate(115.324 121.601)" fill="#d4d4d4"/>
          <path id="Trazado_609580" data-name="Trazado 609580" d="M360.048,68.095l4.8-.888,1.072-5.062L367,67.207l4.8.891-4.782,1.168-1.095,4.782-1.093-4.782Z" transform="translate(120.039 20.719)" fill="#d4d4d4"/>
          <path id="Trazado_609581" data-name="Trazado 609581" d="M37.072,341.99l4.8-.888,1.073-5.062,1.073,5.062,4.8.891-4.782,1.168-1.093,4.782-1.095-4.782Z" transform="translate(12.36 112.035)" fill="#d4d4d4"/>
          <path id="Trazado_609582" data-name="Trazado 609582" d="M132.9,324.607l4.8-.888,1.073-5.062,1.072,5.062,4.8.891-4.782,1.168-1.093,4.782-1.095-4.782Z" transform="translate(44.308 106.24)" fill="#d4d4d4"/>
          <path id="Trazado_609583" data-name="Trazado 609583" d="M379.1,252.89l4.8-.888,1.073-5.062L386.047,252l4.8.891-4.782,1.168-1.093,4.782-1.095-4.782Z" transform="translate(126.391 82.329)" fill="#d4d4d4"/>
          <path id="Trazado_609584" data-name="Trazado 609584" d="M18.675,86.561l4.8-.888,1.073-5.062,1.072,5.062,4.8.891-4.782,1.168-1.093,4.782-1.095-4.782Z" transform="translate(6.226 26.876)" fill="#d4d4d4"/>
          <g id="Grupo_1072358" data-name="Grupo 1072358">
            <g id="Grupo_1072357" data-name="Grupo 1072357" clip-path="url(#clip-path-3)">
              <path id="Trazado_609585" data-name="Trazado 609585" d="M156.281,346.707a1.393,1.393,0,0,0,0-2.784,1.393,1.393,0,0,0,0,2.784" transform="translate(51.656 114.663)" fill="#d4d4d4"/>
              <path id="Trazado_609586" data-name="Trazado 609586" d="M34.42,163.63a1.393,1.393,0,0,0,0-2.784,1.393,1.393,0,0,0,0,2.784" transform="translate(11.027 53.626)" fill="#d4d4d4"/>
              <path id="Trazado_609587" data-name="Trazado 609587" d="M366.807,363.425a.985.985,0,0,0,0-1.969.985.985,0,0,0,0,1.969" transform="translate(121.975 120.509)" fill="#d4d4d4"/>
              <path id="Trazado_609588" data-name="Trazado 609588" d="M360.286,94.7a.985.985,0,0,0,0-1.969.985.985,0,0,0,0,1.969" transform="translate(119.801 30.917)" fill="#d4d4d4"/>
              <path id="Trazado_609589" data-name="Trazado 609589" d="M361.91,225.386a.985.985,0,0,0,0-1.969.985.985,0,0,0,0,1.969" transform="translate(120.343 74.487)" fill="#d4d4d4"/>
              <path id="Trazado_609590" data-name="Trazado 609590" d="M157.191,37.846a.985.985,0,0,0,0-1.969.985.985,0,0,0,0,1.969" transform="translate(52.09 11.961)" fill="#d4d4d4"/>
              <path id="Trazado_609591" data-name="Trazado 609591" d="M282.753,239.043a.985.985,0,0,0,0-1.969.985.985,0,0,0,0,1.969" transform="translate(93.952 79.04)" fill="#d4d4d4"/>
              <path id="Trazado_609592" data-name="Trazado 609592" d="M85.755,179.9a.985.985,0,0,0,0-1.969.985.985,0,0,0,0,1.969" transform="translate(28.273 59.321)" fill="#d4d4d4"/>
              <path id="Trazado_609593" data-name="Trazado 609593" d="M378.568,298.826a.985.985,0,0,0,0-1.969.985.985,0,0,0,0,1.969" transform="translate(125.896 98.971)" fill="#d4d4d4"/>
              <path id="Trazado_609594" data-name="Trazado 609594" d="M46.837,90.768a.985.985,0,0,0,0-1.969.985.985,0,0,0,0,1.969" transform="translate(15.298 29.605)" fill="#d4d4d4"/>
              <path id="Trazado_609595" data-name="Trazado 609595" d="M367.033,298.93c3.435,0,3.44-5.339,0-5.339s-3.44,5.339,0,5.339" transform="translate(121.508 97.883)" fill="#d4d4d4"/>
              <path id="Trazado_609596" data-name="Trazado 609596" d="M330.5,207.555c3.435,0,3.44-5.339,0-5.339s-3.44,5.339,0,5.339" transform="translate(109.327 67.418)" fill="#d4d4d4"/>
              <path id="Trazado_609597" data-name="Trazado 609597" d="M110.651,133.769c3.435,0,3.44-5.338,0-5.338s-3.44,5.338,0,5.338" transform="translate(36.031 42.819)" fill="#d4d4d4"/>
              <path id="Trazado_609598" data-name="Trazado 609598" d="M67.983,296.928c3.435,0,3.44-5.338,0-5.338s-3.44,5.338,0,5.338" transform="translate(21.806 97.215)" fill="#d4d4d4"/>
              <path id="Trazado_609599" data-name="Trazado 609599" d="M93.931,61.283l8.592-1.588,1.92-9.058,1.92,9.058,8.592,1.592L106.4,63.377l-1.956,8.555-1.957-8.555Z" transform="translate(31.317 16.882)" fill="#ffbe00"/>
              <path id="Trazado_609600" data-name="Trazado 609600" d="M270.648,192.3l8.592-1.588,1.92-9.058,1.92,9.058,8.592,1.593-8.556,2.089-1.956,8.555L279.2,194.4Z" transform="translate(90.233 60.564)" fill="#ffbe00"/>
              <path id="Trazado_609601" data-name="Trazado 609601" d="M126.965,167.84l4.8-.888,1.072-5.062,1.073,5.062,4.8.891-4.782,1.168-1.095,4.782-1.093-4.782Z" transform="translate(42.33 53.974)" fill="#ffbe00"/>
              <path id="Trazado_609602" data-name="Trazado 609602" d="M132,42.565l4.8-.888,1.073-5.062,1.073,5.062,4.8.891-4.782,1.168-1.093,4.782-1.095-4.782Z" transform="translate(44.009 12.208)" fill="#ffbe00"/>
              <path id="Trazado_609603" data-name="Trazado 609603" d="M303.842,69.813l4.8-.888,1.073-5.062,1.073,5.062,4.8.891-4.782,1.168-1.093,4.782-1.095-4.782Z" transform="translate(101.3 21.292)" fill="#ffbe00"/>
              <path id="Trazado_609604" data-name="Trazado 609604" d="M206.331,5.95l4.8-.888L212.206,0l1.073,5.062,4.8.891L213.3,7.121,212.206,11.9l-1.093-4.782Z" transform="translate(68.79 0)" fill="#ffbe00"/>
              <path id="Trazado_609605" data-name="Trazado 609605" d="M117.149,175.746a1.393,1.393,0,0,0,0-2.784,1.393,1.393,0,0,0,0,2.784" transform="translate(38.609 57.665)" fill="#ffbe00"/>
              <path id="Trazado_609606" data-name="Trazado 609606" d="M291.551,180.348a.985.985,0,0,0,0-1.969.985.985,0,0,0,0,1.969" transform="translate(96.885 59.471)" fill="#ffbe00"/>
              <path id="Trazado_609607" data-name="Trazado 609607" d="M120.558,115.01a.985.985,0,0,0,0-1.968.985.985,0,0,0,0,1.968" transform="translate(39.877 37.688)" fill="#ffbe00"/>
              <path id="Trazado_609608" data-name="Trazado 609608" d="M286.654,42.309a.985.985,0,0,0,0-1.969.985.985,0,0,0,0,1.969" transform="translate(95.253 13.449)" fill="#ffbe00"/>
              <path id="Trazado_609609" data-name="Trazado 609609" d="M113.136,65.832a.985.985,0,0,0,0-1.969.985.985,0,0,0,0,1.969" transform="translate(37.402 21.292)" fill="#ffbe00"/>
              <path id="Trazado_609610" data-name="Trazado 609610" d="M303.311,115.749a.985.985,0,0,0,0-1.969.985.985,0,0,0,0,1.969" transform="translate(100.806 37.934)" fill="#ffbe00"/>
              <path id="Trazado_609611" data-name="Trazado 609611" d="M234.493,10.158a.985.985,0,0,0,0-1.969.985.985,0,0,0,0,1.969" transform="translate(77.862 2.73)" fill="#ffbe00"/>
              <path id="Trazado_609612" data-name="Trazado 609612" d="M291.776,115.853c3.435,0,3.44-5.339,0-5.339s-3.44,5.339,0,5.339" transform="translate(96.418 36.845)" fill="#ffbe00"/>
              <path id="Trazado_609613" data-name="Trazado 609613" d="M259.107,43.677c3.435,0,3.44-5.339,0-5.339s-3.44,5.339,0,5.339" transform="translate(85.526 12.782)" fill="#ffbe00"/>
              <path id="Trazado_609614" data-name="Trazado 609614" d="M139.883,144.354c3.435,0,3.44-5.338,0-5.338s-3.44,5.338,0,5.338" transform="translate(45.777 46.348)" fill="#ffbe00"/>
              <path id="Trazado_609615" data-name="Trazado 609615" d="M202.694,25.314a102.444,102.444,0,0,1-.428-23.236,102.517,102.517,0,0,1,.428,23.236" transform="translate(67.28 0.693)" fill="#142328"/>
              <path id="Trazado_609616" data-name="Trazado 609616" d="M165.682,35.584a102.493,102.493,0,0,1-11.989-19.909,102.561,102.561,0,0,1,11.989,19.909" transform="translate(51.241 5.226)" fill="#142328"/>
              <path id="Trazado_609617" data-name="Trazado 609617" d="M138.863,62.925a102.434,102.434,0,0,1-20.336-11.247,102.472,102.472,0,0,1,20.336,11.247" transform="translate(39.517 17.229)" fill="#142328"/>
              <path id="Trazado_609618" data-name="Trazado 609618" d="M129.309,100.237a102.443,102.443,0,0,1-23.236.428,102.518,102.518,0,0,1,23.236-.428" transform="translate(35.364 33.264)" fill="#142328"/>
              <path id="Trazado_609619" data-name="Trazado 609619" d="M139.579,139.908A102.5,102.5,0,0,1,119.67,151.9a102.6,102.6,0,0,1,19.909-11.989" transform="translate(39.898 46.645)" fill="#142328"/>
              <path id="Trazado_609620" data-name="Trazado 609620" d="M272.809,138.483a102.418,102.418,0,0,1,20.337,11.249,102.385,102.385,0,0,1-20.337-11.249" transform="translate(90.954 46.17)" fill="#142328"/>
              <path id="Trazado_609621" data-name="Trazado 609621" d="M283.088,98.7a102.52,102.52,0,0,1,23.236-.428,102.44,102.44,0,0,1-23.236.428" transform="translate(94.381 32.609)" fill="#142328"/>
              <path id="Trazado_609622" data-name="Trazado 609622" d="M271.986,61.687A102.5,102.5,0,0,1,291.895,49.7a102.428,102.428,0,0,1-19.909,11.989" transform="translate(90.679 16.569)" fill="#142328"/>
              <path id="Trazado_609623" data-name="Trazado 609623" d="M242.478,34.868a102.483,102.483,0,0,1,11.247-20.337,102.444,102.444,0,0,1-11.247,20.337" transform="translate(80.842 4.845)" fill="#142328"/>
              <g id="Grupo_1072332" data-name="Grupo 1072332" transform="translate(176.905 38.855)" opacity="0.5">
                <g id="Grupo_1072331" data-name="Grupo 1072331">
                  <g id="Grupo_1072330" data-name="Grupo 1072330" clip-path="url(#clip-path-5)">
                    <path id="Trazado_609624" data-name="Trazado 609624" d="M320.762,129.6c-4.656,58.333-53.257,75.918-53.257,75.918-3.574,8.867-8.23,31.42-8.23,31.42H194.4s-4.656-22.553-8.231-31.42c0,0-48.6-17.585-53.256-75.918C129.68,89.071,158.543,29.153,226.487,29.14h.7C295.136,29.153,324,89.071,320.762,129.6" transform="translate(-132.672 -29.14)" fill="#ffbe00"/>
                  </g>
                </g>
              </g>
              <g id="Grupo_1072335" data-name="Grupo 1072335" transform="translate(184.944 47.725)" opacity="0.7">
                <g id="Grupo_1072334" data-name="Grupo 1072334">
                  <g id="Grupo_1072333" data-name="Grupo 1072333" clip-path="url(#clip-path-6)">
                    <path id="Trazado_609625" data-name="Trazado 609625" d="M310.733,127.678c-4.259,53.353-48.71,69.438-48.71,69.438-3.268,8.11-7.528,37.607-7.528,37.607H195.161s-4.259-29.5-7.528-37.607c0,0-44.45-16.085-48.709-69.438-2.96-37.071,23.438-91.872,85.583-91.886h.644c62.144.013,88.542,54.815,85.583,91.886" transform="translate(-138.701 -35.792)" fill="#ffbe00"/>
                  </g>
                </g>
              </g>
              <line id="Línea_888" data-name="Línea 888" x1="19.07" y1="102.141" transform="translate(236.232 150.029)" fill="none" stroke="#fff" stroke-miterlimit="10" stroke-width="3"/>
              <line id="Línea_889" data-name="Línea 889" y1="102.146" x2="19.037" transform="translate(286.872 150.019)" fill="none" stroke="#fff" stroke-miterlimit="10" stroke-width="3"/>
              <path id="Trazado_609626" data-name="Trazado 609626" d="M178.389,117.9s3.777,20,12.834,20,17.544-29.815,5.656-29.813-.373,39.059,14.722,39.057,23.77-39.063,13.2-39.061-7.226,31.135,7.3,31.132c7.8,0,13.363-20.056,13.363-20.056" transform="translate(59.474 36.033)" fill="none" stroke="#fff" stroke-miterlimit="10" stroke-width="1"/>
              <rect id="Rectángulo_377801" data-name="Rectángulo 377801" width="81.268" height="44.727" transform="translate(230.436 246.736)" fill="#2b4852"/>
              <path id="Trazado_609627" data-name="Trazado 609627" d="M242.571,218.584c-4.779,8.475-13.943,16.055-31.42,16.055s-26.643-7.58-31.422-16.055Z" transform="translate(59.921 72.875)" fill="#2b4852"/>
              <path id="Trazado_609628" data-name="Trazado 609628" d="M242.571,218.584a30.142,30.142,0,0,1-5.266,6.878l-55.951-4.292a29.444,29.444,0,0,1-1.625-2.585Z" transform="translate(59.921 72.875)" fill="#21363d"/>
              <path id="Trazado_609629" data-name="Trazado 609629" d="M257.058,192.416l-86.021,7.952v-3.9l86.021-7.952Z" transform="translate(57.023 62.85)" fill="#21363d"/>
              <path id="Trazado_609630" data-name="Trazado 609630" d="M257.058,201.271l-86.021,7.952v-3.9l86.021-7.952Z" transform="translate(57.023 65.803)" fill="#21363d"/>
              <path id="Trazado_609631" data-name="Trazado 609631" d="M257.058,210.126l-86.021,7.952v-3.9l86.021-7.952Z" transform="translate(57.023 68.755)" fill="#21363d"/>
              <g id="Grupo_1072338" data-name="Grupo 1072338" transform="translate(196.308 62.482)" opacity="0.5">
                <g id="Grupo_1072337" data-name="Grupo 1072337">
                  <g id="Grupo_1072336" data-name="Grupo 1072336" clip-path="url(#clip-path-7)">
                    <path id="Trazado_609632" data-name="Trazado 609632" d="M148.536,110.066c2.979.5,6.836-14.877,23.372-32.675,7.346-7.908,35.21-17.8,33.2-26.924s-26.867.257-39.371,14.745c-20.122,23.314-19.945,44.4-17.2,44.854" transform="translate(-147.224 -46.859)" fill="#fff"/>
                    <path id="Trazado_609633" data-name="Trazado 609633" d="M259.189,98.794c5.48,0,5.49-8.518,0-8.518s-5.49,8.518,0,8.518" transform="translate(-111.267 -32.384)" fill="#fff"/>
                    <path id="Trazado_609634" data-name="Trazado 609634" d="M238.166,159.266c3,2.283,17.54-11.133,24.1-27.147,5.442-13.289,6.38-30.1,2.719-31.068s-6.032,22.081-10.433,30.571c-5.555,10.717-19.586,25.205-16.383,27.644" transform="translate(-117.061 -28.801)" fill="#fff"/>
                  </g>
                </g>
              </g>
              <path id="Trazado_609635" data-name="Trazado 609635" d="M496.792,454.649c-150.422.816-319.162.823-469.584,0,150.422-.823,319.163-.816,469.584,0" transform="translate(9.071 151.374)" fill="#142328"/>
              <path id="Trazado_609636" data-name="Trazado 609636" d="M214.054,357.515s-74.018-24.391-79.639-31.5-24.7-65.534-25.368-71.669,10.662-9.776,22.948,2.94c13.5,13.978,23.329,45.906,28.891,47.51,2.1.605,36.814,6.163,40.177,7.586s12.991,45.133,12.991,45.133" transform="translate(36.347 82.931)" fill="#e66057"/>
              <g id="Grupo_1072341" data-name="Grupo 1072341" transform="translate(145.367 331.676)" opacity="0.1">
                <g id="Grupo_1072340" data-name="Grupo 1072340">
                  <g id="Grupo_1072339" data-name="Grupo 1072339" clip-path="url(#clip-path-8)">
                    <path id="Trazado_609637" data-name="Trazado 609637" d="M214.054,357.515s-74.018-24.391-79.639-31.5-24.7-65.534-25.368-71.669,10.662-9.776,22.948,2.94c13.5,13.978,23.329,45.906,28.891,47.51,2.1.605,36.814,6.163,40.177,7.586s12.991,45.133,12.991,45.133" transform="translate(-109.02 -248.745)"/>
                  </g>
                </g>
              </g>
              <path id="Trazado_609638" data-name="Trazado 609638" d="M227.854,390.844S127.676,322.817,122.8,315.178s-19.577-70.315-19.626-76.486,15.269-6.84,26.216,7.046c12.033,15.265,21.632,45.016,27,47.17,2.028.813,30.881,13.646,34.084,15.4s37.378,82.537,37.378,82.537" transform="translate(34.397 78.181)" fill="#e66057"/>
              <path id="Trazado_609639" data-name="Trazado 609639" d="M160.1,358.622c-11.729-13.8-38.694-86.359-40.054-95.319s35.134-78.337,50.276-95.029c6.952-7.664,21.736,8.351,19.6,34.955-2.32,28.949-20.468,56.84-17.681,61.838,1.96,3.515,26.517,60.058,28.732,62.959,1.336,1.748,31.88,76.08,21.268,85.538,0,0-58.207-50.309-62.144-54.941" transform="translate(40.01 55.462)" fill="#e66057"/>
              <path id="Trazado_609640" data-name="Trazado 609640" d="M218.071,281.664c20.832-.635,22.686-29.331,19.752-50.082-5.454-38.554,19.7-57.063,31.706-52.135,15.465,6.348-3.911,52.143,18.421,80.465,46.622,59.13,37.019,111.369,37.019,111.369-15.423-4.573-75.941-73.8-106.9-89.618" transform="translate(72.704 59.567)" fill="#e66057"/>
              <path id="Trazado_609641" data-name="Trazado 609641" d="M204.688,395c-12.446-19.756-12.339-57.472-28.965-83.043C167.3,299,134.288,237.4,125.2,219.7c-6.284-12.241-19.457-35.57-13.573-38.447,9.507-4.652,29.811-1.284,41.625,11.162,14.743,15.533,33.658,50.278,45.022,58.119,89.026,61.428,126.455,36.222,142.256,41.017l20.42,79.538-4.622,175.167H163.5Z" transform="translate(36.723 59.762)" fill="#e66057"/>
              <g id="Grupo_1072344" data-name="Grupo 1072344" transform="translate(200.228 430.849)" opacity="0.1">
                <g id="Grupo_1072343" data-name="Grupo 1072343">
                  <g id="Grupo_1072342" data-name="Grupo 1072342" clip-path="url(#clip-path-9)">
                    <path id="Trazado_609642" data-name="Trazado 609642" d="M188.853,353.642c-2.527,43.341,94.194,46.376,158.756-30.521l-4.622,175.168H150.164Z" transform="translate(-150.164 -323.121)"/>
                  </g>
                </g>
              </g>
              <path id="Trazado_609643" data-name="Trazado 609643" d="M118.843,204.61c9.515,15.525,18.558,31.382,27.535,47.2,7.179,10.773,16.282,20.117,25.168,29.552q10.821,11.253,22.038,22.148c-3.963-3.385-7.826-6.887-11.669-10.41-13.291-12.509-26.845-25.06-37.342-40.131-9.215-15.8-18.048-31.746-25.731-48.354" transform="translate(39.622 68.216)" fill="#142328"/>
              <path id="Trazado_609644" data-name="Trazado 609644" d="M120.32,240.384c8.588,18.681,15.587,38.1,22.466,57.464a7.083,7.083,0,0,0,.579,1.348c4.107,7.151,10.179,13.247,15.594,19.474,2.795,3.156,5.69,6.22,8.542,9.336a198.959,198.959,0,0,1-22.334-22.514,27.453,27.453,0,0,1-4.4-6.924c-6.611-17.92-14.219-39.951-20.449-58.184" transform="translate(40.114 80.143)" fill="#142328"/>
              <path id="Trazado_609645" data-name="Trazado 609645" d="M141.483,188.132c5.815,3.982,10.329,9.579,14.426,15.235,4.008,5.747,14.725,21.182,17.427,27.664-8.42-11.09-22.737-32.344-31.854-42.9" transform="translate(47.17 62.723)" fill="#142328"/>
              <path id="Trazado_609646" data-name="Trazado 609646" d="M163.876,405.107l186.572,3.224-2.692,62.624H145.065Z" transform="translate(48.364 135.062)" fill="#e7e7e7"/>
              <path id="Trazado_609647" data-name="Trazado 609647" d="M147.728,421.243l209.551,3.931.872,40.4H139.238Z" transform="translate(46.422 140.441)" fill="#ffbe00"/>
              <rect id="Rectángulo_377805" data-name="Rectángulo 377805" width="300.049" height="122.986" transform="translate(130.976 483.03)" fill="#ffbe00"/>
              <g id="Grupo_1072347" data-name="Grupo 1072347" transform="translate(130.976 483.03)" opacity="0.1">
                <g id="Grupo_1072346" data-name="Grupo 1072346">
                  <g id="Grupo_1072345" data-name="Grupo 1072345" clip-path="url(#clip-path-10)">
                    <rect id="Rectángulo_377806" data-name="Rectángulo 377806" width="300.049" height="122.986" transform="translate(0 0)"/>
                  </g>
                </g>
              </g>
              <g id="Grupo_1072350" data-name="Grupo 1072350" transform="translate(280.996 483.031)" opacity="0.2">
                <g id="Grupo_1072349" data-name="Grupo 1072349">
                  <g id="Grupo_1072348" data-name="Grupo 1072348" clip-path="url(#clip-path-11)">
                    <rect id="Rectángulo_377808" data-name="Rectángulo 377808" width="150.021" height="122.991" transform="translate(0 0)"/>
                  </g>
                </g>
              </g>
              <path id="Trazado_609648" data-name="Trazado 609648" d="M352.788,474.656q-17.649-13.119-34.98-26.321l-34.471-26.453-34.031-26.569q-16.933-13.3-33.515-26.7,17.655,13.119,34.984,26.32l34.467,26.455,34.028,26.569q16.933,13.307,33.518,26.7" transform="translate(71.944 122.894)" fill="#ffbe00"/>
              <path id="Trazado_609649" data-name="Trazado 609649" d="M352.788,368.61q-16.6,13.393-33.518,26.7l-34.028,26.571-34.467,26.453q-17.321,13.207-34.984,26.321,16.593-13.395,33.515-26.7l34.031-26.568,34.471-26.453q17.317-13.207,34.98-26.321" transform="translate(71.944 122.894)" fill="#ffbe00"/>
              <rect id="Rectángulo_377810" data-name="Rectángulo 377810" width="0.861" height="12.157" transform="translate(156.162 585.834)" fill="#fff"/>
              <rect id="Rectángulo_377811" data-name="Rectángulo 377811" width="0.861" height="12.157" transform="translate(154.094 585.834)" fill="#fff"/>
              <rect id="Rectángulo_377812" data-name="Rectángulo 377812" width="0.861" height="12.157" transform="translate(152.026 585.834)" fill="#fff"/>
              <rect id="Rectángulo_377813" data-name="Rectángulo 377813" width="0.863" height="12.157" transform="translate(149.957 585.834)" fill="#fff"/>
              <rect id="Rectángulo_377814" data-name="Rectángulo 377814" width="0.861" height="12.157" transform="translate(147.888 585.834)" fill="#fff"/>
              <rect id="Rectángulo_377815" data-name="Rectángulo 377815" width="0.863" height="12.157" transform="translate(145.819 585.834)" fill="#fff"/>
              <rect id="Rectángulo_377816" data-name="Rectángulo 377816" width="0.861" height="12.157" transform="translate(143.751 585.834)" fill="#fff"/>
              <rect id="Rectángulo_377817" data-name="Rectángulo 377817" width="0.861" height="12.157" transform="translate(141.683 585.834)" fill="#fff"/>
              <rect id="Rectángulo_377818" data-name="Rectángulo 377818" width="0.861" height="12.157" transform="translate(139.613 585.834)" fill="#fff"/>
              <path id="Trazado_609650" data-name="Trazado 609650" d="M124.936,450.585l-3.317.923H129.4l-3.317-.933v-4.468c2.375-.311,3.317-2.653,3.317-6.75h-7.786c0,4.086.943,6.439,3.317,6.75Z" transform="translate(40.547 146.48)" fill="#fff"/>
              <path id="Trazado_609651" data-name="Trazado 609651" d="M128.819,445.556h2.032v5.951h5.206v-5.951H138.1l-4.644-6.2Z" transform="translate(42.948 146.48)" fill="#fff"/>
              <g id="Grupo_1072353" data-name="Grupo 1072353" transform="translate(130.976 590.614)" opacity="0.1">
                <g id="Grupo_1072352" data-name="Grupo 1072352">
                  <g id="Grupo_1072351" data-name="Grupo 1072351" clip-path="url(#clip-path-12)">
                    <path id="Trazado_609652" data-name="Trazado 609652" d="M98.227,458.348v-4.69l150.021-10.719v15.4Z" transform="translate(-98.227 -442.939)"/>
                  </g>
                </g>
              </g>
              <path id="Trazado_609653" data-name="Trazado 609653" d="M224.273,395.9H74.252l31.968-33.646H256.241Z" transform="translate(24.756 120.775)" fill="#ffbe00"/>
              <path id="Trazado_609654" data-name="Trazado 609654" d="M242.705,395.9H392.726l-31.968-33.646H210.737Z" transform="translate(70.259 120.775)" fill="#ffbe00"/>
              <g id="Grupo_1072356" data-name="Grupo 1072356" transform="translate(280.996 483.03)" opacity="0.1">
                <g id="Grupo_1072355" data-name="Grupo 1072355">
                  <g id="Grupo_1072354" data-name="Grupo 1072354" clip-path="url(#clip-path-13)">
                    <path id="Trazado_609655" data-name="Trazado 609655" d="M242.705,395.9H392.726l-31.968-33.646H210.737Z" transform="translate(-210.737 -362.255)"/>
                  </g>
                </g>
              </g>
            </g>
          </g>
        </g>
      </g>
      <g id="Grupo_1072362" data-name="Grupo 1072362" transform="translate(876.265 3202.77)">
        <g id="Grupo_1072361" data-name="Grupo 1072361" clip-path="url(#clip-path-14)">
          <path id="Trazado_609656" data-name="Trazado 609656" d="M20.622,101.268q-7.906,0-15.813,0c-.741,0-.747-.006-.923.731-.221.926-.222,1.882-.385,2.816a41.374,41.374,0,0,0-.405,6.935,37.124,37.124,0,0,0,.714,7.459,26.455,26.455,0,0,0,4.024,9.92c.395.575.818,1.131,1.22,1.7a1.147,1.147,0,0,1-.03,1.465,1.505,1.505,0,0,1-1.475.728,1.4,1.4,0,0,1-.84-.551,21.405,21.405,0,0,1-2.186-3.143,31.659,31.659,0,0,1-3.454-8.909,49.683,49.683,0,0,1-.838-5.7A28.481,28.481,0,0,1,.1,108.765a54.649,54.649,0,0,1,.8-6.745c.185-.834.284-1.687.518-2.512a1.616,1.616,0,0,1,1.662-1.3c.289-.007.58-.012.869,0,.229.008.3-.034.208-.287-.456-1.289-.89-2.587-1.335-3.88-.193-.56-.389-1.118-.6-1.672a3.274,3.274,0,0,1-.08-1.945c.636-2.717,1.134-5.462,1.738-8.185.433-1.953.757-3.928,1.256-5.867a1.368,1.368,0,0,1,2.187-.887,35.4,35.4,0,0,1,2.808,2.308c2.813,2.346,5.607,4.716,8.41,7.074A2.861,2.861,0,0,1,19.42,86.2c.97,2.892,1.961,5.778,2.943,8.667.343,1.009.689,2.016,1.014,3.031a.39.39,0,0,0,.455.31c1.845-.01,3.69-.012,5.534.006.3,0,.374-.075.373-.369q-.016-4.154-.005-8.307a1.581,1.581,0,0,1,1.086-1.727,1.51,1.51,0,0,1,1.845,1.277c-.028,1.146.017,2.294.02,3.441,0,1.793,0,3.587-.012,5.38,0,.256.075.311.312.305.606-.014,1.214-.027,1.818.008.362.021.436-.1.435-.44-.012-2.769,0-5.538-.009-8.307A1.514,1.514,0,0,1,35.945,88a1.476,1.476,0,0,1,2,.459,2.261,2.261,0,0,1,.327,1.242c0,2.7,0,5.406-.009,8.109,0,.33.081.411.413.4,1.224-.022,2.45-.061,3.674.019.249.016.325-.13.406-.294q.993-2,1.978-4,3.063-6.26,6.121-12.522.894-1.826,1.79-3.651A5,5,0,0,1,57.072,74.8a4.243,4.243,0,0,1,2.1.462c2.261,1.1,4.532,2.174,6.767,3.321a4.811,4.811,0,0,1,2.19,6.533c-1.907,3.961-3.858,7.9-5.79,11.849-.167.343-.329.689-.508,1.026-.1.181-.08.285.141.265.936-.085,1.617.926,1.605,1.838a24.783,24.783,0,0,0,.317,4.411,32.506,32.506,0,0,0,4.3,11.465,5.269,5.269,0,0,1,.814,2.639,4.588,4.588,0,0,1-3.974,4.488c-.3.023-.362.137-.392.4a27.538,27.538,0,0,1-.579,3.7,22.469,22.469,0,0,1-22.016,17.079c-1.067-.006-2.135.01-3.2-.018-.332-.009-.25.183-.25.348q0,2.888,0,5.775c0,1.458-.476,1.928-1.951,1.928H14.3c-.132,0-.264,0-.395-.007a1.522,1.522,0,0,1-1.569-1.668q-.012-6.824,0-13.647a1.289,1.289,0,0,1,.816-1.362,18.259,18.259,0,0,0,5.317-3.282,23.133,23.133,0,0,0,5.933-7.318c.095-.183.213-.312-.12-.408a7.991,7.991,0,0,1-4.5-3.29,8.236,8.236,0,0,1,3.92-12.365,7.888,7.888,0,0,1,7.7,1.135,6.206,6.206,0,0,1,.89.72c.246.247.4.227.64-.01a14.257,14.257,0,0,0,2.5-3.344,14.468,14.468,0,0,0,1.649-5.4c.084-.8.095-.8-.732-.8H20.622Zm4.856,48.105v0c3.281,0,6.563,0,9.844.007.285,0,.322-.1.318-.343-.013-.8-.012-1.609-.007-2.413.006-1.239,0-2.479.036-3.718a1.454,1.454,0,0,1,1.623-1.579c.2,0,.4,0,.593,0,1.581,0,3.163.015,4.744-.013a18.856,18.856,0,0,0,6.046-1.024A19.424,19.424,0,0,0,61.209,126.5a17.945,17.945,0,0,0,.471-4.546,1.581,1.581,0,0,1,1.521-1.719c.457-.046.922-.012,1.381-.041a1.489,1.489,0,0,0,1.4-1.119,1.88,1.88,0,0,0-.3-1.613A35.493,35.493,0,0,1,60.6,101.679c-.032-.361-.14-.416-.467-.416q-9.824.014-19.648,0c-.269,0-.338.08-.341.327a6.568,6.568,0,0,1-.076.906,18.6,18.6,0,0,1-3.765,8.919,14.241,14.241,0,0,1-2.953,2.84,1.388,1.388,0,0,1-2.014-.207c-.191-.2-.356-.425-.546-.625a5.523,5.523,0,0,0-5.085-1.963A5.284,5.284,0,0,0,21.818,119a4.943,4.943,0,0,0,4.758,3,1.5,1.5,0,0,1,1.474,2.081c-.076.224-.171.442-.266.659a26.5,26.5,0,0,1-5.185,7.79,26.946,26.946,0,0,1-7.052,5.286.456.456,0,0,0-.286.486c.074,3.573.059,7.146.017,10.719,0,.283.077.355.355.354,3.281-.01,6.562-.006,9.843-.006M52.288,98.2c.092,0,.185,0,.277,0,1.882.025,3.766-.056,5.648.046.208.011.305-.114.385-.277a12.919,12.919,0,0,1,.73-1.441c.212-.323.125-.43-.163-.57q-1.934-.94-3.858-1.9a1.342,1.342,0,0,1-.746-1.706,1.388,1.388,0,0,1,1.793-.989,4.711,4.711,0,0,1,.968.44c1.092.576,2.246,1.031,3.3,1.676.174.106.2-.016.252-.121.69-1.42,1.377-2.842,2.075-4.258.113-.228.05-.311-.17-.409-.553-.245-1.093-.519-1.635-.789a4.819,4.819,0,0,1-.994-.561,1.318,1.318,0,0,1-.234-1.84,1.273,1.273,0,0,1,1.645-.6,19.133,19.133,0,0,1,2.55,1.244c.211.121.251.016.318-.109.406-.768.777-1.552,1.137-2.343a1.825,1.825,0,0,0-.074-1.625,2.039,2.039,0,0,0-1.036-.982c-2.093-1.02-4.18-2.051-6.283-3.05a2,2,0,0,0-2.936,1.06q-2.29,4.681-4.576,9.364-2.345,4.784-4.705,9.561c-.1.211-.037.25.165.239,2.054-.114,4.109-.029,6.164-.057M9.379,90.278c.457.027,1.036.055,1.614.1a.555.555,0,0,0,.459-.165c1.308-1.223,2.617-2.446,3.939-3.653.239-.219.24-.333-.009-.541q-2.726-2.282-5.431-4.589c-.1-.086-.191-.138-.316-.076-.792.394-1.673.542-2.484.886a.547.547,0,0,0-.366.454c-.214,1.1-.433,2.193-.691,3.28-.279,1.177-.411,2.386-.773,3.545-.073.231-.148.513.274.524,1.224.031,2.434.275,3.784.237M17.8,98.21c0,.009,0,.018,0,.027.789,0,1.579,0,2.368,0,.2,0,.247-.024.172-.243q-1.524-4.435-3.024-8.879c-.082-.241-.137-.309-.355-.1-.892.857-1.8,1.693-2.7,2.547-.916.873-.9.873-.488,2.068.491,1.428.964,2.862,1.429,4.3a.338.338,0,0,0,.388.281c.736-.011,1.474,0,2.21,0M9.768,98.2v.007c.711,0,1.421-.007,2.131,0,.237,0,.307-.053.22-.292-.127-.344-.223-.7-.337-1.049q-.522-1.591-1.048-3.18c-.06-.181-.134-.319-.373-.334q-2.184-.139-4.367-.311c-.321-.025-.428.03-.3.376.533,1.483.991,2.991,1.543,4.468.092.247.195.321.443.316.7-.015,1.394-.005,2.092-.005" transform="translate(0 -51.07)" fill="#615842"/>
          <path id="Trazado_609657" data-name="Trazado 609657" d="M81.635,12.5c1.726,0,3.452-.01,5.178.008.372,0,.449-.082.355-.444a16.982,16.982,0,0,0-3.684-6.819A22.238,22.238,0,0,0,80.765,2.6a1.354,1.354,0,0,1-.485-1.517A1.442,1.442,0,0,1,81.564.011a1.533,1.533,0,0,1,1.217.462,25.445,25.445,0,0,1,4.261,4.6A19.076,19.076,0,0,1,90.208,12.2a15.768,15.768,0,0,1,.381,3.451c-.027,2.017.037,4.035-.059,6.05-.014.281.134.394.34.511A4.388,4.388,0,0,1,93.163,25.4a5.7,5.7,0,0,1,.086.982q-.016,4.39-.05,8.78A1.494,1.494,0,0,1,90.975,36.6a2.38,2.38,0,0,1-.692-.7c-.8-1.046-1.6-2.091-2.392-3.146-.162-.216-.254-.255-.48-.059a8.873,8.873,0,0,1-5.73,2.239,8.745,8.745,0,0,1-5.958-2.146c-.3-.248-.411-.224-.64.089-.817,1.116-1.669,2.206-2.525,3.293a1.533,1.533,0,0,1-1.736.616,1.561,1.561,0,0,1-1.028-1.605c0-2.808-.011-5.616,0-8.425a4.8,4.8,0,0,1,2.627-4.567c.207-.109.216-.266.216-.458,0-1.806.024-3.613-.006-5.418a18,18,0,0,1,1.478-7.375,17.466,17.466,0,0,1,1.506-2.816,1.38,1.38,0,0,1,1.851-.538,1.411,1.411,0,0,1,.674,1.943,3.483,3.483,0,0,1-.251.448,17.2,17.2,0,0,0-1.814,4.1c-.129.41-.085.458.341.458h5.217V12.5m-.031,2.99c-1.9,0-3.794,0-5.691,0-.246,0-.346.05-.346.325,0,1.9-.008,3.8-.023,5.694,0,.2.04.326.25.377a3.915,3.915,0,0,1,1,.461A4.11,4.11,0,0,1,78.4,27.993c-.386.628-.744,1.273-1.161,1.881-.106.155-.132.255.024.4a5.767,5.767,0,0,0,3.424,1.636,6.1,6.1,0,0,0,5.051-1.625c.186-.178.207-.287.047-.519a14.36,14.36,0,0,1-1.5-2.685,2.517,2.517,0,0,1-.172-1.47,4.716,4.716,0,0,1,3.225-3.762c.194-.069.271-.133.269-.345-.013-1.872-.022-3.743-.01-5.615,0-.342-.114-.409-.429-.406-1.857.014-3.715.007-5.572.008m8.643,15.444c.07-.447.1-4.513.064-4.916a1.583,1.583,0,0,0-.884-1.274,1.646,1.646,0,0,0-2,.441,1.189,1.189,0,0,0-.081,1.587,38.991,38.991,0,0,0,2.486,3.7c.115.154.187.351.415.458m-17.441,0,.1.044c.3-.422.609-.84.906-1.265a30.124,30.124,0,0,0,2.143-3.3.84.84,0,0,0,0-.823,1.722,1.722,0,0,0-1.824-.94,1.6,1.6,0,0,0-1.288,1.6c-.018,1.381-.029,2.762-.043,4.143,0,.181,0,.363,0,.544" transform="translate(-47.651 0)" fill="#615842"/>
          <path id="Trazado_609658" data-name="Trazado 609658" d="M183.411,41.888c0,.132,0,.264,0,.4a1.37,1.37,0,0,1-1.823,1.452,1.256,1.256,0,0,1-1.107-1.207,6.976,6.976,0,0,1-.045-1.3c0-.235-.061-.332-.31-.32-.368.018-.737.007-1.106,0a1.463,1.463,0,0,1-1.537-1.333,1.439,1.439,0,0,1,1.334-1.714,8.222,8.222,0,0,1,1.34,0c.254.013.324-.067.3-.311a5.5,5.5,0,0,1,.027-1.38,1.423,1.423,0,0,1,1.566-1.24,1.358,1.358,0,0,1,1.358,1.438,9.475,9.475,0,0,1-.016,1.027c-.036.36.07.5.449.466a5.106,5.106,0,0,1,1.143.028,1.54,1.54,0,0,1,1.387,1.545,1.6,1.6,0,0,1-1.533,1.476,10.263,10.263,0,0,1-1.027,0c-.3-.02-.446.06-.405.39a4.786,4.786,0,0,1,0,.592Z" transform="translate(-121.181 -23.847)" fill="#615842"/>
          <path id="Trazado_609659" data-name="Trazado 609659" d="M30.591,29.036c-.949-.007-.95-.007-.945.946a3.529,3.529,0,0,1-.074.864,1.317,1.317,0,0,1-1.544,1.085,1.359,1.359,0,0,1-1.383-1.338c-.022-.421-.015-.844,0-1.265.007-.218-.052-.3-.285-.293-.368.017-.737,0-1.106,0a1.493,1.493,0,0,1-1.524-1.446,1.468,1.468,0,0,1,1.416-1.546,11.858,11.858,0,0,1,1.225-.006c.224.008.285-.048.281-.283a5.863,5.863,0,0,1,.062-1.536,1.532,1.532,0,0,1,1.411-1.124,1.414,1.414,0,0,1,1.444,1.1,5.122,5.122,0,0,1,.074,1.5c-.011.279.069.363.351.36a6.963,6.963,0,0,1,1.419.038,1.478,1.478,0,0,1,1.157,1.751,1.337,1.337,0,0,1-1.383,1.2c-.2,0-.4,0-.593,0" transform="translate(-16.2 -15.767)" fill="#615842"/>
          <path id="Trazado_609660" data-name="Trazado 609660" d="M148.185,6.982c0-.933,0-.931-.943-.934a2.144,2.144,0,0,1-1.263-.21,1.539,1.539,0,0,1-.7-1.628,1.416,1.416,0,0,1,1.36-1.168c.406-.033.816-.03,1.224-.031.229,0,.321-.074.305-.325-.024-.394-.009-.79,0-1.185A1.362,1.362,0,0,1,149.561.094a1.386,1.386,0,0,1,1.567,1.227,5.17,5.17,0,0,1,.01,1.341c-.029.3.075.4.375.378a9.639,9.639,0,0,1,1.145,0,1.418,1.418,0,0,1,1.407,1.57,1.418,1.418,0,0,1-1.5,1.441c-.369,0-.738.011-1.106,0-.236-.009-.324.056-.312.312a10.241,10.241,0,0,1-.022,1.263,1.372,1.372,0,0,1-1.492,1.3,1.348,1.348,0,0,1-1.445-1.389c-.007-.184,0-.369,0-.553" transform="translate(-99.168 -0.062)" fill="#615842"/>
          <path id="Trazado_609661" data-name="Trazado 609661" d="M146.629,172.481a5.542,5.542,0,0,1,5.445,4.609,2.1,2.1,0,0,1-.145,1.568,1.468,1.468,0,0,1-1.581.633,1.4,1.4,0,0,1-1.116-1.042,2.26,2.26,0,0,1-.077-.586,2.409,2.409,0,0,0-2.2-2.191,2.357,2.357,0,0,0-2.659,2.2,4.225,4.225,0,0,1-.1.623,1.427,1.427,0,0,1-1.735,1,1.376,1.376,0,0,1-1.163-1.422,5.485,5.485,0,0,1,4.562-5.3,3.693,3.693,0,0,1,.763-.089" transform="translate(-96.482 -117.768)" fill="#615842"/>
          <path id="Trazado_609662" data-name="Trazado 609662" d="M80.983,203.493a1.481,1.481,0,0,1-1.448,1.469,1.579,1.579,0,0,1-1.386-1.521,1.5,1.5,0,0,1,1.5-1.468,1.424,1.424,0,0,1,1.336,1.519" transform="translate(-53.36 -137.906)" fill="#615842"/>
        </g>
      </g>
    </g>
  </g>
</svg>
