<svg xmlns="http://www.w3.org/2000/svg" xmlns:xlink="http://www.w3.org/1999/xlink" width="139" height="139" viewBox="0 0 139 139">
  <defs>
    <clipPath id="clip-path">
      <rect id="Rectángulo_377883" data-name="Rectángulo 377883" width="84.204" height="98.108" fill="none"/>
    </clipPath>
  </defs>
  <g id="Grupo_1072691" data-name="Grupo 1072691" transform="translate(-421 -4087.329)">
    <g id="Grupo_1072365" data-name="Grupo 1072365" transform="translate(-1013.668 -1794.671)">
      <g id="Grupo_1072229" data-name="Grupo 1072229" transform="translate(1434.668 5882)">
        <path id="Trazado_608385" data-name="Trazado 608385" d="M69.5,0A69.5,69.5,0,1,1,0,69.5,69.5,69.5,0,0,1,69.5,0Z" transform="translate(0)" fill="#fff"/>
      </g>
    </g>
    <g id="Grupo_1072430" data-name="Grupo 1072430" transform="translate(448.398 4107.775)">
      <g id="Grupo_1072429" data-name="Grupo 1072429" clip-path="url(#clip-path)">
        <path id="Trazado_609959" data-name="Trazado 609959" d="M83.191,49.763c-2.425-3.152-7.9-7.882-7.367-12.232a37.333,37.333,0,0,1,1.154-4.393,18.094,18.094,0,0,0-1.759-12.25C67.958,6.316,53.973,0,38.161,0,17.085,0,0,16.292,0,36.388A35.424,35.424,0,0,0,7.469,58.017a37.6,37.6,0,0,0,8.371,7.89c3.544,2.441,6.775,2.337,6.924,7.409.2,6.792-1.648,13.731-3.583,20.17a51.076,51.076,0,0,0,39.659,1.183,2.084,2.084,0,0,0,1.068-.713,1.185,1.185,0,0,0,.139-.322,2.9,2.9,0,0,0,.012-1.078c-.433-3.615-1.605-7.472-.713-11.04a4,4,0,0,1,1.509-2.562,4.489,4.489,0,0,1,2.387-.439c3.614.009,7.435.38,11.03.025,3.683-.364,2.5-2.877,2.352-6.1a5.444,5.444,0,0,1,1.208-4.111A5.926,5.926,0,0,0,79,67.114c.767-1.448-.7-3.041-.258-4.55.477-1.642,1.747-1.651,1.5-3.622-.153-1.212-1.334-2-.64-3.266.849-1.541,3.787-1.314,4.5-3.149.369-.947-.286-1.959-.906-2.765" transform="translate(0 0)" fill="#76becc"/>
        <path id="Trazado_609960" data-name="Trazado 609960" d="M68.623,28.872C66.736,15.607,52.6,6.648,37.042,8.86c-9.171,1.3-18.059,6.562-22.414,14.931-3.66,7.035-2.955,15.07.157,22.159,2.487,5.664,7.156,9.874,11.641,13.957,3.479,3.167,5.232,6.523,6.871,10.306a1.54,1.54,0,0,0,2.953-.536,30.591,30.591,0,0,0-.142-4.749c-.19-1.976-1.833-6.208.509-7.438a6.906,6.906,0,0,1,3.334-.448C54.772,57.22,70.9,44.891,68.623,28.872" transform="translate(-4.114 -2.885)" fill="#961d7e"/>
        <path id="Trazado_609961" data-name="Trazado 609961" d="M68.883,2.816C61.752,2.681,56.4,7.182,51.609,11.946a1.655,1.655,0,0,0,2.339,2.339c4.159-4.136,8.691-8.279,14.934-8.161,2.13.04,2.13-3.268,0-3.308" transform="translate(-17.299 -0.952)" fill="#76becc"/>
        <path id="Trazado_609962" data-name="Trazado 609962" d="M21.534,53.914a6.08,6.08,0,0,1-5.608-1.94c.084-.021.169-.038.253-.064,2.737-.849,4.251-3.4,5.457-5.816.947-1.9-1.905-3.577-2.856-1.669-1.213,2.431-2.367,4.52-5.4,4.435a53.085,53.085,0,0,0-7.976.286c-2.087.253-2.112,3.564,0,3.308A45.05,45.05,0,0,1,11.9,52.1l.23.008A9.379,9.379,0,0,0,22.413,57.1c2.087-.413,1.2-3.6-.879-3.19" transform="translate(-1.297 -14.748)" fill="#76becc"/>
        <path id="Trazado_609963" data-name="Trazado 609963" d="M95.143,48.421a11.532,11.532,0,0,0-8.3-2.269,13.428,13.428,0,0,0-.918-4.438,1.705,1.705,0,0,0-2.034-1.155,1.665,1.665,0,0,0-1.155,2.035,11.061,11.061,0,0,1,.828,4.191V46.8a25.225,25.225,0,0,0-5.477,2.419,1.655,1.655,0,0,0,1.669,2.857c4.312-2.515,9.376-4.105,13.72-.8,1.692,1.29,3.342-1.581,1.669-2.856" transform="translate(-26.153 -13.705)" fill="#76becc"/>
        <path id="Trazado_609964" data-name="Trazado 609964" d="M50.484,29.9H49.176a8.408,8.408,0,0,0-.994-2.4l.925-.925a.955.955,0,0,0,0-1.347l-1.475-1.475a.955.955,0,0,0-1.347,0l-.925.925a8.408,8.408,0,0,0-2.4-.994V22.374A.955.955,0,0,0,42,21.422H39.918a.955.955,0,0,0-.953.952v1.309a8.408,8.408,0,0,0-2.4.994l-.925-.925a.955.955,0,0,0-1.347,0l-1.475,1.475a.955.955,0,0,0,0,1.347l.925.925a8.408,8.408,0,0,0-.994,2.4H31.438a.955.955,0,0,0-.952.953V32.94a.955.955,0,0,0,.952.953h1.309a8.408,8.408,0,0,0,.994,2.4l-.925.925a.955.955,0,0,0,0,1.347l1.475,1.475a.955.955,0,0,0,1.347,0l.925-.925a8.388,8.388,0,0,0,2.4.994V41.42a.955.955,0,0,0,.953.952H42a.955.955,0,0,0,.953-.952V40.111a8.388,8.388,0,0,0,2.4-.994l.925.925a.955.955,0,0,0,1.347,0l1.475-1.475a.955.955,0,0,0,0-1.347l-.925-.925a8.408,8.408,0,0,0,.994-2.4h1.309a.955.955,0,0,0,.952-.953V30.854a.955.955,0,0,0-.952-.953m-9.523,8.6A6.606,6.606,0,1,1,47.567,31.9,6.606,6.606,0,0,1,40.961,38.5" transform="translate(-10.316 -7.249)" fill="#fff"/>
        <path id="Trazado_609965" data-name="Trazado 609965" d="M43.6,29.207a5.324,5.324,0,1,0,5.325,5.324A5.324,5.324,0,0,0,43.6,29.207m0,9.133a3.809,3.809,0,1,1,3.81-3.81,3.81,3.81,0,0,1-3.81,3.81" transform="translate(-12.951 -9.884)" fill="#fff"/>
        <path id="Trazado_609966" data-name="Trazado 609966" d="M47.694,35.815A2.813,2.813,0,1,1,44.88,33a2.813,2.813,0,0,1,2.814,2.814" transform="translate(-14.235 -11.167)" fill="#fff"/>
        <path id="Trazado_609967" data-name="Trazado 609967" d="M61.846,57.113l-.924-.21a6.075,6.075,0,0,0-.317-1.855l.8-.5a.692.692,0,0,0,.216-.951l-.806-1.278a.692.692,0,0,0-.951-.216l-.8.5a6.09,6.09,0,0,0-1.537-1.086l.21-.925a.692.692,0,0,0-.52-.825l-1.473-.334a.691.691,0,0,0-.825.519l-.21.924a6.1,6.1,0,0,0-1.855.317l-.5-.8a.692.692,0,0,0-.951-.216l-1.278.805a.693.693,0,0,0-.216.951l.5.8A6.1,6.1,0,0,0,49.32,54.27l-.924-.21a.691.691,0,0,0-.825.519l-.335,1.474a.692.692,0,0,0,.52.825l.924.21A6.1,6.1,0,0,0,49,58.944l-.8.5a.691.691,0,0,0-.216.951l.805,1.279a.692.692,0,0,0,.951.216l.8-.5a6.081,6.081,0,0,0,1.537,1.087l-.21.924a.692.692,0,0,0,.52.825l1.474.335a.692.692,0,0,0,.825-.52l.21-.924A6.079,6.079,0,0,0,56.75,62.8l.5.8a.691.691,0,0,0,.951.216l1.279-.806a.691.691,0,0,0,.216-.951l-.5-.8a6.081,6.081,0,0,0,1.087-1.537l.924.21a.692.692,0,0,0,.825-.52l.335-1.473a.692.692,0,0,0-.52-.825M54.006,60.5a3.593,3.593,0,1,1,4.3-2.708,3.593,3.593,0,0,1-4.3,2.708" transform="translate(-15.979 -16.722)" fill="#ffa43d"/>
        <path id="Trazado_609968" data-name="Trazado 609968" d="M59.623,60.282a2.037,2.037,0,1,1-1.536-2.438,2.037,2.037,0,0,1,1.536,2.438" transform="translate(-18.814 -19.557)" fill="#ffa43d"/>
      </g>
    </g>
  </g>
</svg>
