<svg xmlns="http://www.w3.org/2000/svg" xmlns:xlink="http://www.w3.org/1999/xlink" width="139" height="139" viewBox="0 0 139 139">
  <defs>
    <clipPath id="clip-path">
      <rect id="Rectángulo_377884" data-name="Rectángulo 377884" width="81.893" height="95.415" fill="none"/>
    </clipPath>
  </defs>
  <g id="Grupo_1072366" data-name="Grupo 1072366" transform="translate(-1434.668 -5882)">
    <g id="Grupo_1072692" data-name="Grupo 1072692">
      <path id="Trazado_608385" data-name="Trazado 608385" d="M69.5,0A69.5,69.5,0,1,1,0,69.5,69.5,69.5,0,0,1,69.5,0Z" transform="translate(1434.668 5882)" fill="#fff"/>
      <g id="Grupo_1072431" data-name="Grupo 1072431" transform="translate(1463.222 5903.792)" clip-path="url(#clip-path)">
        <path id="Trazado_609969" data-name="Trazado 609969" d="M80.908,48.4c-2.359-3.065-7.68-7.665-7.165-11.9a36.308,36.308,0,0,1,1.122-4.272,17.593,17.593,0,0,0-1.711-11.913C66.093,6.143,52.492,0,37.114,0,16.616,0,0,15.845,0,35.39A34.452,34.452,0,0,0,7.264,56.424,36.577,36.577,0,0,0,15.406,64.1C18.853,66.471,22,66.371,22.14,71.3c.194,6.606-1.6,13.354-3.484,19.617a49.674,49.674,0,0,0,38.571,1.15,2.026,2.026,0,0,0,1.039-.694,1.17,1.17,0,0,0,.136-.314,2.834,2.834,0,0,0,.011-1.048c-.421-3.516-1.561-7.267-.693-10.737a3.883,3.883,0,0,1,1.467-2.491,4.367,4.367,0,0,1,2.322-.427c3.515.008,7.231.369,10.727.024,3.582-.354,2.433-2.8,2.287-5.929a5.294,5.294,0,0,1,1.175-4,5.764,5.764,0,0,0,1.132-1.185c.746-1.409-.678-2.958-.251-4.426.464-1.6,1.7-1.605,1.457-3.522-.149-1.179-1.3-1.949-.622-3.176.826-1.5,3.683-1.278,4.377-3.062.358-.921-.279-1.905-.882-2.689" transform="translate(0 0)" fill="#76becc"/>
        <path id="Trazado_609970" data-name="Trazado 609970" d="M36.633,8.855c-8.919,1.268-17.563,6.382-21.8,14.521a21.018,21.018,0,0,0-1.907,5.3H41.482V8.537a32.531,32.531,0,0,0-4.849.318" transform="translate(-4.609 -3.044)" fill="#961d7e"/>
        <path id="Trazado_609971" data-name="Trazado 609971" d="M83.171,28.318c-1.637-11.5-12.75-19.671-25.865-19.78V28.68h25.9c-.015-.121-.022-.241-.039-.362" transform="translate(-20.433 -3.044)" fill="#ffa43d"/>
        <path id="Trazado_609972" data-name="Trazado 609972" d="M12.653,39.843a26.7,26.7,0,0,0,2.06,16.247c2.418,5.509,6.959,9.6,11.321,13.574a26.881,26.881,0,0,1,6.683,10.024,1.5,1.5,0,0,0,2.872-.522,29.823,29.823,0,0,0-.138-4.618c-.185-1.921-1.783-6.037.495-7.235a6.732,6.732,0,0,1,3.242-.436c.671.008,1.345-.019,2.02-.062V39.843Z" transform="translate(-4.335 -14.206)" fill="#ffa43d"/>
        <path id="Trazado_609973" data-name="Trazado 609973" d="M83.209,39.843h-25.9V66.816c13.7-.891,27.736-12.294,25.9-26.973" transform="translate(-20.432 -14.206)" fill="#fff"/>
        <path id="Trazado_609974" data-name="Trazado 609974" d="M78.742,37.436A4.343,4.343,0,1,1,74.4,33.093a4.343,4.343,0,0,1,4.343,4.343" transform="translate(-24.979 -11.8)" fill="#fff"/>
        <path id="Trazado_609975" data-name="Trazado 609975" d="M59.241,21.213A4.343,4.343,0,1,1,54.9,16.87a4.343,4.343,0,0,1,4.343,4.343" transform="translate(-18.026 -6.015)" fill="#ffa43d"/>
        <path id="Trazado_609976" data-name="Trazado 609976" d="M39.006,37.436a4.343,4.343,0,1,1-4.343-4.343,4.343,4.343,0,0,1,4.343,4.343" transform="translate(-10.811 -11.8)" fill="#961d7e"/>
        <path id="Trazado_609977" data-name="Trazado 609977" d="M59.241,61.9A4.343,4.343,0,1,1,54.9,57.554,4.343,4.343,0,0,1,59.241,61.9" transform="translate(-18.026 -20.521)" fill="#ffa43d"/>
      </g>
    </g>
  </g>
</svg>
