<svg xmlns="http://www.w3.org/2000/svg" xmlns:xlink="http://www.w3.org/1999/xlink" width="1030" height="473" viewBox="0 0 1030 473">
  <defs>
    <clipPath id="clip-path">
      <rect id="Rect치ngulo_377910" data-name="Rect치ngulo 377910" width="820" height="386.236" fill="none" stroke="#9cacc4" stroke-width="2"/>
    </clipPath>
  </defs>
  <g id="Grupo_1072488" data-name="Grupo 1072488" transform="translate(-285 -568)">
    <rect id="Rect치ngulo_377911" data-name="Rect치ngulo 377911" width="1030" height="473" transform="translate(285 568)" fill="#e7effb"/>
    <g id="Grupo_1072487" data-name="Grupo 1072487" transform="translate(-9 12)">
      <g id="Grupo_1072486" data-name="Grupo 1072486" transform="translate(390 583)">
        <g id="Grupo_1072485" data-name="Grupo 1072485">
          <g id="Grupo_1072484" data-name="Grupo 1072484" clip-path="url(#clip-path)">
            <path id="Trazado_610055" data-name="Trazado 610055" d="M810.6,28.038,244.164.5,1.7,69.362" transform="translate(3.923 1.159)" fill="none" stroke="#9cacc4" stroke-miterlimit="10" stroke-width="2"/>
            <path id="Trazado_610056" data-name="Trazado 610056" d="M1.7,91.607,244.373,13.364,810.6,39.742" transform="translate(3.924 30.778)" fill="none" stroke="#9cacc4" stroke-miterlimit="10" stroke-width="2"/>
            <path id="Trazado_610057" data-name="Trazado 610057" d="M1.832,115.071,244.15,25.208,810.307,52.944" transform="translate(4.218 58.055)" fill="none" stroke="#9cacc4" stroke-miterlimit="10" stroke-width="2"/>
            <path id="Trazado_610058" data-name="Trazado 610058" d="M1.832,132.771,244.15,37.052,810.307,69.521" transform="translate(4.218 85.333)" fill="none" stroke="#9cacc4" stroke-miterlimit="10" stroke-width="2"/>
            <path id="Trazado_610059" data-name="Trazado 610059" d="M1.832,158.968,244.15,47.648,810.307,85.6" transform="translate(4.218 109.736)" fill="none" stroke="#9cacc4" stroke-miterlimit="10" stroke-width="2"/>
            <path id="Trazado_610060" data-name="Trazado 610060" d="M1.7,173.985,244.442,57.605,810.6,102.3l-262,149.549Z" transform="translate(3.924 132.668)" fill="none" stroke="#9cacc4" stroke-miterlimit="10" stroke-width="2"/>
          </g>
        </g>
        <path id="Trazado_610061" data-name="Trazado 610061" d="M4.385,55.595,225.339,159.241,328.646,21.86Z" transform="translate(10.098 50.346)" fill="#94eeff"/>
        <path id="Trazado_610062" data-name="Trazado 610062" d="M238.191,131.212,102.555,21.861l271.168,28.77-48.324,77.4Z" transform="translate(236.189 50.347)" fill="#94eeff"/>
        <path id="Trazado_610063" data-name="Trazado 610063" d="M71.278,159.241l238.943-28.026L174.588,21.861Z" transform="translate(164.158 50.346)" fill="#76becc"/>
        <path id="Trazado_610064" data-name="Trazado 610064" d="M218.345,79.149,422.956,9.478l-125.8,81.381L211.983,146.1l-41.962,10.454Z" transform="translate(391.568 21.827)" fill="#76becc"/>
        <path id="Trazado_610065" data-name="Trazado 610065" d="M143.619,102.988l72.244,19.257,232.76-30.573L357.967,34.116,272.788,89.353,230.826,99.807Z" transform="translate(330.762 78.571)" fill="#345359"/>
        <path id="Trazado_610066" data-name="Trazado 610066" d="M334.309,9.478l-35.138,138.94L208.513,90.858Z" transform="translate(480.216 21.828)" fill="#8bcdda"/>
      </g>
      <path id="Trazado_610550" data-name="Trazado 610550" d="M.958-6.251,1.74-12.8H9.22v2.3H4.148l-.29,2.542a3.493,3.493,0,0,1,.831-.327A3.79,3.79,0,0,1,5.7-8.42,3.754,3.754,0,0,1,8.626-7.291,4.549,4.549,0,0,1,9.65-4.122,4.541,4.541,0,0,1,9.1-1.894,3.776,3.776,0,0,1,7.559-.36,4.87,4.87,0,0,1,5.212.176a5.24,5.24,0,0,1-2.259-.5A4.052,4.052,0,0,1,1.3-1.682,3.308,3.308,0,0,1,.712-3.636H3.683a1.68,1.68,0,0,0,.448,1.114,1.423,1.423,0,0,0,1.063.412q1.494,0,1.494-2.21,0-2.044-1.828-2.044A1.824,1.824,0,0,0,3.313-5.7Z" transform="translate(370 665)" fill="#12263f"/>
      <path id="Trazado_610549" data-name="Trazado 610549" d="M8.6-5h1.3v2.285H8.6V0H5.643V-2.716H.694L.519-4.526l5.124-8.244V-12.8H8.6ZM3.34-5h2.3V-8.938l-.185.3Z" transform="translate(370 710)" fill="#12263f"/>
      <path id="Trazado_610539" data-name="Trazado 610539" d="M11.32-4.333a4.673,4.673,0,0,1-.721,2.36A4.35,4.35,0,0,1,8.75-.387a6.3,6.3,0,0,1-2.72.563A5.025,5.025,0,0,1,2.057-1.468,6.786,6.786,0,0,1,.606-6.108v-.633a7.746,7.746,0,0,1,.655-3.292,4.961,4.961,0,0,1,1.885-2.18,5.26,5.26,0,0,1,2.848-.769,5.516,5.516,0,0,1,3.744,1.226,4.844,4.844,0,0,1,1.608,3.379H8.271a2.292,2.292,0,0,0-.589-1.679,2.422,2.422,0,0,0-1.687-.51A1.843,1.843,0,0,0,4.307-9.7a5.536,5.536,0,0,0-.562,2.751v.905A6.125,6.125,0,0,0,4.258-3.12a1.882,1.882,0,0,0,1.771.879,2.369,2.369,0,0,0,1.626-.5,2.126,2.126,0,0,0,.6-1.591ZM18,0a3.344,3.344,0,0,1-.281-.853A2.754,2.754,0,0,1,15.434.176a3.374,3.374,0,0,1-2.285-.813,2.588,2.588,0,0,1-.94-2.043,2.66,2.66,0,0,1,1.143-2.338,5.821,5.821,0,0,1,3.322-.791h.914v-.5q0-1.316-1.134-1.316A.927.927,0,0,0,15.4-6.587H12.437A2.655,2.655,0,0,1,13.61-8.825a4.931,4.931,0,0,1,2.993-.86,4.323,4.323,0,0,1,2.874.888,3.086,3.086,0,0,1,1.081,2.435v4.21a4.311,4.311,0,0,0,.4,2V0ZM16.146-1.934a1.652,1.652,0,0,0,.918-.237,1.487,1.487,0,0,0,.523-.536V-4.228h-.861q-1.547,0-1.547,1.389a.848.848,0,0,0,.272.655A.986.986,0,0,0,16.146-1.934Zm9.5-9.94V-9.51h1.564v2.057H25.646V-3.1a1.111,1.111,0,0,0,.193.747,1.037,1.037,0,0,0,.765.211,4.345,4.345,0,0,0,.738-.053V-.079a5.466,5.466,0,0,1-1.67.255,3.1,3.1,0,0,1-2.259-.721,2.954,2.954,0,0,1-.729-2.188v-4.72H21.472V-9.51h1.213v-2.364ZM32.977.176a4.889,4.889,0,0,1-3.542-1.305,4.507,4.507,0,0,1-1.354-3.4v-.246a5.84,5.84,0,0,1,.541-2.575A3.955,3.955,0,0,1,30.2-9.075a4.763,4.763,0,0,1,2.461-.611,4.117,4.117,0,0,1,3.164,1.244,4.887,4.887,0,0,1,1.16,3.467v1.151H31.1a2.135,2.135,0,0,0,.694,1.257,2.066,2.066,0,0,0,1.389.457,2.662,2.662,0,0,0,2.2-.984l1.354,1.6A3.784,3.784,0,0,1,35.161-.277,5.3,5.3,0,0,1,32.977.176ZM32.643-7.4q-1.3,0-1.547,1.723h2.988v-.229a1.467,1.467,0,0,0-.36-1.1A1.434,1.434,0,0,0,32.643-7.4Zm5.186,2.575A6.421,6.421,0,0,1,38.3-7.374a3.821,3.821,0,0,1,1.362-1.709,3.591,3.591,0,0,1,2.065-.6,2.855,2.855,0,0,1,2.32,1l.105-.826h2.689V-.36a4.009,4.009,0,0,1-.584,2.184,3.75,3.75,0,0,1-1.692,1.424,6.219,6.219,0,0,1-2.566.5,5.365,5.365,0,0,1-2.026-.4,3.657,3.657,0,0,1-1.5-1.028L39.718.58a2.716,2.716,0,0,0,2.18.976A1.764,1.764,0,0,0,43.866-.466v-.3a2.781,2.781,0,0,1-2.153.94A3.437,3.437,0,0,1,38.9-1.156,5.517,5.517,0,0,1,37.828-4.72Zm2.971.185a3.383,3.383,0,0,0,.439,1.85,1.386,1.386,0,0,0,1.23.681,1.573,1.573,0,0,0,1.4-.642v-4a1.534,1.534,0,0,0-1.38-.65,1.4,1.4,0,0,0-1.239.708A3.858,3.858,0,0,0,40.8-4.641Zm7.356-.2a5.613,5.613,0,0,1,.554-2.536A3.96,3.96,0,0,1,50.3-9.088a4.791,4.791,0,0,1,2.435-.6A4.373,4.373,0,0,1,56.1-8.363a5.076,5.076,0,0,1,1.23,3.6v.105A4.925,4.925,0,0,1,56.1-1.129,4.384,4.384,0,0,1,52.752.176a4.434,4.434,0,0,1-3.261-1.217,4.761,4.761,0,0,1-1.327-3.3Zm2.962.185a3.538,3.538,0,0,0,.413,1.934,1.376,1.376,0,0,0,1.222.615q1.582,0,1.617-2.435v-.3q0-2.558-1.635-2.558-1.485,0-1.608,2.206ZM64.389-6.829l-.976-.07a1.752,1.752,0,0,0-1.793.879V0H58.658V-9.51h2.777l.1,1.222a2.294,2.294,0,0,1,2.083-1.4,2.888,2.888,0,0,1,.826.105ZM68.687,0H65.707V-9.51h2.979ZM67.579-13.324h3.129l-2.443,2.76-2.417,0ZM75.946,0a3.344,3.344,0,0,1-.281-.853A2.754,2.754,0,0,1,73.38.176a3.374,3.374,0,0,1-2.285-.813,2.588,2.588,0,0,1-.94-2.043A2.66,2.66,0,0,1,71.3-5.019a5.821,5.821,0,0,1,3.322-.791h.914v-.5q0-1.316-1.134-1.316a.927.927,0,0,0-1.055,1.042H70.383a2.655,2.655,0,0,1,1.173-2.239,4.931,4.931,0,0,1,2.993-.86,4.323,4.323,0,0,1,2.874.888A3.086,3.086,0,0,1,78.5-6.363v4.21a4.311,4.311,0,0,0,.4,2V0ZM74.092-1.934a1.652,1.652,0,0,0,.918-.237,1.487,1.487,0,0,0,.523-.536V-4.228h-.861q-1.547,0-1.547,1.389a.848.848,0,0,0,.272.655A.986.986,0,0,0,74.092-1.934ZM91.143,0H88.172V-9.457L85.254-8.6v-2.25L90.87-12.8h.272Z" transform="translate(420 942)" fill="#12263f"/>
      <path id="Trazado_610540" data-name="Trazado 610540" d="M11.32-4.333a4.673,4.673,0,0,1-.721,2.36A4.35,4.35,0,0,1,8.75-.387a6.3,6.3,0,0,1-2.72.563A5.025,5.025,0,0,1,2.057-1.468,6.786,6.786,0,0,1,.606-6.108v-.633a7.746,7.746,0,0,1,.655-3.292,4.961,4.961,0,0,1,1.885-2.18,5.26,5.26,0,0,1,2.848-.769,5.516,5.516,0,0,1,3.744,1.226,4.844,4.844,0,0,1,1.608,3.379H8.271a2.292,2.292,0,0,0-.589-1.679,2.422,2.422,0,0,0-1.687-.51A1.843,1.843,0,0,0,4.307-9.7a5.536,5.536,0,0,0-.562,2.751v.905A6.125,6.125,0,0,0,4.258-3.12a1.882,1.882,0,0,0,1.771.879,2.369,2.369,0,0,0,1.626-.5,2.126,2.126,0,0,0,.6-1.591ZM18,0a3.344,3.344,0,0,1-.281-.853A2.754,2.754,0,0,1,15.434.176a3.374,3.374,0,0,1-2.285-.813,2.588,2.588,0,0,1-.94-2.043,2.66,2.66,0,0,1,1.143-2.338,5.821,5.821,0,0,1,3.322-.791h.914v-.5q0-1.316-1.134-1.316A.927.927,0,0,0,15.4-6.587H12.437A2.655,2.655,0,0,1,13.61-8.825a4.931,4.931,0,0,1,2.993-.86,4.323,4.323,0,0,1,2.874.888,3.086,3.086,0,0,1,1.081,2.435v4.21a4.311,4.311,0,0,0,.4,2V0ZM16.146-1.934a1.652,1.652,0,0,0,.918-.237,1.487,1.487,0,0,0,.523-.536V-4.228h-.861q-1.547,0-1.547,1.389a.848.848,0,0,0,.272.655A.986.986,0,0,0,16.146-1.934Zm9.5-9.94V-9.51h1.564v2.057H25.646V-3.1a1.111,1.111,0,0,0,.193.747,1.037,1.037,0,0,0,.765.211,4.345,4.345,0,0,0,.738-.053V-.079a5.466,5.466,0,0,1-1.67.255,3.1,3.1,0,0,1-2.259-.721,2.954,2.954,0,0,1-.729-2.188v-4.72H21.472V-9.51h1.213v-2.364ZM32.977.176a4.889,4.889,0,0,1-3.542-1.305,4.507,4.507,0,0,1-1.354-3.4v-.246a5.84,5.84,0,0,1,.541-2.575A3.955,3.955,0,0,1,30.2-9.075a4.763,4.763,0,0,1,2.461-.611,4.117,4.117,0,0,1,3.164,1.244,4.887,4.887,0,0,1,1.16,3.467v1.151H31.1a2.135,2.135,0,0,0,.694,1.257,2.066,2.066,0,0,0,1.389.457,2.662,2.662,0,0,0,2.2-.984l1.354,1.6A3.784,3.784,0,0,1,35.161-.277,5.3,5.3,0,0,1,32.977.176ZM32.643-7.4q-1.3,0-1.547,1.723h2.988v-.229a1.467,1.467,0,0,0-.36-1.1A1.434,1.434,0,0,0,32.643-7.4Zm5.186,2.575A6.421,6.421,0,0,1,38.3-7.374a3.821,3.821,0,0,1,1.362-1.709,3.591,3.591,0,0,1,2.065-.6,2.855,2.855,0,0,1,2.32,1l.105-.826h2.689V-.36a4.009,4.009,0,0,1-.584,2.184,3.75,3.75,0,0,1-1.692,1.424,6.219,6.219,0,0,1-2.566.5,5.365,5.365,0,0,1-2.026-.4,3.657,3.657,0,0,1-1.5-1.028L39.718.58a2.716,2.716,0,0,0,2.18.976A1.764,1.764,0,0,0,43.866-.466v-.3a2.781,2.781,0,0,1-2.153.94A3.437,3.437,0,0,1,38.9-1.156,5.517,5.517,0,0,1,37.828-4.72Zm2.971.185a3.383,3.383,0,0,0,.439,1.85,1.386,1.386,0,0,0,1.23.681,1.573,1.573,0,0,0,1.4-.642v-4a1.534,1.534,0,0,0-1.38-.65,1.4,1.4,0,0,0-1.239.708A3.858,3.858,0,0,0,40.8-4.641Zm7.356-.2a5.613,5.613,0,0,1,.554-2.536A3.96,3.96,0,0,1,50.3-9.088a4.791,4.791,0,0,1,2.435-.6A4.373,4.373,0,0,1,56.1-8.363a5.076,5.076,0,0,1,1.23,3.6v.105A4.925,4.925,0,0,1,56.1-1.129,4.384,4.384,0,0,1,52.752.176a4.434,4.434,0,0,1-3.261-1.217,4.761,4.761,0,0,1-1.327-3.3Zm2.962.185a3.538,3.538,0,0,0,.413,1.934,1.376,1.376,0,0,0,1.222.615q1.582,0,1.617-2.435v-.3q0-2.558-1.635-2.558-1.485,0-1.608,2.206ZM64.389-6.829l-.976-.07a1.752,1.752,0,0,0-1.793.879V0H58.658V-9.51h2.777l.1,1.222a2.294,2.294,0,0,1,2.083-1.4,2.888,2.888,0,0,1,.826.105ZM68.687,0H65.707V-9.51h2.979ZM67.579-13.324h3.129l-2.443,2.76-2.417,0ZM75.946,0a3.344,3.344,0,0,1-.281-.853A2.754,2.754,0,0,1,73.38.176a3.374,3.374,0,0,1-2.285-.813,2.588,2.588,0,0,1-.94-2.043A2.66,2.66,0,0,1,71.3-5.019a5.821,5.821,0,0,1,3.322-.791h.914v-.5q0-1.316-1.134-1.316a.927.927,0,0,0-1.055,1.042H70.383a2.655,2.655,0,0,1,1.173-2.239,4.931,4.931,0,0,1,2.993-.86,4.323,4.323,0,0,1,2.874.888A3.086,3.086,0,0,1,78.5-6.363v4.21a4.311,4.311,0,0,0,.4,2V0ZM74.092-1.934a1.652,1.652,0,0,0,.918-.237,1.487,1.487,0,0,0,.523-.536V-4.228h-.861q-1.547,0-1.547,1.389a.848.848,0,0,0,.272.655A.986.986,0,0,0,74.092-1.934ZM93.507,0h-8.93V-1.934L88.69-6.258a4.909,4.909,0,0,0,1.521-2.751,1.913,1.913,0,0,0-.36-1.257A1.287,1.287,0,0,0,88.8-10.7a1.3,1.3,0,0,0-1.1.576,2.366,2.366,0,0,0-.422,1.437H84.313a4.2,4.2,0,0,1,.589-2.175,4.129,4.129,0,0,1,1.635-1.56,4.856,4.856,0,0,1,2.338-.562,4.777,4.777,0,0,1,3.195.958A3.42,3.42,0,0,1,93.19-9.272,4,4,0,0,1,92.909-7.8a6.456,6.456,0,0,1-.875,1.5,22.029,22.029,0,0,1-1.912,2.1L88.471-2.285h5.036Z" transform="translate(580 975)" fill="#12263f"/>
      <path id="Trazado_610541" data-name="Trazado 610541" d="M11.32-4.333a4.673,4.673,0,0,1-.721,2.36A4.35,4.35,0,0,1,8.75-.387a6.3,6.3,0,0,1-2.72.563A5.025,5.025,0,0,1,2.057-1.468,6.786,6.786,0,0,1,.606-6.108v-.633a7.746,7.746,0,0,1,.655-3.292,4.961,4.961,0,0,1,1.885-2.18,5.26,5.26,0,0,1,2.848-.769,5.516,5.516,0,0,1,3.744,1.226,4.844,4.844,0,0,1,1.608,3.379H8.271a2.292,2.292,0,0,0-.589-1.679,2.422,2.422,0,0,0-1.687-.51A1.843,1.843,0,0,0,4.307-9.7a5.536,5.536,0,0,0-.562,2.751v.905A6.125,6.125,0,0,0,4.258-3.12a1.882,1.882,0,0,0,1.771.879,2.369,2.369,0,0,0,1.626-.5,2.126,2.126,0,0,0,.6-1.591ZM18,0a3.344,3.344,0,0,1-.281-.853A2.754,2.754,0,0,1,15.434.176a3.374,3.374,0,0,1-2.285-.813,2.588,2.588,0,0,1-.94-2.043,2.66,2.66,0,0,1,1.143-2.338,5.821,5.821,0,0,1,3.322-.791h.914v-.5q0-1.316-1.134-1.316A.927.927,0,0,0,15.4-6.587H12.437A2.655,2.655,0,0,1,13.61-8.825a4.931,4.931,0,0,1,2.993-.86,4.323,4.323,0,0,1,2.874.888,3.086,3.086,0,0,1,1.081,2.435v4.21a4.311,4.311,0,0,0,.4,2V0ZM16.146-1.934a1.652,1.652,0,0,0,.918-.237,1.487,1.487,0,0,0,.523-.536V-4.228h-.861q-1.547,0-1.547,1.389a.848.848,0,0,0,.272.655A.986.986,0,0,0,16.146-1.934Zm9.5-9.94V-9.51h1.564v2.057H25.646V-3.1a1.111,1.111,0,0,0,.193.747,1.037,1.037,0,0,0,.765.211,4.345,4.345,0,0,0,.738-.053V-.079a5.466,5.466,0,0,1-1.67.255,3.1,3.1,0,0,1-2.259-.721,2.954,2.954,0,0,1-.729-2.188v-4.72H21.472V-9.51h1.213v-2.364ZM32.977.176a4.889,4.889,0,0,1-3.542-1.305,4.507,4.507,0,0,1-1.354-3.4v-.246a5.84,5.84,0,0,1,.541-2.575A3.955,3.955,0,0,1,30.2-9.075a4.763,4.763,0,0,1,2.461-.611,4.117,4.117,0,0,1,3.164,1.244,4.887,4.887,0,0,1,1.16,3.467v1.151H31.1a2.135,2.135,0,0,0,.694,1.257,2.066,2.066,0,0,0,1.389.457,2.662,2.662,0,0,0,2.2-.984l1.354,1.6A3.784,3.784,0,0,1,35.161-.277,5.3,5.3,0,0,1,32.977.176ZM32.643-7.4q-1.3,0-1.547,1.723h2.988v-.229a1.467,1.467,0,0,0-.36-1.1A1.434,1.434,0,0,0,32.643-7.4Zm5.186,2.575A6.421,6.421,0,0,1,38.3-7.374a3.821,3.821,0,0,1,1.362-1.709,3.591,3.591,0,0,1,2.065-.6,2.855,2.855,0,0,1,2.32,1l.105-.826h2.689V-.36a4.009,4.009,0,0,1-.584,2.184,3.75,3.75,0,0,1-1.692,1.424,6.219,6.219,0,0,1-2.566.5,5.365,5.365,0,0,1-2.026-.4,3.657,3.657,0,0,1-1.5-1.028L39.718.58a2.716,2.716,0,0,0,2.18.976A1.764,1.764,0,0,0,43.866-.466v-.3a2.781,2.781,0,0,1-2.153.94A3.437,3.437,0,0,1,38.9-1.156,5.517,5.517,0,0,1,37.828-4.72Zm2.971.185a3.383,3.383,0,0,0,.439,1.85,1.386,1.386,0,0,0,1.23.681,1.573,1.573,0,0,0,1.4-.642v-4a1.534,1.534,0,0,0-1.38-.65,1.4,1.4,0,0,0-1.239.708A3.858,3.858,0,0,0,40.8-4.641Zm7.356-.2a5.613,5.613,0,0,1,.554-2.536A3.96,3.96,0,0,1,50.3-9.088a4.791,4.791,0,0,1,2.435-.6A4.373,4.373,0,0,1,56.1-8.363a5.076,5.076,0,0,1,1.23,3.6v.105A4.925,4.925,0,0,1,56.1-1.129,4.384,4.384,0,0,1,52.752.176a4.434,4.434,0,0,1-3.261-1.217,4.761,4.761,0,0,1-1.327-3.3Zm2.962.185a3.538,3.538,0,0,0,.413,1.934,1.376,1.376,0,0,0,1.222.615q1.582,0,1.617-2.435v-.3q0-2.558-1.635-2.558-1.485,0-1.608,2.206ZM64.389-6.829l-.976-.07a1.752,1.752,0,0,0-1.793.879V0H58.658V-9.51h2.777l.1,1.222a2.294,2.294,0,0,1,2.083-1.4,2.888,2.888,0,0,1,.826.105ZM68.687,0H65.707V-9.51h2.979ZM67.579-13.324h3.129l-2.443,2.76-2.417,0ZM75.946,0a3.344,3.344,0,0,1-.281-.853A2.754,2.754,0,0,1,73.38.176a3.374,3.374,0,0,1-2.285-.813,2.588,2.588,0,0,1-.94-2.043A2.66,2.66,0,0,1,71.3-5.019a5.821,5.821,0,0,1,3.322-.791h.914v-.5q0-1.316-1.134-1.316a.927.927,0,0,0-1.055,1.042H70.383a2.655,2.655,0,0,1,1.173-2.239,4.931,4.931,0,0,1,2.993-.86,4.323,4.323,0,0,1,2.874.888A3.086,3.086,0,0,1,78.5-6.363v4.21a4.311,4.311,0,0,0,.4,2V0ZM74.092-1.934a1.652,1.652,0,0,0,.918-.237,1.487,1.487,0,0,0,.523-.536V-4.228h-.861q-1.547,0-1.547,1.389a.848.848,0,0,0,.272.655A.986.986,0,0,0,74.092-1.934Zm13.192-5.7h1.4a1.453,1.453,0,0,0,1.661-1.626,1.406,1.406,0,0,0-.4-1.033,1.5,1.5,0,0,0-1.116-.4,1.606,1.606,0,0,0-1.024.343,1.046,1.046,0,0,0-.435.853H84.41a3.032,3.032,0,0,1,.563-1.8,3.715,3.715,0,0,1,1.56-1.235,5.334,5.334,0,0,1,2.193-.444,5.241,5.241,0,0,1,3.357.976A3.243,3.243,0,0,1,93.3-9.325a2.7,2.7,0,0,1-.505,1.56,3.6,3.6,0,0,1-1.472,1.191,3.441,3.441,0,0,1,1.6,1.121,2.951,2.951,0,0,1,.58,1.859A3.3,3.3,0,0,1,92.188-.853,5.472,5.472,0,0,1,88.726.176,5.675,5.675,0,0,1,86.392-.3a3.656,3.656,0,0,1-1.63-1.327,3.45,3.45,0,0,1-.554-1.929h2.979a1.334,1.334,0,0,0,.475,1.02,1.676,1.676,0,0,0,1.169.431,1.755,1.755,0,0,0,1.248-.435,1.454,1.454,0,0,0,.466-1.112,1.7,1.7,0,0,0-.483-1.371,2.021,2.021,0,0,0-1.336-.4H87.284Z" transform="translate(776 997)" fill="#12263f"/>
      <path id="Trazado_610542" data-name="Trazado 610542" d="M7.567-3.4a1.268,1.268,0,0,0-.479-1.055,5.954,5.954,0,0,0-1.683-.782,16.147,16.147,0,0,1-1.969-.782Q.949-7.242.949-9.378a3.011,3.011,0,0,1,.62-1.876A4.008,4.008,0,0,1,3.322-12.52a6.823,6.823,0,0,1,2.549-.453,5.969,5.969,0,0,1,2.474.492,3.917,3.917,0,0,1,1.7,1.4A3.661,3.661,0,0,1,10.652-9H7.576A1.547,1.547,0,0,0,7.1-10.213a1.867,1.867,0,0,0-1.3-.431,2.106,2.106,0,0,0-1.305.365,1.119,1.119,0,0,0-.479.927,1.127,1.127,0,0,0,.527.892A6.65,6.65,0,0,0,6.4-7.633a11.36,11.36,0,0,1,2.18.918,3.663,3.663,0,0,1,2.074,3.3A3.125,3.125,0,0,1,9.387-.782,5.629,5.629,0,0,1,5.915.176,6.888,6.888,0,0,1,3.1-.382,4.247,4.247,0,0,1,1.2-1.912,3.985,3.985,0,0,1,.563-4.148H3.656a1.963,1.963,0,0,0,.532,1.516,2.513,2.513,0,0,0,1.727.488,1.985,1.985,0,0,0,1.208-.33A1.088,1.088,0,0,0,7.567-3.4ZM16.7.176a4.889,4.889,0,0,1-3.542-1.305,4.507,4.507,0,0,1-1.354-3.4v-.246a5.84,5.84,0,0,1,.541-2.575,3.955,3.955,0,0,1,1.578-1.727,4.763,4.763,0,0,1,2.461-.611,4.117,4.117,0,0,1,3.164,1.244,4.887,4.887,0,0,1,1.16,3.467v1.151H14.818a2.135,2.135,0,0,0,.694,1.257,2.066,2.066,0,0,0,1.389.457,2.662,2.662,0,0,0,2.2-.984l1.354,1.6A3.784,3.784,0,0,1,18.883-.277,5.3,5.3,0,0,1,16.7.176ZM16.365-7.4q-1.3,0-1.547,1.723h2.988v-.229a1.467,1.467,0,0,0-.36-1.1A1.434,1.434,0,0,0,16.365-7.4Zm11.285.571-.976-.07a1.752,1.752,0,0,0-1.793.879V0H21.92V-9.51H24.7l.1,1.222a2.294,2.294,0,0,1,2.083-1.4,2.888,2.888,0,0,1,.826.105ZM31.843,0H28.872V-9.51h2.971ZM28.7-11.962A1.322,1.322,0,0,1,29.153-13a1.724,1.724,0,0,1,1.187-.4,1.724,1.724,0,0,1,1.187.4,1.322,1.322,0,0,1,.457,1.037,1.322,1.322,0,0,1-.457,1.037,1.724,1.724,0,0,1-1.187.4,1.724,1.724,0,0,1-1.187-.4A1.322,1.322,0,0,1,28.7-11.962ZM38.268.176a4.889,4.889,0,0,1-3.542-1.305,4.507,4.507,0,0,1-1.354-3.4v-.246a5.84,5.84,0,0,1,.541-2.575A3.955,3.955,0,0,1,35.49-9.075a4.763,4.763,0,0,1,2.461-.611,4.117,4.117,0,0,1,3.164,1.244,4.887,4.887,0,0,1,1.16,3.467v1.151H36.387a2.135,2.135,0,0,0,.694,1.257,2.066,2.066,0,0,0,1.389.457,2.662,2.662,0,0,0,2.2-.984l1.354,1.6A3.784,3.784,0,0,1,40.452-.277,5.3,5.3,0,0,1,38.268.176ZM37.934-7.4q-1.3,0-1.547,1.723h2.988v-.229a1.467,1.467,0,0,0-.36-1.1A1.434,1.434,0,0,0,37.934-7.4ZM54.466,0H51.5V-9.457L48.577-8.6v-2.25L54.193-12.8h.272Z" transform="translate(972 986)" fill="#12263f"/>
      <path id="Trazado_610543" data-name="Trazado 610543" d="M7.567-3.4a1.268,1.268,0,0,0-.479-1.055,5.954,5.954,0,0,0-1.683-.782,16.147,16.147,0,0,1-1.969-.782Q.949-7.242.949-9.378a3.011,3.011,0,0,1,.62-1.876A4.008,4.008,0,0,1,3.322-12.52a6.823,6.823,0,0,1,2.549-.453,5.969,5.969,0,0,1,2.474.492,3.917,3.917,0,0,1,1.7,1.4A3.661,3.661,0,0,1,10.652-9H7.576A1.547,1.547,0,0,0,7.1-10.213a1.867,1.867,0,0,0-1.3-.431,2.106,2.106,0,0,0-1.305.365,1.119,1.119,0,0,0-.479.927,1.127,1.127,0,0,0,.527.892A6.65,6.65,0,0,0,6.4-7.633a11.36,11.36,0,0,1,2.18.918,3.663,3.663,0,0,1,2.074,3.3A3.125,3.125,0,0,1,9.387-.782,5.629,5.629,0,0,1,5.915.176,6.888,6.888,0,0,1,3.1-.382,4.247,4.247,0,0,1,1.2-1.912,3.985,3.985,0,0,1,.563-4.148H3.656a1.963,1.963,0,0,0,.532,1.516,2.513,2.513,0,0,0,1.727.488,1.985,1.985,0,0,0,1.208-.33A1.088,1.088,0,0,0,7.567-3.4ZM16.7.176a4.889,4.889,0,0,1-3.542-1.305,4.507,4.507,0,0,1-1.354-3.4v-.246a5.84,5.84,0,0,1,.541-2.575,3.955,3.955,0,0,1,1.578-1.727,4.763,4.763,0,0,1,2.461-.611,4.117,4.117,0,0,1,3.164,1.244,4.887,4.887,0,0,1,1.16,3.467v1.151H14.818a2.135,2.135,0,0,0,.694,1.257,2.066,2.066,0,0,0,1.389.457,2.662,2.662,0,0,0,2.2-.984l1.354,1.6A3.784,3.784,0,0,1,18.883-.277,5.3,5.3,0,0,1,16.7.176ZM16.365-7.4q-1.3,0-1.547,1.723h2.988v-.229a1.467,1.467,0,0,0-.36-1.1A1.434,1.434,0,0,0,16.365-7.4Zm11.285.571-.976-.07a1.752,1.752,0,0,0-1.793.879V0H21.92V-9.51H24.7l.1,1.222a2.294,2.294,0,0,1,2.083-1.4,2.888,2.888,0,0,1,.826.105ZM31.843,0H28.872V-9.51h2.971ZM28.7-11.962A1.322,1.322,0,0,1,29.153-13a1.724,1.724,0,0,1,1.187-.4,1.724,1.724,0,0,1,1.187.4,1.322,1.322,0,0,1,.457,1.037,1.322,1.322,0,0,1-.457,1.037,1.724,1.724,0,0,1-1.187.4,1.724,1.724,0,0,1-1.187-.4A1.322,1.322,0,0,1,28.7-11.962ZM38.268.176a4.889,4.889,0,0,1-3.542-1.305,4.507,4.507,0,0,1-1.354-3.4v-.246a5.84,5.84,0,0,1,.541-2.575A3.955,3.955,0,0,1,35.49-9.075a4.763,4.763,0,0,1,2.461-.611,4.117,4.117,0,0,1,3.164,1.244,4.887,4.887,0,0,1,1.16,3.467v1.151H36.387a2.135,2.135,0,0,0,.694,1.257,2.066,2.066,0,0,0,1.389.457,2.662,2.662,0,0,0,2.2-.984l1.354,1.6A3.784,3.784,0,0,1,40.452-.277,5.3,5.3,0,0,1,38.268.176ZM37.934-7.4q-1.3,0-1.547,1.723h2.988v-.229a1.467,1.467,0,0,0-.36-1.1A1.434,1.434,0,0,0,37.934-7.4ZM56.83,0H47.9V-1.934l4.113-4.324a4.909,4.909,0,0,0,1.521-2.751,1.913,1.913,0,0,0-.36-1.257,1.287,1.287,0,0,0-1.046-.431,1.3,1.3,0,0,0-1.1.576,2.366,2.366,0,0,0-.422,1.437H47.637a4.2,4.2,0,0,1,.589-2.175,4.129,4.129,0,0,1,1.635-1.56,4.856,4.856,0,0,1,2.338-.562,4.777,4.777,0,0,1,3.195.958,3.42,3.42,0,0,1,1.121,2.751A4,4,0,0,1,56.232-7.8a6.456,6.456,0,0,1-.875,1.5,22.029,22.029,0,0,1-1.912,2.1L51.794-2.285H56.83Z" transform="translate(1087 920)" fill="#12263f"/>
      <path id="Trazado_610544" data-name="Trazado 610544" d="M7.567-3.4a1.268,1.268,0,0,0-.479-1.055,5.954,5.954,0,0,0-1.683-.782,16.147,16.147,0,0,1-1.969-.782Q.949-7.242.949-9.378a3.011,3.011,0,0,1,.62-1.876A4.008,4.008,0,0,1,3.322-12.52a6.823,6.823,0,0,1,2.549-.453,5.969,5.969,0,0,1,2.474.492,3.917,3.917,0,0,1,1.7,1.4A3.661,3.661,0,0,1,10.652-9H7.576A1.547,1.547,0,0,0,7.1-10.213a1.867,1.867,0,0,0-1.3-.431,2.106,2.106,0,0,0-1.305.365,1.119,1.119,0,0,0-.479.927,1.127,1.127,0,0,0,.527.892A6.65,6.65,0,0,0,6.4-7.633a11.36,11.36,0,0,1,2.18.918,3.663,3.663,0,0,1,2.074,3.3A3.125,3.125,0,0,1,9.387-.782,5.629,5.629,0,0,1,5.915.176,6.888,6.888,0,0,1,3.1-.382,4.247,4.247,0,0,1,1.2-1.912,3.985,3.985,0,0,1,.563-4.148H3.656a1.963,1.963,0,0,0,.532,1.516,2.513,2.513,0,0,0,1.727.488,1.985,1.985,0,0,0,1.208-.33A1.088,1.088,0,0,0,7.567-3.4ZM16.7.176a4.889,4.889,0,0,1-3.542-1.305,4.507,4.507,0,0,1-1.354-3.4v-.246a5.84,5.84,0,0,1,.541-2.575,3.955,3.955,0,0,1,1.578-1.727,4.763,4.763,0,0,1,2.461-.611,4.117,4.117,0,0,1,3.164,1.244,4.887,4.887,0,0,1,1.16,3.467v1.151H14.818a2.135,2.135,0,0,0,.694,1.257,2.066,2.066,0,0,0,1.389.457,2.662,2.662,0,0,0,2.2-.984l1.354,1.6A3.784,3.784,0,0,1,18.883-.277,5.3,5.3,0,0,1,16.7.176ZM16.365-7.4q-1.3,0-1.547,1.723h2.988v-.229a1.467,1.467,0,0,0-.36-1.1A1.434,1.434,0,0,0,16.365-7.4Zm11.285.571-.976-.07a1.752,1.752,0,0,0-1.793.879V0H21.92V-9.51H24.7l.1,1.222a2.294,2.294,0,0,1,2.083-1.4,2.888,2.888,0,0,1,.826.105ZM31.843,0H28.872V-9.51h2.971ZM28.7-11.962A1.322,1.322,0,0,1,29.153-13a1.724,1.724,0,0,1,1.187-.4,1.724,1.724,0,0,1,1.187.4,1.322,1.322,0,0,1,.457,1.037,1.322,1.322,0,0,1-.457,1.037,1.724,1.724,0,0,1-1.187.4,1.724,1.724,0,0,1-1.187-.4A1.322,1.322,0,0,1,28.7-11.962ZM38.268.176a4.889,4.889,0,0,1-3.542-1.305,4.507,4.507,0,0,1-1.354-3.4v-.246a5.84,5.84,0,0,1,.541-2.575A3.955,3.955,0,0,1,35.49-9.075a4.763,4.763,0,0,1,2.461-.611,4.117,4.117,0,0,1,3.164,1.244,4.887,4.887,0,0,1,1.16,3.467v1.151H36.387a2.135,2.135,0,0,0,.694,1.257,2.066,2.066,0,0,0,1.389.457,2.662,2.662,0,0,0,2.2-.984l1.354,1.6A3.784,3.784,0,0,1,40.452-.277,5.3,5.3,0,0,1,38.268.176ZM37.934-7.4q-1.3,0-1.547,1.723h2.988v-.229a1.467,1.467,0,0,0-.36-1.1A1.434,1.434,0,0,0,37.934-7.4Zm12.674-.237H52a1.453,1.453,0,0,0,1.661-1.626,1.406,1.406,0,0,0-.4-1.033,1.5,1.5,0,0,0-1.116-.4,1.606,1.606,0,0,0-1.024.343A1.046,1.046,0,0,0,50.7-9.5H47.733a3.032,3.032,0,0,1,.563-1.8,3.715,3.715,0,0,1,1.56-1.235,5.334,5.334,0,0,1,2.193-.444,5.241,5.241,0,0,1,3.357.976,3.243,3.243,0,0,1,1.222,2.681,2.7,2.7,0,0,1-.505,1.56A3.6,3.6,0,0,1,54.65-6.574a3.441,3.441,0,0,1,1.6,1.121,2.951,2.951,0,0,1,.58,1.859A3.3,3.3,0,0,1,55.512-.853,5.472,5.472,0,0,1,52.049.176,5.675,5.675,0,0,1,49.715-.3a3.656,3.656,0,0,1-1.63-1.327,3.45,3.45,0,0,1-.554-1.929h2.979a1.334,1.334,0,0,0,.475,1.02,1.676,1.676,0,0,0,1.169.431A1.755,1.755,0,0,0,53.4-2.544a1.454,1.454,0,0,0,.466-1.112,1.7,1.7,0,0,0-.483-1.371,2.021,2.021,0,0,0-1.336-.4H50.607Z" transform="translate(1190 856)" fill="#12263f"/>
      <path id="Trazado_610548" data-name="Trazado 610548" d="M3.489-7.638h1.4A1.453,1.453,0,0,0,6.548-9.264a1.406,1.406,0,0,0-.4-1.033,1.5,1.5,0,0,0-1.116-.4,1.606,1.606,0,0,0-1.024.343,1.046,1.046,0,0,0-.435.853H.615a3.032,3.032,0,0,1,.563-1.8,3.715,3.715,0,0,1,1.56-1.235,5.334,5.334,0,0,1,2.193-.444,5.241,5.241,0,0,1,3.357.976A3.243,3.243,0,0,1,9.51-9.325,2.7,2.7,0,0,1,9-7.765,3.6,3.6,0,0,1,7.532-6.574a3.441,3.441,0,0,1,1.6,1.121,2.951,2.951,0,0,1,.58,1.859A3.3,3.3,0,0,1,8.394-.853,5.472,5.472,0,0,1,4.931.176,5.675,5.675,0,0,1,2.6-.3,3.656,3.656,0,0,1,.967-1.63,3.45,3.45,0,0,1,.413-3.56H3.393a1.334,1.334,0,0,0,.475,1.02,1.676,1.676,0,0,0,1.169.431,1.755,1.755,0,0,0,1.248-.435A1.454,1.454,0,0,0,6.75-3.656a1.7,1.7,0,0,0-.483-1.371,2.021,2.021,0,0,0-1.336-.4H3.489Z" transform="translate(370 755)" fill="#12263f"/>
      <path id="Trazado_610547" data-name="Trazado 610547" d="M9.712,0H.782V-1.934L4.9-6.258A4.909,4.909,0,0,0,6.416-9.009a1.913,1.913,0,0,0-.36-1.257A1.287,1.287,0,0,0,5.01-10.7a1.3,1.3,0,0,0-1.1.576,2.366,2.366,0,0,0-.422,1.437H.519a4.2,4.2,0,0,1,.589-2.175,4.129,4.129,0,0,1,1.635-1.56,4.856,4.856,0,0,1,2.338-.562,4.777,4.777,0,0,1,3.195.958A3.42,3.42,0,0,1,9.4-9.272,4,4,0,0,1,9.114-7.8,6.456,6.456,0,0,1,8.24-6.3a22.029,22.029,0,0,1-1.912,2.1L4.676-2.285H9.712Z" transform="translate(370 800)" fill="#12263f"/>
      <path id="Trazado_610546" data-name="Trazado 610546" d="M7.348,0H4.377V-9.457L1.459-8.6v-2.25L7.075-12.8h.272Z" transform="translate(370 845)" fill="#12263f"/>
      <path id="Trazado_610545" data-name="Trazado 610545" d="M9.668-5.229a6.11,6.11,0,0,1-1.165,4A4.024,4.024,0,0,1,5.221.176a4.046,4.046,0,0,1-3.3-1.415A6.1,6.1,0,0,1,.747-5.229V-7.567a6.11,6.11,0,0,1,1.165-4A4.034,4.034,0,0,1,5.2-12.973a4.036,4.036,0,0,1,3.3,1.415,6.116,6.116,0,0,1,1.169,4ZM6.706-7.945a4.564,4.564,0,0,0-.36-2.061A1.2,1.2,0,0,0,5.2-10.687a1.176,1.176,0,0,0-1.112.633,4.3,4.3,0,0,0-.374,1.916v3.27a4.6,4.6,0,0,0,.36,2.1,1.209,1.209,0,0,0,1.143.664,1.193,1.193,0,0,0,1.116-.646,4.39,4.39,0,0,0,.369-2.026Z" transform="translate(370 890)" fill="#12263f"/>
    </g>
  </g>
</svg>
