<svg xmlns="http://www.w3.org/2000/svg" xmlns:xlink="http://www.w3.org/1999/xlink" width="146" height="146" viewBox="0 0 146 146">
  <defs>
    <clipPath id="clip-path">
      <rect id="Rectángulo_377916" data-name="Rectángulo 377916" width="81.642" height="95" fill="none"/>
    </clipPath>
  </defs>
  <g id="Grupo_1072669" data-name="Grupo 1072669" transform="translate(-727 -1126)">
    <g id="Grupo_1072494" data-name="Grupo 1072494" transform="translate(458 168)">
      <path id="Trazado_608969" data-name="Trazado 608969" d="M73,0A73,73,0,1,1,0,73,73,73,0,0,1,73,0Z" transform="translate(269 958)" fill="#dffaff"/>
    </g>
    <g id="Grupo_1072511" data-name="Grupo 1072511" transform="translate(759 1152)">
      <g id="Grupo_1072510" data-name="Grupo 1072510" transform="translate(0 0)" clip-path="url(#clip-path)">
        <path id="Trazado_610075" data-name="Trazado 610075" d="M26.878,70.918c-1.7-.864.795-8.739-.925-9.7-2.431-1.364-15.206-10.066-14.342-24.249s9.227-24.4,23.555-24.515c14.346-.114,24.436,8.5,25.128,23.477.68,14.785-10.834,23.224-11.058,25.669s1.325,8.014.485,8.712c-1.915,1.589-19.9,2.1-22.842.609" transform="translate(7.078 7.616)" fill="#fce321"/>
        <path id="Trazado_610076" data-name="Trazado 610076" d="M38.457,56.368c-3.552.029-8.707-.024-16.264-.179a2.832,2.832,0,0,1,.116-5.664c9.795.276,21.335.511,21.862-.024a2.833,2.833,0,0,1,2.8,4.808c-.677.59-1.149,1-8.515,1.059" transform="translate(11.881 30.797)" fill="#4e4e4e"/>
        <path id="Trazado_610077" data-name="Trazado 610077" d="M35.628,61.221c-2.55.021-6.25-.045-11.676-.216-1.123-.035-2.016-1.331-2-2.895s.943-2.8,2.068-2.767c6.724.211,14.288.276,15.692.024a1.7,1.7,0,0,1,2.211.819,3.652,3.652,0,0,1-.189,4c-.485.588-.824,1-6.11,1.04" transform="translate(13.432 33.776)" fill="#4e4e4e"/>
        <path id="Trazado_610078" data-name="Trazado 610078" d="M43.1,30.034c-1.383-.867-3.014.021-3.9,1.141a19.845,19.845,0,0,0-2.5,4.556q-.239.563-.456,1.133a4.932,4.932,0,0,1-2.46-.593,4.823,4.823,0,0,1-.641-.421,8.066,8.066,0,0,0,2.539-5.617,3.012,3.012,0,0,0-1.923-2.945c-1.584-.55-3.119.838-3.749,2.155a6.23,6.23,0,0,0,.932,6.375A7.507,7.507,0,0,1,27.318,37.3,38.39,38.39,0,0,0,26.183,33.6a9.146,9.146,0,0,0-2.41-3.847c-1.177-1.027-2.983-1.591-3.82.124-1.336,2.737.445,5.927,2.635,7.572A6.632,6.632,0,0,0,26.4,38.763q.29,1.238.525,2.481a55.679,55.679,0,0,1,.538,15.273.412.412,0,0,0,.806.1A43.867,43.867,0,0,0,28.6,44.852a51.145,51.145,0,0,0-.951-6.149,8.973,8.973,0,0,0,3.436-1.215,9.719,9.719,0,0,0,.864-.587,6.225,6.225,0,0,0,3.749,1.51,41.712,41.712,0,0,0-1.641,7.646,80.166,80.166,0,0,0-.513,10.37.841.841,0,0,0,1.681-.013c-.048-6.062.239-12.335,2.224-18.105a8.5,8.5,0,0,0,2.647-.943c1.944-1.08,6.091-5.4,3-7.334m-18.281,7a6.145,6.145,0,0,1-3.233-2.748c-.616-1.051-1.091-2.967-.269-4.047.513-.672,1.963.862,2.279,1.233a8.965,8.965,0,0,1,1.417,2.655c.392,1.033.724,2.094,1.014,3.169a5.817,5.817,0,0,1-1.207-.261M31.7,29.6c.338-.521,1.088-1.085,1.736-.8a1.5,1.5,0,0,1,.712,1.3,5.8,5.8,0,0,1-1.362,3.844,8.035,8.035,0,0,1-.685.84,4.573,4.573,0,0,1-.4-5.179M42.554,32a4.873,4.873,0,0,1-1.109,2.137,7.454,7.454,0,0,1-3.309,2.373c.16-.382.326-.759.5-1.135.363-.774.769-1.526,1.2-2.261a3.7,3.7,0,0,1,1.568-1.728c.485-.187,1.227-.027,1.144.614" transform="translate(11.926 16.619)" fill="#fff"/>
        <path id="Trazado_610079" data-name="Trazado 610079" d="M29.665,1.57c-.121-1.7-2.871-2.286-3.154-.4a43.594,43.594,0,0,0-.126,6.587c.006,2.1-.337,4.552.635,6.478a.648.648,0,0,0,1.111-.01c1.051-1.72.919-4.062,1.078-6.018a44.551,44.551,0,0,0,.456-6.636" transform="translate(16.103 -0.001)" fill="#fce321"/>
        <path id="Trazado_610080" data-name="Trazado 610080" d="M45.592,3.733a12.65,12.65,0,0,0-2.513,2.614c-.9,1.041-1.82,2.066-2.713,3.114a63.421,63.421,0,0,0-4.723,6.007c-.7,1.056.854,2.134,1.712,1.3,1.747-1.7,3.349-3.551,5.043-5.306q1.272-1.318,2.579-2.6a17.982,17.982,0,0,0,2.877-2.9,1.651,1.651,0,0,0-2.263-2.226" transform="translate(21.699 2.137)" fill="#fce321"/>
        <path id="Trazado_610081" data-name="Trazado 610081" d="M21.828,14.736C18.7,11.491,15.383,8.352,12.1,5.262c-1.431-1.346-3.6.9-2.124,2.16,3.44,2.94,6.932,5.906,10.51,8.679.953.738,2.223-.453,1.343-1.365" transform="translate(5.801 2.964)" fill="#fce321"/>
        <path id="Trazado_610082" data-name="Trazado 610082" d="M13.152,19.825a39.248,39.248,0,0,1-5.785-.775,26.266,26.266,0,0,1-2.917-.895,18.52,18.52,0,0,0-2.821-1.178c-1.1-.2-2.279,1.248-1.2,2.1,1.549,1.235,4.055,1.549,5.959,1.963,2.672.582,5.262.867,6.781.3.907-.34.982-1.438-.013-1.52" transform="translate(0 10.374)" fill="#fce321"/>
        <path id="Trazado_610083" data-name="Trazado 610083" d="M53.829,17.625c-1.312-.513-3.145.169-4.5.385a37.4,37.4,0,0,0-4.988,1.027.863.863,0,0,0,.242,1.686,34.84,34.84,0,0,0,4.679.1c1.536-.047,3.61.3,4.94-.543a1.468,1.468,0,0,0-.367-2.65" transform="translate(26.75 10.668)" fill="#fce321"/>
      </g>
    </g>
  </g>
</svg>
