<svg xmlns="http://www.w3.org/2000/svg" xmlns:xlink="http://www.w3.org/1999/xlink" width="146" height="146" viewBox="0 0 146 146">
  <defs>
    <clipPath id="clip-path">
      <rect id="Rect치ngulo_377917" data-name="Rect치ngulo 377917" width="91.54" height="72.651" fill="none"/>
    </clipPath>
    <clipPath id="clip-path-2">
      <rect id="Rect치ngulo_377918" data-name="Rect치ngulo 377918" width="64.252" height="71.09" fill="none"/>
    </clipPath>
  </defs>
  <g id="Grupo_1072670" data-name="Grupo 1072670" transform="translate(-1147 -1126)">
    <g id="Grupo_1072495" data-name="Grupo 1072495" transform="translate(878 168)">
      <path id="Trazado_608969" data-name="Trazado 608969" d="M73,0A73,73,0,1,1,0,73,73,73,0,0,1,73,0Z" transform="translate(269 958)" fill="#dffaff"/>
    </g>
    <g id="Grupo_1072667" data-name="Grupo 1072667" transform="translate(-21 -19)">
      <g id="Grupo_1072513" data-name="Grupo 1072513" transform="translate(1195 1171)">
        <g id="Grupo_1072512" data-name="Grupo 1072512" transform="translate(0 0)" clip-path="url(#clip-path)">
          <path id="Trazado_610084" data-name="Trazado 610084" d="M55.5,23.974a1.79,1.79,0,0,0-1.207-.5c-1.285-.121-2.593-.192-3.9-.216l-.387-2.338c-.011-.056-.029-.2-.052-.183a1.438,1.438,0,0,1,.241-.17l1.869-1.18a1.725,1.725,0,0,0,.792-.889,1.713,1.713,0,0,0-.084-1.134,55.426,55.426,0,0,0-2.552-5.982,1.342,1.342,0,0,0-.865-.78,1.64,1.64,0,0,0-.249-.027,1.468,1.468,0,0,0-.673.187L44.6,12.7l-1.27-1.232a1.525,1.525,0,0,0-.164-.143,1.265,1.265,0,0,1,.106-.294l1.313-2.95a1.93,1.93,0,0,0,.206-1.2,1.945,1.945,0,0,0-.877-1.14L39.74,2.774a1.735,1.735,0,0,0-1.1-.375,1.629,1.629,0,0,0-1.053.616l-2.9,3.2c-.286-.092-.559-.192-.843-.3-.324-.119-.656-.245-1.019-.353L31.249.54A.776.776,0,0,0,30.439,0a35.571,35.571,0,0,0-6.946,1.359.773.773,0,0,0-.526.545,21.774,21.774,0,0,0-.654,4.114l-2.385.7a24.055,24.055,0,0,0-2.21-3.241.774.774,0,0,0-1.007-.17C14.64,4.588,12.5,5.8,10.341,6.919a.774.774,0,0,0-.387.9A28.949,28.949,0,0,0,11.58,12.1,9.5,9.5,0,0,1,9.9,13.431c-.591-.127-3.112-.665-4.154-.865a.772.772,0,0,0-.765.3L.767,18.546A.775.775,0,0,0,1,19.675l4.621,2.685c.024.014.071.041.113.07-.008.038-.017.076-.024.1l-.534,2.061-3.19.359a1.493,1.493,0,0,0-.962.407,1.506,1.506,0,0,0-.373.867C.324,28.449.105,30.72,0,32.969a.771.771,0,0,0,.681.8l3.756.446c.877.1,1.374.3,1.477.605a2.019,2.019,0,0,1,.049.53,3.089,3.089,0,0,0,.122.946,35.44,35.44,0,0,1-3.613,3.727.773.773,0,0,0-.106,1.039,38.193,38.193,0,0,1,2.916,4.588.772.772,0,0,0,.8.4l4.943-.764a1.62,1.62,0,0,1,.319-.025,1.28,1.28,0,0,1,.283.267c.159.176.4.408.673.67a8.213,8.213,0,0,1,1.655,1.914c-.138.245-.53.811-.827,1.242-1.28,1.852-1.712,2.474-1,3.022a19.182,19.182,0,0,0,4.591,2.614,1.762,1.762,0,0,0,1.15.114,1.666,1.666,0,0,0,.7-.47l3.659-3.694a7.769,7.769,0,0,1,2.076.789,30.9,30.9,0,0,0,.321,4.091.774.774,0,0,0,.759.662,64.85,64.85,0,0,1,7.46.488.639.639,0,0,0,.1,0,.77.77,0,0,0,.754-.6,28.668,28.668,0,0,0,.649-4.905,7.792,7.792,0,0,1,1.27-.178l.148-.019a1.176,1.176,0,0,1,.156.21,19.329,19.329,0,0,1,1.42,2.666.764.764,0,0,0,.489.434.773.773,0,0,0,.648-.1,30.358,30.358,0,0,1,7.638-3.83.772.772,0,0,0,.461-1.086l-2.009-3.989c-.01-.017-.027-.051-.04-.081.021-.024.043-.051.057-.065L46.128,43.7a15.137,15.137,0,0,0,4.065,1.96.77.77,0,0,0,.934-.419c1.091-2.414,2.087-4.9,2.962-7.4a.771.771,0,0,0-.21-.827,15.55,15.55,0,0,0-3.2-2.245,25.367,25.367,0,0,0,.718-2.665,25.481,25.481,0,0,1,2.825-.076A.77.77,0,0,0,55,31.406a37.205,37.205,0,0,0,.881-6.117,1.761,1.761,0,0,0-.384-1.315M19.477,25.821a10.377,10.377,0,0,1,.977-1.7,8.985,8.985,0,0,1,6.134-3.756,10.371,10.371,0,0,1,7.754,2.269,7.846,7.846,0,0,1,3.33,6.566,8.718,8.718,0,0,1-4.459,6.714,9.234,9.234,0,0,1-9.752.225c-3.867-2.147-5.059-5.128-3.865-9.669a.767.767,0,0,0-.119-.648" transform="translate(0 0)" fill="#e2c549"/>
          <path id="Trazado_610085" data-name="Trazado 610085" d="M71.649,37.537a1.231,1.231,0,0,0-.832-.343c-.886-.083-1.788-.133-2.685-.149l-.268-1.612c-.008-.038-.021-.141-.035-.127a.981.981,0,0,1,.165-.118l1.289-.813a1.029,1.029,0,0,0,.489-1.394,38.263,38.263,0,0,0-1.761-4.127.928.928,0,0,0-.6-.538,1.05,1.05,0,0,0-.171-.019,1.014,1.014,0,0,0-.465.13l-2.641,1.336-.875-.85a1.13,1.13,0,0,0-.114-.1,1.014,1.014,0,0,1,.073-.2l.907-2.034a1.139,1.139,0,0,0-.462-1.612l-2.884-2.052a1.2,1.2,0,0,0-.757-.257,1.125,1.125,0,0,0-.726.424l-2,2.206c-.2-.064-.386-.132-.581-.2-.224-.083-.453-.168-.7-.243l-1.091-3.465a.533.533,0,0,0-.557-.37,24.47,24.47,0,0,0-4.791.937.536.536,0,0,0-.364.376,15.067,15.067,0,0,0-.451,2.839l-1.645.48A16.519,16.519,0,0,0,45.59,23.4a.534.534,0,0,0-.7-.118c-1.428.885-2.906,1.721-4.394,2.492a.535.535,0,0,0-.267.624,20.05,20.05,0,0,0,1.123,2.949,6.714,6.714,0,0,1-1.156.919c-.408-.087-2.149-.459-2.866-.6a.533.533,0,0,0-.527.2L33.9,33.794a.535.535,0,0,0,.16.78l3.187,1.852c.017.01.049.029.078.048a.686.686,0,0,1-.016.07l-.368,1.421-2.2.248a.917.917,0,0,0-.921.878c-.225,1.534-.376,3.1-.448,4.653a.531.531,0,0,0,.468.554l2.592.308c.6.07.946.211,1.018.416a1.413,1.413,0,0,1,.035.367,2.094,2.094,0,0,0,.084.653,24.438,24.438,0,0,1-2.493,2.571.534.534,0,0,0-.073.716,26.306,26.306,0,0,1,2.012,3.165.532.532,0,0,0,.549.275l3.413-.527a1.042,1.042,0,0,1,.219-.017.927.927,0,0,1,.2.183c.108.122.275.283.464.464a5.622,5.622,0,0,1,1.14,1.32c-.094.168-.365.561-.569.856-.885,1.278-1.181,1.707-.691,2.085a13.33,13.33,0,0,0,3.166,1.8,1.217,1.217,0,0,0,.794.078,1.14,1.14,0,0,0,.481-.324L48.7,56.139a5.319,5.319,0,0,1,1.431.546,21.231,21.231,0,0,0,.222,2.822.534.534,0,0,0,.522.456,45.023,45.023,0,0,1,5.147.337.458.458,0,0,0,.065,0,.532.532,0,0,0,.521-.416,19.918,19.918,0,0,0,.449-3.384,5.426,5.426,0,0,1,.875-.124l.1-.013a.882.882,0,0,1,.106.146,13.341,13.341,0,0,1,.98,1.839.528.528,0,0,0,.338.3.535.535,0,0,0,.446-.068,20.93,20.93,0,0,1,5.269-2.642.533.533,0,0,0,.318-.748L64.1,52.439l-.027-.056a.44.44,0,0,1,.04-.046l1.07-1.191A10.5,10.5,0,0,0,67.994,52.5a.531.531,0,0,0,.643-.289c.753-1.666,1.439-3.382,2.044-5.107a.537.537,0,0,0-.145-.57,10.693,10.693,0,0,0-2.212-1.548,17.551,17.551,0,0,0,.5-1.839,17.416,17.416,0,0,1,1.95-.052.533.533,0,0,0,.538-.427,25.875,25.875,0,0,0,.608-4.219,1.226,1.226,0,0,0-.267-.908M46.8,38.812a7.157,7.157,0,0,1,.673-1.175,6.2,6.2,0,0,1,4.232-2.59,7.165,7.165,0,0,1,5.35,1.564,5.417,5.417,0,0,1,2.3,4.531,6.015,6.015,0,0,1-3.076,4.632,6.372,6.372,0,0,1-6.728.156c-2.666-1.482-3.489-3.538-2.665-6.671a.531.531,0,0,0-.083-.446" transform="translate(19.621 12.348)" fill="#527597"/>
          <path id="Trazado_610086" data-name="Trazado 610086" d="M61.515,13.166a.8.8,0,0,0-.535-.221c-.572-.054-1.153-.086-1.731-.1l-.171-1.039c0-.025-.013-.091-.024-.083a.871.871,0,0,1,.108-.075l.831-.524a.665.665,0,0,0,.314-.9,24.768,24.768,0,0,0-1.134-2.657.6.6,0,0,0-.384-.346.549.549,0,0,0-.41.071l-1.7.861-.564-.548-.073-.067a.591.591,0,0,1,.046-.127l.584-1.31a.862.862,0,0,0,.092-.532.868.868,0,0,0-.391-.507L54.517,3.75a.764.764,0,0,0-.488-.167.736.736,0,0,0-.467.273l-1.286,1.42c-.127-.04-.249-.084-.375-.132-.145-.052-.292-.108-.453-.156l-.7-2.231a.343.343,0,0,0-.359-.238,15.712,15.712,0,0,0-3.085.6.346.346,0,0,0-.233.243,9.745,9.745,0,0,0-.291,1.826l-1.059.31a10.811,10.811,0,0,0-.981-1.44.345.345,0,0,0-.448-.075c-.919.569-1.871,1.108-2.828,1.605a.34.34,0,0,0-.172.4,12.87,12.87,0,0,0,.721,1.9,4.371,4.371,0,0,1-.743.592c-.262-.057-1.383-.3-1.845-.384a.342.342,0,0,0-.34.132l-1.874,2.523a.347.347,0,0,0-.06.275.342.342,0,0,0,.164.227l2.053,1.193c.01.006.032.019.049.032l-.01.044-.238.915-1.416.16a.589.589,0,0,0-.592.565c-.146.988-.243,2-.291,2.995a.344.344,0,0,0,.3.357l1.667.2c.389.046.61.135.656.268a.9.9,0,0,1,.022.235,1.4,1.4,0,0,0,.054.421,15.629,15.629,0,0,1-1.6,1.655.345.345,0,0,0-.048.462,16.925,16.925,0,0,1,1.3,2.037.34.34,0,0,0,.354.176l2.2-.338a.682.682,0,0,1,.141-.013.578.578,0,0,1,.125.119c.07.078.178.181.3.3a3.649,3.649,0,0,1,.734.85c-.06.108-.235.36-.367.551-.568.823-.761,1.1-.445,1.342a8.472,8.472,0,0,0,2.039,1.161.779.779,0,0,0,.511.051.741.741,0,0,0,.31-.208l1.625-1.64a3.427,3.427,0,0,1,.921.351,13.912,13.912,0,0,0,.143,1.817.346.346,0,0,0,.337.294,28.956,28.956,0,0,1,3.314.216.2.2,0,0,0,.043,0,.344.344,0,0,0,.335-.268,12.6,12.6,0,0,0,.287-2.179,3.389,3.389,0,0,1,.565-.079l.065-.008a.562.562,0,0,1,.07.092,8.732,8.732,0,0,1,.63,1.185.337.337,0,0,0,.218.192.348.348,0,0,0,.287-.043,13.512,13.512,0,0,1,3.392-1.7.342.342,0,0,0,.2-.481l-.892-1.772-.017-.037.025-.029.689-.767a6.747,6.747,0,0,0,1.806.87.343.343,0,0,0,.416-.186c.484-1.072.926-2.179,1.315-3.289a.34.34,0,0,0-.094-.367,6.867,6.867,0,0,0-1.423-1,11.714,11.714,0,0,0,.319-1.183,11.052,11.052,0,0,1,1.255-.033.342.342,0,0,0,.346-.276,16.5,16.5,0,0,0,.392-2.717.786.786,0,0,0-.172-.584m-16,.821a4.584,4.584,0,0,1,.434-.756,4,4,0,0,1,2.725-1.669A4.612,4.612,0,0,1,52.12,12.57,3.486,3.486,0,0,1,53.6,15.487a3.875,3.875,0,0,1-1.98,2.982,4.1,4.1,0,0,1-4.332.1c-1.717-.954-2.247-2.279-1.717-4.3a.339.339,0,0,0-.052-.287" transform="translate(21.677 1.48)" fill="#a84749"/>
        </g>
      </g>
      <g id="Grupo_1072515" data-name="Grupo 1072515" transform="translate(1195 1193.232)">
        <g id="Grupo_1072514" data-name="Grupo 1072514" transform="translate(0 0)" clip-path="url(#clip-path-2)">
          <path id="Trazado_610087" data-name="Trazado 610087" d="M19.269,36.25c6.595,5.59,16.063,6.065,19.92,3.576,3.12-2.015,13.973-13.19,6.676-27.6C43.8,10.188,33,.346,23.223,6.615A19.393,19.393,0,0,0,14.63,21.971c-.368,5.529,1.8,11.872,4.639,14.279" transform="translate(8.578 2.677)" fill="#fff"/>
          <path id="Trazado_610088" data-name="Trazado 610088" d="M60.631,11.033a3.534,3.534,0,0,0-.569-.791c-3.686-3.9-10.938-9.177-19.037-10.1a19.665,19.665,0,0,0-13.15,3.027c-6.989,4.478-11.334,12.131-11.926,21-.426,6.4,1.682,13.423,4.737,17.593,0,0-5.521,6.693-7.387,8.9-1.507,1.782-6.088,7.068-6.088,7.068S.507,64.914.184,65.559a2.822,2.822,0,0,0,.4,2.66c.645,1.129,2.9,3.224,4.353,2.82s7.332-7.1,8.361-8.318l5.174-6.792,7.911-8.977c8.531,5.6,19.01,5.745,25.329,1.659,7.013-4.527,18.416-19.672,8.918-37.578M47.765,42.5c-3.856,2.488-13.325,2.014-19.92-3.576-2.839-2.407-5.007-8.751-4.637-14.281A19.389,19.389,0,0,1,31.8,9.293c9.78-6.269,20.577,3.573,22.643,5.607,7.3,14.414-3.557,25.589-6.678,27.6" transform="translate(0 -0.001)" fill="#666"/>
        </g>
      </g>
    </g>
  </g>
</svg>
