<svg xmlns="http://www.w3.org/2000/svg" xmlns:xlink="http://www.w3.org/1999/xlink" width="400" height="1078" viewBox="0 0 400 1078">
  <defs>
    <clipPath id="clip-path">
      <rect id="Rectángulo_377983" data-name="Rectángulo 377983" width="166.997" height="292.661" fill="#94eeff"/>
    </clipPath>
    <clipPath id="clip-path-2">
      <rect id="Rectángulo_377983-2" data-name="Rectángulo 377983" width="166.997" height="292.661" fill="#ffe7af"/>
    </clipPath>
    <clipPath id="clip-path-3">
      <rect id="Rectángulo_377983-3" data-name="Rectángulo 377983" width="166.997" height="292.661" fill="#c3d7f5"/>
    </clipPath>
    <clipPath id="clip-path-4">
      <rect id="Rectángulo_377987" data-name="Rectángulo 377987" width="105" height="87.488" fill="#76becc"/>
    </clipPath>
    <clipPath id="clip-path-5">
      <rect id="Rectángulo_377988" data-name="Rectángulo 377988" width="98.278" height="98.345" fill="#615842"/>
    </clipPath>
    <clipPath id="clip-path-6">
      <rect id="Rectángulo_377989" data-name="Rectángulo 377989" width="102.814" height="102.769" fill="#4e5662"/>
    </clipPath>
  </defs>
  <g id="Grupo_1072675" data-name="Grupo 1072675" transform="translate(-7205 5529)">
    <g id="Grupo_1072694" data-name="Grupo 1072694">
      <rect id="Rectángulo_377999" data-name="Rectángulo 377999" width="400" height="1078" transform="translate(7205 -5529)" fill="#fff"/>
      <g id="Grupo_1072585" data-name="Grupo 1072585" transform="translate(6860 -12197.998)">
        <path id="Unión_5" data-name="Unión 5" d="M-7696.1,11750.825H-7766v-32.441h69.9V11700l59.6,34.6-59.6,34.605Z" transform="translate(12279.998 15229.498) rotate(90)" fill="#c3d7f5"/>
        <rect id="Rectángulo_377997" data-name="Rectángulo 377997" width="295" height="125" rx="33" transform="translate(398 7587)" fill="#ffe7af"/>
        <text id="Estructura_del_proyecto_de_vida" data-name="Estructura del
proyecto de vida" transform="translate(479 7643)" fill="#12263f" font-size="18" font-family="Roboto-Black, Roboto" font-weight="800"><tspan x="0" y="0">Estructura del</tspan><tspan x="0" y="25">proyecto de vida</tspan></text>
        <g id="Grupo_1072584" data-name="Grupo 1072584" transform="translate(113.603 -157.002)">
          <rect id="Rectángulo_377995" data-name="Rectángulo 377995" width="87.68" height="39.1" transform="translate(451.474 7094.603) rotate(90)" fill="#94eeff"/>
          <rect id="Rectángulo_377996" data-name="Rectángulo 377996" width="87.68" height="39.1" transform="translate(453.21 7374.162) rotate(90)" fill="#ffe7af"/>
          <g id="Grupo_1072578" data-name="Grupo 1072578" transform="translate(577.661 6972.562) rotate(90)">
            <g id="Grupo_1072563" data-name="Grupo 1072563">
              <g id="Grupo_1072562" data-name="Grupo 1072562" clip-path="url(#clip-path)">
                <path id="Trazado_610247" data-name="Trazado 610247" d="M0,0V292.661A146.331,146.331,0,0,0,146.33,146.33,146.33,146.33,0,0,0,0,0" fill="#94eeff"/>
              </g>
            </g>
          </g>
          <g id="Grupo_1072580" data-name="Grupo 1072580" transform="translate(579.397 7252.121) rotate(90)">
            <g id="Grupo_1072563-2" data-name="Grupo 1072563">
              <g id="Grupo_1072562-2" data-name="Grupo 1072562" clip-path="url(#clip-path-2)">
                <path id="Trazado_610247-2" data-name="Trazado 610247" d="M0,0V292.661A146.331,146.331,0,0,0,146.33,146.33,146.33,146.33,0,0,0,0,0" fill="#ffe7af"/>
              </g>
            </g>
          </g>
          <g id="Grupo_1072582" data-name="Grupo 1072582" transform="translate(577.661 7530.563) rotate(90)">
            <g id="Grupo_1072563-3" data-name="Grupo 1072563">
              <g id="Grupo_1072562-3" data-name="Grupo 1072562" clip-path="url(#clip-path-3)">
                <path id="Trazado_610247-3" data-name="Trazado 610247" d="M0,0V292.661A146.331,146.331,0,0,0,146.33,146.33,146.33,146.33,0,0,0,0,0" fill="#c3d7f5"/>
              </g>
            </g>
          </g>
          <ellipse id="Elipse_5900" data-name="Elipse 5900" cx="112.562" cy="112.562" rx="112.562" ry="112.562" transform="translate(543.893 6860) rotate(90)" fill="#dffaff"/>
          <ellipse id="Elipse_5901" data-name="Elipse 5901" cx="112.562" cy="112.562" rx="112.562" ry="112.562" transform="translate(545.629 7139.559) rotate(90)" fill="#fff8e7"/>
          <ellipse id="Elipse_5902" data-name="Elipse 5902" cx="112.562" cy="112.562" rx="112.562" ry="112.562" transform="translate(543.893 7418.001) rotate(90)" fill="#e7effb"/>
          <path id="Trazado_610599" data-name="Trazado 610599" d="M5.019-12.8l2.856,8.9,2.848-8.9h4.061V0H11.689V-2.988l.3-6.117L8.895,0H6.855l-3.1-9.114.3,6.126V0H.967V-12.8ZM19.731,0H16.761V-9.51h2.971ZM16.585-11.962A1.322,1.322,0,0,1,17.042-13a1.724,1.724,0,0,1,1.187-.4,1.724,1.724,0,0,1,1.187.4,1.322,1.322,0,0,1,.457,1.037,1.322,1.322,0,0,1-.457,1.037,1.724,1.724,0,0,1-1.187.4,1.724,1.724,0,0,1-1.187-.4A1.322,1.322,0,0,1,16.585-11.962Zm9.949,9.29a.684.684,0,0,0-.4-.606,6.016,6.016,0,0,0-1.5-.475A6.853,6.853,0,0,1,22.808-4.4a3.062,3.062,0,0,1-1.1-.971,2.319,2.319,0,0,1-.378-1.31,2.628,2.628,0,0,1,1.081-2.158,4.453,4.453,0,0,1,2.83-.848,4.934,4.934,0,0,1,3.023.853,2.666,2.666,0,0,1,1.143,2.241H26.438q0-1.143-1.2-1.143a1.194,1.194,0,0,0-.782.259.8.8,0,0,0-.316.646.737.737,0,0,0,.387.642,3.654,3.654,0,0,0,1.235.4,10.671,10.671,0,0,1,1.49.378A2.706,2.706,0,0,1,29.391-2.76,2.491,2.491,0,0,1,28.235-.642a5.068,5.068,0,0,1-2.993.817,5.172,5.172,0,0,1-2.18-.439,3.645,3.645,0,0,1-1.494-1.2,2.707,2.707,0,0,1-.536-1.591H23.8a1.145,1.145,0,0,0,.439.962,1.808,1.808,0,0,0,1.081.3,1.422,1.422,0,0,0,.91-.246A.787.787,0,0,0,26.534-2.672ZM33.9,0H30.929V-9.51H33.9ZM30.753-11.962A1.322,1.322,0,0,1,31.21-13a1.724,1.724,0,0,1,1.187-.4,1.724,1.724,0,0,1,1.187.4,1.322,1.322,0,0,1,.457,1.037,1.322,1.322,0,0,1-.457,1.037,1.724,1.724,0,0,1-1.187.4,1.724,1.724,0,0,1-1.187-.4A1.322,1.322,0,0,1,30.753-11.962Zm4.6,7.119A5.613,5.613,0,0,1,35.9-7.378a3.96,3.96,0,0,1,1.591-1.709,4.791,4.791,0,0,1,2.435-.6,4.373,4.373,0,0,1,3.366,1.323,5.076,5.076,0,0,1,1.23,3.6v.105a4.925,4.925,0,0,1-1.235,3.529A4.384,4.384,0,0,1,39.946.176a4.434,4.434,0,0,1-3.261-1.217,4.761,4.761,0,0,1-1.327-3.3Zm2.962.185a3.538,3.538,0,0,0,.413,1.934,1.376,1.376,0,0,0,1.222.615q1.582,0,1.617-2.435v-.3q0-2.558-1.635-2.558-1.485,0-1.608,2.206ZM40.333-13.5h3.129l-2.443,2.76-2.417,0Zm8.218,3.99.1,1.116a3.225,3.225,0,0,1,2.716-1.292,2.713,2.713,0,0,1,2.219.888,4.226,4.226,0,0,1,.76,2.672V0H51.372V-6a1.6,1.6,0,0,0-.29-1.059A1.342,1.342,0,0,0,50.027-7.4a1.413,1.413,0,0,0-1.292.686V0H45.773V-9.51Z" transform="translate(403.397 7034.479)" fill="#12263f"/>
          <g id="Grupo_1072579" data-name="Grupo 1072579" transform="translate(379.423 6912.069)">
            <g id="Grupo_1072567" data-name="Grupo 1072567" clip-path="url(#clip-path-4)">
              <path id="Trazado_610248" data-name="Trazado 610248" d="M52.542,87.487H18.82q-8.046,0-16.092-.007c-.38,0-.762,0-1.139-.036a1.658,1.658,0,0,1-1.4-2.428c.565-1.154,1.32-2.2,1.995-3.294q9.95-16.091,19.908-32.176a8.746,8.746,0,0,1,14.575-1.007c.4.492.387.5.724-.034,2.524-3.966,5.061-7.923,7.568-11.9a9.267,9.267,0,0,1,5.483-4.093c.294-.084.354-.21.346-.483-.107-3.622-.014-7.245-.046-10.868-.049-5.346,0-10.694.016-16.041,0-1.6.428-2.092,1.965-2.538,1.385-.4,2.74-.908,4.114-1.349A20.859,20.859,0,0,1,61.081.047a8.78,8.78,0,0,1,6.076,1.641Q69.188,3.1,71.236,4.494a5.38,5.38,0,0,0,5.078.688c2.367-.828,4.762-1.572,7.145-2.354A1.7,1.7,0,0,1,85.7,4.217a8.208,8.208,0,0,1,.069,1.18q.005,7.562,0,15.123c0,.526-.02,1.052-.052,1.577A1.566,1.566,0,0,1,84.6,23.573c-2.58.879-5.179,1.7-7.777,2.528a8.365,8.365,0,0,1-7.451-1.252c-1.318-.866-2.628-1.749-3.9-2.686a5.961,5.961,0,0,0-5.852-.759c-1.681.58-3.375,1.124-5.071,1.655-.328.1-.343.3-.342.555q.006,3.967.007,7.934c0,.825-.006.847.753,1.089a9.819,9.819,0,0,1,5.423,4.519c2.359,3.811,4.8,7.573,7.2,11.355.055.086.115.169.174.252.133.187.215.254.4,0a8.743,8.743,0,0,1,14.7.728q3.437,5.547,6.861,11.1,7.45,12.024,14.908,24.044a1.866,1.866,0,0,1,.149,1.953,1.755,1.755,0,0,1-1.731.889q-6.249-.008-12.5,0H52.542ZM18.871,83.966h67.2c-.4-.781-.9-1.5-1.368-2.232Q74.156,65.169,63.608,48.6q-3.292-5.171-6.581-10.345a5.311,5.311,0,0,0-9.043,0c-1.506,2.329-2.983,4.676-4.472,7.015Q38.08,53.8,32.647,62.336,27.225,70.85,21.8,79.361c-.963,1.511-1.923,3.022-2.93,4.6M82.288,13.821h0q0-3.309,0-6.617c0-.177.051-.382-.257-.281-1.246.407-2.494.808-3.741,1.214a12.833,12.833,0,0,1-3.609.844,8.851,8.851,0,0,1-5.272-1.61c-1.4-.947-2.792-1.918-4.19-2.875a5.845,5.845,0,0,0-1.467-.771,6.71,6.71,0,0,0-4.452.282c-1.526.536-3.07,1.022-4.616,1.5-.354.109-.485.251-.484.628.016,4.28.014,8.561.018,12.841,0,.117,0,.234,0,.351,0,.2.05.289.287.207,1.42-.487,2.85-.945,4.267-1.439a8.666,8.666,0,0,1,7.962.846c1.542,1,3.033,2.083,4.56,3.109a5.275,5.275,0,0,0,4.917.678c1.915-.662,3.847-1.273,5.777-1.891.248-.079.3-.2.3-.438-.009-2.191-.005-4.382-.005-6.573m17.9,70.216c-.176-.31-.338-.615-.519-.908Q89.766,67.123,79.858,51.117a5.289,5.289,0,0,0-6.229-2.338,5.62,5.62,0,0,0-3.2,2.7,1.208,1.208,0,0,0,0,1.521q5.022,7.807,9.989,15.648,4.5,7.073,9,14.149c.788,1.241.778,1.225,2.272,1.208,2.815-.032,5.631-.056,8.494.029M9.883,84v.02c1.5,0,3.01-.007,4.515.006a.617.617,0,0,0,.6-.336q2.705-4.272,5.429-8.533,6.928-10.876,13.85-21.754c.833-1.311.9-.868,0-2.321a5.2,5.2,0,0,0-5.734-2.422,5.268,5.268,0,0,0-3.574,2.725q-5.912,9.573-11.843,19.135Q9.043,77.11,4.954,83.693c-.14.225-.055.279.151.3.1.009.2.012.306.012H9.883" transform="translate(0 0)" fill="#76becc"/>
            </g>
          </g>
          <path id="Trazado_610600" data-name="Trazado 610600" d="M5.933-3.48,8.481-12.8h3.445L7.62,0H4.245L-.026-12.8H3.393ZM15.847,0H12.876V-9.51h2.971ZM12.7-11.962A1.322,1.322,0,0,1,13.157-13a1.724,1.724,0,0,1,1.187-.4,1.724,1.724,0,0,1,1.187.4,1.322,1.322,0,0,1,.457,1.037,1.322,1.322,0,0,1-.457,1.037,1.724,1.724,0,0,1-1.187.4,1.724,1.724,0,0,1-1.187-.4A1.322,1.322,0,0,1,12.7-11.962Zm9.949,9.29a.684.684,0,0,0-.4-.606,6.016,6.016,0,0,0-1.5-.475A6.853,6.853,0,0,1,18.923-4.4a3.062,3.062,0,0,1-1.1-.971,2.319,2.319,0,0,1-.378-1.31,2.628,2.628,0,0,1,1.081-2.158,4.453,4.453,0,0,1,2.83-.848,4.934,4.934,0,0,1,3.023.853,2.666,2.666,0,0,1,1.143,2.241H22.553q0-1.143-1.2-1.143a1.194,1.194,0,0,0-.782.259.8.8,0,0,0-.316.646.737.737,0,0,0,.387.642,3.654,3.654,0,0,0,1.235.4,10.671,10.671,0,0,1,1.49.378A2.706,2.706,0,0,1,25.506-2.76,2.491,2.491,0,0,1,24.35-.642a5.068,5.068,0,0,1-2.993.817,5.172,5.172,0,0,1-2.18-.439,3.645,3.645,0,0,1-1.494-1.2,2.707,2.707,0,0,1-.536-1.591h2.769a1.145,1.145,0,0,0,.439.962,1.808,1.808,0,0,0,1.081.3,1.422,1.422,0,0,0,.91-.246A.787.787,0,0,0,22.649-2.672ZM30.015,0H27.044V-9.51h2.971ZM26.868-11.962A1.322,1.322,0,0,1,27.325-13a1.724,1.724,0,0,1,1.187-.4A1.724,1.724,0,0,1,29.7-13a1.322,1.322,0,0,1,.457,1.037,1.322,1.322,0,0,1-.457,1.037,1.724,1.724,0,0,1-1.187.4,1.724,1.724,0,0,1-1.187-.4A1.322,1.322,0,0,1,26.868-11.962Zm4.6,7.119a5.613,5.613,0,0,1,.554-2.536,3.96,3.96,0,0,1,1.591-1.709,4.791,4.791,0,0,1,2.435-.6A4.373,4.373,0,0,1,39.41-8.363a5.076,5.076,0,0,1,1.23,3.6v.105a4.925,4.925,0,0,1-1.235,3.529A4.384,4.384,0,0,1,36.062.176,4.434,4.434,0,0,1,32.8-1.042a4.761,4.761,0,0,1-1.327-3.3Zm2.962.185a3.538,3.538,0,0,0,.413,1.934,1.376,1.376,0,0,0,1.222.615q1.582,0,1.617-2.435v-.3q0-2.558-1.635-2.558-1.485,0-1.608,2.206ZM36.448-13.5h3.129l-2.443,2.76-2.417,0Zm8.218,3.99.1,1.116a3.225,3.225,0,0,1,2.716-1.292A2.713,2.713,0,0,1,49.7-8.8a4.226,4.226,0,0,1,.76,2.672V0H47.487V-6a1.6,1.6,0,0,0-.29-1.059A1.342,1.342,0,0,0,46.143-7.4a1.413,1.413,0,0,0-1.292.686V0H41.889V-9.51Z" transform="translate(405.397 7313.331)" fill="#12263f"/>
          <g id="Grupo_1072581" data-name="Grupo 1072581" transform="translate(381.758 7190.134)">
            <g id="Grupo_1072569" data-name="Grupo 1072569" clip-path="url(#clip-path-5)">
              <path id="Trazado_610249" data-name="Trazado 610249" d="M51.019,13.167q0,5.461,0,10.922a2.882,2.882,0,0,1-.119.926,1.785,1.785,0,0,1-1.792,1.306A25.581,25.581,0,0,0,42.015,27.4,22.362,22.362,0,0,0,28.235,40.13a23.206,23.206,0,0,0-1.873,8.045,22.751,22.751,0,0,0,13.06,21.809,22.27,22.27,0,0,0,7.662,2A21.256,21.256,0,0,0,55.747,71,22.965,22.965,0,0,0,70.37,57.649a21.429,21.429,0,0,0,1.5-6.186c.09-.863.1-1.731.22-2.588A1.6,1.6,0,0,1,73.509,47.4a4.143,4.143,0,0,1,.8-.077q10.773-.009,21.546-.012a2.4,2.4,0,0,1,1.933.711,1.847,1.847,0,0,1-.962,3.049,3.919,3.919,0,0,1-.933.073q-3.349,0-6.7,0c-.924,0-1.042.162-1.143,1.076A47.048,47.048,0,0,1,87.023,58.3a39.4,39.4,0,0,1-9.1,17.224A38.856,38.856,0,0,1,67.049,84a36.671,36.671,0,0,1-7.615,3.037c-.4.106-.784.251-1.181.359a1.739,1.739,0,0,1-2.084-.974,1.816,1.816,0,0,1,.576-2.382,2.383,2.383,0,0,1,.774-.347,33.836,33.836,0,0,0,9.494-3.9A35.48,35.48,0,0,0,78.526,68.766a33.786,33.786,0,0,0,3.731-7.446,32.676,32.676,0,0,0,1.931-8.962c.066-1.151-.059-1.3-1.2-1.3-1.949-.008-3.9,0-5.845,0a4.843,4.843,0,0,0-.638.033c-.636.086-.806.29-.894.934C74.365,61.06,69.877,67.935,61.943,72.5a25.133,25.133,0,0,1-7.221,2.725,22.356,22.356,0,0,1-2.894.491c-.567.048-.775.27-.8.851s-.02,1.166-.019,1.749q.007,8.981.016,17.963a1.959,1.959,0,0,1-2,2.068,1.926,1.926,0,0,1-1.674-1.528,4.5,4.5,0,0,1-.062-.934c0-2.062.015-4.124.005-6.187,0-1.044-.164-1.257-1.213-1.351a35.986,35.986,0,0,1-5.542-.913A39.07,39.07,0,0,1,17.776,72.161a38.674,38.674,0,0,1-5.1-9.7,30.2,30.2,0,0,1-1.261-4.373,1.838,1.838,0,0,1,1.356-2.076,1.778,1.778,0,0,1,2.075,1.069c.385.935.537,1.938.838,2.9A35.319,35.319,0,0,0,41.53,83.837c1.569.365,3.177.431,4.749.755a.871.871,0,0,0,1.008-.884q.013-3.52-.005-7.039c0-.74-.179-.93-.932-.988a22.887,22.887,0,0,1-4.743-.988A26.526,26.526,0,0,1,23.568,56.266a30.671,30.671,0,0,1-.857-4.168c-.11-.807-.269-.953-1.106-.955q-4.928-.008-9.856,0-4.629,0-9.258,0a4.632,4.632,0,0,1-.806-.063A2.023,2.023,0,0,1,0,49.155a2.049,2.049,0,0,1,1.773-1.846,8.483,8.483,0,0,1,1.063-.062c2.076,0,4.153,0,6.229,0,1.064,0,1.22-.143,1.357-1.191.193-1.479.274-2.97.58-4.435a43.194,43.194,0,0,1,2.548-8.33,39.6,39.6,0,0,1,9-12.977,39.075,39.075,0,0,1,11.259-7.58,31.986,31.986,0,0,1,5.607-1.992,1.769,1.769,0,0,1,2.07,1.043,1.861,1.861,0,0,1-.532,2.233,4.333,4.333,0,0,1-1.4.6A34.887,34.887,0,0,0,20.062,28.911,34.392,34.392,0,0,0,16,37.091a33.794,33.794,0,0,0-1.5,6.242c-.141.987-.233,1.975-.31,2.965-.055.716.175,1,.878,1q3.263.023,6.527,0c.772-.007,1-.282,1.109-1.06A26.713,26.713,0,0,1,32.59,28.4a25.972,25.972,0,0,1,10.017-5.013,21.952,21.952,0,0,1,3.887-.737c.5-.035.7-.25.769-.752a6.538,6.538,0,0,0,.036-.852q0-9.451-.01-18.9a2.173,2.173,0,0,1,.569-1.6,1.823,1.823,0,0,1,3.086.941,3.18,3.18,0,0,1,.071.719q.007,5.483,0,10.965" transform="translate(0 0)" fill="#615842"/>
              <path id="Trazado_610250" data-name="Trazado 610250" d="M162.453,49.694c-1.28,0-2.559.011-3.839-.049a2.451,2.451,0,0,0-1.987.765q-7.4,7.506-14.838,14.967a8.231,8.231,0,0,1-.822.743,1.627,1.627,0,0,1-2.142-.139,1.685,1.685,0,0,1-.484-2.208,5.23,5.23,0,0,1,.9-1.075c3.614-3.645,7.247-7.273,10.837-10.943,1.462-1.494,2.957-2.954,4.439-4.428a1.22,1.22,0,0,0,.367-.95c-.014-2.687-.008-5.375-.012-8.063a2.951,2.951,0,0,1,.889-2.255c4.337-4.291,8.641-8.615,12.958-12.926a1.8,1.8,0,0,1,2.232-.5,1.9,1.9,0,0,1,1.123,1.773c.022,2.36.008,4.721.009,7.082,0,.66.2.9.854.981a4.729,4.729,0,0,0,.6.031q3.093,0,6.186-.007a2.739,2.739,0,0,1,1.4.3,1.824,1.824,0,0,1,.418,2.935c-4.491,4.438-8.916,8.941-13.444,13.341a2.257,2.257,0,0,1-1.629.618c-1.337.014-2.673,0-4.01.006m.132-3.745v0c.754,0,1.511-.042,2.261.012a2.078,2.078,0,0,0,1.86-.753c2.035-2.184,4.162-4.283,6.3-6.367a9.949,9.949,0,0,0,1.131-1.217.8.8,0,0,0,.073-.842.834.834,0,0,0-.891-.509c-1.023-.006-2.051.025-3.069-.049a2.057,2.057,0,0,1-2.078-2.268c-.009-.953-.022-1.906,0-2.858.01-.5-.318-.691-.674-.885a.737.737,0,0,0-.892.178,20.473,20.473,0,0,0-1.522,1.492q-3.055,3.128-6.113,6.254c-.217.223-.482.443-.488.778-.043,2.06-.084,4.122.024,6.181.032.607.382.85,1.01.856,1.024.01,2.048,0,3.072,0" transform="translate(-90.841 -14.752)" fill="#615842"/>
              <path id="Trazado_610251" data-name="Trazado 610251" d="M97.6,114.695c.02-5.864,1.874-9.874,5.488-13.073a16.089,16.089,0,0,1,7.979-3.7,9.653,9.653,0,0,1,2.254-.118,1.874,1.874,0,0,1,1.72,1.8,1.908,1.908,0,0,1-1.816,1.858,17.515,17.515,0,0,0-2.579.309A12.012,12.012,0,0,0,101.8,116.9a11.266,11.266,0,0,0,8.254,8.165,11.544,11.544,0,0,0,11.428-2.645,12.028,12.028,0,0,0,3.034-4.724,20.5,20.5,0,0,0,.863-4.506,1.8,1.8,0,0,1,1.356-1.585,1.755,1.755,0,0,1,1.979.639,1.346,1.346,0,0,1,.337.853,15.384,15.384,0,0,1-7.886,14.075,14.6,14.6,0,0,1-8.691,2.059,15.288,15.288,0,0,1-12.359-7.193,13.55,13.55,0,0,1-2.515-7.347" transform="translate(-64.192 -64.32)" fill="#615842"/>
            </g>
          </g>
          <path id="Trazado_610601" data-name="Trazado 610601" d="M11.654,0H8.587L4.052-7.963V0H.967V-12.8H4.052L8.578-4.834V-12.8h3.076ZM13.1-4.843a5.613,5.613,0,0,1,.554-2.536A3.96,3.96,0,0,1,15.24-9.088a4.791,4.791,0,0,1,2.435-.6,4.373,4.373,0,0,1,3.366,1.323,5.076,5.076,0,0,1,1.23,3.6v.105a4.925,4.925,0,0,1-1.235,3.529A4.384,4.384,0,0,1,17.692.176a4.434,4.434,0,0,1-3.261-1.217,4.761,4.761,0,0,1-1.327-3.3Zm2.962.185a3.538,3.538,0,0,0,.413,1.934,1.376,1.376,0,0,0,1.222.615q1.582,0,1.617-2.435v-.3q0-2.558-1.635-2.558-1.485,0-1.608,2.206ZM29.329-6.829l-.976-.07a1.752,1.752,0,0,0-1.793.879V0H23.6V-9.51h2.777l.1,1.222a2.294,2.294,0,0,1,2.083-1.4,2.888,2.888,0,0,1,.826.105Zm4.957-5.045V-9.51h1.564v2.057H34.286V-3.1a1.111,1.111,0,0,0,.193.747,1.037,1.037,0,0,0,.765.211,4.345,4.345,0,0,0,.738-.053V-.079a5.466,5.466,0,0,1-1.67.255,3.1,3.1,0,0,1-2.259-.721,2.954,2.954,0,0,1-.729-2.188v-4.72H30.111V-9.51h1.213v-2.364ZM41.616.176a4.889,4.889,0,0,1-3.542-1.305,4.507,4.507,0,0,1-1.354-3.4v-.246a5.84,5.84,0,0,1,.541-2.575,3.955,3.955,0,0,1,1.578-1.727A4.763,4.763,0,0,1,41.3-9.686a4.117,4.117,0,0,1,3.164,1.244,4.887,4.887,0,0,1,1.16,3.467v1.151H39.735a2.135,2.135,0,0,0,.694,1.257,2.066,2.066,0,0,0,1.389.457,2.662,2.662,0,0,0,2.2-.984l1.354,1.6A3.784,3.784,0,0,1,43.8-.277,5.3,5.3,0,0,1,41.616.176ZM41.282-7.4q-1.3,0-1.547,1.723h2.988v-.229a1.467,1.467,0,0,0-.36-1.1A1.434,1.434,0,0,0,41.282-7.4Z" transform="translate(408.331 7599.17)" fill="#12263f"/>
          <g id="Grupo_1072583" data-name="Grupo 1072583" transform="translate(379.924 7466.966)">
            <g id="Grupo_1072571" data-name="Grupo 1072571" clip-path="url(#clip-path-6)">
              <path id="Trazado_610252" data-name="Trazado 610252" d="M64.954,25.7c-.681-.692-1.294-1.34-1.936-1.957-.224-.215-.269-.321-.015-.557.636-.594,1.245-1.218,1.846-1.849.213-.223.33-.253.566-.008,1.322,1.363,2.67,2.7,4,4.059a.944.944,0,0,0,.747.32c1.271-.018,2.543-.012,3.814,0,.247,0,.388-.031.413-.334A27.006,27.006,0,0,1,84.638,6,26.109,26.109,0,0,1,93.05,1.428,26.928,26.928,0,0,1,112.984,2.5a27.435,27.435,0,0,1,12.755,11.931,27,27,0,0,1,3.114,16.243,27.366,27.366,0,0,1-7.787,16.023A27.561,27.561,0,0,1,100.78,54.81a27.554,27.554,0,0,1-25.657-20.7,22.636,22.636,0,0,1-.74-4.638c-.012-.284-.125-.353-.393-.351q-1.971.018-3.943,0a.711.711,0,0,0-.557.244c-1.355,1.372-2.724,2.73-4.076,4.1-.215.219-.342.211-.549,0-.617-.635-1.249-1.256-1.888-1.868-.2-.188-.224-.292,0-.5.654-.609,1.276-1.252,1.977-1.947-.24-.011-.389-.024-.538-.025-2.186,0-4.372-.026-6.557,0a14.281,14.281,0,0,0-12.325,6.836,12.72,12.72,0,0,0-1.861,4.525,15.287,15.287,0,0,0-.1,5.79,14.36,14.36,0,0,0,6.03,9.4,13.838,13.838,0,0,0,5.135,2.257,15.642,15.642,0,0,0,3.321.314c6.171.011,12.343,0,18.514.011a.911.911,0,0,0,.715-.291c1.343-1.364,2.7-2.71,4.046-4.074.186-.188.293-.2.48-.011q.947.961,1.924,1.892c.209.2.188.332-.012.522-.6.571-1.185,1.157-1.775,1.739-.047.046-.123.081-.1.181a.911.911,0,0,0,.449.034q15.836,0,31.672,0a12.836,12.836,0,0,1,6.059,24.4,14.079,14.079,0,0,1-6.01,1.3c-4.9.016-9.8.008-14.7,0a.942.942,0,0,0-.748.3c-1.329,1.357-2.683,2.69-4.014,4.045-.219.223-.342.2-.547-.008-.626-.645-1.268-1.277-1.915-1.9-.178-.172-.173-.265.008-.44.646-.623,1.271-1.269,1.923-1.925a.713.713,0,0,0-.486-.068q-12.814,0-25.629,0c-.556,0-.556,0-.556-.574,0-.814.017-1.629-.009-2.442-.01-.34.091-.423.425-.422q7.714.016,15.429.008,5.229,0,10.457,0a.605.605,0,0,0,.39-.052c-.633-.642-1.247-1.289-1.891-1.9-.229-.218-.258-.325-.01-.557.646-.6,1.266-1.239,1.878-1.879.195-.2.3-.209.5,0,1.347,1.38,2.711,2.742,4.062,4.118a.863.863,0,0,0,.674.285c5.129-.008,10.257,0,15.386-.007a9.236,9.236,0,0,0,8.653-5.966,9.457,9.457,0,0,0-4.584-11.944,9.155,9.155,0,0,0-4.224-.933q-16.157-.019-32.314-.006c-.109,0-.218.011-.38.019.355.362.668.684.984,1s.637.657.975.964c.2.183.182.307,0,.486-.663.65-1.322,1.3-1.966,1.972-.2.2-.3.111-.445-.041-1.1-1.123-2.249-2.2-3.292-3.371a2.994,2.994,0,0,0-2.515-1.059c-5.771.057-11.542.03-17.314.026a18.1,18.1,0,0,1-16.914-11.2,15.929,15.929,0,0,1-1.283-5.3,17.663,17.663,0,0,1,7.8-16.3A16.908,16.908,0,0,1,54.851,26a23.293,23.293,0,0,1,3.968-.3c1.871-.005,3.743,0,5.615,0h.519m15.391,3.431c-.771,0-1.543.008-2.314,0-.251,0-.311.078-.294.323a21.879,21.879,0,0,0,.885,4.827A24.045,24.045,0,0,0,84.3,44.019a23.617,23.617,0,0,0,10.422,6.408,24.414,24.414,0,0,0,8.983.88,22.354,22.354,0,0,0,5.036-.925A23.753,23.753,0,0,0,118.808,44.2a23.206,23.206,0,0,0,6.667-14.055,24.436,24.436,0,0,0-1.041-10.35,23.47,23.47,0,0,0-7.486-10.9,23,23,0,0,0-12.409-5.289,24.24,24.24,0,0,0-10.76,1.1A24.028,24.028,0,0,0,77.742,25.343c-.028.309.071.359.339.357q2.25-.012,4.5,0c.279,0,.359-.095.387-.364a16.526,16.526,0,0,1,.411-2.443,18.8,18.8,0,0,1,4.735-8.5,18.627,18.627,0,0,1,13.714-5.824,16.693,16.693,0,0,1,7.067,1.5A18.676,18.676,0,0,1,120.272,24.8a16.516,16.516,0,0,1-.855,8.759c-2.845,7.4-8.247,11.656-16.147,12.6a16.757,16.757,0,0,1-9.522-1.7A18.547,18.547,0,0,1,82.964,29.482c-.036-.269-.114-.367-.391-.361-.742.016-1.485.006-2.228.006m17.192.028c-.213-.014-.321-.027-.429-.027H86.693c-.057,0-.114,0-.171,0-.171-.008-.224.069-.2.236.069.437.1.883.2,1.312a15.358,15.358,0,0,0,2.206,5.207,15.574,15.574,0,0,0,19.178,5.663,15.114,15.114,0,0,0,8.942-11.412,15.453,15.453,0,0,0-.09-6,14.613,14.613,0,0,0-2.943-6.253,15.572,15.572,0,0,0-18.7-4.461,15.13,15.13,0,0,0-8.748,11.84c-.059.384.02.449.382.448,3.443-.012,6.885-.007,10.328-.011.131,0,.281.058.373-.031-.647-.672-1.283-1.344-1.936-2-.156-.157-.185-.234-.01-.4q.986-.952,1.937-1.941c.2-.212.316-.227.534,0q2.279,2.326,4.587,4.623a1.78,1.78,0,0,1,.079,2.869c-1.544,1.587-3.131,3.131-4.69,4.7-.2.2-.312.16-.486-.016-.632-.641-1.269-1.276-1.92-1.9-.209-.2-.2-.3.015-.5.652-.608,1.277-1.246,1.979-1.939" transform="translate(-26.244 0)" fill="#4e5662"/>
              <path id="Trazado_610253" data-name="Trazado 610253" d="M.041,219.05a2.743,2.743,0,0,1,.307-1.192c1.4-3.274,2.778-6.56,4.243-9.806a1.252,1.252,0,0,0-.187-1.524c-1.293-1.652-2.537-3.343-3.806-5.013A1.845,1.845,0,0,1,.6,198.792c1.392-1.828,2.763-3.672,4.153-5.5a.487.487,0,0,0,.038-.6c-.517-1.111-1-2.237-1.485-3.362q-1.484-3.434-2.958-6.872a3.271,3.271,0,0,1-.307-1.018,1.6,1.6,0,0,1,2.163-1.694,15.249,15.249,0,0,1,2.234,1.166q7.427,4.075,14.846,8.164,8.548,4.7,17.1,9.4a2.5,2.5,0,0,1,.92.682,1.645,1.645,0,0,1-.51,2.442c-1.609.921-3.24,1.8-4.864,2.7-1.887,1.037-3.78,2.064-5.667,3.1q-5.324,2.926-10.644,5.857-6.129,3.371-12.259,6.739a6.046,6.046,0,0,1-1.222.607,1.607,1.607,0,0,1-2.1-1.547m28.4-18.856c0-.029,0-.057.005-.085-.157-.042-.312-.09-.47-.126q-2.391-.56-4.783-1.117c-2.123-.491-4.255-.95-6.37-1.475-2.212-.549-4.435-1.052-6.653-1.577-.776-.184-1.55-.375-2.324-.564a.475.475,0,0,0-.562.182Q5.63,197.672,3.96,199.9a.364.364,0,0,0,0,.522q1.664,2.2,3.306,4.423a.487.487,0,0,0,.571.225c.977-.2,1.936-.475,2.909-.694,2.973-.669,5.931-1.408,8.9-2.106,2.7-.636,5.413-1.252,8.119-1.88.229-.053.452-.129.678-.194m-4.294,4.644a2.381,2.381,0,0,0-1.025.086c-3.457.8-6.918,1.577-10.364,2.42-1.37.335-2.76.584-4.113.991-.365.11-.677.154-.847.581-.526,1.324-1.1,2.629-1.659,3.94-.262.616-.531,1.229-.8,1.844-.047.108-.1.241-.014.322.106.1.2-.042.294-.088q.364-.18.721-.375,7.724-4.248,15.448-8.5a22.122,22.122,0,0,1,2.357-1.224m-.036-9.27a2.819,2.819,0,0,0-.785-.463q-4.253-2.339-8.506-4.679-4.517-2.481-9.038-4.956c-.152-.084-.347-.284-.484-.149s.055.338.125.5c.785,1.834,1.587,3.659,2.346,5.5a.908.908,0,0,0,.721.615c2.025.472,4.044.972,6.067,1.452,2.424.575,4.853,1.133,7.276,1.714.715.172,1.433.3,2.277.46" transform="translate(0 -117.899)" fill="#4e5662"/>
              <path id="Trazado_610254" data-name="Trazado 610254" d="M219.365,68.7c0-.457.012-.914,0-1.37-.01-.262.084-.33.342-.346a6.509,6.509,0,0,0,6.015-4.225,6.813,6.813,0,0,0-3.108-8.7,6.385,6.385,0,0,0-2.949-.767c-.258-.006-.3-.1-.3-.327.01-.928.005-1.856,0-2.784,0-.18-.015-.334.261-.313a10.615,10.615,0,0,1,5.208,1.624,10.237,10.237,0,0,1-1.11,17.923,12.031,12.031,0,0,1-4.132.993c-.227.02-.225-.1-.225-.249,0-.485,0-.971,0-1.456Z" transform="translate(-143.966 -32.727)" fill="#4e5662"/>
            </g>
          </g>
        </g>
      </g>
    </g>
  </g>
</svg>
