<svg xmlns="http://www.w3.org/2000/svg" xmlns:xlink="http://www.w3.org/1999/xlink" width="1030" height="247.5" viewBox="0 0 1030 247.5">
  <defs>
    <clipPath id="clip-path">
      <rect id="Rectángulo_377983" data-name="Rectángulo 377983" width="140.942" height="247" fill="#c3d7f5"/>
    </clipPath>
    <clipPath id="clip-path-2">
      <rect id="Rectángulo_377983-2" data-name="Rectángulo 377983" width="140.942" height="247" fill="#94eeff"/>
    </clipPath>
    <clipPath id="clip-path-3">
      <rect id="Rectángulo_377983-3" data-name="Rectángulo 377983" width="140.942" height="247" fill="#ffe7af"/>
    </clipPath>
    <clipPath id="clip-path-4">
      <rect id="Rectángulo_377987" data-name="Rectángulo 377987" width="92.083" height="76.725" fill="#76becc"/>
    </clipPath>
    <clipPath id="clip-path-5">
      <rect id="Rectángulo_377988" data-name="Rectángulo 377988" width="79.593" height="79.647" fill="#615842"/>
    </clipPath>
    <clipPath id="clip-path-6">
      <rect id="Rectángulo_377989" data-name="Rectángulo 377989" width="82.814" height="82.777" fill="#4e5662"/>
    </clipPath>
  </defs>
  <g id="Grupo_1072573" data-name="Grupo 1072573" transform="translate(-285 -6044)">
    <g id="Grupo_1072566" data-name="Grupo 1072566" transform="translate(854.094 6044)">
      <rect id="Rectángulo_377982" data-name="Rectángulo 377982" width="77.757" height="77.757" transform="translate(35.943 123.5) rotate(-45)" fill="#c3d7f5"/>
      <g id="Grupo_1072563" data-name="Grupo 1072563">
        <g id="Grupo_1072562" data-name="Grupo 1072562" clip-path="url(#clip-path)">
          <path id="Trazado_610247" data-name="Trazado 610247" d="M0,0V247A123.5,123.5,0,0,0,123.5,123.5,123.5,123.5,0,0,0,0,0" fill="#c3d7f5"/>
        </g>
      </g>
    </g>
    <circle id="Elipse_5899" data-name="Elipse 5899" cx="95" cy="95" r="95" transform="translate(772.057 6073)" fill="#e7effb"/>
    <rect id="Rectángulo_377984" data-name="Rectángulo 377984" width="295" height="125" rx="33" transform="translate(1020 6106)" fill="#ffe7af"/>
    <rect id="Rectángulo_377985" data-name="Rectángulo 377985" width="74" height="33" transform="translate(475 6151)" fill="#94eeff"/>
    <rect id="Rectángulo_377986" data-name="Rectángulo 377986" width="74" height="33" transform="translate(705 6151)" fill="#ffe7af"/>
    <g id="Grupo_1072564" data-name="Grupo 1072564" transform="translate(372 6044.5)">
      <g id="Grupo_1072563-2" data-name="Grupo 1072563">
        <g id="Grupo_1072562-2" data-name="Grupo 1072562" clip-path="url(#clip-path-2)">
          <path id="Trazado_610247-2" data-name="Trazado 610247" d="M0,0V247A123.5,123.5,0,0,0,123.5,123.5,123.5,123.5,0,0,0,0,0" fill="#94eeff"/>
        </g>
      </g>
    </g>
    <circle id="Elipse_5897" data-name="Elipse 5897" cx="95" cy="95" r="95" transform="translate(285 6073)" fill="#dffaff"/>
    <g id="Grupo_1072565" data-name="Grupo 1072565" transform="translate(624.029 6044)">
      <g id="Grupo_1072563-3" data-name="Grupo 1072563">
        <g id="Grupo_1072562-3" data-name="Grupo 1072562" clip-path="url(#clip-path-3)">
          <path id="Trazado_610247-3" data-name="Trazado 610247" d="M0,0V247A123.5,123.5,0,0,0,123.5,123.5,123.5,123.5,0,0,0,0,0" fill="#ffe7af"/>
        </g>
      </g>
    </g>
    <circle id="Elipse_5898" data-name="Elipse 5898" cx="95" cy="95" r="95" transform="translate(537.029 6072.5)" fill="#fff8e7"/>
    <path id="Trazado_610598" data-name="Trazado 610598" d="M5.019-12.8l2.856,8.9,2.848-8.9h4.061V0H11.689V-2.988l.3-6.117L8.895,0H6.855l-3.1-9.114.3,6.126V0H.967V-12.8ZM19.731,0H16.761V-9.51h2.971ZM16.585-11.962A1.322,1.322,0,0,1,17.042-13a1.724,1.724,0,0,1,1.187-.4,1.724,1.724,0,0,1,1.187.4,1.322,1.322,0,0,1,.457,1.037,1.322,1.322,0,0,1-.457,1.037,1.724,1.724,0,0,1-1.187.4,1.724,1.724,0,0,1-1.187-.4A1.322,1.322,0,0,1,16.585-11.962Zm9.949,9.29a.684.684,0,0,0-.4-.606,6.016,6.016,0,0,0-1.5-.475A6.853,6.853,0,0,1,22.808-4.4a3.062,3.062,0,0,1-1.1-.971,2.319,2.319,0,0,1-.378-1.31,2.628,2.628,0,0,1,1.081-2.158,4.453,4.453,0,0,1,2.83-.848,4.934,4.934,0,0,1,3.023.853,2.666,2.666,0,0,1,1.143,2.241H26.438q0-1.143-1.2-1.143a1.194,1.194,0,0,0-.782.259.8.8,0,0,0-.316.646.737.737,0,0,0,.387.642,3.654,3.654,0,0,0,1.235.4,10.671,10.671,0,0,1,1.49.378A2.706,2.706,0,0,1,29.391-2.76,2.491,2.491,0,0,1,28.235-.642a5.068,5.068,0,0,1-2.993.817,5.172,5.172,0,0,1-2.18-.439,3.645,3.645,0,0,1-1.494-1.2,2.707,2.707,0,0,1-.536-1.591H23.8a1.145,1.145,0,0,0,.439.962,1.808,1.808,0,0,0,1.081.3,1.422,1.422,0,0,0,.91-.246A.787.787,0,0,0,26.534-2.672ZM33.9,0H30.929V-9.51H33.9ZM30.753-11.962A1.322,1.322,0,0,1,31.21-13a1.724,1.724,0,0,1,1.187-.4,1.724,1.724,0,0,1,1.187.4,1.322,1.322,0,0,1,.457,1.037,1.322,1.322,0,0,1-.457,1.037,1.724,1.724,0,0,1-1.187.4,1.724,1.724,0,0,1-1.187-.4A1.322,1.322,0,0,1,30.753-11.962Zm4.6,7.119A5.613,5.613,0,0,1,35.9-7.378a3.96,3.96,0,0,1,1.591-1.709,4.791,4.791,0,0,1,2.435-.6,4.373,4.373,0,0,1,3.366,1.323,5.076,5.076,0,0,1,1.23,3.6v.105a4.925,4.925,0,0,1-1.235,3.529A4.384,4.384,0,0,1,39.946.176a4.434,4.434,0,0,1-3.261-1.217,4.761,4.761,0,0,1-1.327-3.3Zm2.962.185a3.538,3.538,0,0,0,.413,1.934,1.376,1.376,0,0,0,1.222.615q1.582,0,1.617-2.435v-.3q0-2.558-1.635-2.558-1.485,0-1.608,2.206ZM40.333-13.5h3.129l-2.443,2.76-2.417,0Zm8.218,3.99.1,1.116a3.225,3.225,0,0,1,2.716-1.292,2.713,2.713,0,0,1,2.219.888,4.226,4.226,0,0,1,.76,2.672V0H51.372V-6a1.6,1.6,0,0,0-.29-1.059A1.342,1.342,0,0,0,50.027-7.4a1.413,1.413,0,0,0-1.292.686V0H45.773V-9.51Z" transform="translate(353 6209)" fill="#12263f"/>
    <path id="Trazado_610597" data-name="Trazado 610597" d="M5.933-3.48,8.481-12.8h3.445L7.62,0H4.245L-.026-12.8H3.393ZM15.847,0H12.876V-9.51h2.971ZM12.7-11.962A1.322,1.322,0,0,1,13.157-13a1.724,1.724,0,0,1,1.187-.4,1.724,1.724,0,0,1,1.187.4,1.322,1.322,0,0,1,.457,1.037,1.322,1.322,0,0,1-.457,1.037,1.724,1.724,0,0,1-1.187.4,1.724,1.724,0,0,1-1.187-.4A1.322,1.322,0,0,1,12.7-11.962Zm9.949,9.29a.684.684,0,0,0-.4-.606,6.016,6.016,0,0,0-1.5-.475A6.853,6.853,0,0,1,18.923-4.4a3.062,3.062,0,0,1-1.1-.971,2.319,2.319,0,0,1-.378-1.31,2.628,2.628,0,0,1,1.081-2.158,4.453,4.453,0,0,1,2.83-.848,4.934,4.934,0,0,1,3.023.853,2.666,2.666,0,0,1,1.143,2.241H22.553q0-1.143-1.2-1.143a1.194,1.194,0,0,0-.782.259.8.8,0,0,0-.316.646.737.737,0,0,0,.387.642,3.654,3.654,0,0,0,1.235.4,10.671,10.671,0,0,1,1.49.378A2.706,2.706,0,0,1,25.506-2.76,2.491,2.491,0,0,1,24.35-.642a5.068,5.068,0,0,1-2.993.817,5.172,5.172,0,0,1-2.18-.439,3.645,3.645,0,0,1-1.494-1.2,2.707,2.707,0,0,1-.536-1.591h2.769a1.145,1.145,0,0,0,.439.962,1.808,1.808,0,0,0,1.081.3,1.422,1.422,0,0,0,.91-.246A.787.787,0,0,0,22.649-2.672ZM30.015,0H27.044V-9.51h2.971ZM26.868-11.962A1.322,1.322,0,0,1,27.325-13a1.724,1.724,0,0,1,1.187-.4A1.724,1.724,0,0,1,29.7-13a1.322,1.322,0,0,1,.457,1.037,1.322,1.322,0,0,1-.457,1.037,1.724,1.724,0,0,1-1.187.4,1.724,1.724,0,0,1-1.187-.4A1.322,1.322,0,0,1,26.868-11.962Zm4.6,7.119a5.613,5.613,0,0,1,.554-2.536,3.96,3.96,0,0,1,1.591-1.709,4.791,4.791,0,0,1,2.435-.6A4.373,4.373,0,0,1,39.41-8.363a5.076,5.076,0,0,1,1.23,3.6v.105a4.925,4.925,0,0,1-1.235,3.529A4.384,4.384,0,0,1,36.062.176,4.434,4.434,0,0,1,32.8-1.042a4.761,4.761,0,0,1-1.327-3.3Zm2.962.185a3.538,3.538,0,0,0,.413,1.934,1.376,1.376,0,0,0,1.222.615q1.582,0,1.617-2.435v-.3q0-2.558-1.635-2.558-1.485,0-1.608,2.206ZM36.448-13.5h3.129l-2.443,2.76-2.417,0Zm8.218,3.99.1,1.116a3.225,3.225,0,0,1,2.716-1.292A2.713,2.713,0,0,1,49.7-8.8a4.226,4.226,0,0,1,.76,2.672V0H47.487V-6a1.6,1.6,0,0,0-.29-1.059A1.342,1.342,0,0,0,46.143-7.4a1.413,1.413,0,0,0-1.292.686V0H41.889V-9.51Z" transform="translate(607 6209)" fill="#12263f"/>
    <path id="Trazado_610596" data-name="Trazado 610596" d="M11.654,0H8.587L4.052-7.963V0H.967V-12.8H4.052L8.578-4.834V-12.8h3.076ZM13.1-4.843a5.613,5.613,0,0,1,.554-2.536A3.96,3.96,0,0,1,15.24-9.088a4.791,4.791,0,0,1,2.435-.6,4.373,4.373,0,0,1,3.366,1.323,5.076,5.076,0,0,1,1.23,3.6v.105a4.925,4.925,0,0,1-1.235,3.529A4.384,4.384,0,0,1,17.692.176a4.434,4.434,0,0,1-3.261-1.217,4.761,4.761,0,0,1-1.327-3.3Zm2.962.185a3.538,3.538,0,0,0,.413,1.934,1.376,1.376,0,0,0,1.222.615q1.582,0,1.617-2.435v-.3q0-2.558-1.635-2.558-1.485,0-1.608,2.206ZM29.329-6.829l-.976-.07a1.752,1.752,0,0,0-1.793.879V0H23.6V-9.51h2.777l.1,1.222a2.294,2.294,0,0,1,2.083-1.4,2.888,2.888,0,0,1,.826.105Zm4.957-5.045V-9.51h1.564v2.057H34.286V-3.1a1.111,1.111,0,0,0,.193.747,1.037,1.037,0,0,0,.765.211,4.345,4.345,0,0,0,.738-.053V-.079a5.466,5.466,0,0,1-1.67.255,3.1,3.1,0,0,1-2.259-.721,2.954,2.954,0,0,1-.729-2.188v-4.72H30.111V-9.51h1.213v-2.364ZM41.616.176a4.889,4.889,0,0,1-3.542-1.305,4.507,4.507,0,0,1-1.354-3.4v-.246a5.84,5.84,0,0,1,.541-2.575,3.955,3.955,0,0,1,1.578-1.727A4.763,4.763,0,0,1,41.3-9.686a4.117,4.117,0,0,1,3.164,1.244,4.887,4.887,0,0,1,1.16,3.467v1.151H39.735a2.135,2.135,0,0,0,.694,1.257,2.066,2.066,0,0,0,1.389.457,2.662,2.662,0,0,0,2.2-.984l1.354,1.6A3.784,3.784,0,0,1,43.8-.277,5.3,5.3,0,0,1,41.616.176ZM41.282-7.4q-1.3,0-1.547,1.723h2.988v-.229a1.467,1.467,0,0,0-.36-1.1A1.434,1.434,0,0,0,41.282-7.4Z" transform="translate(844 6209)" fill="#12263f"/>
    <path id="Trazado_610595" data-name="Trazado 610595" d="M8.9-5.432H4.052v3.059h5.73V0H.967V-12.8H9.8v2.382H4.052v2.7H8.9Zm6.979,2.76a.684.684,0,0,0-.4-.606,6.016,6.016,0,0,0-1.5-.475A6.853,6.853,0,0,1,12.155-4.4a3.062,3.062,0,0,1-1.1-.971,2.319,2.319,0,0,1-.378-1.31A2.628,2.628,0,0,1,11.76-8.837a4.453,4.453,0,0,1,2.83-.848,4.934,4.934,0,0,1,3.023.853,2.666,2.666,0,0,1,1.143,2.241H15.785q0-1.143-1.2-1.143a1.194,1.194,0,0,0-.782.259.8.8,0,0,0-.316.646.737.737,0,0,0,.387.642,3.654,3.654,0,0,0,1.235.4,10.671,10.671,0,0,1,1.49.378A2.706,2.706,0,0,1,18.738-2.76,2.491,2.491,0,0,1,17.583-.642,5.068,5.068,0,0,1,14.59.176a5.172,5.172,0,0,1-2.18-.439,3.645,3.645,0,0,1-1.494-1.2A2.707,2.707,0,0,1,10.38-3.05h2.769a1.145,1.145,0,0,0,.439.962,1.808,1.808,0,0,0,1.081.3,1.422,1.422,0,0,0,.91-.246A.787.787,0,0,0,15.882-2.672Zm7.69-9.2V-9.51h1.564v2.057H23.572V-3.1a1.111,1.111,0,0,0,.193.747,1.037,1.037,0,0,0,.765.211,4.345,4.345,0,0,0,.738-.053V-.079A5.466,5.466,0,0,1,23.6.176,3.1,3.1,0,0,1,21.34-.545a2.954,2.954,0,0,1-.729-2.188v-4.72H19.4V-9.51H20.61v-2.364Zm8.481,5.045-.976-.07a1.752,1.752,0,0,0-1.793.879V0H26.323V-9.51H29.1l.1,1.222a2.294,2.294,0,0,1,2.083-1.4,2.888,2.888,0,0,1,.826.105Zm6.732,5.8a3.054,3.054,0,0,1-2.54,1.2,3,3,0,0,1-2.369-.91,3.826,3.826,0,0,1-.8-2.615V-9.51h2.962v6.179a1.065,1.065,0,0,0,1.187,1.222,1.548,1.548,0,0,0,1.45-.729V-9.51h2.979V0H38.874Zm8.508-1.081a1.317,1.317,0,0,0,.967-.338,1.241,1.241,0,0,0,.334-.945h2.777A3.288,3.288,0,0,1,50.251-.826a4.168,4.168,0,0,1-2.887,1,4.22,4.22,0,0,1-3.27-1.3,5.125,5.125,0,0,1-1.2-3.6v-.123A5.792,5.792,0,0,1,43.431-7.4a3.872,3.872,0,0,1,1.534-1.7,4.573,4.573,0,0,1,2.373-.593,4.116,4.116,0,0,1,2.944,1.028,3.647,3.647,0,0,1,1.09,2.786H48.595A1.626,1.626,0,0,0,48.234-7a1.244,1.244,0,0,0-.967-.4q-1.151,0-1.345,1.468a10.357,10.357,0,0,0-.062,1.283A4.068,4.068,0,0,0,46.2-2.663,1.187,1.187,0,0,0,47.294-2.109Zm8.78-9.765V-9.51h1.564v2.057H56.074V-3.1a1.111,1.111,0,0,0,.193.747,1.037,1.037,0,0,0,.765.211,4.345,4.345,0,0,0,.738-.053V-.079A5.466,5.466,0,0,1,56.1.176a3.1,3.1,0,0,1-2.259-.721,2.954,2.954,0,0,1-.729-2.188v-4.72H51.9V-9.51h1.213v-2.364ZM64.468-1.028a3.054,3.054,0,0,1-2.54,1.2,3,3,0,0,1-2.369-.91,3.826,3.826,0,0,1-.8-2.615V-9.51h2.962v6.179A1.065,1.065,0,0,0,62.9-2.109a1.548,1.548,0,0,0,1.45-.729V-9.51h2.979V0H64.556Zm10.239-5.8-.976-.07a1.752,1.752,0,0,0-1.793.879V0H68.977V-9.51h2.777l.1,1.222a2.294,2.294,0,0,1,2.083-1.4,2.888,2.888,0,0,1,.826.105ZM80.868,0a3.344,3.344,0,0,1-.281-.853A2.754,2.754,0,0,1,78.3.176a3.374,3.374,0,0,1-2.285-.813,2.588,2.588,0,0,1-.94-2.043,2.66,2.66,0,0,1,1.143-2.338,5.821,5.821,0,0,1,3.322-.791h.914v-.5q0-1.316-1.134-1.316a.927.927,0,0,0-1.055,1.042H75.3a2.655,2.655,0,0,1,1.173-2.239,4.931,4.931,0,0,1,2.993-.86,4.323,4.323,0,0,1,2.874.888,3.086,3.086,0,0,1,1.081,2.435v4.21a4.311,4.311,0,0,0,.4,2V0ZM79.014-1.934a1.652,1.652,0,0,0,.918-.237,1.487,1.487,0,0,0,.523-.536V-4.228h-.861q-1.547,0-1.547,1.389a.848.848,0,0,0,.272.655A.986.986,0,0,0,79.014-1.934Zm10.16-2.892a5.809,5.809,0,0,1,.976-3.56,3.211,3.211,0,0,1,2.725-1.3,2.731,2.731,0,0,1,2.145,1V-13.5h2.971V0H95.326l-.149-1.02a2.8,2.8,0,0,1-2.32,1.2,3.205,3.205,0,0,1-2.689-1.3A5.993,5.993,0,0,1,89.174-4.825Zm2.962.185q0,2.531,1.477,2.531a1.458,1.458,0,0,0,1.406-.826V-6.557A1.419,1.419,0,0,0,93.63-7.4q-1.371,0-1.485,2.215ZM104.273.176a4.889,4.889,0,0,1-3.542-1.305,4.507,4.507,0,0,1-1.354-3.4v-.246a5.84,5.84,0,0,1,.541-2.575A3.955,3.955,0,0,1,101.5-9.075a4.763,4.763,0,0,1,2.461-.611,4.117,4.117,0,0,1,3.164,1.244,4.887,4.887,0,0,1,1.16,3.467v1.151h-5.889a2.135,2.135,0,0,0,.694,1.257,2.066,2.066,0,0,0,1.389.457,2.662,2.662,0,0,0,2.2-.984l1.354,1.6a3.784,3.784,0,0,1-1.569,1.217A5.3,5.3,0,0,1,104.273.176ZM103.939-7.4q-1.3,0-1.547,1.723h2.988v-.229a1.467,1.467,0,0,0-.36-1.1A1.434,1.434,0,0,0,103.939-7.4ZM112.6,0h-2.971V-13.5H112.6ZM9.659,20.315a5.735,5.735,0,0,1-1,3.538,3.2,3.2,0,0,1-2.694,1.323,2.742,2.742,0,0,1-2.153-.958v4.438H.853V15.49H3.621l.088.879A2.742,2.742,0,0,1,5.95,15.314a3.224,3.224,0,0,1,2.733,1.3,5.805,5.805,0,0,1,.976,3.564ZM6.7,20.131Q6.7,17.6,5.221,17.6a1.394,1.394,0,0,0-1.406.756V22.1a1.439,1.439,0,0,0,1.424.791q1.415,0,1.459-2.443Zm10.02-1.96-.976-.07a1.752,1.752,0,0,0-1.793.879V25H10.986V15.49h2.777l.1,1.222a2.294,2.294,0,0,1,2.083-1.4,2.888,2.888,0,0,1,.826.105Zm.378,1.986a5.613,5.613,0,0,1,.554-2.536,3.96,3.96,0,0,1,1.591-1.709,4.791,4.791,0,0,1,2.435-.6,4.373,4.373,0,0,1,3.366,1.323,5.076,5.076,0,0,1,1.23,3.6v.105a4.925,4.925,0,0,1-1.235,3.529,4.384,4.384,0,0,1-3.344,1.305,4.434,4.434,0,0,1-3.261-1.217,4.761,4.761,0,0,1-1.327-3.3Zm2.962.185a3.538,3.538,0,0,0,.413,1.934,1.376,1.376,0,0,0,1.222.615q1.582,0,1.617-2.435v-.3q0-2.558-1.635-2.558-1.485,0-1.608,2.206Zm11.188.51,1.582-5.361H36l-3.876,11.1-.167.4a2.944,2.944,0,0,1-2.918,1.846,4.642,4.642,0,0,1-1.222-.175v-2.11H28.2a2.026,2.026,0,0,0,.954-.18,1.094,1.094,0,0,0,.488-.647l.237-.633-3.3-9.605h3.164Zm10.011,4.324a4.889,4.889,0,0,1-3.542-1.305,4.507,4.507,0,0,1-1.354-3.4v-.246a5.84,5.84,0,0,1,.541-2.575,3.955,3.955,0,0,1,1.578-1.727,4.763,4.763,0,0,1,2.461-.611A4.117,4.117,0,0,1,44.1,16.558a4.887,4.887,0,0,1,1.16,3.467v1.151H39.375a2.135,2.135,0,0,0,.694,1.257,2.066,2.066,0,0,0,1.389.457,2.662,2.662,0,0,0,2.2-.984l1.354,1.6a3.784,3.784,0,0,1-1.569,1.217A5.3,5.3,0,0,1,41.256,25.176ZM40.922,17.6q-1.3,0-1.547,1.723h2.988v-.229a1.467,1.467,0,0,0-.36-1.1A1.434,1.434,0,0,0,40.922,17.6Zm9.554,5.291a1.317,1.317,0,0,0,.967-.338,1.241,1.241,0,0,0,.334-.945h2.777a3.288,3.288,0,0,1-1.121,2.566,4.168,4.168,0,0,1-2.887,1,4.22,4.22,0,0,1-3.27-1.3,5.125,5.125,0,0,1-1.2-3.6v-.123a5.792,5.792,0,0,1,.532-2.544,3.872,3.872,0,0,1,1.534-1.7,4.573,4.573,0,0,1,2.373-.593,4.116,4.116,0,0,1,2.944,1.028,3.647,3.647,0,0,1,1.09,2.786H51.776A1.626,1.626,0,0,0,51.416,18a1.244,1.244,0,0,0-.967-.4q-1.151,0-1.345,1.468a10.357,10.357,0,0,0-.062,1.283,4.068,4.068,0,0,0,.343,1.986A1.187,1.187,0,0,0,50.476,22.891Zm8.78-9.765V15.49H60.82v2.057H59.256V21.9a1.111,1.111,0,0,0,.193.747,1.037,1.037,0,0,0,.765.211,4.345,4.345,0,0,0,.738-.053v2.118a5.466,5.466,0,0,1-1.67.255,3.1,3.1,0,0,1-2.259-.721,2.954,2.954,0,0,1-.729-2.188v-4.72H55.081V15.49h1.213V13.126Zm2.092,7.031a5.613,5.613,0,0,1,.554-2.536,3.96,3.96,0,0,1,1.591-1.709,4.791,4.791,0,0,1,2.435-.6,4.373,4.373,0,0,1,3.366,1.323,5.076,5.076,0,0,1,1.23,3.6v.105a4.925,4.925,0,0,1-1.235,3.529,4.384,4.384,0,0,1-3.344,1.305,4.434,4.434,0,0,1-3.261-1.217,4.761,4.761,0,0,1-1.327-3.3Zm2.962.185a3.538,3.538,0,0,0,.413,1.934,1.376,1.376,0,0,0,1.222.615q1.582,0,1.617-2.435v-.3q0-2.558-1.635-2.558-1.485,0-1.608,2.206Zm11.628-.167a5.809,5.809,0,0,1,.976-3.56,3.211,3.211,0,0,1,2.725-1.3,2.731,2.731,0,0,1,2.145,1V11.5h2.971V25H82.09l-.149-1.02a2.8,2.8,0,0,1-2.32,1.2,3.205,3.205,0,0,1-2.689-1.3A5.993,5.993,0,0,1,75.938,20.175Zm2.962.185q0,2.531,1.477,2.531a1.458,1.458,0,0,0,1.406-.826V18.443a1.419,1.419,0,0,0-1.389-.844q-1.371,0-1.485,2.215Zm12.138,4.816A4.889,4.889,0,0,1,87.5,23.871a4.507,4.507,0,0,1-1.354-3.4v-.246a5.84,5.84,0,0,1,.541-2.575,3.955,3.955,0,0,1,1.578-1.727,4.763,4.763,0,0,1,2.461-.611,4.117,4.117,0,0,1,3.164,1.244,4.887,4.887,0,0,1,1.16,3.467v1.151H89.156a2.135,2.135,0,0,0,.694,1.257,2.066,2.066,0,0,0,1.389.457,2.662,2.662,0,0,0,2.2-.984l1.354,1.6a3.784,3.784,0,0,1-1.569,1.217A5.3,5.3,0,0,1,91.037,25.176ZM90.7,17.6q-1.3,0-1.547,1.723h2.988v-.229a1.467,1.467,0,0,0-.36-1.1A1.434,1.434,0,0,0,90.7,17.6Zm13.808,3.876,1.5-5.985h3.12l-3.1,9.51h-3.023l-3.1-9.51h3.129ZM113.142,25h-2.971V15.49h2.971ZM110,13.038A1.322,1.322,0,0,1,110.452,12a1.943,1.943,0,0,1,2.373,0,1.405,1.405,0,0,1,0,2.074,1.943,1.943,0,0,1-2.373,0A1.322,1.322,0,0,1,110,13.038Zm4.6,7.137a5.809,5.809,0,0,1,.976-3.56,3.211,3.211,0,0,1,2.725-1.3,2.731,2.731,0,0,1,2.145,1V11.5h2.971V25h-2.663l-.149-1.02a2.8,2.8,0,0,1-2.32,1.2,3.205,3.205,0,0,1-2.689-1.3A5.993,5.993,0,0,1,114.592,20.175Zm2.962.185q0,2.531,1.477,2.531a1.458,1.458,0,0,0,1.406-.826V18.443a1.419,1.419,0,0,0-1.389-.844q-1.371,0-1.485,2.215ZM130.447,25a3.344,3.344,0,0,1-.281-.853,2.754,2.754,0,0,1-2.285,1.028,3.374,3.374,0,0,1-2.285-.813,2.588,2.588,0,0,1-.94-2.043,2.66,2.66,0,0,1,1.143-2.338,5.821,5.821,0,0,1,3.322-.791h.914v-.5q0-1.316-1.134-1.316a.927.927,0,0,0-1.055,1.042h-2.962a2.655,2.655,0,0,1,1.173-2.239,4.931,4.931,0,0,1,2.993-.86,4.323,4.323,0,0,1,2.874.888A3.086,3.086,0,0,1,133,18.637v4.21a4.311,4.311,0,0,0,.4,2V25Zm-1.854-1.934a1.652,1.652,0,0,0,.918-.237,1.487,1.487,0,0,0,.523-.536V20.772h-.861q-1.547,0-1.547,1.389a.848.848,0,0,0,.272.655A.986.986,0,0,0,128.593,23.066Z" transform="translate(1101 6162)" fill="#12263f"/>
    <g id="Grupo_1072568" data-name="Grupo 1072568" transform="translate(333.958 6104.353)">
      <g id="Grupo_1072567" data-name="Grupo 1072567" clip-path="url(#clip-path-4)">
        <path id="Trazado_610248" data-name="Trazado 610248" d="M46.079,76.725H16.5q-7.056,0-14.112-.006c-.333,0-.668,0-1-.032a1.454,1.454,0,0,1-1.227-2.13c.5-1.012,1.157-1.931,1.749-2.889Q10.642,57.556,19.375,43.45a7.67,7.67,0,0,1,12.782-.883c.348.432.34.435.635-.03C35,39.059,37.229,35.589,39.428,32.1a8.127,8.127,0,0,1,4.809-3.589c.258-.074.311-.184.3-.424-.094-3.177-.012-6.354-.041-9.531-.043-4.689,0-9.378.014-14.067,0-1.4.376-1.834,1.723-2.226,1.215-.353,2.4-.8,3.608-1.183A18.293,18.293,0,0,1,53.567.041,7.7,7.7,0,0,1,58.9,1.481q1.781,1.241,3.577,2.46a4.718,4.718,0,0,0,4.453.6C69,3.818,71.1,3.165,73.192,2.48A1.491,1.491,0,0,1,75.159,3.7a7.2,7.2,0,0,1,.06,1.035q0,6.632,0,13.262c0,.461-.018.923-.046,1.383a1.374,1.374,0,0,1-.981,1.295c-2.263.771-4.542,1.494-6.82,2.217a7.336,7.336,0,0,1-6.534-1.1c-1.156-.76-2.3-1.534-3.416-2.355a5.228,5.228,0,0,0-5.132-.666c-1.474.508-2.959.985-4.448,1.451-.288.09-.3.259-.3.487q.005,3.479.006,6.958c0,.723-.005.743.66.955a8.611,8.611,0,0,1,4.756,3.963c2.069,3.342,4.205,6.641,6.314,9.959.048.076.1.148.153.221.116.164.189.223.353,0a7.668,7.668,0,0,1,12.892.639q3.014,4.865,6.017,9.737,6.533,10.545,13.074,21.086a1.637,1.637,0,0,1,.13,1.713,1.539,1.539,0,0,1-1.518.78q-5.48-.007-10.961,0H46.079ZM16.549,73.637H75.486c-.354-.685-.79-1.314-1.2-1.958q-9.252-14.527-18.5-29.056-2.887-4.535-5.771-9.072a4.658,4.658,0,0,0-7.93,0c-1.321,2.042-2.616,4.1-3.922,6.152Q33.4,47.185,28.631,54.668,23.876,62.134,19.119,69.6c-.844,1.325-1.687,2.651-2.57,4.038M72.165,12.121h0q0-2.9,0-5.8c0-.155.045-.335-.226-.247-1.093.357-2.187.708-3.281,1.064a11.255,11.255,0,0,1-3.165.74,7.762,7.762,0,0,1-4.624-1.412c-1.232-.831-2.449-1.682-3.675-2.521a5.126,5.126,0,0,0-1.286-.676,5.885,5.885,0,0,0-3.9.247c-1.338.47-2.692.9-4.048,1.313-.311.1-.426.22-.424.551.014,3.754.013,7.507.016,11.261,0,.1,0,.205,0,.308,0,.176.043.254.252.182,1.245-.427,2.5-.829,3.742-1.262a7.6,7.6,0,0,1,6.983.742c1.352.879,2.66,1.827,4,2.727a4.626,4.626,0,0,0,4.312.595c1.679-.58,3.374-1.117,5.066-1.659.217-.07.265-.174.264-.384-.008-1.922,0-3.843,0-5.765M87.865,73.7c-.155-.272-.3-.539-.455-.8Q78.723,58.866,70.034,44.829a4.638,4.638,0,0,0-5.463-2.05,4.929,4.929,0,0,0-2.8,2.371,1.059,1.059,0,0,0,0,1.334q4.4,6.846,8.76,13.723,3.95,6.2,7.893,12.408c.691,1.089.682,1.075,1.992,1.059,2.469-.028,4.939-.049,7.449.025m-79.2-.031v.018c1.32,0,2.64-.006,3.96.006a.541.541,0,0,0,.522-.295q2.372-3.746,4.761-7.483,6.075-9.538,12.146-19.078c.73-1.15.79-.762,0-2.035a4.558,4.558,0,0,0-5.029-2.124,4.62,4.62,0,0,0-3.134,2.39q-5.185,8.4-10.386,16.781Q7.93,67.624,4.345,73.4c-.122.2-.048.245.133.26.089.008.179.01.269.01H8.667" transform="translate(0 0)" fill="#76becc"/>
      </g>
    </g>
    <g id="Grupo_1072570" data-name="Grupo 1072570" transform="translate(592.703 6104.353)">
      <g id="Grupo_1072569" data-name="Grupo 1072569" clip-path="url(#clip-path-5)">
        <path id="Trazado_610249" data-name="Trazado 610249" d="M41.319,10.664q0,4.423,0,8.846a2.334,2.334,0,0,1-.1.75,1.446,1.446,0,0,1-1.451,1.058,20.717,20.717,0,0,0-5.745.874A18.11,18.11,0,0,0,22.867,32.5a18.794,18.794,0,0,0-1.517,6.516A18.426,18.426,0,0,0,31.927,56.679a18.036,18.036,0,0,0,6.206,1.616,17.215,17.215,0,0,0,7.016-.791A18.6,18.6,0,0,0,56.991,46.689a17.355,17.355,0,0,0,1.212-5.01c.073-.7.083-1.4.178-2.1a1.3,1.3,0,0,1,1.152-1.2,3.355,3.355,0,0,1,.651-.062q8.725-.007,17.45-.01a1.944,1.944,0,0,1,1.566.575,1.5,1.5,0,0,1-.779,2.469,3.174,3.174,0,0,1-.756.059q-2.712,0-5.425,0c-.749,0-.844.131-.926.871a38.1,38.1,0,0,1-.836,4.926,31.912,31.912,0,0,1-7.369,13.949A31.469,31.469,0,0,1,54.3,68.027a29.7,29.7,0,0,1-6.168,2.46c-.322.086-.635.2-.957.29a1.408,1.408,0,0,1-1.688-.789,1.47,1.47,0,0,1,.467-1.929,1.93,1.93,0,0,1,.627-.281,27.4,27.4,0,0,0,7.689-3.158A28.735,28.735,0,0,0,63.6,55.693a27.362,27.362,0,0,0,3.021-6.03A26.464,26.464,0,0,0,68.182,42.4c.054-.932-.048-1.052-.974-1.055-1.578-.006-3.156,0-4.734,0a3.922,3.922,0,0,0-.517.026c-.515.07-.653.235-.724.757A21.542,21.542,0,0,1,50.167,58.714a20.354,20.354,0,0,1-5.848,2.207,18.106,18.106,0,0,1-2.343.4c-.459.039-.627.219-.645.689s-.016.944-.015,1.416q.005,7.274.013,14.548A1.586,1.586,0,0,1,39.7,79.647a1.56,1.56,0,0,1-1.356-1.237,3.643,3.643,0,0,1-.05-.757c0-1.67.012-3.34,0-5.01,0-.846-.133-1.018-.982-1.094a29.145,29.145,0,0,1-4.488-.739A31.642,31.642,0,0,1,14.4,58.442a31.322,31.322,0,0,1-4.129-7.853,24.459,24.459,0,0,1-1.021-3.542,1.488,1.488,0,0,1,1.1-1.681,1.44,1.44,0,0,1,1.681.865c.312.757.435,1.57.679,2.349A28.6,28.6,0,0,0,33.634,67.9c1.271.3,2.573.349,3.846.611a.705.705,0,0,0,.817-.716q.01-2.851,0-5.7c0-.6-.145-.753-.755-.8a18.536,18.536,0,0,1-3.841-.8A21.483,21.483,0,0,1,19.087,45.568a24.839,24.839,0,0,1-.694-3.376c-.089-.654-.218-.772-.9-.773q-3.991-.006-7.982,0-3.749,0-7.5,0a3.751,3.751,0,0,1-.653-.051A1.638,1.638,0,0,1,0,39.81a1.659,1.659,0,0,1,1.436-1.5,6.87,6.87,0,0,1,.861-.05c1.681,0,3.363,0,5.045,0,.862,0,.988-.116,1.1-.965.156-1.2.222-2.406.47-3.592a34.982,34.982,0,0,1,2.063-6.746,32.075,32.075,0,0,1,7.289-10.51,31.646,31.646,0,0,1,9.118-6.139A25.9,25.9,0,0,1,31.922,8.7a1.432,1.432,0,0,1,1.677.844,1.507,1.507,0,0,1-.43,1.809,3.509,3.509,0,0,1-1.135.487A28.254,28.254,0,0,0,16.248,23.415a27.854,27.854,0,0,0-3.291,6.624,27.369,27.369,0,0,0-1.215,5.055c-.114.8-.189,1.6-.251,2.4-.045.58.142.809.711.814q2.643.019,5.286,0c.625-.006.813-.228.9-.859A21.635,21.635,0,0,1,26.394,23a21.034,21.034,0,0,1,8.112-4.06,17.779,17.779,0,0,1,3.148-.6c.4-.029.569-.2.623-.609a5.3,5.3,0,0,0,.029-.69q0-7.654-.008-15.308a1.76,1.76,0,0,1,.461-1.3,1.477,1.477,0,0,1,2.5.762,2.575,2.575,0,0,1,.058.582q.005,4.44,0,8.881" transform="translate(0 0)" fill="#615842"/>
        <path id="Trazado_610250" data-name="Trazado 610250" d="M157.825,44.51c-1.036,0-2.073.009-3.109-.039a1.985,1.985,0,0,0-1.609.62q-5.99,6.079-12.017,12.122a6.667,6.667,0,0,1-.666.6,1.318,1.318,0,0,1-1.734-.113,1.365,1.365,0,0,1-.392-1.788,4.236,4.236,0,0,1,.73-.87c2.927-2.952,5.869-5.89,8.776-8.862,1.184-1.21,2.394-2.393,3.595-3.586a.988.988,0,0,0,.3-.77c-.012-2.177-.007-4.353-.009-6.53a2.39,2.39,0,0,1,.72-1.826c3.512-3.475,7-6.977,10.494-10.469a1.455,1.455,0,0,1,1.808-.409,1.54,1.54,0,0,1,.909,1.436c.018,1.912.006,3.824.007,5.736,0,.534.166.727.692.795a3.83,3.83,0,0,0,.482.025q2.505,0,5.01-.005a2.218,2.218,0,0,1,1.132.246,1.477,1.477,0,0,1,.339,2.377c-3.637,3.594-7.221,7.241-10.888,10.8a1.828,1.828,0,0,1-1.319.5c-1.082.011-2.165,0-3.248,0m.107-3.033v0c.61,0,1.224-.034,1.831.009a1.683,1.683,0,0,0,1.507-.61c1.648-1.769,3.371-3.469,5.1-5.157a8.057,8.057,0,0,0,.916-.986.647.647,0,0,0,.059-.682.676.676,0,0,0-.722-.412c-.829,0-1.661.021-2.486-.04a1.666,1.666,0,0,1-1.683-1.837c-.007-.771-.018-1.543,0-2.315.008-.4-.258-.56-.546-.717a.6.6,0,0,0-.722.144,16.581,16.581,0,0,0-1.233,1.209Q157.48,32.615,155,35.146c-.176.18-.39.358-.4.63-.035,1.669-.068,3.339.019,5.006.026.492.31.688.818.693.829.008,1.658,0,2.488,0" transform="translate(-99.829 -16.211)" fill="#615842"/>
        <path id="Trazado_610251" data-name="Trazado 610251" d="M97.6,111.481c.016-4.749,1.518-8,4.445-10.587a13.03,13.03,0,0,1,6.462-2.993,7.818,7.818,0,0,1,1.826-.1,1.517,1.517,0,0,1,1.393,1.458,1.545,1.545,0,0,1-1.471,1.5,14.185,14.185,0,0,0-2.089.25A9.728,9.728,0,0,0,101,113.271a9.124,9.124,0,0,0,6.685,6.613,9.35,9.35,0,0,0,9.256-2.142,9.741,9.741,0,0,0,2.457-3.826,16.6,16.6,0,0,0,.7-3.649,1.455,1.455,0,0,1,1.1-1.283,1.422,1.422,0,0,1,1.6.517,1.09,1.09,0,0,1,.273.691,12.459,12.459,0,0,1-6.387,11.4,11.824,11.824,0,0,1-7.038,1.667,12.382,12.382,0,0,1-10.01-5.826,10.974,10.974,0,0,1-2.037-5.95" transform="translate(-70.543 -70.683)" fill="#615842"/>
      </g>
    </g>
    <g id="Grupo_1072572" data-name="Grupo 1072572" transform="translate(825.593 6102.788)">
      <g id="Grupo_1072571" data-name="Grupo 1072571" clip-path="url(#clip-path-6)">
        <path id="Trazado_610252" data-name="Trazado 610252" d="M60.1,20.7c-.548-.558-1.042-1.079-1.56-1.576-.181-.173-.216-.258-.012-.449.512-.478,1-.981,1.487-1.489.172-.18.265-.2.456-.007,1.065,1.1,2.15,2.177,3.222,3.269a.76.76,0,0,0,.6.258c1.024-.014,2.048-.009,3.072,0,.2,0,.312-.025.332-.269a21.753,21.753,0,0,1,8.257-15.6,21.031,21.031,0,0,1,6.776-3.684,21.69,21.69,0,0,1,16.056.86,22.1,22.1,0,0,1,10.274,9.61A21.75,21.75,0,0,1,111.566,24.7a22.042,22.042,0,0,1-6.272,12.906,22.2,22.2,0,0,1-16.339,6.538A22.194,22.194,0,0,1,68.289,27.475a18.233,18.233,0,0,1-.6-3.736c-.009-.229-.1-.285-.317-.283q-1.588.015-3.176,0a.573.573,0,0,0-.448.2c-1.092,1.1-2.194,2.2-3.283,3.306-.174.176-.275.17-.442,0-.5-.512-1.006-1.011-1.52-1.5-.158-.151-.181-.235,0-.4.527-.491,1.028-1.009,1.592-1.569-.193-.009-.313-.02-.433-.02-1.761,0-3.522-.021-5.282,0a11.5,11.5,0,0,0-9.927,5.506,10.246,10.246,0,0,0-1.5,3.645,12.313,12.313,0,0,0-.084,4.664,11.566,11.566,0,0,0,4.857,7.572,11.146,11.146,0,0,0,4.136,1.818,12.6,12.6,0,0,0,2.675.253c4.971.009,9.942,0,14.913.009a.734.734,0,0,0,.576-.234c1.082-1.1,2.177-2.183,3.259-3.281.15-.152.236-.162.387-.009q.763.774,1.55,1.524c.169.161.151.267-.009.42-.484.46-.955.932-1.43,1.4-.038.037-.1.065-.078.146a.734.734,0,0,0,.362.027q12.755,0,25.511,0a10.339,10.339,0,0,1,4.881,19.655,11.34,11.34,0,0,1-4.841,1.049c-3.947.013-7.894.006-11.841,0a.759.759,0,0,0-.6.245c-1.071,1.093-2.161,2.167-3.233,3.258-.176.179-.275.164-.44-.006-.5-.52-1.021-1.028-1.543-1.531-.144-.138-.14-.214.007-.354.521-.5,1.023-1.022,1.549-1.551a.574.574,0,0,0-.392-.055q-10.321,0-20.643,0c-.448,0-.448,0-.448-.462,0-.656.014-1.312-.007-1.967-.008-.274.073-.341.342-.34q6.214.013,12.427.006,4.212,0,8.423,0a.487.487,0,0,0,.314-.042c-.51-.517-1-1.038-1.523-1.534-.184-.176-.208-.262-.008-.448.52-.487,1.02-1,1.512-1.513.157-.164.242-.169.405,0C85,62.445,86.1,63.542,87.19,64.65a.7.7,0,0,0,.543.229c4.131-.006,8.262,0,12.393-.006a7.44,7.44,0,0,0,6.969-4.805,7.617,7.617,0,0,0-3.692-9.62A7.374,7.374,0,0,0,100,49.7q-13.014-.015-26.028,0c-.087,0-.175.009-.306.015.286.292.538.551.793.808s.513.529.785.776c.163.148.147.247,0,.391-.534.523-1.065,1.051-1.584,1.589-.158.164-.238.09-.359-.033-.885-.9-1.812-1.772-2.652-2.716a2.412,2.412,0,0,0-2.025-.853c-4.648.046-9.3.024-13.946.021a14.581,14.581,0,0,1-13.624-9.025A12.83,12.83,0,0,1,40.021,36.4,14.227,14.227,0,0,1,46.3,23.266a13.619,13.619,0,0,1,5.657-2.325,18.762,18.762,0,0,1,3.2-.242c1.507,0,3.015,0,4.522,0H60.1m12.4,2.764c-.621,0-1.242.007-1.864,0-.2,0-.251.063-.236.26a17.623,17.623,0,0,0,.713,3.888,19.368,19.368,0,0,0,4.57,7.85,19.023,19.023,0,0,0,8.394,5.161,19.665,19.665,0,0,0,7.235.709,18.005,18.005,0,0,0,4.057-.745,19.132,19.132,0,0,0,8.112-4.98,18.692,18.692,0,0,0,5.37-11.321,19.683,19.683,0,0,0-.839-8.336,18.9,18.9,0,0,0-6.03-8.778,18.526,18.526,0,0,0-10-4.26,19.525,19.525,0,0,0-8.667.885A19.354,19.354,0,0,0,70.4,20.413c-.022.249.058.289.273.288q1.812-.01,3.624,0c.225,0,.289-.076.312-.293a13.312,13.312,0,0,1,.331-1.968A15.14,15.14,0,0,1,78.752,11.6,15,15,0,0,1,89.8,6.906a13.446,13.446,0,0,1,5.692,1.206,15.043,15.043,0,0,1,9.164,11.863,13.3,13.3,0,0,1-.689,7.055A14.984,14.984,0,0,1,90.96,37.18a13.5,13.5,0,0,1-7.67-1.369A14.939,14.939,0,0,1,74.6,23.747c-.029-.216-.092-.3-.315-.29-.6.013-1.2,0-1.795,0m13.848.022c-.171-.011-.259-.022-.346-.022H77.608c-.046,0-.092,0-.138,0-.138-.006-.181.056-.159.19.056.352.078.711.158,1.056A12.37,12.37,0,0,0,79.246,28.9a12.544,12.544,0,0,0,15.447,4.562,12.174,12.174,0,0,0,7.2-9.192,12.447,12.447,0,0,0-.072-4.837,11.771,11.771,0,0,0-2.37-5.037,12.543,12.543,0,0,0-15.065-3.593,12.187,12.187,0,0,0-7.046,9.537c-.047.31.016.362.308.361,2.773-.01,5.546-.006,8.319-.009.106,0,.226.047.3-.025-.521-.541-1.034-1.083-1.559-1.611-.125-.126-.149-.189-.008-.325q.794-.767,1.56-1.563c.164-.171.254-.183.43,0q1.836,1.873,3.694,3.724a1.434,1.434,0,0,1,.064,2.311c-1.244,1.278-2.522,2.522-3.778,3.787-.158.159-.251.129-.391-.013-.509-.516-1.022-1.028-1.546-1.528-.168-.16-.159-.244.012-.4.525-.49,1.028-1,1.594-1.562" transform="translate(-28.918 -0.001)" fill="#4e5662"/>
        <path id="Trazado_610253" data-name="Trazado 610253" d="M.033,211.384a2.209,2.209,0,0,1,.247-.96c1.129-2.637,2.238-5.284,3.417-7.9a1.009,1.009,0,0,0-.151-1.227c-1.042-1.33-2.043-2.693-3.066-4.038a1.486,1.486,0,0,1,0-2.194c1.121-1.473,2.226-2.958,3.345-4.432a.393.393,0,0,0,.031-.484c-.417-.894-.805-1.8-1.2-2.708q-1.2-2.766-2.382-5.535a2.635,2.635,0,0,1-.247-.82,1.292,1.292,0,0,1,1.742-1.365,12.282,12.282,0,0,1,1.8.939q5.982,3.282,11.958,6.576,6.885,3.786,13.771,7.571a2.016,2.016,0,0,1,.741.55,1.325,1.325,0,0,1-.411,1.967c-1.3.742-2.61,1.452-3.918,2.172-1.52.835-3.044,1.662-4.564,2.5q-4.288,2.357-8.573,4.718-4.937,2.715-9.874,5.428a4.869,4.869,0,0,1-.984.489,1.294,1.294,0,0,1-1.689-1.246M22.905,196.2c0-.023,0-.046,0-.069-.126-.034-.251-.072-.378-.1q-1.926-.451-3.853-.9c-1.71-.4-3.427-.765-5.131-1.188-1.782-.442-3.572-.847-5.359-1.27-.625-.148-1.249-.3-1.872-.454a.383.383,0,0,0-.452.147q-1.33,1.8-2.675,3.6a.293.293,0,0,0,0,.42q1.34,1.775,2.663,3.563a.392.392,0,0,0,.46.181c.787-.162,1.559-.383,2.343-.559,2.395-.539,4.777-1.134,7.167-1.7,2.178-.512,4.36-1.008,6.54-1.514.184-.043.364-.1.546-.157m-3.459,3.741a1.917,1.917,0,0,0-.826.069c-2.784.641-5.572,1.27-8.348,1.949-1.1.27-2.223.47-3.313.8-.294.089-.545.124-.682.468-.424,1.067-.886,2.118-1.336,3.174-.211.5-.428.99-.643,1.485-.038.087-.081.194-.011.259.085.08.161-.034.236-.071q.294-.145.581-.3,6.221-3.422,12.443-6.843a17.818,17.818,0,0,1,1.9-.986m-.029-7.467a2.27,2.27,0,0,0-.632-.373q-3.426-1.884-6.852-3.769-3.638-2-7.28-3.992c-.123-.067-.28-.229-.39-.12s.044.272.1.405c.632,1.477,1.278,2.948,1.89,4.433a.731.731,0,0,0,.581.5c1.631.38,3.257.783,4.887,1.169,1.953.463,3.909.912,5.861,1.381.576.138,1.154.246,1.834.371" transform="translate(0 -129.909)" fill="#4e5662"/>
        <path id="Trazado_610254" data-name="Trazado 610254" d="M219.364,65.038c0-.368.01-.736,0-1.1-.008-.211.068-.265.276-.279a5.243,5.243,0,0,0,4.845-3.4,5.488,5.488,0,0,0-2.5-7.009,5.143,5.143,0,0,0-2.375-.618c-.208,0-.244-.081-.242-.263.008-.747,0-1.495,0-2.242,0-.145-.012-.269.21-.252a8.55,8.55,0,0,1,4.195,1.308,8.245,8.245,0,0,1-.894,14.436,9.691,9.691,0,0,1-3.328.8c-.183.016-.182-.077-.181-.2,0-.391,0-.782,0-1.173Z" transform="translate(-158.632 -36.061)" fill="#4e5662"/>
      </g>
    </g>
  </g>
</svg>
