<svg xmlns="http://www.w3.org/2000/svg" xmlns:xlink="http://www.w3.org/1999/xlink" width="403" height="672" viewBox="0 0 403 672">
  <defs>
    <clipPath id="clip-path">
      <path id="Trazado_610570" data-name="Trazado 610570" d="M0,0H400V631H0Z" transform="translate(288 1542)" fill="#fff" stroke="#707070" stroke-width="1"/>
    </clipPath>
    <clipPath id="clip-path-2">
      <rect id="Rectángulo_377933" data-name="Rectángulo 377933" width="384.583" height="365.567" fill="none"/>
    </clipPath>
  </defs>
  <g id="Grupo_1072693" data-name="Grupo 1072693" transform="translate(-7233 10932)">
    <rect id="Rectángulo_377942" data-name="Rectángulo 377942" width="400" height="672" transform="translate(7233 -10932)" fill="#fff"/>
    <g id="Enmascarar_grupo_154344" data-name="Enmascarar grupo 154344" transform="translate(6948 -12455)" clip-path="url(#clip-path)">
      <g id="Grupo_1072533" data-name="Grupo 1072533">
        <g id="Grupo_1072532" data-name="Grupo 1072532" transform="translate(304.417 1530)">
          <g id="Grupo_1072529" data-name="Grupo 1072529">
            <g id="Grupo_1072528" data-name="Grupo 1072528" clip-path="url(#clip-path-2)">
              <path id="Trazado_610151" data-name="Trazado 610151" d="M65.681,79.258C55.448,95.238,49.473,114.238,47.262,133.6c-1.329,11.646-1.287,23.767,2.473,34.759a55.114,55.114,0,0,0,24.066,29.2c7.181,4.242,15.25,6.936,21.46,12.727,5.675,5.293,9.475,12.9,15.809,17.205,5.713,3.883,12.88,4.56,19.5,3.248s12.805-4.452,18.8-7.794c12.86-7.173,25.517-15.7,34.363-28.185,9.794-13.816,13.682-32.492,6.49-48.727-3.627-8.187-9.536-14.837-14.635-22.025-8.331-11.744-8.8-22.3-10.749-36.332-2.518-18.161-14.56-34.437-29.83-41.8C107.623,32.684,80.641,55.9,65.681,79.258" transform="translate(-5.183 -4.689)" fill="#d6f5ff"/>
            </g>
          </g>
          <g id="Grupo_1072531" data-name="Grupo 1072531">
            <g id="Grupo_1072530" data-name="Grupo 1072530" clip-path="url(#clip-path-2)">
              <path id="Trazado_610152" data-name="Trazado 610152" d="M81.738,319.108c-3.594,1.8-3.144,12.352-2.021,13.7s25.154,3.144,28.522,2.021.9-14.149-14.149-13.925Z" transform="translate(-8.801 -35.593)" fill="#42346e"/>
              <path id="Trazado_610153" data-name="Trazado 610153" d="M82.678,300.149c-.673,4.042-1.573,14.6-1.348,18.191s11.9,5.166,13.475,2.7,5.166-15.946,5.166-17.743-17.293-3.144-17.293-3.144" transform="translate(-9.068 -33.479)" fill="#cf9585"/>
              <path id="Trazado_610154" data-name="Trazado 610154" d="M164.78,271.816c-3.544,1.772-3.1,12.183-1.994,13.513s24.81,3.1,28.133,1.994.887-13.956-13.956-13.734Z" transform="translate(-18.068 -30.318)" fill="#42346e"/>
              <path id="Trazado_610155" data-name="Trazado 610155" d="M165.708,253.116c-.665,3.987-1.55,14.4-1.329,17.943s11.741,5.1,13.291,2.658,5.1-15.728,5.1-17.5-17.058-3.1-17.058-3.1" transform="translate(-18.331 -28.233)" fill="#cf9585"/>
              <path id="Trazado_610156" data-name="Trazado 610156" d="M104.915,325.644a8.251,8.251,0,0,0-1.207-1.207c-.057-.051-.116-.1-.174-.149l.043-.015a2.1,2.1,0,0,0,.856-.562.942.942,0,0,0-.187-1.451,2.024,2.024,0,0,0-2.072.143,4.543,4.543,0,0,0-.522.332c-.133-.1-.264-.212-.4-.316-.193-.147-.39-.291-.587-.433-.078-.056-.158-.111-.239-.164a.664.664,0,0,0-.483-.417.912.912,0,0,0-1.135.858,1.5,1.5,0,0,0,.527,1.05c.224.227.452.451.681.674-.187.152-.375.3-.55.467a14.457,14.457,0,0,0-1.169,1.266.649.649,0,0,0-.1.76.628.628,0,0,0,.708.289,15.722,15.722,0,0,0,2.569-1.274c.1.1.194.2.288.306q.3.335.6.675a6.015,6.015,0,0,0,.6.673,1.259,1.259,0,0,0,1.63.1,1.226,1.226,0,0,0,.32-1.6" transform="translate(-10.944 -35.847)" fill="#381f59"/>
              <path id="Trazado_610157" data-name="Trazado 610157" d="M189.654,280.432a2.389,2.389,0,0,0-.65-1c-.2-.227-.406-.445-.607-.67q-.6-.674-1.191-1.366l.141-.057a7.836,7.836,0,0,0,.907-.387,1.036,1.036,0,0,0-.8-1.89,7.374,7.374,0,0,0-1.546.816,10.564,10.564,0,0,0-1.245-1.4.661.661,0,0,0-.769-.1.637.637,0,0,0-.291.717,8.837,8.837,0,0,0,1,1.691l.02.029c-.028.023-.058.044-.085.068a10.584,10.584,0,0,0-1.068,1.064c-.181.206-.392.386-.555.609-.141.193-.238.423-.387.6-.129.155.035.419.228.3a5.965,5.965,0,0,1,.7-.3c.217-.1.41-.243.625-.346.46-.223.934-.424,1.4-.636l.083-.037c.063.085.121.174.185.259q.614.816,1.248,1.616c.424.535.893,1.313,1.573,1.517a.9.9,0,0,0,1.09-1.089" transform="translate(-20.354 -30.595)" fill="#381f59"/>
              <path id="Trazado_610158" data-name="Trazado 610158" d="M82.747,300.149c-.274,1.64-.583,4.354-.84,7.238.309.187.625.361.945.52,4.935,2.449,10.733,2.1,16.109.588a35.844,35.844,0,0,0,1.079-5.2c0-1.8-17.293-3.144-17.293-3.144" transform="translate(-9.136 -33.479)" fill="#b77967"/>
              <path id="Trazado_610159" data-name="Trazado 610159" d="M165.766,253.116c-.294,1.764-.631,4.787-.9,7.915.106.04.211.081.316.117a23.7,23.7,0,0,0,16.76-.541,29.809,29.809,0,0,0,.879-4.39c0-1.772-17.058-3.1-17.058-3.1" transform="translate(-18.39 -28.233)" fill="#b77967"/>
              <path id="Trazado_610160" data-name="Trazado 610160" d="M88.887,183.921s-.9,41.324-2.695,57.495-5.615,44.244-5.615,46.714,17.518,6.737,19.539,3.818,23.806-75.013,25.154-83.1c0,0,28.747,3.818,29.87,4.492s-.9,31.218-.673,33.463,17.518,5.615,19.988,2.7,7.412-52.329,6.289-58.168-27.4-17.069-27.4-17.069l-35.26,2.471Z" transform="translate(-8.988 -19.437)" fill="#42346e"/>
              <path id="Trazado_610161" data-name="Trazado 610161" d="M119.1,176.734l-29.2,7.187s-.06,2.741-.179,7.08a47.97,47.97,0,0,0,13.634,2.5c7.671.331,15.326-.84,22.86-2.318,8.7-1.706,17.754-4.054,24.173-10.17a25.679,25.679,0,0,0,4.846-6.362c-.554-.243-.878-.383-.878-.383Z" transform="translate(-10.008 -19.437)" fill="#381f59"/>
              <path id="Trazado_610162" data-name="Trazado 610162" d="M137.224,41.834a8.155,8.155,0,0,0-2.334-4.99,5.062,5.062,0,0,0-3.154-1.374c-.128-4.944-2.49-9.98-6.653-12.293a10.111,10.111,0,0,0-11.988,1.57,8.563,8.563,0,0,0-8.6-3.269,8.8,8.8,0,0,0-6.05,5.843,7.958,7.958,0,0,0-10.458-.378c-4.27,3.389-5.256,9.195-4.966,14.618-4.416.442-6.063,7.029-5.853,11.079.217,4.192,1.988,8.348,5.447,10.311a7.041,7.041,0,0,0-.339,7.1,6,6,0,0,0,5.965,3.038c.134,3.836,3.282,6.873,6.705,7.673,4.319,1.009,8.248-1.433,11.622-4.124,2.844,1.307,5.942,2.039,8.909.981a8.6,8.6,0,0,0,5.756-7.416c4.884-1.475,9.895-3.579,13.357-7.7a12.9,12.9,0,0,0,3.208-7.3,7.393,7.393,0,0,0-1.448-5.279c1.456-2.119,1.235-5.641.871-8.088" transform="translate(-8.606 -2.373)" fill="#42346e"/>
              <path id="Trazado_610163" data-name="Trazado 610163" d="M129.834,41.78a5.915,5.915,0,0,1-6.71-.006,11.131,11.131,0,0,1-4.108-5.715,8.084,8.084,0,0,1-11.846.279,10.425,10.425,0,0,1-13.456,5.59c-1.379,4.337-3.459,8.781-7.339,11.157a9.406,9.406,0,0,1-9.216.232c-.006.335-.005.663.011.973.217,4.191,1.988,8.348,5.447,10.311a7.04,7.04,0,0,0-.339,7.105,6,6,0,0,0,5.965,3.037c.134,3.837,3.282,6.874,6.7,7.674,4.319,1.009,8.249-1.433,11.623-4.124,2.843,1.306,5.942,2.039,8.909.98a8.6,8.6,0,0,0,5.755-7.415c4.885-1.475,9.9-3.579,13.358-7.7a12.9,12.9,0,0,0,3.207-7.3,7.392,7.392,0,0,0-1.447-5.279c1.207-1.756,1.256-4.472,1.032-6.745-.227.054-.453.111-.686.147-2.673.405-5.7-.753-6.866-3.192" transform="translate(-8.606 -4.022)" fill="#381f59"/>
              <path id="Trazado_610164" data-name="Trazado 610164" d="M105.82,93.532c-7.486,3.743-17.387,6.439-23,16.1s-6.63,27.924-5.952,32.678c.571,4.006,12.633,7.973,12.633,7.973s-1.348,16.731-2.695,25.266c0,0,46.789,11.566,66.1-10.668,0,0-8.085-33.912-8.085-42.447l10.106-20.213c.445.279-22.62-11.375-27.49-11.77-8.31-.673-12.038-.132-12.038-.132Z" transform="translate(-8.553 -10.051)" fill="#ebaf52"/>
              <path id="Trazado_610165" data-name="Trazado 610165" d="M201.736,158.136l-69.613,14.49a4.309,4.309,0,0,1-5.107-3.387l-10.96-55.653a4.31,4.31,0,0,1,3.35-5.052l69.7-14.509Z" transform="translate(-12.936 -10.488)" fill="#9cb3e7"/>
              <path id="Trazado_610166" data-name="Trazado 610166" d="M214.006,95.534l-15.713-1.509,12.625,64.111,13.864-6.84a4.055,4.055,0,0,0,2.186-4.412L217.6,98.8a4.056,4.056,0,0,0-3.593-3.261" transform="translate(-22.118 -10.488)" fill="#7695cc"/>
              <path id="Trazado_610167" data-name="Trazado 610167" d="M109.478,81.238v11.08s12.935,2.154,21.62-3.087l-2.211-10.015Z" transform="translate(-12.211 -8.836)" fill="#cf9585"/>
              <path id="Trazado_610168" data-name="Trazado 610168" d="M116.652,89.886a23.219,23.219,0,0,0,13.153-6.509l-.919-4.162-19.408,2.021v8.581a18.576,18.576,0,0,0,7.174.068" transform="translate(-12.211 -8.836)" fill="#b77967"/>
              <path id="Trazado_610169" data-name="Trazado 610169" d="M129.327,48.75c4.428,19.03,2.537,30.825-11.163,33.522-15.57,3.064-20.956-12.308-20.956-12.308s-5.031,1.72-6.751-3.311,3.651-5.865,3.651-5.865,5.814-4.457,6.114-11.378c0,0,7.3,2.087,10.623-4.365,0,0,6.738,3.012,9.293-.4,0,0,5.369,6.075,9.188,4.107" transform="translate(-10.052 -4.979)" fill="#cf9585"/>
              <path id="Trazado_610170" data-name="Trazado 610170" d="M129.833,48.75c-3.82,1.967-9.188-4.107-9.188-4.107-2.555,3.414-9.293.4-9.293.4-3.326,6.451-10.623,4.364-10.623,4.364-.292,6.72-5.766,11.1-6.084,11.354A7.1,7.1,0,0,0,99.3,58.658a13.413,13.413,0,0,0,3.193-6.241,5.436,5.436,0,0,0,5.014-.4,13.826,13.826,0,0,0,3.777-3.584,7.081,7.081,0,0,0,9.091-.112c2.114,1.649,4.417,3.371,7.1,3.485a8.3,8.3,0,0,0,2.932-.466c-.178-.849-.364-1.709-.569-2.59" transform="translate(-10.557 -4.979)" fill="#b77967"/>
              <path id="Trazado_610171" data-name="Trazado 610171" d="M96.421,68.233a.9.9,0,0,0,.025-.314.776.776,0,0,0-.6-.652,2.538,2.538,0,0,0-1.406-1,1.872,1.872,0,0,0-1.253.176,1.058,1.058,0,0,0-.423.379c-.05.093-.125.375.045.415a.835.835,0,0,0,.418-.031.8.8,0,0,1,.111-.023c-.053.007.01,0,.031,0,.07,0,.139,0,.209.008h.019l.013,0c.037.009.076.015.112.026s.076.025.113.038h.005l.01.007c.062.035.126.068.189.1a1.186,1.186,0,0,1,.1.06c.012.007.066.05.074.053l.018.017c.034.03.066.061.1.094s.061.068.092.1l0,0v0c.044.065.08.133.122.2l0,0a3.007,3.007,0,0,0-.394.74,1.591,1.591,0,0,0-.131.742,1.3,1.3,0,0,0,.6,1.042,1.31,1.31,0,0,0,.992.114,1.447,1.447,0,0,0,1.037-1.326,2.075,2.075,0,0,0-.23-.982" transform="translate(-10.34 -7.387)" fill="#b77967"/>
              <path id="Trazado_610172" data-name="Trazado 610172" d="M123.066,97.092a25.259,25.259,0,0,0,7.99-3.444,29.149,29.149,0,0,0,2.868-2.215c-.6-.217-1.152-.4-1.647-.544-.631.528-1.278,1.034-1.957,1.5a24.093,24.093,0,0,1-7.636,3.315,27.414,27.414,0,0,1-9.384.911,30.759,30.759,0,0,1-4.877-.766c-.869-.211-1.718-.484-2.568-.755l-.71.317a21.687,21.687,0,0,0,7.952,2.344,26.7,26.7,0,0,0,9.969-.662" transform="translate(-11.728 -10.138)" fill="#eb7e2e"/>
              <path id="Trazado_610173" data-name="Trazado 610173" d="M165.852,217.447a10.1,10.1,0,0,0-1.3-.614c-.415-.149-.839-.275-1.258-.41l-.994-.318c.036-.023.077-.036.114-.061.943-.647,1.523-1.581,2.552-2.121.722-.378.293-1.318-.378-1.394a3.176,3.176,0,0,0-2.487,1.328,3.8,3.8,0,0,1-3.46,1.16c-3.1-.278-6.215-1.039-9.278-1.584s-6.147-1.1-9.228-1.619c-2.887-.485-5.918-1.2-8.8-.353.426-1.632.84-3.267,1.223-4.91a34.419,34.419,0,0,0,1.178-5.827c.05-.962-1.306-1.04-1.6-.216a50.712,50.712,0,0,0-1.275,5.8q-.625,2.793-1.331,5.569c-.472,1.849-.868,3.719-1.324,5.572q-.353,1.442-.729,2.878a8.75,8.75,0,0,0-.5,2.557c.007.163.238.3.359.149,1.015-1.294,1.406-3.315,1.93-4.852.646-1.894,1.3-3.8,1.82-5.739a.443.443,0,0,0,.247.053c3.214-.228,6.347.515,9.484,1.11,3.216.61,6.442,1.168,9.665,1.746a68.981,68.981,0,0,0,8.688,1.482,6.45,6.45,0,0,0,1.126-.056c.034,1.93.281,3.868.31,5.8.016,1.054.01,2.107.016,3.16,0,.506-.016,1.011,0,1.516.015.609.145,1.164.213,1.765a.1.1,0,0,0,.2.028,12.968,12.968,0,0,0,.463-1.674c.071-.458.107-.921.153-1.382.112-1.136.17-2.272.2-3.413.046-1.653.139-3.365.038-5.039l.833.359c.427.185.852.376,1.285.548a8.988,8.988,0,0,0,1.272.359.745.745,0,0,0,.873-.429.737.737,0,0,0-.3-.925" transform="translate(-14.163 -22.302)" fill="#381f59"/>
              <path id="Trazado_610174" data-name="Trazado 610174" d="M184.684,255.182c.135-.576.274-1.228.414-1.948a38.046,38.046,0,0,1-8.3.182,40.319,40.319,0,0,1-12.9-3.616c-.02.455-.037.891-.054,1.3a35.726,35.726,0,0,0,12.583,3.911,37.506,37.506,0,0,0,8.262.169" transform="translate(-18.275 -27.863)" fill="#381f59"/>
              <path id="Trazado_610175" data-name="Trazado 610175" d="M91.047,300.391a53.46,53.46,0,0,1-7.309-2.121c-.9-.328-1.781-.694-2.666-1.062-.053.457-.1.882-.147,1.282.823.4,1.651.771,2.473,1.119a47.9,47.9,0,0,0,7.79,2.581A37.361,37.361,0,0,0,99.07,303.2q1.063.017,2.127-.036c.219-.6.467-1.3.737-2.083-1.019.1-2.043.158-3.066.158a37.945,37.945,0,0,1-7.821-.847" transform="translate(-9.026 -33.151)" fill="#381f59"/>
              <path id="Trazado_610176" data-name="Trazado 610176" d="M125.412,162.349a69.823,69.823,0,0,0,11.069-1.518,34.546,34.546,0,0,0,14.737-7,7.2,7.2,0,0,1,1.978-1.382,6.778,6.778,0,0,1,1.867-.329,47,47,0,0,0,6.814-1.111,14.759,14.759,0,0,0,5.87-2.509,6.318,6.318,0,0,0,2.555-5.594,1.373,1.373,0,0,0-.37-.855,1.619,1.619,0,0,0-1.4-.154l-9.6,1.909-22.08,4.393-13.694,2.724Z" transform="translate(-13.738 -15.819)" fill="#7695cc"/>
              <path id="Trazado_610177" data-name="Trazado 610177" d="M149.778,138.046c3.286-.814,6.4-4.562,9.264-6.422s4.239.512.524,5.3a61.08,61.08,0,0,0,8.376-3.943c2.783-1.791,3.766.772,3,1.834a20.9,20.9,0,0,1-3.251,2.878,34.14,34.14,0,0,0,4.686-2.079c1.195-.8,2.975,1.231,1.237,3.11a2.709,2.709,0,0,1-.362,3.35s.527.872-.936,2.174-7.963,2.626-10.956,3.348a42.755,42.755,0,0,1-9.9.657c-2.624-.074-5.291-9.318-1.683-10.212" transform="translate(-16.511 -14.611)" fill="#cf9585"/>
              <path id="Trazado_610178" data-name="Trazado 610178" d="M155.19,144.49a26.921,26.921,0,0,0-4.561-5.875,6.626,6.626,0,0,1-.851.282c-3.607.895-.941,10.138,1.683,10.212,1.438.041,3.374.051,5.324-.062a14.6,14.6,0,0,0-1.594-4.556" transform="translate(-16.511 -15.461)" fill="#b77967"/>
              <path id="Trazado_610179" data-name="Trazado 610179" d="M103.2,136.333c12.195,1.492,37.973.538,40,1.462s5.535,10.842,3.119,12.739-30.258,9.438-41.656,7.413-1.461-21.614-1.461-21.614" transform="translate(-11.064 -15.207)" fill="#ebaf52"/>
              <path id="Trazado_610180" data-name="Trazado 610180" d="M149.8,170.842a61.493,61.493,0,0,1-21.893,8.991,64.608,64.608,0,0,1-12.549.964c-4.437-.032-8.879-.13-13.306-.45a114.574,114.574,0,0,1-14.328-1.99,14.191,14.191,0,0,0,.841-5.233c.064-2.222.234-4.416.474-6.626.245-2.25.566-4.49.858-6.735.146-1.121.282-2.242.379-3.37a17.092,17.092,0,0,0,.141-2.916,59.9,59.9,0,0,0,13.022,2.093,106.69,106.69,0,0,0,13.908-.192,91.609,91.609,0,0,0,13.188-1.843,60.672,60.672,0,0,0,7.05-2.057c1.188-.418,2.371-.839,3.537-1.315,1-.41,2.44-.605,3.188-1.464.7-.806.434-2.01.47-2.986a17.9,17.9,0,0,0-.149-3.03,10.76,10.76,0,0,0-1.7-5.15c-2.327-3.061-6.457-3.1-9.931-2.95a148.368,148.368,0,0,1-25.527-1.239q-3.6-.466-7.191-1c-1.184-.177-2.378-.387-3.574-.56a8.033,8.033,0,0,0,.007-1.3q-.021-1.028.035-2.054a29.3,29.3,0,0,1,.489-3.994,31.811,31.811,0,0,1,1.033-3.867c.213-.649.458-1.285.707-1.921a4.171,4.171,0,0,0,.53-1.8.239.239,0,0,0-.355-.2,3.286,3.286,0,0,0-1.116,1.5c-.323.619-.6,1.266-.863,1.914a25.032,25.032,0,0,0-1.231,4.025,26.866,26.866,0,0,0-.593,4.146q-.065,1.025-.053,2.053a8.6,8.6,0,0,0,.067,1.336c-.725-.083-1.451-.148-2.176-.169-.189-.005-.2.255-.043.314a23.193,23.193,0,0,0,2.67.764.549.549,0,0,0,.362.087c.976.215,1.961.394,2.932.573q3.024.554,6.065,1.01c4.031.6,8.091,1.039,12.155,1.338,4.082.3,8.183.423,12.275.325,2.01-.049,4.023-.234,6.034-.216a14.879,14.879,0,0,1,2.4.2,35.421,35.421,0,0,1,2.122,5.913,24.1,24.1,0,0,1,.721,4.985,21.191,21.191,0,0,1-.131,2.6c-.93.376-1.868.732-2.816,1.06-2.035.7-4.176,1.217-6.27,1.72a89.085,89.085,0,0,1-12.848,2.068c-8.933.8-18.165.858-26.921-1.3a48.49,48.49,0,0,1-13.231-5.392c-.173-.1-.307.148-.155.263a36.069,36.069,0,0,0,11.057,5.463,23.573,23.573,0,0,0-.381,3.176q-.185,1.574-.38,3.146c-.274,2.207-.579,4.41-.817,6.622-.229,2.142-.322,4.292-.346,6.446a17.027,17.027,0,0,1-.881,6.018.316.316,0,0,0,.144.394.444.444,0,0,0,.183.1,71.924,71.924,0,0,0,13.181,2.158c4.442.389,8.91.494,13.367.556a77.6,77.6,0,0,0,12.964-.693,57.191,57.191,0,0,0,11.662-3.093,51.83,51.83,0,0,0,12.016-6.381c.49-.355.044-1.168-.483-.827m-10.964-34.834a7.117,7.117,0,0,1,1.945.807c1.772,1.088,2.427,2.958,2.806,4.905a31.156,31.156,0,0,1,.456,6.293c-.471.2-.962.339-1.433.541l-.386.165c0-.556-.029-1.11-.073-1.639a26.02,26.02,0,0,0-.993-5.24,35.283,35.283,0,0,0-2.321-5.832" transform="translate(-8.75 -13.007)" fill="#eb7e2e"/>
              <path id="Trazado_610181" data-name="Trazado 610181" d="M163.089,132.758c-.021-.1-.148-.093-.2-.026a3.38,3.38,0,0,0-.331.778,8.792,8.792,0,0,1-.39.828,8.883,8.883,0,0,1-.991,1.478,10.057,10.057,0,0,1-1.232,1.236,7.024,7.024,0,0,0-1.406,1.154.355.355,0,0,0,.3.53,3.157,3.157,0,0,0,1.709-1.018,8.1,8.1,0,0,0,1.255-1.47,8.472,8.472,0,0,0,.878-1.693,7.591,7.591,0,0,0,.286-.888,2.094,2.094,0,0,0,.117-.911" transform="translate(-17.678 -14.799)" fill="#b77967"/>
              <path id="Trazado_610182" data-name="Trazado 610182" d="M173.017,134.115a.1.1,0,0,0-.179-.023c-.2.342-.337.713-.569,1.038a5.8,5.8,0,0,1-.883.948,16.911,16.911,0,0,1-2.207,1.637c-.749.471-1.541.886-2.332,1.28-.4.2-.81.388-1.226.559a3.4,3.4,0,0,0-1.175.6.36.36,0,0,0,.251.608,3.037,3.037,0,0,0,1.436-.394c.426-.178.848-.367,1.259-.575a16.42,16.42,0,0,0,2.535-1.628,15.684,15.684,0,0,0,2.127-1.882,2.759,2.759,0,0,0,.963-2.167" transform="translate(-18.33 -14.951)" fill="#b77967"/>
              <path id="Trazado_610183" data-name="Trazado 610183" d="M175.909,139.539c.057-.074.124-.137.175-.215a2.119,2.119,0,0,0,.131-2.422.04.04,0,0,0-.068.028,2.889,2.889,0,0,1-.947,2.45,10.4,10.4,0,0,1-2.462,1.49,23.838,23.838,0,0,1-2.689,1.1c-.923.317-1.907.484-2.811.848-.341.137-.331.691.092.685a10.628,10.628,0,0,0,3.326-.825,20.506,20.506,0,0,0,3.049-1.416,8.64,8.64,0,0,0,1.819-1.278,1.779,1.779,0,0,1,.126.155,1.287,1.287,0,0,1,.195.484,1.749,1.749,0,0,1-.19,1.142,4.379,4.379,0,0,1-2.033,1.665,14.235,14.235,0,0,1-2.633.943,15.879,15.879,0,0,0-2.7.738c-.145.068-.059.267.076.277a6.166,6.166,0,0,0,1.666-.18c.53-.1,1.06-.216,1.579-.362a11.646,11.646,0,0,0,3.07-1.318,6.752,6.752,0,0,0,.57-.4,1,1,0,0,1-.01.227,2.375,2.375,0,0,1-.347.815,3.783,3.783,0,0,1-1.443,1.227,10.552,10.552,0,0,1-1.878.736c-.664.2-1.35.3-2.011.515a.033.033,0,0,0,0,.063,5.269,5.269,0,0,0,2.382-.083,7.549,7.549,0,0,0,2.255-.878,3.8,3.8,0,0,0,1.525-1.554c.163-.34.495-1.3.172-1.694a2.478,2.478,0,0,0,.54-1.055,2.248,2.248,0,0,0-.068-1.231,1.507,1.507,0,0,0-.456-.681" transform="translate(-18.627 -15.269)" fill="#b77967"/>
              <path id="Trazado_610184" data-name="Trazado 610184" d="M107.993,57.1l-.023.012c.167-.044.1-.046.023-.012" transform="translate(-12.043 -6.367)" fill="#42346e"/>
              <path id="Trazado_610185" data-name="Trazado 610185" d="M109.851,55.459a1.271,1.271,0,0,0-1.433-.744,4.677,4.677,0,0,0-2.065.7,3.621,3.621,0,0,0-.895.781A1.813,1.813,0,0,0,104.9,57.7a.73.73,0,0,0,.891.506,1.538,1.538,0,0,0,.217-.088c.278-.147.163-.131.075-.057a2.089,2.089,0,0,0,.292-.251,3.315,3.315,0,0,1,.307-.324c.059-.054.12-.1.181-.156l0,0,.008-.006c.052-.04.1-.08.155-.122l.01-.009.013-.009c.072-.052.146-.1.221-.146a3.626,3.626,0,0,1,.352-.189l-.031.009c.032-.008.069-.028.1-.038.075-.028.15-.053.227-.076a3.673,3.673,0,0,1,.4-.093l-.058,0a.723.723,0,0,0,.087-.009l.01,0a.17.17,0,0,1,.063,0l.21-.011a1.81,1.81,0,0,0,.309-.036c.061-.011.18-.026-.1.011a1.269,1.269,0,0,0,.561-.156c.046-.029.351-.274.069-.053a1,1,0,0,0,.3-.3.815.815,0,0,0,.084-.638" transform="translate(-11.697 -6.102)" fill="#42346e"/>
              <path id="Trazado_610186" data-name="Trazado 610186" d="M108.78,56.887l-.029.006c.087,0,.114-.008.1-.011l-.055,0-.018,0" transform="translate(-12.13 -6.345)" fill="#42346e"/>
              <path id="Trazado_610187" data-name="Trazado 610187" d="M126.135,52.949a1.885,1.885,0,0,0-1.392-1.134,3.726,3.726,0,0,0-1.422-.163,3.688,3.688,0,0,0-1.488.443c-.529.291-1.125.776-.986,1.45a.611.611,0,0,0,.574.438.817.817,0,0,0,.412-.094c.068-.03.259-.111.2-.079.032-.017.06-.035.091-.054.083-.052.163-.108.249-.155.039-.022.079-.043.119-.062s.162-.061.056-.027l.05-.017c.042-.015.084-.028.127-.042.085-.026.172-.048.26-.066.044-.01.089-.017.132-.025l.026,0,.063-.008h.009c.054,0,.107-.01.162-.012q.135-.008.269,0c.052,0,.131.016.2.02-.041-.008-.063-.021.032,0l.008,0c.009,0,.023,0,.031,0a.186.186,0,0,1-.023,0l.115.024c.087.02.173.044.259.071l.1.039c-.043-.02-.088-.047-.009-.008.009,0,.017.01.026.013l.03.01s-.012,0-.022-.005q.115.057.227.12c.078.044.157.084.237.124a1.543,1.543,0,0,0,.566.14.745.745,0,0,0,.713-.936" transform="translate(-13.477 -5.76)" fill="#42346e"/>
              <path id="Trazado_610188" data-name="Trazado 610188" d="M124.814,53.722l.025.01-.008,0-.017-.005" transform="translate(-13.922 -5.992)" fill="#42346e"/>
              <path id="Trazado_610189" data-name="Trazado 610189" d="M122.007,54.149l-.051.02c-.037.017-.041.019.051-.02" transform="translate(-13.6 -6.04)" fill="#42346e"/>
              <path id="Trazado_610190" data-name="Trazado 610190" d="M124.221,53.569a.173.173,0,0,0,.048,0h-.008a.3.3,0,0,1-.04,0" transform="translate(-13.856 -5.975)" fill="#42346e"/>
              <path id="Trazado_610191" data-name="Trazado 610191" d="M111.383,63.871c.228-1.662-.73-3.778-2.36-3.879a1.6,1.6,0,0,0-1.087.372,2.076,2.076,0,0,0-.694,1.05,3.942,3.942,0,0,0,.26,2.4,2.664,2.664,0,0,0,1.429,1.651,1.327,1.327,0,0,0,.329.2,1.376,1.376,0,0,0,1.323-.235,2.361,2.361,0,0,0,.8-1.56" transform="translate(-11.952 -6.691)" fill="#381f59"/>
              <path id="Trazado_610192" data-name="Trazado 610192" d="M126.48,61.107c.345-1.642-.463-3.819-2.082-4.034a1.588,1.588,0,0,0-1.11.295,2.069,2.069,0,0,0-.766,1,3.936,3.936,0,0,0,.091,2.414,2.664,2.664,0,0,0,1.309,1.748,1.345,1.345,0,0,0,.315.222,1.376,1.376,0,0,0,1.336-.141,2.367,2.367,0,0,0,.907-1.5" transform="translate(-13.649 -6.365)" fill="#381f59"/>
              <path id="Trazado_610193" data-name="Trazado 610193" d="M116.178,67.029s.009-.006.012-.011c.019-.028.028-.042-.012.011" transform="translate(-12.959 -7.472)" fill="#b77967"/>
              <path id="Trazado_610194" data-name="Trazado 610194" d="M120.134,65.951a.624.624,0,0,0-.743-.1,3.814,3.814,0,0,0-.448.37l-.086.073-.005,0c-.066.044-.13.089-.2.129s-.137.076-.207.111l-.046.021-.07.029a2.966,2.966,0,0,1-.454.127l-.092.016-.015,0h-.021c-.078.006-.156.012-.235.013-.147,0-.3.006-.444,0s-.3,0-.45-.021a.578.578,0,0,0-.283.019.377.377,0,0,0-.15.129.41.41,0,0,0-.042.076c-.129.405.521.688.815.793a2.486,2.486,0,0,0,1.119.093,3.737,3.737,0,0,0,1.2-.346,2.024,2.024,0,0,0,.952-.8.629.629,0,0,0-.1-.743" transform="translate(-12.953 -7.336)" fill="#b77967"/>
              <path id="Trazado_610195" data-name="Trazado 610195" d="M107.419,60.655a1,1,0,0,0,0,1.99,1,1,0,0,0,0-1.99" transform="translate(-11.874 -6.765)" fill="#fff"/>
              <path id="Trazado_610196" data-name="Trazado 610196" d="M122.586,57.133a1,1,0,0,0,0,1.99,1,1,0,0,0,0-1.99" transform="translate(-13.566 -6.373)" fill="#fff"/>
              <path id="Trazado_610197" data-name="Trazado 610197" d="M113.986,71.509c-.145-.8,8.983-2.358,9.881-1.909s-.673,3.931-3.818,4.492-5.839-1.348-6.064-2.583" transform="translate(-12.714 -7.754)" fill="#fff"/>
              <path id="Trazado_610198" data-name="Trazado 610198" d="M117.825,402.466H48.941a3.242,3.242,0,0,1-3.242-3.242V334.05a3.242,3.242,0,0,1,3.242-3.242h68.884Z" transform="translate(-5.097 -36.898)" fill="#9cb3e7"/>
              <path id="Trazado_610199" data-name="Trazado 610199" d="M143.366,338.816l-16.486-8.008v71.658l16.411-6.643a1.219,1.219,0,0,0,.762-1.13v-54.78a1.22,1.22,0,0,0-.687-1.1" transform="translate(-14.152 -36.898)" fill="#7695cc"/>
              <path id="Trazado_610200" data-name="Trazado 610200" d="M223.489,397.556H154.6a3.242,3.242,0,0,1-3.242-3.242V290.033a3.242,3.242,0,0,1,3.242-3.242h68.884Z" transform="translate(-16.883 -31.989)" fill="#9cb3e7"/>
              <path id="Trazado_610201" data-name="Trazado 610201" d="M249.229,299.319l-16.685-12.528V397.556l16.6-10.386a1.22,1.22,0,0,0,.572-1.034V300.295a1.22,1.22,0,0,0-.487-.976" transform="translate(-25.938 -31.989)" fill="#7695cc"/>
              <path id="Trazado_610202" data-name="Trazado 610202" d="M330.764,397.556H261.88a3.242,3.242,0,0,1-3.242-3.242V290.033a3.242,3.242,0,0,1,3.242-3.242h68.884Z" transform="translate(-28.849 -31.989)" fill="#9cb3e7"/>
              <path id="Trazado_610203" data-name="Trazado 610203" d="M356.5,299.319l-16.685-12.528V397.556l16.6-10.386a1.22,1.22,0,0,0,.572-1.034V300.295a1.22,1.22,0,0,0-.487-.976" transform="translate(-37.904 -31.989)" fill="#7695cc"/>
              <path id="Trazado_610204" data-name="Trazado 610204" d="M201.208,249.415l30.735-78.455,39.228,27.9,32.352-62.077,24.467,15.165-47.923,85.533-44.89-46.3Z" transform="translate(-22.443 -15.257)" fill="#a3cac1"/>
              <path id="Trazado_610205" data-name="Trazado 610205" d="M299.3,126.864l53.989,32.353L345.6,107.655Z" transform="translate(-33.384 -12.008)" fill="#a3cac1"/>
              <path id="Trazado_610206" data-name="Trazado 610206" d="M191.105,73.735l.393,1.922a1.252,1.252,0,0,0,.976.976l1.922.393a1.252,1.252,0,0,1,0,2.454l-1.922.393a1.252,1.252,0,0,0-.976.976l-.393,1.922a1.252,1.252,0,0,1-2.453,0l-.393-1.922a1.252,1.252,0,0,0-.976-.976l-1.921-.393a1.252,1.252,0,0,1,0-2.454l1.921-.393a1.252,1.252,0,0,0,.976-.976l.393-1.922a1.252,1.252,0,0,1,2.453,0" transform="translate(-20.564 -8.113)" fill="#ffde94"/>
              <path id="Trazado_610207" data-name="Trazado 610207" d="M80.375,1l.393,1.922a1.252,1.252,0,0,0,.976.976l1.921.393a1.252,1.252,0,0,1,0,2.453l-1.921.394a1.252,1.252,0,0,0-.976.976l-.393,1.922a1.252,1.252,0,0,1-2.453,0l-.393-1.922a1.252,1.252,0,0,0-.976-.976l-1.922-.394a1.252,1.252,0,0,1,0-2.453L76.553,3.9a1.252,1.252,0,0,0,.976-.976L77.922,1a1.252,1.252,0,0,1,2.453,0" transform="translate(-8.213 0)" fill="#ffde94"/>
              <path id="Trazado_610208" data-name="Trazado 610208" d="M221.218,255.865l.393,1.922a1.252,1.252,0,0,0,.976.976l1.922.393a1.252,1.252,0,0,1,0,2.454l-1.922.393a1.252,1.252,0,0,0-.976.975l-.393,1.922a1.252,1.252,0,0,1-2.453,0l-.393-1.922A1.252,1.252,0,0,0,217.4,262l-1.922-.393a1.253,1.253,0,0,1,0-2.454l1.922-.393a1.252,1.252,0,0,0,.976-.976l.393-1.922a1.252,1.252,0,0,1,2.453,0" transform="translate(-23.922 -28.428)" fill="#ffde94"/>
              <path id="Trazado_610210" data-name="Trazado 610210" d="M208.548,55.672l.6,2.921a1.9,1.9,0,0,0,1.484,1.484l2.921.6a1.9,1.9,0,0,1,0,3.73l-2.921.6a1.9,1.9,0,0,0-1.484,1.484l-.6,2.921a1.9,1.9,0,0,1-3.73,0l-.6-2.921A1.9,1.9,0,0,0,202.737,65l-2.921-.6a1.9,1.9,0,0,1,0-3.73l2.921-.6a1.9,1.9,0,0,0,1.484-1.484l.6-2.921a1.9,1.9,0,0,1,3.73,0" transform="translate(-22.118 -6.04)" fill="#ffde94"/>
              <path id="Trazado_610211" data-name="Trazado 610211" d="M376.535,280.252l.6,2.921a1.9,1.9,0,0,0,1.484,1.484l2.921.6a1.9,1.9,0,0,1,0,3.73l-2.921.6a1.9,1.9,0,0,0-1.484,1.484l-.6,2.921a1.9,1.9,0,0,1-3.73,0l-.6-2.921a1.9,1.9,0,0,0-1.484-1.484l-2.921-.6a1.9,1.9,0,0,1,0-3.73l2.921-.6a1.9,1.9,0,0,0,1.484-1.484l.6-2.921a1.9,1.9,0,0,1,3.73,0" transform="translate(-40.855 -31.09)" fill="#ffde94"/>
              <path id="Trazado_610212" data-name="Trazado 610212" d="M10.254,166.695l.6,2.921a1.9,1.9,0,0,0,1.484,1.484l2.921.6a1.9,1.9,0,0,1,0,3.73l-2.921.6a1.9,1.9,0,0,0-1.484,1.484l-.6,2.921a1.9,1.9,0,0,1-3.73,0l-.6-2.921a1.9,1.9,0,0,0-1.484-1.484l-2.921-.6a1.9,1.9,0,0,1,0-3.73l2.921-.6a1.9,1.9,0,0,0,1.484-1.484l.6-2.921a1.9,1.9,0,0,1,3.73,0" transform="translate(0 -18.423)" fill="#ffde94"/>
            </g>
          </g>
        </g>
        <rect id="Rectángulo_377935" data-name="Rectángulo 377935" width="400" height="92" rx="13" transform="translate(285 1883.462)" fill="#ffe7af"/>
        <rect id="Rectángulo_377936" data-name="Rectángulo 377936" width="258" height="92" rx="13" transform="translate(285 1982.462)" fill="#c3d7f5"/>
        <rect id="Rectángulo_377937" data-name="Rectángulo 377937" width="129.5" height="92" rx="13" transform="translate(285 2081.462)" fill="#e7effb"/>
        <rect id="Rectángulo_377938" data-name="Rectángulo 377938" width="123.5" height="92" rx="13" transform="translate(419.5 2081.462)" fill="#e7effb"/>
        <rect id="Rectángulo_377939" data-name="Rectángulo 377939" width="133.5" height="92" rx="13" transform="translate(551.5 2081.462)" fill="#dffaff"/>
        <rect id="Rectángulo_377940" data-name="Rectángulo 377940" width="133.5" height="92" rx="15" transform="translate(551.5 1982.137)" fill="#94eeff"/>
        <path id="Trazado_610576" data-name="Trazado 610576" d="M4.052-4.342V0H.967V-12.8H6.073a5.948,5.948,0,0,1,2.6.541,4.074,4.074,0,0,1,1.749,1.538,4.2,4.2,0,0,1,.62,2.263A3.7,3.7,0,0,1,9.7-5.462,5.561,5.561,0,0,1,6.021-4.342Zm0-2.382H6.073A1.906,1.906,0,0,0,7.44-7.172a1.665,1.665,0,0,0,.47-1.266A2.059,2.059,0,0,0,7.427-9.87a1.712,1.712,0,0,0-1.318-.545H4.052ZM18.3-6.829l-.976-.07a1.752,1.752,0,0,0-1.793.879V0H12.568V-9.51h2.777l.1,1.222a2.294,2.294,0,0,1,2.083-1.4,2.888,2.888,0,0,1,.826.105Zm.378,1.986a5.613,5.613,0,0,1,.554-2.536,3.96,3.96,0,0,1,1.591-1.709,4.791,4.791,0,0,1,2.435-.6,4.373,4.373,0,0,1,3.366,1.323,5.076,5.076,0,0,1,1.23,3.6v.105a4.925,4.925,0,0,1-1.235,3.529A4.384,4.384,0,0,1,23.273.176a4.434,4.434,0,0,1-3.261-1.217,4.761,4.761,0,0,1-1.327-3.3Zm2.962.185a3.538,3.538,0,0,0,.413,1.934,1.376,1.376,0,0,0,1.222.615q1.582,0,1.617-2.435v-.3q0-2.558-1.635-2.558-1.485,0-1.608,2.206Zm11.188.51L34.409-9.51h3.173l-3.876,11.1-.167.4a2.944,2.944,0,0,1-2.918,1.846A4.642,4.642,0,0,1,29.4,3.666V1.556h.387a2.026,2.026,0,0,0,.954-.18,1.094,1.094,0,0,0,.488-.647L31.465.1,28.16-9.51h3.164ZM42.838.176A4.889,4.889,0,0,1,39.3-1.129a4.507,4.507,0,0,1-1.354-3.4v-.246a5.84,5.84,0,0,1,.541-2.575,3.955,3.955,0,0,1,1.578-1.727,4.763,4.763,0,0,1,2.461-.611,4.117,4.117,0,0,1,3.164,1.244,4.887,4.887,0,0,1,1.16,3.467v1.151H40.957a2.135,2.135,0,0,0,.694,1.257,2.066,2.066,0,0,0,1.389.457,2.662,2.662,0,0,0,2.2-.984l1.354,1.6A3.784,3.784,0,0,1,45.022-.277,5.3,5.3,0,0,1,42.838.176ZM42.5-7.4q-1.3,0-1.547,1.723h2.988v-.229a1.467,1.467,0,0,0-.36-1.1A1.434,1.434,0,0,0,42.5-7.4Zm9.554,5.291a1.317,1.317,0,0,0,.967-.338,1.241,1.241,0,0,0,.334-.945h2.777A3.288,3.288,0,0,1,55.015-.826a4.168,4.168,0,0,1-2.887,1,4.22,4.22,0,0,1-3.27-1.3,5.125,5.125,0,0,1-1.2-3.6v-.123A5.792,5.792,0,0,1,48.195-7.4a3.872,3.872,0,0,1,1.534-1.7A4.573,4.573,0,0,1,52.1-9.686a4.116,4.116,0,0,1,2.944,1.028,3.647,3.647,0,0,1,1.09,2.786H53.358A1.626,1.626,0,0,0,53-7a1.244,1.244,0,0,0-.967-.4q-1.151,0-1.345,1.468a10.357,10.357,0,0,0-.062,1.283,4.068,4.068,0,0,0,.343,1.986A1.187,1.187,0,0,0,52.058-2.109Zm8.78-9.765V-9.51H62.4v2.057H60.838V-3.1a1.111,1.111,0,0,0,.193.747,1.037,1.037,0,0,0,.765.211,4.345,4.345,0,0,0,.738-.053V-.079a5.466,5.466,0,0,1-1.67.255,3.1,3.1,0,0,1-2.259-.721,2.954,2.954,0,0,1-.729-2.188v-4.72H56.663V-9.51h1.213v-2.364ZM62.93-4.843a5.613,5.613,0,0,1,.554-2.536,3.96,3.96,0,0,1,1.591-1.709,4.791,4.791,0,0,1,2.435-.6,4.373,4.373,0,0,1,3.366,1.323,5.076,5.076,0,0,1,1.23,3.6v.105a4.925,4.925,0,0,1-1.235,3.529A4.384,4.384,0,0,1,67.526.176a4.434,4.434,0,0,1-3.261-1.217,4.761,4.761,0,0,1-1.327-3.3Zm2.962.185A3.538,3.538,0,0,0,66.3-2.725a1.376,1.376,0,0,0,1.222.615q1.582,0,1.617-2.435v-.3q0-2.558-1.635-2.558-1.485,0-1.608,2.206ZM77.52-4.825a5.809,5.809,0,0,1,.976-3.56,3.211,3.211,0,0,1,2.725-1.3,2.731,2.731,0,0,1,2.145,1V-13.5h2.971V0H83.672l-.149-1.02A2.8,2.8,0,0,1,81.2.176a3.205,3.205,0,0,1-2.689-1.3A5.993,5.993,0,0,1,77.52-4.825Zm2.962.185q0,2.531,1.477,2.531a1.458,1.458,0,0,0,1.406-.826V-6.557A1.419,1.419,0,0,0,81.976-7.4Q80.6-7.4,80.49-5.186ZM92.619.176a4.889,4.889,0,0,1-3.542-1.305,4.507,4.507,0,0,1-1.354-3.4v-.246a5.84,5.84,0,0,1,.541-2.575,3.955,3.955,0,0,1,1.578-1.727A4.763,4.763,0,0,1,92.3-9.686a4.117,4.117,0,0,1,3.164,1.244,4.887,4.887,0,0,1,1.16,3.467v1.151H90.738a2.135,2.135,0,0,0,.694,1.257,2.066,2.066,0,0,0,1.389.457,2.662,2.662,0,0,0,2.2-.984l1.354,1.6A3.784,3.784,0,0,1,94.8-.277,5.3,5.3,0,0,1,92.619.176ZM92.285-7.4q-1.3,0-1.547,1.723h2.988v-.229a1.467,1.467,0,0,0-.36-1.1A1.434,1.434,0,0,0,92.285-7.4Zm13.808,3.876,1.5-5.985h3.12L107.613,0H104.59l-3.1-9.51h3.129ZM114.724,0h-2.971V-9.51h2.971Zm-3.146-11.962A1.322,1.322,0,0,1,112.034-13a1.724,1.724,0,0,1,1.187-.4,1.724,1.724,0,0,1,1.187.4,1.322,1.322,0,0,1,.457,1.037,1.322,1.322,0,0,1-.457,1.037,1.724,1.724,0,0,1-1.187.4,1.724,1.724,0,0,1-1.187-.4A1.322,1.322,0,0,1,111.577-11.962Zm4.6,7.137a5.809,5.809,0,0,1,.976-3.56,3.211,3.211,0,0,1,2.725-1.3,2.731,2.731,0,0,1,2.145,1V-13.5h2.971V0h-2.663l-.149-1.02a2.8,2.8,0,0,1-2.32,1.2,3.205,3.205,0,0,1-2.689-1.3A5.993,5.993,0,0,1,116.174-4.825Zm2.962.185q0,2.531,1.477,2.531a1.458,1.458,0,0,0,1.406-.826V-6.557A1.419,1.419,0,0,0,120.63-7.4q-1.371,0-1.485,2.215ZM132.029,0a3.344,3.344,0,0,1-.281-.853A2.754,2.754,0,0,1,129.463.176a3.374,3.374,0,0,1-2.285-.813,2.588,2.588,0,0,1-.94-2.043,2.66,2.66,0,0,1,1.143-2.338A5.821,5.821,0,0,1,130.7-5.81h.914v-.5q0-1.316-1.134-1.316a.927.927,0,0,0-1.055,1.042h-2.962a2.655,2.655,0,0,1,1.173-2.239,4.931,4.931,0,0,1,2.993-.86,4.323,4.323,0,0,1,2.874.888,3.086,3.086,0,0,1,1.081,2.435v4.21a4.311,4.311,0,0,0,.4,2V0Zm-1.854-1.934a1.652,1.652,0,0,0,.918-.237,1.487,1.487,0,0,0,.523-.536V-4.228h-.861q-1.547,0-1.547,1.389a.848.848,0,0,0,.272.655A.986.986,0,0,0,130.175-1.934Z" transform="translate(419.5 1935.462)" fill="#12263f"/>
        <path id="Trazado_610574" data-name="Trazado 610574" d="M3.665-12.8,7.849-2.355,12.032-12.8h2.188V0H12.533V-4.983l.158-5.379L8.49,0H7.2L3.006-10.336l.167,5.353V0H1.485V-12.8ZM18.712,0H17.086V-9.51h1.626ZM16.954-12.032A.971.971,0,0,1,17.2-12.7a.907.907,0,0,1,.716-.272.922.922,0,0,1,.721.272.96.96,0,0,1,.246.668.929.929,0,0,1-.246.659.938.938,0,0,1-.721.264.924.924,0,0,1-.716-.264A.938.938,0,0,1,16.954-12.032Zm9.9,9.51a1.2,1.2,0,0,0-.5-1.024,4.78,4.78,0,0,0-1.731-.628,8.186,8.186,0,0,1-1.96-.633,2.788,2.788,0,0,1-1.072-.879A2.1,2.1,0,0,1,21.243-6.9a2.467,2.467,0,0,1,.989-1.978,3.861,3.861,0,0,1,2.527-.809,3.974,3.974,0,0,1,2.624.835,2.652,2.652,0,0,1,1.006,2.136H26.754a1.468,1.468,0,0,0-.567-1.151,2.124,2.124,0,0,0-1.428-.483,2.223,2.223,0,0,0-1.389.387,1.217,1.217,0,0,0-.5,1.011.986.986,0,0,0,.466.888,5.731,5.731,0,0,0,1.683.571,8.77,8.77,0,0,1,1.973.65,2.878,2.878,0,0,1,1.121.91,2.237,2.237,0,0,1,.365,1.3,2.434,2.434,0,0,1-1.02,2.043,4.277,4.277,0,0,1-2.646.769,4.789,4.789,0,0,1-2.021-.4,3.288,3.288,0,0,1-1.375-1.129,2.722,2.722,0,0,1-.5-1.569h1.626a1.683,1.683,0,0,0,.655,1.3,2.54,2.54,0,0,0,1.613.479,2.622,2.622,0,0,0,1.481-.374A1.148,1.148,0,0,0,26.851-2.522ZM32.361,0H30.735V-9.51h1.626ZM30.6-12.032a.971.971,0,0,1,.242-.668.907.907,0,0,1,.716-.272.922.922,0,0,1,.721.272.96.96,0,0,1,.246.668.929.929,0,0,1-.246.659.938.938,0,0,1-.721.264.924.924,0,0,1-.716-.264A.938.938,0,0,1,30.6-12.032Zm3.929,7.189a5.617,5.617,0,0,1,.549-2.514,4.1,4.1,0,0,1,1.529-1.723,4.163,4.163,0,0,1,2.237-.606A4.01,4.01,0,0,1,41.99-8.341a5.174,5.174,0,0,1,1.2,3.577v.114a5.666,5.666,0,0,1-.532,2.492A4.038,4.038,0,0,1,41.137-.439a4.211,4.211,0,0,1-2.272.615,4,4,0,0,1-3.133-1.345,5.147,5.147,0,0,1-1.2-3.56Zm1.635.193a4.068,4.068,0,0,0,.734,2.54,2.349,2.349,0,0,0,1.964.958,2.335,2.335,0,0,0,1.969-.971,4.449,4.449,0,0,0,.729-2.72,4.061,4.061,0,0,0-.743-2.536,2.361,2.361,0,0,0-1.973-.971,2.335,2.335,0,0,0-1.942.958A4.416,4.416,0,0,0,36.167-4.649ZM39.586-13.5h1.969L39.2-10.916l-1.31,0Zm7.181,3.99.053,1.2a3.465,3.465,0,0,1,2.848-1.371q3.015,0,3.041,3.4V0H51.082V-6.293a2.189,2.189,0,0,0-.47-1.521,1.884,1.884,0,0,0-1.437-.492,2.347,2.347,0,0,0-1.389.422,2.865,2.865,0,0,0-.932,1.107V0H45.229V-9.51Z" transform="translate(387.5 2034.462)" fill="#12263f"/>
        <path id="Trazado_610575" data-name="Trazado 610575" d="M5.722-2.241,9.378-12.8h1.846L6.478,0H4.983L.246-12.8H2.083ZM14.449,0H12.823V-9.51h1.626ZM12.691-12.032a.971.971,0,0,1,.242-.668.907.907,0,0,1,.716-.272.922.922,0,0,1,.721.272.96.96,0,0,1,.246.668.929.929,0,0,1-.246.659.938.938,0,0,1-.721.264.924.924,0,0,1-.716-.264A.938.938,0,0,1,12.691-12.032Zm9.9,9.51a1.2,1.2,0,0,0-.5-1.024,4.78,4.78,0,0,0-1.731-.628,8.186,8.186,0,0,1-1.96-.633,2.788,2.788,0,0,1-1.072-.879A2.1,2.1,0,0,1,16.98-6.9a2.467,2.467,0,0,1,.989-1.978A3.861,3.861,0,0,1,20.5-9.686a3.974,3.974,0,0,1,2.624.835,2.652,2.652,0,0,1,1.006,2.136H22.491a1.468,1.468,0,0,0-.567-1.151A2.124,2.124,0,0,0,20.5-8.35a2.223,2.223,0,0,0-1.389.387,1.217,1.217,0,0,0-.5,1.011.986.986,0,0,0,.466.888,5.731,5.731,0,0,0,1.683.571,8.77,8.77,0,0,1,1.973.65,2.878,2.878,0,0,1,1.121.91,2.237,2.237,0,0,1,.365,1.3,2.434,2.434,0,0,1-1.02,2.043,4.277,4.277,0,0,1-2.646.769,4.789,4.789,0,0,1-2.021-.4,3.288,3.288,0,0,1-1.375-1.129,2.722,2.722,0,0,1-.5-1.569h1.626a1.683,1.683,0,0,0,.655,1.3,2.54,2.54,0,0,0,1.613.479,2.622,2.622,0,0,0,1.481-.374A1.148,1.148,0,0,0,22.588-2.522ZM28.1,0H26.473V-9.51H28.1ZM26.341-12.032a.971.971,0,0,1,.242-.668.907.907,0,0,1,.716-.272.922.922,0,0,1,.721.272.96.96,0,0,1,.246.668.929.929,0,0,1-.246.659.938.938,0,0,1-.721.264.924.924,0,0,1-.716-.264A.938.938,0,0,1,26.341-12.032ZM30.27-4.843a5.617,5.617,0,0,1,.549-2.514,4.1,4.1,0,0,1,1.529-1.723,4.163,4.163,0,0,1,2.237-.606,4.01,4.01,0,0,1,3.142,1.345,5.174,5.174,0,0,1,1.2,3.577v.114A5.666,5.666,0,0,1,38.4-2.158,4.038,4.038,0,0,1,36.875-.439,4.211,4.211,0,0,1,34.6.176a4,4,0,0,1-3.133-1.345,5.147,5.147,0,0,1-1.2-3.56Zm1.635.193a4.068,4.068,0,0,0,.734,2.54,2.349,2.349,0,0,0,1.964.958,2.335,2.335,0,0,0,1.969-.971,4.449,4.449,0,0,0,.729-2.72,4.061,4.061,0,0,0-.743-2.536,2.361,2.361,0,0,0-1.973-.971,2.335,2.335,0,0,0-1.942.958A4.416,4.416,0,0,0,31.9-4.649ZM35.323-13.5h1.969l-2.355,2.584-1.31,0ZM42.5-9.51l.053,1.2A3.465,3.465,0,0,1,45.4-9.686q3.015,0,3.041,3.4V0H46.819V-6.293a2.189,2.189,0,0,0-.47-1.521,1.884,1.884,0,0,0-1.437-.492,2.347,2.347,0,0,0-1.389.422,2.865,2.865,0,0,0-.932,1.107V0H40.966V-9.51Z" transform="translate(593.25 2034.462)" fill="#12263f"/>
        <path id="Trazado_610571" data-name="Trazado 610571" d="M3.665-12.8,7.849-2.355,12.032-12.8h2.188V0H12.533V-4.983l.158-5.379L8.49,0H7.2L3.006-10.336l.167,5.353V0H1.485V-12.8ZM20.892.176a4.155,4.155,0,0,1-3.146-1.27,4.714,4.714,0,0,1-1.213-3.4v-.3a5.707,5.707,0,0,1,.541-2.527,4.217,4.217,0,0,1,1.512-1.74,3.8,3.8,0,0,1,2.1-.628,3.562,3.562,0,0,1,2.883,1.222,5.289,5.289,0,0,1,1.028,3.5v.677H18.158a3.38,3.38,0,0,0,.822,2.272,2.583,2.583,0,0,0,2,.866A2.832,2.832,0,0,0,22.438-1.5a3.666,3.666,0,0,0,1.046-.932l.993.773A3.993,3.993,0,0,1,20.892.176Zm-.2-8.525a2.169,2.169,0,0,0-1.652.716,3.482,3.482,0,0,0-.826,2.008h4.764v-.123a3.1,3.1,0,0,0-.668-1.92A2.042,2.042,0,0,0,20.689-8.35Zm8-3.463v2.3h1.775v1.257H28.688v5.9a1.32,1.32,0,0,0,.237.858,1,1,0,0,0,.809.286,3.937,3.937,0,0,0,.773-.105V0a4.742,4.742,0,0,1-1.248.175,2.025,2.025,0,0,1-1.644-.659,2.832,2.832,0,0,1-.554-1.872v-5.9H25.33V-9.51h1.731v-2.3ZM38.232,0A3.416,3.416,0,0,1,38-1,3.628,3.628,0,0,1,35.3.176a3.357,3.357,0,0,1-2.307-.8,2.573,2.573,0,0,1-.9-2.017,2.688,2.688,0,0,1,1.129-2.307A5.325,5.325,0,0,1,36.4-5.766h1.582v-.747a1.826,1.826,0,0,0-.51-1.358,2.049,2.049,0,0,0-1.5-.505,2.371,2.371,0,0,0-1.459.439,1.3,1.3,0,0,0-.589,1.063H32.282a2.244,2.244,0,0,1,.505-1.375A3.449,3.449,0,0,1,34.159-9.3a4.613,4.613,0,0,1,1.9-.387,3.759,3.759,0,0,1,2.575.822A2.964,2.964,0,0,1,39.6-6.6v4.377a5.351,5.351,0,0,0,.334,2.083V0Zm-2.7-1.239a2.858,2.858,0,0,0,1.45-.4,2.392,2.392,0,0,0,.993-1.028V-4.614H36.7q-2.988,0-2.988,1.749a1.48,1.48,0,0,0,.51,1.2A1.959,1.959,0,0,0,35.534-1.239ZM47.689-2.522a1.2,1.2,0,0,0-.5-1.024,4.78,4.78,0,0,0-1.731-.628,8.186,8.186,0,0,1-1.96-.633,2.788,2.788,0,0,1-1.072-.879A2.1,2.1,0,0,1,42.082-6.9a2.467,2.467,0,0,1,.989-1.978A3.861,3.861,0,0,1,45.6-9.686a3.974,3.974,0,0,1,2.624.835,2.652,2.652,0,0,1,1.006,2.136H47.593a1.468,1.468,0,0,0-.567-1.151A2.124,2.124,0,0,0,45.6-8.35a2.223,2.223,0,0,0-1.389.387,1.217,1.217,0,0,0-.5,1.011.986.986,0,0,0,.466.888,5.731,5.731,0,0,0,1.683.571,8.77,8.77,0,0,1,1.973.65,2.878,2.878,0,0,1,1.121.91,2.237,2.237,0,0,1,.365,1.3A2.434,2.434,0,0,1,48.3-.593,4.277,4.277,0,0,1,45.65.176a4.789,4.789,0,0,1-2.021-.4,3.288,3.288,0,0,1-1.375-1.129,2.722,2.722,0,0,1-.5-1.569h1.626a1.683,1.683,0,0,0,.655,1.3,2.54,2.54,0,0,0,1.613.479,2.622,2.622,0,0,0,1.481-.374A1.148,1.148,0,0,0,47.689-2.522Z" transform="translate(593.25 2133.462)" fill="#12263f"/>
        <path id="Trazado_610573" data-name="Trazado 610573" d="M8.719-5.915H3.173V-1.38H9.615V0H1.485V-12.8H9.527v1.38H3.173v4.122H8.719ZM17-2.522a1.2,1.2,0,0,0-.5-1.024,4.78,4.78,0,0,0-1.731-.628,8.186,8.186,0,0,1-1.96-.633,2.788,2.788,0,0,1-1.072-.879A2.1,2.1,0,0,1,11.391-6.9a2.467,2.467,0,0,1,.989-1.978,3.861,3.861,0,0,1,2.527-.809,3.974,3.974,0,0,1,2.624.835,2.652,2.652,0,0,1,1.006,2.136H16.9a1.468,1.468,0,0,0-.567-1.151,2.124,2.124,0,0,0-1.428-.483,2.223,2.223,0,0,0-1.389.387,1.217,1.217,0,0,0-.5,1.011.986.986,0,0,0,.466.888,5.731,5.731,0,0,0,1.683.571,8.77,8.77,0,0,1,1.973.65,2.878,2.878,0,0,1,1.121.91,2.237,2.237,0,0,1,.365,1.3A2.434,2.434,0,0,1,17.6-.593a4.277,4.277,0,0,1-2.646.769,4.789,4.789,0,0,1-2.021-.4,3.288,3.288,0,0,1-1.375-1.129,2.722,2.722,0,0,1-.5-1.569h1.626a1.683,1.683,0,0,0,.655,1.3,2.54,2.54,0,0,0,1.613.479,2.622,2.622,0,0,0,1.481-.374A1.148,1.148,0,0,0,17-2.522Zm5.95-9.29v2.3h1.775v1.257H22.948v5.9a1.32,1.32,0,0,0,.237.858,1,1,0,0,0,.809.286,3.937,3.937,0,0,0,.773-.105V0A4.742,4.742,0,0,1,23.52.176a2.025,2.025,0,0,1-1.644-.659,2.832,2.832,0,0,1-.554-1.872v-5.9H19.591V-9.51h1.731v-2.3Zm8.271,3.762a4.873,4.873,0,0,0-.8-.062A2.143,2.143,0,0,0,28.248-6.75V0H26.622V-9.51H28.2l.026,1.1A2.532,2.532,0,0,1,30.5-9.686a1.661,1.661,0,0,1,.721.123ZM38.232,0A3.416,3.416,0,0,1,38-1,3.628,3.628,0,0,1,35.3.176a3.357,3.357,0,0,1-2.307-.8,2.573,2.573,0,0,1-.9-2.017,2.688,2.688,0,0,1,1.129-2.307A5.325,5.325,0,0,1,36.4-5.766h1.582v-.747a1.826,1.826,0,0,0-.51-1.358,2.049,2.049,0,0,0-1.5-.505,2.371,2.371,0,0,0-1.459.439,1.3,1.3,0,0,0-.589,1.063H32.282a2.244,2.244,0,0,1,.505-1.375A3.449,3.449,0,0,1,34.159-9.3a4.613,4.613,0,0,1,1.9-.387,3.759,3.759,0,0,1,2.575.822A2.964,2.964,0,0,1,39.6-6.6v4.377a5.351,5.351,0,0,0,.334,2.083V0Zm-2.7-1.239a2.858,2.858,0,0,0,1.45-.4,2.392,2.392,0,0,0,.993-1.028V-4.614H36.7q-2.988,0-2.988,1.749a1.48,1.48,0,0,0,.51,1.2A1.959,1.959,0,0,0,35.534-1.239Zm8.824-10.573v2.3h1.775v1.257H44.358v5.9a1.32,1.32,0,0,0,.237.858A1,1,0,0,0,45.4-1.2a3.937,3.937,0,0,0,.773-.105V0A4.742,4.742,0,0,1,44.93.176a2.025,2.025,0,0,1-1.644-.659,2.832,2.832,0,0,1-.554-1.872v-5.9H41V-9.51h1.731v-2.3ZM51.979.176a4.155,4.155,0,0,1-3.146-1.27,4.714,4.714,0,0,1-1.213-3.4v-.3a5.707,5.707,0,0,1,.541-2.527,4.217,4.217,0,0,1,1.512-1.74,3.8,3.8,0,0,1,2.1-.628,3.562,3.562,0,0,1,2.883,1.222,5.289,5.289,0,0,1,1.028,3.5v.677H49.245a3.38,3.38,0,0,0,.822,2.272,2.583,2.583,0,0,0,2,.866A2.832,2.832,0,0,0,53.525-1.5a3.666,3.666,0,0,0,1.046-.932l.993.773A3.993,3.993,0,0,1,51.979.176Zm-.2-8.525a2.169,2.169,0,0,0-1.652.716A3.482,3.482,0,0,0,49.3-5.625h4.764v-.123a3.1,3.1,0,0,0-.668-1.92A2.042,2.042,0,0,0,51.776-8.35Zm5.405,3.516A5.589,5.589,0,0,1,58.21-8.372a3.289,3.289,0,0,1,2.725-1.314,3.271,3.271,0,0,1,2.716,1.23l.079-1.055h1.485V-.229a3.869,3.869,0,0,1-1.094,2.909,4.038,4.038,0,0,1-2.94,1.063A4.891,4.891,0,0,1,59.168,3.3a3.465,3.465,0,0,1-1.5-1.2l.844-.976a3.18,3.18,0,0,0,2.558,1.292,2.491,2.491,0,0,0,1.85-.668A2.553,2.553,0,0,0,63.58-.132V-.949A3.342,3.342,0,0,1,60.917.176a3.248,3.248,0,0,1-2.7-1.345A5.876,5.876,0,0,1,57.182-4.834Zm1.635.185a4.264,4.264,0,0,0,.659,2.527,2.142,2.142,0,0,0,1.846.918A2.382,2.382,0,0,0,63.58-2.6V-6.943a2.41,2.41,0,0,0-2.241-1.362,2.161,2.161,0,0,0-1.854.923A4.644,4.644,0,0,0,58.816-4.649ZM69.434,0H67.808V-9.51h1.626ZM67.676-12.032a.971.971,0,0,1,.242-.668.907.907,0,0,1,.716-.272.922.922,0,0,1,.721.272.96.96,0,0,1,.246.668.929.929,0,0,1-.246.659.938.938,0,0,1-.721.264.924.924,0,0,1-.716-.264A.938.938,0,0,1,67.676-12.032ZM77.906,0a3.416,3.416,0,0,1-.229-1A3.628,3.628,0,0,1,74.971.176a3.357,3.357,0,0,1-2.307-.8,2.573,2.573,0,0,1-.9-2.017,2.688,2.688,0,0,1,1.129-2.307,5.325,5.325,0,0,1,3.177-.822h1.582v-.747a1.826,1.826,0,0,0-.51-1.358,2.049,2.049,0,0,0-1.5-.505,2.371,2.371,0,0,0-1.459.439,1.3,1.3,0,0,0-.589,1.063H71.956a2.244,2.244,0,0,1,.505-1.375A3.449,3.449,0,0,1,73.833-9.3a4.613,4.613,0,0,1,1.9-.387,3.759,3.759,0,0,1,2.575.822A2.964,2.964,0,0,1,79.277-6.6v4.377a5.351,5.351,0,0,0,.334,2.083V0Zm-2.7-1.239a2.858,2.858,0,0,0,1.45-.4,2.392,2.392,0,0,0,.993-1.028V-4.614H76.377q-2.988,0-2.988,1.749a1.48,1.48,0,0,0,.51,1.2A1.959,1.959,0,0,0,75.208-1.239ZM87.363-2.522a1.2,1.2,0,0,0-.5-1.024,4.78,4.78,0,0,0-1.731-.628,8.186,8.186,0,0,1-1.96-.633A2.788,2.788,0,0,1,82.1-5.687,2.1,2.1,0,0,1,81.756-6.9a2.467,2.467,0,0,1,.989-1.978,3.861,3.861,0,0,1,2.527-.809,3.974,3.974,0,0,1,2.624.835A2.652,2.652,0,0,1,88.9-6.715H87.267A1.468,1.468,0,0,0,86.7-7.866a2.124,2.124,0,0,0-1.428-.483,2.223,2.223,0,0,0-1.389.387,1.217,1.217,0,0,0-.5,1.011.986.986,0,0,0,.466.888,5.731,5.731,0,0,0,1.683.571,8.77,8.77,0,0,1,1.973.65,2.878,2.878,0,0,1,1.121.91,2.237,2.237,0,0,1,.365,1.3A2.434,2.434,0,0,1,87.97-.593a4.277,4.277,0,0,1-2.646.769,4.789,4.789,0,0,1-2.021-.4,3.288,3.288,0,0,1-1.375-1.129,2.722,2.722,0,0,1-.5-1.569h1.626a1.683,1.683,0,0,0,.655,1.3,2.54,2.54,0,0,0,1.613.479,2.622,2.622,0,0,0,1.481-.374A1.148,1.148,0,0,0,87.363-2.522Z" transform="translate(305.5 2133.462)" fill="#12263f"/>
        <path id="Trazado_610572" data-name="Trazado 610572" d="M11.329-5.985A7.916,7.916,0,0,1,10.7-2.7,4.793,4.793,0,0,1,8.9-.562,4.933,4.933,0,0,1,6.2.176,4.891,4.891,0,0,1,3.516-.567,4.908,4.908,0,0,1,1.7-2.685a7.6,7.6,0,0,1-.664-3.186v-.923a7.822,7.822,0,0,1,.642-3.261,4.891,4.891,0,0,1,1.815-2.167,4.87,4.87,0,0,1,2.685-.751,4.961,4.961,0,0,1,2.711.743A4.784,4.784,0,0,1,10.7-10.077a7.955,7.955,0,0,1,.633,3.283ZM9.65-6.812a5.738,5.738,0,0,0-.914-3.494,3.015,3.015,0,0,0-2.558-1.217,2.982,2.982,0,0,0-2.518,1.217,5.62,5.62,0,0,0-.945,3.379v.94a5.746,5.746,0,0,0,.927,3.467A3,3,0,0,0,6.2-1.257,2.983,2.983,0,0,0,8.728-2.448,5.714,5.714,0,0,0,9.65-5.862ZM21.656-4.649a5.654,5.654,0,0,1-1,3.5A3.2,3.2,0,0,1,17.965.176,3.315,3.315,0,0,1,15.179-1.1L15.1,0H13.605V-13.5h1.626v5.036a3.3,3.3,0,0,1,2.716-1.222,3.221,3.221,0,0,1,2.72,1.31,5.824,5.824,0,0,1,.989,3.586ZM20.03-4.834A4.394,4.394,0,0,0,19.389-7.4a2.124,2.124,0,0,0-1.846-.905,2.387,2.387,0,0,0-2.312,1.494V-2.7A2.454,2.454,0,0,0,17.561-1.2a2.112,2.112,0,0,0,1.819-.905A4.672,4.672,0,0,0,20.03-4.834ZM25.383-9.51V1.1q0,2.742-2.487,2.742a3.034,3.034,0,0,1-.993-.157V2.391a3.144,3.144,0,0,0,.738.07,1.1,1.1,0,0,0,.831-.295,1.457,1.457,0,0,0,.286-1.025V-9.51ZM23.59-12.032a.975.975,0,0,1,.242-.664.889.889,0,0,1,.708-.277.922.922,0,0,1,.721.272.96.96,0,0,1,.246.668.929.929,0,0,1-.246.659.938.938,0,0,1-.721.264.909.909,0,0,1-.712-.264A.949.949,0,0,1,23.59-12.032ZM31.948.176A4.155,4.155,0,0,1,28.8-1.094a4.714,4.714,0,0,1-1.213-3.4v-.3a5.707,5.707,0,0,1,.541-2.527,4.217,4.217,0,0,1,1.512-1.74,3.8,3.8,0,0,1,2.1-.628,3.562,3.562,0,0,1,2.883,1.222,5.289,5.289,0,0,1,1.028,3.5v.677H29.215a3.38,3.38,0,0,0,.822,2.272,2.583,2.583,0,0,0,2,.866A2.832,2.832,0,0,0,33.5-1.5a3.666,3.666,0,0,0,1.046-.932l.993.773A3.993,3.993,0,0,1,31.948.176Zm-.2-8.525a2.169,2.169,0,0,0-1.652.716,3.482,3.482,0,0,0-.826,2.008h4.764v-.123a3.1,3.1,0,0,0-.668-1.92A2.042,2.042,0,0,0,31.746-8.35Zm8-3.463v2.3H41.52v1.257H39.744v5.9a1.32,1.32,0,0,0,.237.858,1,1,0,0,0,.809.286,3.937,3.937,0,0,0,.773-.105V0a4.742,4.742,0,0,1-1.248.175,2.025,2.025,0,0,1-1.644-.659,2.832,2.832,0,0,1-.554-1.872v-5.9H36.387V-9.51h1.731v-2.3ZM45.185,0H43.559V-9.51h1.626ZM43.427-12.032a.971.971,0,0,1,.242-.668.907.907,0,0,1,.716-.272.922.922,0,0,1,.721.272.96.96,0,0,1,.246.668.929.929,0,0,1-.246.659.938.938,0,0,1-.721.264.924.924,0,0,1-.716-.264A.938.938,0,0,1,43.427-12.032Zm7.5,9.826,2.355-7.3H54.94L51.53,0H50.291L46.846-9.51h1.661Zm5.019-2.637a5.617,5.617,0,0,1,.549-2.514,4.1,4.1,0,0,1,1.529-1.723,4.163,4.163,0,0,1,2.237-.606A4.01,4.01,0,0,1,63.4-8.341a5.174,5.174,0,0,1,1.2,3.577v.114a5.666,5.666,0,0,1-.532,2.492A4.038,4.038,0,0,1,62.547-.439a4.211,4.211,0,0,1-2.272.615,4,4,0,0,1-3.133-1.345,5.147,5.147,0,0,1-1.2-3.56Zm1.635.193a4.068,4.068,0,0,0,.734,2.54,2.349,2.349,0,0,0,1.964.958,2.335,2.335,0,0,0,1.969-.971,4.449,4.449,0,0,0,.729-2.72,4.061,4.061,0,0,0-.743-2.536,2.361,2.361,0,0,0-1.973-.971,2.335,2.335,0,0,0-1.942.958A4.416,4.416,0,0,0,57.577-4.649Zm14.6,2.127a1.2,1.2,0,0,0-.5-1.024,4.78,4.78,0,0,0-1.731-.628,8.186,8.186,0,0,1-1.96-.633,2.788,2.788,0,0,1-1.072-.879A2.1,2.1,0,0,1,66.568-6.9a2.467,2.467,0,0,1,.989-1.978,3.861,3.861,0,0,1,2.527-.809,3.974,3.974,0,0,1,2.624.835,2.652,2.652,0,0,1,1.006,2.136H72.079a1.468,1.468,0,0,0-.567-1.151,2.124,2.124,0,0,0-1.428-.483,2.223,2.223,0,0,0-1.389.387,1.217,1.217,0,0,0-.5,1.011.986.986,0,0,0,.466.888,5.731,5.731,0,0,0,1.683.571,8.77,8.77,0,0,1,1.973.65,2.878,2.878,0,0,1,1.121.91,2.237,2.237,0,0,1,.365,1.3,2.434,2.434,0,0,1-1.02,2.043,4.277,4.277,0,0,1-2.646.769,4.789,4.789,0,0,1-2.021-.4A3.288,3.288,0,0,1,66.74-1.358a2.722,2.722,0,0,1-.5-1.569h1.626a1.683,1.683,0,0,0,.655,1.3,2.54,2.54,0,0,0,1.613.479,2.622,2.622,0,0,0,1.481-.374A1.148,1.148,0,0,0,72.176-2.522Z" transform="translate(447.5 2133.462)" fill="#12263f"/>
        <path id="Polígono_22" data-name="Polígono 22" d="M18.5,0,37,32H0Z" transform="translate(432.5 2007.462) rotate(180)" fill="#ffe7af"/>
        <path id="Polígono_23" data-name="Polígono 23" d="M18.5,0,37,32H0Z" transform="translate(370 2106.137) rotate(180)" fill="#c3d7f5"/>
        <path id="Polígono_24" data-name="Polígono 24" d="M18.5,0,37,32H0Z" transform="translate(503.5 2106.137) rotate(180)" fill="#c3d7f5"/>
        <path id="Polígono_25" data-name="Polígono 25" d="M18.5,0,37,32H0Z" transform="translate(637 2106.137) rotate(180)" fill="#94eeff"/>
        <path id="Polígono_26" data-name="Polígono 26" d="M18.5,0,37,32H0Z" transform="translate(637 2007.462) rotate(180)" fill="#ffe7af"/>
      </g>
    </g>
  </g>
</svg>
