<svg xmlns="http://www.w3.org/2000/svg" xmlns:xlink="http://www.w3.org/1999/xlink" width="820" height="559" viewBox="0 0 820 559">
  <defs>
    <clipPath id="clip-path">
      <path id="Trazado_610563" data-name="Trazado 610563" d="M0,0H610V551H0Z" transform="translate(285 761)" fill="#fff" stroke="#707070" stroke-width="1"/>
    </clipPath>
    <clipPath id="clip-path-2">
      <rect id="Rectángulo_377924" data-name="Rectángulo 377924" width="299.078" height="284.29" fill="none"/>
    </clipPath>
  </defs>
  <g id="Grupo_1072672" data-name="Grupo 1072672" transform="translate(-390 -652)">
    <rect id="Rectángulo_378103" data-name="Rectángulo 378103" width="820" height="451" rx="44" transform="translate(390 760)" fill="#fff8e7"/>
    <g id="Enmascarar_grupo_154343" data-name="Enmascarar grupo 154343" transform="translate(210 -109)" clip-path="url(#clip-path)">
      <g id="Grupo_1072527" data-name="Grupo 1072527">
        <g id="Grupo_1072525" data-name="Grupo 1072525" transform="translate(457.5 764.544)">
          <g id="Grupo_1072522" data-name="Grupo 1072522">
            <g id="Grupo_1072521" data-name="Grupo 1072521" clip-path="url(#clip-path-2)">
              <path id="Trazado_610089" data-name="Trazado 610089" d="M61.41,70.983c-7.958,12.428-12.6,27.2-14.324,42.26-1.034,9.057-1,18.483,1.923,27.031A42.861,42.861,0,0,0,67.724,162.98c5.584,3.3,11.859,5.394,16.689,9.9,4.414,4.116,7.369,10.032,12.294,13.38,4.443,3.019,10.016,3.546,15.162,2.526s9.958-3.462,14.617-6.062c10-5.579,19.844-12.213,26.723-21.918,7.616-10.745,10.64-25.268,5.047-37.893-2.82-6.367-7.416-11.538-11.381-17.128-6.479-9.133-6.846-17.34-8.359-28.254-1.958-14.123-11.323-26.78-23.2-32.5-21.293-10.261-42.276,7.79-53.91,25.958" transform="translate(-14.362 -12.993)" fill="#d6f5ff"/>
            </g>
          </g>
          <g id="Grupo_1072524" data-name="Grupo 1072524">
            <g id="Grupo_1072523" data-name="Grupo 1072523" clip-path="url(#clip-path-2)">
              <path id="Trazado_610090" data-name="Trazado 610090" d="M81.108,319.108c-2.795,1.4-2.445,9.606-1.572,10.654s19.562,2.445,22.181,1.572.7-11-11-10.829Z" transform="translate(-24.388 -98.628)" fill="#42346e"/>
              <path id="Trazado_610091" data-name="Trazado 610091" d="M82.371,300.149A100.079,100.079,0,0,0,81.323,314.3c.175,2.795,9.257,4.018,10.479,2.1s4.017-12.4,4.017-13.8-13.448-2.445-13.448-2.445" transform="translate(-25.126 -92.768)" fill="#cf9585"/>
              <path id="Trazado_610092" data-name="Trazado 610092" d="M164.16,271.816c-2.756,1.378-2.412,9.475-1.55,10.508s19.294,2.412,21.878,1.55.69-10.853-10.853-10.68Z" transform="translate(-50.066 -84.011)" fill="#42346e"/>
              <path id="Trazado_610093" data-name="Trazado 610093" d="M165.4,253.116a98.734,98.734,0,0,0-1.034,13.954c.172,2.756,9.131,3.962,10.336,2.067s3.962-12.231,3.962-13.609-13.265-2.412-13.265-2.412" transform="translate(-50.794 -78.231)" fill="#cf9585"/>
              <path id="Trazado_610094" data-name="Trazado 610094" d="M103.4,324.7a6.417,6.417,0,0,0-.939-.939c-.044-.039-.091-.077-.135-.116l.033-.012a1.636,1.636,0,0,0,.665-.437.732.732,0,0,0-.145-1.128,1.574,1.574,0,0,0-1.611.111,3.535,3.535,0,0,0-.406.258c-.1-.081-.205-.165-.31-.246-.15-.115-.3-.226-.457-.336-.061-.044-.123-.086-.186-.128a.516.516,0,0,0-.376-.324.71.71,0,0,0-.883.667,1.167,1.167,0,0,0,.41.817c.174.177.352.351.529.524-.145.118-.292.236-.428.363a11.242,11.242,0,0,0-.909.985.5.5,0,0,0-.076.591.488.488,0,0,0,.551.225,12.224,12.224,0,0,0,2-.991c.074.08.151.157.224.238q.235.26.466.525a4.678,4.678,0,0,0,.468.523.979.979,0,0,0,1.268.075.954.954,0,0,0,.249-1.246" transform="translate(-30.325 -99.33)" fill="#381f59"/>
              <path id="Trazado_610095" data-name="Trazado 610095" d="M188.06,279.067a1.858,1.858,0,0,0-.506-.781c-.154-.177-.316-.346-.472-.521q-.47-.524-.926-1.062l.11-.044a6.1,6.1,0,0,0,.705-.3.805.805,0,0,0-.62-1.47,5.734,5.734,0,0,0-1.2.634,8.217,8.217,0,0,0-.968-1.088.514.514,0,0,0-.6-.077.5.5,0,0,0-.227.558,6.872,6.872,0,0,0,.775,1.315l.016.023c-.021.018-.045.034-.066.053a8.231,8.231,0,0,0-.831.827c-.141.16-.3.3-.432.473-.11.15-.185.329-.3.47-.1.121.027.326.178.231a4.629,4.629,0,0,1,.542-.237c.169-.077.319-.189.486-.269.358-.173.726-.33,1.088-.495l.064-.029c.049.066.094.135.144.2q.478.634.971,1.257c.33.416.694,1.021,1.224,1.179a.7.7,0,0,0,.848-.847" transform="translate(-56.4 -84.776)" fill="#381f59"/>
              <path id="Trazado_610096" data-name="Trazado 610096" d="M82.56,300.149c-.213,1.275-.453,3.386-.653,5.629q.361.218.735.4c3.837,1.9,8.346,1.632,12.527.457a27.877,27.877,0,0,0,.839-4.045c0-1.4-13.448-2.445-13.448-2.445" transform="translate(-25.315 -92.768)" fill="#b77967"/>
              <path id="Trazado_610097" data-name="Trazado 610097" d="M165.567,253.116c-.229,1.372-.491,3.723-.7,6.155.082.031.164.063.246.091a18.427,18.427,0,0,0,13.034-.421,23.18,23.18,0,0,0,.683-3.414c0-1.378-13.265-2.412-13.265-2.412" transform="translate(-50.957 -78.231)" fill="#b77967"/>
              <path id="Trazado_610098" data-name="Trazado 610098" d="M87.039,181.773s-.7,32.136-2.1,44.712-4.367,34.407-4.367,36.328,13.623,5.239,15.195,2.969,18.513-58.335,19.562-64.622c0,0,22.356,2.969,23.229,3.493s-.7,24.277-.524,26.023,13.623,4.367,15.544,2.1,5.764-40.695,4.89-45.236-21.307-13.274-21.307-13.274l-27.421,1.921Z" transform="translate(-24.904 -53.86)" fill="#42346e"/>
              <path id="Trazado_610099" data-name="Trazado 610099" d="M112.572,176.184l-22.705,5.589s-.046,2.132-.139,5.506a37.3,37.3,0,0,0,10.6,1.941,75.769,75.769,0,0,0,17.778-1.8c6.766-1.327,13.807-3.153,18.8-7.909a19.97,19.97,0,0,0,3.768-4.948c-.43-.189-.683-.3-.683-.3Z" transform="translate(-27.732 -53.86)" fill="#381f59"/>
              <path id="Trazado_610100" data-name="Trazado 610100" d="M123.868,37.264a6.342,6.342,0,0,0-1.815-3.88,3.937,3.937,0,0,0-2.453-1.069c-.1-3.845-1.937-7.761-5.174-9.56a7.863,7.863,0,0,0-9.323,1.221,6.659,6.659,0,0,0-6.685-2.542,6.844,6.844,0,0,0-4.705,4.544,6.189,6.189,0,0,0-8.133-.294c-3.321,2.636-4.088,7.15-3.862,11.368-3.434.344-4.715,5.466-4.552,8.616.169,3.26,1.546,6.492,4.236,8.019a5.475,5.475,0,0,0-.264,5.525,4.666,4.666,0,0,0,4.639,2.362,6.667,6.667,0,0,0,5.214,5.967c3.359.785,6.415-1.114,9.038-3.207a9.151,9.151,0,0,0,6.928.763,6.69,6.69,0,0,0,4.477-5.767c3.8-1.147,7.695-2.783,10.387-5.99a10.03,10.03,0,0,0,2.495-5.68,5.75,5.75,0,0,0-1.126-4.105c1.132-1.648.96-4.387.677-6.29" transform="translate(-23.846 -6.576)" fill="#42346e"/>
              <path id="Trazado_610101" data-name="Trazado 610101" d="M118.122,40.508a4.6,4.6,0,0,1-5.218,0,8.656,8.656,0,0,1-3.195-4.444,6.287,6.287,0,0,1-9.212.217,8.107,8.107,0,0,1-10.464,4.347C88.96,44,87.343,47.452,84.326,49.3a7.315,7.315,0,0,1-7.167.18c0,.26,0,.515.008.757.169,3.259,1.546,6.492,4.236,8.018a5.475,5.475,0,0,0-.263,5.525,4.663,4.663,0,0,0,4.639,2.362,6.667,6.667,0,0,0,5.214,5.968c3.359.785,6.415-1.114,9.039-3.207a9.15,9.15,0,0,0,6.928.762,6.689,6.689,0,0,0,4.476-5.766c3.8-1.147,7.7-2.783,10.388-5.99a10.034,10.034,0,0,0,2.494-5.68,5.748,5.748,0,0,0-1.126-4.105c.939-1.366.977-3.477.8-5.246-.177.042-.352.086-.533.114a5.091,5.091,0,0,1-5.339-2.482" transform="translate(-23.847 -11.145)" fill="#381f59"/>
              <path id="Trazado_610102" data-name="Trazado 610102" d="M99.342,92.771c-5.822,2.911-13.521,5.007-17.887,12.517S76.3,127,76.826,130.7c.444,3.115,9.824,6.2,9.824,6.2s-1.048,13.012-2.1,19.649c0,0,36.386,8.994,51.406-8.3,0,0-6.287-26.373-6.287-33.01l7.859-15.719c.346.217-17.591-8.846-21.378-9.153a47.365,47.365,0,0,0-9.361-.1Z" transform="translate(-23.7 -27.85)" fill="#ebaf52"/>
              <path id="Trazado_610103" data-name="Trazado 610103" d="M182.669,143.882l-54.136,11.268a3.351,3.351,0,0,1-3.971-2.634l-8.523-43.28a3.352,3.352,0,0,1,2.605-3.929l54.207-11.284Z" transform="translate(-35.845 -29.061)" fill="#9cb3e7"/>
              <path id="Trazado_610104" data-name="Trazado 610104" d="M210.513,95.2l-12.22-1.174,9.818,49.857,10.782-5.319a3.154,3.154,0,0,0,1.7-3.431l-7.286-37.4a3.154,3.154,0,0,0-2.794-2.536" transform="translate(-61.287 -29.061)" fill="#7695cc"/>
              <path id="Trazado_610105" data-name="Trazado 610105" d="M109.478,80.789v8.617s10.059,1.675,16.813-2.4l-1.72-7.788Z" transform="translate(-33.837 -24.484)" fill="#cf9585"/>
              <path id="Trazado_610106" data-name="Trazado 610106" d="M115.057,87.514a18.056,18.056,0,0,0,10.228-5.062l-.714-3.236-15.093,1.572v6.673a14.446,14.446,0,0,0,5.579.053" transform="translate(-33.837 -24.484)" fill="#b77967"/>
              <path id="Trazado_610107" data-name="Trazado 610107" d="M120.61,47.837c3.444,14.8,1.973,23.972-8.681,26.069-12.108,2.383-16.3-9.571-16.3-9.571s-3.913,1.338-5.25-2.575S93.221,57.2,93.221,57.2s4.521-3.466,4.755-8.848c0,0,5.676,1.623,8.261-3.395,0,0,5.24,2.342,7.227-.313,0,0,4.175,4.725,7.146,3.194" transform="translate(-27.853 -13.798)" fill="#cf9585"/>
              <path id="Trazado_610108" data-name="Trazado 610108" d="M122.01,47.837c-2.971,1.53-7.146-3.194-7.146-3.194-1.987,2.655-7.227.314-7.227.314-2.586,5.017-8.261,3.394-8.261,3.394-.227,5.226-4.484,8.635-4.731,8.829a5.518,5.518,0,0,0,3.621-1.638,10.431,10.431,0,0,0,2.483-4.854,4.228,4.228,0,0,0,3.9-.31,10.752,10.752,0,0,0,2.937-2.787,5.507,5.507,0,0,0,7.07-.087c1.644,1.282,3.435,2.621,5.518,2.711a6.45,6.45,0,0,0,2.28-.363c-.138-.661-.283-1.329-.442-2.014" transform="translate(-29.252 -13.798)" fill="#b77967"/>
              <path id="Trazado_610109" data-name="Trazado 610109" d="M95.594,67.786a.7.7,0,0,0,.019-.244.6.6,0,0,0-.469-.507,1.974,1.974,0,0,0-1.094-.78,1.456,1.456,0,0,0-.974.137.823.823,0,0,0-.329.3c-.039.073-.1.292.035.323a.649.649,0,0,0,.325-.024.62.62,0,0,1,.086-.018c-.041.006.008,0,.024,0,.055,0,.108,0,.162.006h.015l.01,0c.029.007.059.012.087.02s.059.019.088.03h0l.008.006.147.079a.922.922,0,0,1,.079.047c.01.006.051.039.057.041l.014.013c.026.023.051.048.076.073s.048.053.071.079l0,0h0c.035.05.062.1.095.155v0a2.339,2.339,0,0,0-.307.576,1.237,1.237,0,0,0-.1.577,1.008,1.008,0,0,0,.469.81,1.018,1.018,0,0,0,.772.088,1.125,1.125,0,0,0,.806-1.031,1.613,1.613,0,0,0-.179-.763" transform="translate(-28.651 -20.468)" fill="#b77967"/>
              <path id="Trazado_610110" data-name="Trazado 610110" d="M119.082,95.713a19.643,19.643,0,0,0,6.214-2.678,22.666,22.666,0,0,0,2.23-1.722c-.468-.169-.9-.31-1.281-.423-.491.41-.994.8-1.522,1.166a18.736,18.736,0,0,1-5.939,2.578,21.319,21.319,0,0,1-7.3.708,23.92,23.92,0,0,1-3.792-.6c-.676-.164-1.336-.377-2-.587l-.552.247a16.866,16.866,0,0,0,6.184,1.823,20.763,20.763,0,0,0,7.753-.515" transform="translate(-32.497 -28.092)" fill="#eb7e2e"/>
              <path id="Trazado_610111" data-name="Trazado 610111" d="M157.209,213.555a7.854,7.854,0,0,0-1.012-.477c-.323-.116-.652-.214-.978-.319l-.773-.247c.028-.018.06-.028.088-.048a20.735,20.735,0,0,1,1.984-1.649c.562-.294.228-1.025-.294-1.084a2.47,2.47,0,0,0-1.934,1.033,2.958,2.958,0,0,1-2.69.9c-2.41-.216-4.833-.808-7.215-1.232s-4.781-.857-7.176-1.259c-2.245-.377-4.6-.933-6.841-.274.331-1.269.654-2.541.951-3.818a26.767,26.767,0,0,0,.916-4.531c.039-.748-1.016-.809-1.242-.168a39.439,39.439,0,0,0-.991,4.507q-.486,2.172-1.035,4.331c-.367,1.438-.675,2.892-1.029,4.333q-.275,1.121-.567,2.238a6.8,6.8,0,0,0-.389,1.988c.006.126.185.236.279.116a13.031,13.031,0,0,0,1.5-3.773c.5-1.473,1.012-2.959,1.415-4.463a.344.344,0,0,0,.192.041,28.735,28.735,0,0,1,7.376.863c2.5.475,5.01.909,7.516,1.358a53.643,53.643,0,0,0,6.757,1.152,5.015,5.015,0,0,0,.875-.044c.026,1.5.218,3.008.241,4.51.012.819.008,1.639.012,2.458,0,.393-.012.786,0,1.179.012.473.113.905.166,1.373a.08.08,0,0,0,.155.021,10.085,10.085,0,0,0,.36-1.3c.055-.356.084-.716.119-1.074.087-.884.132-1.767.157-2.655.036-1.286.108-2.617.03-3.919l.648.279c.332.144.663.292,1,.426a6.99,6.99,0,0,0,.989.279.58.58,0,0,0,.679-.334.574.574,0,0,0-.236-.719" transform="translate(-39.246 -61.797)" fill="#381f59"/>
              <path id="Trazado_610112" data-name="Trazado 610112" d="M180.05,253.986c.105-.448.213-.955.322-1.515a29.586,29.586,0,0,1-6.457.142,31.354,31.354,0,0,1-10.034-2.812c-.015.354-.029.693-.042,1.013a27.784,27.784,0,0,0,9.786,3.041,29.167,29.167,0,0,0,6.425.131" transform="translate(-50.638 -77.206)" fill="#381f59"/>
              <path id="Trazado_610113" data-name="Trazado 610113" d="M88.8,299.684a41.574,41.574,0,0,1-5.684-1.649c-.7-.255-1.385-.54-2.073-.826-.041.355-.079.686-.115,1,.64.307,1.284.6,1.923.871a37.249,37.249,0,0,0,6.058,2.007,29.056,29.056,0,0,0,6.131.784q.827.014,1.654-.028c.171-.466.363-1.012.573-1.62-.792.077-1.588.123-2.384.123a29.505,29.505,0,0,1-6.082-.658" transform="translate(-25.011 -91.859)" fill="#381f59"/>
              <path id="Trazado_610114" data-name="Trazado 610114" d="M124.912,157.785a54.3,54.3,0,0,0,8.608-1.181,26.865,26.865,0,0,0,11.46-5.44,5.6,5.6,0,0,1,1.538-1.074,5.271,5.271,0,0,1,1.452-.256,36.546,36.546,0,0,0,5.3-.864,11.478,11.478,0,0,0,4.565-1.951,4.913,4.913,0,0,0,1.987-4.35,1.068,1.068,0,0,0-.288-.665,1.259,1.259,0,0,0-1.087-.12l-7.463,1.485-17.171,3.416L123.163,148.9Z" transform="translate(-38.066 -43.833)" fill="#7695cc"/>
              <path id="Trazado_610115" data-name="Trazado 610115" d="M149.388,136.478c2.555-.633,4.977-3.548,7.2-4.994s3.3.4.408,4.125a47.5,47.5,0,0,0,6.513-3.066c2.164-1.393,2.929.6,2.333,1.426a16.255,16.255,0,0,1-2.528,2.238,26.549,26.549,0,0,0,3.644-1.617c.929-.622,2.314.957.962,2.419a2.107,2.107,0,0,1-.281,2.605s.41.678-.728,1.691-6.193,2.042-8.52,2.6a33.251,33.251,0,0,1-7.7.511c-2.04-.057-4.114-7.246-1.309-7.942" transform="translate(-45.75 -40.486)" fill="#cf9585"/>
              <path id="Trazado_610116" data-name="Trazado 610116" d="M153.6,143.184a20.936,20.936,0,0,0-3.547-4.569,5.155,5.155,0,0,1-.662.219c-2.805.7-.732,7.884,1.309,7.942,1.118.032,2.624.039,4.14-.048a11.358,11.358,0,0,0-1.24-3.543" transform="translate(-45.751 -42.842)" fill="#b77967"/>
              <path id="Trazado_610117" data-name="Trazado 610117" d="M102.312,136.333c9.484,1.16,29.53.418,31.1,1.137s4.3,8.431,2.426,9.906-23.531,7.34-32.395,5.765-1.136-16.808-1.136-16.808" transform="translate(-30.657 -42.137)" fill="#ebaf52"/>
              <path id="Trazado_610118" data-name="Trazado 610118" d="M133.931,158.785a47.821,47.821,0,0,1-17.026,6.992,50.244,50.244,0,0,1-9.759.75c-3.451-.025-6.905-.1-10.347-.35a89.105,89.105,0,0,1-11.143-1.548,11.036,11.036,0,0,0,.654-4.07c.05-1.728.182-3.434.369-5.153.191-1.749.44-3.492.667-5.237.113-.872.219-1.744.3-2.621a13.292,13.292,0,0,0,.11-2.268,46.585,46.585,0,0,0,10.127,1.628,82.974,82.974,0,0,0,10.816-.149,71.242,71.242,0,0,0,10.256-1.433,47.178,47.178,0,0,0,5.482-1.6c.924-.325,1.844-.652,2.751-1.023.779-.319,1.9-.471,2.479-1.139.547-.627.337-1.563.366-2.322a13.921,13.921,0,0,0-.116-2.356,8.368,8.368,0,0,0-1.32-4c-1.81-2.38-5.022-2.411-7.723-2.294a115.38,115.38,0,0,1-19.852-.964q-2.8-.363-5.592-.779c-.921-.137-1.849-.3-2.78-.435a6.248,6.248,0,0,0,.006-1.011q-.017-.8.027-1.6a22.787,22.787,0,0,1,.38-3.106,24.739,24.739,0,0,1,.8-3.008c.166-.505.356-1,.55-1.494a3.244,3.244,0,0,0,.412-1.4.186.186,0,0,0-.276-.158,2.556,2.556,0,0,0-.868,1.166c-.251.482-.466.985-.671,1.488a19.466,19.466,0,0,0-.958,3.13,20.894,20.894,0,0,0-.461,3.225q-.051.8-.041,1.6a6.691,6.691,0,0,0,.052,1.039c-.564-.064-1.128-.115-1.692-.131-.147,0-.159.2-.033.244a18.029,18.029,0,0,0,2.076.594.427.427,0,0,0,.282.068c.759.167,1.525.307,2.28.446q2.352.431,4.716.786c3.135.466,6.292.808,9.453,1.041s6.363.329,9.546.253c1.563-.038,3.129-.182,4.692-.168a11.571,11.571,0,0,1,1.869.153,27.547,27.547,0,0,1,1.65,4.6,18.744,18.744,0,0,1,.56,3.877,16.477,16.477,0,0,1-.1,2.021c-.723.292-1.452.569-2.19.824-1.583.547-3.247.947-4.876,1.338a69.277,69.277,0,0,1-9.991,1.608c-6.947.625-14.127.667-20.936-1.012a37.708,37.708,0,0,1-10.289-4.193c-.135-.08-.239.115-.12.2a28.049,28.049,0,0,0,8.6,4.249,18.333,18.333,0,0,0-.3,2.47q-.144,1.224-.3,2.447c-.213,1.716-.45,3.43-.635,5.149-.178,1.666-.25,3.338-.269,5.013a13.241,13.241,0,0,1-.685,4.68.246.246,0,0,0,.112.307.345.345,0,0,0,.142.079A55.934,55.934,0,0,0,95.416,166.9c3.455.3,6.929.384,10.395.433a60.344,60.344,0,0,0,10.082-.539,44.475,44.475,0,0,0,9.069-2.405,40.307,40.307,0,0,0,9.345-4.962c.381-.276.035-.909-.376-.643M125.4,131.7a5.535,5.535,0,0,1,1.512.627,5.3,5.3,0,0,1,2.182,3.815,24.229,24.229,0,0,1,.354,4.894c-.366.158-.748.263-1.114.421l-.3.129c0-.433-.023-.863-.057-1.275a20.234,20.234,0,0,0-.772-4.075,27.439,27.439,0,0,0-1.8-4.535" transform="translate(-24.245 -36.041)" fill="#eb7e2e"/>
              <path id="Trazado_610119" data-name="Trazado 610119" d="M162.066,132.741c-.017-.079-.115-.073-.155-.02a2.628,2.628,0,0,0-.257.605,6.838,6.838,0,0,1-.3.644,6.91,6.91,0,0,1-.77,1.149,7.821,7.821,0,0,1-.958.961,5.462,5.462,0,0,0-1.094.9.276.276,0,0,0,.236.412,2.455,2.455,0,0,0,1.329-.792,6.3,6.3,0,0,0,.976-1.143,6.589,6.589,0,0,0,.683-1.316,5.907,5.907,0,0,0,.222-.69,1.629,1.629,0,0,0,.091-.708" transform="translate(-48.985 -41.008)" fill="#b77967"/>
              <path id="Trazado_610120" data-name="Trazado 610120" d="M171.087,134.1a.077.077,0,0,0-.14-.018c-.155.266-.262.554-.442.807a4.509,4.509,0,0,1-.687.737A13.152,13.152,0,0,1,168.1,136.9c-.582.366-1.2.689-1.814,1-.313.155-.63.3-.953.435a2.643,2.643,0,0,0-.913.466.28.28,0,0,0,.2.473,2.362,2.362,0,0,0,1.117-.307c.331-.138.659-.285.979-.447a12.771,12.771,0,0,0,1.971-1.266,12.2,12.2,0,0,0,1.654-1.463,2.146,2.146,0,0,0,.749-1.685" transform="translate(-50.793 -41.43)" fill="#b77967"/>
              <path id="Trazado_610121" data-name="Trazado 610121" d="M173.927,138.95c.044-.057.1-.106.136-.167a1.648,1.648,0,0,0,.1-1.883.031.031,0,0,0-.053.022,2.246,2.246,0,0,1-.737,1.906,8.084,8.084,0,0,1-1.915,1.159,18.537,18.537,0,0,1-2.091.858c-.718.247-1.483.377-2.186.66-.265.106-.258.538.072.533a8.265,8.265,0,0,0,2.586-.642,15.946,15.946,0,0,0,2.371-1.1,6.719,6.719,0,0,0,1.414-.994,1.391,1.391,0,0,1,.1.12,1,1,0,0,1,.151.377,1.36,1.36,0,0,1-.148.888,3.406,3.406,0,0,1-1.581,1.295,11.069,11.069,0,0,1-2.047.733,12.351,12.351,0,0,0-2.1.574c-.113.053-.046.208.059.216a4.8,4.8,0,0,0,1.3-.14c.412-.081.824-.168,1.228-.281a9.057,9.057,0,0,0,2.387-1.025,5.25,5.25,0,0,0,.443-.311.777.777,0,0,1-.008.176,1.847,1.847,0,0,1-.27.634,2.942,2.942,0,0,1-1.122.954,8.2,8.2,0,0,1-1.461.572c-.516.158-1.05.236-1.564.4a.026.026,0,0,0,0,.049,4.1,4.1,0,0,0,1.852-.064,5.87,5.87,0,0,0,1.754-.683,2.952,2.952,0,0,0,1.186-1.208c.127-.265.385-1.009.134-1.318a1.926,1.926,0,0,0,.42-.821,1.748,1.748,0,0,0-.053-.957,1.172,1.172,0,0,0-.354-.53" transform="translate(-51.614 -42.309)" fill="#b77967"/>
              <path id="Trazado_610122" data-name="Trazado 610122" d="M107.988,57.1l-.018.01c.13-.034.075-.036.018-.01" transform="translate(-33.371 -17.642)" fill="#42346e"/>
              <path id="Trazado_610123" data-name="Trazado 610123" d="M108.742,55.292a.988.988,0,0,0-1.114-.578,3.637,3.637,0,0,0-1.606.543,2.816,2.816,0,0,0-.7.607,1.41,1.41,0,0,0-.437,1.174.568.568,0,0,0,.693.393,1.2,1.2,0,0,0,.169-.068c.216-.115.126-.1.058-.044a1.624,1.624,0,0,0,.227-.195,2.579,2.579,0,0,1,.239-.252c.046-.042.093-.082.141-.122l0,0,.006,0c.041-.031.081-.062.121-.095l.008-.007.01-.007c.056-.04.113-.078.172-.113a2.82,2.82,0,0,1,.274-.147l-.024.007c.025-.006.054-.021.077-.03.058-.021.117-.041.176-.059a2.856,2.856,0,0,1,.311-.073H107.5a.563.563,0,0,0,.068-.007l.008,0a.132.132,0,0,1,.049,0l.163-.008a1.407,1.407,0,0,0,.24-.028c.048-.008.14-.02-.076.008a.987.987,0,0,0,.436-.122c.036-.023.273-.213.054-.041a.776.776,0,0,0,.231-.231.634.634,0,0,0,.065-.5" transform="translate(-32.411 -16.908)" fill="#42346e"/>
              <path id="Trazado_610124" data-name="Trazado 610124" d="M108.774,56.886l-.023,0c.068,0,.088-.006.079-.008l-.043,0h-.014" transform="translate(-33.612 -17.581)" fill="#42346e"/>
              <path id="Trazado_610125" data-name="Trazado 610125" d="M124.955,52.658a1.466,1.466,0,0,0-1.083-.882,2.9,2.9,0,0,0-1.106-.127,2.868,2.868,0,0,0-1.157.345c-.411.226-.875.6-.767,1.128a.475.475,0,0,0,.446.341.636.636,0,0,0,.321-.073c.053-.023.2-.086.155-.061.025-.013.047-.027.07-.042.064-.041.126-.084.193-.12.03-.017.061-.033.093-.048s.126-.048.044-.021l.039-.013c.032-.012.066-.022.1-.032.066-.02.134-.037.2-.051.035-.008.069-.013.1-.019l.02,0,.049-.006h.007c.042,0,.084-.008.126-.01q.1-.006.209,0c.041,0,.1.012.154.015-.032-.006-.049-.017.025,0h.006c.007,0,.018,0,.024,0a.145.145,0,0,1-.018,0l.09.019c.068.015.135.034.2.055l.081.03c-.033-.015-.068-.037-.007-.006l.02.01.023.008s-.01,0-.017,0q.089.045.176.093c.061.034.122.066.184.1a1.2,1.2,0,0,0,.44.109.579.579,0,0,0,.554-.728" transform="translate(-37.344 -15.96)" fill="#42346e"/>
              <path id="Trazado_610126" data-name="Trazado 610126" d="M124.814,53.722l.019.008-.006,0-.013,0" transform="translate(-38.577 -16.604)" fill="#42346e"/>
              <path id="Trazado_610127" data-name="Trazado 610127" d="M121.99,54.149l-.039.015c-.029.013-.032.015.039-.015" transform="translate(-37.686 -16.736)" fill="#42346e"/>
              <path id="Trazado_610128" data-name="Trazado 610128" d="M124.221,53.569a.134.134,0,0,0,.037,0h-.037" transform="translate(-38.393 -16.557)" fill="#42346e"/>
              <path id="Trazado_610129" data-name="Trazado 610129" d="M110.442,63.008c.178-1.293-.568-2.938-1.835-3.017a1.242,1.242,0,0,0-.845.289,1.615,1.615,0,0,0-.54.817,3.065,3.065,0,0,0,.2,1.868,2.072,2.072,0,0,0,1.111,1.284,1.032,1.032,0,0,0,.256.155,1.07,1.07,0,0,0,1.029-.183,1.836,1.836,0,0,0,.622-1.213" transform="translate(-33.117 -18.541)" fill="#381f59"/>
              <path id="Trazado_610130" data-name="Trazado 610130" d="M125.566,60.207c.268-1.277-.36-2.97-1.619-3.138a1.235,1.235,0,0,0-.863.229,1.609,1.609,0,0,0-.6.776,3.061,3.061,0,0,0,.07,1.877,2.072,2.072,0,0,0,1.018,1.359,1.046,1.046,0,0,0,.245.173,1.07,1.07,0,0,0,1.039-.11,1.841,1.841,0,0,0,.705-1.167" transform="translate(-37.821 -17.636)" fill="#381f59"/>
              <path id="Trazado_610131" data-name="Trazado 610131" d="M116.178,67.021s.007,0,.01-.008c.015-.022.022-.032-.01.008" transform="translate(-35.907 -20.706)" fill="#b77967"/>
              <path id="Trazado_610132" data-name="Trazado 610132" d="M119.243,65.912a.485.485,0,0,0-.578-.075,2.965,2.965,0,0,0-.348.288l-.067.057,0,0c-.051.034-.1.069-.153.1s-.106.059-.161.086l-.036.017-.055.023a2.307,2.307,0,0,1-.353.1l-.072.012-.012,0h-.017c-.061,0-.122.01-.183.01-.115,0-.231,0-.345,0s-.234,0-.35-.017a.449.449,0,0,0-.22.015.294.294,0,0,0-.117.1.318.318,0,0,0-.032.059c-.1.315.4.535.634.617a1.933,1.933,0,0,0,.871.073,2.906,2.906,0,0,0,.934-.269,1.574,1.574,0,0,0,.74-.625.49.49,0,0,0-.075-.578" transform="translate(-35.891 -20.328)" fill="#b77967"/>
              <path id="Trazado_610133" data-name="Trazado 610133" d="M107.206,60.655a.774.774,0,0,0,0,1.548.774.774,0,0,0,0-1.548" transform="translate(-32.903 -18.747)" fill="#fff"/>
              <path id="Trazado_610134" data-name="Trazado 610134" d="M122.373,57.133a.774.774,0,0,0,0,1.548.774.774,0,0,0,0-1.548" transform="translate(-37.591 -17.658)" fill="#fff"/>
              <path id="Trazado_610135" data-name="Trazado 610135" d="M113.985,71.067c-.113-.62,6.986-1.834,7.684-1.485s-.524,3.057-2.969,3.493-4.541-1.048-4.716-2.009" transform="translate(-35.229 -21.487)" fill="#fff"/>
              <path id="Trazado_610136" data-name="Trazado 610136" d="M101.789,386.534H48.22a2.521,2.521,0,0,1-2.521-2.521V333.329a2.521,2.521,0,0,1,2.521-2.521h53.569Z" transform="translate(-14.124 -102.244)" fill="#9cb3e7"/>
              <path id="Trazado_610137" data-name="Trazado 610137" d="M139.7,337.035l-12.821-6.227v55.726l12.762-5.166a.948.948,0,0,0,.593-.879v-42.6a.948.948,0,0,0-.534-.853" transform="translate(-39.215 -102.244)" fill="#7695cc"/>
              <path id="Trazado_610138" data-name="Trazado 610138" d="M207.453,372.93H153.884a2.521,2.521,0,0,1-2.521-2.521v-81.1a2.521,2.521,0,0,1,2.521-2.521h53.569Z" transform="translate(-46.782 -88.639)" fill="#9cb3e7"/>
              <path id="Trazado_610139" data-name="Trazado 610139" d="M245.52,296.534l-12.976-9.743V372.93l12.909-8.077a.949.949,0,0,0,.445-.8V297.292a.949.949,0,0,0-.379-.759" transform="translate(-71.873 -88.639)" fill="#7695cc"/>
              <path id="Trazado_610140" data-name="Trazado 610140" d="M314.728,372.93H261.159a2.521,2.521,0,0,1-2.521-2.521v-81.1a2.521,2.521,0,0,1,2.521-2.521h53.569Z" transform="translate(-79.938 -88.639)" fill="#9cb3e7"/>
              <path id="Trazado_610141" data-name="Trazado 610141" d="M352.795,296.534l-12.976-9.743V372.93l12.909-8.077a.949.949,0,0,0,.445-.8V297.292a.949.949,0,0,0-.379-.759" transform="translate(-105.029 -88.639)" fill="#7695cc"/>
              <path id="Trazado_610142" data-name="Trazado 610142" d="M201.207,224.374l23.9-61.012,30.507,21.7,25.159-48.275L299.8,148.58,262.535,215.1l-34.91-36.01Z" transform="translate(-62.188 -42.277)" fill="#a3cac1"/>
              <path id="Trazado_610143" data-name="Trazado 610143" d="M299.3,122.594l41.986,25.16-5.976-40.1Z" transform="translate(-92.505 -33.273)" fill="#a3cac1"/>
              <path id="Trazado_610144" data-name="Trazado 610144" d="M189.606,73.513l.305,1.494a.974.974,0,0,0,.759.759l1.494.305a.974.974,0,0,1,0,1.908l-1.494.305a.974.974,0,0,0-.759.759l-.305,1.494a.974.974,0,0,1-1.908,0l-.305-1.494a.974.974,0,0,0-.759-.759l-1.494-.305a.974.974,0,0,1,0-1.908l1.494-.305a.974.974,0,0,0,.759-.759l.305-1.494a.973.973,0,0,1,1.908,0" transform="translate(-56.981 -22.48)" fill="#ffde94"/>
              <path id="Trazado_610145" data-name="Trazado 610145" d="M78.876.779l.305,1.494a.974.974,0,0,0,.759.759l1.494.305a.973.973,0,0,1,0,1.908l-1.494.306a.974.974,0,0,0-.759.759L78.876,7.8a.974.974,0,0,1-1.908,0l-.305-1.494a.974.974,0,0,0-.759-.759l-1.494-.306a.974.974,0,0,1,0-1.908L75.9,3.032a.974.974,0,0,0,.759-.759L76.968.779a.973.973,0,0,1,1.908,0" transform="translate(-22.757 0)" fill="#ffde94"/>
              <path id="Trazado_610146" data-name="Trazado 610146" d="M219.719,255.643l.305,1.494a.974.974,0,0,0,.759.759l1.494.305a.974.974,0,0,1,0,1.908l-1.494.305a.974.974,0,0,0-.759.759l-.305,1.494a.974.974,0,0,1-1.908,0l-.305-1.494a.974.974,0,0,0-.759-.759l-1.494-.305a.974.974,0,0,1,0-1.908l1.494-.305a.974.974,0,0,0,.759-.759l.305-1.494a.973.973,0,0,1,1.908,0" transform="translate(-66.288 -78.771)" fill="#ffde94"/>
              <path id="Trazado_610147" data-name="Trazado 610147" d="M425.688,67.3l.305,1.494a.973.973,0,0,0,.759.759l1.494.305a.974.974,0,0,1,0,1.908l-1.494.305a.973.973,0,0,0-.759.759l-.305,1.494a.974.974,0,0,1-1.908,0l-.305-1.494a.974.974,0,0,0-.759-.759l-1.494-.305a.974.974,0,0,1,0-1.908l1.494-.305a.974.974,0,0,0,.759-.759l.305-1.494a.973.973,0,0,1,1.908,0" transform="translate(-129.947 -20.561)" fill="#ffde94"/>
              <path id="Trazado_610148" data-name="Trazado 610148" d="M206.268,55.334l.464,2.272a1.48,1.48,0,0,0,1.154,1.154l2.272.464a1.48,1.48,0,0,1,0,2.9l-2.272.464a1.48,1.48,0,0,0-1.154,1.154l-.464,2.272a1.48,1.48,0,0,1-2.9,0l-.464-2.272a1.48,1.48,0,0,0-1.154-1.154l-2.272-.464a1.48,1.48,0,0,1,0-2.9l2.272-.464a1.48,1.48,0,0,0,1.154-1.154l.464-2.272a1.48,1.48,0,0,1,2.9,0" transform="translate(-61.287 -16.736)" fill="#ffde94"/>
              <path id="Trazado_610149" data-name="Trazado 610149" d="M374.255,279.914l.464,2.272a1.48,1.48,0,0,0,1.154,1.154l2.272.464a1.48,1.48,0,0,1,0,2.9l-2.272.464a1.48,1.48,0,0,0-1.154,1.154l-.464,2.272a1.48,1.48,0,0,1-2.9,0l-.464-2.272a1.48,1.48,0,0,0-1.154-1.154l-2.272-.464a1.48,1.48,0,0,1,0-2.9l2.272-.464a1.48,1.48,0,0,0,1.154-1.154l.464-2.272a1.48,1.48,0,0,1,2.9,0" transform="translate(-113.208 -86.148)" fill="#ffde94"/>
              <path id="Trazado_610150" data-name="Trazado 610150" d="M7.974,166.357l.464,2.272a1.48,1.48,0,0,0,1.154,1.154l2.272.464a1.48,1.48,0,0,1,0,2.9l-2.272.464a1.48,1.48,0,0,0-1.154,1.154l-.464,2.272a1.48,1.48,0,0,1-2.9,0l-.464-2.272a1.48,1.48,0,0,0-1.154-1.154l-2.272-.464a1.48,1.48,0,0,1,0-2.9l2.272-.464a1.48,1.48,0,0,0,1.154-1.154l.464-2.272a1.48,1.48,0,0,1,2.9,0" transform="translate(0 -51.05)" fill="#ffde94"/>
            </g>
          </g>
        </g>
        <rect id="Rectángulo_377926" data-name="Rectángulo 377926" width="610" height="92" rx="13" transform="translate(285 1022.462)" fill="#ffe7af"/>
        <rect id="Rectángulo_377927" data-name="Rectángulo 377927" width="400" height="92" rx="13" transform="translate(285 1121.462)" fill="#c3d7f5"/>
        <rect id="Rectángulo_377929" data-name="Rectángulo 377929" width="197" height="92" rx="13" transform="translate(285 1220.462)" fill="#e7effb"/>
        <rect id="Rectángulo_377930" data-name="Rectángulo 377930" width="198" height="92" rx="13" transform="translate(487 1220.462)" fill="#e7effb"/>
        <rect id="Rectángulo_377931" data-name="Rectángulo 377931" width="204" height="92" rx="13" transform="translate(691 1220.462)" fill="#dffaff"/>
        <rect id="Rectángulo_377928" data-name="Rectángulo 377928" width="204" height="92" rx="15" transform="translate(691 1121.462)" fill="#94eeff"/>
        <path id="Trazado_610564" data-name="Trazado 610564" d="M4.052-4.342V0H.967V-12.8H6.073a5.948,5.948,0,0,1,2.6.541,4.074,4.074,0,0,1,1.749,1.538,4.2,4.2,0,0,1,.62,2.263A3.7,3.7,0,0,1,9.7-5.462,5.561,5.561,0,0,1,6.021-4.342Zm0-2.382H6.073A1.906,1.906,0,0,0,7.44-7.172a1.665,1.665,0,0,0,.47-1.266A2.059,2.059,0,0,0,7.427-9.87a1.712,1.712,0,0,0-1.318-.545H4.052ZM18.3-6.829l-.976-.07a1.752,1.752,0,0,0-1.793.879V0H12.568V-9.51h2.777l.1,1.222a2.294,2.294,0,0,1,2.083-1.4,2.888,2.888,0,0,1,.826.105Zm.378,1.986a5.613,5.613,0,0,1,.554-2.536,3.96,3.96,0,0,1,1.591-1.709,4.791,4.791,0,0,1,2.435-.6,4.373,4.373,0,0,1,3.366,1.323,5.076,5.076,0,0,1,1.23,3.6v.105a4.925,4.925,0,0,1-1.235,3.529A4.384,4.384,0,0,1,23.273.176a4.434,4.434,0,0,1-3.261-1.217,4.761,4.761,0,0,1-1.327-3.3Zm2.962.185a3.538,3.538,0,0,0,.413,1.934,1.376,1.376,0,0,0,1.222.615q1.582,0,1.617-2.435v-.3q0-2.558-1.635-2.558-1.485,0-1.608,2.206Zm11.188.51L34.409-9.51h3.173l-3.876,11.1-.167.4a2.944,2.944,0,0,1-2.918,1.846A4.642,4.642,0,0,1,29.4,3.666V1.556h.387a2.026,2.026,0,0,0,.954-.18,1.094,1.094,0,0,0,.488-.647L31.465.1,28.16-9.51h3.164ZM42.838.176A4.889,4.889,0,0,1,39.3-1.129a4.507,4.507,0,0,1-1.354-3.4v-.246a5.84,5.84,0,0,1,.541-2.575,3.955,3.955,0,0,1,1.578-1.727,4.763,4.763,0,0,1,2.461-.611,4.117,4.117,0,0,1,3.164,1.244,4.887,4.887,0,0,1,1.16,3.467v1.151H40.957a2.135,2.135,0,0,0,.694,1.257,2.066,2.066,0,0,0,1.389.457,2.662,2.662,0,0,0,2.2-.984l1.354,1.6A3.784,3.784,0,0,1,45.022-.277,5.3,5.3,0,0,1,42.838.176ZM42.5-7.4q-1.3,0-1.547,1.723h2.988v-.229a1.467,1.467,0,0,0-.36-1.1A1.434,1.434,0,0,0,42.5-7.4Zm9.554,5.291a1.317,1.317,0,0,0,.967-.338,1.241,1.241,0,0,0,.334-.945h2.777A3.288,3.288,0,0,1,55.015-.826a4.168,4.168,0,0,1-2.887,1,4.22,4.22,0,0,1-3.27-1.3,5.125,5.125,0,0,1-1.2-3.6v-.123A5.792,5.792,0,0,1,48.195-7.4a3.872,3.872,0,0,1,1.534-1.7A4.573,4.573,0,0,1,52.1-9.686a4.116,4.116,0,0,1,2.944,1.028,3.647,3.647,0,0,1,1.09,2.786H53.358A1.626,1.626,0,0,0,53-7a1.244,1.244,0,0,0-.967-.4q-1.151,0-1.345,1.468a10.357,10.357,0,0,0-.062,1.283,4.068,4.068,0,0,0,.343,1.986A1.187,1.187,0,0,0,52.058-2.109Zm8.78-9.765V-9.51H62.4v2.057H60.838V-3.1a1.111,1.111,0,0,0,.193.747,1.037,1.037,0,0,0,.765.211,4.345,4.345,0,0,0,.738-.053V-.079a5.466,5.466,0,0,1-1.67.255,3.1,3.1,0,0,1-2.259-.721,2.954,2.954,0,0,1-.729-2.188v-4.72H56.663V-9.51h1.213v-2.364ZM62.93-4.843a5.613,5.613,0,0,1,.554-2.536,3.96,3.96,0,0,1,1.591-1.709,4.791,4.791,0,0,1,2.435-.6,4.373,4.373,0,0,1,3.366,1.323,5.076,5.076,0,0,1,1.23,3.6v.105a4.925,4.925,0,0,1-1.235,3.529A4.384,4.384,0,0,1,67.526.176a4.434,4.434,0,0,1-3.261-1.217,4.761,4.761,0,0,1-1.327-3.3Zm2.962.185A3.538,3.538,0,0,0,66.3-2.725a1.376,1.376,0,0,0,1.222.615q1.582,0,1.617-2.435v-.3q0-2.558-1.635-2.558-1.485,0-1.608,2.206ZM77.52-4.825a5.809,5.809,0,0,1,.976-3.56,3.211,3.211,0,0,1,2.725-1.3,2.731,2.731,0,0,1,2.145,1V-13.5h2.971V0H83.672l-.149-1.02A2.8,2.8,0,0,1,81.2.176a3.205,3.205,0,0,1-2.689-1.3A5.993,5.993,0,0,1,77.52-4.825Zm2.962.185q0,2.531,1.477,2.531a1.458,1.458,0,0,0,1.406-.826V-6.557A1.419,1.419,0,0,0,81.976-7.4Q80.6-7.4,80.49-5.186ZM92.619.176a4.889,4.889,0,0,1-3.542-1.305,4.507,4.507,0,0,1-1.354-3.4v-.246a5.84,5.84,0,0,1,.541-2.575,3.955,3.955,0,0,1,1.578-1.727A4.763,4.763,0,0,1,92.3-9.686a4.117,4.117,0,0,1,3.164,1.244,4.887,4.887,0,0,1,1.16,3.467v1.151H90.738a2.135,2.135,0,0,0,.694,1.257,2.066,2.066,0,0,0,1.389.457,2.662,2.662,0,0,0,2.2-.984l1.354,1.6A3.784,3.784,0,0,1,94.8-.277,5.3,5.3,0,0,1,92.619.176ZM92.285-7.4q-1.3,0-1.547,1.723h2.988v-.229a1.467,1.467,0,0,0-.36-1.1A1.434,1.434,0,0,0,92.285-7.4Zm13.808,3.876,1.5-5.985h3.12L107.613,0H104.59l-3.1-9.51h3.129ZM114.724,0h-2.971V-9.51h2.971Zm-3.146-11.962A1.322,1.322,0,0,1,112.034-13a1.724,1.724,0,0,1,1.187-.4,1.724,1.724,0,0,1,1.187.4,1.322,1.322,0,0,1,.457,1.037,1.322,1.322,0,0,1-.457,1.037,1.724,1.724,0,0,1-1.187.4,1.724,1.724,0,0,1-1.187-.4A1.322,1.322,0,0,1,111.577-11.962Zm4.6,7.137a5.809,5.809,0,0,1,.976-3.56,3.211,3.211,0,0,1,2.725-1.3,2.731,2.731,0,0,1,2.145,1V-13.5h2.971V0h-2.663l-.149-1.02a2.8,2.8,0,0,1-2.32,1.2,3.205,3.205,0,0,1-2.689-1.3A5.993,5.993,0,0,1,116.174-4.825Zm2.962.185q0,2.531,1.477,2.531a1.458,1.458,0,0,0,1.406-.826V-6.557A1.419,1.419,0,0,0,120.63-7.4q-1.371,0-1.485,2.215ZM132.029,0a3.344,3.344,0,0,1-.281-.853A2.754,2.754,0,0,1,129.463.176a3.374,3.374,0,0,1-2.285-.813,2.588,2.588,0,0,1-.94-2.043,2.66,2.66,0,0,1,1.143-2.338A5.821,5.821,0,0,1,130.7-5.81h.914v-.5q0-1.316-1.134-1.316a.927.927,0,0,0-1.055,1.042h-2.962a2.655,2.655,0,0,1,1.173-2.239,4.931,4.931,0,0,1,2.993-.86,4.323,4.323,0,0,1,2.874.888,3.086,3.086,0,0,1,1.081,2.435v4.21a4.311,4.311,0,0,0,.4,2V0Zm-1.854-1.934a1.652,1.652,0,0,0,.918-.237,1.487,1.487,0,0,0,.523-.536V-4.228h-.861q-1.547,0-1.547,1.389a.848.848,0,0,0,.272.655A.986.986,0,0,0,130.175-1.934Z" transform="translate(523 1074.462)" fill="#12263f"/>
        <path id="Trazado_610565" data-name="Trazado 610565" d="M3.665-12.8,7.849-2.355,12.032-12.8h2.188V0H12.533V-4.983l.158-5.379L8.49,0H7.2L3.006-10.336l.167,5.353V0H1.485V-12.8ZM18.712,0H17.086V-9.51h1.626ZM16.954-12.032A.971.971,0,0,1,17.2-12.7a.907.907,0,0,1,.716-.272.922.922,0,0,1,.721.272.96.96,0,0,1,.246.668.929.929,0,0,1-.246.659.938.938,0,0,1-.721.264.924.924,0,0,1-.716-.264A.938.938,0,0,1,16.954-12.032Zm9.9,9.51a1.2,1.2,0,0,0-.5-1.024,4.78,4.78,0,0,0-1.731-.628,8.186,8.186,0,0,1-1.96-.633,2.788,2.788,0,0,1-1.072-.879A2.1,2.1,0,0,1,21.243-6.9a2.467,2.467,0,0,1,.989-1.978,3.861,3.861,0,0,1,2.527-.809,3.974,3.974,0,0,1,2.624.835,2.652,2.652,0,0,1,1.006,2.136H26.754a1.468,1.468,0,0,0-.567-1.151,2.124,2.124,0,0,0-1.428-.483,2.223,2.223,0,0,0-1.389.387,1.217,1.217,0,0,0-.5,1.011.986.986,0,0,0,.466.888,5.731,5.731,0,0,0,1.683.571,8.77,8.77,0,0,1,1.973.65,2.878,2.878,0,0,1,1.121.91,2.237,2.237,0,0,1,.365,1.3,2.434,2.434,0,0,1-1.02,2.043,4.277,4.277,0,0,1-2.646.769,4.789,4.789,0,0,1-2.021-.4,3.288,3.288,0,0,1-1.375-1.129,2.722,2.722,0,0,1-.5-1.569h1.626a1.683,1.683,0,0,0,.655,1.3,2.54,2.54,0,0,0,1.613.479,2.622,2.622,0,0,0,1.481-.374A1.148,1.148,0,0,0,26.851-2.522ZM32.361,0H30.735V-9.51h1.626ZM30.6-12.032a.971.971,0,0,1,.242-.668.907.907,0,0,1,.716-.272.922.922,0,0,1,.721.272.96.96,0,0,1,.246.668.929.929,0,0,1-.246.659.938.938,0,0,1-.721.264.924.924,0,0,1-.716-.264A.938.938,0,0,1,30.6-12.032Zm3.929,7.189a5.617,5.617,0,0,1,.549-2.514,4.1,4.1,0,0,1,1.529-1.723,4.163,4.163,0,0,1,2.237-.606A4.01,4.01,0,0,1,41.99-8.341a5.174,5.174,0,0,1,1.2,3.577v.114a5.666,5.666,0,0,1-.532,2.492A4.038,4.038,0,0,1,41.137-.439a4.211,4.211,0,0,1-2.272.615,4,4,0,0,1-3.133-1.345,5.147,5.147,0,0,1-1.2-3.56Zm1.635.193a4.068,4.068,0,0,0,.734,2.54,2.349,2.349,0,0,0,1.964.958,2.335,2.335,0,0,0,1.969-.971,4.449,4.449,0,0,0,.729-2.72,4.061,4.061,0,0,0-.743-2.536,2.361,2.361,0,0,0-1.973-.971,2.335,2.335,0,0,0-1.942.958A4.416,4.416,0,0,0,36.167-4.649ZM39.586-13.5h1.969L39.2-10.916l-1.31,0Zm7.181,3.99.053,1.2a3.465,3.465,0,0,1,2.848-1.371q3.015,0,3.041,3.4V0H51.082V-6.293a2.189,2.189,0,0,0-.47-1.521,1.884,1.884,0,0,0-1.437-.492,2.347,2.347,0,0,0-1.389.422,2.865,2.865,0,0,0-.932,1.107V0H45.229V-9.51Z" transform="translate(457.5 1173.462)" fill="#12263f"/>
        <path id="Trazado_610566" data-name="Trazado 610566" d="M5.722-2.241,9.378-12.8h1.846L6.478,0H4.983L.246-12.8H2.083ZM14.449,0H12.823V-9.51h1.626ZM12.691-12.032a.971.971,0,0,1,.242-.668.907.907,0,0,1,.716-.272.922.922,0,0,1,.721.272.96.96,0,0,1,.246.668.929.929,0,0,1-.246.659.938.938,0,0,1-.721.264.924.924,0,0,1-.716-.264A.938.938,0,0,1,12.691-12.032Zm9.9,9.51a1.2,1.2,0,0,0-.5-1.024,4.78,4.78,0,0,0-1.731-.628,8.186,8.186,0,0,1-1.96-.633,2.788,2.788,0,0,1-1.072-.879A2.1,2.1,0,0,1,16.98-6.9a2.467,2.467,0,0,1,.989-1.978A3.861,3.861,0,0,1,20.5-9.686a3.974,3.974,0,0,1,2.624.835,2.652,2.652,0,0,1,1.006,2.136H22.491a1.468,1.468,0,0,0-.567-1.151A2.124,2.124,0,0,0,20.5-8.35a2.223,2.223,0,0,0-1.389.387,1.217,1.217,0,0,0-.5,1.011.986.986,0,0,0,.466.888,5.731,5.731,0,0,0,1.683.571,8.77,8.77,0,0,1,1.973.65,2.878,2.878,0,0,1,1.121.91,2.237,2.237,0,0,1,.365,1.3,2.434,2.434,0,0,1-1.02,2.043,4.277,4.277,0,0,1-2.646.769,4.789,4.789,0,0,1-2.021-.4,3.288,3.288,0,0,1-1.375-1.129,2.722,2.722,0,0,1-.5-1.569h1.626a1.683,1.683,0,0,0,.655,1.3,2.54,2.54,0,0,0,1.613.479,2.622,2.622,0,0,0,1.481-.374A1.148,1.148,0,0,0,22.588-2.522ZM28.1,0H26.473V-9.51H28.1ZM26.341-12.032a.971.971,0,0,1,.242-.668.907.907,0,0,1,.716-.272.922.922,0,0,1,.721.272.96.96,0,0,1,.246.668.929.929,0,0,1-.246.659.938.938,0,0,1-.721.264.924.924,0,0,1-.716-.264A.938.938,0,0,1,26.341-12.032ZM30.27-4.843a5.617,5.617,0,0,1,.549-2.514,4.1,4.1,0,0,1,1.529-1.723,4.163,4.163,0,0,1,2.237-.606,4.01,4.01,0,0,1,3.142,1.345,5.174,5.174,0,0,1,1.2,3.577v.114A5.666,5.666,0,0,1,38.4-2.158,4.038,4.038,0,0,1,36.875-.439,4.211,4.211,0,0,1,34.6.176a4,4,0,0,1-3.133-1.345,5.147,5.147,0,0,1-1.2-3.56Zm1.635.193a4.068,4.068,0,0,0,.734,2.54,2.349,2.349,0,0,0,1.964.958,2.335,2.335,0,0,0,1.969-.971,4.449,4.449,0,0,0,.729-2.72,4.061,4.061,0,0,0-.743-2.536,2.361,2.361,0,0,0-1.973-.971,2.335,2.335,0,0,0-1.942.958A4.416,4.416,0,0,0,31.9-4.649ZM35.323-13.5h1.969l-2.355,2.584-1.31,0ZM42.5-9.51l.053,1.2A3.465,3.465,0,0,1,45.4-9.686q3.015,0,3.041,3.4V0H46.819V-6.293a2.189,2.189,0,0,0-.47-1.521,1.884,1.884,0,0,0-1.437-.492,2.347,2.347,0,0,0-1.389.422,2.865,2.865,0,0,0-.932,1.107V0H40.966V-9.51Z" transform="translate(765.5 1173.462)" fill="#12263f"/>
        <path id="Trazado_610567" data-name="Trazado 610567" d="M3.665-12.8,7.849-2.355,12.032-12.8h2.188V0H12.533V-4.983l.158-5.379L8.49,0H7.2L3.006-10.336l.167,5.353V0H1.485V-12.8ZM20.892.176a4.155,4.155,0,0,1-3.146-1.27,4.714,4.714,0,0,1-1.213-3.4v-.3a5.707,5.707,0,0,1,.541-2.527,4.217,4.217,0,0,1,1.512-1.74,3.8,3.8,0,0,1,2.1-.628,3.562,3.562,0,0,1,2.883,1.222,5.289,5.289,0,0,1,1.028,3.5v.677H18.158a3.38,3.38,0,0,0,.822,2.272,2.583,2.583,0,0,0,2,.866A2.832,2.832,0,0,0,22.438-1.5a3.666,3.666,0,0,0,1.046-.932l.993.773A3.993,3.993,0,0,1,20.892.176Zm-.2-8.525a2.169,2.169,0,0,0-1.652.716,3.482,3.482,0,0,0-.826,2.008h4.764v-.123a3.1,3.1,0,0,0-.668-1.92A2.042,2.042,0,0,0,20.689-8.35Zm8-3.463v2.3h1.775v1.257H28.688v5.9a1.32,1.32,0,0,0,.237.858,1,1,0,0,0,.809.286,3.937,3.937,0,0,0,.773-.105V0a4.742,4.742,0,0,1-1.248.175,2.025,2.025,0,0,1-1.644-.659,2.832,2.832,0,0,1-.554-1.872v-5.9H25.33V-9.51h1.731v-2.3ZM38.232,0A3.416,3.416,0,0,1,38-1,3.628,3.628,0,0,1,35.3.176a3.357,3.357,0,0,1-2.307-.8,2.573,2.573,0,0,1-.9-2.017,2.688,2.688,0,0,1,1.129-2.307A5.325,5.325,0,0,1,36.4-5.766h1.582v-.747a1.826,1.826,0,0,0-.51-1.358,2.049,2.049,0,0,0-1.5-.505,2.371,2.371,0,0,0-1.459.439,1.3,1.3,0,0,0-.589,1.063H32.282a2.244,2.244,0,0,1,.505-1.375A3.449,3.449,0,0,1,34.159-9.3a4.613,4.613,0,0,1,1.9-.387,3.759,3.759,0,0,1,2.575.822A2.964,2.964,0,0,1,39.6-6.6v4.377a5.351,5.351,0,0,0,.334,2.083V0Zm-2.7-1.239a2.858,2.858,0,0,0,1.45-.4,2.392,2.392,0,0,0,.993-1.028V-4.614H36.7q-2.988,0-2.988,1.749a1.48,1.48,0,0,0,.51,1.2A1.959,1.959,0,0,0,35.534-1.239ZM47.689-2.522a1.2,1.2,0,0,0-.5-1.024,4.78,4.78,0,0,0-1.731-.628,8.186,8.186,0,0,1-1.96-.633,2.788,2.788,0,0,1-1.072-.879A2.1,2.1,0,0,1,42.082-6.9a2.467,2.467,0,0,1,.989-1.978A3.861,3.861,0,0,1,45.6-9.686a3.974,3.974,0,0,1,2.624.835,2.652,2.652,0,0,1,1.006,2.136H47.593a1.468,1.468,0,0,0-.567-1.151A2.124,2.124,0,0,0,45.6-8.35a2.223,2.223,0,0,0-1.389.387,1.217,1.217,0,0,0-.5,1.011.986.986,0,0,0,.466.888,5.731,5.731,0,0,0,1.683.571,8.77,8.77,0,0,1,1.973.65,2.878,2.878,0,0,1,1.121.91,2.237,2.237,0,0,1,.365,1.3A2.434,2.434,0,0,1,48.3-.593,4.277,4.277,0,0,1,45.65.176a4.789,4.789,0,0,1-2.021-.4,3.288,3.288,0,0,1-1.375-1.129,2.722,2.722,0,0,1-.5-1.569h1.626a1.683,1.683,0,0,0,.655,1.3,2.54,2.54,0,0,0,1.613.479,2.622,2.622,0,0,0,1.481-.374A1.148,1.148,0,0,0,47.689-2.522Z" transform="translate(767.5 1272.462)" fill="#12263f"/>
        <path id="Trazado_610569" data-name="Trazado 610569" d="M8.719-5.915H3.173V-1.38H9.615V0H1.485V-12.8H9.527v1.38H3.173v4.122H8.719ZM17-2.522a1.2,1.2,0,0,0-.5-1.024,4.78,4.78,0,0,0-1.731-.628,8.186,8.186,0,0,1-1.96-.633,2.788,2.788,0,0,1-1.072-.879A2.1,2.1,0,0,1,11.391-6.9a2.467,2.467,0,0,1,.989-1.978,3.861,3.861,0,0,1,2.527-.809,3.974,3.974,0,0,1,2.624.835,2.652,2.652,0,0,1,1.006,2.136H16.9a1.468,1.468,0,0,0-.567-1.151,2.124,2.124,0,0,0-1.428-.483,2.223,2.223,0,0,0-1.389.387,1.217,1.217,0,0,0-.5,1.011.986.986,0,0,0,.466.888,5.731,5.731,0,0,0,1.683.571,8.77,8.77,0,0,1,1.973.65,2.878,2.878,0,0,1,1.121.91,2.237,2.237,0,0,1,.365,1.3A2.434,2.434,0,0,1,17.6-.593a4.277,4.277,0,0,1-2.646.769,4.789,4.789,0,0,1-2.021-.4,3.288,3.288,0,0,1-1.375-1.129,2.722,2.722,0,0,1-.5-1.569h1.626a1.683,1.683,0,0,0,.655,1.3,2.54,2.54,0,0,0,1.613.479,2.622,2.622,0,0,0,1.481-.374A1.148,1.148,0,0,0,17-2.522Zm5.95-9.29v2.3h1.775v1.257H22.948v5.9a1.32,1.32,0,0,0,.237.858,1,1,0,0,0,.809.286,3.937,3.937,0,0,0,.773-.105V0A4.742,4.742,0,0,1,23.52.176a2.025,2.025,0,0,1-1.644-.659,2.832,2.832,0,0,1-.554-1.872v-5.9H19.591V-9.51h1.731v-2.3Zm8.271,3.762a4.873,4.873,0,0,0-.8-.062A2.143,2.143,0,0,0,28.248-6.75V0H26.622V-9.51H28.2l.026,1.1A2.532,2.532,0,0,1,30.5-9.686a1.661,1.661,0,0,1,.721.123ZM38.232,0A3.416,3.416,0,0,1,38-1,3.628,3.628,0,0,1,35.3.176a3.357,3.357,0,0,1-2.307-.8,2.573,2.573,0,0,1-.9-2.017,2.688,2.688,0,0,1,1.129-2.307A5.325,5.325,0,0,1,36.4-5.766h1.582v-.747a1.826,1.826,0,0,0-.51-1.358,2.049,2.049,0,0,0-1.5-.505,2.371,2.371,0,0,0-1.459.439,1.3,1.3,0,0,0-.589,1.063H32.282a2.244,2.244,0,0,1,.505-1.375A3.449,3.449,0,0,1,34.159-9.3a4.613,4.613,0,0,1,1.9-.387,3.759,3.759,0,0,1,2.575.822A2.964,2.964,0,0,1,39.6-6.6v4.377a5.351,5.351,0,0,0,.334,2.083V0Zm-2.7-1.239a2.858,2.858,0,0,0,1.45-.4,2.392,2.392,0,0,0,.993-1.028V-4.614H36.7q-2.988,0-2.988,1.749a1.48,1.48,0,0,0,.51,1.2A1.959,1.959,0,0,0,35.534-1.239Zm8.824-10.573v2.3h1.775v1.257H44.358v5.9a1.32,1.32,0,0,0,.237.858A1,1,0,0,0,45.4-1.2a3.937,3.937,0,0,0,.773-.105V0A4.742,4.742,0,0,1,44.93.176a2.025,2.025,0,0,1-1.644-.659,2.832,2.832,0,0,1-.554-1.872v-5.9H41V-9.51h1.731v-2.3ZM51.979.176a4.155,4.155,0,0,1-3.146-1.27,4.714,4.714,0,0,1-1.213-3.4v-.3a5.707,5.707,0,0,1,.541-2.527,4.217,4.217,0,0,1,1.512-1.74,3.8,3.8,0,0,1,2.1-.628,3.562,3.562,0,0,1,2.883,1.222,5.289,5.289,0,0,1,1.028,3.5v.677H49.245a3.38,3.38,0,0,0,.822,2.272,2.583,2.583,0,0,0,2,.866A2.832,2.832,0,0,0,53.525-1.5a3.666,3.666,0,0,0,1.046-.932l.993.773A3.993,3.993,0,0,1,51.979.176Zm-.2-8.525a2.169,2.169,0,0,0-1.652.716A3.482,3.482,0,0,0,49.3-5.625h4.764v-.123a3.1,3.1,0,0,0-.668-1.92A2.042,2.042,0,0,0,51.776-8.35Zm5.405,3.516A5.589,5.589,0,0,1,58.21-8.372a3.289,3.289,0,0,1,2.725-1.314,3.271,3.271,0,0,1,2.716,1.23l.079-1.055h1.485V-.229a3.869,3.869,0,0,1-1.094,2.909,4.038,4.038,0,0,1-2.94,1.063A4.891,4.891,0,0,1,59.168,3.3a3.465,3.465,0,0,1-1.5-1.2l.844-.976a3.18,3.18,0,0,0,2.558,1.292,2.491,2.491,0,0,0,1.85-.668A2.553,2.553,0,0,0,63.58-.132V-.949A3.342,3.342,0,0,1,60.917.176a3.248,3.248,0,0,1-2.7-1.345A5.876,5.876,0,0,1,57.182-4.834Zm1.635.185a4.264,4.264,0,0,0,.659,2.527,2.142,2.142,0,0,0,1.846.918A2.382,2.382,0,0,0,63.58-2.6V-6.943a2.41,2.41,0,0,0-2.241-1.362,2.161,2.161,0,0,0-1.854.923A4.644,4.644,0,0,0,58.816-4.649ZM69.434,0H67.808V-9.51h1.626ZM67.676-12.032a.971.971,0,0,1,.242-.668.907.907,0,0,1,.716-.272.922.922,0,0,1,.721.272.96.96,0,0,1,.246.668.929.929,0,0,1-.246.659.938.938,0,0,1-.721.264.924.924,0,0,1-.716-.264A.938.938,0,0,1,67.676-12.032ZM77.906,0a3.416,3.416,0,0,1-.229-1A3.628,3.628,0,0,1,74.971.176a3.357,3.357,0,0,1-2.307-.8,2.573,2.573,0,0,1-.9-2.017,2.688,2.688,0,0,1,1.129-2.307,5.325,5.325,0,0,1,3.177-.822h1.582v-.747a1.826,1.826,0,0,0-.51-1.358,2.049,2.049,0,0,0-1.5-.505,2.371,2.371,0,0,0-1.459.439,1.3,1.3,0,0,0-.589,1.063H71.956a2.244,2.244,0,0,1,.505-1.375A3.449,3.449,0,0,1,73.833-9.3a4.613,4.613,0,0,1,1.9-.387,3.759,3.759,0,0,1,2.575.822A2.964,2.964,0,0,1,79.277-6.6v4.377a5.351,5.351,0,0,0,.334,2.083V0Zm-2.7-1.239a2.858,2.858,0,0,0,1.45-.4,2.392,2.392,0,0,0,.993-1.028V-4.614H76.377q-2.988,0-2.988,1.749a1.48,1.48,0,0,0,.51,1.2A1.959,1.959,0,0,0,75.208-1.239ZM87.363-2.522a1.2,1.2,0,0,0-.5-1.024,4.78,4.78,0,0,0-1.731-.628,8.186,8.186,0,0,1-1.96-.633A2.788,2.788,0,0,1,82.1-5.687,2.1,2.1,0,0,1,81.756-6.9a2.467,2.467,0,0,1,.989-1.978,3.861,3.861,0,0,1,2.527-.809,3.974,3.974,0,0,1,2.624.835A2.652,2.652,0,0,1,88.9-6.715H87.267A1.468,1.468,0,0,0,86.7-7.866a2.124,2.124,0,0,0-1.428-.483,2.223,2.223,0,0,0-1.389.387,1.217,1.217,0,0,0-.5,1.011.986.986,0,0,0,.466.888,5.731,5.731,0,0,0,1.683.571,8.77,8.77,0,0,1,1.973.65,2.878,2.878,0,0,1,1.121.91,2.237,2.237,0,0,1,.365,1.3A2.434,2.434,0,0,1,87.97-.593a4.277,4.277,0,0,1-2.646.769,4.789,4.789,0,0,1-2.021-.4,3.288,3.288,0,0,1-1.375-1.129,2.722,2.722,0,0,1-.5-1.569h1.626a1.683,1.683,0,0,0,.655,1.3,2.54,2.54,0,0,0,1.613.479,2.622,2.622,0,0,0,1.481-.374A1.148,1.148,0,0,0,87.363-2.522Z" transform="translate(337.5 1272.462)" fill="#12263f"/>
        <path id="Trazado_610568" data-name="Trazado 610568" d="M11.329-5.985A7.916,7.916,0,0,1,10.7-2.7,4.793,4.793,0,0,1,8.9-.562,4.933,4.933,0,0,1,6.2.176,4.891,4.891,0,0,1,3.516-.567,4.908,4.908,0,0,1,1.7-2.685a7.6,7.6,0,0,1-.664-3.186v-.923a7.822,7.822,0,0,1,.642-3.261,4.891,4.891,0,0,1,1.815-2.167,4.87,4.87,0,0,1,2.685-.751,4.961,4.961,0,0,1,2.711.743A4.784,4.784,0,0,1,10.7-10.077a7.955,7.955,0,0,1,.633,3.283ZM9.65-6.812a5.738,5.738,0,0,0-.914-3.494,3.015,3.015,0,0,0-2.558-1.217,2.982,2.982,0,0,0-2.518,1.217,5.62,5.62,0,0,0-.945,3.379v.94a5.746,5.746,0,0,0,.927,3.467A3,3,0,0,0,6.2-1.257,2.983,2.983,0,0,0,8.728-2.448,5.714,5.714,0,0,0,9.65-5.862ZM21.656-4.649a5.654,5.654,0,0,1-1,3.5A3.2,3.2,0,0,1,17.965.176,3.315,3.315,0,0,1,15.179-1.1L15.1,0H13.605V-13.5h1.626v5.036a3.3,3.3,0,0,1,2.716-1.222,3.221,3.221,0,0,1,2.72,1.31,5.824,5.824,0,0,1,.989,3.586ZM20.03-4.834A4.394,4.394,0,0,0,19.389-7.4a2.124,2.124,0,0,0-1.846-.905,2.387,2.387,0,0,0-2.312,1.494V-2.7A2.454,2.454,0,0,0,17.561-1.2a2.112,2.112,0,0,0,1.819-.905A4.672,4.672,0,0,0,20.03-4.834ZM25.383-9.51V1.1q0,2.742-2.487,2.742a3.034,3.034,0,0,1-.993-.157V2.391a3.144,3.144,0,0,0,.738.07,1.1,1.1,0,0,0,.831-.295,1.457,1.457,0,0,0,.286-1.025V-9.51ZM23.59-12.032a.975.975,0,0,1,.242-.664.889.889,0,0,1,.708-.277.922.922,0,0,1,.721.272.96.96,0,0,1,.246.668.929.929,0,0,1-.246.659.938.938,0,0,1-.721.264.909.909,0,0,1-.712-.264A.949.949,0,0,1,23.59-12.032ZM31.948.176A4.155,4.155,0,0,1,28.8-1.094a4.714,4.714,0,0,1-1.213-3.4v-.3a5.707,5.707,0,0,1,.541-2.527,4.217,4.217,0,0,1,1.512-1.74,3.8,3.8,0,0,1,2.1-.628,3.562,3.562,0,0,1,2.883,1.222,5.289,5.289,0,0,1,1.028,3.5v.677H29.215a3.38,3.38,0,0,0,.822,2.272,2.583,2.583,0,0,0,2,.866A2.832,2.832,0,0,0,33.5-1.5a3.666,3.666,0,0,0,1.046-.932l.993.773A3.993,3.993,0,0,1,31.948.176Zm-.2-8.525a2.169,2.169,0,0,0-1.652.716,3.482,3.482,0,0,0-.826,2.008h4.764v-.123a3.1,3.1,0,0,0-.668-1.92A2.042,2.042,0,0,0,31.746-8.35Zm8-3.463v2.3H41.52v1.257H39.744v5.9a1.32,1.32,0,0,0,.237.858,1,1,0,0,0,.809.286,3.937,3.937,0,0,0,.773-.105V0a4.742,4.742,0,0,1-1.248.175,2.025,2.025,0,0,1-1.644-.659,2.832,2.832,0,0,1-.554-1.872v-5.9H36.387V-9.51h1.731v-2.3ZM45.185,0H43.559V-9.51h1.626ZM43.427-12.032a.971.971,0,0,1,.242-.668.907.907,0,0,1,.716-.272.922.922,0,0,1,.721.272.96.96,0,0,1,.246.668.929.929,0,0,1-.246.659.938.938,0,0,1-.721.264.924.924,0,0,1-.716-.264A.938.938,0,0,1,43.427-12.032Zm7.5,9.826,2.355-7.3H54.94L51.53,0H50.291L46.846-9.51h1.661Zm5.019-2.637a5.617,5.617,0,0,1,.549-2.514,4.1,4.1,0,0,1,1.529-1.723,4.163,4.163,0,0,1,2.237-.606A4.01,4.01,0,0,1,63.4-8.341a5.174,5.174,0,0,1,1.2,3.577v.114a5.666,5.666,0,0,1-.532,2.492A4.038,4.038,0,0,1,62.547-.439a4.211,4.211,0,0,1-2.272.615,4,4,0,0,1-3.133-1.345,5.147,5.147,0,0,1-1.2-3.56Zm1.635.193a4.068,4.068,0,0,0,.734,2.54,2.349,2.349,0,0,0,1.964.958,2.335,2.335,0,0,0,1.969-.971,4.449,4.449,0,0,0,.729-2.72,4.061,4.061,0,0,0-.743-2.536,2.361,2.361,0,0,0-1.973-.971,2.335,2.335,0,0,0-1.942.958A4.416,4.416,0,0,0,57.577-4.649Zm14.6,2.127a1.2,1.2,0,0,0-.5-1.024,4.78,4.78,0,0,0-1.731-.628,8.186,8.186,0,0,1-1.96-.633,2.788,2.788,0,0,1-1.072-.879A2.1,2.1,0,0,1,66.568-6.9a2.467,2.467,0,0,1,.989-1.978,3.861,3.861,0,0,1,2.527-.809,3.974,3.974,0,0,1,2.624.835,2.652,2.652,0,0,1,1.006,2.136H72.079a1.468,1.468,0,0,0-.567-1.151,2.124,2.124,0,0,0-1.428-.483,2.223,2.223,0,0,0-1.389.387,1.217,1.217,0,0,0-.5,1.011.986.986,0,0,0,.466.888,5.731,5.731,0,0,0,1.683.571,8.77,8.77,0,0,1,1.973.65,2.878,2.878,0,0,1,1.121.91,2.237,2.237,0,0,1,.365,1.3,2.434,2.434,0,0,1-1.02,2.043,4.277,4.277,0,0,1-2.646.769,4.789,4.789,0,0,1-2.021-.4A3.288,3.288,0,0,1,66.74-1.358a2.722,2.722,0,0,1-.5-1.569h1.626a1.683,1.683,0,0,0,.655,1.3,2.54,2.54,0,0,0,1.613.479,2.622,2.622,0,0,0,1.481-.374A1.148,1.148,0,0,0,72.176-2.522Z" transform="translate(551.5 1272.462)" fill="#12263f"/>
        <path id="Polígono_17" data-name="Polígono 17" d="M18.5,0,37,32H0Z" transform="translate(504 1146.137) rotate(180)" fill="#ffe7af"/>
        <path id="Polígono_19" data-name="Polígono 19" d="M18.5,0,37,32H0Z" transform="translate(401 1245.137) rotate(180)" fill="#c3d7f5"/>
        <path id="Polígono_20" data-name="Polígono 20" d="M18.5,0,37,32H0Z" transform="translate(609 1245.137) rotate(180)" fill="#c3d7f5"/>
        <path id="Polígono_21" data-name="Polígono 21" d="M18.5,0,37,32H0Z" transform="translate(809 1245.137) rotate(180)" fill="#94eeff"/>
        <path id="Polígono_18" data-name="Polígono 18" d="M18.5,0,37,32H0Z" transform="translate(809 1146.137) rotate(180)" fill="#ffe7af"/>
      </g>
    </g>
  </g>
</svg>
