<svg xmlns="http://www.w3.org/2000/svg" xmlns:xlink="http://www.w3.org/1999/xlink" width="400" height="903" viewBox="0 0 400 903">
  <defs>
    <clipPath id="clip-path">
      <rect id="Rectángulo_377962" data-name="Rectángulo 377962" width="91.128" height="91.388" fill="#4e5662"/>
    </clipPath>
    <clipPath id="clip-path-2">
      <rect id="Rectángulo_377961" data-name="Rectángulo 377961" width="94.21" height="95" fill="#615842"/>
    </clipPath>
    <clipPath id="clip-path-3">
      <rect id="Rectángulo_377960" data-name="Rectángulo 377960" width="89.962" height="91.104" fill="#345359"/>
    </clipPath>
  </defs>
  <g id="Grupo_1072674" data-name="Grupo 1072674" transform="translate(-7233 9351)">
    <rect id="Rectángulo_377974" data-name="Rectángulo 377974" width="400" height="903" transform="translate(7233 -9351)" fill="#fff"/>
    <g id="Grupo_1072550" data-name="Grupo 1072550" transform="translate(7053 -11777)">
      <g id="Grupo_1072549" data-name="Grupo 1072549">
        <rect id="Rectángulo_377971" data-name="Rectángulo 377971" width="400" height="54" rx="9" transform="translate(180 3192)" fill="#c3d7f5"/>
        <rect id="Rectángulo_377972" data-name="Rectángulo 377972" width="196" height="54" rx="9" transform="translate(384 3251)" fill="#e7effb"/>
        <rect id="Rectángulo_377973" data-name="Rectángulo 377973" width="196" height="54" rx="9" transform="translate(180 3251)" fill="#e7effb"/>
        <path id="Trazado_610593" data-name="Trazado 610593" d="M8.235-2.391H4.008L3.27,0h-3.3L4.667-12.8h2.9L12.3,0H8.982ZM4.746-4.772H7.5L6.117-9.211ZM17.112-2.109a1.317,1.317,0,0,0,.967-.338,1.241,1.241,0,0,0,.334-.945H21.19A3.288,3.288,0,0,1,20.07-.826a4.168,4.168,0,0,1-2.887,1,4.22,4.22,0,0,1-3.27-1.3,5.125,5.125,0,0,1-1.2-3.6v-.123A5.792,5.792,0,0,1,13.25-7.4a3.872,3.872,0,0,1,1.534-1.7,4.573,4.573,0,0,1,2.373-.593A4.116,4.116,0,0,1,20.1-8.657a3.647,3.647,0,0,1,1.09,2.786H18.413A1.626,1.626,0,0,0,18.053-7a1.244,1.244,0,0,0-.967-.4q-1.151,0-1.345,1.468a10.357,10.357,0,0,0-.062,1.283,4.068,4.068,0,0,0,.343,1.986A1.187,1.187,0,0,0,17.112-2.109Zm9.352,0a1.317,1.317,0,0,0,.967-.338,1.241,1.241,0,0,0,.334-.945h2.777A3.288,3.288,0,0,1,29.421-.826a4.168,4.168,0,0,1-2.887,1,4.22,4.22,0,0,1-3.27-1.3,5.125,5.125,0,0,1-1.2-3.6v-.123A5.792,5.792,0,0,1,22.6-7.4a3.872,3.872,0,0,1,1.534-1.7,4.573,4.573,0,0,1,2.373-.593,4.116,4.116,0,0,1,2.944,1.028,3.647,3.647,0,0,1,1.09,2.786H27.765A1.626,1.626,0,0,0,27.4-7a1.244,1.244,0,0,0-.967-.4q-1.151,0-1.345,1.468a10.357,10.357,0,0,0-.062,1.283,4.068,4.068,0,0,0,.343,1.986A1.187,1.187,0,0,0,26.464-2.109ZM34.919,0H31.948V-9.51h2.971ZM31.772-11.962A1.322,1.322,0,0,1,32.229-13a1.724,1.724,0,0,1,1.187-.4A1.724,1.724,0,0,1,34.6-13a1.322,1.322,0,0,1,.457,1.037,1.322,1.322,0,0,1-.457,1.037,1.724,1.724,0,0,1-1.187.4,1.724,1.724,0,0,1-1.187-.4A1.322,1.322,0,0,1,31.772-11.962Zm4.6,7.119a5.613,5.613,0,0,1,.554-2.536,3.96,3.96,0,0,1,1.591-1.709,4.791,4.791,0,0,1,2.435-.6,4.373,4.373,0,0,1,3.366,1.323,5.076,5.076,0,0,1,1.23,3.6v.105A4.925,4.925,0,0,1,44.31-1.129,4.384,4.384,0,0,1,40.966.176a4.434,4.434,0,0,1-3.261-1.217,4.761,4.761,0,0,1-1.327-3.3Zm2.962.185a3.538,3.538,0,0,0,.413,1.934,1.376,1.376,0,0,0,1.222.615q1.582,0,1.617-2.435v-.3q0-2.558-1.635-2.558-1.485,0-1.608,2.206ZM49.57-9.51l.1,1.116a3.225,3.225,0,0,1,2.716-1.292A2.713,2.713,0,0,1,54.6-8.8a4.226,4.226,0,0,1,.76,2.672V0H52.392V-6a1.6,1.6,0,0,0-.29-1.059A1.342,1.342,0,0,0,51.047-7.4a1.413,1.413,0,0,0-1.292.686V0H46.793V-9.51ZM62.358,0a3.344,3.344,0,0,1-.281-.853A2.754,2.754,0,0,1,59.792.176a3.374,3.374,0,0,1-2.285-.813,2.588,2.588,0,0,1-.94-2.043,2.66,2.66,0,0,1,1.143-2.338,5.821,5.821,0,0,1,3.322-.791h.914v-.5q0-1.316-1.134-1.316a.927.927,0,0,0-1.055,1.042H56.795a2.655,2.655,0,0,1,1.173-2.239,4.931,4.931,0,0,1,2.993-.86,4.323,4.323,0,0,1,2.874.888,3.086,3.086,0,0,1,1.081,2.435v4.21a4.311,4.311,0,0,0,.4,2V0ZM60.5-1.934a1.652,1.652,0,0,0,.918-.237,1.487,1.487,0,0,0,.523-.536V-4.228h-.861q-1.547,0-1.547,1.389a.848.848,0,0,0,.272.655A.986.986,0,0,0,60.5-1.934Zm11.8-4.9-.976-.07a1.752,1.752,0,0,0-1.793.879V0H66.577V-9.51h2.777l.1,1.222a2.294,2.294,0,0,1,2.083-1.4,2.888,2.888,0,0,1,.826.105ZM86.687-4.685a5.735,5.735,0,0,1-1,3.538A3.2,3.2,0,0,1,83,.176a2.742,2.742,0,0,1-2.153-.958V3.656H77.88V-9.51h2.769l.088.879a2.742,2.742,0,0,1,2.241-1.055,3.224,3.224,0,0,1,2.733,1.3,5.805,5.805,0,0,1,.976,3.564Zm-2.962-.185q0-2.531-1.477-2.531a1.394,1.394,0,0,0-1.406.756V-2.9a1.439,1.439,0,0,0,1.424.791q1.415,0,1.459-2.443ZM91.116,0H88.146V-13.5h2.971ZM98.3,0a3.344,3.344,0,0,1-.281-.853A2.754,2.754,0,0,1,95.73.176a3.374,3.374,0,0,1-2.285-.813,2.588,2.588,0,0,1-.94-2.043,2.66,2.66,0,0,1,1.143-2.338A5.821,5.821,0,0,1,96.97-5.81h.914v-.5q0-1.316-1.134-1.316A.927.927,0,0,0,95.7-6.587H92.733a2.655,2.655,0,0,1,1.173-2.239,4.931,4.931,0,0,1,2.993-.86,4.323,4.323,0,0,1,2.874.888,3.086,3.086,0,0,1,1.081,2.435v4.21a4.311,4.311,0,0,0,.4,2V0ZM96.442-1.934a1.652,1.652,0,0,0,.918-.237,1.487,1.487,0,0,0,.523-.536V-4.228h-.861q-1.547,0-1.547,1.389a.848.848,0,0,0,.272.655A.986.986,0,0,0,96.442-1.934Zm8.771-7.576.1,1.116a3.225,3.225,0,0,1,2.716-1.292,2.713,2.713,0,0,1,2.219.888,4.226,4.226,0,0,1,.76,2.672V0h-2.971V-6a1.6,1.6,0,0,0-.29-1.059A1.342,1.342,0,0,0,106.69-7.4a1.413,1.413,0,0,0-1.292.686V0h-2.962V-9.51ZM117.246.176A4.889,4.889,0,0,1,113.7-1.129a4.507,4.507,0,0,1-1.354-3.4v-.246a5.84,5.84,0,0,1,.541-2.575,3.955,3.955,0,0,1,1.578-1.727,4.763,4.763,0,0,1,2.461-.611,4.117,4.117,0,0,1,3.164,1.244,4.887,4.887,0,0,1,1.16,3.467v1.151h-5.889a2.135,2.135,0,0,0,.694,1.257,2.066,2.066,0,0,0,1.389.457,2.662,2.662,0,0,0,2.2-.984L121-1.494A3.784,3.784,0,0,1,119.43-.277,5.3,5.3,0,0,1,117.246.176ZM116.912-7.4q-1.3,0-1.547,1.723h2.988v-.229a1.467,1.467,0,0,0-.36-1.1A1.434,1.434,0,0,0,116.912-7.4Zm10.512,4.729a.684.684,0,0,0-.4-.606,6.016,6.016,0,0,0-1.5-.475A6.853,6.853,0,0,1,123.7-4.4a3.062,3.062,0,0,1-1.1-.971,2.319,2.319,0,0,1-.378-1.31A2.628,2.628,0,0,1,123.3-8.837a4.453,4.453,0,0,1,2.83-.848,4.934,4.934,0,0,1,3.023.853A2.666,2.666,0,0,1,130.3-6.592h-2.971q0-1.143-1.2-1.143a1.194,1.194,0,0,0-.782.259.8.8,0,0,0-.316.646.737.737,0,0,0,.387.642,3.654,3.654,0,0,0,1.235.4,10.671,10.671,0,0,1,1.49.378A2.706,2.706,0,0,1,130.28-2.76a2.491,2.491,0,0,1-1.156,2.118,5.068,5.068,0,0,1-2.993.817,5.172,5.172,0,0,1-2.18-.439,3.645,3.645,0,0,1-1.494-1.2,2.707,2.707,0,0,1-.536-1.591h2.769a1.145,1.145,0,0,0,.439.962,1.808,1.808,0,0,0,1.081.3,1.422,1.422,0,0,0,.91-.246A.787.787,0,0,0,127.424-2.672Z" transform="translate(213 3284)" fill="#12263f"/>
        <path id="Trazado_610594" data-name="Trazado 610594" d="M8.235-2.391H4.008L3.27,0h-3.3L4.667-12.8h2.9L12.3,0H8.982ZM4.746-4.772H7.5L6.117-9.211ZM16.277-9.51V.325a3.452,3.452,0,0,1-.967,2.6,3.714,3.714,0,0,1-2.672.914,6.308,6.308,0,0,1-1.4-.149V1.45a5.667,5.667,0,0,0,.835.079A1.084,1.084,0,0,0,13.307.308V-9.51Zm-3.19-2.452A1.322,1.322,0,0,1,13.544-13a1.724,1.724,0,0,1,1.187-.4,1.724,1.724,0,0,1,1.187.4,1.322,1.322,0,0,1,.457,1.037,1.322,1.322,0,0,1-.457,1.037,1.724,1.724,0,0,1-1.187.4,1.724,1.724,0,0,1-1.187-.4A1.322,1.322,0,0,1,13.087-11.962ZM23.616-1.028a3.054,3.054,0,0,1-2.54,1.2,3,3,0,0,1-2.369-.91,3.826,3.826,0,0,1-.8-2.615V-9.51h2.962v6.179a1.065,1.065,0,0,0,1.187,1.222,1.548,1.548,0,0,0,1.45-.729V-9.51h2.979V0H23.7Zm9.466-1.644a.684.684,0,0,0-.4-.606,6.016,6.016,0,0,0-1.5-.475A6.853,6.853,0,0,1,29.355-4.4a3.062,3.062,0,0,1-1.1-.971,2.319,2.319,0,0,1-.378-1.31A2.628,2.628,0,0,1,28.96-8.837a4.453,4.453,0,0,1,2.83-.848,4.934,4.934,0,0,1,3.023.853,2.666,2.666,0,0,1,1.143,2.241H32.985q0-1.143-1.2-1.143A1.194,1.194,0,0,0,31-7.475a.8.8,0,0,0-.316.646.737.737,0,0,0,.387.642,3.654,3.654,0,0,0,1.235.4,10.671,10.671,0,0,1,1.49.378A2.706,2.706,0,0,1,35.938-2.76,2.491,2.491,0,0,1,34.783-.642,5.068,5.068,0,0,1,31.79.176a5.172,5.172,0,0,1-2.18-.439,3.645,3.645,0,0,1-1.494-1.2A2.707,2.707,0,0,1,27.58-3.05h2.769a1.145,1.145,0,0,0,.439.962,1.808,1.808,0,0,0,1.081.3,1.422,1.422,0,0,0,.91-.246A.787.787,0,0,0,33.082-2.672Zm7.69-9.2V-9.51h1.564v2.057H40.772V-3.1a1.111,1.111,0,0,0,.193.747,1.037,1.037,0,0,0,.765.211,4.345,4.345,0,0,0,.738-.053V-.079A5.466,5.466,0,0,1,40.8.176,3.1,3.1,0,0,1,38.54-.545a2.954,2.954,0,0,1-.729-2.188v-4.72H36.6V-9.51h1.213v-2.364ZM48.1.176a4.889,4.889,0,0,1-3.542-1.305,4.507,4.507,0,0,1-1.354-3.4v-.246a5.84,5.84,0,0,1,.541-2.575,3.955,3.955,0,0,1,1.578-1.727,4.763,4.763,0,0,1,2.461-.611A4.117,4.117,0,0,1,50.95-8.442a4.887,4.887,0,0,1,1.16,3.467v1.151H46.222a2.135,2.135,0,0,0,.694,1.257,2.066,2.066,0,0,0,1.389.457,2.662,2.662,0,0,0,2.2-.984l1.354,1.6A3.784,3.784,0,0,1,50.287-.277,5.3,5.3,0,0,1,48.1.176ZM47.769-7.4q-1.3,0-1.547,1.723H49.21v-.229a1.467,1.467,0,0,0-.36-1.1A1.434,1.434,0,0,0,47.769-7.4ZM58.28-2.672a.684.684,0,0,0-.4-.606,6.016,6.016,0,0,0-1.5-.475A6.853,6.853,0,0,1,54.554-4.4a3.062,3.062,0,0,1-1.1-.971,2.319,2.319,0,0,1-.378-1.31,2.628,2.628,0,0,1,1.081-2.158,4.453,4.453,0,0,1,2.83-.848,4.934,4.934,0,0,1,3.023.853,2.666,2.666,0,0,1,1.143,2.241H58.184q0-1.143-1.2-1.143a1.194,1.194,0,0,0-.782.259.8.8,0,0,0-.316.646.737.737,0,0,0,.387.642,3.654,3.654,0,0,0,1.235.4,10.671,10.671,0,0,1,1.49.378A2.706,2.706,0,0,1,61.137-2.76,2.491,2.491,0,0,1,59.981-.642a5.068,5.068,0,0,1-2.993.817,5.172,5.172,0,0,1-2.18-.439,3.645,3.645,0,0,1-1.494-1.2,2.707,2.707,0,0,1-.536-1.591h2.769a1.145,1.145,0,0,0,.439.962,1.808,1.808,0,0,0,1.081.3,1.422,1.422,0,0,0,.91-.246A.787.787,0,0,0,58.28-2.672Z" transform="translate(451 3284)" fill="#12263f"/>
        <ellipse id="Elipse_5895" data-name="Elipse 5895" cx="84.5" cy="84" rx="84.5" ry="84" transform="translate(296 3051)" fill="#c3d7f5"/>
        <path id="Trazado_610592" data-name="Trazado 610592" d="M5.019-12.8l2.856,8.9,2.848-8.9h4.061V0H11.689V-2.988l.3-6.117L8.895,0H6.855l-3.1-9.114.3,6.126V0H.967V-12.8ZM16.233-4.843a5.613,5.613,0,0,1,.554-2.536,3.96,3.96,0,0,1,1.591-1.709,4.791,4.791,0,0,1,2.435-.6,4.373,4.373,0,0,1,3.366,1.323,5.076,5.076,0,0,1,1.23,3.6v.105a4.925,4.925,0,0,1-1.235,3.529A4.384,4.384,0,0,1,20.83.176a4.434,4.434,0,0,1-3.261-1.217,4.761,4.761,0,0,1-1.327-3.3Zm2.962.185a3.538,3.538,0,0,0,.413,1.934,1.376,1.376,0,0,0,1.222.615q1.582,0,1.617-2.435v-.3q0-2.558-1.635-2.558-1.485,0-1.608,2.206Zm11.18,1.134,1.5-5.985H35L31.9,0H28.872l-3.1-9.51H28.9ZM39.006,0H36.035V-9.51h2.971ZM35.859-11.962A1.322,1.322,0,0,1,36.316-13a1.724,1.724,0,0,1,1.187-.4,1.724,1.724,0,0,1,1.187.4,1.322,1.322,0,0,1,.457,1.037,1.322,1.322,0,0,1-.457,1.037,1.724,1.724,0,0,1-1.187.4,1.724,1.724,0,0,1-1.187-.4A1.322,1.322,0,0,1,35.859-11.962ZM43.954,0H40.983V-13.5h2.971ZM48.9,0H45.932V-9.51H48.9ZM45.756-11.962A1.322,1.322,0,0,1,46.213-13a1.724,1.724,0,0,1,1.187-.4,1.724,1.724,0,0,1,1.187.4,1.322,1.322,0,0,1,.457,1.037,1.322,1.322,0,0,1-.457,1.037,1.724,1.724,0,0,1-1.187.4,1.724,1.724,0,0,1-1.187-.4A1.322,1.322,0,0,1,45.756-11.962ZM54.22-2.285h4.333V0H50.476V-1.652l4.219-5.572H50.66V-9.51h7.8v1.6ZM65.347,0a3.344,3.344,0,0,1-.281-.853A2.754,2.754,0,0,1,62.78.176,3.374,3.374,0,0,1,60.5-.637a2.588,2.588,0,0,1-.94-2.043A2.66,2.66,0,0,1,60.7-5.019,5.821,5.821,0,0,1,64.02-5.81h.914v-.5q0-1.316-1.134-1.316a.927.927,0,0,0-1.055,1.042H59.783a2.655,2.655,0,0,1,1.173-2.239,4.931,4.931,0,0,1,2.993-.86,4.323,4.323,0,0,1,2.874.888A3.086,3.086,0,0,1,67.9-6.363v4.21a4.311,4.311,0,0,0,.4,2V0ZM63.492-1.934a1.652,1.652,0,0,0,.918-.237,1.487,1.487,0,0,0,.523-.536V-4.228h-.861q-1.547,0-1.547,1.389a.848.848,0,0,0,.272.655A.986.986,0,0,0,63.492-1.934Zm10.072-.176a1.317,1.317,0,0,0,.967-.338,1.241,1.241,0,0,0,.334-.945h2.777A3.288,3.288,0,0,1,76.522-.826a4.168,4.168,0,0,1-2.887,1,4.22,4.22,0,0,1-3.27-1.3,5.125,5.125,0,0,1-1.2-3.6v-.123A5.792,5.792,0,0,1,69.7-7.4a3.872,3.872,0,0,1,1.534-1.7,4.573,4.573,0,0,1,2.373-.593,4.116,4.116,0,0,1,2.944,1.028,3.647,3.647,0,0,1,1.09,2.786H74.865A1.626,1.626,0,0,0,74.5-7a1.244,1.244,0,0,0-.967-.4q-1.151,0-1.345,1.468a10.357,10.357,0,0,0-.062,1.283,4.068,4.068,0,0,0,.343,1.986A1.187,1.187,0,0,0,73.564-2.109ZM82.02,0H79.049V-9.51H82.02ZM78.873-11.962A1.322,1.322,0,0,1,79.33-13a1.724,1.724,0,0,1,1.187-.4A1.724,1.724,0,0,1,81.7-13a1.322,1.322,0,0,1,.457,1.037,1.322,1.322,0,0,1-.457,1.037,1.724,1.724,0,0,1-1.187.4,1.724,1.724,0,0,1-1.187-.4A1.322,1.322,0,0,1,78.873-11.962Zm4.6,7.119a5.613,5.613,0,0,1,.554-2.536,3.96,3.96,0,0,1,1.591-1.709,4.791,4.791,0,0,1,2.435-.6,4.373,4.373,0,0,1,3.366,1.323,5.076,5.076,0,0,1,1.23,3.6v.105a4.925,4.925,0,0,1-1.235,3.529A4.384,4.384,0,0,1,88.066.176a4.434,4.434,0,0,1-3.261-1.217,4.761,4.761,0,0,1-1.327-3.3Zm2.962.185a3.538,3.538,0,0,0,.413,1.934,1.376,1.376,0,0,0,1.222.615q1.582,0,1.617-2.435v-.3q0-2.558-1.635-2.558-1.485,0-1.608,2.206ZM88.453-13.5h3.129l-2.443,2.76-2.417,0Zm8.218,3.99.1,1.116a3.225,3.225,0,0,1,2.716-1.292A2.713,2.713,0,0,1,101.7-8.8a4.226,4.226,0,0,1,.76,2.672V0H99.492V-6a1.6,1.6,0,0,0-.29-1.059A1.342,1.342,0,0,0,98.147-7.4a1.413,1.413,0,0,0-1.292.686V0H93.894V-9.51Z" transform="translate(329 3225)" fill="#12263f"/>
        <g id="Grupo_1072548" data-name="Grupo 1072548" transform="translate(334.436 3082.611)">
          <g id="Grupo_1072541" data-name="Grupo 1072541" clip-path="url(#clip-path)">
            <path id="Trazado_610237" data-name="Trazado 610237" d="M127.1,14.944c0,3.047-.02,6.094.006,9.141a5.264,5.264,0,0,1-4.364,5.32,7.336,7.336,0,0,1-1.332.1c-2.7,0-5.4.1-8.1-.044a5.2,5.2,0,0,1-4.9-4.4c-.044-.241-.011-.575-.156-.7s-.465.042-.7.089a33.233,33.233,0,0,1-9.87.437,41.166,41.166,0,0,1-4.236-.732,39.16,39.16,0,0,1-7.959-2.911c-1.319-.593-2.634-1.2-3.971-1.75A5.873,5.873,0,0,1,77.9,15.533a5.481,5.481,0,0,1-.2-1.616c.005-.272-.082-.331-.34-.3-.863.1-1.694.353-2.55.489-2.333.369-4.633.9-6.926,1.468-2.113.521-4.2,1.126-6.276,1.782-1.309.414-2.612.852-3.883,1.362a4.794,4.794,0,0,1-6.361-3.542,5.046,5.046,0,0,1,2.033-5.017A63.911,63.911,0,0,1,61.28,6.115a69.527,69.527,0,0,1,7.571-2.708c1.946-.573,3.918-1.039,5.9-1.458a43.044,43.044,0,0,1,4.579-.725C80.847,1.072,82.355.851,83.88.8a49.18,49.18,0,0,1,8.341.363,42.859,42.859,0,0,1,7.444,1.671,27.42,27.42,0,0,1,4.815,2.024,6.631,6.631,0,0,0,3.492.822c.29-.008.345-.1.352-.364a5.45,5.45,0,0,1,.865-2.986A4.908,4.908,0,0,1,113.35.052c2.972-.051,5.947-.1,8.919.03a5.235,5.235,0,0,1,4.848,5.462c-.07,3.132-.016,6.267-.016,9.4m-18.782.034h0q0-3.066,0-6.131c0-.2.035-.376-.288-.372a10.211,10.211,0,0,1-4.982-1.215A30.13,30.13,0,0,0,92.826,4.118c-1.387-.179-2.77-.407-4.17-.456A58.417,58.417,0,0,0,74.992,4.751a63.042,63.042,0,0,0-6.707,1.737,66.2,66.2,0,0,0-7.706,2.98,52.828,52.828,0,0,0-5.536,2.938,2.021,2.021,0,0,0-.642,2.931,1.531,1.531,0,0,0,1.118.781,3.147,3.147,0,0,0,1.539-.125c2.136-.821,4.312-1.523,6.509-2.157q4.795-1.383,9.7-2.3c1.762-.331,3.522-.678,5.3-.9a.635.635,0,0,0,.441-.241,5.662,5.662,0,0,1,1.84-1.478,5.077,5.077,0,0,1,4.222-.422c1.134.4,2.206.938,3.309,1.407.842.358,1.675.738,2.5,1.131a1.3,1.3,0,0,1,.789.926,1.339,1.339,0,0,1-.5,1.421,1.479,1.479,0,0,1-1.584.114c-1.314-.575-2.616-1.178-3.924-1.766a4.993,4.993,0,0,0-2.481-.649,2.942,2.942,0,0,0-2.7,3.012,2.744,2.744,0,0,0,1.709,2.654q3.26,1.433,6.509,2.891A28.383,28.383,0,0,0,92.95,21.16a31.173,31.173,0,0,0,7.3,1,33.454,33.454,0,0,0,5.3-.23c.807-.106,1.588-.394,2.407-.426.306-.012.365-.118.364-.394-.01-2.044-.005-4.087-.005-6.131m16.024-.137c.015-3.071-.052-6.142.022-9.213a2.528,2.528,0,0,0-1.953-2.75,3.9,3.9,0,0,0-1.032-.1q-2.75.007-5.5.007c-.719,0-1.437-.021-2.155,0A2.421,2.421,0,0,0,111.2,4.557a4.035,4.035,0,0,0-.079,1.071q0,7.449,0,14.9a6.685,6.685,0,0,0,.151,1.843.939.939,0,0,1-.019.477,4.876,4.876,0,0,0-.123,1.657,2.278,2.278,0,0,0,2.21,2.105c2.911.026,5.822.012,8.733,0a2.047,2.047,0,0,0,1.19-.354,2.456,2.456,0,0,0,1.073-2.131c.017-3.1.007-6.192.007-9.288" transform="translate(-35.99 0)" fill="#4e5662"/>
            <path id="Trazado_610238" data-name="Trazado 610238" d="M0,222.122c0-3.047-.006-6.094,0-9.14a5.239,5.239,0,0,1,2.772-4.869,5.1,5.1,0,0,1,2.487-.662c2.329-.024,4.659-.013,6.988-.017a10,10,0,0,1,2.726.242,5.248,5.248,0,0,1,3.743,4.275c.044.354.164.437.517.383a38.691,38.691,0,0,1,7.236-.645,44.688,44.688,0,0,1,4.985.471A36.452,36.452,0,0,1,41.5,215.438c1.378.642,2.774,1.249,4.174,1.842a5.837,5.837,0,0,1,3.558,3.966,6,6,0,0,1,.188,1.544c0,.343.129.381.418.343.627-.082,1.232-.271,1.855-.369a97.918,97.918,0,0,0,9.849-2.164c2.174-.576,4.314-1.276,6.438-2.016.537-.187,1.073-.379,1.6-.586a4.772,4.772,0,0,1,6.042,3.032,4.956,4.956,0,0,1-1.8,5.364,38.29,38.29,0,0,1-3.662,2.115,61.418,61.418,0,0,1-7.7,3.4c-1.764.641-3.554,1.21-5.364,1.718s-3.616.942-5.449,1.28a54.722,54.722,0,0,1-13.743,1.009,43.469,43.469,0,0,1-5.7-.734,43.919,43.919,0,0,1-5.128-1.33,30.77,30.77,0,0,1-4.481-1.864,6.278,6.278,0,0,0-2.428-.857c-.346-.026-.695-.025-1.037-.073-.283-.039-.337.077-.336.324a5.37,5.37,0,0,1-.853,3.138,5.252,5.252,0,0,1-4.4,2.432c-2.712.061-5.427.057-8.14,0a5.3,5.3,0,0,1-4.977-3.222,5.534,5.534,0,0,1-.422-2.4C-.007,228.265,0,225.193,0,222.122H0m18.8-.393h0c0,2.044.006,4.088-.007,6.131,0,.315.071.411.407.423a8.258,8.258,0,0,1,3.715.749,32.816,32.816,0,0,0,11.051,3.592,37.709,37.709,0,0,0,4.654.467,61.139,61.139,0,0,0,8.457-.338c1.8-.226,3.572-.534,5.344-.87a54.552,54.552,0,0,0,6.382-1.669,66.472,66.472,0,0,0,6.385-2.395,55.228,55.228,0,0,0,6.717-3.48,2.564,2.564,0,0,0,.964-1,1.907,1.907,0,0,0-1.308-2.71,3.866,3.866,0,0,0-1.785.239c-1.777.685-3.587,1.272-5.413,1.814A101.9,101.9,0,0,1,54,225.194c-1.812.337-3.617.709-5.447.937a.657.657,0,0,0-.445.231,5.625,5.625,0,0,1-6.963,1.566c-1.455-.682-2.939-1.3-4.41-1.952a3.667,3.667,0,0,1-.776-.433,1.373,1.373,0,0,1-.2-2.006,1.436,1.436,0,0,1,1.769-.277c1.266.561,2.525,1.138,3.791,1.7a5.712,5.712,0,0,0,2.5.724,2.969,2.969,0,0,0,2.83-3A2.858,2.858,0,0,0,45.7,220.5a4.756,4.756,0,0,0-1.388-.764c-2.076-.932-4.168-1.826-6.238-2.77a24.918,24.918,0,0,0-5.207-1.694,29.69,29.69,0,0,0-5.187-.647c-1.713-.056-3.417-.005-5.124.088-1.177.064-2.3.481-3.485.51-.277.007-.266.181-.265.377q0,3.066,0,6.132m-16.051.445h.005q0,4.515,0,9.03a4.979,4.979,0,0,0,.057.814,2.4,2.4,0,0,0,2.262,2.073c2.874-.024,5.749-.014,8.624,0a2.209,2.209,0,0,0,1.97-1.178,3.592,3.592,0,0,0,.258-2.494,2.322,2.322,0,0,1-.034-1.026,4.112,4.112,0,0,0,.112-1.215q0-7.618.008-15.235a2.5,2.5,0,0,0-2.611-2.7q-4.014-.041-8.029,0a2.464,2.464,0,0,0-2.523,1.95,3.942,3.942,0,0,0-.1,1.031q0,4.478,0,8.955" transform="translate(0 -145.608)" fill="#4e5662"/>
            <path id="Trazado_610239" data-name="Trazado 610239" d="M121.3,93.494a.99.99,0,0,1-.194.663c-.654.978-1.39,1.9-2.086,2.844-.086.117-.2.19-.081.377a14.732,14.732,0,0,1,1.45,3.519c.047.154.084.216.252.24,1.041.146,2.074.35,3.124.44a1.592,1.592,0,0,1,1.391,1.625q.042,2.117,0,4.236a1.6,1.6,0,0,1-1.53,1.574c-1,.078-1.984.284-2.977.419-.187.026-.232.108-.274.268a12.98,12.98,0,0,1-1.212,3.022.892.892,0,0,0,.111,1.212c.633.776,1.2,1.6,1.788,2.419a1.147,1.147,0,0,1-.07,1.559c-.55.6-1.14,1.172-1.714,1.753-.488.493-.974.988-1.469,1.474a1.376,1.376,0,0,1-2.13.165c-.841-.632-1.658-1.3-2.474-1.962a.392.392,0,0,0-.492-.068,18.407,18.407,0,0,1-3.15,1.3.6.6,0,0,0-.489.606c-.048.914-.128,1.827-.263,2.734a2.813,2.813,0,0,1-.3.948,1.29,1.29,0,0,1-1.222.638q-2.23.026-4.461,0c-.86-.01-1.215-.34-1.4-1.184a20.881,20.881,0,0,1-.419-3.2.489.489,0,0,0-.369-.524,14.863,14.863,0,0,1-2.989-1.2.738.738,0,0,0-.96.109c-.7.608-1.445,1.167-2.177,1.738a1.419,1.419,0,0,1-2.226-.1q-1.482-1.434-2.917-2.917a1.387,1.387,0,0,1-.162-2.111c.56-.787,1.139-1.56,1.73-2.323a.685.685,0,0,0,.055-.868,15.861,15.861,0,0,1-1.291-3.269.321.321,0,0,0-.325-.274c-1.056-.125-2.1-.316-3.163-.423a1.312,1.312,0,0,1-1.189-1.389q-.033-2.266,0-4.533a1.406,1.406,0,0,1,1.319-1.449c1-.108,1.988-.259,2.981-.4a.407.407,0,0,0,.4-.338,17.506,17.506,0,0,1,1.261-3.084.789.789,0,0,0-.064-1c-.6-.756-1.166-1.54-1.727-2.326a1.36,1.36,0,0,1,.117-2.029q1.477-1.6,3.074-3.074a1.314,1.314,0,0,1,1.962-.109c.844.628,1.664,1.29,2.482,1.952a.519.519,0,0,0,.636.085,17.932,17.932,0,0,1,3.226-1.307c.282-.08.3-.3.312-.523a20.419,20.419,0,0,1,.368-3.018c.213-1.013.579-1.344,1.618-1.346q2.007,0,4.015,0c1.191,0,1.679.443,1.809,1.642.1.935.2,1.87.288,2.807a.408.408,0,0,0,.293.416,21.5,21.5,0,0,1,3.357,1.38c.192.1.326.011.468-.1.707-.564,1.419-1.12,2.124-1.686,1.173-.943,1.659-.917,2.727.158.882.888,1.771,1.768,2.644,2.664a1.415,1.415,0,0,1,.59,1.144M93.578,92.1a1.493,1.493,0,0,0-.129.1c-.448.446-.891.9-1.343,1.336-.111.108-.08.179.007.276.6.677,1.069,1.459,1.647,2.152a1.75,1.75,0,0,1,.141,2.194,16.646,16.646,0,0,0-1.775,4.543,1.41,1.41,0,0,1-1.037,1.1,6.117,6.117,0,0,1-.763.154c-.721.125-1.458.083-2.18.212-.265.047-.39.145-.37.435a10.007,10.007,0,0,1,.02,1.3c-.023.353.115.464.445.513.846.125,1.7.117,2.546.284a1.537,1.537,0,0,1,1.352,1.233,15.808,15.808,0,0,0,.893,2.823,16.769,16.769,0,0,0,.906,1.785,1.512,1.512,0,0,1,.042,1.747,28.748,28.748,0,0,1-1.824,2.436c-.143.164-.141.243.008.385.4.375.787.754,1.159,1.153.169.181.263.2.472.032.8-.659,1.636-1.284,2.451-1.93a1.253,1.253,0,0,1,1.577-.057,17.222,17.222,0,0,0,2.583,1.3,15.873,15.873,0,0,0,1.887.542,1.6,1.6,0,0,1,1.332,1.481c.106.946.3,1.881.357,2.834.01.176.073.244.243.244.545,0,1.09,0,1.635,0,.114,0,.2-.012.225-.174.13-1.006.286-2.008.407-3.014a1.432,1.432,0,0,1,.831-1.188,3.961,3.961,0,0,1,1.024-.321,8.049,8.049,0,0,0,1.175-.335,15.846,15.846,0,0,0,2.824-1.394,1.187,1.187,0,0,1,1.474.067c.862.666,1.715,1.344,2.571,2.017.076.06.137.222.257.065.365-.473.835-.845,1.233-1.287a.315.315,0,0,0,0-.46c-.53-.7-1.045-1.414-1.572-2.117a1.607,1.607,0,0,1-.126-2.086,15.53,15.53,0,0,0,1.734-4.436,1.521,1.521,0,0,1,1.2-1.271c.228-.056.459-.1.691-.138.709-.115,1.433-.093,2.141-.228.238-.046.366-.117.344-.4a7.97,7.97,0,0,1,0-1.336c.033-.357-.124-.436-.425-.488-.818-.142-1.652-.128-2.47-.286a1.608,1.608,0,0,1-1.475-1.352,14.743,14.743,0,0,0-1.793-4.569,1.507,1.507,0,0,1,.1-1.831c.541-.708,1.054-1.438,1.6-2.144.189-.246.224-.415-.031-.645a12.392,12.392,0,0,1-1.064-1.089c-.168-.194-.23-.132-.393,0-.839.694-1.669,1.4-2.564,2.025a1.2,1.2,0,0,1-1.419.023,13.3,13.3,0,0,0-4.4-1.821,2.721,2.721,0,0,1-.525-.181,1.346,1.346,0,0,1-.932-1.224c-.07-1.014-.274-2.008-.418-3.011-.018-.122-.03-.212-.19-.209-.557.012-1.114.017-1.671.018-.144,0-.235.028-.238.2-.014.995-.264,1.961-.369,2.944a1.468,1.468,0,0,1-1.094,1.346,5.093,5.093,0,0,1-.714.2,7.5,7.5,0,0,0-1.384.412,13.091,13.091,0,0,0-2.517,1.26,1.383,1.383,0,0,1-1.8-.117c-.794-.632-1.595-1.257-2.391-1.886a1.32,1.32,0,0,1-.129-.135" transform="translate(-59.67 -59.716)" fill="#4e5662"/>
            <path id="Trazado_610240" data-name="Trazado 610240" d="M269.034,18.791a4.046,4.046,0,0,1-3.506,4.178,3.318,3.318,0,0,1-2.618-.839,4.008,4.008,0,0,1-1.421-4.289,3.792,3.792,0,0,1,3.615-2.992,3.632,3.632,0,0,1,3.2,1.654,3.81,3.81,0,0,1,.735,2.288m-3.889,1.316a1.131,1.131,0,0,0,1.092-1.223,1.241,1.241,0,0,0-1.082-1.244,1.325,1.325,0,0,0-1.08,1.225,1.271,1.271,0,0,0,1.069,1.243" transform="translate(-183.461 -10.421)" fill="#4e5662"/>
            <path id="Trazado_610241" data-name="Trazado 610241" d="M18.668,267.72a4.06,4.06,0,0,1,3.539-4.076,3.967,3.967,0,0,1,3.711,2.2,4.169,4.169,0,0,1-.909,4.96,3.751,3.751,0,0,1-5.723-.866,3.972,3.972,0,0,1-.618-2.219m3.871-1.22c-.65,0-1.058.475-1.059,1.244a1.252,1.252,0,0,0,1.026,1.265,1.389,1.389,0,0,0,1.136-1.281,1.274,1.274,0,0,0-1.1-1.228" transform="translate(-13.103 -185.05)" fill="#4e5662"/>
            <path id="Trazado_610242" data-name="Trazado 610242" d="M142.46,135.018a1.51,1.51,0,0,1-.6,1.146q-1.687,1.647-3.38,3.29-2.564,2.5-5.125,5.012a4.7,4.7,0,0,1-.411.376,1.31,1.31,0,0,1-1.677-.048c-1.276-1.245-2.544-2.5-3.779-3.784a1.353,1.353,0,0,1,.207-2.054,1.229,1.229,0,0,1,1.573-.005c.918.74,1.681,1.643,2.531,2.456.357.342.353.348.712,0q3.787-3.7,7.571-7.4a1.394,1.394,0,0,1,1.543-.309,1.378,1.378,0,0,1,.837,1.322" transform="translate(-89.221 -93.775)" fill="#4e5662"/>
          </g>
        </g>
      </g>
      <g id="Grupo_1072547" data-name="Grupo 1072547">
        <path id="Unión_4" data-name="Unión 4" d="M-7683.147,11760.372H-7766v-38.534h82.853V11700l70.648,41.1-70.648,41.105Z" transform="translate(12121.104 10691) rotate(90)" fill="#ffe7af"/>
        <rect id="Rectángulo_377967" data-name="Rectángulo 377967" width="400" height="54" rx="9" transform="translate(180 2886)" fill="#ffe7af"/>
        <rect id="Rectángulo_377968" data-name="Rectángulo 377968" width="196" height="54" rx="9" transform="translate(384 2945)" fill="#fff8e7"/>
        <rect id="Rectángulo_377969" data-name="Rectángulo 377969" width="196" height="54" rx="9" transform="translate(180 2945)" fill="#fff8e7"/>
        <path id="Trazado_610591" data-name="Trazado 610591" d="M11.8-6.135a7.546,7.546,0,0,1-.694,3.313A5.132,5.132,0,0,1,9.136-.6,5.494,5.494,0,0,1,6.223.176a5.572,5.572,0,0,1-2.9-.751A5.123,5.123,0,0,1,1.349-2.725,7.329,7.329,0,0,1,.606-5.933v-.721A7.58,7.58,0,0,1,1.3-9.971,5.119,5.119,0,0,1,3.274-12.19a5.533,5.533,0,0,1,2.931-.782,5.479,5.479,0,0,1,2.9.773A5.211,5.211,0,0,1,11.087-10,7.362,7.362,0,0,1,11.8-6.724ZM8.666-6.671a5.381,5.381,0,0,0-.637-2.9,2.044,2.044,0,0,0-1.824-.989q-2.32,0-2.452,3.48l-.009.94a5.535,5.535,0,0,0,.624,2.892A2.041,2.041,0,0,0,6.223-2.232a2.016,2.016,0,0,0,1.8-.993,5.383,5.383,0,0,0,.642-2.856Zm13.421,2a5.8,5.8,0,0,1-.967,3.595A3.238,3.238,0,0,1,18.4.176,2.81,2.81,0,0,1,16.058-.976L15.935,0H13.28V-13.5h2.962v4.755a2.711,2.711,0,0,1,2.136-.94A3.239,3.239,0,0,1,21.12-8.411a5.826,5.826,0,0,1,.967,3.586Zm-2.971-.189a3.866,3.866,0,0,0-.365-1.952A1.229,1.229,0,0,0,17.631-7.4a1.418,1.418,0,0,0-1.389.763v3.773a1.426,1.426,0,0,0,1.406.755,1.258,1.258,0,0,0,1.327-1.018A7.309,7.309,0,0,0,19.116-4.865ZM26.578-9.51V.325a3.452,3.452,0,0,1-.967,2.6,3.714,3.714,0,0,1-2.672.914,6.308,6.308,0,0,1-1.4-.149V1.45a5.667,5.667,0,0,0,.835.079A1.084,1.084,0,0,0,23.607.308V-9.51Zm-3.19-2.452A1.322,1.322,0,0,1,23.845-13a1.724,1.724,0,0,1,1.187-.4,1.724,1.724,0,0,1,1.187.4,1.322,1.322,0,0,1,.457,1.037,1.322,1.322,0,0,1-.457,1.037,1.724,1.724,0,0,1-1.187.4,1.724,1.724,0,0,1-1.187-.4A1.322,1.322,0,0,1,23.388-11.962ZM32.854.176a4.889,4.889,0,0,1-3.542-1.305,4.507,4.507,0,0,1-1.354-3.4v-.246A5.84,5.84,0,0,1,28.5-7.348a3.955,3.955,0,0,1,1.578-1.727,4.763,4.763,0,0,1,2.461-.611A4.117,4.117,0,0,1,35.7-8.442a4.887,4.887,0,0,1,1.16,3.467v1.151H30.973a2.135,2.135,0,0,0,.694,1.257,2.066,2.066,0,0,0,1.389.457,2.662,2.662,0,0,0,2.2-.984l1.354,1.6A3.784,3.784,0,0,1,35.038-.277,5.3,5.3,0,0,1,32.854.176ZM32.52-7.4q-1.3,0-1.547,1.723h2.988v-.229a1.467,1.467,0,0,0-.36-1.1A1.434,1.434,0,0,0,32.52-7.4ZM41.5-11.874V-9.51h1.564v2.057H41.5V-3.1a1.111,1.111,0,0,0,.193.747,1.037,1.037,0,0,0,.765.211A4.345,4.345,0,0,0,43.2-2.2V-.079a5.466,5.466,0,0,1-1.67.255A3.1,3.1,0,0,1,39.27-.545a2.954,2.954,0,0,1-.729-2.188v-4.72H37.327V-9.51H38.54v-2.364ZM47.355,0H44.385V-9.51h2.971ZM44.209-11.962A1.322,1.322,0,0,1,44.666-13a1.724,1.724,0,0,1,1.187-.4,1.724,1.724,0,0,1,1.187.4,1.322,1.322,0,0,1,.457,1.037,1.322,1.322,0,0,1-.457,1.037,1.724,1.724,0,0,1-1.187.4,1.724,1.724,0,0,1-1.187-.4A1.322,1.322,0,0,1,44.209-11.962Zm8.763,8.438,1.5-5.985h3.12L54.492,0H51.469l-3.1-9.51H51.5Zm5-1.318a5.613,5.613,0,0,1,.554-2.536,3.96,3.96,0,0,1,1.591-1.709,4.791,4.791,0,0,1,2.435-.6,4.373,4.373,0,0,1,3.366,1.323,5.076,5.076,0,0,1,1.23,3.6v.105a4.925,4.925,0,0,1-1.235,3.529A4.384,4.384,0,0,1,62.569.176a4.434,4.434,0,0,1-3.261-1.217,4.761,4.761,0,0,1-1.327-3.3Zm2.962.185a3.538,3.538,0,0,0,.413,1.934,1.376,1.376,0,0,0,1.222.615q1.582,0,1.617-2.435v-.3q0-2.558-1.635-2.558-1.485,0-1.608,2.206Zm12.5,1.986a.684.684,0,0,0-.4-.606,6.016,6.016,0,0,0-1.5-.475A6.853,6.853,0,0,1,69.706-4.4a3.062,3.062,0,0,1-1.1-.971,2.319,2.319,0,0,1-.378-1.31,2.628,2.628,0,0,1,1.081-2.158,4.453,4.453,0,0,1,2.83-.848,4.934,4.934,0,0,1,3.023.853,2.666,2.666,0,0,1,1.143,2.241H73.336q0-1.143-1.2-1.143a1.194,1.194,0,0,0-.782.259.8.8,0,0,0-.316.646.737.737,0,0,0,.387.642,3.654,3.654,0,0,0,1.235.4,10.671,10.671,0,0,1,1.49.378A2.706,2.706,0,0,1,76.289-2.76,2.491,2.491,0,0,1,75.133-.642a5.068,5.068,0,0,1-2.993.817,5.172,5.172,0,0,1-2.18-.439,3.645,3.645,0,0,1-1.494-1.2,2.707,2.707,0,0,1-.536-1.591H70.7a1.145,1.145,0,0,0,.439.962,1.808,1.808,0,0,0,1.081.3,1.422,1.422,0,0,0,.91-.246A.787.787,0,0,0,73.433-2.672Z" transform="translate(240 2978)" fill="#12263f"/>
        <path id="Trazado_610590" data-name="Trazado 610590" d="M11.32-4.333a4.673,4.673,0,0,1-.721,2.36A4.35,4.35,0,0,1,8.75-.387a6.3,6.3,0,0,1-2.72.563A5.025,5.025,0,0,1,2.057-1.468,6.786,6.786,0,0,1,.606-6.108v-.633a7.746,7.746,0,0,1,.655-3.292,4.961,4.961,0,0,1,1.885-2.18,5.26,5.26,0,0,1,2.848-.769,5.516,5.516,0,0,1,3.744,1.226,4.844,4.844,0,0,1,1.608,3.379H8.271a2.292,2.292,0,0,0-.589-1.679,2.422,2.422,0,0,0-1.687-.51A1.843,1.843,0,0,0,4.307-9.7a5.536,5.536,0,0,0-.562,2.751v.905A6.125,6.125,0,0,0,4.258-3.12a1.882,1.882,0,0,0,1.771.879,2.369,2.369,0,0,0,1.626-.5,2.126,2.126,0,0,0,.6-1.591Zm.949-.51a5.613,5.613,0,0,1,.554-2.536,3.96,3.96,0,0,1,1.591-1.709,4.791,4.791,0,0,1,2.435-.6,4.373,4.373,0,0,1,3.366,1.323,5.076,5.076,0,0,1,1.23,3.6v.105A4.925,4.925,0,0,1,20.21-1.129,4.384,4.384,0,0,1,16.866.176a4.434,4.434,0,0,1-3.261-1.217,4.761,4.761,0,0,1-1.327-3.3Zm2.962.185a3.538,3.538,0,0,0,.413,1.934,1.376,1.376,0,0,0,1.222.615q1.582,0,1.617-2.435v-.3q0-2.558-1.635-2.558-1.485,0-1.608,2.206ZM25.471-9.51l.1,1.116a3.225,3.225,0,0,1,2.716-1.292A2.713,2.713,0,0,1,30.5-8.8a4.226,4.226,0,0,1,.76,2.672V0H28.292V-6A1.6,1.6,0,0,0,28-7.062,1.342,1.342,0,0,0,26.947-7.4a1.413,1.413,0,0,0-1.292.686V0H22.693V-9.51Zm10.881-2.364V-9.51h1.564v2.057H36.352V-3.1a1.111,1.111,0,0,0,.193.747,1.037,1.037,0,0,0,.765.211,4.345,4.345,0,0,0,.738-.053V-.079a5.466,5.466,0,0,1-1.67.255,3.1,3.1,0,0,1-2.259-.721,2.954,2.954,0,0,1-.729-2.188v-4.72H32.177V-9.51H33.39v-2.364ZM42.205,0H39.234V-9.51h2.971ZM39.059-11.962A1.322,1.322,0,0,1,39.516-13a1.724,1.724,0,0,1,1.187-.4,1.724,1.724,0,0,1,1.187.4,1.322,1.322,0,0,1,.457,1.037,1.322,1.322,0,0,1-.457,1.037,1.724,1.724,0,0,1-1.187.4,1.724,1.724,0,0,1-1.187-.4A1.322,1.322,0,0,1,39.059-11.962Zm7.69,2.452.1,1.116a3.225,3.225,0,0,1,2.716-1.292,2.713,2.713,0,0,1,2.219.888,4.226,4.226,0,0,1,.76,2.672V0H49.57V-6a1.6,1.6,0,0,0-.29-1.059A1.342,1.342,0,0,0,48.226-7.4a1.413,1.413,0,0,0-1.292.686V0H43.972V-9.51Zm7.084,4.685a6.421,6.421,0,0,1,.475-2.549A3.821,3.821,0,0,1,55.67-9.083a3.591,3.591,0,0,1,2.065-.6,2.855,2.855,0,0,1,2.32,1l.105-.826h2.689V-.36a4.009,4.009,0,0,1-.584,2.184,3.75,3.75,0,0,1-1.692,1.424,6.219,6.219,0,0,1-2.566.5,5.365,5.365,0,0,1-2.026-.4,3.657,3.657,0,0,1-1.5-1.028L55.723.58a2.716,2.716,0,0,0,2.18.976A1.764,1.764,0,0,0,59.871-.466v-.3a2.781,2.781,0,0,1-2.153.94,3.437,3.437,0,0,1-2.812-1.332A5.517,5.517,0,0,1,53.833-4.72Zm2.971.185a3.383,3.383,0,0,0,.439,1.85,1.386,1.386,0,0,0,1.23.681,1.573,1.573,0,0,0,1.4-.642v-4a1.534,1.534,0,0,0-1.38-.65,1.4,1.4,0,0,0-1.239.708A3.858,3.858,0,0,0,56.8-4.641ZM69.135.176a4.889,4.889,0,0,1-3.542-1.305,4.507,4.507,0,0,1-1.354-3.4v-.246a5.84,5.84,0,0,1,.541-2.575,3.955,3.955,0,0,1,1.578-1.727,4.763,4.763,0,0,1,2.461-.611,4.117,4.117,0,0,1,3.164,1.244,4.887,4.887,0,0,1,1.16,3.467v1.151H67.254a2.135,2.135,0,0,0,.694,1.257,2.066,2.066,0,0,0,1.389.457,2.662,2.662,0,0,0,2.2-.984l1.354,1.6A3.784,3.784,0,0,1,71.319-.277,5.3,5.3,0,0,1,69.135.176ZM68.8-7.4q-1.3,0-1.547,1.723h2.988v-.229a1.467,1.467,0,0,0-.36-1.1A1.434,1.434,0,0,0,68.8-7.4ZM77.054-9.51l.1,1.116a3.225,3.225,0,0,1,2.716-1.292,2.713,2.713,0,0,1,2.219.888,4.226,4.226,0,0,1,.76,2.672V0H79.875V-6a1.6,1.6,0,0,0-.29-1.059A1.342,1.342,0,0,0,78.53-7.4a1.413,1.413,0,0,0-1.292.686V0H74.276V-9.51Zm11.452,7.4a1.317,1.317,0,0,0,.967-.338,1.241,1.241,0,0,0,.334-.945h2.777A3.288,3.288,0,0,1,91.463-.826a4.168,4.168,0,0,1-2.887,1,4.22,4.22,0,0,1-3.27-1.3,5.125,5.125,0,0,1-1.2-3.6v-.123A5.792,5.792,0,0,1,84.643-7.4a3.872,3.872,0,0,1,1.534-1.7,4.573,4.573,0,0,1,2.373-.593,4.116,4.116,0,0,1,2.944,1.028,3.647,3.647,0,0,1,1.09,2.786H89.807A1.626,1.626,0,0,0,89.446-7a1.244,1.244,0,0,0-.967-.4q-1.151,0-1.345,1.468a10.357,10.357,0,0,0-.062,1.283,4.068,4.068,0,0,0,.343,1.986A1.187,1.187,0,0,0,88.506-2.109ZM96.961,0H93.99V-9.51h2.971ZM93.814-11.962A1.322,1.322,0,0,1,94.271-13a1.724,1.724,0,0,1,1.187-.4,1.724,1.724,0,0,1,1.187.4,1.322,1.322,0,0,1,.457,1.037,1.322,1.322,0,0,1-.457,1.037,1.724,1.724,0,0,1-1.187.4,1.724,1.724,0,0,1-1.187-.4A1.322,1.322,0,0,1,93.814-11.962ZM104.142,0a3.344,3.344,0,0,1-.281-.853A2.754,2.754,0,0,1,101.575.176,3.374,3.374,0,0,1,99.29-.637a2.588,2.588,0,0,1-.94-2.043,2.66,2.66,0,0,1,1.143-2.338,5.821,5.821,0,0,1,3.322-.791h.914v-.5q0-1.316-1.134-1.316a.927.927,0,0,0-1.055,1.042H98.578a2.655,2.655,0,0,1,1.173-2.239,4.931,4.931,0,0,1,2.993-.86,4.323,4.323,0,0,1,2.874.888A3.086,3.086,0,0,1,106.7-6.363v4.21a4.311,4.311,0,0,0,.4,2V0Zm-1.854-1.934a1.652,1.652,0,0,0,.918-.237,1.487,1.487,0,0,0,.523-.536V-4.228h-.861q-1.547,0-1.547,1.389a.848.848,0,0,0,.272.655A.986.986,0,0,0,102.287-1.934Zm11.03-.738a.684.684,0,0,0-.4-.606,6.016,6.016,0,0,0-1.5-.475,6.853,6.853,0,0,1-1.828-.646,3.062,3.062,0,0,1-1.1-.971,2.319,2.319,0,0,1-.378-1.31A2.628,2.628,0,0,1,109.2-8.837a4.453,4.453,0,0,1,2.83-.848,4.934,4.934,0,0,1,3.023.853,2.666,2.666,0,0,1,1.143,2.241h-2.971q0-1.143-1.2-1.143a1.194,1.194,0,0,0-.782.259.8.8,0,0,0-.316.646.737.737,0,0,0,.387.642,3.654,3.654,0,0,0,1.235.4,10.671,10.671,0,0,1,1.49.378,2.706,2.706,0,0,1,2.145,2.646,2.491,2.491,0,0,1-1.156,2.118,5.068,5.068,0,0,1-2.993.817,5.172,5.172,0,0,1-2.18-.439,3.645,3.645,0,0,1-1.494-1.2,2.707,2.707,0,0,1-.536-1.591h2.769a1.145,1.145,0,0,0,.439.962,1.808,1.808,0,0,0,1.081.3,1.422,1.422,0,0,0,.91-.246A.787.787,0,0,0,113.317-2.672Z" transform="translate(424 2978)" fill="#12263f"/>
        <ellipse id="Elipse_5894" data-name="Elipse 5894" cx="84.5" cy="84" rx="84.5" ry="84" transform="translate(296 2745)" fill="#ffe7af"/>
        <path id="Trazado_610589" data-name="Trazado 610589" d="M5.933-3.48,8.481-12.8h3.445L7.62,0H4.245L-.026-12.8H3.393ZM15.847,0H12.876V-9.51h2.971ZM12.7-11.962A1.322,1.322,0,0,1,13.157-13a1.724,1.724,0,0,1,1.187-.4,1.724,1.724,0,0,1,1.187.4,1.322,1.322,0,0,1,.457,1.037,1.322,1.322,0,0,1-.457,1.037,1.724,1.724,0,0,1-1.187.4,1.724,1.724,0,0,1-1.187-.4A1.322,1.322,0,0,1,12.7-11.962Zm9.949,9.29a.684.684,0,0,0-.4-.606,6.016,6.016,0,0,0-1.5-.475A6.853,6.853,0,0,1,18.923-4.4a3.062,3.062,0,0,1-1.1-.971,2.319,2.319,0,0,1-.378-1.31,2.628,2.628,0,0,1,1.081-2.158,4.453,4.453,0,0,1,2.83-.848,4.934,4.934,0,0,1,3.023.853,2.666,2.666,0,0,1,1.143,2.241H22.553q0-1.143-1.2-1.143a1.194,1.194,0,0,0-.782.259.8.8,0,0,0-.316.646.737.737,0,0,0,.387.642,3.654,3.654,0,0,0,1.235.4,10.671,10.671,0,0,1,1.49.378A2.706,2.706,0,0,1,25.506-2.76,2.491,2.491,0,0,1,24.35-.642a5.068,5.068,0,0,1-2.993.817,5.172,5.172,0,0,1-2.18-.439,3.645,3.645,0,0,1-1.494-1.2,2.707,2.707,0,0,1-.536-1.591h2.769a1.145,1.145,0,0,0,.439.962,1.808,1.808,0,0,0,1.081.3,1.422,1.422,0,0,0,.91-.246A.787.787,0,0,0,22.649-2.672Zm9.905,1.644a3.054,3.054,0,0,1-2.54,1.2,3,3,0,0,1-2.369-.91,3.826,3.826,0,0,1-.8-2.615V-9.51H29.8v6.179A1.065,1.065,0,0,0,30.99-2.109a1.548,1.548,0,0,0,1.45-.729V-9.51H35.42V0H32.643ZM42.4,0a3.344,3.344,0,0,1-.281-.853A2.754,2.754,0,0,1,39.832.176a3.374,3.374,0,0,1-2.285-.813,2.588,2.588,0,0,1-.94-2.043,2.66,2.66,0,0,1,1.143-2.338,5.821,5.821,0,0,1,3.322-.791h.914v-.5q0-1.316-1.134-1.316A.927.927,0,0,0,39.8-6.587H36.835a2.655,2.655,0,0,1,1.173-2.239A4.931,4.931,0,0,1,41-9.686a4.323,4.323,0,0,1,2.874.888,3.086,3.086,0,0,1,1.081,2.435v4.21a4.311,4.311,0,0,0,.4,2V0ZM40.544-1.934a1.652,1.652,0,0,0,.918-.237,1.487,1.487,0,0,0,.523-.536V-4.228h-.861q-1.547,0-1.547,1.389a.848.848,0,0,0,.272.655A.986.986,0,0,0,40.544-1.934ZM49.72,0H46.749V-13.5H49.72Zm4.948,0H51.7V-9.51h2.971ZM51.521-11.962A1.322,1.322,0,0,1,51.979-13a1.724,1.724,0,0,1,1.187-.4,1.724,1.724,0,0,1,1.187.4,1.322,1.322,0,0,1,.457,1.037,1.322,1.322,0,0,1-.457,1.037,1.724,1.724,0,0,1-1.187.4,1.724,1.724,0,0,1-1.187-.4A1.322,1.322,0,0,1,51.521-11.962Zm8.464,9.677h4.333V0H56.241V-1.652L60.46-7.225H56.426V-9.51h7.8v1.6ZM71.112,0a3.344,3.344,0,0,1-.281-.853A2.754,2.754,0,0,1,68.546.176a3.374,3.374,0,0,1-2.285-.813,2.588,2.588,0,0,1-.94-2.043,2.66,2.66,0,0,1,1.143-2.338,5.821,5.821,0,0,1,3.322-.791H70.7v-.5q0-1.316-1.134-1.316a.927.927,0,0,0-1.055,1.042H65.549a2.655,2.655,0,0,1,1.173-2.239,4.931,4.931,0,0,1,2.993-.86,4.323,4.323,0,0,1,2.874.888A3.086,3.086,0,0,1,73.67-6.363v4.21a4.311,4.311,0,0,0,.4,2V0ZM69.258-1.934a1.652,1.652,0,0,0,.918-.237,1.487,1.487,0,0,0,.523-.536V-4.228h-.861q-1.547,0-1.547,1.389a.848.848,0,0,0,.272.655A.986.986,0,0,0,69.258-1.934ZM79.33-2.109a1.317,1.317,0,0,0,.967-.338,1.241,1.241,0,0,0,.334-.945h2.777A3.288,3.288,0,0,1,82.288-.826a4.168,4.168,0,0,1-2.887,1,4.22,4.22,0,0,1-3.27-1.3,5.125,5.125,0,0,1-1.2-3.6v-.123A5.792,5.792,0,0,1,75.467-7.4,3.872,3.872,0,0,1,77-9.092a4.573,4.573,0,0,1,2.373-.593,4.116,4.116,0,0,1,2.944,1.028,3.647,3.647,0,0,1,1.09,2.786H80.631A1.626,1.626,0,0,0,80.271-7a1.244,1.244,0,0,0-.967-.4q-1.151,0-1.345,1.468A10.357,10.357,0,0,0,77.9-4.649a4.068,4.068,0,0,0,.343,1.986A1.187,1.187,0,0,0,79.33-2.109ZM87.785,0H84.814V-9.51h2.971ZM84.639-11.962A1.322,1.322,0,0,1,85.1-13a1.724,1.724,0,0,1,1.187-.4,1.724,1.724,0,0,1,1.187.4,1.322,1.322,0,0,1,.457,1.037,1.322,1.322,0,0,1-.457,1.037,1.724,1.724,0,0,1-1.187.4,1.724,1.724,0,0,1-1.187-.4A1.322,1.322,0,0,1,84.639-11.962Zm4.6,7.119a5.613,5.613,0,0,1,.554-2.536A3.96,3.96,0,0,1,91.38-9.088a4.791,4.791,0,0,1,2.435-.6,4.373,4.373,0,0,1,3.366,1.323,5.076,5.076,0,0,1,1.23,3.6v.105a4.925,4.925,0,0,1-1.235,3.529A4.384,4.384,0,0,1,93.832.176a4.434,4.434,0,0,1-3.261-1.217,4.761,4.761,0,0,1-1.327-3.3Zm2.962.185a3.538,3.538,0,0,0,.413,1.934,1.376,1.376,0,0,0,1.222.615q1.582,0,1.617-2.435v-.3q0-2.558-1.635-2.558-1.485,0-1.608,2.206ZM94.219-13.5h3.129L94.9-10.74l-2.417,0Zm8.218,3.99.1,1.116a3.225,3.225,0,0,1,2.716-1.292,2.713,2.713,0,0,1,2.219.888,4.226,4.226,0,0,1,.76,2.672V0h-2.971V-6a1.6,1.6,0,0,0-.29-1.059,1.342,1.342,0,0,0-1.055-.338,1.413,1.413,0,0,0-1.292.686V0H99.659V-9.51Zm11.54,4.685a5.809,5.809,0,0,1,.976-3.56,3.211,3.211,0,0,1,2.725-1.3,2.731,2.731,0,0,1,2.145,1V-13.5h2.971V0h-2.663l-.149-1.02a2.8,2.8,0,0,1-2.32,1.2,3.205,3.205,0,0,1-2.689-1.3A5.993,5.993,0,0,1,113.977-4.825Zm2.962.185q0,2.531,1.477,2.531a1.458,1.458,0,0,0,1.406-.826V-6.557a1.419,1.419,0,0,0-1.389-.844q-1.371,0-1.485,2.215ZM129.076.176a4.889,4.889,0,0,1-3.542-1.305,4.507,4.507,0,0,1-1.354-3.4v-.246a5.84,5.84,0,0,1,.541-2.575A3.955,3.955,0,0,1,126.3-9.075a4.763,4.763,0,0,1,2.461-.611,4.117,4.117,0,0,1,3.164,1.244,4.887,4.887,0,0,1,1.16,3.467v1.151H127.2a2.135,2.135,0,0,0,.694,1.257,2.066,2.066,0,0,0,1.389.457,2.662,2.662,0,0,0,2.2-.984l1.354,1.6A3.784,3.784,0,0,1,131.26-.277,5.3,5.3,0,0,1,129.076.176ZM128.742-7.4q-1.3,0-1.547,1.723h2.988v-.229a1.467,1.467,0,0,0-.36-1.1A1.434,1.434,0,0,0,128.742-7.4ZM137.4,0h-2.971V-13.5H137.4Zm6.961,0V-7.453h-1.38V-9.51h1.38v-.756a3.286,3.286,0,0,1,.958-2.522,3.785,3.785,0,0,1,2.689-.9,5.89,5.89,0,0,1,1.389.185l.009,2.18a2.706,2.706,0,0,0-.729-.079q-1.345,0-1.345,1.16v.729h1.854v2.057h-1.854V0Zm11.531-1.028a3.054,3.054,0,0,1-2.54,1.2,3,3,0,0,1-2.369-.91,3.826,3.826,0,0,1-.8-2.615V-9.51h2.962v6.179a1.065,1.065,0,0,0,1.187,1.222,1.548,1.548,0,0,0,1.45-.729V-9.51h2.979V0h-2.777Zm7.937-10.846V-9.51h1.564v2.057h-1.564V-3.1a1.111,1.111,0,0,0,.193.747,1.037,1.037,0,0,0,.765.211,4.345,4.345,0,0,0,.738-.053V-.079a5.466,5.466,0,0,1-1.67.255A3.1,3.1,0,0,1,161.6-.545a2.954,2.954,0,0,1-.729-2.188v-4.72h-1.213V-9.51h1.213v-2.364Zm8.394,10.846a3.054,3.054,0,0,1-2.54,1.2,3,3,0,0,1-2.369-.91,3.826,3.826,0,0,1-.8-2.615V-9.51h2.962v6.179a1.065,1.065,0,0,0,1.187,1.222,1.548,1.548,0,0,0,1.45-.729V-9.51h2.979V0H172.31Zm10.239-5.8-.976-.07a1.752,1.752,0,0,0-1.793.879V0H176.73V-9.51h2.777l.1,1.222a2.294,2.294,0,0,1,2.083-1.4,2.888,2.888,0,0,1,.826.105Zm.378,1.986a5.613,5.613,0,0,1,.554-2.536,3.96,3.96,0,0,1,1.591-1.709,4.791,4.791,0,0,1,2.435-.6,4.373,4.373,0,0,1,3.366,1.323,5.076,5.076,0,0,1,1.23,3.6v.105a4.925,4.925,0,0,1-1.235,3.529A4.384,4.384,0,0,1,187.436.176a4.434,4.434,0,0,1-3.261-1.217,4.761,4.761,0,0,1-1.327-3.3Zm2.962.185a3.538,3.538,0,0,0,.413,1.934,1.376,1.376,0,0,0,1.222.615q1.582,0,1.617-2.435v-.3q0-2.558-1.635-2.558-1.485,0-1.608,2.206Z" transform="translate(284 2919)" fill="#12263f"/>
        <g id="Grupo_1072545" data-name="Grupo 1072545" transform="translate(332.896 2775.105)">
          <g id="Grupo_1072539" data-name="Grupo 1072539" clip-path="url(#clip-path-2)">
            <path id="Trazado_610227" data-name="Trazado 610227" d="M83.605,99.265a5.439,5.439,0,0,1,0-.745c.411-2.94-.822-4.755-3.3-6.485-8.171-5.7-12.072-13.8-11.332-23.7a26.364,26.364,0,0,1,30.2-24.269c14.089,2.153,23.734,14.026,22.757,28.177A25.372,25.372,0,0,1,110.08,92.425c-2.016,1.335-3.039,2.822-2.819,5.244a42.551,42.551,0,0,1,.017,4.47,4.822,4.822,0,0,1-2.727,4.6,1.367,1.367,0,0,0-.807,1.251,6.4,6.4,0,0,1-6.531,5.711c-1.873-.009-3.778.326-5.617-.312a6.4,6.4,0,0,1-4.452-5.292c-.084-.475.025-.982-.574-1.25-2.387-1.068-3.051-3.081-2.969-5.5.024-.7,0-1.391,0-2.087m11.755-.915c2.535,0,5.07-.026,7.6.014.894.014,1.413-.143,1.336-1.208-.234-3.219,1.333-5.309,3.953-7.109,8.126-5.583,11.812-13.377,10.443-23.209A23.5,23.5,0,0,0,90.713,47.2,23.763,23.763,0,0,0,72.348,65.636,23.448,23.448,0,0,0,82.61,90.047c2.678,1.714,4.219,3.86,3.982,7.086-.076,1.036.39,1.25,1.312,1.233,2.484-.047,4.97-.016,7.455-.016m.044,5.966c.993,0,1.986.005,2.978,0,1.389-.009,2.785.05,4.166-.063a1.836,1.836,0,0,0,1.707-2.207c-.069-1.151-1.046-.668-1.619-.672-4.864-.039-9.729-.029-14.594-.013-.464,0-1.114-.245-1.341.32a1.937,1.937,0,0,0,.316,1.836,2.192,2.192,0,0,0,1.983.8q3.2-.007,6.4,0m.094,3c-1.088,0-2.179-.05-3.262.018-.691.044-1.755-.429-2,.333-.294.926.488,1.752,1.247,2.345a3.024,3.024,0,0,0,1.9.72c1.384-.011,2.772.055,4.152-.02a3.378,3.378,0,0,0,3.082-2.388c.263-.671.121-1.023-.677-1.011-1.483.023-2.966.007-4.45,0" transform="translate(-48.338 -30.715)" fill="#615842"/>
            <path id="Trazado_610228" data-name="Trazado 610228" d="M.032,128.186c0-4.673-.039-9.346.014-14.018a5.931,5.931,0,0,1,11.127-2.856,6.569,6.569,0,0,1,.778,3.29c-.018,4.872.01,9.743-.021,14.615-.006.946,0,1.394,1.254,1.142a5.787,5.787,0,0,1,5.312,1.737c4.045,3.967,8.106,7.919,12.059,11.976,2.209,2.267,2.621,5.148,2.171,8.191-.16,1.079-.293,2.163-.466,3.24-.093.577-.08.882.7.876a2.456,2.456,0,0,1,2.484,2.145c.259,1.008.546,2.008.815,3.013.539,2.012-.063,3.175-2.07,3.723q-10.256,2.8-20.532,5.532c-1.884.5-3.031-.253-3.551-2.168-.272-1-.56-2-.823-3.012a2.505,2.505,0,0,1,1.541-3.391,1.2,1.2,0,0,0,.763-1.263,7.3,7.3,0,0,0-1.932-5.172c-2.117-2.307-4.218-4.628-6.388-6.884A10.945,10.945,0,0,1,0,140.712c.095-4.173.023-8.351.023-12.526Zm2.989-.194c0,4.325.04,8.65-.017,12.974A7.545,7.545,0,0,0,5.135,146.5c2.149,2.276,4.263,4.586,6.4,6.871a10.142,10.142,0,0,1,2.972,6.5c.063,1.24.522,1.2,1.455.941,3.63-1.007,7.259-2.033,10.925-2.894,1.622-.381,2.482-1.038,2.451-2.816a23.593,23.593,0,0,1,.463-3.536,6.888,6.888,0,0,0-2.224-6.309c-3.666-3.5-7.21-7.127-10.823-10.684-1.695-1.668-3.672-1.763-5.137-.3-1.445,1.44-1.341,3.484.3,5.136,1.96,1.975,3.941,3.929,5.92,5.885.722.714,1.06,1.536.305,2.349-.837.9-1.684.516-2.445-.245-2.071-2.076-4.184-4.11-6.222-6.218a6.236,6.236,0,0,1-.984-7.675,3.557,3.557,0,0,0,.472-1.824c-.015-5.617,0-11.234-.011-16.852,0-2.184-1.126-3.562-2.908-3.6-1.82-.04-3.015,1.385-3.02,3.645-.009,4.374,0,8.749,0,13.124m10.412,39.762a3,3,0,0,1,.294-.113c6.225-1.666,12.446-3.343,18.677-4.986,1.718-.453.427-1.451.427-2.187,0-.852-.417-.994-1.282-.756-5.781,1.6-11.582,3.117-17.377,4.657-2.017.536-2.238,1.013-1.341,2.907.132.278.217.569.6.478" transform="translate(0 -75.941)" fill="#615842"/>
            <path id="Trazado_610229" data-name="Trazado 610229" d="M230.077,128.158c0,4.226-.058,8.452.019,12.676a10.732,10.732,0,0,1-3.148,7.931c-2.195,2.3-4.336,4.654-6.487,7a7.3,7.3,0,0,0-1.942,5.019,1.289,1.289,0,0,0,.894,1.473,2.437,2.437,0,0,1,1.449,3.187c-.271,1.107-.575,2.206-.884,3.3a2.582,2.582,0,0,1-3.512,2.036q-10.347-2.753-20.674-5.583c-1.833-.5-2.458-1.667-1.991-3.519.242-.961.6-1.894.8-2.863.308-1.5,1.061-2.481,2.679-2.455.8.013.61-.43.558-.856-.188-1.526-.441-3.047-.567-4.578a9.02,9.02,0,0,1,2.875-7.514q5.333-5.209,10.578-10.506c1.889-1.912,3.963-3.111,6.768-2.478,1.051.237.644-.658.646-1.061.031-4.623.014-9.246.026-13.869a11.765,11.765,0,0,1,.141-2.52,5.932,5.932,0,0,1,11.749,1.162c.062,4.672.016,9.345.016,14.018Zm-2.993.053c0-4.474.008-8.948,0-13.422-.006-2.182-1.156-3.562-2.934-3.578-1.794-.017-2.989,1.369-2.992,3.514q-.012,8.5-.006,17a3.1,3.1,0,0,0,.345,1.559c1.663,3.08,1.263,5.763-1.21,8.254-1.891,1.905-3.817,3.774-5.71,5.677-.761.765-1.605,1.417-2.548.466-.99-1-.312-1.861.5-2.656,1.919-1.874,3.8-3.787,5.711-5.673a3.736,3.736,0,0,0,1.188-2.013,3.462,3.462,0,0,0-1.7-3.667,3.291,3.291,0,0,0-4.1.625q-5.964,5.844-11.856,11.761a5.2,5.2,0,0,0-1.522,4.219c.182,2.075.476,4.14.725,6.21a1.025,1.025,0,0,0,.882,1c4.221,1.1,8.428,2.256,12.636,3.408.747.2,1.04.058,1.08-.8a10.405,10.405,0,0,1,3.041-6.778c2.109-2.246,4.179-4.529,6.3-6.761a7.667,7.667,0,0,0,2.189-5.663c-.061-4.224-.018-8.45-.018-12.676M217.7,165.54c.282-.974-.572-.859-1.033-.984-5.883-1.6-11.776-3.152-17.662-4.735-.827-.223-1.623-.67-1.8.759-.122.966-.788,1.821.9,2.236,5.774,1.416,11.5,3.019,17.251,4.537,1.828.482,1.833.462,2.247-1.378.032-.145.066-.29.1-.435" transform="translate(-135.889 -75.928)" fill="#615842"/>
            <path id="Trazado_610230" data-name="Trazado 610230" d="M44.317,63.363a9.3,9.3,0,0,1,.883.4c1.675.954,3.339,1.926,5.013,2.881.881.5,1.4,1.195.858,2.182s-1.418.943-2.3.437c-1.759-1.006-3.52-2.009-5.262-3.044a1.432,1.432,0,0,1-.716-1.776,1.554,1.554,0,0,1,1.528-1.077" transform="translate(-29.966 -44.462)" fill="#615842"/>
            <path id="Trazado_610231" data-name="Trazado 610231" d="M95.393,23.954A1.338,1.338,0,0,1,94.4,25.24a1.377,1.377,0,0,1-1.708-.536c-1.164-1.952-2.274-3.937-3.381-5.921a1.245,1.245,0,0,1,.5-1.679,1.182,1.182,0,0,1,1.743.027,39.853,39.853,0,0,1,3.817,6.49,1.02,1.02,0,0,1,.026.333" transform="translate(-62.556 -11.743)" fill="#615842"/>
            <path id="Trazado_610232" data-name="Trazado 610232" d="M212,18.43c-.161.36-.293.735-.486,1.075-.929,1.632-1.894,3.244-2.808,4.884-.513.921-1.255,1.354-2.2.868-.987-.508-.968-1.369-.437-2.276,1.024-1.749,2.015-3.517,3.038-5.266a1.44,1.44,0,0,1,1.762-.748A1.724,1.724,0,0,1,212,18.43" transform="translate(-144.349 -11.854)" fill="#615842"/>
            <path id="Trazado_610233" data-name="Trazado 610233" d="M251.437,63.391a1.524,1.524,0,0,1,1.338,1,1.253,1.253,0,0,1-.412,1.6c-2.028,1.225-4.075,2.423-6.163,3.539a1.264,1.264,0,0,1-1.659-.616,1.239,1.239,0,0,1,.192-1.752,53.3,53.3,0,0,1,6.393-3.721,1.1,1.1,0,0,1,.311-.05" transform="translate(-171.408 -44.482)" fill="#615842"/>
            <path id="Trazado_610234" data-name="Trazado 610234" d="M152.92,4.6c0-1.043-.039-2.089.012-3.13A1.368,1.368,0,0,1,154.448,0a1.325,1.325,0,0,1,1.417,1.409q.072,3.278,0,6.559a1.339,1.339,0,0,1-1.432,1.406,1.39,1.39,0,0,1-1.5-1.5c-.047-1.091-.011-2.186-.01-3.279" transform="translate(-107.295 0)" fill="#615842"/>
            <path id="Trazado_610235" data-name="Trazado 610235" d="M98.053,66.845c.756-.055,1.182.474,1.59.959.551.654,1.1.884,1.871.346a3.371,3.371,0,0,1,1.216-.544c1.409-.286,2.112-.953,1.913-2.532-.132-1.052.64-1.65,1.676-1.673q2.979-.066,5.96,0a1.613,1.613,0,0,1,1.758,1.919c-.116,1.24.24,2,1.562,2.159a2.182,2.182,0,0,1,.957.392,1.812,1.812,0,0,0,2.855-.43c.768-.959,1.717-.794,2.563.06,1.293,1.305,2.589,2.608,3.9,3.891.977.952,1.055,1.937-.009,2.8a1.6,1.6,0,0,0-.4,2.506,3.288,3.288,0,0,1,.517,1.228,1.62,1.62,0,0,0,2.058,1.5c1.363-.152,1.976.6,1.94,1.979q-.07,2.755,0,5.513c.033,1.349-.631,2-1.9,1.849-1.334-.155-1.906.441-2.124,1.639a2.292,2.292,0,0,1-.343.821c-.739,1.125-.821,2.066.4,3,.915.7.8,1.634-.011,2.446-1.332,1.337-2.684,2.655-3.994,4.013-.964,1-1.924,1.04-2.766-.042a1.581,1.581,0,0,0-2.51-.38,2.232,2.232,0,0,1-.812.357c-1.363.3-2.129.917-1.919,2.515.135,1.029-.58,1.632-1.675,1.631-1.937,0-3.875-.021-5.812.008-1.315.02-2.032-.614-1.892-1.887a1.728,1.728,0,0,0-1.572-2.153,2.76,2.76,0,0,1-.824-.332c-1.119-.679-2.081-.849-3.013.406-.689.928-1.619.826-2.434.013-1.336-1.333-2.655-2.683-4.008-4-.982-.956-1.064-1.934.021-2.78a1.6,1.6,0,0,0,.393-2.5,3.584,3.584,0,0,1-.522-1.227c-.246-1.125-.782-1.691-2.046-1.545-1.351.156-2-.535-1.953-1.945.058-1.786,0-3.576.017-5.364.015-1.6.436-2.11,2.019-2.029,1.165.059,1.744-.343,1.946-1.451a2.646,2.646,0,0,1,.382-.964c.75-1.133.823-2.087-.408-3a1.4,1.4,0,0,1-.177-2.229c1.467-1.551,3.008-3.031,4.516-4.541a1.356,1.356,0,0,1,1.083-.387M97.2,75.238a1.561,1.561,0,0,1-.154.579,17.947,17.947,0,0,0-2.291,5.458c-.169.651-.623,1.157-1.256,1.06-1.894-.289-1.9.811-1.847,2.171.032.895.161,1.407,1.219,1.3A1.723,1.723,0,0,1,94.9,87.33a15.1,15.1,0,0,0,1.979,4.787c.437.705.6,1.531-.072,2.028-1.475,1.1-.731,1.779.2,2.694.744.732,1.234,1.008,1.979.057a1.579,1.579,0,0,1,2.359-.342,14.53,14.53,0,0,0,4.918,2.033c.741.167,1.407.594,1.289,1.392-.29,1.955.9,1.807,2.208,1.826,1.034.015,1.453-.271,1.328-1.33-.135-1.142.459-1.725,1.564-1.951a10.512,10.512,0,0,0,3.986-1.577,2.342,2.342,0,0,1,3.494.279c1.112,1.064,1.4-.655,2.1-1.032.752-.405.857-.959.065-1.565a1.818,1.818,0,0,1-.389-2.736,12.549,12.549,0,0,0,1.8-4.377,1.911,1.911,0,0,1,2.192-1.735c1.871.085.882-1.355,1.068-2.126.208-.861-.077-1.44-1.149-1.284-1.221.177-1.851-.486-2.09-1.608a12.92,12.92,0,0,0-1.793-4.38,1.851,1.851,0,0,1,.306-2.762c1.373-1.109-.036-1.543-.525-2.144-.51-.627-1.054-1.425-1.923-.267-.765,1.019-1.721.953-2.753.285a12.051,12.051,0,0,0-4.236-1.745c-1.189-.233-1.9-.841-1.723-2.145.2-1.512-.865-1.249-1.718-1.222-.805.025-1.958-.393-1.768,1.169a1.792,1.792,0,0,1-1.675,2.186,12.883,12.883,0,0,0-4.37,1.806c-.721.454-1.633.808-2.174.09-1.272-1.689-2-.634-2.938.307-.6.609-.836,1.042-.044,1.645a1.828,1.828,0,0,1,.81,1.651" transform="translate(-62.223 -44.465)" fill="#615842"/>
            <path id="Trazado_610236" data-name="Trazado 610236" d="M142.505,106.029a11.4,11.4,0,1,1-11.425-11.44,11.423,11.423,0,0,1,11.425,11.44M127.246,113.4c0-1.054-.036-1.943.012-2.827.037-.683-.186-.878-.892-1-2.1-.362-2.7-2.028-1.413-3.731q2.067-2.734,4.2-5.418c1.316-1.653,2.578-1.66,3.9-.013,1.4,1.744,2.749,3.525,4.109,5.3,1.429,1.865.872,3.39-1.439,3.889-.422.091-.767.094-.754.658.022,1.011.007,2.022.007,3.125a8.223,8.223,0,0,0,4.356-9.271,8.443,8.443,0,0,0-16.395-.167,8.247,8.247,0,0,0,4.315,9.455m4.729-2.389c0-.6,0-1.192,0-1.787,0-1.144-.157-2.341,1.47-2.631.656-.117.149-.526.009-.763-1.879-3.171-2.825-3.159-4.721,0-.314.522-.36.717.332.853.95.186,1.175.943,1.172,1.81-.006,1.688.014,3.376-.008,5.064-.007.589.116.918.809.926s.987-.22.947-.941c-.047-.841-.011-1.687-.01-2.531" transform="translate(-83.999 -66.374)" fill="#615842"/>
          </g>
        </g>
      </g>
      <g id="Grupo_1072546" data-name="Grupo 1072546">
        <path id="Unión_3" data-name="Unión 3" d="M-7683.147,11760.372H-7766v-38.534h82.853V11700l70.648,41.1-70.648,41.105Z" transform="translate(12121.604 10382) rotate(90)" fill="#94eeff"/>
        <rect id="Rectángulo_377965" data-name="Rectángulo 377965" width="196" height="54" rx="9" transform="translate(180 2636)" fill="#dffaff"/>
        <rect id="Rectángulo_377963" data-name="Rectángulo 377963" width="400" height="54" rx="9" transform="translate(180 2577)" fill="#94eeff"/>
        <rect id="Rectángulo_377964" data-name="Rectángulo 377964" width="196" height="54" rx="9" transform="translate(384 2636)" fill="#dffaff"/>
        <path id="Trazado_610587" data-name="Trazado 610587" d="M11.663,0H8.6V-5.344H4.052V0H.967V-12.8H4.052v5.08H8.6V-12.8h3.067ZM16.6,0H13.632V-9.51H16.6ZM13.456-11.962A1.322,1.322,0,0,1,13.913-13a1.724,1.724,0,0,1,1.187-.4,1.724,1.724,0,0,1,1.187.4,1.322,1.322,0,0,1,.457,1.037,1.322,1.322,0,0,1-.457,1.037,1.724,1.724,0,0,1-1.187.4,1.724,1.724,0,0,1-1.187-.4A1.322,1.322,0,0,1,13.456-11.962Zm9.949,9.29a.684.684,0,0,0-.4-.606,6.016,6.016,0,0,0-1.5-.475A6.853,6.853,0,0,1,19.679-4.4a3.062,3.062,0,0,1-1.1-.971A2.319,2.319,0,0,1,18.2-6.68a2.628,2.628,0,0,1,1.081-2.158,4.453,4.453,0,0,1,2.83-.848,4.934,4.934,0,0,1,3.023.853,2.666,2.666,0,0,1,1.143,2.241H23.309q0-1.143-1.2-1.143a1.194,1.194,0,0,0-.782.259.8.8,0,0,0-.316.646.737.737,0,0,0,.387.642,3.654,3.654,0,0,0,1.235.4,10.671,10.671,0,0,1,1.49.378A2.706,2.706,0,0,1,26.262-2.76,2.491,2.491,0,0,1,25.106-.642a5.068,5.068,0,0,1-2.993.817,5.172,5.172,0,0,1-2.18-.439,3.645,3.645,0,0,1-1.494-1.2A2.707,2.707,0,0,1,17.9-3.05h2.769a1.145,1.145,0,0,0,.439.962,1.808,1.808,0,0,0,1.081.3,1.422,1.422,0,0,0,.91-.246A.787.787,0,0,0,23.405-2.672Zm7.69-9.2V-9.51H32.66v2.057H31.1V-3.1a1.111,1.111,0,0,0,.193.747,1.037,1.037,0,0,0,.765.211,4.345,4.345,0,0,0,.738-.053V-.079a5.466,5.466,0,0,1-1.67.255,3.1,3.1,0,0,1-2.259-.721,2.954,2.954,0,0,1-.729-2.188v-4.72H26.921V-9.51h1.213v-2.364Zm2.092,7.031a5.613,5.613,0,0,1,.554-2.536,3.96,3.96,0,0,1,1.591-1.709,4.791,4.791,0,0,1,2.435-.6,4.373,4.373,0,0,1,3.366,1.323,5.076,5.076,0,0,1,1.23,3.6v.105a4.925,4.925,0,0,1-1.235,3.529A4.384,4.384,0,0,1,37.784.176a4.434,4.434,0,0,1-3.261-1.217,4.761,4.761,0,0,1-1.327-3.3Zm2.962.185a3.538,3.538,0,0,0,.413,1.934,1.376,1.376,0,0,0,1.222.615q1.582,0,1.617-2.435v-.3Q39.4-7.4,37.767-7.4q-1.485,0-1.608,2.206ZM49.421-6.829l-.976-.07a1.752,1.752,0,0,0-1.793.879V0H43.69V-9.51h2.777l.1,1.222a2.294,2.294,0,0,1,2.083-1.4,2.888,2.888,0,0,1,.826.105ZM53.613,0H50.643V-9.51h2.971ZM50.467-11.962A1.322,1.322,0,0,1,50.924-13a1.724,1.724,0,0,1,1.187-.4A1.724,1.724,0,0,1,53.3-13a1.322,1.322,0,0,1,.457,1.037,1.322,1.322,0,0,1-.457,1.037,1.724,1.724,0,0,1-1.187.4,1.724,1.724,0,0,1-1.187-.4A1.322,1.322,0,0,1,50.467-11.962ZM60.794,0a3.344,3.344,0,0,1-.281-.853A2.754,2.754,0,0,1,58.228.176a3.374,3.374,0,0,1-2.285-.813A2.588,2.588,0,0,1,55-2.681a2.66,2.66,0,0,1,1.143-2.338,5.821,5.821,0,0,1,3.322-.791h.914v-.5q0-1.316-1.134-1.316a.927.927,0,0,0-1.055,1.042H55.23A2.655,2.655,0,0,1,56.4-8.825a4.931,4.931,0,0,1,2.993-.86,4.323,4.323,0,0,1,2.874.888,3.086,3.086,0,0,1,1.081,2.435v4.21a4.311,4.311,0,0,0,.4,2V0ZM58.939-1.934a1.652,1.652,0,0,0,.918-.237,1.487,1.487,0,0,0,.523-.536V-4.228H59.52q-1.547,0-1.547,1.389a.848.848,0,0,0,.272.655A.986.986,0,0,0,58.939-1.934ZM69.1-4.825a5.809,5.809,0,0,1,.976-3.56,3.211,3.211,0,0,1,2.725-1.3,2.731,2.731,0,0,1,2.145,1V-13.5h2.971V0H75.252L75.1-1.02a2.8,2.8,0,0,1-2.32,1.2,3.205,3.205,0,0,1-2.689-1.3A5.993,5.993,0,0,1,69.1-4.825Zm2.962.185q0,2.531,1.477,2.531a1.458,1.458,0,0,0,1.406-.826V-6.557A1.419,1.419,0,0,0,73.556-7.4q-1.371,0-1.485,2.215ZM84.2.176a4.889,4.889,0,0,1-3.542-1.305,4.507,4.507,0,0,1-1.354-3.4v-.246a5.84,5.84,0,0,1,.541-2.575,3.955,3.955,0,0,1,1.578-1.727,4.763,4.763,0,0,1,2.461-.611,4.117,4.117,0,0,1,3.164,1.244,4.887,4.887,0,0,1,1.16,3.467v1.151H82.318a2.135,2.135,0,0,0,.694,1.257,2.066,2.066,0,0,0,1.389.457,2.662,2.662,0,0,0,2.2-.984l1.354,1.6A3.784,3.784,0,0,1,86.383-.277,5.3,5.3,0,0,1,84.2.176ZM83.865-7.4q-1.3,0-1.547,1.723h2.988v-.229a1.467,1.467,0,0,0-.36-1.1A1.434,1.434,0,0,0,83.865-7.4ZM97.673-3.524l1.5-5.985h3.12L99.193,0H96.17l-3.1-9.51H96.2ZM106.3,0h-2.971V-9.51H106.3Zm-3.146-11.962A1.322,1.322,0,0,1,103.614-13a1.724,1.724,0,0,1,1.187-.4,1.724,1.724,0,0,1,1.187.4,1.322,1.322,0,0,1,.457,1.037,1.322,1.322,0,0,1-.457,1.037,1.724,1.724,0,0,1-1.187.4,1.724,1.724,0,0,1-1.187-.4A1.322,1.322,0,0,1,103.157-11.962Zm4.6,7.137a5.809,5.809,0,0,1,.976-3.56,3.211,3.211,0,0,1,2.725-1.3,2.731,2.731,0,0,1,2.145,1V-13.5h2.971V0h-2.663l-.149-1.02a2.8,2.8,0,0,1-2.32,1.2,3.205,3.205,0,0,1-2.689-1.3A5.993,5.993,0,0,1,107.754-4.825Zm2.962.185q0,2.531,1.477,2.531a1.458,1.458,0,0,0,1.406-.826V-6.557A1.419,1.419,0,0,0,112.21-7.4q-1.371,0-1.485,2.215ZM123.609,0a3.344,3.344,0,0,1-.281-.853A2.754,2.754,0,0,1,121.043.176a3.374,3.374,0,0,1-2.285-.813,2.588,2.588,0,0,1-.94-2.043,2.66,2.66,0,0,1,1.143-2.338,5.821,5.821,0,0,1,3.322-.791h.914v-.5q0-1.316-1.134-1.316a.927.927,0,0,0-1.055,1.042h-2.962a2.655,2.655,0,0,1,1.173-2.239,4.931,4.931,0,0,1,2.993-.86,4.323,4.323,0,0,1,2.874.888,3.086,3.086,0,0,1,1.081,2.435v4.21a4.311,4.311,0,0,0,.4,2V0Zm-1.854-1.934a1.652,1.652,0,0,0,.918-.237,1.487,1.487,0,0,0,.523-.536V-4.228h-.861q-1.547,0-1.547,1.389a.848.848,0,0,0,.272.655A.986.986,0,0,0,121.755-1.934Z" transform="translate(212 2670)" fill="#12263f"/>
        <path id="Trazado_610588" data-name="Trazado 610588" d="M9.026-5.1H4.052V0H.967V-12.8H9.527v2.382H4.052v2.944H9.026Zm1.09.255a5.613,5.613,0,0,1,.554-2.536,3.96,3.96,0,0,1,1.591-1.709,4.791,4.791,0,0,1,2.435-.6,4.373,4.373,0,0,1,3.366,1.323,5.076,5.076,0,0,1,1.23,3.6v.105a4.925,4.925,0,0,1-1.235,3.529A4.384,4.384,0,0,1,14.713.176a4.434,4.434,0,0,1-3.261-1.217,4.761,4.761,0,0,1-1.327-3.3Zm2.962.185a3.538,3.538,0,0,0,.413,1.934,1.376,1.376,0,0,0,1.222.615q1.582,0,1.617-2.435v-.3Q16.33-7.4,14.7-7.4q-1.485,0-1.608,2.206ZM26.35-6.829l-.976-.07a1.752,1.752,0,0,0-1.793.879V0H20.619V-9.51H23.4l.1,1.222a2.294,2.294,0,0,1,2.083-1.4,2.888,2.888,0,0,1,.826.105Zm4.957-5.045V-9.51h1.564v2.057H31.307V-3.1a1.111,1.111,0,0,0,.193.747,1.037,1.037,0,0,0,.765.211A4.345,4.345,0,0,0,33-2.2V-.079a5.466,5.466,0,0,1-1.67.255,3.1,3.1,0,0,1-2.259-.721,2.954,2.954,0,0,1-.729-2.188v-4.72H27.132V-9.51h1.213v-2.364ZM39.393,0a3.344,3.344,0,0,1-.281-.853A2.754,2.754,0,0,1,36.826.176a3.374,3.374,0,0,1-2.285-.813,2.588,2.588,0,0,1-.94-2.043,2.66,2.66,0,0,1,1.143-2.338,5.821,5.821,0,0,1,3.322-.791h.914v-.5q0-1.316-1.134-1.316a.927.927,0,0,0-1.055,1.042H33.829A2.655,2.655,0,0,1,35-8.825,4.931,4.931,0,0,1,38-9.686a4.323,4.323,0,0,1,2.874.888A3.086,3.086,0,0,1,41.95-6.363v4.21a4.311,4.311,0,0,0,.4,2V0ZM37.538-1.934a1.652,1.652,0,0,0,.918-.237,1.487,1.487,0,0,0,.523-.536V-4.228h-.861q-1.547,0-1.547,1.389a.848.848,0,0,0,.272.655A.986.986,0,0,0,37.538-1.934ZM46.714,0H43.743V-13.5h2.971Zm6.425.176A4.889,4.889,0,0,1,49.6-1.129a4.507,4.507,0,0,1-1.354-3.4v-.246a5.84,5.84,0,0,1,.541-2.575,3.955,3.955,0,0,1,1.578-1.727,4.763,4.763,0,0,1,2.461-.611,4.117,4.117,0,0,1,3.164,1.244,4.887,4.887,0,0,1,1.16,3.467v1.151H51.258a2.135,2.135,0,0,0,.694,1.257,2.066,2.066,0,0,0,1.389.457,2.662,2.662,0,0,0,2.2-.984l1.354,1.6A3.784,3.784,0,0,1,55.323-.277,5.3,5.3,0,0,1,53.139.176ZM52.8-7.4q-1.3,0-1.547,1.723h2.988v-.229a1.467,1.467,0,0,0-.36-1.1A1.434,1.434,0,0,0,52.8-7.4Zm9.026,5.115h4.333V0H58.087V-1.652l4.219-5.572H58.271V-9.51h7.8v1.6ZM72.958,0a3.344,3.344,0,0,1-.281-.853A2.754,2.754,0,0,1,70.392.176a3.374,3.374,0,0,1-2.285-.813,2.588,2.588,0,0,1-.94-2.043,2.66,2.66,0,0,1,1.143-2.338,5.821,5.821,0,0,1,3.322-.791h.914v-.5q0-1.316-1.134-1.316a.927.927,0,0,0-1.055,1.042H67.395a2.655,2.655,0,0,1,1.173-2.239,4.931,4.931,0,0,1,2.993-.86,4.323,4.323,0,0,1,2.874.888,3.086,3.086,0,0,1,1.081,2.435v4.21a4.311,4.311,0,0,0,.4,2V0ZM71.1-1.934a1.652,1.652,0,0,0,.918-.237,1.487,1.487,0,0,0,.523-.536V-4.228h-.861q-1.547,0-1.547,1.389a.848.848,0,0,0,.272.655A.986.986,0,0,0,71.1-1.934Zm11.03-.738a.684.684,0,0,0-.4-.606,6.016,6.016,0,0,0-1.5-.475A6.853,6.853,0,0,1,78.407-4.4a3.062,3.062,0,0,1-1.1-.971,2.319,2.319,0,0,1-.378-1.31,2.628,2.628,0,0,1,1.081-2.158,4.453,4.453,0,0,1,2.83-.848,4.934,4.934,0,0,1,3.023.853,2.666,2.666,0,0,1,1.143,2.241H82.037q0-1.143-1.2-1.143a1.194,1.194,0,0,0-.782.259.8.8,0,0,0-.316.646.737.737,0,0,0,.387.642,3.654,3.654,0,0,0,1.235.4,10.671,10.671,0,0,1,1.49.378A2.706,2.706,0,0,1,84.99-2.76,2.491,2.491,0,0,1,83.834-.642a5.068,5.068,0,0,1-2.993.817,5.172,5.172,0,0,1-2.18-.439,3.645,3.645,0,0,1-1.494-1.2,2.707,2.707,0,0,1-.536-1.591H79.4a1.145,1.145,0,0,0,.439.962,1.808,1.808,0,0,0,1.081.3,1.422,1.422,0,0,0,.91-.246A.787.787,0,0,0,82.134-2.672Z" transform="translate(439 2670)" fill="#12263f"/>
        <ellipse id="Elipse_5893" data-name="Elipse 5893" cx="84.5" cy="84" rx="84.5" ry="84" transform="translate(296 2436)" fill="#94eeff"/>
        <path id="Trazado_610586" data-name="Trazado 610586" d="M.967,0V-12.8H5.089a6.064,6.064,0,0,1,3.05.769,5.406,5.406,0,0,1,2.114,2.171,6.554,6.554,0,0,1,.769,3.142v.589a6.592,6.592,0,0,1-.743,3.151A5.429,5.429,0,0,1,8.187-.8a5.93,5.93,0,0,1-3.01.8ZM4.052-10.415v8.042H5.124a2.4,2.4,0,0,0,2.039-.945,4.63,4.63,0,0,0,.712-2.808V-6.68a4.592,4.592,0,0,0-.712-2.795,2.442,2.442,0,0,0-2.074-.94ZM15.592,0H12.621V-9.51h2.971ZM12.445-11.962A1.322,1.322,0,0,1,12.9-13a1.724,1.724,0,0,1,1.187-.4,1.724,1.724,0,0,1,1.187.4,1.322,1.322,0,0,1,.457,1.037,1.322,1.322,0,0,1-.457,1.037,1.724,1.724,0,0,1-1.187.4,1.724,1.724,0,0,1-1.187-.4A1.322,1.322,0,0,1,12.445-11.962Zm9.949,9.29a.684.684,0,0,0-.4-.606,6.016,6.016,0,0,0-1.5-.475A6.853,6.853,0,0,1,18.668-4.4a3.062,3.062,0,0,1-1.1-.971,2.319,2.319,0,0,1-.378-1.31,2.628,2.628,0,0,1,1.081-2.158,4.453,4.453,0,0,1,2.83-.848,4.934,4.934,0,0,1,3.023.853,2.666,2.666,0,0,1,1.143,2.241H22.3q0-1.143-1.2-1.143a1.194,1.194,0,0,0-.782.259A.8.8,0,0,0,20-6.829a.737.737,0,0,0,.387.642,3.654,3.654,0,0,0,1.235.4,10.671,10.671,0,0,1,1.49.378A2.706,2.706,0,0,1,25.251-2.76,2.491,2.491,0,0,1,24.1-.642,5.068,5.068,0,0,1,21.1.176a5.172,5.172,0,0,1-2.18-.439,3.645,3.645,0,0,1-1.494-1.2,2.707,2.707,0,0,1-.536-1.591h2.769a1.145,1.145,0,0,0,.439.962,1.808,1.808,0,0,0,1.081.3,1.422,1.422,0,0,0,.91-.246A.787.787,0,0,0,22.395-2.672ZM31.236.176a4.889,4.889,0,0,1-3.542-1.305,4.507,4.507,0,0,1-1.354-3.4v-.246a5.84,5.84,0,0,1,.541-2.575,3.955,3.955,0,0,1,1.578-1.727,4.763,4.763,0,0,1,2.461-.611,4.117,4.117,0,0,1,3.164,1.244,4.887,4.887,0,0,1,1.16,3.467v1.151H29.355a2.135,2.135,0,0,0,.694,1.257,2.066,2.066,0,0,0,1.389.457,2.662,2.662,0,0,0,2.2-.984l1.354,1.6A3.784,3.784,0,0,1,33.42-.277,5.3,5.3,0,0,1,31.236.176ZM30.9-7.4q-1.3,0-1.547,1.723h2.988v-.229a1.467,1.467,0,0,0-.36-1.1A1.434,1.434,0,0,0,30.9-7.4ZM39.155-9.51l.1,1.116a3.225,3.225,0,0,1,2.716-1.292,2.713,2.713,0,0,1,2.219.888,4.226,4.226,0,0,1,.76,2.672V0H41.977V-6a1.6,1.6,0,0,0-.29-1.059A1.342,1.342,0,0,0,40.632-7.4a1.413,1.413,0,0,0-1.292.686V0H36.378V-9.51Zm4.913-3.92a2.562,2.562,0,0,1-.584,1.7,1.813,1.813,0,0,1-1.446.7,2.852,2.852,0,0,1-1.292-.369,2.7,2.7,0,0,0-1.151-.369.66.66,0,0,0-.479.193.8.8,0,0,0-.2.6l-1.644-.088a2.576,2.576,0,0,1,.584-1.687,1.793,1.793,0,0,1,1.437-.712,2.967,2.967,0,0,1,1.151.325,7.07,7.07,0,0,0,.9.369,1.74,1.74,0,0,0,.4.044.671.671,0,0,0,.483-.2.807.807,0,0,0,.2-.6Zm2.145,8.587a5.613,5.613,0,0,1,.554-2.536,3.96,3.96,0,0,1,1.591-1.709,4.791,4.791,0,0,1,2.435-.6,4.373,4.373,0,0,1,3.366,1.323,5.076,5.076,0,0,1,1.23,3.6v.105a4.925,4.925,0,0,1-1.235,3.529A4.384,4.384,0,0,1,50.81.176a4.434,4.434,0,0,1-3.261-1.217,4.761,4.761,0,0,1-1.327-3.3Zm2.962.185a3.538,3.538,0,0,0,.413,1.934,1.376,1.376,0,0,0,1.222.615q1.582,0,1.617-2.435v-.3q0-2.558-1.635-2.558-1.485,0-1.608,2.206ZM60.8-4.825a5.809,5.809,0,0,1,.976-3.56,3.211,3.211,0,0,1,2.725-1.3,2.731,2.731,0,0,1,2.145,1V-13.5h2.971V0H66.955l-.149-1.02a2.8,2.8,0,0,1-2.32,1.2,3.205,3.205,0,0,1-2.689-1.3A5.993,5.993,0,0,1,60.8-4.825Zm2.962.185q0,2.531,1.477,2.531a1.458,1.458,0,0,0,1.406-.826V-6.557A1.419,1.419,0,0,0,65.259-7.4q-1.371,0-1.485,2.215ZM75.9.176A4.889,4.889,0,0,1,72.36-1.129a4.507,4.507,0,0,1-1.354-3.4v-.246a5.84,5.84,0,0,1,.541-2.575,3.955,3.955,0,0,1,1.578-1.727,4.763,4.763,0,0,1,2.461-.611A4.117,4.117,0,0,1,78.75-8.442a4.887,4.887,0,0,1,1.16,3.467v1.151H74.021a2.135,2.135,0,0,0,.694,1.257,2.066,2.066,0,0,0,1.389.457,2.662,2.662,0,0,0,2.2-.984l1.354,1.6A3.784,3.784,0,0,1,78.086-.277,5.3,5.3,0,0,1,75.9.176ZM75.568-7.4q-1.3,0-1.547,1.723H77.01v-.229a1.467,1.467,0,0,0-.36-1.1A1.434,1.434,0,0,0,75.568-7.4ZM84.226,0H81.255V-13.5h2.971ZM99.36-4.685a5.735,5.735,0,0,1-1,3.538A3.2,3.2,0,0,1,95.669.176a2.742,2.742,0,0,1-2.153-.958V3.656H90.554V-9.51h2.769l.088.879a2.742,2.742,0,0,1,2.241-1.055,3.224,3.224,0,0,1,2.733,1.3,5.805,5.805,0,0,1,.976,3.564ZM96.4-4.869Q96.4-7.4,94.922-7.4a1.394,1.394,0,0,0-1.406.756V-2.9a1.439,1.439,0,0,0,1.424.791q1.415,0,1.459-2.443Zm10.02-1.96-.976-.07a1.752,1.752,0,0,0-1.793.879V0h-2.962V-9.51h2.777l.1,1.222a2.294,2.294,0,0,1,2.083-1.4,2.888,2.888,0,0,1,.826.105Zm.378,1.986a5.613,5.613,0,0,1,.554-2.536,3.96,3.96,0,0,1,1.591-1.709,4.791,4.791,0,0,1,2.435-.6,4.373,4.373,0,0,1,3.366,1.323,5.076,5.076,0,0,1,1.23,3.6v.105a4.925,4.925,0,0,1-1.235,3.529A4.384,4.384,0,0,1,111.393.176a4.434,4.434,0,0,1-3.261-1.217,4.761,4.761,0,0,1-1.327-3.3Zm2.962.185a3.538,3.538,0,0,0,.413,1.934,1.376,1.376,0,0,0,1.222.615q1.582,0,1.617-2.435v-.3q0-2.558-1.635-2.558-1.485,0-1.608,2.206Zm11.188.51,1.582-5.361H125.7l-3.876,11.1-.167.4a2.944,2.944,0,0,1-2.918,1.846,4.642,4.642,0,0,1-1.222-.175V1.556h.387a2.026,2.026,0,0,0,.954-.18,1.094,1.094,0,0,0,.488-.647L119.584.1l-3.3-9.605h3.164ZM130.957.176a4.889,4.889,0,0,1-3.542-1.305,4.507,4.507,0,0,1-1.354-3.4v-.246a5.84,5.84,0,0,1,.541-2.575,3.955,3.955,0,0,1,1.578-1.727,4.763,4.763,0,0,1,2.461-.611A4.117,4.117,0,0,1,133.8-8.442a4.887,4.887,0,0,1,1.16,3.467v1.151h-5.889a2.135,2.135,0,0,0,.694,1.257,2.066,2.066,0,0,0,1.389.457,2.662,2.662,0,0,0,2.2-.984l1.354,1.6a3.784,3.784,0,0,1-1.569,1.217A5.3,5.3,0,0,1,130.957.176ZM130.623-7.4q-1.3,0-1.547,1.723h2.988v-.229a1.467,1.467,0,0,0-.36-1.1A1.434,1.434,0,0,0,130.623-7.4Zm9.554,5.291a1.317,1.317,0,0,0,.967-.338,1.241,1.241,0,0,0,.334-.945h2.777a3.288,3.288,0,0,1-1.121,2.566,4.168,4.168,0,0,1-2.887,1,4.22,4.22,0,0,1-3.27-1.3,5.125,5.125,0,0,1-1.2-3.6v-.123a5.792,5.792,0,0,1,.532-2.544,3.872,3.872,0,0,1,1.534-1.7,4.573,4.573,0,0,1,2.373-.593,4.116,4.116,0,0,1,2.944,1.028,3.647,3.647,0,0,1,1.09,2.786h-2.777A1.626,1.626,0,0,0,141.117-7a1.244,1.244,0,0,0-.967-.4q-1.151,0-1.345,1.468a10.357,10.357,0,0,0-.062,1.283,4.068,4.068,0,0,0,.343,1.986A1.187,1.187,0,0,0,140.177-2.109Zm8.78-9.765V-9.51h1.564v2.057h-1.564V-3.1a1.111,1.111,0,0,0,.193.747,1.037,1.037,0,0,0,.765.211,4.345,4.345,0,0,0,.738-.053V-.079a5.466,5.466,0,0,1-1.67.255,3.1,3.1,0,0,1-2.259-.721A2.954,2.954,0,0,1,146-2.733v-4.72h-1.213V-9.51H146v-2.364Zm2.092,7.031a5.613,5.613,0,0,1,.554-2.536,3.96,3.96,0,0,1,1.591-1.709,4.791,4.791,0,0,1,2.435-.6,4.373,4.373,0,0,1,3.366,1.323,5.076,5.076,0,0,1,1.23,3.6v.105a4.925,4.925,0,0,1-1.235,3.529A4.384,4.384,0,0,1,155.646.176a4.434,4.434,0,0,1-3.261-1.217,4.761,4.761,0,0,1-1.327-3.3Zm2.962.185a3.538,3.538,0,0,0,.413,1.934,1.376,1.376,0,0,0,1.222.615q1.582,0,1.617-2.435v-.3q0-2.558-1.635-2.558-1.485,0-1.608,2.206Zm11.628-.167a5.809,5.809,0,0,1,.976-3.56,3.211,3.211,0,0,1,2.725-1.3,2.731,2.731,0,0,1,2.145,1V-13.5h2.971V0h-2.663l-.149-1.02a2.8,2.8,0,0,1-2.32,1.2,3.205,3.205,0,0,1-2.689-1.3A5.993,5.993,0,0,1,165.639-4.825Zm2.962.185q0,2.531,1.477,2.531a1.458,1.458,0,0,0,1.406-.826V-6.557a1.419,1.419,0,0,0-1.389-.844q-1.371,0-1.485,2.215ZM180.738.176A4.889,4.889,0,0,1,177.2-1.129a4.507,4.507,0,0,1-1.354-3.4v-.246a5.84,5.84,0,0,1,.541-2.575,3.955,3.955,0,0,1,1.578-1.727,4.763,4.763,0,0,1,2.461-.611,4.117,4.117,0,0,1,3.164,1.244,4.887,4.887,0,0,1,1.16,3.467v1.151h-5.889a2.135,2.135,0,0,0,.694,1.257,2.066,2.066,0,0,0,1.389.457,2.662,2.662,0,0,0,2.2-.984l1.354,1.6a3.784,3.784,0,0,1-1.569,1.217A5.3,5.3,0,0,1,180.738.176ZM180.4-7.4q-1.3,0-1.547,1.723h2.988v-.229a1.467,1.467,0,0,0-.36-1.1A1.434,1.434,0,0,0,180.4-7.4Zm13.808,3.876,1.5-5.985h3.12L195.732,0h-3.023l-3.1-9.51h3.129ZM202.843,0h-2.971V-9.51h2.971ZM199.7-11.962A1.322,1.322,0,0,1,200.153-13a1.724,1.724,0,0,1,1.187-.4,1.724,1.724,0,0,1,1.187.4,1.322,1.322,0,0,1,.457,1.037,1.322,1.322,0,0,1-.457,1.037,1.724,1.724,0,0,1-1.187.4,1.724,1.724,0,0,1-1.187-.4A1.322,1.322,0,0,1,199.7-11.962Zm4.6,7.137a5.809,5.809,0,0,1,.976-3.56,3.211,3.211,0,0,1,2.725-1.3,2.731,2.731,0,0,1,2.145,1V-13.5h2.971V0h-2.663L210.3-1.02a2.8,2.8,0,0,1-2.32,1.2,3.205,3.205,0,0,1-2.689-1.3A5.993,5.993,0,0,1,204.293-4.825Zm2.962.185q0,2.531,1.477,2.531a1.458,1.458,0,0,0,1.406-.826V-6.557a1.419,1.419,0,0,0-1.389-.844q-1.371,0-1.485,2.215ZM220.148,0a3.344,3.344,0,0,1-.281-.853A2.754,2.754,0,0,1,217.582.176,3.374,3.374,0,0,1,215.3-.637a2.588,2.588,0,0,1-.94-2.043A2.66,2.66,0,0,1,215.5-5.019a5.821,5.821,0,0,1,3.322-.791h.914v-.5q0-1.316-1.134-1.316a.927.927,0,0,0-1.055,1.042h-2.962a2.655,2.655,0,0,1,1.173-2.239,4.931,4.931,0,0,1,2.993-.86,4.323,4.323,0,0,1,2.874.888,3.086,3.086,0,0,1,1.081,2.435v4.21a4.311,4.311,0,0,0,.4,2V0Zm-1.854-1.934a1.652,1.652,0,0,0,.918-.237,1.487,1.487,0,0,0,.523-.536V-4.228h-.861q-1.547,0-1.547,1.389a.848.848,0,0,0,.272.655A.986.986,0,0,0,218.294-1.934Z" transform="translate(264 2611)" fill="#12263f"/>
        <g id="Grupo_1072544" data-name="Grupo 1072544" transform="translate(346 2470.448)">
          <g id="Grupo_1072537" data-name="Grupo 1072537" clip-path="url(#clip-path-3)">
            <path id="Trazado_610214" data-name="Trazado 610214" d="M.012,47.954Q.012,29.846,0,11.738A7.182,7.182,0,0,1,4.228,5.5a8.12,8.12,0,0,1,3.254-.621c1.846.013,3.691-.006,5.537,0,.294,0,.4-.035.393-.38-.034-1.022-.024-2.045-.012-3.068A1.291,1.291,0,0,1,14.788.013a1.167,1.167,0,0,1,1.084.946,2.979,2.979,0,0,1,.07.67c0,.956.006,1.913-.015,2.868-.007.284.046.392.361.391q4.721-.018,9.441,0c.269,0,.334-.084.332-.344q-.016-1.673.006-3.346A1.116,1.116,0,0,1,27.637.077a.912.912,0,0,1,.657.772,5.256,5.256,0,0,1,.081.87c.01.916.021,1.833-.005,2.749-.01.357.1.442.444.439,2.722-.018,5.444-.015,8.167-.019.345,0,.691-.019,1.035,0,.282.014.352-.083.346-.366-.023-1.075-.035-2.152-.011-3.227A1.178,1.178,0,0,1,40.166.18a1.461,1.461,0,0,1,.639,1.38c.012.983.017,1.966,0,2.948-.006.32.1.4.4.4q4.681-.024,9.362-.017c.319,0,.435-.065.429-.411-.019-1.115,0-2.231.008-3.346a1.117,1.117,0,0,1,2.234-.009c.007,1.115.02,2.231,0,3.346-.006.333.082.425.416.423,2.364-.014,4.728-.038,7.091,0A7.107,7.107,0,0,1,67.133,8.61a6.419,6.419,0,0,1,.9,3.222c0,.332.005.664.005,1q0,21.654.008,43.308c0,.218-.126.542.056.63.2.1.4-.187.594-.314q5.293-3.469,10.584-6.943a14.839,14.839,0,0,1,1.829-1.124,5.872,5.872,0,0,1,6.528.748,6.142,6.142,0,0,1-.429,9.932c-3.7,2.461-7.427,4.885-11.142,7.325-2.473,1.625-4.933,3.268-7.426,4.862a1.193,1.193,0,0,0-.618,1.178c.026,3.825.083,7.651,0,11.474a7.131,7.131,0,0,1-4.244,6.551,7.328,7.328,0,0,1-3.406.644h-48.8c-1.368,0-2.736-.02-4.1,0a6.983,6.983,0,0,1-5.5-2.241A6.943,6.943,0,0,1,0,83.971Q.03,65.963.012,47.954M65.625,73.3c-.125-.013-.2.072-.285.128-1.273.84-2.543,1.686-3.817,2.526-2.138,1.409-4.29,2.8-6.409,4.235a3.147,3.147,0,0,1-1.732.559c-2.176.087-4.354.013-6.53.141-.966.057-1.939-.019-2.907.021a1.164,1.164,0,0,1-1.045-1.7c.418-.658.733-1.381,1.108-2.068.3-.555.312-.559-.336-.559q-6.871,0-13.743,0a2.945,2.945,0,0,1-.753-.053,1.284,1.284,0,0,1-.885-1.067,1.069,1.069,0,0,1,.732-1.11A2.612,2.612,0,0,1,30,74.2c4.953,0,9.906,0,14.859.012.5,0,.864-.043,1-.6a2.373,2.373,0,0,1,.308-.554c.257-.446.257-.446-.263-.446h-.159q-7.887,0-15.775,0a2.147,2.147,0,0,1-1.151-.247,1.089,1.089,0,0,1-.269-1.651,1.494,1.494,0,0,1,1.285-.488q8.724.011,17.448.017a1.5,1.5,0,0,0,.883-.281q3.2-2.13,6.418-4.224a.972.972,0,0,1,1.333.152,1.05,1.05,0,0,1-.138,1.783c-1.791,1.211-3.6,2.393-5.42,3.565-.235.152-.256.234-.11.445.37.535.74,1.071,1.078,1.625.2.332.381.33.689.127q5.065-3.345,10.145-6.668,5.956-3.911,11.912-7.82,3.693-2.424,7.393-4.838c.226-.147.281-.28.118-.512-.259-.369-.493-.755-.744-1.13-.566-.843-.568-.844-1.4-.3Q72.072,57,64.7,61.839a22.321,22.321,0,0,1-2.381,1.516A1.143,1.143,0,0,1,60.7,62.58c-.129-.519.062-.9.681-1.307,1.327-.88,2.652-1.763,3.99-2.625a.6.6,0,0,0,.3-.583q-.007-23.107-.007-46.215a4.6,4.6,0,0,0-4.449-4.568c-2.562-.047-5.125-.01-7.688-.018-.223,0-.3.06-.293.289.013.757.017,1.514,0,2.271-.006.261.093.357.327.446a4.566,4.566,0,0,1,2.955,4.807,4.464,4.464,0,0,1-8.887-.5,4.366,4.366,0,0,1,3.13-4.364c.181-.061.255-.132.252-.328q-.015-1.175,0-2.35c0-.212-.067-.27-.273-.269q-4.82.008-9.64,0c-.225,0-.3.063-.291.29.013.744.016,1.488,0,2.231a.443.443,0,0,0,.347.513,4.462,4.462,0,1,1-3.285,8.295,4.614,4.614,0,0,1-2.777-4.24,4.647,4.647,0,0,1,3.107-4.111c.158-.064.2-.125.2-.277-.01-.783-.021-1.567-.009-2.35,0-.279-.088-.354-.364-.353q-4.641.014-9.281,0c-.313,0-.373.1-.364.383.02.65.022,1.3,0,1.952-.012.376.015.655.475.748a2.191,2.191,0,0,1,.694.378,4.441,4.441,0,1,1-4.82,7.459,4.238,4.238,0,0,1-1.964-4.21,4.266,4.266,0,0,1,3.074-3.738.293.293,0,0,0,.241-.335c0-.77-.016-1.541.007-2.31.009-.289-.113-.322-.348-.322q-4.74.007-9.481,0c-.243,0-.321.065-.318.312q.014,1.175-.016,2.35c-.006.228.106.284.284.349a4.367,4.367,0,0,1,2.891,4.962,4.449,4.449,0,0,1-6.977,2.877,4.358,4.358,0,0,1-1.778-4.685,4.78,4.78,0,0,1,2.9-3.184c.168-.068.179-.152.178-.292-.007-.783-.019-1.567-.007-2.35,0-.251-.055-.34-.326-.339-2.071.012-4.143-.006-6.214.012A4.378,4.378,0,0,0,3.77,8.528a5.072,5.072,0,0,0-1.518,3.846q-.009,8.785-.005,17.569,0,26.853,0,53.7a5.265,5.265,0,0,0,.709,2.7,4.652,4.652,0,0,0,4.24,2.43c3.307.007,6.613-.008,9.919-.008q21.59,0,43.181,0a6.839,6.839,0,0,0,1.585-.117,4.772,4.772,0,0,0,3.785-4.775q.007-5.1,0-10.2a.658.658,0,0,0-.038-.382M54.449,77.807c.072-.04.179-.09.276-.154q6.524-4.277,13.045-8.556,8.251-5.417,16.5-10.832c.173-.113.227-.2.112-.374q-.624-.947-1.245-1.9c-.095-.144-.189-.185-.357-.066-.563.4-1.137.781-1.713,1.16q-9.16,6.026-18.322,12.049-4.788,3.149-9.576,6.3c-.222.146-.291.253-.121.5.395.565.763,1.148,1.137,1.728a.284.284,0,0,0,.26.147M83.99,50.062a7.46,7.46,0,0,0-1.358.183c-.323.079-.374.225-.18.5.386.554.753,1.123,1.125,1.687q1.312,1.993,2.623,3.986c.107.161.21.43.454.116a3.891,3.891,0,0,0-2.665-6.475M48.869,78.41c0-.021,0-.043,0-.065.861,0,1.722,0,2.583,0,.11,0,.262.065.32-.071.043-.1-.071-.188-.127-.274-.955-1.464-1.914-2.925-2.862-4.393-.182-.282-.239-.168-.352.051-.79,1.528-1.591,3.05-2.387,4.575-.046.088-.169.172-.093.278s.195.041.3.035l2.62-.135M27.143,16.6a2.184,2.184,0,0,0,2.183-2.121,2.167,2.167,0,1,0-4.334.033A2.189,2.189,0,0,0,27.143,16.6m22.8-2.159a2.063,2.063,0,0,0,2.079,2.17,2.218,2.218,0,0,0,2.219-2.1,2.272,2.272,0,0,0-2.148-2.192,2.142,2.142,0,0,0-2.149,2.123M14.7,16.6a2.1,2.1,0,0,0,2.131-2.139,2.129,2.129,0,0,0-2.164-2.131,2.1,2.1,0,0,0-2.1,2.143A2.063,2.063,0,0,0,14.7,16.6m24.875,0a2.094,2.094,0,0,0,2.165-2.146,2.129,2.129,0,0,0-2.085-2.118,2.093,2.093,0,0,0-2.171,2.184,2.042,2.042,0,0,0,2.091,2.08" transform="translate(0 0.001)" fill="#345359"/>
            <path id="Trazado_610215" data-name="Trazado 610215" d="M31.412,221.658a8.207,8.207,0,0,1-8.166-8.158,8.082,8.082,0,1,1,16.163.081,8.171,8.171,0,0,1-8,8.077m-.038-13.809a5.619,5.619,0,0,0-5.8,5.544,5.752,5.752,0,1,0,11.5.131,5.62,5.62,0,0,0-5.707-5.675" transform="translate(-15.818 -139.803)" fill="#345359"/>
            <path id="Trazado_610216" data-name="Trazado 610216" d="M31.424,96.969a8.208,8.208,0,0,1-8.18-8.185,8.082,8.082,0,0,1,16.164.095,8.171,8.171,0,0,1-7.984,8.091m-.124-2.42a5.663,5.663,0,0,0,5.783-5.712A5.727,5.727,0,0,0,30.9,83.132,5.8,5.8,0,0,0,25.572,88.7,5.679,5.679,0,0,0,31.3,94.549" transform="translate(-15.817 -54.957)" fill="#345359"/>
            <path id="Trazado_610217" data-name="Trazado 610217" d="M31.306,143.186a8.059,8.059,0,1,1-8.065,8,8.1,8.1,0,0,1,8.065-8M31.3,156.975a5.748,5.748,0,1,0-5.715-5.628,5.721,5.721,0,0,0,5.715,5.628" transform="translate(-15.815 -97.431)" fill="#345359"/>
            <path id="Trazado_610218" data-name="Trazado 610218" d="M104.65,95.086q7.289,0,14.578,0a1.368,1.368,0,0,1,1.292.535,1.119,1.119,0,0,1-.685,1.761,3.219,3.219,0,0,1-.748.093q-14.478,0-28.957,0a2.171,2.171,0,0,1-.967-.189,1.092,1.092,0,0,1-.632-1.138,1.29,1.29,0,0,1,.87-.991,2.909,2.909,0,0,1,.751-.066h14.5Z" transform="translate(-60.238 -64.702)" fill="#345359"/>
            <path id="Trazado_610219" data-name="Trazado 610219" d="M104.645,159.8h-14.1c-.305,0-.612.007-.915-.022a1.266,1.266,0,0,1-1.1-1.091,1.113,1.113,0,0,1,.938-1.2,2.877,2.877,0,0,1,.709-.08l28.911,0a1.594,1.594,0,0,1,1.422.551,1.129,1.129,0,0,1-.664,1.775,5.487,5.487,0,0,1-1.151.056q-7.028,0-14.057,0Z" transform="translate(-60.244 -107.109)" fill="#345359"/>
            <path id="Trazado_610220" data-name="Trazado 610220" d="M97.7,169.889h7.722c.711,0,1.063.209,1.269.744a1.144,1.144,0,0,1-.753,1.546,2.555,2.555,0,0,1-.746.1q-7.523,0-15.046,0a2.237,2.237,0,0,1-.969-.182,1.093,1.093,0,0,1-.646-1.13,1.292,1.292,0,0,1,.856-1,2.706,2.706,0,0,1,.71-.07q3.8,0,7.6,0Z" transform="translate(-60.238 -115.603)" fill="#345359"/>
            <path id="Trazado_610221" data-name="Trazado 610221" d="M97.639,109.907c-2.561,0-5.123,0-7.684,0a1.366,1.366,0,0,1-1.188-.513,1.074,1.074,0,0,1,.351-1.656,2.109,2.109,0,0,1,1-.21q7.545,0,15.09,0a1.423,1.423,0,0,1,1.428.673,1.14,1.14,0,0,1-.722,1.64,3.29,3.29,0,0,1-.791.065H97.639Z" transform="translate(-60.233 -73.171)" fill="#345359"/>
            <path id="Trazado_610222" data-name="Trazado 610222" d="M16.464,64.3q0,2.786,0,5.571a1.2,1.2,0,0,1-2.282.637A1.954,1.954,0,0,1,14,69.7q0-5.412,0-10.824a1.713,1.713,0,0,1,.261-.945,1.194,1.194,0,0,1,1.22-.568,1.276,1.276,0,0,1,.961,1.05,3.76,3.76,0,0,1,.017.477q0,2.706,0,5.412Z" transform="translate(-9.528 -39.016)" fill="#345359"/>
            <path id="Trazado_610223" data-name="Trazado 610223" d="M16.4,43.414a7.5,7.5,0,0,1-.048.827,1.144,1.144,0,0,1-1.009.976,1.09,1.09,0,0,1-1.162-.581,2.545,2.545,0,0,1,.05-2.468,1.164,1.164,0,0,1,2.1.413,7.8,7.8,0,0,1,.066.833" transform="translate(-9.449 -28.355)" fill="#345359"/>
            <path id="Trazado_610224" data-name="Trazado 610224" d="M37.7,223.248a1.119,1.119,0,0,1,.814.429c.257.268.536.516.781.794.185.21.313.156.483-.012q1.036-1.02,2.087-2.025a4.6,4.6,0,0,1,.522-.429,1.048,1.048,0,0,1,1.467.156,1.085,1.085,0,0,1,.029,1.519q-1.811,1.794-3.673,3.535a.993.993,0,0,1-1.438-.032c-.691-.659-1.365-1.338-2.026-2.028a1.145,1.145,0,0,1,.953-1.908" transform="translate(-24.793 -150.912)" fill="#345359"/>
            <path id="Trazado_610225" data-name="Trazado 610225" d="M37.671,98.55a1.136,1.136,0,0,1,.846.445c.246.26.517.5.753.766.194.221.328.17.513-.011.768-.753,1.54-1.5,2.324-2.237A1.148,1.148,0,1,1,43.856,99c-1.182,1.184-2.39,2.341-3.611,3.484a1.025,1.025,0,0,1-1.53-.034c-.688-.662-1.364-1.339-2.017-2.037a1.059,1.059,0,0,1-.121-1.266,1.088,1.088,0,0,1,1.094-.6" transform="translate(-24.786 -66.057)" fill="#345359"/>
            <path id="Trazado_610226" data-name="Trazado 610226" d="M44.169,160.806a1.3,1.3,0,0,1-.387.811c-1.145,1.162-2.348,2.263-3.556,3.357a1.054,1.054,0,0,1-1.451-.022q-1.04-.984-2.023-2.025a1.127,1.127,0,0,1,1.526-1.648,6.419,6.419,0,0,1,1.059,1.017c.123.145.187.211.357.043.764-.754,1.547-1.489,2.313-2.241a1.432,1.432,0,0,1,1.047-.486,1.057,1.057,0,0,1,1.115,1.194" transform="translate(-24.797 -108.611)" fill="#345359"/>
          </g>
        </g>
      </g>
    </g>
  </g>
</svg>
