<svg xmlns="http://www.w3.org/2000/svg" xmlns:xlink="http://www.w3.org/1999/xlink" width="608.114" height="261.454" viewBox="0 0 608.114 261.454">
  <defs>
    <clipPath id="clip-path">
      <rect id="Rectángulo_377886" data-name="Rectángulo 377886" width="372.276" height="196.632" fill="none"/>
    </clipPath>
  </defs>
  <g id="Grupo_1072700" data-name="Grupo 1072700" transform="translate(-180 -2142.416)">
    <rect id="BG" width="608.114" height="261.454" transform="translate(180 2142.416)" fill="#e7effb" opacity="0.949"/>
    <g id="Grupo_1072439" data-name="Grupo 1072439" transform="translate(265 2174.619)">
      <g id="Grupo_1072438" data-name="Grupo 1072438" clip-path="url(#clip-path)">
        <path id="Trazado_609979" data-name="Trazado 609979" d="M52.13,122.978l-.016.008.016-.008" transform="translate(-22.776 -53.746)" fill="#fff"/>
        <path id="Trazado_609980" data-name="Trazado 609980" d="M110.515,89.76c-2.249-1.266-7.311,2.39-9.139,3.516a65.347,65.347,0,0,1-8.716,4.78,13.728,13.728,0,0,1-5.239.763c.864-2.856-2.071-3.715-2.071-3.715-.394-.2-.828-.395-1.289-.58l-.538-4.2c-.155-.088-.31-.172-.465-.259-.665-6-.825-13.794-1.925-19.845-.562-3.093-.7-6.045-2.25-8.857a18.725,18.725,0,0,1-2.108-4.5c-.563-1.546-.281-2.812-2.109-3.234-2.811-.562-4.919.282-7.731,0a91.293,91.293,0,0,1-10.546-1.688,11.472,11.472,0,0,1-2.012-.726,5.284,5.284,0,0,1,.32.52c.546.968.891,2.215,1.534,3.345a31.969,31.969,0,0,0,2.305,3.506,12.544,12.544,0,0,0,1.423,1.547A8.642,8.642,0,0,0,61.6,61.3a7.149,7.149,0,0,0,1.768.632,9.312,9.312,0,0,0,1.7.163,5.06,5.06,0,0,0,2.465-.578,6.053,6.053,0,0,0,.629-.369L68.382,61l-.2.166a4.567,4.567,0,0,1-.592.439,4.912,4.912,0,0,1-2.517.8,9.609,9.609,0,0,1-1.777-.075,6.722,6.722,0,0,1-1.92-.593,8.421,8.421,0,0,1-1.78-1.2,12.887,12.887,0,0,1-1.5-1.605A27.015,27.015,0,0,1,55.8,55.327a11.658,11.658,0,0,1-.758-1.835,14.552,14.552,0,0,0-.627-1.607l-.171-.344-.2-.325a1.3,1.3,0,0,0-.156-.226c-1.794-.861-3.157-1.655-5.658-.454-3.234,1.546-5.483,4.639-7.03,7.732a66.182,66.182,0,0,0-5.624,16.871c-.606,3.275-2.045,7.176-2.25,10.624.4-.084.85-.18,1.356-.273.657-.127,1.4-.261,2.216-.377.813-.134,1.7-.23,2.636-.357.939-.092,1.928-.225,2.956-.283,1.027-.073,2.09-.147,3.171-.178,1.08-.056,2.179-.068,3.279-.076s2.2.048,3.279.076,2.143.128,3.171.186,2.016.2,2.955.3,1.821.235,2.635.365,1.561.234,2.216.372l1.7.356,1.473.321-1.493-.214-1.709-.257c-.66-.1-1.411-.158-2.225-.265s-1.7-.209-2.635-.27-1.922-.177-2.947-.221-2.079-.14-3.155-.149-2.168-.065-3.261-.038c-1.093-.005-2.185-.006-3.261.037-1.076.019-2.133.081-3.156.141s-2.01.143-2.948.2c-.935.094-1.822.158-2.636.263-1.539.169-2.829.347-3.766.49-.534.171-.832.278-.832.278v4.622c-.061.024-.11.056-.167.082.166-.075.351-.151.564-.225A14,14,0,0,1,34.6,90.18c.725-.172,1.556-.27,2.461-.4.908-.074,1.892-.2,2.935-.239l1.606-.087c.548-.023,1.108-.017,1.678-.026l1.734-.013,1.777.033,1.8.035,1.817.078c1.212.066,2.425.119,3.616.219l3.5.263c1.134.093,2.227.217,3.263.324l2.921.312c1.807.217,3.308.432,4.36.566l1.652.23-1.664-.121C67,91.271,65.492,91.167,63.682,91l-6.192-.466L54,90.309c-1.189-.088-2.4-.126-3.609-.182l-1.81-.1-1.8-.053-1.769-.051-1.727-.006-1.67,0-1.6.035c-1.04,0-2.017.1-2.923.145-.9.1-1.731.155-2.453.286a13.84,13.84,0,0,0-1.861.391,5.349,5.349,0,0,0-1.137.446c-.056.03-.1.059-.143.086-.011.01-.026.017-.037.026l-.021.017a3.078,3.078,0,0,0-1.048,1.993c.725-.062,1.847-.149,3.227-.22,1.241-.065,2.69-.13,4.244-.162s3.212-.019,4.87-.032l2.473.082c.816.033,1.619.046,2.395.093s1.526.11,2.236.168l2,.167c1.236.151,2.261.311,2.979.407l1.126.169L54.8,93.956c-.723-.05-1.757-.1-2.992-.2-1.24-.058-2.687-.081-4.233-.163-.774-.035-1.576-.036-2.389-.056l-2.466-.045c-1.653-.014-3.307-.053-4.857-.043s-3-.029-4.24-.01l-4.141-.011h0a10.92,10.92,0,0,1-5.546-.714c.309.227.634.462.982.7l1.03.708,1.128.72c.768.5,1.621.965,2.471,1.492.88.478,1.768,1.011,2.708,1.482s1.879.981,2.855,1.417c.963.462,1.921.936,2.892,1.344s1.9.856,2.843,1.21l2.682,1.081,2.43.9c.752.285,1.444.535,2.063.742l1.6.552,1.391.493-1.423-.388-1.63-.458-1-.282-1.1-.36-2.469-.816c-.87-.306-1.782-.65-2.721-1.012-.947-.345-1.9-.775-2.872-1.183s-1.951-.863-2.925-1.318-1.919-.972-2.858-1.46-1.83-1.033-2.71-1.525c-.857-.533-1.691-1.038-2.448-1.57l-1.108-.765-1.011-.75c-.652-.474-1.215-.958-1.716-1.378s-.919-.811-1.257-1.139-.593-.594-.763-.779l-.256-.289h0C16.994,86.147,8.022,76.5,6.2,79.779c-1.687,3.093,1.827,7.17,3.655,9,2.671,2.671,6.468,4.78,9.7,6.607,5.483,3.234,11.668,4.92,17.573,7.31,11.669,4.639,24.744,5.2,36.975,6.186,11.528.985,26.431-.984,34.022-10.684,1.266-1.828,4.64-7.17,2.391-8.436" transform="translate(-2.514 -21.819)" fill="#fff"/>
        <path id="Trazado_609981" data-name="Trazado 609981" d="M332.563,30.933c-.722-1.123-3.2-1.6-4.329-1.933-2.867-.847-5.815-1.441-8.737-2.057q-7.233-1.528-14.527-2.98c.053.4.107.825.153,1.266.1.855.168,1.771.235,2.686s.1,1.835.108,2.7c.01.636-.006,1.24-.029,1.79.033.029.07.062.11.1a3.45,3.45,0,0,1,.856,1.432,4.122,4.122,0,0,1,.174.742,5.232,5.232,0,0,1,.037.813,5.38,5.38,0,0,1-.1.831l-.088.41-.127.393a4.319,4.319,0,0,1-.3.742,5.43,5.43,0,0,1-.343.659c-.123.2-.245.386-.359.556a9.268,9.268,0,0,1-.616.77c-.155.18-.249.276-.249.276s.054-.127.159-.338.264-.507.427-.87c.08-.184.167-.38.265-.584s.163-.435.26-.659a5.717,5.717,0,0,0,.236-.713l.109-.368.072-.378a4.757,4.757,0,0,0,.108-.755,7.028,7.028,0,0,0,.014-.736,6.153,6.153,0,0,0-.087-.683,5.712,5.712,0,0,0-.15-.6c-.072-.179-.124-.354-.2-.5a3.63,3.63,0,0,0-.191-.37l-.03-.048c-.007.153-.013.3-.02.448a15.31,15.31,0,0,1-.189,1.662c-.091.4-.15.616-.15.616s.015-.229.041-.629c0-.2,0-.442.005-.721s-.015-.592-.024-.933c-.015-.685-.078-1.482-.123-2.336s-.115-1.767-.174-2.679-.113-1.826-.167-2.682-.084-1.658-.12-2.344-.043-1.261-.061-1.662-.013-.632-.013-.632v0c-.117-1.017-.211-2.027-.257-3.025a33.844,33.844,0,0,0-1.83-9.852c-1.267-3.519-3.518-4.926-7.037-6.052a8.862,8.862,0,0,0-3.516-.27c-.661.177-1.52.431-2.54.736-1.158.343-2.491.8-3.91,1.309A46.321,46.321,0,0,0,281,5.3c-.728.334-1.441.7-2.133,1.077s-1.351.785-1.968,1.208-1.205.846-1.726,1.29a9.8,9.8,0,0,0-.745.664,7.772,7.772,0,0,0-.652.666,7.249,7.249,0,0,0-.555.653,6.209,6.209,0,0,0-.464.62c-.132.2-.266.39-.372.573l-.271.513a7.617,7.617,0,0,0-.332.745l-.111.269s.029-.1.082-.279a5.869,5.869,0,0,1,.261-.781l.234-.542c.092-.194.213-.393.332-.612a6.359,6.359,0,0,1,.424-.669,6.424,6.424,0,0,1,.533-.7,8.1,8.1,0,0,1,.636-.714,9.908,9.908,0,0,1,.731-.716,15.537,15.537,0,0,1,1.719-1.384c.624-.442,1.3-.859,1.988-1.264s1.416-.779,2.151-1.127a46.8,46.8,0,0,1,4.429-1.767c1.347-.461,2.629-.8,3.753-1.093A5.231,5.231,0,0,1,286.869,1c-2.393-1.267-6.052-1.126-8.726-.7a61.036,61.036,0,0,0-18.859,7.6c-2.854,1.9-5.438,4.595-5.74,8.072l.136,4.006.169,6.4c.123,4.255.177,8.511.261,12.767a4.5,4.5,0,0,0,.761,1.349,8.256,8.256,0,0,0,1.141,1.169,10.641,10.641,0,0,0,1.33.978,14.1,14.1,0,0,0,1.453.808c.5.245,1.01.469,1.531.666s1.05.38,1.582.55,1.073.316,1.618.449,1.093.247,1.64.37c.552.1,1.1.224,1.656.3s1.11.179,1.668.244,1.117.14,1.678.189,1.12.105,1.683.141q1.684.129,3.376.18c.564.012,1.128.042,1.692.039l1.693.02-1.693.073c-.565.026-1.129.02-1.695.032s-1.13.005-1.7,0-1.131-.014-1.7-.046-1.131-.052-1.7-.1-1.129-.085-1.692-.147-1.126-.127-1.688-.2-1.121-.177-1.682-.265c-.557-.113-1.116-.217-1.667-.357s-1.1-.279-1.649-.442-1.088-.339-1.62-.548-1.062-.422-1.578-.671a14.681,14.681,0,0,1-1.512-.824,11.286,11.286,0,0,1-1.4-1.014,8.084,8.084,0,0,1-1.213-1.257,4.837,4.837,0,0,1-.855-1.586l-.006-.021v-.033q-.011-1.105-.025-2.212a.679.679,0,0,0-.254.194,1.067,1.067,0,0,0-.152.244,1.346,1.346,0,0,0-.1.273,1.607,1.607,0,0,0-.061.285,2.5,2.5,0,0,0-.035.291,5.041,5.041,0,0,0-.011.591,9.505,9.505,0,0,0,.088,1.183c.04.387.119.774.182,1.159a5.007,5.007,0,0,0,.385.755,7.575,7.575,0,0,0,.51.718c.18.233.386.447.584.665.216.2.413.424.642.614s.445.395.688.567l.721.529.754.484c.249.166.522.292.781.444s.52.3.8.421l.813.39c.269.137.553.239.829.361l.836.348,1.71.611c.578.182,1.159.359,1.737.557-.6-.105-1.2-.231-1.795-.352-.6-.136-1.179-.317-1.769-.48l-.869-.3c-.288-.105-.583-.192-.865-.314l-.844-.369c-.285-.116-.556-.262-.83-.4s-.55-.279-.811-.445l-.785-.492c-.255-.176-.5-.363-.751-.548s-.474-.4-.712-.6-.444-.436-.667-.653c-.2-.236-.412-.47-.6-.723a8.029,8.029,0,0,1-.52-.786,4.468,4.468,0,0,1-.386-.888l0-.015v-.008c-.041-.4-.1-.806-.113-1.214a8.955,8.955,0,0,1-.009-1.223,5.116,5.116,0,0,1,.075-.611,2.7,2.7,0,0,1,.069-.3,1.737,1.737,0,0,1,.1-.295,1.486,1.486,0,0,1,.136-.281,1.077,1.077,0,0,1,.194-.246.728.728,0,0,1,.314-.172c-.041-3.52-.089-7.04-.092-10.56l-.02-6.4.008-2.087a46.305,46.305,0,0,0-9.079,1.593c-6.066,1.733-11.7,8.051-14.2,13.555-4.5,9.884-5.563,24.558,2.746,32.922A31.819,31.819,0,0,0,250.37,75.22c6.005.938,11.072-1.877,16.138-4.5,10.884-6.005,21.768-12.01,32.84-17.827,8.256-4.316,16.7-9.007,24.582-14.074,1.877-1.313,9.946-5.817,8.632-7.882m-3.511,2.708a18.92,18.92,0,0,1-2.046,1.158c-.914.439-2.012.987-3.3,1.57-.323.145-.652.306-1,.45l-1.084.409c-.74.292-1.535.53-2.356.813l-1.257.427-.647.22-.639.26-2.671,1.1c-.923.356-1.842.806-2.788,1.246s-1.928.867-2.888,1.358c-1.912,1-3.937,1.93-5.87,3.148-.98.575-1.97,1.175-2.957,1.741l-3.017,1.717-6.01,3.387c-1.92,1.222-3.838,2.379-5.641,3.579S281.3,58.53,279.7,59.7c-1.618,1.147-3.177,2.193-4.53,3.283-1.366,1.068-2.648,2.015-3.746,2.895s-2.107,1.6-2.938,2.175-1.5,1.009-1.964,1.293c-.231.141-.411.245-.536.311a.728.728,0,0,1-.145.065v-.006c-.007-.016.022-.031.013-.029.008,0-.022.017-.013.029v0a.79.79,0,0,0,.142-.07c.122-.069.3-.18.523-.33.453-.3,1.1-.757,1.917-1.356s1.786-1.351,2.871-2.248c1.077-.914,2.328-1.894,3.681-2.98,1.333-1.111,2.88-2.188,4.486-3.367,1.594-1.2,3.356-2.339,5.156-3.555s3.716-2.382,5.632-3.616l6-3.426,3.016-1.7,2.979-1.732c1.931-1.2,4-2.136,5.929-3.137.976-.487,1.953-.9,2.9-1.336s1.877-.857,2.816-1.2l2.707-1.058.654-.252.65-.209,1.264-.406c.825-.267,1.626-.5,2.366-.768l1.088-.376c.348-.133.677-.284,1-.419,1.3-.544,2.415-1.065,3.337-1.477a21.074,21.074,0,0,0,2.078-1.085l.712-.43-.7.455" transform="translate(-99.08 0)" fill="#d32323"/>
        <path id="Trazado_609982" data-name="Trazado 609982" d="M564.226,84.879c-1.629-7.966-7.786-15.932-15.752-17.924a47.245,47.245,0,0,0-12.653-1.509c0,.441.006.884.009,1.327,0,.805-.009,1.608-.019,2.4l.022.026a.7.7,0,0,1,.168.341,2.093,2.093,0,0,1,.038.211,3.434,3.434,0,0,1,.024.372c.005.239,0,.472-.01.7-.013.463-.06.92-.106,1.377-.069.6-.164,1.192-.275,1.785,0,.105-.01.216-.014.318-.046,1.027-.12,1.883-.155,2.482s-.079.941-.079.941-.037-.342-.079-.941-.109-1.455-.155-2.482-.1-2.225-.124-3.508c-.008-.324-.016-.653-.021-.986l-1.6-.208-2.055-.274-2.054-.284c-.343-.038-.686-.106-1.029-.14s-.689-.086-1.038-.139c.346-.046.694-.083,1.044-.116s.7-.036,1.048-.044.7-.015,1.048,0,.7.016,1.047.035c.695.048,1.391.09,2.082.173.5.051,1,.124,1.5.2-.008-.736-.012-1.485-.018-2.236.01-1.369.016-2.738.049-4.022s.073-2.481.126-3.508.12-1.882.154-2.482c0-.055.008-.1.012-.154a87.884,87.884,0,0,0-.642-9.93c-.543-4.526-2.9-8.328-7.966-9.052A108.2,108.2,0,0,0,513.351,36c-11.406-.363-22.45,1.448-32.226,7.6-4.165,2.534-4.165,5.069-3.984,9.776.119,1.652.156,3.385.17,5.14q1.82.021,3.82.092a142.569,142.569,0,0,1,17.732,1.673A82.494,82.494,0,0,1,518.535,65.8a42.612,42.612,0,0,1,8.973,5.31,29.815,29.815,0,0,1,3.754,3.5l.825.965.744,1.016q.744.986,1.479,1.957a131.549,131.549,0,0,0,11.631,13.382,62.835,62.835,0,0,0,5.3,4.693,28.225,28.225,0,0,0,4.57,2.963,13.06,13.06,0,0,0,3.291,1.2,7.271,7.271,0,0,0,.917.133l.318.025-.319-.014a7.275,7.275,0,0,1-.924-.1,12.638,12.638,0,0,1-3.352-1.1,40.941,40.941,0,0,1-10.116-7.469,123.387,123.387,0,0,1-11.872-13.28l-1.5-1.96-.729-.986-.807-.934a29.135,29.135,0,0,0-3.678-3.4,41.941,41.941,0,0,0-8.837-5.163,81.712,81.712,0,0,0-19.456-5.569,153.483,153.483,0,0,0-17.635-1.913c-5.192-.265-9.53-.308-12.564-.259l-.594.01a52.972,52.972,0,0,0-13.624,2.526c-3.984,1.448-10.239,3.835-12.13,8.328-1.449,3.44,4.345,5.069,7.966,5.251,7.966.362,15.932-.181,24.079.181,10.139.362,19.733,2.354,29.692,4.164a149.767,149.767,0,0,1,16.112,4.164c5.07,1.81,8.872,4.888,13.4,7.423,4.165,2.354,8.148,4.526,11.95,7.061,3.259,2.354,7.6,4.889,11.587,5.069,10.863.543,8.69-11.406,7.242-18.1" transform="translate(-193.159 -15.712)" fill="#272525"/>
        <path id="Trazado_609983" data-name="Trazado 609983" d="M139.781,333.148c-.563-.7-.563-1.83-1.689-.422a17.779,17.779,0,0,0-.523-2.837l-.444-.075-1.678-.3a8.408,8.408,0,0,1,.534,3.072c-1.126.563-.985,1.548-.985,2.674a1.48,1.48,0,0,0,1.83,0c.281,2.533,4.363,2.252,4.081-.141-.141-.844-.844-1.407-1.126-1.97" transform="translate(-58.996 -144.011)" fill="#ddd70a"/>
        <path id="Trazado_609984" data-name="Trazado 609984" d="M86.627,237.9a22.882,22.882,0,0,0-4.388.424,11.749,11.749,0,0,0-2.389.7,8.869,8.869,0,0,0-2.236,1.382,4.089,4.089,0,0,0-1.448,2.179,2.547,2.547,0,0,0,.058,1.287,3.805,3.805,0,0,0,.674,1.181,3.447,3.447,0,0,0,.5.474,5.444,5.444,0,0,0,.61.375,7.4,7.4,0,0,0,1.383.551,20.553,20.553,0,0,0,3.064.606l1.6.212c.273.037.533.077.823.126l.8.155,3.2.625,6.4,1.049c2.12.319,4.2.719,6.215,1.067l2.957.5c.968.145,1.912.279,2.842.435.464.078.923.142,1.372.229l1.324.283,2.489.522c.8.184,1.57.27,2.3.407l2.084.345c.41.063.8.127,1.17.192-.917-.408-1.828-.807-2.717-1.193-7.178-3.1-13.652-7.741-20.689-11.259-1.786-.893-3.779-1.911-5.849-2.715a16.2,16.2,0,0,0-2.148-.138" transform="translate(-33.262 -103.972)" fill="#ddd70a"/>
        <path id="Trazado_609985" data-name="Trazado 609985" d="M111.888,291.971c-.844-4.222-8.3-10.415-11.822-12.385a22.21,22.21,0,0,0-6.615-2.533c-.541-.1-1.047-.214-1.549-.329-.368-.041-.776-.089-1.236-.147-1.017-.131-2.252-.3-3.668-.458a41.386,41.386,0,0,0-4.759-.274l-1.331.051c-.419.042-.9.133-1.365.2-.933.156-1.912.267-2.894.473-1.969.4-4.041.781-6.192,1.242s-4.373.9-6.623,1.405-4.542.987-6.825,1.514c-4.578,1-9.154,2.013-13.431,3.007l-3.144.738-.765.18c-.3.075-.525.1-.788.153l-1.506.27c-.993.17-1.951.368-2.893.5l-2.726.364-1.283.171c-.441.055-.835.072-1.239.1a21.177,21.177,0,0,1-2.3-.021,26.666,26.666,0,0,1-3.681-.478c-.506-.095-.954-.193-1.34-.3s-.717-.176-.98-.255l-.811-.23.821.186c.267.065.6.129.991.2s.84.157,1.346.232a26.377,26.377,0,0,0,3.665.326,22.985,22.985,0,0,0,4.732-.408l2.7-.429c.932-.154,1.889-.377,2.876-.571l1.5-.308c.242-.054.532-.1.739-.161l.766-.2c1.027-.278,2.081-.524,3.149-.78,4.275-1.03,8.843-2.084,13.417-3.118,2.289-.508,4.586-.978,6.844-1.459s4.488-.914,6.643-1.353c2.147-.457,4.268-.775,6.253-1.132.995-.184,1.969-.269,2.908-.4.478-.056.914-.131,1.4-.168l1.359-.019a34.73,34.73,0,0,1,4.8.437c.938.142,1.785.286,2.55.417.02-.052.041-.1.063-.158.563-1.97,1.407-4.081,1.83-6.193.422-1.97,0-4.222.563-6.193,1.126-3.1,3.8-5.63-.141-8.022-1.988-1.084-4.149-2.109-6.3-3.078-.627-.084-1.307-.173-2.051-.254-1.313-.154-2.818-.319-4.43-.6l-2.511-.457L75.3,251.03c-.445-.074-.9-.125-1.364-.19-.919-.129-1.883-.239-2.862-.36s-1.959-.294-2.98-.46c-2.012-.33-4.081-.709-6.2-1.01s-4.279-.655-6.44-1l-3.2-.652-.8-.162-.778-.126-1.6-.226a21.278,21.278,0,0,1-3.175-.66,8.082,8.082,0,0,1-1.514-.62,5.986,5.986,0,0,1-.7-.444,4.261,4.261,0,0,1-.609-.585,4.489,4.489,0,0,1-.806-1.446,3.121,3.121,0,0,1-.044-1.651,4.722,4.722,0,0,1,1.726-2.5,10.162,10.162,0,0,1,4.931-2.08,20.671,20.671,0,0,1,4.484-.272c.408.017.792.051,1.164.092-3.839-1.336-7.876-1.768-11.33.823a15.486,15.486,0,0,0-3.609,3.831c-.594.971-1.2,1.934-1.81,2.9l-.5.866-.037-.013c-.154.244-.308.487-.462.732-.958,1.526-1.952,3.026-2.926,4.541s-1.951,3.027-2.949,4.525l-2.987,4.5-.069.1-.125.05c-.135.053-.271.116-.406.175-.023.057-.047.11-.069.171a2.377,2.377,0,0,0-.11.4,1.836,1.836,0,0,0-.076.442,4.308,4.308,0,0,0,.011.994c.038.172.076.35.115.53a5.56,5.56,0,0,0,.189.537,7.486,7.486,0,0,0,.535,1.074c.229.345.48.687.735,1.025l.843.963c.314.287.606.588.9.871s.6.533.879.785.551.484.8.706c1.04.811,1.7,1.422,1.7,1.422s-.812-.368-1.987-1.027c-.281-.182-.586-.383-.9-.6a9.029,9.029,0,0,1-.98-.722c-.32-.278-.661-.556-.99-.858L28,265.41c-.271-.373-.537-.754-.778-1.139-.106-.206-.205-.413-.3-.617a2.922,2.922,0,0,1-.235-.629,4.278,4.278,0,0,1-.164-.632q-.033-.322-.064-.627a3.849,3.849,0,0,1,.141-1.139,1.937,1.937,0,0,1,.165-.477c.039-.081.074-.16.11-.235-.209.1-.419.2-.624.3-.488.247-.966.513-1.43.8a13.232,13.232,0,0,0-2.567,1.968,5.319,5.319,0,0,0-1.537,2.645,3.909,3.909,0,0,0,.7,2.9l.012.017.012.023a15.681,15.681,0,0,0,.828,1.4c.309.454.629.9.975,1.33s.706.846,1.079,1.252.768.793,1.177,1.165c.2.194.413.368.623.547s.411.372.634.536l.656.511c.218.171.453.319.68.479s.452.325.694.462l.714.431c.476.288.978.533,1.469.8l-.772-.329c-.256-.113-.52-.209-.765-.346l-.748-.387c-.253-.122-.487-.278-.73-.418s-.488-.281-.719-.44l-.7-.474c-.238-.152-.453-.334-.68-.5s-.449-.343-.658-.532c-.433-.363-.848-.746-1.251-1.142s-.79-.81-1.159-1.24-.722-.874-1.061-1.331a13.869,13.869,0,0,1-.932-1.451l.024.041a5.542,5.542,0,0,1-.773-1.611,4.193,4.193,0,0,1-.1-1.823,5.945,5.945,0,0,1,1.722-3.085,13.9,13.9,0,0,1,2.717-2.113c.488-.3.987-.567,1.5-.821.472-.234.943-.449,1.441-.649l2.98-4.356c1.014-1.487,2.055-2.956,3.087-4.432s2.056-2.956,3.111-4.417q.231-.319.459-.64a27.347,27.347,0,0,0-7.4-1.421c-9.148-.7-19.281,2.533-25.192,9.852C-1.407,260.867-1.548,271,4.5,277.9c5.911,6.9,16.748,9.711,25.192,9.852,8.585.141,6.756-1.419,15.341-1.419,6.591,0,19.35.693,28.583,1.666h0l1.259.06c.8.044,1.944.119,3.315.257l2.206.224c.781.091,1.6.141,2.453.231l2.64.295c.9.143,1.811.274,2.719.431.9.176,1.808.34,2.691.539s1.752.388,2.584.614,1.641.421,2.395.656,1.473.433,2.126.651c1.31.426,2.386.825,3.137,1.108s1.176.457,1.176.457-.449-.1-1.226-.3c-.389-.1-.858-.227-1.4-.354s-1.156-.271-1.82-.441l-2.153-.508c-.762-.189-1.575-.345-2.407-.542s-1.7-.346-2.579-.543-1.778-.333-2.671-.512-1.791-.3-2.673-.454l-2.609-.374-.455-.061c3.69,1.394,6.7,4.454,10.424,5.775a36.27,36.27,0,0,0,12.244,2.252c3.378-.141,7.741-1.689,6.9-5.489" transform="translate(0 -102.974)" fill="#ddd70a"/>
        <path id="Trazado_609986" data-name="Trazado 609986" d="M500.252,226.64c.963-.844,2.049-1.71,3.244-2.563a42.446,42.446,0,0,1,3.886-2.493c.707-.376,1.41-.791,2.156-1.142l1.115-.551,1.148-.511c1.537-.687,3.145-1.271,4.765-1.816.821-.235,1.636-.494,2.461-.706.829-.194,1.645-.427,2.47-.585,1.645-.351,3.279-.618,4.866-.824.8-.084,1.577-.184,2.344-.249l2.252-.134c.731-.045,1.446-.032,2.134-.05s1.354-.023,1.995,0l1.833.051c.581.019,1.132.079,1.649.113,1.035.078,2.634.161,2.338.117-.57-1-1.065-1.869-1.345-2.477-1.108-2.4-1.846-4.062-4.616-4.43-2.215-.369-4.245.184-6.461.553-7.937,1.847-16.428,3.692-23.443,8.492-3.323,2.4-5.354,4.43-6.646,8.307-.338,1.243-.874,2.622-1.288,3.972a35.462,35.462,0,0,1,3.142-3.078" transform="translate(-217.257 -91.023)" fill="#1ba8c9"/>
        <path id="Trazado_609987" data-name="Trazado 609987" d="M546.117,225.134c-3.662-.844-22.2-3.94-22.2-3.94l-2.331-.176c-.74-.074-1.643-.1-2.676-.142-1.034-.058-2.2-.053-3.473-.056-.637-.013-1.3.008-1.984.039s-1.394.038-2.12.1l-2.233.184-2.322.274c-1.573.216-3.191.493-4.817.852-.817.163-1.624.4-2.442.6-.815.215-1.618.479-2.431.715-1.605.528-3.2,1.093-4.727,1.763l-1.141.5-1.107.537c-.741.342-1.439.747-2.141,1.114-1.375.791-2.7,1.568-3.89,2.4a40.738,40.738,0,0,0-3.272,2.468c-.981.808-1.838,1.6-2.582,2.317-.319.307-.608.6-.878.887-.018.061-.04.122-.056.183-3.127,3.437-6.05,7.095-9.251,10.615-5.907,6.646-15.322,15.322-15.875,24.921-.369,9.23,3.876,16.614,12.552,19.752a37.651,37.651,0,0,0,10.23,1.843c2.186.135,4.379.232,6.572.254,7.205.072,14.46-.7,21.088-3.7,12.47-5.644,21.166-16.4,31.149-25.35,5.1-4.571,9.865-9.495,14.823-14.214,2.777-2.644,5.851-6.07,8.732-8.595,2.314-2.028,5.655-4.585,6.729-7.647,1.618-4.617-13.878-7.563-17.92-8.5m-9.506,21.536a4.754,4.754,0,0,0-.389-.752,7.168,7.168,0,0,0-2.312-2.187,9.342,9.342,0,0,0-4.715-1.384c-.965-.058-1.991-.121-3.073-.155-1.084-.062-2.216-.056-3.4-.06a54.01,54.01,0,0,0-7.607.862c-1.337.246-2.717.47-4.1.83l-2.1.5-2.115.622a58.907,58.907,0,0,0-8.509,3.279l-2.055,1.1a21.343,21.343,0,0,0-2.038,1.171l-2,1.281-.5.321-.477.334-.969.687a60.966,60.966,0,0,0-7.308,5.939,22.988,22.988,0,0,0-5.3,7.285,10.462,10.462,0,0,0-.158,8.171,9.217,9.217,0,0,0,2.144,3.214,10.683,10.683,0,0,0,3.024,2.019,20.534,20.534,0,0,0,3.2,1.133,14.8,14.8,0,0,0,3,.549,19.015,19.015,0,0,0,4.969-.211,12.179,12.179,0,0,0,3.066-.936,6,6,0,0,0,.746-.4l.251-.149-.247.154a6.069,6.069,0,0,1-.739.417,12.251,12.251,0,0,1-3.059,1.007,19.214,19.214,0,0,1-5,.32,15.106,15.106,0,0,1-3.06-.494,19.881,19.881,0,0,1-3.249-1.1,11,11,0,0,1-3.142-2.046,9.6,9.6,0,0,1-2.272-3.317c-.152-.314-.245-.651-.37-.979-.107-.359-.183-.674-.264-1.025a10.46,10.46,0,0,1-.2-2.165,11.638,11.638,0,0,1,.922-4.346,23.474,23.474,0,0,1,5.385-7.473,61.526,61.526,0,0,1,7.349-6.023l.976-.687.5-.346.5-.319,2-1.273a21.706,21.706,0,0,1,2.065-1.176l2.092-1.111a59.338,59.338,0,0,1,8.6-3.275l2.133-.618,2.123-.482c1.4-.346,2.786-.554,4.133-.785a54.4,54.4,0,0,1,7.657-.773c2.4,0,4.574.169,6.5.329a9.493,9.493,0,0,1,4.75,1.506,7.21,7.21,0,0,1,2.283,2.255,4.743,4.743,0,0,1,.374.762l.105.272-.111-.27" transform="translate(-197.603 -96.505)" fill="#1ba8c9"/>
        <path id="Trazado_609988" data-name="Trazado 609988" d="M334.467,238.271c-.963-2.889-2.751-6.052-5.363-7.7-2.614-1.512-5.777-.687-8.39.138-4.539,1.513-8.527,4.4-12.24,7.427a47.567,47.567,0,0,0-4.056,4.125l-.482-.137c-.118-.034-.238-.056-.356-.086-1.121-6.653-3.1-22.321-4.457-24.807-2.108-3.566-5.575-6.063-8.6-8.79-2.756-2.484-4.629-5.408-6.941-8.264-2.338-2.889-4.263-3.426-7.839-1.912-3.163,1.513-5.089,1.237-8.39-.138-3.438-1.513-6.464-1.663-9.215,1.088-3.538,3.538-5.753,8.011-9,11.768-2.168,2.509-5.244,4.676-6.4,7.9-.975,3.25-1.3,6.656-1.972,9.976-.657,3.225-1.4,6.434-1.975,9.674l.919-.441,2.091-.721A10.162,10.162,0,0,1,243.1,237l1.47-.339,1.6-.366c.556-.106,1.137-.175,1.732-.269l3.749-.54c.65-.1,1.318-.111,1.99-.172l2.043-.14,4.169-.268c2.8-.007,5.594-.019,8.214,0,.655.01,1.3-.008,1.93.024l1.844.114,3.378.209c2.091.124,3.832.28,5.049.364l1.913.16-1.921,0c-1.222-.016-2.967,0-5.058-.052l-3.375-.068-1.843-.037-1.923.027c-2.611.051-5.4.072-8.18.1l-4.144.237c-1.365.094-2.717.113-4.013.236l-3.734.41c-.593.068-1.175.113-1.73.195l-1.6.3-1.472.269a10.017,10.017,0,0,0-1.319.275l-2.118.572-.992.379c-.052.3-.112.592-.162.889a16.607,16.607,0,0,0-.168,2.856l.7-.337,2.091-.721a10.164,10.164,0,0,1,1.309-.366l1.47-.339,1.6-.366c.556-.106,1.137-.175,1.732-.269l3.749-.54c.65-.1,1.318-.111,1.99-.172l2.043-.14,4.169-.268c2.8-.007,5.594-.019,8.214,0,.655.01,1.3-.008,1.93.024l1.844.114,3.378.209c2.091.124,3.832.28,5.049.364l1.913.16-1.921,0c-1.222-.016-2.967,0-5.058-.052l-3.376-.068-1.843-.037-1.923.027c-2.611.051-5.4.072-8.18.1l-4.144.237c-1.365.094-2.717.113-4.013.236l-3.734.41c-.593.068-1.175.113-1.73.195l-1.6.3-1.472.269a10.014,10.014,0,0,0-1.319.275l-2.118.572-.759.29c0,.064,0,.127,0,.191-.036,0-.074.009-.109.009-.834.557-1.669,1.183-2.54,1.72a.648.648,0,0,0,.2.235,3.218,3.218,0,0,0,.73.462,7.808,7.808,0,0,0,1.259.479c.492.167,1.076.277,1.7.434.636.112,1.312.266,2.046.364l1.123.169,1.179.141c.8.11,1.63.174,2.474.256s1.7.156,2.562.209,1.718.144,2.567.179,1.682.106,2.49.155c1.617.073,3.127.161,4.421.238,1.3.054,2.376.137,3.133.177s1.189.088,1.189.088-.432.035-1.19.076-1.84.1-3.14.143c-.65.021-1.354.024-2.1.025s-1.531.01-2.344-.005-1.653-.043-2.506-.084-1.72-.093-2.586-.152-1.731-.138-2.582-.24c-.851-.086-1.686-.2-2.492-.332-.4-.065-.8-.12-1.187-.191l-1.129-.235c-.736-.135-1.419-.349-2.05-.513a15.149,15.149,0,0,1-1.686-.609,7.922,7.922,0,0,1-1.232-.631,2.787,2.787,0,0,1-.681-.572.809.809,0,0,1-.132-.194.267.267,0,0,1-.031-.073c-2.628-3.3-4.765-7.025-7.912-9.834-3.439-2.888-12.653-11.14-16.642-4.951-3.438,5.5.413,15.267,5.364,18.568,8.414,5.609,18.307,6.718,28.205,8.281,2.639.416,31.562,4.706,71.936-1.183,5.427-.792,12.613-3.7,16.112-8.229a10.784,10.784,0,0,0,1.612-8.771M264.1,206.837l-.075.5-.041.252-.011.063,0,.032,0,.016,0,.008c.01-.032-.015.052-.013.046l-.039.117c-.113.315-.191.628-.337.958a8.655,8.655,0,0,1-.465.979,11.775,11.775,0,0,1-1.207,1.805l-.347.42-.376.392a10.186,10.186,0,0,1-.775.747,8.989,8.989,0,0,1-.816.672c-.27.221-.56.406-.84.6a13.2,13.2,0,0,1-1.689.961,8.234,8.234,0,0,1-.819.37c-.269.108-.526.218-.784.3s-.5.172-.732.237l-.673.165c-.422.1-.8.15-1.1.21-.619.069-.971.09-.971.09l.936-.251c.292-.1.651-.195,1.048-.35s.841-.332,1.314-.551c.24-.1.479-.23.727-.36s.507-.258.76-.414.522-.3.777-.479.53-.337.784-.537a15.77,15.77,0,0,0,1.531-1.26,9.514,9.514,0,0,0,.722-.716l.348-.373.321-.4a10.925,10.925,0,0,0,1.149-1.668c.184-.285.293-.583.447-.868s.247-.622.37-.923l.038-.1v-.007l.006-.029.012-.057.047-.229c.032-.153.065-.3.1-.451.044-.3.07-.6.106-.891q.009-.441.016-.856-.02-.417-.039-.8c-.059-.516-.106-.993-.179-1.414-.057-.423-.145-.786-.2-1.09l-.19-.953s.136.327.347.908c.094.295.231.648.346,1.066a13.318,13.318,0,0,1,.353,1.419q.059.4.123.835.024.439.05.908c-.015.312-.021.636-.046.965" transform="translate(-91.746 -86.118)" fill="#42be20"/>
      </g>
    </g>
  </g>
</svg>
