<svg xmlns="http://www.w3.org/2000/svg" xmlns:xlink="http://www.w3.org/1999/xlink" width="1030" height="650" viewBox="0 0 1030 650">
  <defs>
    <linearGradient id="linear-gradient" x1="0.5" x2="0.5" y2="1" gradientUnits="objectBoundingBox">
      <stop offset="0" stop-color="#e5fbff"/>
      <stop offset="1" stop-color="#edf3fc"/>
    </linearGradient>
    <clipPath id="clip-path">
      <rect id="Rectángulo_377887" data-name="Rectángulo 377887" width="953.583" height="557.211" fill="none"/>
    </clipPath>
    <clipPath id="clip-path-2">
      <rect id="Rectángulo_377895" data-name="Rectángulo 377895" width="155.23" height="158.026" fill="#345359"/>
    </clipPath>
    <clipPath id="clip-path-3">
      <rect id="Rectángulo_377896" data-name="Rectángulo 377896" width="126.73" height="123.971" fill="#615842"/>
    </clipPath>
    <clipPath id="clip-path-4">
      <rect id="Rectángulo_377897" data-name="Rectángulo 377897" width="90.295" height="84.503" fill="#4e5662"/>
    </clipPath>
  </defs>
  <g id="Grupo_1072454" data-name="Grupo 1072454" transform="translate(-275.5 -2584.389)">
    <g id="Grupo_1072441" data-name="Grupo 1072441" transform="translate(275.5 2584.389)">
      <path id="Trazado_608309" data-name="Trazado 608309" d="M0,0H1030V650H0Z" fill="url(#linear-gradient)"/>
    </g>
    <g id="Grupo_1072446" data-name="Grupo 1072446" transform="translate(320.5 2652.396)">
      <g id="Grupo_1072444" data-name="Grupo 1072444" transform="translate(3.424)">
        <g id="Grupo_1072443" data-name="Grupo 1072443" clip-path="url(#clip-path)">
          <path id="Trazado_609989" data-name="Trazado 609989" d="M217.948,176.271a133.138,133.138,0,0,0-13.6.675L187.01,147.183l-41.72,13.567,3.576,34.226a136.278,136.278,0,0,0-22,16L95.334,197.028,69.541,232.469l23.085,25.6a134.455,134.455,0,0,0-8.4,25.842L50.5,291.134l.028,43.79,33.727,7.191a135.035,135.035,0,0,0,8.425,25.817L69.652,393.559,95.5,428.973,127.032,415a137.564,137.564,0,0,0,22,15.949l-3.522,34.249,41.748,13.518,17.259-29.791c4.494.432,9.047.649,13.622.649,4.607,0,9.13-.245,13.629-.676l17.311,29.763,41.722-13.57-3.578-34.226a138.229,138.229,0,0,0,21.972-15.975l31.585,13.925,25.767-35.442-23.057-25.6a134.654,134.654,0,0,0,8.4-25.84l33.7-7.248V290.887l-33.757-7.163a135.315,135.315,0,0,0-8.4-25.843l23-25.629-25.82-35.382-31.533,13.948a138.005,138.005,0,0,0-22.027-15.949l3.524-34.226-41.747-13.517L231.547,176.92c-4.441-.432-9-.649-13.6-.649M327.16,312.849c.049,60.124-48.778,108.919-109.036,108.968A108.9,108.9,0,1,1,327.16,312.849" transform="translate(140.109 78.498)" fill="#76becc"/>
          <path id="Trazado_609990" data-name="Trazado 609990" d="M332.234,63.653a98.839,98.839,0,0,0-10.1.5l-12.873-22.1L278.282,52.13l2.656,25.412A100.975,100.975,0,0,0,264.6,89.427L241.189,79.067l-19.154,26.317L239.177,124.4a99.947,99.947,0,0,0-6.238,19.189l-25.044,5.36.02,32.519,25.044,5.34a100.153,100.153,0,0,0,6.255,19.169L222.117,225l19.19,26.3,23.417-10.379a102.1,102.1,0,0,0,16.334,11.844l-2.614,25.431,31,10.039,12.817-22.121c3.338.321,6.719.482,10.116.482,3.421,0,6.779-.181,10.118-.5l12.854,22.1,30.981-10.075L383.672,252.7a102.6,102.6,0,0,0,16.315-11.864l23.455,10.339,19.134-26.317-17.122-19.01a99.78,99.78,0,0,0,6.235-19.188l25.027-5.383V148.762l-25.066-5.318a100.525,100.525,0,0,0-6.238-19.191l17.082-19.03L423.323,78.948,399.908,89.306a102.656,102.656,0,0,0-16.357-11.844l2.616-25.415-31-10.034L342.331,64.136c-3.3-.322-6.678-.483-10.1-.483m84.681,101.415a84.62,84.62,0,1,1-84.677-84.383,84.529,84.529,0,0,1,84.677,84.383" transform="translate(224.606 22.416)" fill="#f8e6b0"/>
          <path id="Trazado_609991" data-name="Trazado 609991" d="M353.732,226.876a60.764,60.764,0,0,0-6.266.311l-7.987-13.711-19.221,6.249,1.649,15.766a62.8,62.8,0,0,0-10.134,7.373l-14.526-6.427-11.883,16.328L296,264.559a61.956,61.956,0,0,0-3.868,11.9l-15.541,3.325.014,20.175,15.538,3.312a62.186,62.186,0,0,0,3.882,11.893l-10.607,11.805,11.9,16.315,14.529-6.439a63.269,63.269,0,0,0,10.132,7.347l-1.623,15.779,19.234,6.228,7.95-13.724c2.072.2,4.168.3,6.276.3s4.206-.112,6.278-.311l7.975,13.711,19.221-6.251-1.649-15.768a63.6,63.6,0,0,0,10.123-7.36l14.551,6.415,11.871-16.328-10.623-11.793a62.008,62.008,0,0,0,3.868-11.9l15.527-3.339V279.677l-15.551-3.3a62.424,62.424,0,0,0-3.868-11.906l10.6-11.805-11.894-16.3-14.528,6.426a63.722,63.722,0,0,0-10.148-7.347l1.624-15.766-19.234-6.228L360,227.175c-2.046-.2-4.143-.3-6.264-.3m48.1,62.92a48.059,48.059,0,1,1-48.092-47.925A48.008,48.008,0,0,1,401.829,289.8" transform="translate(261.483 113.884)" fill="#94eeff"/>
          <path id="Trazado_609992" data-name="Trazado 609992" d="M200.57,62.6a61.592,61.592,0,0,0-6.14-1.285l-4.239-15.285L170.01,47.213,167.6,62.881a62.768,62.768,0,0,0-11.677,4.565L143.5,57.55,127.856,70.336l7.286,14.1a61.942,61.942,0,0,0-6.77,10.535L112.5,94.253l-5.118,19.517,14.187,7.139a62.136,62.136,0,0,0,.728,12.486l-13.261,8.734,7.366,18.8,15.691-2.55a63.105,63.105,0,0,0,7.932,9.674L134.439,182.9l17.019,10.894,11.181-11.261q2.93,1.074,6,1.879c2.052.537,4.1.955,6.152,1.287l4.226,15.283,20.18-1.179,2.416-15.668a63.621,63.621,0,0,0,11.663-4.556l12.444,9.89,15.634-12.787-7.275-14.1a61.987,61.987,0,0,0,6.77-10.534l15.868.7,5.13-19.514-14.2-7.129a62.416,62.416,0,0,0-.715-12.5l13.252-8.735-7.358-18.78-15.686,2.536a63.667,63.667,0,0,0-7.947-9.677l5.58-14.839L217.746,53.221,206.553,64.48c-1.929-.71-3.931-1.337-5.983-1.876m30.52,73.041a48.053,48.053,0,1,1-34.328-58.534,48.068,48.068,0,0,1,34.328,58.534" transform="translate(170.645 24.562)" fill="#94eeff"/>
          <path id="Trazado_610000" data-name="Trazado 610000" d="M170.721,57.3a41.866,41.866,0,0,0-4.173-.873l-2.881-10.389-13.718.8-1.641,10.65a42.663,42.663,0,0,0-7.937,3.1l-8.44-6.726L121.3,62.552l4.952,9.584a42.1,42.1,0,0,0-4.6,7.161l-10.792-.489-3.478,13.266,9.643,4.852a42.234,42.234,0,0,0,.5,8.487L108.5,111.35l5.007,12.776,10.665-1.733a42.892,42.892,0,0,0,5.391,6.575l-3.794,10.093,11.568,7.4,7.6-7.654q1.992.73,4.075,1.277c1.395.365,2.785.649,4.182.875l2.873,10.388,13.717-.8,1.642-10.65a43.244,43.244,0,0,0,7.927-3.1l8.458,6.722,10.627-8.691-4.945-9.582a42.132,42.132,0,0,0,4.6-7.16l10.785.477,3.487-13.264-9.653-4.846a42.426,42.426,0,0,0-.486-8.494l9.007-5.937-5-12.765-10.662,1.724a43.273,43.273,0,0,0-5.4-6.577l3.793-10.086-11.568-7.4-7.608,7.653c-1.311-.483-2.672-.909-4.067-1.275m20.745,49.646a32.661,32.661,0,1,1-23.333-39.786,32.671,32.671,0,0,1,23.333,39.786" transform="translate(-21.761 240.065)" fill="#94eeff"/>
          <path id="Trazado_609993" data-name="Trazado 609993" d="M448.343,139.915a74.421,74.421,0,0,0-7.647.38l-9.748-16.734L407.49,131.19l2.012,19.243a76.543,76.543,0,0,0-12.367,9l-17.73-7.844-14.5,19.927,12.977,14.394a75.527,75.527,0,0,0-4.723,14.529L354.2,204.493l.017,24.621,18.962,4.044a75.829,75.829,0,0,0,4.737,14.515l-12.945,14.408L379.5,281.992l17.729-7.859a77.35,77.35,0,0,0,12.367,8.968l-1.981,19.257,23.472,7.6,9.7-16.749c2.528.242,5.087.365,7.66.365,2.588,0,5.133-.137,7.663-.382l9.731,16.736L489.3,302.3l-2.012-19.243a77.691,77.691,0,0,0,12.353-8.982L517.4,281.9l14.488-19.927-12.963-14.392a75.7,75.7,0,0,0,4.721-14.529l18.949-4.075V204.357l-18.98-4.027a76.17,76.17,0,0,0-4.721-14.53l12.931-14.409L517.31,151.5l-17.729,7.841a77.772,77.772,0,0,0-12.385-8.965l1.981-19.243-23.472-7.6-9.717,16.751c-2.5-.245-5.056-.367-7.644-.367m58.575,76.791a58.53,58.53,0,1,1-58.569-58.367,58.466,58.466,0,0,1,58.569,58.367" transform="translate(303.146 65.909)" fill="#c3d7f5"/>
          <line id="Línea_892" data-name="Línea 892" x1="53.531" transform="translate(832.391 222.509) rotate(-90)" fill="none" stroke="#000" stroke-miterlimit="10" stroke-width="0.25"/>
          <path id="Trazado_609994" data-name="Trazado 609994" d="M2.515,5.041A2.52,2.52,0,1,1,5.03,2.52a2.517,2.517,0,0,1-2.515,2.52" transform="translate(829.87 171.493) rotate(-90)"/>
          <path id="Trazado_609995" data-name="Trazado 609995" d="M9.2,4.611A4.6,4.6,0,1,1,4.6,0,4.605,4.605,0,0,1,9.2,4.611" transform="translate(827.679 226.761) rotate(-90)" fill="#c3d7f5"/>
          <line id="Línea_893" data-name="Línea 893" x1="34.029" transform="translate(466.259 42.643) rotate(90)" fill="none" stroke="#000" stroke-miterlimit="10" stroke-width="0.25"/>
          <path id="Trazado_609996" data-name="Trazado 609996" d="M2.515,0A2.52,2.52,0,1,1,0,2.52,2.517,2.517,0,0,1,2.515,0" transform="translate(468.779 40.127) rotate(90)"/>
          <path id="Trazado_609997" data-name="Trazado 609997" d="M9.2,4.611A4.6,4.6,0,1,1,4.6,0,4.605,4.605,0,0,1,9.2,4.611" transform="translate(470.869 72.071) rotate(90)" fill="#f8e6b0"/>
          <line id="Línea_894" data-name="Línea 894" x1="55.039" transform="translate(213.806 253.486)" fill="none" stroke="#000" stroke-miterlimit="10" stroke-width="0.25"/>
          <path id="Trazado_609998" data-name="Trazado 609998" d="M66.473,163.654a2.515,2.515,0,1,1-2.52,2.515,2.517,2.517,0,0,1,2.52-2.515" transform="translate(147.332 87.317)"/>
          <path id="Trazado_609999" data-name="Trazado 609999" d="M107.627,166.895a4.611,4.611,0,1,1-4.611-4.6,4.605,4.605,0,0,1,4.611,4.6" transform="translate(165.828 86.591)" fill="#8ebdca"/>
        </g>
      </g>
      <rect id="Rectángulo_347091" data-name="Rectángulo 347091" width="215" height="37" rx="9" transform="translate(0 235.562)" fill="#76becc"/>
      <rect id="Rectángulo_377888" data-name="Rectángulo 377888" width="215" height="37" rx="9" transform="translate(359.5 3)" fill="#ffe7af"/>
      <rect id="Rectángulo_377889" data-name="Rectángulo 377889" width="215" height="37" rx="9" transform="translate(727.5 128.704)" fill="#c3d7f5"/>
      <path id="Trazado_610527" data-name="Trazado 610527" d="M3.445,16H1.353V3.914H3.445Zm2.009-4.557A5.34,5.34,0,0,1,6.417,8.11,3.085,3.085,0,0,1,9,6.853a2.931,2.931,0,0,1,2.308,1V3.25h2.017V16H11.5l-.1-.93a2.973,2.973,0,0,1-2.416,1.1A3.068,3.068,0,0,1,6.429,14.9,5.535,5.535,0,0,1,5.454,11.443Zm2.017.174A3.739,3.739,0,0,0,8,13.755a1.71,1.71,0,0,0,1.5.768,1.9,1.9,0,0,0,1.81-1.1V9.583A1.876,1.876,0,0,0,9.513,8.5,1.723,1.723,0,0,0,8,9.281,4.163,4.163,0,0,0,7.471,11.617Zm11.912,4.549a4.173,4.173,0,0,1-3.109-1.208,4.381,4.381,0,0,1-1.191-3.217v-.249a5.389,5.389,0,0,1,.519-2.4,3.949,3.949,0,0,1,1.457-1.648,3.851,3.851,0,0,1,2.092-.589,3.525,3.525,0,0,1,2.835,1.17,4.949,4.949,0,0,1,1,3.312v.813H17.116a2.7,2.7,0,0,0,.743,1.76,2.23,2.23,0,0,0,1.639.647,2.731,2.731,0,0,0,2.258-1.121l1.087,1.038a3.631,3.631,0,0,1-1.44,1.249A4.509,4.509,0,0,1,19.382,16.166Zm-.241-7.695a1.7,1.7,0,0,0-1.341.581,3.012,3.012,0,0,0-.652,1.619h3.843v-.149a2.452,2.452,0,0,0-.54-1.531A1.686,1.686,0,0,0,19.142,8.471ZM29.916,16a3.113,3.113,0,0,1-.232-.838,3.393,3.393,0,0,1-4.565.232,2.47,2.47,0,0,1-.855-1.909,2.55,2.55,0,0,1,1.067-2.2,5.169,5.169,0,0,1,3.051-.768h1.237V9.924a1.573,1.573,0,0,0-.39-1.116,1.547,1.547,0,0,0-1.187-.419,1.777,1.777,0,0,0-1.129.344,1.066,1.066,0,0,0-.44.876H24.454a2.239,2.239,0,0,1,.49-1.382,3.263,3.263,0,0,1,1.332-1.009,4.68,4.68,0,0,1,1.88-.365,3.769,3.769,0,0,1,2.515.793,2.827,2.827,0,0,1,.963,2.229v4.051a4.591,4.591,0,0,0,.34,1.934V16ZM27.7,14.547a2.294,2.294,0,0,0,1.125-.291,1.941,1.941,0,0,0,.793-.78V11.783H28.53a2.973,2.973,0,0,0-1.685.39,1.264,1.264,0,0,0-.564,1.1,1.179,1.179,0,0,0,.386.926A1.5,1.5,0,0,0,27.7,14.547Zm11.082-.988a.914.914,0,0,0-.444-.822,4.723,4.723,0,0,0-1.473-.5,7.574,7.574,0,0,1-1.718-.548,2.293,2.293,0,0,1-1.511-2.117,2.391,2.391,0,0,1,.979-1.942,3.872,3.872,0,0,1,2.49-.78,4.029,4.029,0,0,1,2.6.8A2.529,2.529,0,0,1,40.7,9.716H38.682a1.243,1.243,0,0,0-.432-.967A1.654,1.654,0,0,0,37.1,8.363a1.787,1.787,0,0,0-1.083.307.968.968,0,0,0-.419.822.818.818,0,0,0,.39.722,5.365,5.365,0,0,0,1.577.519,7.466,7.466,0,0,1,1.864.623,2.639,2.639,0,0,1,1,.867,2.212,2.212,0,0,1,.328,1.229,2.34,2.34,0,0,1-1,1.963,4.283,4.283,0,0,1-2.631.751,4.644,4.644,0,0,1-1.967-.4,3.238,3.238,0,0,1-1.345-1.1,2.594,2.594,0,0,1-.481-1.5h1.959a1.421,1.421,0,0,0,.54,1.1,2.1,2.1,0,0,0,1.32.386,2.04,2.04,0,0,0,1.212-.3A.938.938,0,0,0,38.781,13.56Zm11.663,1a1.824,1.824,0,0,0,1.253-.44,1.5,1.5,0,0,0,.531-1.087h1.9a2.963,2.963,0,0,1-.523,1.565,3.43,3.43,0,0,1-1.328,1.15,3.958,3.958,0,0,1-1.81.423,3.829,3.829,0,0,1-2.988-1.22,4.84,4.84,0,0,1-1.1-3.37v-.208a4.759,4.759,0,0,1,1.1-3.283A3.8,3.8,0,0,1,50.46,6.853a3.69,3.69,0,0,1,2.611.934,3.345,3.345,0,0,1,1.058,2.453h-1.9a1.847,1.847,0,0,0-.527-1.27,1.7,1.7,0,0,0-1.258-.5,1.775,1.775,0,0,0-1.511.71,3.621,3.621,0,0,0-.54,2.154v.324a3.682,3.682,0,0,0,.527,2.179A1.773,1.773,0,0,0,50.444,14.556Zm4.831-3.129A5.3,5.3,0,0,1,55.8,9.048a3.819,3.819,0,0,1,1.469-1.627,4.14,4.14,0,0,1,2.175-.569,3.923,3.923,0,0,1,2.951,1.17,4.6,4.6,0,0,1,1.224,3.1l.008.473a5.343,5.343,0,0,1-.51,2.374,3.773,3.773,0,0,1-1.461,1.619,4.17,4.17,0,0,1-2.2.573A3.9,3.9,0,0,1,56.416,14.9a4.848,4.848,0,0,1-1.141-3.374Zm2.017.174a3.619,3.619,0,0,0,.573,2.171,1.862,1.862,0,0,0,1.594.784,1.842,1.842,0,0,0,1.59-.8,4,4,0,0,0,.569-2.333,3.572,3.572,0,0,0-.585-2.158,1.973,1.973,0,0,0-3.158-.012A3.922,3.922,0,0,0,57.292,11.6Zm9.936-4.582.058.938a3.232,3.232,0,0,1,2.59-1.1A2.483,2.483,0,0,1,72.341,8.23,3.186,3.186,0,0,1,75.1,6.853a2.8,2.8,0,0,1,2.212.822,3.618,3.618,0,0,1,.743,2.424V16H76.035V10.156A1.786,1.786,0,0,0,75.662,8.9a1.635,1.635,0,0,0-1.237-.4,1.679,1.679,0,0,0-1.125.369,1.948,1.948,0,0,0-.61.967L72.7,16H70.681V10.09A1.439,1.439,0,0,0,69.063,8.5a1.776,1.776,0,0,0-1.718.988V16H65.327V7.019ZM87.988,11.6a5.348,5.348,0,0,1-.946,3.324,3.287,3.287,0,0,1-4.906.27v4.258H80.119V7.019h1.859l.083.913a2.963,2.963,0,0,1,2.416-1.079,3.062,3.062,0,0,1,2.577,1.224,5.49,5.49,0,0,1,.934,3.4Zm-2.009-.174a3.746,3.746,0,0,0-.535-2.133A1.741,1.741,0,0,0,83.913,8.5a1.856,1.856,0,0,0-1.776,1.021V13.51a1.873,1.873,0,0,0,1.793,1.046,1.739,1.739,0,0,0,1.507-.776A4.124,4.124,0,0,0,85.979,11.426ZM91.84,16H89.823V3.25H91.84Zm6.151.166a4.173,4.173,0,0,1-3.109-1.208,4.381,4.381,0,0,1-1.191-3.217v-.249a5.389,5.389,0,0,1,.519-2.4,3.949,3.949,0,0,1,1.457-1.648,3.851,3.851,0,0,1,2.092-.589,3.525,3.525,0,0,1,2.835,1.17,4.949,4.949,0,0,1,1,3.312v.813H95.725a2.7,2.7,0,0,0,.743,1.76,2.23,2.23,0,0,0,1.639.647,2.731,2.731,0,0,0,2.258-1.121l1.087,1.038a3.631,3.631,0,0,1-1.44,1.249A4.509,4.509,0,0,1,97.991,16.166ZM97.75,8.471a1.7,1.7,0,0,0-1.341.581,3.012,3.012,0,0,0-.652,1.619H99.6v-.149a2.452,2.452,0,0,0-.54-1.531A1.686,1.686,0,0,0,97.75,8.471Zm7.512-1.453V16.8a2.955,2.955,0,0,1-.685,2.1,2.625,2.625,0,0,1-2,.726,4.031,4.031,0,0,1-1.071-.141V17.893a3.108,3.108,0,0,0,.714.075q1,0,1.029-1.1V7.019Zm-2.191-2.333a1.071,1.071,0,0,1,.295-.772,1.113,1.113,0,0,1,.843-.307,1.127,1.127,0,0,1,.847.307,1.062,1.062,0,0,1,.3.772,1.038,1.038,0,0,1-.3.76,1.136,1.136,0,0,1-.847.3,1.122,1.122,0,0,1-.843-.3A1.046,1.046,0,0,1,103.071,4.686ZM112.783,16a3.113,3.113,0,0,1-.232-.838,3.393,3.393,0,0,1-4.565.232,2.47,2.47,0,0,1-.855-1.909,2.55,2.55,0,0,1,1.067-2.2,5.169,5.169,0,0,1,3.051-.768h1.237V9.924a1.573,1.573,0,0,0-.39-1.116,1.547,1.547,0,0,0-1.187-.419,1.777,1.777,0,0,0-1.129.344,1.066,1.066,0,0,0-.44.876h-2.017a2.239,2.239,0,0,1,.49-1.382,3.263,3.263,0,0,1,1.332-1.009,4.68,4.68,0,0,1,1.88-.365,3.769,3.769,0,0,1,2.515.793,2.827,2.827,0,0,1,.963,2.229v4.051a4.591,4.591,0,0,0,.34,1.934V16Zm-2.216-1.453a2.294,2.294,0,0,0,1.125-.291,1.941,1.941,0,0,0,.793-.78V11.783H111.4a2.973,2.973,0,0,0-1.685.39,1.264,1.264,0,0,0-.564,1.1,1.179,1.179,0,0,0,.386.926A1.5,1.5,0,0,0,110.566,14.547Zm11.082-.988a.914.914,0,0,0-.444-.822,4.723,4.723,0,0,0-1.473-.5,7.574,7.574,0,0,1-1.718-.548A2.293,2.293,0,0,1,116.5,9.575a2.391,2.391,0,0,1,.979-1.942,3.872,3.872,0,0,1,2.49-.78,4.029,4.029,0,0,1,2.6.8,2.529,2.529,0,0,1,.992,2.067h-2.017a1.243,1.243,0,0,0-.432-.967,1.654,1.654,0,0,0-1.146-.386,1.787,1.787,0,0,0-1.083.307.968.968,0,0,0-.419.822.818.818,0,0,0,.39.722,5.365,5.365,0,0,0,1.577.519,7.466,7.466,0,0,1,1.864.623,2.639,2.639,0,0,1,1,.867,2.212,2.212,0,0,1,.328,1.229,2.34,2.34,0,0,1-1,1.963,4.283,4.283,0,0,1-2.631.751,4.644,4.644,0,0,1-1.967-.4,3.238,3.238,0,0,1-1.345-1.1,2.594,2.594,0,0,1-.481-1.5h1.959a1.421,1.421,0,0,0,.54,1.1,2.1,2.1,0,0,0,1.32.386,2.04,2.04,0,0,0,1.212-.3A.938.938,0,0,0,121.648,13.56Z" transform="translate(41 244.06)" fill="#12263f"/>
      <path id="Trazado_610528" data-name="Trazado 610528" d="M1.229,16V3.914H4.8a5.6,5.6,0,0,1,2.843.714A4.868,4.868,0,0,1,9.563,6.653a6.429,6.429,0,0,1,.681,3v.606a6.4,6.4,0,0,1-.685,3.021,4.809,4.809,0,0,1-1.951,2.009,5.858,5.858,0,0,1-2.9.706Zm2.1-10.393v8.716H4.7A3.154,3.154,0,0,0,7.234,13.29a4.5,4.5,0,0,0,.9-2.968V9.65a4.619,4.619,0,0,0-.855-3A3.031,3.031,0,0,0,4.8,5.607ZM16.1,16.166a4.173,4.173,0,0,1-3.109-1.208A4.381,4.381,0,0,1,11.8,11.742v-.249a5.389,5.389,0,0,1,.519-2.4,3.949,3.949,0,0,1,1.457-1.648,3.851,3.851,0,0,1,2.092-.589A3.525,3.525,0,0,1,18.7,8.023a4.949,4.949,0,0,1,1,3.312v.813H13.829a2.7,2.7,0,0,0,.743,1.76,2.23,2.23,0,0,0,1.639.647,2.731,2.731,0,0,0,2.258-1.121l1.087,1.038a3.631,3.631,0,0,1-1.44,1.249A4.509,4.509,0,0,1,16.1,16.166Zm-.241-7.695a1.7,1.7,0,0,0-1.341.581,3.012,3.012,0,0,0-.652,1.619h3.843v-.149a2.452,2.452,0,0,0-.54-1.531A1.686,1.686,0,0,0,15.854,8.471Zm9.1,6.084a1.824,1.824,0,0,0,1.253-.44,1.5,1.5,0,0,0,.531-1.087h1.9a2.963,2.963,0,0,1-.523,1.565,3.43,3.43,0,0,1-1.328,1.15,3.958,3.958,0,0,1-1.81.423,3.829,3.829,0,0,1-2.988-1.22,4.84,4.84,0,0,1-1.1-3.37v-.208a4.759,4.759,0,0,1,1.1-3.283,3.8,3.8,0,0,1,2.988-1.233,3.69,3.69,0,0,1,2.611.934,3.345,3.345,0,0,1,1.058,2.453h-1.9a1.847,1.847,0,0,0-.527-1.27,1.7,1.7,0,0,0-1.258-.5,1.775,1.775,0,0,0-1.511.71,3.621,3.621,0,0,0-.54,2.154v.324a3.682,3.682,0,0,0,.527,2.179A1.773,1.773,0,0,0,24.952,14.556ZM32.307,16H30.29V7.019h2.017ZM30.165,4.686a1.071,1.071,0,0,1,.295-.772,1.113,1.113,0,0,1,.843-.307,1.127,1.127,0,0,1,.847.307,1.062,1.062,0,0,1,.3.772,1.038,1.038,0,0,1-.3.76,1.136,1.136,0,0,1-.847.3,1.122,1.122,0,0,1-.843-.3A1.046,1.046,0,0,1,30.165,4.686Zm9.372,8.874a.914.914,0,0,0-.444-.822,4.723,4.723,0,0,0-1.473-.5,7.574,7.574,0,0,1-1.718-.548A2.293,2.293,0,0,1,34.39,9.575a2.391,2.391,0,0,1,.979-1.942,3.872,3.872,0,0,1,2.49-.78,4.029,4.029,0,0,1,2.6.8,2.529,2.529,0,0,1,.992,2.067H39.437a1.243,1.243,0,0,0-.432-.967,1.654,1.654,0,0,0-1.146-.386,1.787,1.787,0,0,0-1.083.307.968.968,0,0,0-.419.822.818.818,0,0,0,.39.722,5.365,5.365,0,0,0,1.577.519,7.466,7.466,0,0,1,1.864.623,2.639,2.639,0,0,1,1,.867,2.212,2.212,0,0,1,.328,1.229,2.34,2.34,0,0,1-1,1.963,4.283,4.283,0,0,1-2.631.751,4.644,4.644,0,0,1-1.967-.4,3.238,3.238,0,0,1-1.345-1.1,2.594,2.594,0,0,1-.481-1.5H36.05a1.421,1.421,0,0,0,.54,1.1,2.1,2.1,0,0,0,1.32.386,2.04,2.04,0,0,0,1.212-.3A.938.938,0,0,0,39.537,13.56ZM45.422,16H43.4V7.019h2.017ZM43.28,4.686a1.071,1.071,0,0,1,.295-.772,1.113,1.113,0,0,1,.843-.307,1.127,1.127,0,0,1,.847.307,1.062,1.062,0,0,1,.3.772,1.038,1.038,0,0,1-.3.76,1.136,1.136,0,0,1-.847.3,1.122,1.122,0,0,1-.843-.3A1.046,1.046,0,0,1,43.28,4.686Zm3.959,6.74a5.3,5.3,0,0,1,.523-2.378,3.819,3.819,0,0,1,1.469-1.627,4.14,4.14,0,0,1,2.175-.569,3.923,3.923,0,0,1,2.951,1.17,4.6,4.6,0,0,1,1.224,3.1l.008.473a5.343,5.343,0,0,1-.51,2.374,3.773,3.773,0,0,1-1.461,1.619,4.17,4.17,0,0,1-2.2.573A3.9,3.9,0,0,1,48.381,14.9a4.848,4.848,0,0,1-1.141-3.374Zm2.017.174a3.619,3.619,0,0,0,.573,2.171,1.862,1.862,0,0,0,1.594.784,1.842,1.842,0,0,0,1.59-.8,4,4,0,0,0,.569-2.333A3.572,3.572,0,0,0,53,9.268a1.973,1.973,0,0,0-3.158-.012A3.922,3.922,0,0,0,49.257,11.6Zm9.911-4.582.058,1.038a3.229,3.229,0,0,1,2.615-1.2q2.806,0,2.855,3.212V16H62.679V10.181a1.85,1.85,0,0,0-.369-1.266A1.554,1.554,0,0,0,61.1,8.5a1.944,1.944,0,0,0-1.818,1.1V16H57.267V7.019Zm11.538,9.147A4.173,4.173,0,0,1,67.6,14.958a4.381,4.381,0,0,1-1.191-3.217v-.249a5.389,5.389,0,0,1,.519-2.4,3.949,3.949,0,0,1,1.457-1.648,3.851,3.851,0,0,1,2.092-.589,3.525,3.525,0,0,1,2.835,1.17,4.949,4.949,0,0,1,1,3.312v.813H68.44a2.7,2.7,0,0,0,.743,1.76,2.23,2.23,0,0,0,1.639.647,2.731,2.731,0,0,0,2.258-1.121l1.087,1.038a3.631,3.631,0,0,1-1.44,1.249A4.509,4.509,0,0,1,70.706,16.166Zm-.241-7.695a1.7,1.7,0,0,0-1.341.581,3.012,3.012,0,0,0-.652,1.619h3.843v-.149a2.452,2.452,0,0,0-.54-1.531A1.686,1.686,0,0,0,70.465,8.471ZM80.908,13.56a.914.914,0,0,0-.444-.822,4.723,4.723,0,0,0-1.473-.5,7.574,7.574,0,0,1-1.718-.548,2.293,2.293,0,0,1-1.511-2.117,2.391,2.391,0,0,1,.979-1.942,3.872,3.872,0,0,1,2.49-.78,4.029,4.029,0,0,1,2.6.8,2.529,2.529,0,0,1,.992,2.067H80.808a1.243,1.243,0,0,0-.432-.967,1.654,1.654,0,0,0-1.146-.386,1.787,1.787,0,0,0-1.083.307.968.968,0,0,0-.419.822.818.818,0,0,0,.39.722,5.365,5.365,0,0,0,1.577.519,7.466,7.466,0,0,1,1.864.623,2.639,2.639,0,0,1,1,.867,2.212,2.212,0,0,1,.328,1.229,2.34,2.34,0,0,1-1,1.963,4.283,4.283,0,0,1-2.631.751,4.644,4.644,0,0,1-1.967-.4,3.238,3.238,0,0,1-1.345-1.1,2.594,2.594,0,0,1-.481-1.5h1.959a1.421,1.421,0,0,0,.54,1.1,2.1,2.1,0,0,0,1.32.386,2.04,2.04,0,0,0,1.212-.3A.938.938,0,0,0,80.908,13.56Zm11.663,1a1.824,1.824,0,0,0,1.253-.44,1.5,1.5,0,0,0,.531-1.087h1.9a2.963,2.963,0,0,1-.523,1.565,3.43,3.43,0,0,1-1.328,1.15,3.958,3.958,0,0,1-1.81.423,3.829,3.829,0,0,1-2.988-1.22,4.84,4.84,0,0,1-1.1-3.37v-.208a4.759,4.759,0,0,1,1.1-3.283,3.8,3.8,0,0,1,2.988-1.233,3.69,3.69,0,0,1,2.611.934,3.345,3.345,0,0,1,1.058,2.453h-1.9a1.847,1.847,0,0,0-.527-1.27,1.7,1.7,0,0,0-1.258-.5,1.775,1.775,0,0,0-1.511.71,3.621,3.621,0,0,0-.54,2.154v.324a3.681,3.681,0,0,0,.527,2.179A1.773,1.773,0,0,0,92.57,14.556ZM97.4,11.426a5.3,5.3,0,0,1,.523-2.378,3.819,3.819,0,0,1,1.469-1.627,4.14,4.14,0,0,1,2.175-.569,3.923,3.923,0,0,1,2.951,1.17,4.6,4.6,0,0,1,1.224,3.1l.008.473a5.343,5.343,0,0,1-.51,2.374,3.773,3.773,0,0,1-1.461,1.619,4.17,4.17,0,0,1-2.2.573A3.9,3.9,0,0,1,98.543,14.9,4.848,4.848,0,0,1,97.4,11.526Zm2.017.174a3.619,3.619,0,0,0,.573,2.171,1.862,1.862,0,0,0,1.594.784,1.842,1.842,0,0,0,1.59-.8,4,4,0,0,0,.569-2.333,3.572,3.572,0,0,0-.585-2.158A1.973,1.973,0,0,0,100,9.256,3.922,3.922,0,0,0,99.418,11.6Zm9.911-4.582.058,1.038A3.229,3.229,0,0,1,112,6.853q2.806,0,2.855,3.212V16h-2.017V10.181a1.85,1.85,0,0,0-.369-1.266,1.554,1.554,0,0,0-1.208-.411,1.944,1.944,0,0,0-1.818,1.1V16h-2.017V7.019ZM120.6,14.556a1.824,1.824,0,0,0,1.253-.44,1.5,1.5,0,0,0,.531-1.087h1.9a2.963,2.963,0,0,1-.523,1.565,3.43,3.43,0,0,1-1.328,1.15,3.958,3.958,0,0,1-1.81.423,3.829,3.829,0,0,1-2.988-1.22,4.84,4.84,0,0,1-1.1-3.37v-.208a4.759,4.759,0,0,1,1.1-3.283,3.8,3.8,0,0,1,2.988-1.233,3.69,3.69,0,0,1,2.611.934,3.345,3.345,0,0,1,1.058,2.453h-1.9a1.847,1.847,0,0,0-.527-1.27,1.7,1.7,0,0,0-1.258-.5,1.775,1.775,0,0,0-1.511.71,3.621,3.621,0,0,0-.54,2.154v.324a3.681,3.681,0,0,0,.527,2.179A1.773,1.773,0,0,0,120.6,14.556Zm9.911-5.694a4.991,4.991,0,0,0-.822-.066,1.85,1.85,0,0,0-1.868,1.063V16h-2.017V7.019h1.926l.05,1a2.273,2.273,0,0,1,2.025-1.17,1.888,1.888,0,0,1,.714.116Zm5.072,7.3a4.173,4.173,0,0,1-3.109-1.208,4.381,4.381,0,0,1-1.191-3.217v-.249a5.389,5.389,0,0,1,.519-2.4,3.949,3.949,0,0,1,1.457-1.648,3.851,3.851,0,0,1,2.092-.589,3.525,3.525,0,0,1,2.835,1.17,4.949,4.949,0,0,1,1,3.312v.813h-5.869a2.7,2.7,0,0,0,.743,1.76,2.23,2.23,0,0,0,1.639.647,2.731,2.731,0,0,0,2.258-1.121l1.087,1.038a3.631,3.631,0,0,1-1.44,1.249A4.509,4.509,0,0,1,135.585,16.166Zm-.241-7.695A1.7,1.7,0,0,0,134,9.052a3.012,3.012,0,0,0-.652,1.619H137.2v-.149a2.452,2.452,0,0,0-.54-1.531A1.686,1.686,0,0,0,135.344,8.471Zm7.936-3.636V7.019h1.585V8.513H143.28v5.014a1.1,1.1,0,0,0,.2.743.943.943,0,0,0,.726.228,3.107,3.107,0,0,0,.706-.083v1.561a4.968,4.968,0,0,1-1.328.191q-2.324,0-2.324-2.565V8.513h-1.478V7.019h1.478V4.835ZM151.771,16a3.113,3.113,0,0,1-.232-.838,3.393,3.393,0,0,1-4.565.232,2.47,2.47,0,0,1-.855-1.909,2.55,2.55,0,0,1,1.067-2.2,5.169,5.169,0,0,1,3.051-.768h1.237V9.924a1.573,1.573,0,0,0-.39-1.116,1.547,1.547,0,0,0-1.187-.419,1.777,1.777,0,0,0-1.129.344,1.066,1.066,0,0,0-.44.876H146.31a2.239,2.239,0,0,1,.49-1.382,3.263,3.263,0,0,1,1.332-1.009,4.68,4.68,0,0,1,1.88-.365,3.769,3.769,0,0,1,2.515.793,2.827,2.827,0,0,1,.963,2.229v4.051a4.591,4.591,0,0,0,.34,1.934V16Zm-2.216-1.453a2.294,2.294,0,0,0,1.125-.291,1.941,1.941,0,0,0,.793-.78V11.783h-1.087a2.973,2.973,0,0,0-1.685.39,1.264,1.264,0,0,0-.564,1.1,1.179,1.179,0,0,0,.386.926A1.5,1.5,0,0,0,149.555,14.547Zm11.082-.988a.914.914,0,0,0-.444-.822,4.723,4.723,0,0,0-1.473-.5A7.574,7.574,0,0,1,157,11.692a2.293,2.293,0,0,1-1.511-2.117,2.391,2.391,0,0,1,.979-1.942,3.872,3.872,0,0,1,2.49-.78,4.029,4.029,0,0,1,2.6.8,2.529,2.529,0,0,1,.992,2.067h-2.017a1.243,1.243,0,0,0-.432-.967,1.654,1.654,0,0,0-1.146-.386,1.787,1.787,0,0,0-1.083.307.968.968,0,0,0-.419.822.818.818,0,0,0,.39.722,5.365,5.365,0,0,0,1.577.519,7.466,7.466,0,0,1,1.864.623,2.639,2.639,0,0,1,1,.867,2.212,2.212,0,0,1,.328,1.229,2.34,2.34,0,0,1-1,1.963,4.283,4.283,0,0,1-2.631.751,4.644,4.644,0,0,1-1.967-.4,3.238,3.238,0,0,1-1.345-1.1,2.594,2.594,0,0,1-.481-1.5h1.959a1.421,1.421,0,0,0,.54,1.1,2.1,2.1,0,0,0,1.32.386,2.04,2.04,0,0,0,1.212-.3A.938.938,0,0,0,160.637,13.56Z" transform="translate(384.5 11.5)" fill="#12263f"/>
      <path id="Trazado_610529" data-name="Trazado 610529" d="M7.994,13.186H3.312L2.333,16H.149L4.715,3.914H6.6L11.173,16H8.981ZM3.9,11.493H7.4L5.653,6.479Zm12.136,3.063a1.824,1.824,0,0,0,1.253-.44,1.5,1.5,0,0,0,.531-1.087h1.9a2.963,2.963,0,0,1-.523,1.565,3.43,3.43,0,0,1-1.328,1.15,3.958,3.958,0,0,1-1.81.423,3.829,3.829,0,0,1-2.988-1.22,4.84,4.84,0,0,1-1.1-3.37v-.208a4.759,4.759,0,0,1,1.1-3.283,3.8,3.8,0,0,1,2.988-1.233,3.69,3.69,0,0,1,2.611.934,3.345,3.345,0,0,1,1.058,2.453h-1.9a1.847,1.847,0,0,0-.527-1.27,1.7,1.7,0,0,0-1.258-.5,1.775,1.775,0,0,0-1.511.71,3.621,3.621,0,0,0-.54,2.154v.324a3.682,3.682,0,0,0,.527,2.179A1.773,1.773,0,0,0,16.037,14.556Zm7.736-9.72V7.019h1.585V8.513H23.773v5.014a1.1,1.1,0,0,0,.2.743.943.943,0,0,0,.726.228,3.107,3.107,0,0,0,.706-.083v1.561a4.968,4.968,0,0,1-1.328.191q-2.324,0-2.324-2.565V8.513H20.279V7.019h1.478V4.835ZM32.34,15.12a3.128,3.128,0,0,1-2.523,1.046,2.788,2.788,0,0,1-2.212-.855,3.637,3.637,0,0,1-.751-2.474V7.019H28.87v5.794q0,1.71,1.419,1.71a1.993,1.993,0,0,0,1.984-1.054V7.019h2.017V16h-1.9Zm9.372.88a3.113,3.113,0,0,1-.232-.838,3.393,3.393,0,0,1-4.565.232,2.47,2.47,0,0,1-.855-1.909,2.55,2.55,0,0,1,1.067-2.2,5.169,5.169,0,0,1,3.051-.768h1.237V9.924a1.573,1.573,0,0,0-.39-1.116,1.547,1.547,0,0,0-1.187-.419,1.777,1.777,0,0,0-1.129.344,1.066,1.066,0,0,0-.44.876H36.25a2.239,2.239,0,0,1,.49-1.382,3.263,3.263,0,0,1,1.332-1.009,4.68,4.68,0,0,1,1.88-.365,3.769,3.769,0,0,1,2.515.793,2.827,2.827,0,0,1,.963,2.229v4.051a4.591,4.591,0,0,0,.34,1.934V16ZM39.5,14.547a2.294,2.294,0,0,0,1.125-.291,1.941,1.941,0,0,0,.793-.78V11.783H40.325a2.973,2.973,0,0,0-1.685.39,1.264,1.264,0,0,0-.564,1.1,1.179,1.179,0,0,0,.386.926A1.5,1.5,0,0,0,39.5,14.547Zm9.737.008a1.824,1.824,0,0,0,1.253-.44,1.5,1.5,0,0,0,.531-1.087h1.9a2.963,2.963,0,0,1-.523,1.565,3.43,3.43,0,0,1-1.328,1.15,3.958,3.958,0,0,1-1.81.423,3.829,3.829,0,0,1-2.988-1.22,4.84,4.84,0,0,1-1.1-3.37v-.208a4.759,4.759,0,0,1,1.1-3.283,3.8,3.8,0,0,1,2.988-1.233,3.69,3.69,0,0,1,2.611.934,3.345,3.345,0,0,1,1.058,2.453h-1.9a1.847,1.847,0,0,0-.527-1.27,1.7,1.7,0,0,0-1.258-.5,1.775,1.775,0,0,0-1.511.71,3.621,3.621,0,0,0-.54,2.154v.324a3.682,3.682,0,0,0,.527,2.179A1.773,1.773,0,0,0,49.232,14.556ZM56.586,16H54.569V7.019h2.017ZM54.445,4.686a1.071,1.071,0,0,1,.295-.772,1.113,1.113,0,0,1,.843-.307,1.127,1.127,0,0,1,.847.307,1.062,1.062,0,0,1,.3.772,1.038,1.038,0,0,1-.3.76,1.136,1.136,0,0,1-.847.3,1.122,1.122,0,0,1-.843-.3A1.046,1.046,0,0,1,54.445,4.686Zm3.959,6.74a5.3,5.3,0,0,1,.523-2.378A3.819,3.819,0,0,1,60.4,7.421a4.14,4.14,0,0,1,2.175-.569,3.923,3.923,0,0,1,2.951,1.17,4.6,4.6,0,0,1,1.224,3.1l.008.473a5.343,5.343,0,0,1-.51,2.374,3.773,3.773,0,0,1-1.461,1.619,4.17,4.17,0,0,1-2.2.573A3.9,3.9,0,0,1,59.546,14.9,4.848,4.848,0,0,1,58.4,11.526Zm2.017.174a3.619,3.619,0,0,0,.573,2.171,1.862,1.862,0,0,0,1.594.784,1.842,1.842,0,0,0,1.59-.8,4,4,0,0,0,.569-2.333,3.572,3.572,0,0,0-.585-2.158A1.973,1.973,0,0,0,61,9.256,3.922,3.922,0,0,0,60.421,11.6Zm9.911-4.582.058,1.038a3.229,3.229,0,0,1,2.615-1.2q2.806,0,2.855,3.212V16H73.844V10.181a1.85,1.85,0,0,0-.369-1.266A1.554,1.554,0,0,0,72.267,8.5a1.944,1.944,0,0,0-1.818,1.1V16H68.432V7.019Zm11.538,9.147a4.173,4.173,0,0,1-3.109-1.208,4.381,4.381,0,0,1-1.191-3.217v-.249a5.389,5.389,0,0,1,.519-2.4,3.949,3.949,0,0,1,1.457-1.648,3.851,3.851,0,0,1,2.092-.589,3.525,3.525,0,0,1,2.835,1.17,4.949,4.949,0,0,1,1,3.312v.813H79.6a2.7,2.7,0,0,0,.743,1.76,2.23,2.23,0,0,0,1.639.647,2.731,2.731,0,0,0,2.258-1.121l1.087,1.038a3.631,3.631,0,0,1-1.44,1.249A4.509,4.509,0,0,1,81.871,16.166ZM81.63,8.471a1.7,1.7,0,0,0-1.341.581,3.012,3.012,0,0,0-.652,1.619h3.843v-.149a2.452,2.452,0,0,0-.54-1.531A1.686,1.686,0,0,0,81.63,8.471ZM92.072,13.56a.914.914,0,0,0-.444-.822,4.723,4.723,0,0,0-1.473-.5,7.574,7.574,0,0,1-1.718-.548,2.293,2.293,0,0,1-1.511-2.117,2.391,2.391,0,0,1,.979-1.942,3.872,3.872,0,0,1,2.49-.78,4.029,4.029,0,0,1,2.6.8,2.529,2.529,0,0,1,.992,2.067H91.973a1.243,1.243,0,0,0-.432-.967A1.654,1.654,0,0,0,90.4,8.363a1.787,1.787,0,0,0-1.083.307.968.968,0,0,0-.419.822.818.818,0,0,0,.39.722,5.365,5.365,0,0,0,1.577.519,7.466,7.466,0,0,1,1.864.623,2.639,2.639,0,0,1,1,.867,2.212,2.212,0,0,1,.328,1.229,2.34,2.34,0,0,1-1,1.963,4.283,4.283,0,0,1-2.631.751,4.644,4.644,0,0,1-1.967-.4,3.238,3.238,0,0,1-1.345-1.1,2.594,2.594,0,0,1-.481-1.5h1.959a1.421,1.421,0,0,0,.54,1.1,2.1,2.1,0,0,0,1.32.386,2.04,2.04,0,0,0,1.212-.3A.938.938,0,0,0,92.072,13.56Zm13.007,0a.914.914,0,0,0-.444-.822,4.723,4.723,0,0,0-1.473-.5,7.574,7.574,0,0,1-1.718-.548,2.293,2.293,0,0,1-1.511-2.117,2.391,2.391,0,0,1,.979-1.942,3.872,3.872,0,0,1,2.49-.78,4.029,4.029,0,0,1,2.6.8A2.529,2.529,0,0,1,107,9.716H104.98a1.243,1.243,0,0,0-.432-.967,1.654,1.654,0,0,0-1.146-.386,1.787,1.787,0,0,0-1.083.307.968.968,0,0,0-.419.822.818.818,0,0,0,.39.722,5.365,5.365,0,0,0,1.577.519,7.466,7.466,0,0,1,1.864.623,2.639,2.639,0,0,1,1,.867,2.212,2.212,0,0,1,.328,1.229,2.34,2.34,0,0,1-1,1.963,4.283,4.283,0,0,1-2.631.751,4.644,4.644,0,0,1-1.967-.4,3.238,3.238,0,0,1-1.345-1.1,2.594,2.594,0,0,1-.481-1.5h1.959a1.421,1.421,0,0,0,.54,1.1,2.1,2.1,0,0,0,1.32.386,2.04,2.04,0,0,0,1.212-.3A.938.938,0,0,0,105.08,13.56ZM110.965,16h-2.017V7.019h2.017ZM108.823,4.686a1.071,1.071,0,0,1,.295-.772,1.113,1.113,0,0,1,.843-.307,1.127,1.127,0,0,1,.847.307,1.062,1.062,0,0,1,.3.772,1.038,1.038,0,0,1-.3.76,1.136,1.136,0,0,1-.847.3,1.122,1.122,0,0,1-.843-.3A1.046,1.046,0,0,1,108.823,4.686Zm6.234,2.333.058.938a3.232,3.232,0,0,1,2.59-1.1A2.483,2.483,0,0,1,120.17,8.23a3.186,3.186,0,0,1,2.756-1.378,2.8,2.8,0,0,1,2.212.822,3.618,3.618,0,0,1,.743,2.424V16h-2.017V10.156a1.786,1.786,0,0,0-.374-1.253,1.635,1.635,0,0,0-1.237-.4,1.679,1.679,0,0,0-1.125.369,1.948,1.948,0,0,0-.61.967L120.527,16H118.51V10.09A1.439,1.439,0,0,0,116.892,8.5a1.776,1.776,0,0,0-1.718.988V16h-2.017V7.019Zm20.76,4.582a5.348,5.348,0,0,1-.946,3.324,3.287,3.287,0,0,1-4.906.27v4.258h-2.017V7.019h1.859l.083.913a2.963,2.963,0,0,1,2.416-1.079,3.062,3.062,0,0,1,2.577,1.224,5.49,5.49,0,0,1,.934,3.4Zm-2.009-.174a3.746,3.746,0,0,0-.535-2.133,1.741,1.741,0,0,0-1.531-.789,1.856,1.856,0,0,0-1.776,1.021V13.51a1.873,1.873,0,0,0,1.793,1.046,1.739,1.739,0,0,0,1.507-.776A4.123,4.123,0,0,0,133.809,11.426ZM139.669,16h-2.017V3.25h2.017Zm6.151.166a4.173,4.173,0,0,1-3.109-1.208,4.381,4.381,0,0,1-1.191-3.217v-.249a5.389,5.389,0,0,1,.519-2.4A3.949,3.949,0,0,1,143.5,7.442a3.851,3.851,0,0,1,2.092-.589,3.525,3.525,0,0,1,2.835,1.17,4.949,4.949,0,0,1,1,3.312v.813h-5.869a2.7,2.7,0,0,0,.743,1.76,2.23,2.23,0,0,0,1.639.647,2.731,2.731,0,0,0,2.258-1.121l1.087,1.038a3.631,3.631,0,0,1-1.44,1.249A4.509,4.509,0,0,1,145.82,16.166Zm-.241-7.695a1.7,1.7,0,0,0-1.341.581,3.012,3.012,0,0,0-.652,1.619h3.843v-.149a2.452,2.452,0,0,0-.54-1.531A1.686,1.686,0,0,0,145.579,8.471Zm10.442,5.088a.914.914,0,0,0-.444-.822,4.723,4.723,0,0,0-1.473-.5,7.574,7.574,0,0,1-1.718-.548,2.293,2.293,0,0,1-1.511-2.117,2.391,2.391,0,0,1,.979-1.942,3.872,3.872,0,0,1,2.49-.78,4.029,4.029,0,0,1,2.6.8,2.529,2.529,0,0,1,.992,2.067h-2.017a1.243,1.243,0,0,0-.432-.967,1.654,1.654,0,0,0-1.146-.386,1.787,1.787,0,0,0-1.083.307.968.968,0,0,0-.419.822.818.818,0,0,0,.39.722,5.365,5.365,0,0,0,1.577.519,7.466,7.466,0,0,1,1.864.623,2.639,2.639,0,0,1,1,.867,2.212,2.212,0,0,1,.328,1.229,2.34,2.34,0,0,1-1,1.963,4.283,4.283,0,0,1-2.631.751,4.644,4.644,0,0,1-1.967-.4,3.238,3.238,0,0,1-1.345-1.1,2.594,2.594,0,0,1-.481-1.5h1.959a1.421,1.421,0,0,0,.54,1.1,2.1,2.1,0,0,0,1.32.386,2.04,2.04,0,0,0,1.212-.3A.938.938,0,0,0,156.021,13.56Z" transform="translate(752.5 137.194)" fill="#12263f"/>
    </g>
    <g id="Grupo_1072449" data-name="Grupo 1072449" transform="translate(600 2966.467)">
      <g id="Grupo_1072448" data-name="Grupo 1072448" clip-path="url(#clip-path-2)">
        <path id="Trazado_610001" data-name="Trazado 610001" d="M96.095,40.366q3.947-9.009,7.893-18.019c1.524-3.487,2.142-3.746,5.572-2.258,2.41,1.046,4.8,2.15,7.23,3.131.656.264,1.465,1.237,2.152.237.647-.942,1.04-2-.026-3.1-1.021-1.061-1.824-2.329-2.759-3.476a2.635,2.635,0,0,1,.121-3.942c1.531-1.608,3.013-3.265,4.467-4.944a2.845,2.845,0,0,1,4.142-.6c1.037.665,2.091,1.3,3.14,1.95,2.643,1.63,5.04.5,5.453-2.564C134.3.67,134.3.67,140.422.176c.329-.027.657-.051.986-.072,4.645-.291,4.622-.284,5.843,4.233.355,1.314,0,3.078,1.273,3.834,1.478.873,3.017,1.4,4.859-.132,5.119-4.245,4.41-4.272,9.4.173,5.018,4.47,4.416,3.766,1.231,8.933-1.916,3.109-1.037,5.074,2.587,5.677a6.5,6.5,0,0,0,.961.217c4.6.034,5.345.189,5.437,6.321.1,6.64,1.149,5.965-5.682,7.589-3.4.807-4.273,3.154-2.108,5.825,4.425,5.457,3.639,4.812-.3,9.22-4.428,4.956-3.715,4.54-9.187,1.209-.933-.568-1.725-1.433-3.112-.819-1.788.792-2.968,1.576-1.6,3.687,1.811,2.785,1.371,5.518-.145,8.324-1.083,2-1.856,4.174-2.768,6.271.872.7,1.714.407,2.478.41,7.654.027,15.308.009,22.963.02,3,0,3.521.489,3.525,3.389.014,12.51-.01,25.02.03,37.53a4.724,4.724,0,0,1-1.382,3.534c-2.8,2.9-5.574,5.827-8.295,8.8a4.532,4.532,0,0,1-3.7,1.529c-5.592-.064-11.185-.026-16.864.146,2.2.583,4.521.92,4.236,4.027-.2,2.2.43,4.455-.353,6.607-.35.963-1.307,1.133-2.231,1.284a30.761,30.761,0,0,0-3.137.651c-1.825.5-2.494,2.024-1.328,3.5,4.292,5.442,2.537,5.331-1.049,9.024-3.05,3.14-3.09,3.1-6.737.523-3.025-2.137-4.141-1.669-4.859,2.036-.845,4.362-.845,4.362-5.209,4.343-.576,0-1.153-.01-1.729-.013-4.214-.016-4.214-.016-5.06-4.239-.772-3.861-1.85-4.318-5-2.126-3.554,2.471-3.554,2.471-6.569-.522-.175-.174-.345-.353-.522-.525-4.232-4.158-4-3.747-.874-8.249,1.406-2.022.748-3.514-1.7-4.046-5.24-1.137-5.24-1.137-5.251-6.447,0-.905-.011-1.811.005-2.716a2.593,2.593,0,0,1,2.375-2.691c1.129-.216,2.287-.3,3.4-.571a2.228,2.228,0,0,0,1.46-3.367c-.04-.071-.1-.13-.14-.2-.835-1.642-3.151-2.928-2.428-4.865.981-2.629,3.507-4.27,5.6-6.092a2.177,2.177,0,0,1,2.754.177c1.013.7,2.024,1.411,3.05,2.1a1.988,1.988,0,0,0,3.1-.777c.562-1.124,1.177-2.436-.929-3.3-6.755-2.783-13.431-5.765-20.081-8.795-1.882-.858-2.15-.327-2.146,1.479q.069,25.678.027,51.357c0,.658.011,1.317-.013,1.975a2.182,2.182,0,0,1-2.314,2.348,2.131,2.131,0,0,1-2.318-2.321,56.054,56.054,0,0,1,.007-5.675c.17-2.012-.641-2.454-2.524-2.456-7.393-.008-13.023-4.072-13.92-10.365a65.716,65.716,0,0,1-.188-10.6c.039-1.843-.161-3.107-2.12-4.085a6.6,6.6,0,0,1-3.764-6.954c.6-4.588-1.249-7.144-4.983-9.913C49.176,94.991,42.712,80.416,43.239,62.781a43.69,43.69,0,0,1,1.938-11.147c.469-1.575,1.183-2.84,3.1-2.289,1.894.546,1.845,1.921,1.409,3.558-3.7,13.894-1.716,26.872,6.461,38.784a41.906,41.906,0,0,0,14.283,13.021,4.065,4.065,0,0,1,2.418,4.327,53.963,53.963,0,0,0-.015,5.923c.1,2.75,1.429,4.041,4.162,4.066,3.868.034,7.741-.1,11.6.057,1.939.08,2.313-.627,2.3-2.391-.064-12.51-.034-25.02-.034-37.53,0-18.683-.028-37.365.039-56.048.007-2.16-.26-2.9-2.8-2.575C74.408,22.313,63.716,28.89,55.778,40.083c-.978,1.378-1.985,2.681-3.769,1.444-1.718-1.193-1.088-2.679-.095-4.076,9.1-12.8,21.367-20.175,37.073-21.579,1.546-.138,1.943-.665,1.9-2.084-.078-2.549.01-5.1-.027-7.654-.024-1.614.484-2.866,2.265-2.873,1.882-.007,2.432,1.258,2.427,2.994-.029,10.781-.014,21.562-.013,32.344v1.663l.557.1M95.538,73.6q0,9.627,0,19.253c0,.972-.136,1.869,1.115,2.406q12.216,5.253,24.366,10.658c1.4.621,1.714.159,1.7-1.185-.039-4.2.357-8.433-.1-12.579-.72-6.572,1.365-11.46,6.2-16.084,3.575-3.418,6.776-5.939,11.864-4.99a2.308,2.308,0,0,0,2.934-1.829,30.238,30.238,0,0,1,2.467-5.631c1.128-1.938.43-2.629-1.389-3.351-3.583-1.422-7.073-3.079-10.6-4.636-3.175-1.4-3.428-2.043-2.008-5.277,1.617-3.683,3.192-7.387,4.913-11.021.643-1.357.466-1.974-.942-2.582q-13.112-5.666-26.155-11.486c-1.336-.6-1.971-.433-2.57.984-2.4,5.671-4.635,11.436-7.461,16.891a38.113,38.113,0,0,0-4.381,21.331c.26,3.022.042,6.085.043,9.129m76.893,5.911c-3.021,2.833-5.887,4.922-5.236,9.291.4,2.655.05,5.418.071,8.133.013,1.644-.637,2.817-2.375,2.778s-2.314-1.239-2.292-2.875c.04-3.043-.02-6.087.023-9.131.015-1.1-.28-1.665-1.51-1.662q-16.041.039-32.081,0c-1.189,0-1.543.455-1.538,1.613.028,5.676-.02,11.352-.034,17.027,0,.722-.157,1.582.9,1.73,2.244.315,2.51,1.993,2.759,3.781.605,4.34,1.781,4.86,5.323,2.432.407-.279.821-.547,1.218-.84,1.3-.96,2.744-1.148,3.723.2,1.673,2.3,5.5,3.193,4.768,7.092a1.652,1.652,0,0,1-.362.641c-1.033,1.337-.181,1.465.92,1.462,4.771-.015,9.543-.059,14.313-.015,1.385.012,1.623-.649,1.6-1.826-.05-2.961.012-5.923-.024-8.884-.02-1.707.473-2.994,2.424-2.968,1.84.024,2.21,1.3,2.257,2.881.066,2.176-.291,4.382.346,7.045,1.682-2.444,4.7-3.523,4.745-6.435.154-10.277.06-20.559.06-31.468M141.778,17.748a13.425,13.425,0,0,1,6.507,25.2c-1.915,1.073-2,2.339-.385,5.136,1.07,1.851,2.268.461,3.063-.1a4.158,4.158,0,0,1,5.6.209c.637.51,1.448.8,2.074,1.32,1.087.9,1.736.473,2.645-.392,1.342-1.278,1.411-2.229.177-3.665-1.092-1.27-2.963-2.492-2.65-4.258a23.177,23.177,0,0,1,2.548-7.1c.813-1.464,2.917-1.25,4.5-1.581s2.568-.706,2.457-2.808-1.158-2.147-2.64-2.195c-.815-.027-1.622-.316-2.438-.342a3.328,3.328,0,0,1-3.365-2.679,12.036,12.036,0,0,0-1.493-3.091,3.343,3.343,0,0,1,.132-4.3c.493-.654.835-1.423,1.334-2.072.943-1.227,1.321-2.146-.168-3.467-1.407-1.248-2.274-1.06-3.463.053-.835.783-1.83,1.392-2.722,2.117a2.544,2.544,0,0,1-2.546.487c-3.91-1.344-8.2-2.3-8.094-7.837.032-1.7-1.239-1.525-2.445-1.541-1.331-.018-2.4.266-2.291,1.782.311,4.275-1.686,6.745-5.729,7.763a2.272,2.272,0,0,0-.637.371,3.235,3.235,0,0,1-3.909-.052c-.885-.6-1.866-1.062-2.7-1.717-1.213-.948-2.026-.771-3.051.4-1,1.142-1.51,1.983-.226,3.224.761.735,1.291,1.7,2,2.5a3.229,3.229,0,0,1,.515,3.654c-1.287,3.245-1.2,3.142,1.841,4.654,1.757.873,2.366.531,3.074-1.273a13.27,13.27,0,0,1,12.5-8.411M140.9,118.52a1.922,1.922,0,0,0-2.77-1.374c-1.4.785-2.465,2.385-4.28,2.183a8.113,8.113,0,0,1-6.974-6.516c-.22-1-.357-1.837-1.789-1.767-1.348.066-1.23.884-1.487,1.766-.459,1.573.023,3.675-2.008,4.477-3.117,1.23-6.295,3.28-9.33-.237-.573-.665-1.216-.637-1.885.056-.651.675-1.02,1.254-.26,2.081a10.693,10.693,0,0,1,.827,1.223,6.544,6.544,0,0,1-4.316,10c-1.031.153-2.432-.178-2.5,1.637-.061,1.785,1.2,1.613,2.324,1.783a6.594,6.594,0,0,1,4.43,10.324c-.557.833-1.822,1.583-.507,2.932s2.082.151,2.935-.413a6.544,6.544,0,0,1,10.371,4.555c.16,1.031.069,2.187,1.692,2.192s1.546-1.127,1.7-2.174c.2-1.37.193-2.857,1.4-3.82a7.71,7.71,0,0,1,9.34-.4c.806.529,1.469,1.253,2.528.192s.3-1.708-.206-2.53c-.789-1.288-2.36-2.379-1.726-4.126,1.172-3.233,1.894-7.034,6.679-6.759.891.051,1.349-.369,1.333-1.33-.014-.878-.007-1.654-1.19-1.728-.567-.036-1.124-.309-1.689-.322a3.587,3.587,0,0,1-3.829-3.1,6.386,6.386,0,0,0-.867-2.029,3.312,3.312,0,0,1,.343-4.276c.662-.824,1.2-1.748,1.711-2.506M90.859,133.329c0-2.63-.031-5.261.015-7.89.02-1.148-.394-1.617-1.576-1.6-2.958.052-5.918.06-8.875,0-1.259-.027-1.754.372-1.71,1.684.083,2.463.019,4.93.023,7.4.013,6.816,3.47,10.086,10.282,9.872,1.359-.042,1.915-.4,1.868-1.818-.084-2.545-.024-5.095-.027-7.643m40.1-52.377a4.519,4.519,0,0,0,2.736.411q13.437.028,26.874.012c3.67,0,6.557-2.018,8.083-5.745-10.562,0-21.071,0-31.578-.007a2.234,2.234,0,0,0-1.758.708c-1.394,1.492-2.8,2.972-4.356,4.621m11.767-58.5c-4.321.071-6.857,1.5-8.576,4.3-1.764,2.87-1.556,3.461,1.523,4.806.825.36,1.646.738,2.495,1.033,2.887,1,5.362,2.394,6,5.756.294,1.537,1.228.848,1.985.441a8.788,8.788,0,0,0,4.112-9.895c-.973-3.788-4.537-6.46-7.543-6.437M145.445,55.5c-.542-2.74-3.712-10.778-4.936-12.576-1.078,2.448-2.107,4.852-3.2,7.228-.38.827-.671,1.515.433,1.991,2.526,1.088,5.042,2.2,7.7,3.357" transform="translate(-21.87 0)" fill="#345359"/>
        <path id="Trazado_610002" data-name="Trazado 610002" d="M52.917,38.847c-.217.967-.478,1.884-1.389,2.257A2.2,2.2,0,0,1,49,40.749c-2.726-2.709-5.455-5.416-8.133-8.174a1.978,1.978,0,0,1,.04-2.876c.791-.941,1.986-1.294,2.84-.545A81.593,81.593,0,0,1,52.559,38a3.037,3.037,0,0,1,.358.844" transform="translate(-20.382 -14.551)" fill="#345359"/>
        <path id="Trazado_610003" data-name="Trazado 610003" d="M54.325,214.095a3,3,0,0,1-1.112,2.486q-3.466,3.474-6.934,6.948c-1.095,1.1-2.3,1.728-3.621.47-1.393-1.328-.9-2.6.322-3.8,2.451-2.408,4.865-4.852,7.3-7.276a2.17,2.17,0,0,1,2.67-.571,2.233,2.233,0,0,1,1.376,1.744" transform="translate(-21.164 -107.353)" fill="#345359"/>
        <path id="Trazado_610004" data-name="Trazado 610004" d="M7.808,133.448c-1.81,0-3.62.009-5.43,0A2.087,2.087,0,0,1,0,131.218a2.047,2.047,0,0,1,2.315-2.266c3.7,0,7.4,0,11.107,0a2.044,2.044,0,0,1,2.244,2.335,1.993,1.993,0,0,1-2.181,2.15c-1.892.008-3.785,0-5.677,0v.011" transform="translate(0 -65.265)" fill="#345359"/>
        <path id="Trazado_610005" data-name="Trazado 610005" d="M198.518,267.3a10.605,10.605,0,0,1,.215-21.209,11,11,0,0,1,10.541,10.671A10.6,10.6,0,0,1,198.518,267.3m5.933-10.428a5.742,5.742,0,0,0-5.786-5.971,5.68,5.68,0,0,0-5.9,5.835,5.9,5.9,0,0,0,5.947,5.906,5.7,5.7,0,0,0,5.74-5.77" transform="translate(-95.178 -124.553)" fill="#345359"/>
      </g>
    </g>
    <g id="Grupo_1072451" data-name="Grupo 1072451" transform="translate(817.522 2775.565)">
      <g id="Grupo_1072450" data-name="Grupo 1072450" clip-path="url(#clip-path-3)">
        <path id="Trazado_610006" data-name="Trazado 610006" d="M121.207,45.514H108.273a4.008,4.008,0,0,1-1.033-.09,1.619,1.619,0,0,1-1.329-1.573,13.984,13.984,0,0,0-1.085-5.1,12.52,12.52,0,0,0-4.52-5.526A12.348,12.348,0,0,0,93.647,31a12.73,12.73,0,0,0-11.584,6.189,14.5,14.5,0,0,0-1.759,4.8,9,9,0,0,0-.078,1.383A1.935,1.935,0,0,1,78,45.525q-5.947,0-11.894-.008-7.111,0-14.223,0c-.165,0-.33,0-.5-.005a2.063,2.063,0,0,1-2.138-2.18,28.527,28.527,0,0,1,.29-4.147c.089-.6.169-1.21.228-1.817a1.842,1.842,0,0,1,1.377-1.633c2.219-.792,4.433-1.6,6.662-2.367a1.559,1.559,0,0,0,1.09-1.1A24.96,24.96,0,0,1,60.95,27.4a.886.886,0,0,0-.009-.853c-1-2.063-1.961-4.145-3-6.19a2.577,2.577,0,0,1,.295-3.1,49.946,49.946,0,0,1,8.447-8.4,2.183,2.183,0,0,1,2.549-.348c2.185,1.085,4.4,2.1,6.6,3.171a.759.759,0,0,0,.776,0,29.666,29.666,0,0,1,4.869-2.052,1.8,1.8,0,0,0,1.245-1.276c.727-2.137,1.488-4.262,2.213-6.4A2.143,2.143,0,0,1,86.856.428a45.77,45.77,0,0,1,10.77-.2c.591.06,1.176.169,1.766.239A1.955,1.955,0,0,1,101.1,1.9c.74,2.116,1.505,4.223,2.216,6.349a1.946,1.946,0,0,0,1.347,1.416,28.616,28.616,0,0,1,5,2.13.4.4,0,0,0,.412-.025c2.272-1.1,4.551-2.175,6.819-3.28a2.045,2.045,0,0,1,2.342.266,48.055,48.055,0,0,1,8.779,8.762,2.2,2.2,0,0,1,.248,2.531c-1.063,2.178-2.085,4.377-3.145,6.557a.781.781,0,0,0,.01.784,28.152,28.152,0,0,1,2.043,4.873,1.54,1.54,0,0,0,1.039,1.086c2.212.763,4.407,1.576,6.616,2.35a2,2,0,0,1,1.511,1.859c.143,1.777.352,3.549.484,5.326a2.191,2.191,0,0,1-2.48,2.64q-5.575.006-11.151-.007h-1.982Zm3.326-3.372V42.12h.595q3.94.008,7.879.016c.255,0,.542.072.473-.387-.154-1.011-.275-2.027-.392-3.043-.023-.2-.114-.26-.293-.322q-3.316-1.147-6.623-2.317a2.648,2.648,0,0,1-1.734-1.818,30.076,30.076,0,0,0-2.392-5.742,2.809,2.809,0,0,1-.1-2.782c1.02-2.089,2.011-4.192,3.032-6.281a.513.513,0,0,0-.056-.625,39.681,39.681,0,0,0-7-6.979.358.358,0,0,0-.44-.074c-2.176,1.065-4.36,2.116-6.541,3.173a2.265,2.265,0,0,1-2.1.058,40.661,40.661,0,0,0-6.425-2.675,2.418,2.418,0,0,1-1.6-1.509c-.293-.787-.557-1.585-.835-2.378C99.49,7.05,98.99,5.67,98.53,4.277a1.024,1.024,0,0,0-.989-.778c-1.284-.148-2.574-.129-3.86-.154a50.012,50.012,0,0,0-5.148.151,1,1,0,0,0-.967.747C86.88,6.238,86.1,8.2,85.483,10.218a3.259,3.259,0,0,1-2.34,2.3,24.712,24.712,0,0,0-3.294,1.2c-.843.415-1.683.837-2.527,1.251a2.728,2.728,0,0,1-.954.236,3.455,3.455,0,0,1-1.854-.592c-1.872-.9-3.762-1.765-5.621-2.692a.776.776,0,0,0-.989.1,41.73,41.73,0,0,0-6.766,6.8.479.479,0,0,0-.054.582c.933,1.93,1.813,3.887,2.8,5.789a3.47,3.47,0,0,1-.011,3.645,23.878,23.878,0,0,0-2.184,5.292,2.77,2.77,0,0,1-1.845,1.961c-2.162.755-4.321,1.519-6.49,2.25a.565.565,0,0,0-.464.587,17.556,17.556,0,0,1-.3,2.706c-.088.438.065.524.481.523q8.251-.033,16.5-.035c.82,0,.842.01.961-.79a22.99,22.99,0,0,1,3.646-9.788,22.605,22.605,0,0,1,14.783-9.786A21.54,21.54,0,0,1,98.243,22a22.739,22.739,0,0,1,16.334,15.116,38.672,38.672,0,0,1,1.01,4.636c.058.3.153.4.472.4,2.824-.014,5.649-.008,8.474-.008M93.065,24.633a20.751,20.751,0,0,0-4.516.539,18.6,18.6,0,0,0-6.791,3.112,19.629,19.629,0,0,0-6.983,9.272,29.007,29.007,0,0,0-.947,4.236c-.064.307.094.328.324.328.826,0,1.652,0,2.477.021.343.01.4-.171.445-.45A16.565,16.565,0,0,1,78.423,37.1,16.094,16.094,0,0,1,89.791,28a14.639,14.639,0,0,1,7.488.258,16.276,16.276,0,0,1,11.712,13.432c.032.209.015.454.333.45.892-.011,1.784-.025,2.675-.033.176,0,.3-.04.251-.254a34.078,34.078,0,0,0-.782-3.82,19.49,19.49,0,0,0-18.4-13.4" transform="translate(-29.673 0)" fill="#615842"/>
        <path id="Trazado_610007" data-name="Trazado 610007" d="M10.95,122.581c0-.454-.011-.928,0-1.4a1.853,1.853,0,0,1,1.829-2.05,8.259,8.259,0,0,1,1.136-.049q21.611-.006,43.221,0c.4,0,.495-.1.493-.493-.012-3.288,0-6.576.006-9.864,0-.363.021-.727.057-1.088a1.589,1.589,0,0,1,1.67-1.533,1.789,1.789,0,0,1,1.613,1.709c.014.842,0,1.685,0,2.528q0,4.957,0,9.914a1.937,1.937,0,0,1-1.79,2.111,7.689,7.689,0,0,1-1.335.058l-42.775,0c-.891,0-.891,0-.891.875,0,.809-.013,1.62,0,2.428a1.568,1.568,0,0,1-.787,1.544,1.676,1.676,0,0,1-1.916-.078q-2.023-1.512-4.027-3.05-3.012-2.3-6.015-4.613c-.262-.2-.527-.4-.768-.626a1.728,1.728,0,0,1,.048-2.786c.437-.376.908-.715,1.366-1.067q4.66-3.571,9.323-7.138a1.645,1.645,0,0,1,2.485.271,1.319,1.319,0,0,1,.29.87c-.01,1.057.018,2.116-.014,3.172-.013.43.134.512.531.512q8.9-.017,17.794-.007,8.872,0,17.745,0a2.265,2.265,0,0,1,1.381.294,1.559,1.559,0,0,1,.726,1.71A1.7,1.7,0,0,1,51.086,116a2.912,2.912,0,0,1-.834.082q-18.315.005-36.629,0a6.921,6.921,0,0,1-.889-.054,1.923,1.923,0,0,1-1.8-1.952c-.02-.412-.008-.826-.016-1.239,0-.107.052-.243-.1-.3-.109-.04-.182.041-.261.1q-3.084,2.37-6.171,4.735c-.272.208-.064.29.075.4q1.119.861,2.24,1.72,1.983,1.524,3.967,3.048a.236.236,0,0,0,.275.046" transform="translate(0 -63.925)" fill="#615842"/>
        <path id="Trazado_610008" data-name="Trazado 610008" d="M215.411,122.632c.182.01.289-.133.415-.229q3.02-2.291,6.038-4.582c.23-.174.283-.272.022-.471-2.009-1.533-4.008-3.078-6.013-4.616-.11-.085-.219-.248-.382-.155-.132.076-.068.24-.07.365-.008.4,0,.794-.012,1.19a1.915,1.915,0,0,1-1.689,1.892,6.024,6.024,0,0,1-.887.068q-17.968,0-35.936,0a8.961,8.961,0,0,1-1.434-.069,1.713,1.713,0,0,1-1.5-1.637,1.609,1.609,0,0,1,1.48-1.579,7.382,7.382,0,0,1,.988-.055q17,0,34,0c.446,0,.893-.028,1.338-.005.312.016.394-.093.389-.394-.016-1.024.006-2.049-.01-3.073a1.66,1.66,0,0,1,2.717-1.384q4.235,3.231,8.458,6.476c.695.532,1.4,1.05,2.085,1.6,1.28,1.025,1.264,2.213-.056,3.233-2.379,1.837-4.771,3.658-7.157,5.486q-1.514,1.16-3.026,2.324a2.04,2.04,0,0,1-1.4.519,1.593,1.593,0,0,1-1.609-1.656c-.016-.991-.018-1.983,0-2.974.008-.355-.118-.467-.453-.453-.4.016-.793,0-1.189,0q-21.239,0-42.478,0a5.349,5.349,0,0,1-.79-.043,1.983,1.983,0,0,1-1.887-2.187q0-6.072,0-12.145a1.724,1.724,0,0,1,2.124-1.88,1.528,1.528,0,0,1,1.155,1.333c.038.394.059.791.06,1.187q0,5.006-.01,10.013c0,.3.071.393.389.393q21.883-.02,43.767-.021c.149,0,.3,0,.446.014,1.538.151,2.125.8,2.118,2.351,0,.388,0,.777,0,1.172" transform="translate(-99.624 -63.942)" fill="#615842"/>
        <path id="Trazado_610009" data-name="Trazado 610009" d="M74.309,191.886q8.4,0,16.8.008a1.178,1.178,0,0,0,1.011-.459q4.67-5.525,9.371-11.023a1.777,1.777,0,0,1,2.041-.727,1.489,1.489,0,0,1,.852,2.222,13.43,13.43,0,0,1-1.479,1.858c-3.048,3.587-6.114,7.16-9.148,10.759a1.934,1.934,0,0,1-1.652.762c-3.469-.034-6.938-.012-10.407-.029-.394,0-.535.07-.534.507q.024,8.475.01,16.951c0,.3.011.6,0,.892a1.634,1.634,0,0,1-1.576,1.6,1.841,1.841,0,0,1-1.689-1.481,10.507,10.507,0,0,1-.055-1.286c0-5.534-.012-11.069.009-16.6,0-.488-.154-.566-.581-.565q-9.342.013-18.684,0a8.947,8.947,0,0,1-5.553-1.618,8.366,8.366,0,0,1-3.387-5.823,15.674,15.674,0,0,1-.107-2.076c0-4.808,0-9.616.013-14.424,0-.414-.116-.6-.518-.652a35.132,35.132,0,0,1-3.512-.825,5.7,5.7,0,0,1-4.578-5.2,4.952,4.952,0,0,1,.834-3.158c1.847-3.049,3.743-6.068,5.633-9.09a1.647,1.647,0,0,1,1.569-.946,1.7,1.7,0,0,1,1.371,1.084,1.37,1.37,0,0,1-.114,1.368c-.716,1.187-1.443,2.367-2.17,3.547-1.17,1.9-2.361,3.779-3.508,5.689a2.27,2.27,0,0,0,.77,3.2,1.83,1.83,0,0,0,.629.277c2.188.484,4.341,1.125,6.557,1.482.318.051.353.26.356.5.008.595,0,1.19,0,1.785q0,7.806,0,15.613a9.5,9.5,0,0,0,.233,2.408,4.633,4.633,0,0,0,4.448,3.486q8.376,0,16.751,0Z" transform="translate(-24.656 -91.24)" fill="#615842"/>
        <path id="Trazado_610010" data-name="Trazado 610010" d="M238.307,153.249a3.465,3.465,0,0,1-.054.38c-.663,2.927-1.444,5.821-2.3,8.7-.57,1.91-1.043,3.849-1.61,5.76-.83,2.8-1.528,5.63-2.43,8.4a3.487,3.487,0,0,0-.115,1.128c.016,1.536.044,3.072.045,4.608q.007,15.14,0,30.279c0,.346-.019.694-.049,1.039a1.7,1.7,0,0,1-1.6,1.633,1.732,1.732,0,0,1-1.631-1.624c-.049-.524-.038-1.055-.038-1.583q-.005-17.22-.012-34.441a8.183,8.183,0,0,1,.392-2.281c.8-2.787,1.575-5.581,2.371-8.369.759-2.662,1.545-5.316,2.3-7.98.523-1.856,1.024-3.718,1.364-5.62a2.36,2.36,0,0,1,.5-1.27,1.544,1.544,0,0,1,1.73-.526,1.92,1.92,0,0,1,1.139,1.766" transform="translate(-137.674 -91.206)" fill="#615842"/>
      </g>
    </g>
    <g id="Grupo_1072453" data-name="Grupo 1072453" transform="translate(1034.705 2896.842)">
      <g id="Grupo_1072452" data-name="Grupo 1072452" clip-path="url(#clip-path-4)">
        <path id="Trazado_610011" data-name="Trazado 610011" d="M98.326,123.372q0-7.135,0-14.271a2.321,2.321,0,0,0-.433-1.784,1.346,1.346,0,0,0-1.474-.349,1.49,1.49,0,0,0-1,1.6q0,3.567,0,7.135c0,2.864-.07,5.73.03,8.591.047,1.359-.746,1.147-1.564,1.183-.868.039-1.52,0-1.408-1.186a21.074,21.074,0,0,0,0-3.2c-.033-.56.441-1.45-.781-1.459-1.081-.008-2.007.177-2.078,1.463-.075,1.355-.024,2.717-.027,4.076,0,.485,0,.971,0,1.456,0,1.692-.735,2.2-2.413,1.749-.548-.147-.5-.505-.5-.882-.008-1.165.038-2.332-.022-3.494-.029-.561.438-1.449-.783-1.457-1.082-.007-2.016.18-2.075,1.465-.075,1.6-.025,3.2-.028,4.8a1.731,1.731,0,0,1-2.6,1.647c-.425-.2-.307-.559-.312-.869-.017-1.068-.043-2.137,0-3.2.043-1.017-.424-1.027-1.152-.681a2.729,2.729,0,0,0-1.735,2.492c-.044,4.611-.016,9.222-.031,13.834a2.994,2.994,0,0,0,.958,1.906,8.766,8.766,0,0,1,1.989,6.484,54.171,54.171,0,0,0,0,6.549c.075,1.342-.682,1.172-1.52,1.2-.922.035-1.527.008-1.468-1.257.115-2.47-.017-4.951.056-7.424a4.233,4.233,0,0,0-.952-3.1,8.769,8.769,0,0,1-2.024-6.593c.16-3.634.029-7.279.045-10.92.015-3.581,1.81-5.72,5.327-6.295a1.443,1.443,0,0,0,1.109-.781,4.225,4.225,0,0,1,4.007-2.162,1.92,1.92,0,0,0,2.015-1,3.819,3.819,0,0,1,3.693-1.9c1.139.073,1.384-.354,1.347-1.41-.078-2.23-.043-4.465-.018-6.7.03-2.784,1.764-4.638,4.31-4.657,2.634-.02,4.412,1.831,4.424,4.689q.034,8.373,0,16.746c0,.879.015,1.439,1.161,1.687a4.082,4.082,0,0,1,3.2,4.164c.048,3.591.008,7.184.019,10.775a3.258,3.258,0,0,1-1.442,2.729,7.015,7.015,0,0,0-2.964,7.146c.211,1.721-.04,3.495.064,5.236.075,1.252-.71,1.04-1.4,1-.662-.041-1.6.435-1.57-.97.072-3.2.043-6.407.009-9.61a2.255,2.255,0,0,1,.971-2c2.991-2.058,3.9-4.885,3.45-8.4a43.714,43.714,0,0,1-.044-5.237,3.746,3.746,0,0,0-.132-1.143c-.157-.47-.487-.947-1.038-.825-.5.11-.257.657-.26,1-.024,2.378-.1,4.761.019,7.134.07,1.419-.794,1.094-1.573,1.142-.851.052-1.427.045-1.409-1.158.073-4.9.03-9.8.03-14.707" transform="translate(-53.132 -73.692)" fill="#4e5662"/>
        <path id="Trazado_610012" data-name="Trazado 610012" d="M109.283,33.509a3.072,3.072,0,0,0,.449.037c.665-.015,1.234.892,1.875.377.9-.724,1.662-1.62,2.494-2.433.432-.422.126-.778-.048-1.173a3.291,3.291,0,0,1-.027-2.686c.409-.983.805-1.971,1.229-2.948a3.288,3.288,0,0,1,1.55-1.671c1.142-.588,1.822-3.556,1.088-4.66-.052-.079-.113-.192-.189-.21-2.312-.551-2.557-2.68-3.393-4.378a3.534,3.534,0,0,1-.165-3.47c.322-.577.084-.908-.257-1.269-.533-.563-1.094-1.1-1.624-1.667A1.319,1.319,0,0,0,110.376,7a1.524,1.524,0,0,1-1.112.233c-2.338-.747-5.057-.889-6.244-3.6a.994.994,0,0,0-.994-.666c-.775-.028-1.552-.012-2.328-.039a1.4,1.4,0,0,0-1.631,1.076A2.611,2.611,0,0,1,96.52,5.661c-1.153.5-2.321.969-3.491,1.433a3.238,3.238,0,0,1-1.857.047c-.527-.1-.972-.794-1.594-.266a13.956,13.956,0,0,0-2.612,2.717A.477.477,0,0,0,86.98,10c1.469,2.59-.661,4.487-1.309,6.658a1.8,1.8,0,0,1-1.29,1.109c-1.493.368-1.207,1.553-1.2,2.565,0,1.057-.309,2.287,1.248,2.686a2.133,2.133,0,0,1,1.356,1.253c.571,1.281,1.1,2.581,1.614,3.886a3.063,3.063,0,0,1,.023,1.579c-.079.552-.793,1.016-.353,1.6A13.238,13.238,0,0,0,89.738,34c.285.214.537.008.8-.12a4.005,4.005,0,0,1,3.355.1c1.205.448,1.345.964.932,2.134-.42,1.19-.917,1.286-1.857.678a1.12,1.12,0,0,0-1.653.2,1.556,1.556,0,0,1-2.325.138A21.584,21.584,0,0,1,83.872,32c-.55-.778-.673-1.562.078-2.209a1.213,1.213,0,0,0,.172-1.886c-.57-.751-.171-2.26-1.562-2.313-1.536-.059-1.92-.883-2.1-2.215A23.458,23.458,0,0,1,80.513,17c.144-1.038.574-1.822,1.71-1.77.885.04,1.191-.392,1.408-1.108a6.349,6.349,0,0,1,.563-1.336,1.222,1.222,0,0,0-.218-1.775A1.5,1.5,0,0,1,83.848,8.8a21.134,21.134,0,0,1,5.226-5.216,1.5,1.5,0,0,1,2.206.163A1.144,1.144,0,0,0,92.93,4c1.138-.683,2.934-.647,2.729-2.764C95.6.675,96.393.4,96.989.3A21.972,21.972,0,0,1,104.233.3c.913.154,1.6.625,1.544,1.61-.055.939.4,1.285,1.182,1.513a7.018,7.018,0,0,1,1.335.565,1.159,1.159,0,0,0,1.657-.207,1.554,1.554,0,0,1,2.325-.136,21.5,21.5,0,0,1,5.115,5.126,1.509,1.509,0,0,1-.078,2.213,1.259,1.259,0,0,0-.27,1.773c.61,1.171.711,2.728,2.669,2.631.647-.032.907.78,1.012,1.432a22.246,22.246,0,0,1,.006,7.1c-.157.98-.636,1.652-1.7,1.624a1.192,1.192,0,0,0-1.349.974c-.433,1.3-1.538,2.5.015,3.856.436.38.064,1.094-.288,1.6a20.863,20.863,0,0,1-5.225,5.216,1.435,1.435,0,0,1-2.092-.077c-.666-.767-1.267-.624-2.021-.2-.518.288-1.217.736-1.4-.366-.129-.793-1.4-1.731.281-2.338a6.183,6.183,0,0,1,2.329-.691" transform="translate(-56.888 0)" fill="#4e5662"/>
        <path id="Trazado_610013" data-name="Trazado 610013" d="M230.283,37.658c2.114-2.3,3.972-4.318,5.827-6.34,2.033-2.215,4.056-4.44,6.1-6.644.4-.431.677-.743.144-1.318-3.949-4.261-7.87-8.548-12.072-13.123,0,1.669.01,2.993,0,4.318-.016,1.646-.443,2.1-2.037,2.112-2.328.018-4.662-.082-6.984.038-1.354.07-1.153-.7-1.193-1.528-.046-.935.009-1.558,1.264-1.456,1.542.126,3.109-.058,4.653.058,1.215.091,1.451-.385,1.4-1.472-.082-1.791-.013-3.589-.026-5.384-.006-.779.142-1.467.95-1.785s1.38.11,1.9.68q7.664,8.368,15.346,16.722a1.771,1.771,0,0,1,.036,2.778q-7.743,8.4-15.444,16.829a1.576,1.576,0,0,1-1.789.633,1.6,1.6,0,0,1-1-1.751c.011-1.94-.032-3.882.019-5.821.022-.81-.2-1.106-1.05-1.077-1.744.06-3.5-.06-5.237.043-1.251.075-1.041-.709-1-1.4.042-.66-.44-1.616.967-1.57,2.423.079,4.851.04,7.276.015,1.334-.015,1.976.577,1.951,1.926-.025,1.383-.006,2.767-.006,4.514" transform="translate(-155.953 -3.562)" fill="#4e5662"/>
        <path id="Trazado_610014" data-name="Trazado 610014" d="M133.534,42.274a11.237,11.237,0,0,1-4.62,8.679c-.42.322-1.038,1.313-1.557.137-.327-.74-1.675-1.337-.21-2.47a8.705,8.705,0,1,0-10.717-.089c.342.28,1.083.4.875.982a6.472,6.472,0,0,1-1.173,1.981c-.326.382-.708-.108-.987-.322a11.46,11.46,0,0,1-4.62-12.03,11.71,11.71,0,0,1,8.732-8.809c7.419-1.578,14.264,3.858,14.278,11.94" transform="translate(-78.145 -21.305)" fill="#4e5662"/>
        <path id="Trazado_610015" data-name="Trazado 610015" d="M28.835,29.9c2.522,0,5.047.065,7.565-.029,1.158-.043,1.271.486,1.186,1.378-.072.749.33,1.624-1.107,1.6q-7.637-.118-15.277,0c-1.428.022-1.045-.844-1.112-1.6-.08-.884.013-1.428,1.18-1.384,2.518.095,5.043.029,7.565.029" transform="translate(-14.222 -21.166)" fill="#4e5662"/>
        <path id="Trazado_610016" data-name="Trazado 610016" d="M28.832,99.9c2.522,0,5.047.065,7.566-.029,1.153-.043,1.278.478,1.189,1.375-.074.745.338,1.627-1.1,1.605q-7.637-.118-15.278,0c-1.425.022-1.049-.839-1.115-1.594-.077-.879,0-1.432,1.177-1.387,2.518.1,5.043.029,7.565.029" transform="translate(-14.223 -70.776)" fill="#4e5662"/>
        <path id="Trazado_610017" data-name="Trazado 610017" d="M27.341,64.9c2.085,0,4.175.077,6.255-.028,1.334-.067,1.059.763,1.058,1.493s.258,1.513-1.068,1.486c-4.169-.084-8.341-.074-12.511-.008-1.4.022-.939-.9-.976-1.562-.038-.685-.257-1.462.987-1.407,2.081.093,4.17.025,6.255.025" transform="translate(-14.214 -45.971)" fill="#4e5662"/>
        <path id="Trazado_610018" data-name="Trazado 610018" d="M2.936,31.328c.356,1.312-.308,1.467-1.446,1.516C.195,32.9.023,32.408.01,31.275,0,30.116.344,29.82,1.469,29.84s1.837.139,1.467,1.488" transform="translate(-0.007 -21.147)" fill="#4e5662"/>
        <path id="Trazado_610019" data-name="Trazado 610019" d="M1.555,67.746C.313,68.068.017,67.542,0,66.335c-.017-1.225.334-1.547,1.535-1.513,1.079.03,1.537.218,1.471,1.423-.058,1.051-.033,1.9-1.451,1.5" transform="translate(0 -45.939)" fill="#4e5662"/>
        <path id="Trazado_610020" data-name="Trazado 610020" d="M2.935,101.278c.322,1.242-.2,1.539-1.412,1.555C.3,102.849-.023,102.5.01,101.3c.03-1.078.218-1.537,1.423-1.471,1.051.058,1.9.033,1.5,1.451" transform="translate(-0.006 -70.745)" fill="#4e5662"/>
      </g>
    </g>
  </g>
</svg>
