<svg xmlns="http://www.w3.org/2000/svg" xmlns:xlink="http://www.w3.org/1999/xlink" width="400" height="844" viewBox="0 0 400 844">
  <defs>
    <clipPath id="clip-path">
      <rect id="Rectángulo_377904" data-name="Rectángulo 377904" width="105" height="99.879" fill="#76becc"/>
    </clipPath>
    <clipPath id="clip-path-2">
      <rect id="Rectángulo_377905" data-name="Rectángulo 377905" width="105" height="101.777" fill="#e6d09d"/>
    </clipPath>
    <clipPath id="clip-path-3">
      <rect id="Rectángulo_377906" data-name="Rectángulo 377906" width="106.32" height="106.3" fill="#afc2dd"/>
    </clipPath>
  </defs>
  <g id="Grupo_1072677" data-name="Grupo 1072677" transform="translate(4521 7475)">
    <g id="Grupo_1072666" data-name="Grupo 1072666">
      <rect id="Rectángulo_377908" data-name="Rectángulo 377908" width="400" height="844" transform="translate(-4521 -7475)" fill="#fff"/>
      <g id="Grupo_1072481" data-name="Grupo 1072481" transform="translate(-4806 -11979)">
        <path id="Trazado_610046" data-name="Trazado 610046" d="M200,50.925,385.427,300H14.573ZM0,307.32H400L200,38.669Z" transform="translate(685 4827.238) rotate(180)" fill="#94eeff"/>
        <path id="Trazado_610536" data-name="Trazado 610536" d="M5.722-4.526H4.052V0H.967V-12.8H6a5.621,5.621,0,0,1,3.56,1.01,3.421,3.421,0,0,1,1.283,2.853,4.155,4.155,0,0,1-.541,2.213A3.837,3.837,0,0,1,8.613-5.3L11.285-.132V0H7.98ZM4.052-6.9H6a1.751,1.751,0,0,0,1.323-.463A1.788,1.788,0,0,0,7.77-8.653a1.809,1.809,0,0,0-.448-1.3A1.735,1.735,0,0,0,6-10.424H4.052ZM15.7,0H12.727V-9.51H15.7ZM12.551-11.962A1.322,1.322,0,0,1,13.008-13a1.724,1.724,0,0,1,1.187-.4,1.724,1.724,0,0,1,1.187.4,1.322,1.322,0,0,1,.457,1.037,1.322,1.322,0,0,1-.457,1.037,1.724,1.724,0,0,1-1.187.4,1.724,1.724,0,0,1-1.187-.4A1.322,1.322,0,0,1,12.551-11.962ZM22.122.176A4.889,4.889,0,0,1,18.58-1.129a4.507,4.507,0,0,1-1.354-3.4v-.246a5.84,5.84,0,0,1,.541-2.575,3.955,3.955,0,0,1,1.578-1.727,4.763,4.763,0,0,1,2.461-.611A4.117,4.117,0,0,1,24.97-8.442a4.887,4.887,0,0,1,1.16,3.467v1.151H20.241a2.135,2.135,0,0,0,.694,1.257,2.066,2.066,0,0,0,1.389.457,2.662,2.662,0,0,0,2.2-.984l1.354,1.6A3.784,3.784,0,0,1,24.306-.277,5.3,5.3,0,0,1,22.122.176ZM21.788-7.4q-1.3,0-1.547,1.723h2.988v-.229a1.467,1.467,0,0,0-.36-1.1A1.434,1.434,0,0,0,21.788-7.4ZM32.3-2.672a.684.684,0,0,0-.4-.606,6.016,6.016,0,0,0-1.5-.475A6.853,6.853,0,0,1,28.573-4.4a3.062,3.062,0,0,1-1.1-.971A2.319,2.319,0,0,1,27.1-6.68a2.628,2.628,0,0,1,1.081-2.158,4.453,4.453,0,0,1,2.83-.848,4.934,4.934,0,0,1,3.023.853,2.666,2.666,0,0,1,1.143,2.241H32.2q0-1.143-1.2-1.143a1.194,1.194,0,0,0-.782.259.8.8,0,0,0-.316.646.737.737,0,0,0,.387.642,3.654,3.654,0,0,0,1.235.4,10.671,10.671,0,0,1,1.49.378A2.706,2.706,0,0,1,35.156-2.76,2.491,2.491,0,0,1,34-.642a5.068,5.068,0,0,1-2.993.817,5.172,5.172,0,0,1-2.18-.439,3.645,3.645,0,0,1-1.494-1.2A2.707,2.707,0,0,1,26.8-3.05h2.769a1.145,1.145,0,0,0,.439.962,1.808,1.808,0,0,0,1.081.3A1.422,1.422,0,0,0,32-2.03.787.787,0,0,0,32.3-2.672Zm3.894-2.153a6.421,6.421,0,0,1,.475-2.549A3.821,3.821,0,0,1,38.03-9.083a3.591,3.591,0,0,1,2.065-.6,2.855,2.855,0,0,1,2.32,1l.105-.826h2.689V-.36a4.009,4.009,0,0,1-.584,2.184,3.75,3.75,0,0,1-1.692,1.424,6.219,6.219,0,0,1-2.566.5,5.365,5.365,0,0,1-2.026-.4,3.657,3.657,0,0,1-1.5-1.028L38.083.58a2.716,2.716,0,0,0,2.18.976A1.764,1.764,0,0,0,42.231-.466v-.3a2.781,2.781,0,0,1-2.153.94,3.437,3.437,0,0,1-2.812-1.332A5.517,5.517,0,0,1,36.193-4.72Zm2.971.185a3.383,3.383,0,0,0,.439,1.85,1.386,1.386,0,0,0,1.23.681,1.573,1.573,0,0,0,1.4-.642v-4a1.534,1.534,0,0,0-1.38-.65,1.4,1.4,0,0,0-1.239.708A3.858,3.858,0,0,0,39.164-4.641Zm7.356-.2a5.613,5.613,0,0,1,.554-2.536,3.96,3.96,0,0,1,1.591-1.709,4.791,4.791,0,0,1,2.435-.6,4.373,4.373,0,0,1,3.366,1.323,5.076,5.076,0,0,1,1.23,3.6v.105a4.925,4.925,0,0,1-1.235,3.529A4.384,4.384,0,0,1,51.117.176a4.434,4.434,0,0,1-3.261-1.217,4.761,4.761,0,0,1-1.327-3.3Zm2.962.185A3.538,3.538,0,0,0,49.9-2.725a1.376,1.376,0,0,0,1.222.615q1.582,0,1.617-2.435v-.3Q52.734-7.4,51.1-7.4q-1.485,0-1.608,2.206Zm12.5,1.986a.684.684,0,0,0-.4-.606,6.016,6.016,0,0,0-1.5-.475A6.853,6.853,0,0,1,58.254-4.4a3.062,3.062,0,0,1-1.1-.971,2.319,2.319,0,0,1-.378-1.31,2.628,2.628,0,0,1,1.081-2.158,4.453,4.453,0,0,1,2.83-.848,4.934,4.934,0,0,1,3.023.853,2.666,2.666,0,0,1,1.143,2.241H61.884q0-1.143-1.2-1.143a1.194,1.194,0,0,0-.782.259.8.8,0,0,0-.316.646.737.737,0,0,0,.387.642,3.654,3.654,0,0,0,1.235.4,10.671,10.671,0,0,1,1.49.378A2.706,2.706,0,0,1,64.837-2.76,2.491,2.491,0,0,1,63.681-.642a5.068,5.068,0,0,1-2.993.817,5.172,5.172,0,0,1-2.18-.439,3.645,3.645,0,0,1-1.494-1.2,2.707,2.707,0,0,1-.536-1.591h2.769a1.145,1.145,0,0,0,.439.962,1.808,1.808,0,0,0,1.081.3,1.422,1.422,0,0,0,.91-.246A.787.787,0,0,0,61.98-2.672ZM71.394,0V-7.453h-1.38V-9.51h1.38v-.316a3.631,3.631,0,0,1,1.248-2.909,4.987,4.987,0,0,1,3.243-.949,11.509,11.509,0,0,1,3.094.51l-.4,2.338-.492-.132a7.832,7.832,0,0,0-2.021-.255q-1.7,0-1.7,1.547v.167h1.863v2.057H74.364V0Zm8.947,0H77.361V-9.51h2.979Zm4.526-9.51.1,1.116A3.225,3.225,0,0,1,87.68-9.686,2.713,2.713,0,0,1,89.9-8.8a4.226,4.226,0,0,1,.76,2.672V0H87.688V-6a1.6,1.6,0,0,0-.29-1.059A1.342,1.342,0,0,0,86.344-7.4a1.413,1.413,0,0,0-1.292.686V0H82.09V-9.51ZM97.655,0a3.344,3.344,0,0,1-.281-.853A2.754,2.754,0,0,1,95.089.176,3.374,3.374,0,0,1,92.8-.637a2.588,2.588,0,0,1-.94-2.043,2.66,2.66,0,0,1,1.143-2.338,5.821,5.821,0,0,1,3.322-.791h.914v-.5q0-1.316-1.134-1.316a.927.927,0,0,0-1.055,1.042H92.092a2.655,2.655,0,0,1,1.173-2.239,4.931,4.931,0,0,1,2.993-.86,4.323,4.323,0,0,1,2.874.888,3.086,3.086,0,0,1,1.081,2.435v4.21a4.311,4.311,0,0,0,.4,2V0ZM95.8-1.934a1.652,1.652,0,0,0,.918-.237,1.487,1.487,0,0,0,.523-.536V-4.228h-.861q-1.547,0-1.547,1.389a.848.848,0,0,0,.272.655A.986.986,0,0,0,95.8-1.934Zm8.771-7.576.1,1.116a3.225,3.225,0,0,1,2.716-1.292A2.713,2.713,0,0,1,109.6-8.8a4.226,4.226,0,0,1,.76,2.672V0h-2.971V-6a1.6,1.6,0,0,0-.29-1.059,1.342,1.342,0,0,0-1.055-.338,1.413,1.413,0,0,0-1.292.686V0h-2.962V-9.51Zm11.452,7.4a1.317,1.317,0,0,0,.967-.338,1.241,1.241,0,0,0,.334-.945H120.1a3.288,3.288,0,0,1-1.121,2.566,4.168,4.168,0,0,1-2.887,1,4.22,4.22,0,0,1-3.27-1.3,5.125,5.125,0,0,1-1.2-3.6v-.123a5.792,5.792,0,0,1,.532-2.544,3.872,3.872,0,0,1,1.534-1.7,4.573,4.573,0,0,1,2.373-.593,4.116,4.116,0,0,1,2.944,1.028,3.647,3.647,0,0,1,1.09,2.786h-2.777A1.626,1.626,0,0,0,116.965-7,1.244,1.244,0,0,0,116-7.4q-1.151,0-1.345,1.468a10.357,10.357,0,0,0-.062,1.283,4.068,4.068,0,0,0,.343,1.986A1.187,1.187,0,0,0,116.024-2.109ZM124.479,0h-2.971V-9.51h2.971Zm-3.146-11.962A1.322,1.322,0,0,1,121.79-13a1.724,1.724,0,0,1,1.187-.4,1.724,1.724,0,0,1,1.187.4,1.322,1.322,0,0,1,.457,1.037,1.322,1.322,0,0,1-.457,1.037,1.724,1.724,0,0,1-1.187.4,1.724,1.724,0,0,1-1.187-.4A1.322,1.322,0,0,1,121.333-11.962ZM130.9.176a4.889,4.889,0,0,1-3.542-1.305,4.507,4.507,0,0,1-1.354-3.4v-.246a5.84,5.84,0,0,1,.541-2.575,3.955,3.955,0,0,1,1.578-1.727,4.763,4.763,0,0,1,2.461-.611,4.117,4.117,0,0,1,3.164,1.244,4.887,4.887,0,0,1,1.16,3.467v1.151h-5.889a2.135,2.135,0,0,0,.694,1.257,2.066,2.066,0,0,0,1.389.457,2.662,2.662,0,0,0,2.2-.984l1.354,1.6a3.784,3.784,0,0,1-1.569,1.217A5.3,5.3,0,0,1,130.9.176ZM130.57-7.4q-1.3,0-1.547,1.723h2.988v-.229a1.467,1.467,0,0,0-.36-1.1A1.434,1.434,0,0,0,130.57-7.4Zm11.285.571-.976-.07a1.752,1.752,0,0,0-1.793.879V0h-2.962V-9.51H138.9l.1,1.222a2.294,2.294,0,0,1,2.083-1.4,2.888,2.888,0,0,1,.826.105Zm.378,1.986a5.613,5.613,0,0,1,.554-2.536,3.96,3.96,0,0,1,1.591-1.709,4.791,4.791,0,0,1,2.435-.6,4.373,4.373,0,0,1,3.366,1.323,5.076,5.076,0,0,1,1.23,3.6v.105a4.925,4.925,0,0,1-1.235,3.529A4.384,4.384,0,0,1,146.83.176a4.434,4.434,0,0,1-3.261-1.217,4.761,4.761,0,0,1-1.327-3.3Zm2.962.185a3.538,3.538,0,0,0,.413,1.934,1.376,1.376,0,0,0,1.222.615q1.582,0,1.617-2.435v-.3q0-2.558-1.635-2.558-1.485,0-1.608,2.206Zm12.5,1.986a.684.684,0,0,0-.4-.606,6.016,6.016,0,0,0-1.5-.475,6.853,6.853,0,0,1-1.828-.646,3.062,3.062,0,0,1-1.1-.971,2.319,2.319,0,0,1-.378-1.31,2.628,2.628,0,0,1,1.081-2.158,4.453,4.453,0,0,1,2.83-.848,4.934,4.934,0,0,1,3.023.853,2.666,2.666,0,0,1,1.143,2.241H157.6q0-1.143-1.2-1.143a1.194,1.194,0,0,0-.782.259.8.8,0,0,0-.316.646.737.737,0,0,0,.387.642,3.654,3.654,0,0,0,1.235.4,10.671,10.671,0,0,1,1.49.378A2.706,2.706,0,0,1,160.55-2.76a2.491,2.491,0,0,1-1.156,2.118A5.068,5.068,0,0,1,156.4.176a5.172,5.172,0,0,1-2.18-.439,3.645,3.645,0,0,1-1.494-1.2,2.707,2.707,0,0,1-.536-1.591h2.769a1.145,1.145,0,0,0,.439.962,1.808,1.808,0,0,0,1.081.3,1.422,1.422,0,0,0,.91-.246A.787.787,0,0,0,157.693-2.672Z" transform="translate(404 4568)" fill="#12263f"/>
        <g id="Grupo_1072478" data-name="Grupo 1072478" transform="translate(433 4587)">
          <g id="Grupo_1072471" data-name="Grupo 1072471" clip-path="url(#clip-path)">
            <path id="Trazado_610030" data-name="Trazado 610030" d="M83.087,88.553A30.451,30.451,0,0,0,90.411,75.83a38,38,0,0,0,.931-19.262,2.1,2.1,0,1,1,4.072-.752c2.492,14.437-.855,27.226-11.03,37.94-1.563,1.646-1.272,3.333-1.248,5.117.013.936.824.494,1.262.4,3.036-.665,6.07-1.341,9.087-2.086,5.051-1.248,9.991,1.476,11.2,6.226a8.813,8.813,0,0,1-6.629,11.044q-12.422,3.25-24.886,6.339a24.033,24.033,0,0,1-14.788-1.14q-14.777-5.789-29.544-11.6c-2.8-1.1-5.731-.368-8.6-.524-.773-.042-.55.657-.579,1.1-.156,2.323-.71,2.866-3.012,2.869q-6.89.008-13.78,0c-2.158,0-2.86-.691-2.861-2.826Q0,91.36.007,74.053c0-2.071.662-2.718,2.77-2.742,2.132-.024,4.265,0,6.4-.007,2.23,0,2.162.005,1.892-2.172A41.668,41.668,0,0,1,14.6,46.612a2.073,2.073,0,0,1,4,.223,2.113,2.113,0,0,1-.3,1.572A39.32,39.32,0,0,0,15.08,68.716c.229,2.353.162,2.36,2.419,2.6,1.542.165,2.058.884,2.182,2.715.046.677-.546,1.778.466,1.976a7.874,7.874,0,0,0,3.881-.086c.456-.147.222-.9.223-1.369.012-5.96,0-11.921.01-17.881,0-2.316.6-2.923,2.88-2.927,4.539-.008,9.079-.062,13.615.033,1.413.03,1.738-.42,1.695-1.751-.1-2.95-.046-5.9-.024-8.858.016-2.137.722-2.835,2.888-2.833q8.367.009,16.732.068c2.217.016,2.813.63,2.817,2.872.013,6.507.037,13.015-.022,19.522-.011,1.238.355,1.571,1.571,1.552,4.428-.068,8.858-.03,13.287-.026,2.925,0,3.383.471,3.384,3.448q0,9.761,0,19.522ZM19.655,91.827v8.527c0,2.992,0,2.933,3,3.011,2.43.063,4.863-.318,7.274.649,9.868,3.959,19.786,7.79,29.673,11.7a19.964,19.964,0,0,0,12.2,1.172c8.428-2.023,16.812-4.225,25.21-6.372a4.825,4.825,0,1,0-2.143-9.407q-9.494,2.131-18.965,4.361c-4.934,1.154-9.878,1.409-14.691-.345-7.016-2.557-13.967-5.295-20.931-7.993-1.458-.565-2.005-1.7-1.434-2.813.669-1.3,1.707-1.47,3.042-.944q6.468,2.549,12.979,4.985a5.335,5.335,0,0,0,7.1-2.868c1.152-2.795-.123-5.649-3.138-6.909Q49.321,84.608,39.8,80.676a4.468,4.468,0,0,0-1.744-.384c-5.739.012-11.479.026-17.219-.012-.943-.007-1.207.3-1.2,1.216.045,3.443.018,6.888.017,10.331M60.6,84.851a6.3,6.3,0,0,0,.123-.791c.006-12.782-.008-25.564.032-38.346,0-1.111-.467-1.223-1.364-1.217-3.714.025-7.431.069-11.142-.045-1.437-.045-1.671.463-1.664,1.761.053,10.051.029,20.1.029,30.153,0,2.675,0,2.676,2.455,3.7L60.6,84.851m18.438-.284c0-4.86-.044-9.722.03-14.581.019-1.262-.382-1.558-1.581-1.534-3.712.074-7.427.066-11.139,0-1.115-.019-1.512.26-1.5,1.441.057,5.734.027,11.468.024,17.2a3.338,3.338,0,0,0,.377,1.721,9.332,9.332,0,0,1,.054,9.228c-1.4,2.808-.584,4.09,2.531,4.252,3.219.167,6.257-.756,9.358-1.342,1.379-.26,1.943-.739,1.9-2.3-.139-4.692-.05-9.391-.05-14.088M4.118,91.26c0,4.862.032,9.724-.023,14.585-.013,1.142.334,1.507,1.481,1.479,2.893-.072,5.79-.047,8.685-.01.869.011,1.267-.186,1.264-1.169q-.045-14.749,0-29.5c0-1.086-.455-1.245-1.374-1.23-2.84.043-5.683.082-8.52-.014-1.281-.043-1.552.427-1.538,1.6.055,4.752.023,9.505.023,14.258m38.3-23.574c0-2.839-.012-5.677.008-8.516.005-.739-.064-1.231-1.028-1.222-4.039.04-8.079.031-12.118.005-.768-.005-1.048.243-1.045,1.032q.039,8.024,0,16.048c-.006.911.378,1.095,1.171,1.078,1.746-.037,3.495-.051,5.24,0,2.315.067,4.683-.393,6.886.845.961.54.886-.334.887-.918q.009-4.176,0-8.352" transform="translate(0 -21.593)" fill="#76becc"/>
            <path id="Trazado_610031" data-name="Trazado 610031" d="M97.843,4.684a1.983,1.983,0,0,1-2.809,1.9,44.67,44.67,0,0,0-8.24-2.042,38.328,38.328,0,0,0-30.253,8.623c-.381.31-.738.653-1.134.942a1.9,1.9,0,0,1-2.791-.183A1.955,1.955,0,0,1,52.785,11a31.678,31.678,0,0,1,4.771-3.727Q75.588-4.3,95.9,2.566c1.054.358,1.9.855,1.94,2.119" transform="translate(-27.858 0)" fill="#76becc"/>
            <path id="Trazado_610032" data-name="Trazado 610032" d="M155.207,35.163a2.737,2.737,0,0,1,.826-2.047q8.068-9.273,16.128-18.553c1.1-1.269,2.276-1.471,3.248-.618s.985,1.97-.055,3.174q-8.141,9.427-16.323,18.819a2.057,2.057,0,0,1-2.576.828,1.882,1.882,0,0,1-1.249-1.6" transform="translate(-83.088 -7.189)" fill="#76becc"/>
            <path id="Trazado_610033" data-name="Trazado 610033" d="M158.664,12.074a5.259,5.259,0,0,1,5.269,5.147,5.213,5.213,0,0,1-5.09,5.14A5.13,5.13,0,0,1,153.61,17.4a5.188,5.188,0,0,1,5.054-5.325m1.031,5.187c-.026-.631-.3-1.018-.981-1.013a.894.894,0,0,0-.96.886.945.945,0,0,0,.917,1.1c.658.054.971-.346,1.024-.976" transform="translate(-82.233 -6.463)" fill="#76becc"/>
            <path id="Trazado_610034" data-name="Trazado 610034" d="M183.187,44.174a5.162,5.162,0,0,1,5.234,5.14,5.321,5.321,0,0,1-5.127,5.152,5.247,5.247,0,0,1-5.2-5.207,5.107,5.107,0,0,1,5.1-5.085m.075,6.077a.893.893,0,0,0,.956-1.042.933.933,0,0,0-1.077-.94.995.995,0,0,0,.121,1.982" transform="translate(-95.339 -23.648)" fill="#76becc"/>
            <path id="Trazado_610035" data-name="Trazado 610035" d="M42.04,35.912c1.644-.026,2.561.82,2.473,2.007a1.9,1.9,0,0,1-1.981,1.961,1.953,1.953,0,0,1-2.065-2.041c.082-1.2.728-1.9,1.572-1.927" transform="translate(-21.662 -19.225)" fill="#76becc"/>
          </g>
        </g>
        <path id="Trazado_610047" data-name="Trazado 610047" d="M318.959,279.264l-200-268.651h400ZM133.533,17.931,318.959,267.007,504.387,17.931Z" transform="translate(166.04 4777.956)" fill="#ffe7af"/>
        <path id="Trazado_610048" data-name="Trazado 610048" d="M318.959,279.264l-200-268.651h400ZM133.533,17.931,318.959,267.007,504.387,17.931Z" transform="translate(166.04 5048.854)" fill="#c3d7f5"/>
        <path id="Trazado_610537" data-name="Trazado 610537" d="M5.722-4.526H4.052V0H.967V-12.8H6a5.621,5.621,0,0,1,3.56,1.01,3.421,3.421,0,0,1,1.283,2.853,4.155,4.155,0,0,1-.541,2.213A3.837,3.837,0,0,1,8.613-5.3L11.285-.132V0H7.98ZM4.052-6.9H6a1.751,1.751,0,0,0,1.323-.463A1.788,1.788,0,0,0,7.77-8.653a1.809,1.809,0,0,0-.448-1.3A1.735,1.735,0,0,0,6-10.424H4.052ZM15.7,0H12.727V-9.51H15.7ZM12.551-11.962A1.322,1.322,0,0,1,13.008-13a1.724,1.724,0,0,1,1.187-.4,1.724,1.724,0,0,1,1.187.4,1.322,1.322,0,0,1,.457,1.037,1.322,1.322,0,0,1-.457,1.037,1.724,1.724,0,0,1-1.187.4,1.724,1.724,0,0,1-1.187-.4A1.322,1.322,0,0,1,12.551-11.962ZM22.122.176A4.889,4.889,0,0,1,18.58-1.129a4.507,4.507,0,0,1-1.354-3.4v-.246a5.84,5.84,0,0,1,.541-2.575,3.955,3.955,0,0,1,1.578-1.727,4.763,4.763,0,0,1,2.461-.611A4.117,4.117,0,0,1,24.97-8.442a4.887,4.887,0,0,1,1.16,3.467v1.151H20.241a2.135,2.135,0,0,0,.694,1.257,2.066,2.066,0,0,0,1.389.457,2.662,2.662,0,0,0,2.2-.984l1.354,1.6A3.784,3.784,0,0,1,24.306-.277,5.3,5.3,0,0,1,22.122.176ZM21.788-7.4q-1.3,0-1.547,1.723h2.988v-.229a1.467,1.467,0,0,0-.36-1.1A1.434,1.434,0,0,0,21.788-7.4ZM32.3-2.672a.684.684,0,0,0-.4-.606,6.016,6.016,0,0,0-1.5-.475A6.853,6.853,0,0,1,28.573-4.4a3.062,3.062,0,0,1-1.1-.971A2.319,2.319,0,0,1,27.1-6.68a2.628,2.628,0,0,1,1.081-2.158,4.453,4.453,0,0,1,2.83-.848,4.934,4.934,0,0,1,3.023.853,2.666,2.666,0,0,1,1.143,2.241H32.2q0-1.143-1.2-1.143a1.194,1.194,0,0,0-.782.259.8.8,0,0,0-.316.646.737.737,0,0,0,.387.642,3.654,3.654,0,0,0,1.235.4,10.671,10.671,0,0,1,1.49.378A2.706,2.706,0,0,1,35.156-2.76,2.491,2.491,0,0,1,34-.642a5.068,5.068,0,0,1-2.993.817,5.172,5.172,0,0,1-2.18-.439,3.645,3.645,0,0,1-1.494-1.2A2.707,2.707,0,0,1,26.8-3.05h2.769a1.145,1.145,0,0,0,.439.962,1.808,1.808,0,0,0,1.081.3A1.422,1.422,0,0,0,32-2.03.787.787,0,0,0,32.3-2.672Zm3.894-2.153a6.421,6.421,0,0,1,.475-2.549A3.821,3.821,0,0,1,38.03-9.083a3.591,3.591,0,0,1,2.065-.6,2.855,2.855,0,0,1,2.32,1l.105-.826h2.689V-.36a4.009,4.009,0,0,1-.584,2.184,3.75,3.75,0,0,1-1.692,1.424,6.219,6.219,0,0,1-2.566.5,5.365,5.365,0,0,1-2.026-.4,3.657,3.657,0,0,1-1.5-1.028L38.083.58a2.716,2.716,0,0,0,2.18.976A1.764,1.764,0,0,0,42.231-.466v-.3a2.781,2.781,0,0,1-2.153.94,3.437,3.437,0,0,1-2.812-1.332A5.517,5.517,0,0,1,36.193-4.72Zm2.971.185a3.383,3.383,0,0,0,.439,1.85,1.386,1.386,0,0,0,1.23.681,1.573,1.573,0,0,0,1.4-.642v-4a1.534,1.534,0,0,0-1.38-.65,1.4,1.4,0,0,0-1.239.708A3.858,3.858,0,0,0,39.164-4.641Zm7.356-.2a5.613,5.613,0,0,1,.554-2.536,3.96,3.96,0,0,1,1.591-1.709,4.791,4.791,0,0,1,2.435-.6,4.373,4.373,0,0,1,3.366,1.323,5.076,5.076,0,0,1,1.23,3.6v.105a4.925,4.925,0,0,1-1.235,3.529A4.384,4.384,0,0,1,51.117.176a4.434,4.434,0,0,1-3.261-1.217,4.761,4.761,0,0,1-1.327-3.3Zm2.962.185A3.538,3.538,0,0,0,49.9-2.725a1.376,1.376,0,0,0,1.222.615q1.582,0,1.617-2.435v-.3Q52.734-7.4,51.1-7.4q-1.485,0-1.608,2.206Zm12.5,1.986a.684.684,0,0,0-.4-.606,6.016,6.016,0,0,0-1.5-.475A6.853,6.853,0,0,1,58.254-4.4a3.062,3.062,0,0,1-1.1-.971,2.319,2.319,0,0,1-.378-1.31,2.628,2.628,0,0,1,1.081-2.158,4.453,4.453,0,0,1,2.83-.848,4.934,4.934,0,0,1,3.023.853,2.666,2.666,0,0,1,1.143,2.241H61.884q0-1.143-1.2-1.143a1.194,1.194,0,0,0-.782.259.8.8,0,0,0-.316.646.737.737,0,0,0,.387.642,3.654,3.654,0,0,0,1.235.4,10.671,10.671,0,0,1,1.49.378A2.706,2.706,0,0,1,64.837-2.76,2.491,2.491,0,0,1,63.681-.642a5.068,5.068,0,0,1-2.993.817,5.172,5.172,0,0,1-2.18-.439,3.645,3.645,0,0,1-1.494-1.2,2.707,2.707,0,0,1-.536-1.591h2.769a1.145,1.145,0,0,0,.439.962,1.808,1.808,0,0,0,1.081.3,1.422,1.422,0,0,0,.91-.246A.787.787,0,0,0,61.98-2.672Zm12.744.563a1.317,1.317,0,0,0,.967-.338,1.241,1.241,0,0,0,.334-.945H78.8A3.288,3.288,0,0,1,77.682-.826a4.168,4.168,0,0,1-2.887,1,4.22,4.22,0,0,1-3.27-1.3,5.125,5.125,0,0,1-1.2-3.6v-.123A5.792,5.792,0,0,1,70.862-7.4a3.872,3.872,0,0,1,1.534-1.7,4.573,4.573,0,0,1,2.373-.593,4.116,4.116,0,0,1,2.944,1.028A3.647,3.647,0,0,1,78.8-5.871H76.025A1.626,1.626,0,0,0,75.665-7a1.244,1.244,0,0,0-.967-.4q-1.151,0-1.345,1.468a10.357,10.357,0,0,0-.062,1.283,4.068,4.068,0,0,0,.343,1.986A1.187,1.187,0,0,0,74.725-2.109Zm4.957-2.733a5.613,5.613,0,0,1,.554-2.536,3.96,3.96,0,0,1,1.591-1.709,4.791,4.791,0,0,1,2.435-.6,4.373,4.373,0,0,1,3.366,1.323,5.076,5.076,0,0,1,1.23,3.6v.105a4.925,4.925,0,0,1-1.235,3.529A4.384,4.384,0,0,1,84.278.176a4.434,4.434,0,0,1-3.261-1.217,4.761,4.761,0,0,1-1.327-3.3Zm2.962.185a3.538,3.538,0,0,0,.413,1.934,1.376,1.376,0,0,0,1.222.615q1.582,0,1.617-2.435v-.3Q85.9-7.4,84.261-7.4q-1.485,0-1.608,2.206ZM92.962-9.51l.1,1.116a3.27,3.27,0,0,1,2.716-1.292,2.407,2.407,0,0,1,2.435,1.433A3.165,3.165,0,0,1,101-9.686q2.892,0,2.971,3.5V0H101V-6a1.813,1.813,0,0,0-.246-1.063,1.048,1.048,0,0,0-.9-.334,1.4,1.4,0,0,0-1.31.782l.009.123V0H95.59V-5.985a1.906,1.906,0,0,0-.237-1.081,1.045,1.045,0,0,0-.905-.334,1.42,1.42,0,0,0-1.3.782V0H90.185V-9.51ZM110.268.176a4.889,4.889,0,0,1-3.542-1.305,4.507,4.507,0,0,1-1.354-3.4v-.246a5.84,5.84,0,0,1,.541-2.575,3.955,3.955,0,0,1,1.578-1.727,4.763,4.763,0,0,1,2.461-.611,4.117,4.117,0,0,1,3.164,1.244,4.887,4.887,0,0,1,1.16,3.467v1.151h-5.889a2.135,2.135,0,0,0,.694,1.257,2.066,2.066,0,0,0,1.389.457,2.662,2.662,0,0,0,2.2-.984l1.354,1.6a3.784,3.784,0,0,1-1.569,1.217A5.3,5.3,0,0,1,110.268.176ZM109.934-7.4q-1.3,0-1.547,1.723h2.988v-.229a1.467,1.467,0,0,0-.36-1.1A1.434,1.434,0,0,0,109.934-7.4Zm11.285.571-.976-.07a1.752,1.752,0,0,0-1.793.879V0h-2.962V-9.51h2.777l.1,1.222a2.294,2.294,0,0,1,2.083-1.4,2.888,2.888,0,0,1,.826.105Zm4.922,4.72a1.317,1.317,0,0,0,.967-.338,1.241,1.241,0,0,0,.334-.945h2.777A3.288,3.288,0,0,1,129.1-.826a4.168,4.168,0,0,1-2.887,1,4.22,4.22,0,0,1-3.27-1.3,5.125,5.125,0,0,1-1.2-3.6v-.123a5.792,5.792,0,0,1,.532-2.544,3.872,3.872,0,0,1,1.534-1.7,4.573,4.573,0,0,1,2.373-.593,4.116,4.116,0,0,1,2.944,1.028,3.647,3.647,0,0,1,1.09,2.786h-2.777A1.626,1.626,0,0,0,127.081-7a1.244,1.244,0,0,0-.967-.4q-1.151,0-1.345,1.468a10.357,10.357,0,0,0-.062,1.283,4.068,4.068,0,0,0,.343,1.986A1.187,1.187,0,0,0,126.141-2.109ZM134.6,0h-2.971V-9.51H134.6Zm-3.146-11.962A1.322,1.322,0,0,1,131.906-13a1.724,1.724,0,0,1,1.187-.4,1.724,1.724,0,0,1,1.187.4,1.322,1.322,0,0,1,.457,1.037,1.322,1.322,0,0,1-.457,1.037,1.724,1.724,0,0,1-1.187.4,1.724,1.724,0,0,1-1.187-.4A1.322,1.322,0,0,1,131.449-11.962ZM141.776,0a3.344,3.344,0,0,1-.281-.853A2.754,2.754,0,0,1,139.21.176a3.374,3.374,0,0,1-2.285-.813,2.588,2.588,0,0,1-.94-2.043,2.66,2.66,0,0,1,1.143-2.338,5.821,5.821,0,0,1,3.322-.791h.914v-.5q0-1.316-1.134-1.316a.927.927,0,0,0-1.055,1.042h-2.962a2.655,2.655,0,0,1,1.173-2.239,4.931,4.931,0,0,1,2.993-.86,4.323,4.323,0,0,1,2.874.888,3.086,3.086,0,0,1,1.081,2.435v4.21a4.311,4.311,0,0,0,.4,2V0Zm-1.854-1.934a1.652,1.652,0,0,0,.918-.237,1.487,1.487,0,0,0,.523-.536V-4.228H140.5q-1.547,0-1.547,1.389a.848.848,0,0,0,.272.655A.986.986,0,0,0,139.922-1.934ZM149.1,0h-2.971V-13.5H149.1Zm6.425.176a4.889,4.889,0,0,1-3.542-1.305,4.507,4.507,0,0,1-1.354-3.4v-.246a5.84,5.84,0,0,1,.541-2.575,3.955,3.955,0,0,1,1.578-1.727,4.763,4.763,0,0,1,2.461-.611,4.117,4.117,0,0,1,3.164,1.244,4.887,4.887,0,0,1,1.16,3.467v1.151h-5.889a2.135,2.135,0,0,0,.694,1.257,2.066,2.066,0,0,0,1.389.457,2.662,2.662,0,0,0,2.2-.984l1.354,1.6a3.784,3.784,0,0,1-1.569,1.217A5.3,5.3,0,0,1,155.522.176ZM155.188-7.4q-1.3,0-1.547,1.723h2.988v-.229a1.467,1.467,0,0,0-.36-1.1A1.434,1.434,0,0,0,155.188-7.4ZM165.7-2.672a.684.684,0,0,0-.4-.606,6.016,6.016,0,0,0-1.5-.475,6.853,6.853,0,0,1-1.828-.646,3.062,3.062,0,0,1-1.1-.971,2.319,2.319,0,0,1-.378-1.31,2.628,2.628,0,0,1,1.081-2.158,4.453,4.453,0,0,1,2.83-.848,4.934,4.934,0,0,1,3.023.853,2.666,2.666,0,0,1,1.143,2.241H165.6q0-1.143-1.2-1.143a1.194,1.194,0,0,0-.782.259.8.8,0,0,0-.316.646.737.737,0,0,0,.387.642,3.654,3.654,0,0,0,1.235.4,10.671,10.671,0,0,1,1.49.378,2.706,2.706,0,0,1,2.145,2.646A2.491,2.491,0,0,1,167.4-.642a5.068,5.068,0,0,1-2.993.817,5.172,5.172,0,0,1-2.18-.439,3.645,3.645,0,0,1-1.494-1.2A2.707,2.707,0,0,1,160.2-3.05h2.769a1.145,1.145,0,0,0,.439.962,1.808,1.808,0,0,0,1.081.3,1.422,1.422,0,0,0,.91-.246A.787.787,0,0,0,165.7-2.672Z" transform="translate(401 4837)" fill="#12263f"/>
        <g id="Grupo_1072479" data-name="Grupo 1072479" transform="translate(432 4856)">
          <g id="Grupo_1072473" data-name="Grupo 1072473" clip-path="url(#clip-path-2)">
            <path id="Trazado_610036" data-name="Trazado 610036" d="M67.78,101.705c-9.533,0-19.069-.146-28.6.062a40.094,40.094,0,0,1-13.723-2.161C17.775,97.052,10.038,94.653,2.3,92.277A2.772,2.772,0,0,1,0,89.144C.076,79.386.061,69.627.01,59.868A3.363,3.363,0,0,1,1.67,56.66c3.962-2.59,7.835-5.315,11.778-7.933,1.117-.742,1.088-1.009-.127-1.665A24.956,24.956,0,0,1,.39,20.65C1.912,10.927,10.01,2.658,20.116.507,33.412-2.323,47.227,7,49.485,20.319c.583,3.442.588,3.422,4.015,4.2q20.492,4.642,40.978,9.31c2.683.611,2.738.708,2.739,3.53,0,2.143.018,4.287-.006,6.43-.021,1.9-.791,2.521-2.652,2.238-.469-.071-1.2-.657-1.325.312-.107.8.65.738,1.194.836,2.934.534,5.862,1.11,8.8,1.6A1.926,1.926,0,0,1,105,51.008q-.014,24.2-.012,48.4c0,1.824-.535,2.294-2.517,2.3q-17.345.011-34.691,0M34.251,73.178c0,7.9.017,15.8-.02,23.694,0,1.047.208,1.478,1.376,1.464,5.076-.062,10.154-.043,15.231-.012.929.006,1.42-.106,1.414-1.252-.046-8.687-.024-17.375-.03-26.063,0-.482.13-1.012-.51-1.291-1.047-.456-1.21-1.375-1.181-2.4.032-1.127,0-2.256.007-3.385.007-2.6.594-3.068,3.138-2.782,7.054.791,14.113,1.53,21.168,2.3,4.816.526,9.629,1.081,14.446,1.6a1.829,1.829,0,0,1,1.85,2.129c-.031,1.409-.023,2.821,0,4.23a1.658,1.658,0,0,1-.677,1.631c-.687.381-.684.936-.683,1.569.006,7.447.029,14.893-.022,22.339-.008,1.168.408,1.4,1.463,1.381,2.876-.061,5.757-.1,8.629.012,1.385.053,1.79-.3,1.784-1.741q-.087-21.493,0-42.987c0-1.32-.317-1.8-1.669-2.038-10.425-1.8-20.834-3.7-31.246-5.579q-11.63-2.1-23.25-4.259a2.676,2.676,0,0,0-2.815.87,20.672,20.672,0,0,1-7.133,5.034,1.836,1.836,0,0,0-1.29,2.011c.04,7.841.022,15.683.022,23.524m12.307-47.92A21.563,21.563,0,1,0,24.7,46.581,21.552,21.552,0,0,0,46.558,25.257m-15.7,48.287c0-7.559-.028-15.118.028-22.677.009-1.273-.414-1.552-1.551-1.3a22.9,22.9,0,0,1-9.56-.125,2.366,2.366,0,0,0-2.018.425C13.435,52.836,9.11,55.8,4.735,58.682A2.705,2.705,0,0,0,3.4,61.3c.052,8.518.087,17.037-.022,25.553-.022,1.726.5,2.38,2.107,2.9,1.738.56,1.819-.038,1.8-1.458-.079-6.133.132-12.272-.438-18.393-.15-1.61.522-2.457,2.136-2.875C13.344,65.9,17.663,64.636,22,63.422c2.729-.764,3.147-.271,3.426,2.528.323,3.246-1.178,6.194-1.007,9.437.272,5.176.064,10.376.078,15.565,0,1.516-.416,3.31.246,4.469.687,1.2,2.7,1.095,4.12,1.6a4.854,4.854,0,0,1,.464.2c1.27.6,1.568.161,1.558-1.169-.058-7.5-.028-15-.028-22.507m24.772,10.7c0,4.224.02,8.449-.015,12.673-.007.935.125,1.435,1.261,1.417,4.055-.062,8.111-.05,12.166-.006.964.01,1.256-.314,1.253-1.258q-.042-12.167-.006-24.333c0-.818-.22-1.173-1.121-1.251q-6.054-.526-12.093-1.211c-1.085-.122-1.487.121-1.469,1.3.063,4.224.025,8.449.025,12.673m18.059.923c0,3.888.042,7.777-.025,11.664-.021,1.194.364,1.53,1.533,1.505,3.323-.071,6.649-.056,9.973-.006.958.015,1.245-.282,1.241-1.241q-.051-11.326,0-22.652c0-.912-.245-1.287-1.18-1.367-3.14-.268-6.273-.619-9.411-.915-2.128-.2-2.131-.183-2.132,2.023q0,5.494,0,10.988M93.822,42.374a19.6,19.6,0,0,1,.023-2.835c.287-1.859-.468-2.543-2.29-2.947-13.217-2.931-26.409-5.974-39.6-9.019-1.374-.317-2.294-.386-2.358,1.447a13.3,13.3,0,0,1-.7,3.114c-.267.931-.305,1.374.96,1.612,9.057,1.7,18.09,3.531,27.131,5.316,5.555,1.1,11.112,2.187,16.831,3.312M21.089,83.395V75.111c0-3.127.009-3.078-3.059-2.5-1.171.222-1.517.714-1.5,1.9.069,5.127.03,10.256.03,15.384,0,3.339.025,3.265,3.132,4.292,1.368.453,1.437-.041,1.418-1.161-.055-3.211-.019-6.424-.019-9.636M55.381,64.763c-.474.145-1.347-.48-1.45.722-.091,1.069.583,1.2,1.359,1.271.28.027.563.034.843.061q8.153.807,16.307,1.617,7.063.693,14.129,1.359c.536.05,1.15.2,1.177-.727.023-.818-.427-.868-1.052-.931-3.641-.369-7.28-.773-10.919-1.166l-20.395-2.2M13.158,82.882c0-2.482.035-4.964-.028-7.444-.014-.529.513-1.579-.689-1.493-.9.065-1.871.181-1.8,1.638.119,2.589.033,5.187.033,7.781,0,2.256.07,4.514-.025,6.766-.059,1.4.864,1.621,1.811,1.683,1.227.082.656-.975.671-1.489.07-2.479.031-4.962.031-7.443m69.758-37.8c.317-.02.8.232.924-.352a.7.7,0,0,0-.662-.948c-.443-.065-.87-.23-1.311-.316Q71.1,41.371,60.323,39.306c-.52-.1-1.348-.863-1.563.405-.185,1.092.632,1.151,1.35,1.282,2.491.452,4.985.887,7.477,1.334,5.1.913,10.191,1.829,15.329,2.752M10.339,70.88c3.742-.825,7.425-1.63,11.1-2.459a.68.68,0,0,0,.473-.941c-.164-.555-.628-.368-.983-.27q-4.955,1.375-9.9,2.792a.76.76,0,0,0-.7.878M54.15,39.919c.651.077,1.1.208,1.154-.385.049-.541.2-1.179-.578-1.363q-1.219-.289-2.458-.491c-.426-.069-.952-.177-1.006.508-.044.558-.115,1.135.694,1.271s1.637.341,2.193.46m34.627,6.219c.454-.016,1.064.215.973-.526-.131-1.058-1.119-.624-1.716-.871-.492-.2-.748.014-.715.522.065,1.025.94.691,1.458.875M47.839,37.682c-.1-.331.2-1.026-.532-.907-.594.1-.769.775-.926,1.278-.18.579.39.546.731.608.808.145.713-.45.728-.978" transform="translate(0 0)" fill="#e6d09d"/>
            <path id="Trazado_610037" data-name="Trazado 610037" d="M37.531,57.155c.642.57,1.288.377,1.879.379,4.9.017,9.81,0,14.714.018a8.275,8.275,0,0,1,1.834.186,1.449,1.449,0,0,1,1.156,1.642,1.493,1.493,0,0,1-1.358,1.492,9.527,9.527,0,0,1-1.348.07c-5.186,0-10.374-.02-15.56.015-1.866.013-3.52-.317-4.363-2.2a3.674,3.674,0,0,1,1.018-4.58c.417-.373.325-.763.22-1.226-1.076-4.771-2.158-9.542-3.176-14.325-.194-.912-.6-1.24-1.487-1.152a3.106,3.106,0,0,1-1.172-.082,1.668,1.668,0,0,1-.928-2.578c1.364-1.453,3.2-.528,4.817-.681.937-.089,1.348.671,1.541,1.5.216.931.485,1.854.626,2.8.165,1.1.712,1.4,1.815,1.391,5.694-.06,11.388-.033,17.082-.025,3.422.005,4.906,1.911,4.144,5.211-.72,3.123-1.428,6.252-2.044,9.4a2.5,2.5,0,0,1-2.888,2.342c-4.9-.075-9.809-.035-14.714-.013-.568,0-1.222-.239-1.811.421m9.01-13.961c-2.708,0-5.417.058-8.122-.027-1.179-.037-1.327.428-1.106,1.393.592,2.577,1.188,5.154,1.718,7.744.2.972.787,1.036,1.591,1.03,3.892-.027,7.785-.048,11.676.012,1.055.016,1.479-.326,1.679-1.358.493-2.539,1.038-5.073,1.706-7.57.3-1.122-.1-1.243-1.02-1.234-2.707.028-5.415.01-8.123.01" transform="translate(-18.931 -22.477)" fill="#e6d09d"/>
            <path id="Trazado_610038" data-name="Trazado 610038" d="M159.883,88.227c2.942.62,5.907,1.24,8.871,1.87a19.452,19.452,0,0,1,2.289.547,1.538,1.538,0,0,1,1.073,2,1.466,1.466,0,0,1-1.766,1.212c-3.69-.721-7.369-1.506-11.038-2.328a1.5,1.5,0,0,1-1.206-1.782,1.72,1.72,0,0,1,1.776-1.516" transform="translate(-104.566 -58.358)" fill="#e6d09d"/>
            <path id="Trazado_610039" data-name="Trazado 610039" d="M235.554,107.8c-3.157-.678-6.4-1.322-9.608-2.1a1.517,1.517,0,0,1-1.048-2.019,1.468,1.468,0,0,1,1.769-1.2c3.242.629,6.477,1.3,9.691,2.059a1.5,1.5,0,0,1,1.1,1.847,1.722,1.722,0,0,1-1.9,1.408" transform="translate(-148.712 -67.768)" fill="#e6d09d"/>
          </g>
        </g>
        <path id="Trazado_610538" data-name="Trazado 610538" d="M5.722-4.526H4.052V0H.967V-12.8H6a5.621,5.621,0,0,1,3.56,1.01,3.421,3.421,0,0,1,1.283,2.853,4.155,4.155,0,0,1-.541,2.213A3.837,3.837,0,0,1,8.613-5.3L11.285-.132V0H7.98ZM4.052-6.9H6a1.751,1.751,0,0,0,1.323-.463A1.788,1.788,0,0,0,7.77-8.653a1.809,1.809,0,0,0-.448-1.3A1.735,1.735,0,0,0,6-10.424H4.052ZM15.7,0H12.727V-9.51H15.7ZM12.551-11.962A1.322,1.322,0,0,1,13.008-13a1.724,1.724,0,0,1,1.187-.4,1.724,1.724,0,0,1,1.187.4,1.322,1.322,0,0,1,.457,1.037,1.322,1.322,0,0,1-.457,1.037,1.724,1.724,0,0,1-1.187.4,1.724,1.724,0,0,1-1.187-.4A1.322,1.322,0,0,1,12.551-11.962ZM22.122.176A4.889,4.889,0,0,1,18.58-1.129a4.507,4.507,0,0,1-1.354-3.4v-.246a5.84,5.84,0,0,1,.541-2.575,3.955,3.955,0,0,1,1.578-1.727,4.763,4.763,0,0,1,2.461-.611A4.117,4.117,0,0,1,24.97-8.442a4.887,4.887,0,0,1,1.16,3.467v1.151H20.241a2.135,2.135,0,0,0,.694,1.257,2.066,2.066,0,0,0,1.389.457,2.662,2.662,0,0,0,2.2-.984l1.354,1.6A3.784,3.784,0,0,1,24.306-.277,5.3,5.3,0,0,1,22.122.176ZM21.788-7.4q-1.3,0-1.547,1.723h2.988v-.229a1.467,1.467,0,0,0-.36-1.1A1.434,1.434,0,0,0,21.788-7.4ZM32.3-2.672a.684.684,0,0,0-.4-.606,6.016,6.016,0,0,0-1.5-.475A6.853,6.853,0,0,1,28.573-4.4a3.062,3.062,0,0,1-1.1-.971A2.319,2.319,0,0,1,27.1-6.68a2.628,2.628,0,0,1,1.081-2.158,4.453,4.453,0,0,1,2.83-.848,4.934,4.934,0,0,1,3.023.853,2.666,2.666,0,0,1,1.143,2.241H32.2q0-1.143-1.2-1.143a1.194,1.194,0,0,0-.782.259.8.8,0,0,0-.316.646.737.737,0,0,0,.387.642,3.654,3.654,0,0,0,1.235.4,10.671,10.671,0,0,1,1.49.378A2.706,2.706,0,0,1,35.156-2.76,2.491,2.491,0,0,1,34-.642a5.068,5.068,0,0,1-2.993.817,5.172,5.172,0,0,1-2.18-.439,3.645,3.645,0,0,1-1.494-1.2A2.707,2.707,0,0,1,26.8-3.05h2.769a1.145,1.145,0,0,0,.439.962,1.808,1.808,0,0,0,1.081.3A1.422,1.422,0,0,0,32-2.03.787.787,0,0,0,32.3-2.672Zm3.894-2.153a6.421,6.421,0,0,1,.475-2.549A3.821,3.821,0,0,1,38.03-9.083a3.591,3.591,0,0,1,2.065-.6,2.855,2.855,0,0,1,2.32,1l.105-.826h2.689V-.36a4.009,4.009,0,0,1-.584,2.184,3.75,3.75,0,0,1-1.692,1.424,6.219,6.219,0,0,1-2.566.5,5.365,5.365,0,0,1-2.026-.4,3.657,3.657,0,0,1-1.5-1.028L38.083.58a2.716,2.716,0,0,0,2.18.976A1.764,1.764,0,0,0,42.231-.466v-.3a2.781,2.781,0,0,1-2.153.94,3.437,3.437,0,0,1-2.812-1.332A5.517,5.517,0,0,1,36.193-4.72Zm2.971.185a3.383,3.383,0,0,0,.439,1.85,1.386,1.386,0,0,0,1.23.681,1.573,1.573,0,0,0,1.4-.642v-4a1.534,1.534,0,0,0-1.38-.65,1.4,1.4,0,0,0-1.239.708A3.858,3.858,0,0,0,39.164-4.641Zm7.356-.2a5.613,5.613,0,0,1,.554-2.536,3.96,3.96,0,0,1,1.591-1.709,4.791,4.791,0,0,1,2.435-.6,4.373,4.373,0,0,1,3.366,1.323,5.076,5.076,0,0,1,1.23,3.6v.105a4.925,4.925,0,0,1-1.235,3.529A4.384,4.384,0,0,1,51.117.176a4.434,4.434,0,0,1-3.261-1.217,4.761,4.761,0,0,1-1.327-3.3Zm2.962.185A3.538,3.538,0,0,0,49.9-2.725a1.376,1.376,0,0,0,1.222.615q1.582,0,1.617-2.435v-.3Q52.734-7.4,51.1-7.4q-1.485,0-1.608,2.206Zm12.5,1.986a.684.684,0,0,0-.4-.606,6.016,6.016,0,0,0-1.5-.475A6.853,6.853,0,0,1,58.254-4.4a3.062,3.062,0,0,1-1.1-.971,2.319,2.319,0,0,1-.378-1.31,2.628,2.628,0,0,1,1.081-2.158,4.453,4.453,0,0,1,2.83-.848,4.934,4.934,0,0,1,3.023.853,2.666,2.666,0,0,1,1.143,2.241H61.884q0-1.143-1.2-1.143a1.194,1.194,0,0,0-.782.259.8.8,0,0,0-.316.646.737.737,0,0,0,.387.642,3.654,3.654,0,0,0,1.235.4,10.671,10.671,0,0,1,1.49.378A2.706,2.706,0,0,1,64.837-2.76,2.491,2.491,0,0,1,63.681-.642a5.068,5.068,0,0,1-2.993.817,5.172,5.172,0,0,1-2.18-.439,3.645,3.645,0,0,1-1.494-1.2,2.707,2.707,0,0,1-.536-1.591h2.769a1.145,1.145,0,0,0,.439.962,1.808,1.808,0,0,0,1.081.3,1.422,1.422,0,0,0,.91-.246A.787.787,0,0,0,61.98-2.672Zm8.35-2.153a5.809,5.809,0,0,1,.976-3.56,3.211,3.211,0,0,1,2.725-1.3,2.731,2.731,0,0,1,2.145,1V-13.5h2.971V0H76.482l-.149-1.02a2.8,2.8,0,0,1-2.32,1.2,3.205,3.205,0,0,1-2.689-1.3A5.993,5.993,0,0,1,70.33-4.825Zm2.962.185q0,2.531,1.477,2.531a1.458,1.458,0,0,0,1.406-.826V-6.557A1.419,1.419,0,0,0,74.786-7.4q-1.371,0-1.485,2.215ZM85.43.176a4.889,4.889,0,0,1-3.542-1.305,4.507,4.507,0,0,1-1.354-3.4v-.246a5.84,5.84,0,0,1,.541-2.575,3.955,3.955,0,0,1,1.578-1.727,4.763,4.763,0,0,1,2.461-.611,4.117,4.117,0,0,1,3.164,1.244,4.887,4.887,0,0,1,1.16,3.467v1.151H83.549a2.135,2.135,0,0,0,.694,1.257,2.066,2.066,0,0,0,1.389.457,2.662,2.662,0,0,0,2.2-.984l1.354,1.6A3.784,3.784,0,0,1,87.614-.277,5.3,5.3,0,0,1,85.43.176ZM85.1-7.4q-1.3,0-1.547,1.723h2.988v-.229a1.467,1.467,0,0,0-.36-1.1A1.434,1.434,0,0,0,85.1-7.4ZM97.91-9.51l.1,1.116a3.27,3.27,0,0,1,2.716-1.292,2.407,2.407,0,0,1,2.435,1.433,3.165,3.165,0,0,1,2.795-1.433q2.892,0,2.971,3.5V0h-2.971V-6a1.813,1.813,0,0,0-.246-1.063,1.048,1.048,0,0,0-.9-.334,1.4,1.4,0,0,0-1.31.782l.009.123V0h-2.971V-5.985a1.906,1.906,0,0,0-.237-1.081A1.045,1.045,0,0,0,99.4-7.4a1.42,1.42,0,0,0-1.3.782V0H95.133V-9.51ZM115.216.176a4.889,4.889,0,0,1-3.542-1.305,4.507,4.507,0,0,1-1.354-3.4v-.246a5.84,5.84,0,0,1,.541-2.575,3.955,3.955,0,0,1,1.578-1.727,4.763,4.763,0,0,1,2.461-.611,4.117,4.117,0,0,1,3.164,1.244,4.887,4.887,0,0,1,1.16,3.467v1.151h-5.889a2.135,2.135,0,0,0,.694,1.257,2.066,2.066,0,0,0,1.389.457,2.662,2.662,0,0,0,2.2-.984l1.354,1.6A3.784,3.784,0,0,1,117.4-.277,5.3,5.3,0,0,1,115.216.176ZM114.882-7.4q-1.3,0-1.547,1.723h2.988v-.229a1.467,1.467,0,0,0-.36-1.1A1.434,1.434,0,0,0,114.882-7.4Zm11.285.571-.976-.07a1.752,1.752,0,0,0-1.793.879V0h-2.962V-9.51h2.777l.1,1.222a2.294,2.294,0,0,1,2.083-1.4,2.888,2.888,0,0,1,.826.105Zm4.922,4.72a1.317,1.317,0,0,0,.967-.338,1.241,1.241,0,0,0,.334-.945h2.777a3.288,3.288,0,0,1-1.121,2.566,4.168,4.168,0,0,1-2.887,1,4.22,4.22,0,0,1-3.27-1.3,5.125,5.125,0,0,1-1.2-3.6v-.123a5.792,5.792,0,0,1,.532-2.544,3.872,3.872,0,0,1,1.534-1.7,4.573,4.573,0,0,1,2.373-.593,4.116,4.116,0,0,1,2.944,1.028,3.647,3.647,0,0,1,1.09,2.786H132.39A1.626,1.626,0,0,0,132.029-7a1.244,1.244,0,0,0-.967-.4q-1.151,0-1.345,1.468a10.357,10.357,0,0,0-.062,1.283A4.068,4.068,0,0,0,130-2.663,1.187,1.187,0,0,0,131.089-2.109ZM141.776,0a3.344,3.344,0,0,1-.281-.853A2.754,2.754,0,0,1,139.21.176a3.374,3.374,0,0,1-2.285-.813,2.588,2.588,0,0,1-.94-2.043,2.66,2.66,0,0,1,1.143-2.338,5.821,5.821,0,0,1,3.322-.791h.914v-.5q0-1.316-1.134-1.316a.927.927,0,0,0-1.055,1.042h-2.962a2.655,2.655,0,0,1,1.173-2.239,4.931,4.931,0,0,1,2.993-.86,4.323,4.323,0,0,1,2.874.888,3.086,3.086,0,0,1,1.081,2.435v4.21a4.311,4.311,0,0,0,.4,2V0Zm-1.854-1.934a1.652,1.652,0,0,0,.918-.237,1.487,1.487,0,0,0,.523-.536V-4.228H140.5q-1.547,0-1.547,1.389a.848.848,0,0,0,.272.655A.986.986,0,0,0,139.922-1.934ZM145.6-4.825a5.809,5.809,0,0,1,.976-3.56,3.211,3.211,0,0,1,2.725-1.3,2.731,2.731,0,0,1,2.145,1V-13.5h2.971V0h-2.663L151.6-1.02a2.8,2.8,0,0,1-2.32,1.2,3.205,3.205,0,0,1-2.689-1.3A5.993,5.993,0,0,1,145.6-4.825Zm2.962.185q0,2.531,1.477,2.531a1.458,1.458,0,0,0,1.406-.826V-6.557a1.419,1.419,0,0,0-1.389-.844q-1.371,0-1.485,2.215Zm7.163-.2a5.613,5.613,0,0,1,.554-2.536,3.96,3.96,0,0,1,1.591-1.709,4.791,4.791,0,0,1,2.435-.6,4.373,4.373,0,0,1,3.366,1.323,5.076,5.076,0,0,1,1.23,3.6v.105a4.925,4.925,0,0,1-1.235,3.529A4.384,4.384,0,0,1,160.321.176a4.434,4.434,0,0,1-3.261-1.217,4.761,4.761,0,0,1-1.327-3.3Zm2.962.185a3.538,3.538,0,0,0,.413,1.934,1.376,1.376,0,0,0,1.222.615q1.582,0,1.617-2.435v-.3q0-2.558-1.635-2.558-1.485,0-1.608,2.206Z" transform="translate(403 5107)" fill="#12263f"/>
        <g id="Grupo_1072480" data-name="Grupo 1072480" transform="translate(431.68 5126)">
          <g id="Grupo_1072475" data-name="Grupo 1072475" clip-path="url(#clip-path-3)">
            <path id="Trazado_610040" data-name="Trazado 610040" d="M37.713,5.933a58.581,58.581,0,0,1,6.851-1.715,52.766,52.766,0,0,1,9.844-.8c.39,0,.462.109.461.474q-.02,6.407,0,12.814c0,.352-.078.465-.442.447a40.854,40.854,0,0,0-6.242.307,29.007,29.007,0,0,0-5.1,1.091A35.529,35.529,0,0,0,36.7,21.1c-.608.315-1.2.66-1.8.986-.146.079-.277.113-.1.327q3.023,3.753,6.02,7.527c.284.359.49.455.938.225a24.887,24.887,0,0,1,6.953-2.321,23.635,23.635,0,0,1,8.229-.113,25.653,25.653,0,0,1,17.9,11.706,24.6,24.6,0,0,1,3.432,8.386,21.721,21.721,0,0,1,.526,6.63c-.032.332.065.413.387.412,3.186-.011,6.373-.007,9.559-.005.223,0,.405.024.412-.315a47.419,47.419,0,0,0-.436-7.26c-.11-.832-.309-1.653-.481-2.476-.054-.258-.007-.39.281-.446,2.729-.533,5.448-1.114,8.185-1.6,1.432-.256,2.843-.619,4.282-.836.42-.064.634.005.71.454.316,1.855.728,3.7.891,5.572a47.142,47.142,0,0,1,.287,5.345c-.011.4-.032.8-.076,1.2-.031.282.054.377.344.373.943-.015,1.886-.006,2.829-.006.167,0,.334-.043.339.239a49.4,49.4,0,0,1-.509,8.414,51.62,51.62,0,0,1-1.484,6.848A49.984,49.984,0,0,1,83.682,98.179a48.594,48.594,0,0,1-10.876,5.352,50.647,50.647,0,0,1-8.41,2.1,55.228,55.228,0,0,1-9.215.668c-.276,0-.331-.093-.327-.344.013-.928-.007-1.857.012-2.785.006-.308-.091-.38-.391-.368a43.318,43.318,0,0,1-9.546-.661c-1.954-.356-3.877-.814-5.792-1.325-.464-.124-.916-.3-1.379-.449a.879.879,0,0,0-.041.459c0,1.686-.013,3.371.007,5.056,0,.346-.1.418-.429.418q-15.025-.012-30.049,0c-.312,0-.408-.066-.407-.4q.021-13.842.024-27.683a4.789,4.789,0,0,0-.284-1.676Q3.807,68.978,1.037,61.408A14.559,14.559,0,0,1,0,56.579a13.076,13.076,0,0,1,2.3-7.537c.04-.059.076-.121.118-.179a3.936,3.936,0,0,0,1-3.424A19.247,19.247,0,0,1,7.242,34.2c2.167-2.854,4.452-5.619,6.686-8.421Q15.4,23.935,16.879,22.1a1.1,1.1,0,0,0,.26-.742q-.014-2.592,0-5.185a1.5,1.5,0,0,0-.151-.7c-1.064-2.13-2.114-4.267-3.195-6.388A1,1,0,0,1,13.8,8.058,8.125,8.125,0,0,1,18.138,4a8.814,8.814,0,0,1,2.033-.486c.328-.05.441-.157.423-.519-.045-.912-.021-1.828-.032-2.742C20.56.08,20.606,0,20.8,0a40.948,40.948,0,0,1,8.359.6A24.9,24.9,0,0,1,33.833,1.96a14.226,14.226,0,0,1,3.11,1.784,1.6,1.6,0,0,1,.775,1.629,3.5,3.5,0,0,0,0,.561m20.578,74.63v21.553c0,.724,0,.715.731.679a45.7,45.7,0,0,0,9.414-1.437,45.094,45.094,0,0,0,15.638-7.519A46.014,46.014,0,0,0,101.069,69.5a44.006,44.006,0,0,0,1.487-7.239c.137-1.13.167-2.276.289-3.411.059-.553.066-.552-.509-.552q-21.773,0-43.546-.01c-.418,0-.509.1-.509.513q.021,10.883.01,21.767m6.832-25.7h9.945c.188,0,.366.028.368-.267a27.2,27.2,0,0,0-.519-6.386,22.086,22.086,0,0,0-5.681-10.527A21.791,21.791,0,0,0,57.73,31.311a22.912,22.912,0,0,0-6.35-.372,21.387,21.387,0,0,0-6.989,1.7c-.316.137-.832.15-.893.46s.339.62.559.914a19.535,19.535,0,0,1,3.929,10.949,18.392,18.392,0,0,1-1.4,7.86,19.04,19.04,0,0,1-5.282,7.43.506.506,0,0,0-.157.454q0,2.122,0,4.243a20.239,20.239,0,0,1-.738,6.18.35.35,0,0,0,.173.466c.626.371,1.237.768,1.872,1.123a23.019,23.019,0,0,0,11.919,2.707c.432-.008.5-.161.5-.549-.012-6.486,0-12.971-.018-19.456,0-.426.077-.57.543-.566,3.243.023,6.487.012,9.73.012M8.279,39.342c.068-.089.13-.182.2-.266a3.466,3.466,0,0,1,2.677-1.331,5.783,5.783,0,0,1,5,2.743,6.227,6.227,0,0,1,.675,5.265c-.587,2.114-1.2,4.222-1.806,6.331-.3,1.054-.585,2.117-.953,3.148-.126.355-.109.507.187.717a14.474,14.474,0,0,1,4.531,5,.786.786,0,0,0,.651.425c.751.087,1.5.2,2.254.255,2.439.182,4.884.1,7.325.067a14.552,14.552,0,0,0,5.15-.958A16.04,16.04,0,0,0,44.244,42.323a15.7,15.7,0,0,0-3.316-6.917q-4.435-5.5-8.823-11.045a.858.858,0,0,0-.757-.36c-3.658.01-7.315.021-10.973-.009a1.416,1.416,0,0,0-1.254.61c-2.412,3.044-4.851,6.068-7.268,9.108A29.207,29.207,0,0,0,9.03,37.529a5.35,5.35,0,0,0-.751,1.813m26,51.567c0-3.856-.007-7.712.01-11.567,0-.4-.108-.486-.492-.485q-11.528.018-23.056,0c-.36,0-.477.063-.476.458q.021,11.546,0,23.092c0,.384.1.464.471.464q11.528-.018,23.056,0c.374,0,.5-.072.5-.479-.018-3.827-.01-7.655-.01-11.482M37.7,62.872c-.064-.009-.08-.017-.091-.012-.091.041-.182.081-.271.125a18.711,18.711,0,0,1-7.277,2.059,66.122,66.122,0,0,1-9.416-.056c-.326-.027-.393.058-.327.362a16.169,16.169,0,0,1,.256,2.851c.01.293-.063.394-.373.386-.885-.021-1.772-.026-2.657,0-.351.011-.429-.107-.415-.431A10.5,10.5,0,0,0,11.274,58.1c-.33-.168-.657-.345-.984-.518a.368.368,0,0,1-.208-.516c.315-.991.6-1.992.889-2.99.591-2.039,1.214-4.07,1.753-6.123a33.851,33.851,0,0,0,.955-3.68,2.551,2.551,0,0,0-2.019-3.115.516.516,0,0,0-.653.28C8.965,44.72,6.9,47.987,4.858,51.272a9.317,9.317,0,0,0-.906,8.257c.88,2.59,1.86,5.146,2.791,7.718.922,2.545,1.851,5.088,2.746,7.642.141.4.3.556.742.555,4.957-.016,9.914-.01,14.871-.01q4.8,0,9.6,0a.544.544,0,0,0,.56-.28,19.493,19.493,0,0,0,1.579-3.55c.968-2.842.9-5.786.857-8.735m17.16,21.093c0-1.585-.011-3.17.009-4.755,0-.358-.109-.426-.44-.4a24.713,24.713,0,0,1-10.519-1.692,25.528,25.528,0,0,1-4.353-2.183c-.251-.155-.359-.152-.5.146-.366.757-.783,1.489-1.187,2.227a1.046,1.046,0,0,0-.156.521q.008,3.792,0,7.583a.42.42,0,0,0,.3.446,36.85,36.85,0,0,0,7.952,2.574,44.561,44.561,0,0,0,8.431.721c.424,0,.482-.151.478-.515-.016-1.556-.007-3.113-.007-4.67m-17.124,5.4c-.01.132-.021.216-.021.3q0,3.106,0,6.213c0,.892,0,.888.855,1.191a41.148,41.148,0,0,0,9.417,2.062,49.528,49.528,0,0,0,6.5.307c.259-.007.38-.038.378-.342-.012-2.1-.01-4.2,0-6.3,0-.243-.066-.329-.318-.3a11.685,11.685,0,0,1-1.2.084,38.081,38.081,0,0,1-8.955-1.01,34.377,34.377,0,0,1-6.66-2.206M51.43,10.317c0-1-.019-2,.01-3,.011-.381-.085-.5-.47-.447-1.906.257-3.829.322-5.734.652a55.249,55.249,0,0,0-7.8,2.045.59.59,0,0,0-.455.451,17.263,17.263,0,0,1-2.556,5.656.678.678,0,0,0-.141.391q.009,1.113,0,2.227c0,.2.012.3.254.168a36.613,36.613,0,0,1,5.1-2.288A37.216,37.216,0,0,1,51.058,13.8c.31-.012.381-.118.377-.4-.014-1.028-.005-2.055-.005-3.083m-22.236,3.4c.7,0,1.4-.012,2.1.006a.627.627,0,0,0,.619-.334,15.246,15.246,0,0,0,2.361-7.061A.488.488,0,0,0,34.01,5.8c-.175-.1-.339-.212-.517-.3a19.836,19.836,0,0,0-5.8-1.709c-1.067-.173-2.159-.192-3.235-.313-.329-.037-.421.007-.392.36a28.863,28.863,0,0,0,.773,4.76,31.186,31.186,0,0,0,1.787,4.934c.085.19.218.191.379.191.728,0,1.456,0,2.184,0M95.95,54.862c1.014,0,2.028-.014,3.041.008.347.008.465-.075.459-.443-.021-1.313.032-2.628-.1-3.936-.144-1.433-.153-2.877-.4-4.3-.049-.28-.145-.367-.415-.317-.434.08-.875.129-1.308.217-1.564.317-3.123.657-4.69.957-.31.059-.339.153-.319.44a36.614,36.614,0,0,1,.277,7c-.039.318.081.384.373.38,1.028-.015,2.056-.006,3.084-.006M25.748,17.15c-1.6,0-3.2.006-4.8-.006-.279,0-.4.042-.394.363.022.913.018,1.826,0,2.739,0,.265.072.335.335.335q4.817-.013,9.634,0c.275,0,.331-.09.328-.342-.013-.9-.02-1.8,0-2.7.008-.322-.081-.4-.4-.4-1.57.017-3.14.008-4.71.008m-4.309-3.431c.456,0,.913,0,1.37,0,.21,0,.283-.026.173-.261-.2-.424-.366-.865-.531-1.3A29.043,29.043,0,0,1,21.136,7.3c-.079-.419-.293-.471-.661-.432A4.621,4.621,0,0,0,17.593,8.31a.528.528,0,0,0-.1.735c.754,1.453,1.487,2.918,2.214,4.385a.422.422,0,0,0,.448.295c.427-.018.856-.005,1.284,0" transform="translate(0 0)" fill="#afc2dd"/>
            <path id="Trazado_610041" data-name="Trazado 610041" d="M170.4,25.03c.175-.793.371-1.582.523-2.38.549-2.87,1.106-5.738,1.709-8.6.1-.488.159-.986.222-1.481.068-.531.088-.552.6-.463a49.6,49.6,0,0,1,31.315,19.2,53.381,53.381,0,0,1,6.633,11.937c.125.305.007.407-.238.508q-2.411,1-4.818,2-3.433,1.432-6.864,2.87c-.475.2-.57.183-.809-.4-.479-1.176-.976-2.342-1.554-3.473a35.844,35.844,0,0,0-23.862-18.759c-.844-.2-1.714-.285-2.551-.539-.253-.077-.326-.182-.309-.417m26.071,2.093c-.082-.089-.152-.173-.231-.249a38.3,38.3,0,0,0-3.615-3.006c-.5-.381-.508-.392-.854.122-1.13,1.678-2.25,3.364-3.381,5.041-.114.169-.1.269.054.387,1.005.752,1.98,1.542,2.91,2.386a.337.337,0,0,0,.545-.028q2.182-2.2,4.369-4.4c.069-.069.124-.152.2-.25m4.379,17.237c.215-.074.435-.136.645-.223,1.735-.72,3.463-1.46,5.208-2.155.363-.144.427-.258.252-.6-.664-1.292-1.308-2.594-2.058-3.84-.483-.8-.479-.808-1.265-.285q-2.33,1.553-4.66,3.109c-.18.12-.323.219-.186.471.607,1.112,1.205,2.229,1.8,3.346.057.106.108.2.258.176M202.5,33.895c-.046-.069-.1-.154-.156-.233-1-1.323-2.02-2.623-3.144-3.842-.207-.225-.339-.223-.547-.015q-2.208,2.213-4.432,4.41c-.156.155-.171.274-.029.43.865.951,1.653,1.966,2.449,2.974a.227.227,0,0,0,.36.056q2.662-1.794,5.329-3.579c.069-.046.153-.08.17-.2m-17.117-6.579c.152.01.2-.078.26-.161q1.787-2.663,3.576-5.325c.089-.132.1-.2-.058-.3-1.5-.907-3.053-1.721-4.627-2.494-.187-.092-.279-.1-.375.14q-1.166,2.846-2.371,5.676a.465.465,0,0,0,.254.712c1.05.542,2.091,1.105,3.135,1.658.075.04.155.068.206.09M174.36,22.584c-.008.2.042.261.378.34A25.5,25.5,0,0,1,178.249,24c.229.09.281-.037.344-.185q.36-.846.714-1.694.835-2.014,1.663-4.031c.2-.5.2-.5-.342-.65-.383-.11-.761-.239-1.139-.364a27.246,27.246,0,0,0-3.5-.974c-.263-.05-.383.006-.431.293-.281,1.673-.615,3.336-.973,4.994-.084.39-.15.785-.228,1.2" transform="translate(-111.831 -7.92)" fill="#afc2dd"/>
            <path id="Trazado_610042" data-name="Trazado 610042" d="M204.013,184.082c-.032.041-.08.109-.134.172l-14.744,17.16c-1.759,2.047-3.522,4.091-5.269,6.15-.265.313-.443.335-.749.053-.64-.59-1.309-1.149-1.98-1.705-.147-.122-.165-.183-.038-.327,4.044-4.584,7.981-9.26,11.973-13.889q4.071-4.722,8.106-9.473c.275-.323.447-.315.744-.039.617.573,1.27,1.106,1.908,1.657.07.061.2.069.183.242" transform="translate(-118.796 -119.428)" fill="#afc2dd"/>
            <path id="Trazado_610043" data-name="Trazado 610043" d="M184.877,179.674a5.1,5.1,0,0,1-.183,10.206,5.1,5.1,0,1,1,.183-10.206m-.088,6.834a1.645,1.645,0,0,0,1.7-1.653,1.718,1.718,0,1,0-1.7,1.653" transform="translate(-117.912 -117.916)" fill="#afc2dd"/>
            <path id="Trazado_610044" data-name="Trazado 610044" d="M229.8,234.61a5.116,5.116,0,1,1-5.182-5.087,5.194,5.194,0,0,1,5.182,5.087m-3.4-.011a1.719,1.719,0,1,0-3.436.076,1.666,1.666,0,0,0,1.759,1.691A1.646,1.646,0,0,0,226.4,234.6" transform="translate(-144.098 -150.631)" fill="#afc2dd"/>
            <path id="Trazado_610045" data-name="Trazado 610045" d="M63.241,111.839c0-.5-.013-1,.005-1.5a.443.443,0,0,0-.3-.487,5.179,5.179,0,0,1-2.56-2.426,6.456,6.456,0,0,1-.574-2.954c0-.988,0-.988,1-.988.714,0,1.429.007,2.143,0,.223,0,.3.065.293.291-.015.456-.006.914,0,1.371A1.638,1.638,0,0,0,65,106.913c.472,0,.943,0,1.414,0,.132,0,.265.011.257-.187a12.131,12.131,0,0,0-.056-1.88,1.527,1.527,0,0,0-1.52-1.36,6.163,6.163,0,0,1-2.587-.673,5.265,5.265,0,0,1-2.689-4.757c-.031-1.5,0-3-.014-4.5,0-.32.114-.37.394-.365.885.016,1.772-.011,2.657.014.336.01.4-.1.393-.41-.02-.9,0-1.8-.013-2.7,0-.268.077-.338.338-.333.9.015,1.8.019,2.7,0,.311-.007.417.062.409.395-.024,1,0,2-.014,3a.49.49,0,0,0,.306.532A5.27,5.27,0,0,1,70.1,98.817c0,.4.128.914-.071,1.158-.211.26-.749.071-1.144.08-.643.014-1.286,0-1.929.008-.227,0-.288-.071-.292-.293a9.142,9.142,0,0,0-.069-1.836,1.527,1.527,0,0,0-1.567-1.3c-.5-.008-1,.009-1.5-.006-.227-.007-.3.068-.29.292.014.456,0,.914,0,1.371a1.636,1.636,0,0,0,1.623,1.78,6.343,6.343,0,0,1,2.124.449,5.228,5.228,0,0,1,3.1,4.931c.035,1.527,0,3.056.017,4.584,0,.292-.12.318-.355.315-.886-.01-1.772.009-2.657-.011-.319-.007-.445.057-.434.413.029.885,0,1.771.014,2.656,0,.257-.035.381-.341.374-.928-.021-1.857-.015-2.786,0-.24,0-.323-.064-.315-.311.017-.542.005-1.085,0-1.628" transform="translate(-39.248 -58.909)" fill="#afc2dd"/>
          </g>
        </g>
        <path id="Trazado_610049" data-name="Trazado 610049" d="M-3267.962-7099.087l119.6,160.161h-119.6Z" transform="translate(3552.962 11686.087)" fill="#94eeff"/>
        <path id="Trazado_610052" data-name="Trazado 610052" d="M-3267.962-7099.087l119.6,160.161h-119.6Z" transform="translate(3552.962 11955.087)" fill="#ffe7af"/>
        <path id="Trazado_610053" data-name="Trazado 610053" d="M-3267.962-7099.087l119.6,160.161h-119.6Z" transform="translate(3552.962 12225.087)" fill="#c3d7f5"/>
        <path id="Trazado_610050" data-name="Trazado 610050" d="M-3148.361-7099.087l-119.6,160.161h119.6Z" transform="translate(3833.361 11686.087)" fill="#94eeff"/>
        <path id="Trazado_610051" data-name="Trazado 610051" d="M-3148.361-7099.087l-119.6,160.161h119.6Z" transform="translate(3833.361 11955.087)" fill="#ffe7af"/>
        <path id="Trazado_610054" data-name="Trazado 610054" d="M-3148.361-7099.087l-119.6,160.161h119.6Z" transform="translate(3833.361 12225.087)" fill="#c3d7f5"/>
      </g>
    </g>
  </g>
</svg>
